v -0.00964693043 0.0517880536 -0.0765570614
v -0.0105607805 0.0511511976 -0.0757270493
v -0.0098325998 0.0521175264 -0.0755969319
v -0.0105494511 0.0511645796 -0.0769677863
v -0.0155882794 0.0508459329 -0.0766095996
v -0.0148219698 0.0510015628 -0.0776853994
v -0.0169320672 0.0500420443 -0.0780124217
v -0.0183345138 0.0488568663 -0.0769912382
v -0.0187052558 0.0482578105 -0.0782350195
v -0.0197738507 0.0450111006 -0.0781059323
v -0.0196120961 0.0463307032 -0.0769843231
v -0.020209345 0.035436016 -0.0741264201
v -0.0199156614 0.0382304029 -0.0764211174
v -0.0203960879 0.0316436414 -0.073667214
v -0.021120038 0.0264441634 -0.0689728011
v -0.0210674764 0.0255946488 -0.0699279422
v -0.0219319529 0.0211664413 -0.0643781619
v -0.021856229 0.0204372826 -0.065449049
v -0.0228836914 0.0167268046 -0.0589922478
v -0.022786032 0.0159180892 -0.0599218241
v -0.0239494035 0.0132458482 -0.0529613753
v -0.0239991724 0.0120872982 -0.053384382
v -0.0267358625 0.0132013089 -0.0361749931
v -0.0267688981 0.012054009 -0.0373374205
v -0.0264552549 0.0120738273 -0.0344235363
v -0.0252342125 0.0132181616 -0.0322253036
v -0.0249290704 0.0120669283 -0.0316354184
v -0.0229801936 0.0132181763 -0.0300659449
v -0.0224828265 0.0120590305 -0.0296104408
v -0.0190618081 0.0132241968 -0.0286567112
v -0.0191296942 0.0120895185 -0.0286414492
v -0.0183400927 0.0122003314 -0.0274581951
v -0.0183420238 0.0132183412 -0.0276292471
v -0.00987388739 0.0457821318 -0.0751480227
v -0.0098325998 0.0521175264 -0.0755969319
v -0.0105607805 0.0511511976 -0.0757270493
v -0.0155882794 0.0508459329 -0.0766095996
v -0.0183345138 0.0488568663 -0.0769912382
v -0.0196120961 0.0463307032 -0.0769843231
v -0.0101520685 0.0389214742 -0.0735737965
v -0.020209345 0.035436016 -0.0741264201
v -0.010622567 0.0324165818 -0.0709112326
v -0.021120038 0.0264441634 -0.0689728011
v -0.0112726027 0.0264441643 -0.0672326772
v -0.0219319529 0.0211664413 -0.0643781619
v -0.0120845154 0.0211664421 -0.0626380264
v -0.0228836914 0.0167268046 -0.0589922478
v -0.013036259 0.0167268055 -0.0572521181
v -0.0239494035 0.0132458482 -0.0529613753
v -0.0141019741 0.013245849 -0.0512212398
v -0.0267358625 0.0132013089 -0.0361749931
v -0.0252342125 0.0132181616 -0.0322253036
v -0.0190618081 0.0132241968 -0.0286567112
v -0.0229801936 0.0132181763 -0.0300659449
v -0.0183420238 0.0132183412 -0.0276292471
v -0.0183400927 0.0122003314 -0.0274581951
v -0.0191296942 0.0120895185 -0.0286414492
v -0.020486247 0.0121234636 -0.0154155336
v -0.0224828265 0.0120590305 -0.0296104408
v -0.0334725522 0.0120280354 -0.0190628023
v -0.0347390228 0.0120453055 -0.0249343371
v -0.0249290704 0.0120669283 -0.0316354184
v -0.0264552549 0.0120738273 -0.0344235363
v -0.0311025807 0.0120378851 -0.0465481018
v -0.0267688981 0.012054009 -0.0373374205
v -0.0277144234 0.0120356204 -0.0525689276
v -0.0239991724 0.0120872982 -0.053384382
v -0.0271450914 0.0122575284 -0.0537682557
v -0.0300213822 0.0125218448 -0.0517086068
v -0.0246325812 0.0148623418 -0.058759097
v -0.022786032 0.0159180892 -0.0599218241
v -0.0281734638 0.0155307182 -0.0584336754
v -0.024028073 0.0175338509 -0.0624567096
v -0.021856229 0.0204372826 -0.065449049
v -0.0249753579 0.0213806001 -0.0665278872
v -0.0210674764 0.0255946488 -0.0699279422
v -0.0265373399 0.0182596565 -0.0627097092
v -0.0279872376 0.0207104958 -0.0643716427
v -0.030910685 0.0161471779 -0.0559194363
v -0.0320473348 0.012695056 -0.0481921394
v -0.0244888965 0.0252722334 -0.0698361313
v -0.0339352798 0.0121708777 -0.0365888205
v -0.0358982023 0.0125077333 -0.0268459698
v -0.0343040196 0.0129391366 -0.0409776927
v -0.0337525429 0.0139403913 -0.0458488532
v -0.0222776518 0.0294557637 -0.0727504201
v -0.0203960879 0.0316436414 -0.073667214
v -0.0218128524 0.0339347239 -0.0750487787
v -0.0199156614 0.0382304029 -0.0764211174
v -0.024565283 0.0321633627 -0.0739735668
v -0.0231287811 0.03908382 -0.0769471342
v -0.0197738507 0.0450111006 -0.0781059323
v -0.0268413768 0.0283282518 -0.0708560576
v -0.0295143652 0.0217906654 -0.0637140998
v -0.0260408447 0.0372852205 -0.0753862609
v -0.0230313405 0.0440843965 -0.0781299546
v -0.0211682476 0.0498134624 -0.0788164209
v -0.0187052558 0.0482578105 -0.0782350195
v -0.0169320672 0.0500420443 -0.0780124217
v -0.0148219698 0.0510015628 -0.0776853994
v -0.00970831897 0.0581846389 -0.0764125318
v -0.0105494511 0.0511645796 -0.0769677863
v -0.00964693043 0.0517880536 -0.0765570614
v -0.00338216765 0.0568151296 -0.0755446847
v -0.00998982275 0.0652777372 -0.0748118386
v -0.00370404294 0.0653899737 -0.0737410155
v -0.0104961965 0.0722899092 -0.0719322765
v -0.00428376568 0.072546495 -0.0708139734
v -0.0112060766 0.0787099581 -0.067915133
v -0.00515063047 0.0800609701 -0.0658812118
v -0.0120975558 0.084343342 -0.0628558977
v -0.00620627132 0.0861830829 -0.0598022249
v -0.013030235 0.0885652134 -0.0575429644
v -0.00705095282 0.089637498 -0.0548499112
v -0.0139482618 0.0915929779 -0.0523565745
v -0.00778850521 0.0919569102 -0.0504559546
v -0.0248669521 0.0891766489 -0.058736169
v -0.0260169349 0.0918480545 -0.0538838096
v -0.0282282029 0.0883940292 -0.0585234549
v -0.0287908937 0.0917015456 -0.0526513206
v -0.0241914068 0.0861067013 -0.0629140821
v -0.0235482352 0.0828953789 -0.0664154592
v -0.026212739 0.0841882057 -0.0646505097
v -0.0262489669 0.0782181602 -0.0696035975
v -0.0229630295 0.0786672967 -0.0700188684
v -0.0223145157 0.0742064246 -0.0729654392
v -0.0301104381 0.0912708728 -0.0520369736
v -0.0320281011 0.0909756957 -0.0490543258
v -0.0309238025 0.0878524008 -0.0559195119
v -0.0280110355 0.0834498937 -0.0642368977
v -0.0295508841 0.0824358579 -0.0635075325
v -0.0324072131 0.0872471109 -0.0534803548
v -0.0336380347 0.0906759029 -0.0450430118
v -0.0294092411 0.0766746965 -0.0677513599
v -0.0307446329 0.081225284 -0.0624907087
v -0.0219986777 0.069578479 -0.0752678548
v -0.0242088063 0.0672495495 -0.0759907707
v -0.0216976403 0.065037647 -0.0769447011
v -0.0224192053 0.0592874984 -0.0783680414
v -0.0247802039 0.0741463715 -0.0726533937
v -0.0264093808 0.0715309323 -0.073300756
v -0.0280000768 0.0709258869 -0.0722834899
v -0.026783379 0.0643728161 -0.0756071415
v -0.0214537712 0.0545607454 -0.078812323
v -0.0237282236 0.0520730138 -0.0787104596
v -0.0256347229 0.0571445016 -0.0776845205
v -0.0256308949 0.047075103 -0.0777061388
v -0.0292542656 0.0702150723 -0.070924696
v -0.0286776655 0.0614965833 -0.0741877069
v -0.0301361814 0.0696748294 -0.0693055452
v -0.027248216 0.057025263 -0.0765383244
v -0.0272423565 0.0472920661 -0.076571462
v -0.0283096691 0.0416223517 -0.074617943
v -0.0284755212 0.052242159 -0.0753316621
v -0.0294061018 0.0548005835 -0.0734116475
v -0.0402875052 0.079127677 -0.0120987264
v -0.0297797791 0.0394154896 -0.0714254682
v -0.0314649362 0.0248634927 -0.0619469269
v -0.0292185113 0.0342190968 -0.0711270201
v -0.0293481421 0.0278184223 -0.0680971949
v -0.0279774831 0.0333618057 -0.0724113255
v -0.0306869004 0.0231118773 -0.0628173933
v -0.0320048553 0.0176682298 -0.0553590886
v -0.0341186634 0.0162081981 -0.0468825339
v -0.0413076252 0.0312628247 -0.00631082949
v -0.0366954058 0.0146736621 -0.0319278945
v -0.0392247271 0.0200922741 -0.017855865
v -0.0365971919 0.013360407 -0.0282972469
v -0.0379017219 0.0158046295 -0.0222441682
v -0.0364595279 0.0130606259 -0.0239772824
v -0.0391824188 0.0200511024 -0.0130902365
v -0.0346510856 0.0123347155 -0.019488539
v -0.0377750737 0.0161841173 -0.017149435
v -0.0356802408 0.0127654346 -0.0205180535
v -0.0372039722 0.0174352037 -0.0122153404
v -0.0324680393 0.0121874626 -0.0173823573
v -0.0356776247 0.0166576179 -0.0112793416
v -0.0330501802 0.0148598367 -0.0124270096
v -0.0396812793 0.0250733306 -0.00618085178
v -0.0404306332 0.0261315808 -0.00767869351
v -0.0385044222 0.0241836266 -0.0048559883
v -0.0415429039 0.0357949401 -0.00142506951
v -0.0406366074 0.0331104057 -0.000774667205
v -0.0215282386 0.0154665987 -0.00947638473
v -0.0338480474 0.0179334994 -0.00826616088
v -0.0155950489 0.0164942569 -0.00656291377
v -0.0142467612 0.0121854975 -0.0141974
v -0.0224759354 0.01970416 -0.00414855458
v -0.0169381084 0.0239387285 0.00103141438
v -0.0354238601 0.0213990772 -0.00481047828
v -0.023377622 0.0253994434 0.000944633484
v -0.0177506996 0.0308229165 0.00562929381
v -0.0240862077 0.0318568906 0.00495808927
v -0.0183234243 0.0384596859 0.00887022907
v -0.0245900393 0.0388732071 0.00780609917
v -0.0186752104 0.0481512672 0.0108597887
v -0.0375199534 0.0276279719 -0.000663857736
v -0.0351278512 0.02536581 -0.00117776735
v -0.035530602 0.0298352503 0.00181750456
v -0.0370622119 0.0346654179 0.0038553786
v -0.0394909031 0.0325055235 0.00072640878
v -0.0412347763 0.0422164616 0.00261031892
v -0.0392946915 0.0393629913 0.00422115845
v -0.0363412784 0.0389440768 0.00573605139
v -0.0365285358 0.0443472961 0.00704264021
v -0.0387713761 0.0468065404 0.00641808947
v -0.0248774054 0.0464214805 0.00944443891
v -0.0365577711 0.0497642698 0.0076766577
v -0.0396143111 0.054507996 0.00602970867
v -0.0402655377 0.0468918174 0.00511011131
v -0.0249297551 0.0536928281 0.00976425727
v -0.0186504612 0.0561397332 0.010723107
v -0.0414419353 0.0518766137 0.00378267032
v -0.0366340207 0.0549253335 0.00759640752
v -0.0245887959 0.0650630835 0.00782675779
v -0.0183755269 0.0659653668 0.00876894555
v -0.0374717981 0.0600231662 0.00671866001
v -0.042136629 0.0493568855 0.0019348292
v -0.0240765968 0.0722128877 0.0049278744
v -0.017527883 0.074309988 0.00500140668
v -0.0422415712 0.0449327773 -0.000614392866
v -0.0423119714 0.0558851483 -0.000527551902
v -0.0419441053 0.0610612704 0.000886061662
v -0.0417047095 0.0687328946 -0.00379875819
v -0.0412464079 0.0615446501 0.00267612959
v -0.0413848468 0.069817088 -0.00227875698
v -0.0401151945 0.0619262713 0.00425935286
v -0.0404817295 0.0775665417 -0.00738957096
v -0.0406592215 0.0706743122 -0.000646747185
v -0.0383521547 0.0671467594 0.00404554266
v -0.0395056592 0.071366675 0.000809837638
v -0.0397135776 0.0787492166 -0.00599810519
v -0.039272981 0.0836136426 -0.0126569561
v -0.0363198049 0.0650974192 0.00573537218
v -0.0360323643 0.069995233 0.00389903689
v -0.0377384225 0.074146935 0.00067631895
v -0.0380868975 0.0781151433 -0.00261389978
v -0.0355788164 0.0741485475 0.00184481923
v -0.0233628929 0.0787192528 0.000875151909
v -0.0169203773 0.0791247279 0.001904294
v -0.0157731136 0.0848824785 -0.00352033858
v -0.035086412 0.0788226518 -0.00128102001
v -0.0224764896 0.0843725031 -0.00417218616
v -0.0146505806 0.0888546217 -0.008580555
v -0.0379130375 0.0833257359 -0.00820278801
v -0.03635568 0.0841144732 -0.00725252539
v -0.0360529336 0.0885055136 -0.0138448653
v -0.0377627428 0.0878888149 -0.0171449763
v -0.0344412736 0.0829196097 -0.00479767223
v -0.0338080415 0.086409712 -0.0086441949
v -0.0215349171 0.0885344266 -0.00943294144
v -0.0204764081 0.091927229 -0.0154701309
v -0.0135325849 0.0918982713 -0.014135876
v -0.0330214234 0.0891073462 -0.0122935613
v -0.0324831745 0.0919564773 -0.0176593036
v -0.0337157013 0.0919582933 -0.0187277532
v -0.0354840384 0.091514419 -0.0207960038
v -0.0361821141 0.0913411929 -0.0247937511
v -0.0369809385 0.0900958109 -0.0275796687
v -0.035829559 0.0910971399 -0.032344702
v -0.0386334886 0.0863008866 -0.0201372022
v -0.0352419176 0.0896233103 -0.039862658
v -0.0372716507 0.088254848 -0.0290887663
v -0.0334576023 0.0865886308 -0.050593575
v -0.0317154551 0.0799473638 -0.0606379006
v -0.00990745946 0.00499990478 -0.03875361
v -0.00843787246 0.0049994578 -0.0469934865
v -0.0107106449 0.0104957804 -0.0346746761
v -0.00781453961 0.0121294696 -0.0505975739
v -0.00713231064 0.00921147959 -0.0541012036
v -0.00680415675 0.0152461967 -0.0563155045
v -0.00762529804 0.00690954845 -0.0511745573
v -0.00711802248 0.00500291509 -0.0509410864
v -0.00615371962 0.00704821888 -0.0549852673
v -0.00429993568 0.00501276517 -0.0546467316
v -0.00602147393 0.0145661377 -0.0604726258
v -0.00531232305 0.0224833925 -0.0647589623
v -0.00432058419 0.0307436563 -0.0704405829
v -0.0039754333 0.011855557 -0.0622213876
v -0.00431111953 0.0172218071 -0.0659352925
v -0.00447628175 0.0232590577 -0.0685458188
v -0.00234952029 0.0112741136 -0.0626017514
v -0.00153304907 0.00500473348 -0.0551753619
v -0.00348026233 0.0343516611 -0.0741489988
v -0.00378344449 0.0376008302 -0.0734003901
v -0.00341889618 0.0468897368 -0.0755710586
v -0.00228014899 0.0408682825 -0.0775131863
v -0.00303170318 0.028019503 -0.0731881009
v -0.00243639759 0.0216579135 -0.070727506
v 0.000531377264 0.0106058564 -0.0620049192
v 0.0337751112 0.00500405117 -0.0487827056
v 0.0349454456 0.0105307279 -0.0555925013
v 0.0353201201 0.0050156892 -0.0458283816
v 0.00084396904 0.0179717536 -0.0688971311
v -0.00240360044 0.0523524415 -0.0779192429
v -0.00338216765 0.0568151296 -0.0755446847
v -0.00155213852 0.0307397392 -0.0755056215
v -0.00120021716 0.0179301641 -0.0687274907
v 0.000173107843 0.0242017952 -0.0731204636
v -0.00306648831 0.0619756987 -0.0760591822
v -0.00370404294 0.0653899737 -0.0737410155
v -0.00428376568 0.072546495 -0.0708139734
v 0.0358539765 0.0159353646 -0.0608287985
v 0.0358617059 0.0222699821 -0.0658033532
v 0.0366198064 0.0114402351 -0.0542422931
v 0.0376044614 0.0145613729 -0.0548714306
v 0.0354475337 0.00500034094 -0.0426059123
v 0.0377597593 0.0170106174 -0.0591890188
v 0.0393276603 0.027459028 -0.0646519184
v 0.0379165499 0.0224121981 -0.0645007705
v 0.00287430771 0.0297085181 -0.0757326547
v 0.0364895128 0.0291854466 -0.0695075665
v 0.0385575117 0.0290713772 -0.068127556
v 0.0390163096 0.0362290482 -0.0707240077
v 0.0400456304 0.038663703 -0.0687844586
v 0.036965549 0.0363335191 -0.0720147684
v -8.06684699e-05 0.0292137702 -0.0755171
v 0.00312674461 0.0368199198 -0.0781371433
v 0.000340196973 0.035600274 -0.0778523216
v -0.00117391307 0.0371235742 -0.0776460103
v -0.000941386617 0.0440202332 -0.078961876
v 0.000608138924 0.0419485703 -0.0792649342
v 0.00348644702 0.0432732402 -0.0794046558
v 0.0380323609 0.043683517 -0.073214632
v -0.000947949256 0.0512882892 -0.0793863786
v 0.000922446544 0.0509635954 -0.0800449634
v 0.000727810596 0.0586389914 -0.0794211228
v -0.00137662757 0.0585064873 -0.0785658369
v 0.00339649983 0.0514303744 -0.0799123896
v -0.00171187027 0.0672613677 -0.076741277
v 0.0398810449 0.043826999 -0.0711928529
v 0.0401900833 0.0514023332 -0.0708045263
v 0.0402114717 0.0514244754 -0.069542072
v 0.0399840182 0.0647681218 -0.068417826
v 0.0394247893 0.0514145509 -0.0725215592
v 0.0377960342 0.0515874334 -0.0737472728
v 0.0398968848 0.0582494633 -0.0710665132
v 0.0386478737 0.0565334141 -0.0728849089
v 0.0377488591 0.0588856205 -0.0731814478
v 0.0390473436 0.0637870141 -0.0712389883
v 0.0396064161 0.0681471696 -0.0687053136
v 0.00345774343 0.059243647 -0.079257082
v 0.0389982268 0.0763734429 -0.0652551884
v 0.0389958722 0.0779401836 -0.0629223185
v 0.0374531229 0.0650449572 -0.0720835524
v 0.00308218847 0.0659021901 -0.0779923401
v 0.0385696994 0.0727560405 -0.0684946019
v 0.0371643717 0.0709329124 -0.0703475554
v 0.000328819914 0.0682027778 -0.077384722
v 0.00264150314 0.0726135799 -0.0758736918
v 0.0363524964 0.0784742969 -0.0668866443
v 0.0380051661 0.0787295842 -0.0653603289
v 0.0381978041 0.0820610065 -0.0617771584
v 0.036346681 0.0829728236 -0.0635106524
v 0.00200961867 0.0801798249 -0.0719478878
v -0.000354684829 0.0769148464 -0.0737614406
v -0.0023382844 0.0758145002 -0.0732994289
v 0.0373673928 0.086924955 -0.0570764707
v 0.0377139147 0.0859316471 -0.055587833
v 0.0357378781 0.0866248478 -0.060128473
v 0.000859845845 0.0873349142 -0.0657737895
v -0.00117871443 0.0845412606 -0.0684044498
v -0.00341174018 0.0707031341 -0.0736834307
v -0.00413709891 0.0786072455 -0.0695280731
v -0.00515063047 0.0800609701 -0.0658812118
v -0.00319592802 0.083415728 -0.0681036268
v -0.00510008669 0.085449259 -0.0636777491
v -0.00620627132 0.0861830829 -0.0598022249
v -0.00430140738 0.0897574235 -0.0611525669
v -0.00630470961 0.0908199518 -0.0563920476
v -0.00705095282 0.089637498 -0.0548499112
v -0.00778850521 0.0919569102 -0.0504559546
v -0.00236667704 0.0908213957 -0.0612491625
v -0.0056248339 0.0943807473 -0.0530258345
v -0.00767978079 0.0944099673 -0.0482157193
v -0.000293318958 0.092901109 -0.058088603
v -0.00359608237 0.0955189575 -0.0527479395
v -0.0070737556 0.0971093593 -0.0442235614
v 0.0351994802 0.0896345564 -0.0564972055
v 0.0344858977 0.0922493201 -0.0527178694
v 0.0337108683 0.0945076492 -0.048562928
v 0.0360169513 0.0921228117 -0.0494428619
v 0.0356963667 0.0929624456 -0.0442618679
v 0.033020048 0.096246021 -0.0441966637
v 0.03491203 0.0947840659 -0.0432041619
v -0.00448096595 0.0974914113 -0.046716418
v 0.0321661153 0.097558365 -0.0398682372
v 0.0339269438 0.096153273 -0.0365817716
v 0.0330383981 0.0954165793 -0.0289710617
v 0.032689376 0.097627638 -0.0362124469
v 0.0321803821 0.0970841355 -0.0276914128
v 0.0305276398 0.0948436992 -0.0163041754
v -0.00533278204 0.0984457899 -0.0417017989
v 0.0304269285 0.0986098222 -0.0340680213
v 0.0296245885 0.0962668241 -0.0164423473
v 0.0297692256 0.0986150608 -0.0264014641
v -0.00633723602 0.0987563277 -0.0367969566
v -0.00856885 0.0979315715 -0.0350944087
v -0.00754346681 0.0985007727 -0.030195422
v 0.0275528356 0.0924247341 -0.0044943903
v 0.0291821176 0.091653541 -0.00743298297
v 0.0277429538 0.0881826762 0.000425475855
v -0.00912894652 0.0961637 -0.0395808835
v 0.0281855524 0.0977506187 -0.0190955485
v 0.025753681 0.0866974435 0.00570642151
v 0.0265193332 0.0829930615 0.0074342257
v -0.00907951857 0.0940462625 -0.0431612192
v -0.0108089366 0.0947361977 -0.0334295153
v -0.0132193258 0.0919964153 -0.0199447022
v -0.010619572 0.0961578034 -0.0308302231
v -0.0121220163 0.0946354983 -0.022106056
v -0.0135325849 0.0918982713 -0.014135876
v -0.0101270421 0.0970325133 -0.0258584623
v -0.0117615792 0.0946101082 -0.016765522
v -0.0133573375 0.0908718549 -0.00846246112
v -0.0146505806 0.0888546217 -0.008580555
v -0.0157731136 0.0848824785 -0.00352033858
v -0.00901282813 0.0970033979 -0.0215026725
v -0.0101753899 0.0948444407 -0.0144937469
v 0.0273046378 0.0963242807 -0.0130060755
v 0.0262496881 0.0947578251 -0.00788376565
v -0.0147726229 0.0857508612 -0.00092570499
v -0.0169203773 0.0791247279 0.001904294
v -0.0108853049 0.0930101368 -0.00995932569
v 0.0251889208 0.0905251676 0.00116183992
v -0.011568066 0.0908193983 -0.00569494441
v 0.0239477122 0.0915512871 -0.000453345046
v 0.0237491327 0.0875504301 0.00587770992
v -0.010630539 0.0881036967 -0.000835946503
v -0.0129955023 0.0866389706 0.000230423643
v -0.015894623 0.0792521038 0.00546309057
v -0.0112621435 0.0845777501 0.00341480154
v 0.0230794729 0.0831806645 0.0107867425
v -0.0141836234 0.0796201626 0.0070645161
v -0.0178385515 0.0706507401 0.0085124615
v -0.017527883 0.074309988 0.00500140668
v -0.0183755269 0.0659653668 0.00876894555
v -0.0166670482 0.0718245152 0.0103994178
v -0.0146614452 0.0732751143 0.0113437192
v -0.0179441156 0.0556403231 0.0176932022
v -0.0119179637 0.0797792502 0.00778627218
v -0.0189739519 0.0574660587 0.0143443322
v -0.0210888791 0.00555540425 0.0245101604
v -0.0186504612 0.0561397332 0.010723107
v -0.0186752104 0.0481512672 0.0108597887
v 0.0225043147 0.0783632529 0.0147032246
v 0.0219945164 0.0736743638 0.0176180984
v 0.0244253246 0.079060121 0.0132516259
v 0.0254922071 0.0783101329 0.0122529775
v 0.0250606764 0.0722911522 0.0156562252
v 0.0240001603 0.073386597 0.0166905986
v 0.0234022499 0.0550091404 0.0241468355
v 0.0238945078 0.0545901791 0.0228266159
v 0.0216308249 0.00554976039 0.0348603789
v 0.0220273849 0.00554973059 0.0333896111
v 0.0203149141 0.0055496857 0.0364431558
v 0.0224965704 0.0583758074 0.0240377194
v 0.022036978 0.0509753668 0.0265068666
v 0.0181115999 0.00554964076 0.0371716771
v 0.0210419115 0.058477595 0.0246980169
v 0.0201408066 0.0509501569 0.0271822442
v -0.017583327 0.00554959325 0.0308380084
v 0.0196316373 0.0590533908 0.0245630945
v -0.0134130763 0.0643588707 0.0162297292
v -0.0140664274 0.0552517582 0.0200779919
v -0.0161319294 0.0579905042 0.0182890828
v -0.0166313899 0.0519961512 0.0199870934
v -0.0201432316 0.00554999502 0.0286301336
v -0.0187685045 0.0515492093 0.0176146932
v -0.0209508469 0.00555112746 0.0258268585
v -0.0211347971 2.81274396e-07 0.0255108898
v -0.0205008066 1.31089233e-08 0.0211956518
v -0.0205093714 0.0121541303 0.0212115992
v -0.0183234243 0.0384596859 0.00887022907
v -0.0177506996 0.0308229165 0.00562929381
v -0.0169381084 0.0239387285 0.00103141438
v -0.0201739075 0.0110784004 0.019343532
v -0.0155950489 0.0164942569 -0.00656291377
v -0.0142467612 0.0121854975 -0.0141974
v -0.012142608 0.0109999765 -0.0261048554
v -0.00781453961 0.0121294696 -0.0505975739
v -0.0107106449 0.0104957804 -0.0346746761
v -0.0132193258 0.0919964153 -0.0199447022
v -0.0135325849 0.0918982713 -0.014135876
v -0.0204764081 0.091927229 -0.0154701309
v -0.00778850521 0.0919569102 -0.0504559546
v -0.0142483034 0.0919990637 -0.0506866665
v -0.0139482618 0.0915929779 -0.0523565745
v -0.0260169349 0.0918480545 -0.0538838096
v -0.0347478978 0.0919938465 -0.026061025
v -0.0337157013 0.0919582933 -0.0187277532
v -0.0354840384 0.091514419 -0.0207960038
v -0.0361821141 0.0913411929 -0.0247937511
v -0.0275378254 0.0920078868 -0.0526494754
v -0.0287908937 0.0917015456 -0.0526513206
v -0.0339789833 0.0918653997 -0.0363415253
v -0.035829559 0.0910971399 -0.032344702
v -0.0307447648 0.0919863846 -0.0476039684
v -0.0324840214 0.0915285463 -0.0461668737
v -0.0320281011 0.0909756957 -0.0490543258
v -0.0336380347 0.0906759029 -0.0450430118
v 0.0318764472 0.00499998302 -0.0229139565
v 0.0354475337 0.00500034094 -0.0426059123
v 0.0306536439 0.00499998291 -0.0256973581
v 0.0262164565 0.00499998252 -0.0302108761
v 0.0208777924 0.00499996714 -0.0340944593
v 0.0353201201 0.0050156892 -0.0458283816
v 0.0337751112 0.00500405117 -0.0487827056
v 0.0198626828 0.00499999688 -0.033882042
v -0.00153304907 0.00500473348 -0.0551753619
v -0.00429993568 0.00501276517 -0.0546467316
v -0.00701257493 0.00499997962 -0.0385399006
v -0.007858186 0.00499997954 -0.0391823181
v -0.00711802248 0.00500291509 -0.0509410864
v -0.00843787246 0.0049994578 -0.0469934865
v -0.00990745946 0.00499990478 -0.03875361
v 0.00604052613 0.00499998076 -0.031332139
v -0.00436432354 0.00499997985 -0.0318037928
v -0.00728866042 0.00499997959 -0.0351572817
v -0.00622192936 0.00499997968 -0.0330278359
v 0.0150478717 0.00499998154 -0.028407725
v 0.018957299 0.00499998189 -0.030543402
v 0.0171643154 0.00499999664 -0.0288952724
v -0.0257104819 0.0109999753 -0.0144644815
v -0.0294735839 0.010999975 -0.00124819699
v -0.0283723066 0.0109999751 -0.00807850956
v -0.0216343057 0.0109999756 -0.0200080962
v -0.0289537401 0.010999975 0.00565076843
v -0.0268413608 0.0109999752 0.012238916
v -0.0232541143 0.0110037306 0.0181892974
v -0.0201739075 0.0110784004 0.019343532
v -0.0205093714 0.0121541303 0.0212115992
v -0.012142608 0.0109999765 -0.0261048554
v -0.0149008653 0.0109875933 -0.0266702496
v -0.0123952699 0.0105387258 -0.0305148889
v -0.0107106449 0.0104957804 -0.0346746761
v 0.0216308249 0.00554976039 0.0348603789
v 0.0220273849 0.00554973059 0.0333896111
v 0.0202021222 0.00554967077 0.0345395732
v 0.0203149141 0.0055496857 0.0364431558
v 0.0181115999 0.00554964076 0.0371716771
v -0.017583327 0.00554959325 0.0308380084
v -0.0193149627 0.00555002493 0.0274867663
v -0.0201432316 0.00554999502 0.0286301336
v -0.0209508469 0.00555112746 0.0258268585
v -0.0205008066 1.31089233e-08 0.0211956518
v -0.0268413598 -1.72477072e-08 0.012238916
v -0.0232526494 -1.69339722e-08 0.0181539115
v -0.0289537391 -1.74323773e-08 0.00565076843
v -0.029473583 -1.74778235e-08 -0.00124819699
v -0.0283723057 -1.73815468e-08 -0.00807850956
v -0.025710481 -1.71488426e-08 -0.0144644815
v -0.00440074182 -1.52858859e-08 -0.0318444771
v 0.00506338838 -1.44585054e-08 -0.0315048062
v 0.0149997155 -1.3589844e-08 -0.0283819885
v -0.00622192892 -1.54450992e-08 -0.0330278359
v 0.0171643158 -1.34006086e-08 -0.0288952724
v -0.015448156 4.6058548e-07 -0.0259270484
v -0.0216345128 -1.67925102e-08 -0.0200548704
v -0.0119871846 -1.05356082e-07 -0.0313501427
v -0.00734148416 -1.55429738e-08 -0.0351906434
v -0.00982818528 -2.09475465e-07 -0.0387504348
v -0.00700881428 -1.55138909e-08 -0.038388485
v -0.00762803393 -1.55680248e-08 -0.03914634
v 0.0220258094 -1.29756033e-08 0.0333895761
v 0.0188962382 -1.32491991e-08 -0.0305301626
v 0.0201803705 -1.31369367e-08 0.0345362525
v -0.0211347971 2.81274396e-07 0.0255108898
v -0.0195634682 1.1158768e-06 0.0273379002
v 0.0317935279 -1.21216822e-08 -0.0233626823
v 0.0306536444 -1.2221334e-08 -0.0256973581
v 0.0262164569 -1.26092452e-08 -0.0302108761
v 0.0197961548 -1.31705259e-08 -0.0338025537
v 0.0207970588 -1.30830241e-08 -0.0341142033
v 0.0317935279 -1.21216822e-08 -0.0233626823
v 0.0220258094 -1.29756033e-08 0.0333895761
v 0.0318764472 0.00499998302 -0.0229139565
v 0.0220273849 0.00554973059 0.0333896111
v 0.0330383981 0.0954165793 -0.0289710617
v 0.0354475337 0.00500034094 -0.0426059123
v 0.0238945078 0.0545901791 0.0228266159
v 0.0376044614 0.0145613729 -0.0548714306
v 0.0250606764 0.0722911522 0.0156562252
v 0.0393276603 0.027459028 -0.0646519184
v 0.0265193332 0.0829930615 0.0074342257
v 0.0400456304 0.038663703 -0.0687844586
v 0.0277429538 0.0881826762 0.000425475855
v 0.0402114717 0.0514244754 -0.069542072
v 0.0291821176 0.091653541 -0.00743298297
v 0.0305276398 0.0948436992 -0.0163041754
v 0.0399840182 0.0647681218 -0.068417826
v 0.0389958722 0.0779401836 -0.0629223185
v 0.0377139147 0.0859316471 -0.055587833
v 0.0356963667 0.0929624456 -0.0442618679
v -0.0107106449 0.0104957804 -0.0346746761
v -0.00982818528 -2.09475465e-07 -0.0387504348
v -0.00990745946 0.00499990478 -0.03875361
v -0.0119871846 -1.05356082e-07 -0.0313501427
v -0.0123952699 0.0105387258 -0.0305148889
v -0.015448156 4.6058548e-07 -0.0259270484
v -0.0149008653 0.0109875933 -0.0266702496
v -0.0216343057 0.0109999756 -0.0200080962
v -0.0216345128 -1.67925102e-08 -0.0200548704
v -0.0257104819 0.0109999753 -0.0144644815
v -0.025710481 -1.71488426e-08 -0.0144644815
v -0.0283723066 0.0109999751 -0.00807850956
v -0.0283723057 -1.73815468e-08 -0.00807850956
v -0.0294735839 0.010999975 -0.00124819699
v -0.029473583 -1.74778235e-08 -0.00124819699
v -0.0289537401 0.010999975 0.00565076843
v -0.0289537391 -1.74323773e-08 0.00565076843
v -0.0268413608 0.0109999752 0.012238916
v -0.0268413598 -1.72477072e-08 0.012238916
v -0.0232541143 0.0110037306 0.0181892974
v -0.0232526494 -1.69339722e-08 0.0181539115
v -0.0205008066 1.31089233e-08 0.0211956518
v -0.0205093714 0.0121541303 0.0212115992
v 0.0317935279 -1.21216822e-08 -0.0233626823
v 0.0318764472 0.00499998302 -0.0229139565
v 0.0306536439 0.00499998291 -0.0256973581
v 0.0306536444 -1.2221334e-08 -0.0256973581
v 0.0262164565 0.00499998252 -0.0302108761
v 0.0262164569 -1.26092452e-08 -0.0302108761
v 0.0208777924 0.00499996714 -0.0340944593
v 0.0207970588 -1.30830241e-08 -0.0341142033
v 0.0198626828 0.00499999688 -0.033882042
v 0.0197961548 -1.31705259e-08 -0.0338025537
v 0.018957299 0.00499998189 -0.030543402
v 0.0188962382 -1.32491991e-08 -0.0305301626
v 0.0171643158 -1.34006086e-08 -0.0288952724
v 0.0171643154 0.00499999664 -0.0288952724
v 0.0149997155 -1.3589844e-08 -0.0283819885
v 0.0150478717 0.00499998154 -0.028407725
v 0.00604052613 0.00499998076 -0.031332139
v 0.00506338838 -1.44585054e-08 -0.0315048062
v -0.00436432354 0.00499997985 -0.0318037928
v -0.00440074182 -1.52858859e-08 -0.0318444771
v -0.00622192892 -1.54450992e-08 -0.0330278359
v -0.00622192936 0.00499997968 -0.0330278359
v -0.00734148416 -1.55429738e-08 -0.0351906434
v -0.00728866042 0.00499997959 -0.0351572817
v -0.00701257493 0.00499997962 -0.0385399006
v -0.00700881428 -1.55138909e-08 -0.038388485
v -0.00762803393 -1.55680248e-08 -0.03914634
v -0.007858186 0.00499997954 -0.0391823181
v -0.00982818528 -2.09475465e-07 -0.0387504348
v -0.00990745946 0.00499990478 -0.03875361
v 0.0220258094 -1.29756033e-08 0.0333895761
v 0.0201803705 -1.31369367e-08 0.0345362525
v 0.0220273849 0.00554973059 0.0333896111
v 0.0202021222 0.00554967077 0.0345395732
v -0.0193149627 0.00555002493 0.0274867663
v -0.0195634682 1.1158768e-06 0.0273379002
v -0.0211347971 2.81274396e-07 0.0255108898
v -0.0209508469 0.00555112746 0.0258268585
v -0.00338216765 0.0568151296 -0.0755446847
v -0.00964693043 0.0517880536 -0.0765570614
v -0.00960920206 0.0478568799 -0.0766458805
v -0.00341889618 0.0468897368 -0.0755710586
v -0.00987928853 0.0397214425 -0.0751174521
v -0.00378344449 0.0376008302 -0.0734003901
v -0.00432058419 0.0307436563 -0.0704405829
v -0.0104098812 0.0320209996 -0.0721148215
v -0.00531232305 0.0224833925 -0.0647589623
v -0.0111821777 0.0250283764 -0.067744375
v -0.0121688196 0.0189913048 -0.0621609564
v -0.00680415675 0.0152461967 -0.0563155045
v -0.0138562009 0.0123609296 -0.052618538
v -0.00781453961 0.0121294696 -0.0505975739
v -0.0183400927 0.0122003314 -0.0274581951
v -0.020486247 0.0121234636 -0.0154155336
v -0.0142467612 0.0121854975 -0.0141974
v -0.00960920206 0.0478568799 -0.0766458805
v -0.00964693043 0.0517880536 -0.0765570614
v -0.0098325998 0.0521175264 -0.0755969319
v -0.00987388739 0.0457821318 -0.0751480227
v -0.00987928853 0.0397214425 -0.0751174521
v -0.0101520685 0.0389214742 -0.0735737965
v -0.0104098812 0.0320209996 -0.0721148215
v -0.010622567 0.0324165818 -0.0709112326
v -0.0112726027 0.0264441643 -0.0672326772
v -0.0111821777 0.0250283764 -0.067744375
v -0.0120845154 0.0211664421 -0.0626380264
v -0.0121688196 0.0189913048 -0.0621609564
v -0.013036259 0.0167268055 -0.0572521181
v -0.0138562009 0.0123609296 -0.052618538
v -0.0141019741 0.013245849 -0.0512212398
v -0.0183420238 0.0132183412 -0.0276292471
v -0.0183400927 0.0122003314 -0.0274581951
vt 0.917480469 0.279296875
vt 0.916992188 0.280273438
vt 0.91796875 0.279785156
vt 0.916503906 0.279541016
vt 0.9140625 0.282714844
vt 0.9140625 0.281738281
vt 0.912597656 0.282958984
vt 0.912109375 0.284423828
vt 0.911132812 0.284179688
vt 0.909667969 0.286376953
vt 0.910644531 0.286132812
vt 0.90625 0.293701172
vt 0.906738281 0.291015625
vt 0.904296875 0.296142578
vt 0.903808594 0.301513672
vt 0.902832031 0.301513672
vt 0.902832031 0.306884766
vt 0.90234375 0.306640625
vt 0.902832031 0.312255859
vt 0.90234375 0.312255859
vt 0.903808594 0.317626953
vt 0.903320312 0.317871094
vt 0.911621094 0.326904297
vt 0.91015625 0.326904297
vt 0.911621094 0.328369141
vt 0.913574219 0.329101562
vt 0.913085938 0.330078125
vt 0.915039062 0.330566406
vt 0.914550781 0.331542969
vt 0.916992188 0.332519531
vt 0.916503906 0.333007812
vt 0.917480469 0.333740234
vt 0.91796875 0.333007812
vt 0.90625 0.6875
vt 0.90625 0.68359375
vt 0.905273438 0.684082031
vt 0.901367188 0.684082031
vt 0.899414062 0.685546875
vt 0.8984375 0.6875
vt 0.90625 0.692382812
vt 0.8984375 0.694824219
vt 0.90625 0.697265625
vt 0.8984375 0.702148438
vt 0.90625 0.702148438
vt 0.8984375 0.70703125
vt 0.90625 0.70703125
vt 0.8984375 0.711914062
vt 0.90625 0.711914062
vt 0.8984375 0.716308594
vt 0.90625 0.716308594
vt 0.8984375 0.728027344
vt 0.899902344 0.73046875
vt 0.905273438 0.732421875
vt 0.901855469 0.731933594
vt 0.90625 0.732910156
vt 0.356201172 0.7265625
vt 0.35546875 0.725585938
vt 0.353515625 0.737304688
vt 0.352294922 0.724609375
vt 0.343994141 0.732910156
vt 0.343261719 0.729492188
vt 0.350341797 0.723632812
vt 0.349121094 0.721679688
vt 0.343994141 0.71484375
vt 0.348388672 0.719726562
vt 0.345214844 0.709960938
vt 0.34765625 0.708007812
vt 0.345214844 0.708984375
vt 0.34375 0.711425781
vt 0.344482422 0.704589844
vt 0.344970703 0.702636719
vt 0.342041016 0.706054688
vt 0.342529297 0.701660156
vt 0.341308594 0.698242188
vt 0.338623047 0.699707031
vt 0.336914062 0.694824219
vt 0.340576172 0.702636719
vt 0.338134766 0.702636719
vt 0.340820312 0.708984375
vt 0.343017578 0.713867188
vt 0.335449219 0.697265625
vt 0.342773438 0.721679688
vt 0.342285156 0.728027344
vt 0.342041016 0.719238281
vt 0.341552734 0.715820312
vt 0.332763672 0.694335938
vt 0.331542969 0.692382812
vt 0.329101562 0.693359375
vt 0.326171875 0.690917969
vt 0.329833984 0.695800781
vt 0.324707031 0.693359375
vt 0.320068359 0.690917969
vt 0.332519531 0.698242188
vt 0.336914062 0.703613281
vt 0.325683594 0.695800781
vt 0.320556641 0.693359375
vt 0.316162109 0.692382812
vt 0.317138672 0.690429688
vt 0.315429688 0.689453125
vt 0.314453125 0.687988281
vt 0.307861328 0.685546875
vt 0.313720703 0.684570312
vt 0.312988281 0.684082031
vt 0.307373047 0.680664062
vt 0.302001953 0.688476562
vt 0.299804688 0.68359375
vt 0.296142578 0.69140625
vt 0.293457031 0.6875
vt 0.290527344 0.6953125
vt 0.286376953 0.692382812
vt 0.285400391 0.699707031
vt 0.280029297 0.697753906
vt 0.281005859 0.703613281
vt 0.276123047 0.701660156
vt 0.27734375 0.708007812
vt 0.272705078 0.705078125
vt 0.287109375 0.709960938
vt 0.284667969 0.713867188
vt 0.2890625 0.711425781
vt 0.285888672 0.715820312
vt 0.289794922 0.70703125
vt 0.292480469 0.704589844
vt 0.292236328 0.70703125
vt 0.296630859 0.703613281
vt 0.295654297 0.701660156
vt 0.298828125 0.699707031
vt 0.286621094 0.716796875
vt 0.287109375 0.719238281
vt 0.289794922 0.713867188
vt 0.29296875 0.707519531
vt 0.293945312 0.708496094
vt 0.290283203 0.715820312
vt 0.287353516 0.72265625
vt 0.298095703 0.705566406
vt 0.294921875 0.709472656
vt 0.302001953 0.697753906
vt 0.303955078 0.698242188
vt 0.305175781 0.695800781
vt 0.309326172 0.694824219
vt 0.299316406 0.700683594
vt 0.301513672 0.701171875
vt 0.302001953 0.702148438
vt 0.306396484 0.69921875
vt 0.3125 0.693359375
vt 0.314697266 0.694824219
vt 0.311035156 0.696777344
vt 0.318359375 0.6953125
vt 0.302490234 0.703125
vt 0.308349609 0.700195312
vt 0.302978516 0.704101562
vt 0.311279297 0.698242188
vt 0.318115234 0.696777344
vt 0.322265625 0.697753906
vt 0.314697266 0.698730469
vt 0.312988281 0.700195312
vt 0.297119141 0.745117188
vt 0.323974609 0.700195312
vt 0.334472656 0.705566406
vt 0.327636719 0.699707031
vt 0.332519531 0.701171875
vt 0.328369141 0.698242188
vt 0.3359375 0.704589844
vt 0.339599609 0.709472656
vt 0.340087891 0.715332031
vt 0.329345703 0.743164062
vt 0.340576172 0.725097656
vt 0.336914062 0.734863281
vt 0.341552734 0.727539062
vt 0.33984375 0.731445312
vt 0.341796875 0.729980469
vt 0.336914062 0.737792969
vt 0.343261719 0.732910156
vt 0.339599609 0.734863281
vt 0.342529297 0.732421875
vt 0.339111328 0.73828125
vt 0.344482422 0.734375
vt 0.340332031 0.738769531
vt 0.342529297 0.73828125
vt 0.333740234 0.742675781
vt 0.332763672 0.741699219
vt 0.334472656 0.743652344
vt 0.326416016 0.746582031
vt 0.328369141 0.747070312
vt 0.349853516 0.743164062
vt 0.340332031 0.741210938
vt 0.353515625 0.747558594
vt 0.358642578 0.740234375
vt 0.345947266 0.748046875
vt 0.345947266 0.756347656
vt 0.337402344 0.743652344
vt 0.340576172 0.753417969
vt 0.338623047 0.76171875
vt 0.334716797 0.7578125
vt 0.330810547 0.766113281
vt 0.328369141 0.761230469
vt 0.320800781 0.770019531
vt 0.332519531 0.746582031
vt 0.334960938 0.747070312
vt 0.331787109 0.749511719
vt 0.328125 0.750976562
vt 0.328857422 0.748046875
vt 0.322265625 0.75
vt 0.324462891 0.750976562
vt 0.325195312 0.752929688
vt 0.321533203 0.754394531
vt 0.319580078 0.753417969
vt 0.321533203 0.763671875
vt 0.317626953 0.755371094
vt 0.314453125 0.75390625
vt 0.319335938 0.751953125
vt 0.314941406 0.764648438
vt 0.312255859 0.770996094
vt 0.316162109 0.751464844
vt 0.314208984 0.755859375
vt 0.304443359 0.765136719
vt 0.302246094 0.770507812
vt 0.310546875 0.755859375
vt 0.317626953 0.75
vt 0.298095703 0.763671875
vt 0.293457031 0.768554688
vt 0.320556641 0.748046875
vt 0.313232422 0.749511719
vt 0.309814453 0.750976562
vt 0.3046875 0.748535156
vt 0.309570312 0.751953125
vt 0.303955078 0.75
vt 0.309326172 0.753417969
vt 0.298339844 0.747558594
vt 0.303222656 0.750976562
vt 0.305664062 0.754394531
vt 0.302734375 0.752441406
vt 0.297607422 0.749023438
vt 0.293945312 0.745117188
vt 0.306640625 0.755859375
vt 0.303222656 0.755371094
vt 0.300537109 0.752929688
vt 0.297851562 0.751464844
vt 0.300048828 0.754882812
vt 0.291992188 0.76171875
vt 0.288574219 0.766601562
vt 0.282226562 0.763671875
vt 0.296630859 0.753417969
vt 0.286376953 0.758789062
vt 0.27734375 0.760742188
vt 0.293945312 0.748046875
vt 0.29296875 0.749511719
vt 0.289550781 0.745605469
vt 0.290283203 0.742675781
vt 0.293457031 0.751464844
vt 0.290527344 0.749511719
vt 0.281738281 0.755859375
vt 0.277099609 0.751953125
vt 0.272705078 0.757324219
vt 0.287841797 0.747558594
vt 0.28515625 0.744140625
vt 0.285400391 0.743164062
vt 0.286621094 0.740722656
vt 0.286865234 0.737792969
vt 0.288085938 0.735351562
vt 0.287109375 0.731933594
vt 0.291503906 0.740234375
vt 0.288330078 0.7265625
vt 0.289550781 0.734375
vt 0.290771484 0.718261719
vt 0.295654297 0.710449219
vt 0.163574219 0.0222320557
vt 0.156616211 0.0244903564
vt 0.168701172 0.0250701904
vt 0.155761719 0.0306243896
vt 0.151977539 0.0294799805
vt 0.151855469 0.0343017578
vt 0.153686523 0.0270233154
vt 0.153076172 0.0255737305
vt 0.150390625 0.0281829834
vt 0.149047852 0.0263519287
vt 0.1484375 0.0347900391
vt 0.146850586 0.0406494141
vt 0.14440918 0.0468444824
vt 0.145751953 0.0333557129
vt 0.144775391 0.0377197266
vt 0.144287109 0.0418701172
vt 0.14440918 0.0328979492
vt 0.146484375 0.0258483887
vt 0.142211914 0.0495910645
vt 0.143188477 0.051574707
vt 0.142456055 0.0578918457
vt 0.14050293 0.0539245605
vt 0.141845703 0.0455322266
vt 0.141967773 0.0413208008
vt 0.142333984 0.0317077637
vt 0.114257812 0.0193023682
vt 0.113708496 0.0262298584
vt 0.111877441 0.0175170898
vt 0.140136719 0.038269043
vt 0.140258789 0.0614013672
vt 0.141601562 0.0646972656
vt 0.140258789 0.0474853516
vt 0.141723633 0.0385131836
vt 0.139648438 0.0430908203
vt 0.140014648 0.0678710938
vt 0.14074707 0.0704956055
vt 0.140869141 0.0756835938
vt 0.113037109 0.0318603516
vt 0.112731934 0.0375061035
vt 0.111694336 0.0259552002
vt 0.109741211 0.0279388428
vt 0.110107422 0.0154876709
vt 0.110778809 0.0316162109
vt 0.107788086 0.0400085449
vt 0.110839844 0.0369873047
vt 0.137084961 0.0466308594
vt 0.111755371 0.0429992676
vt 0.109802246 0.042388916
vt 0.108947754 0.0477600098
vt 0.106506348 0.0490722656
vt 0.110900879 0.0481872559
vt 0.139282227 0.0465087891
vt 0.136352539 0.0512390137
vt 0.138427734 0.0506286621
vt 0.139526367 0.051574707
vt 0.139038086 0.0559692383
vt 0.137939453 0.0546569824
vt 0.135742188 0.0553588867
vt 0.109924316 0.0532531738
vt 0.138793945 0.0605773926
vt 0.137329102 0.0602722168
vt 0.13684082 0.0650634766
vt 0.138549805 0.065246582
vt 0.135498047 0.0604248047
vt 0.137939453 0.0708007812
vt 0.107788086 0.0531005859
vt 0.106567383 0.0584106445
vt 0.10559082 0.0584411621
vt 0.106567383 0.0676269531
vt 0.108154297 0.0584106445
vt 0.109741211 0.0585327148
vt 0.10760498 0.0631103516
vt 0.109130859 0.0618286133
vt 0.109924316 0.0633544922
vt 0.108642578 0.0665893555
vt 0.10736084 0.0697021484
vt 0.134887695 0.065246582
vt 0.106689453 0.0752563477
vt 0.10546875 0.0768432617
vt 0.109985352 0.0673217773
vt 0.134643555 0.0693969727
vt 0.108215332 0.0724487305
vt 0.109741211 0.0711669922
vt 0.136352539 0.0710449219
vt 0.134155273 0.0736694336
vt 0.10925293 0.0763549805
vt 0.107666016 0.0767211914
vt 0.106323242 0.0797119141
vt 0.108337402 0.0798339844
vt 0.133789062 0.078918457
vt 0.135864258 0.0768432617
vt 0.137451172 0.0765991211
vt 0.105224609 0.0843505859
vt 0.103759766 0.0845947266
vt 0.107727051 0.0830078125
vt 0.133544922 0.0848388672
vt 0.135375977 0.0827026367
vt 0.139404297 0.0736083984
vt 0.139038086 0.0796508789
vt 0.14050293 0.0820922852
vt 0.137084961 0.0825195312
vt 0.138549805 0.0857543945
vt 0.140014648 0.0882568359
vt 0.13671875 0.0886230469
vt 0.138183594 0.0919799805
vt 0.139648438 0.0927124023
vt 0.138793945 0.0963745117
vt 0.135131836 0.0887451172
vt 0.136108398 0.094909668
vt 0.137207031 0.0981445312
vt 0.13293457 0.0908813477
vt 0.134399414 0.0950317383
vt 0.135375977 0.100646973
vt 0.10736084 0.0861816406
vt 0.10736084 0.0892333984
vt 0.107299805 0.0924072266
vt 0.105285645 0.0908203125
vt 0.103759766 0.0944824219
vt 0.106994629 0.0955810547
vt 0.104980469 0.095703125
vt 0.133911133 0.0989379883
vt 0.107116699 0.0985717773
vt 0.104797363 0.100219727
vt 0.103027344 0.105407715
vt 0.106140137 0.100769043
vt 0.104431152 0.106506348
vt 0.10357666 0.114746094
vt 0.133789062 0.101989746
vt 0.10748291 0.102539062
vt 0.104980469 0.114501953
vt 0.106567383 0.107666016
vt 0.133911133 0.104919434
vt 0.135253906 0.106018066
vt 0.134277344 0.108825684
vt 0.105712891 0.123596191
vt 0.103820801 0.121765137
vt 0.104553223 0.128051758
vt 0.13659668 0.103393555
vt 0.106750488 0.112670898
vt 0.106262207 0.131713867
vt 0.104675293 0.134277344
vt 0.137817383 0.101196289
vt 0.137939453 0.107055664
vt 0.14050293 0.115783691
vt 0.136962891 0.108642578
vt 0.138305664 0.114135742
vt 0.140014648 0.120178223
vt 0.136230469 0.111572266
vt 0.137695312 0.117797852
vt 0.139160156 0.124450684
vt 0.141113281 0.12512207
vt 0.142089844 0.130371094
vt 0.135253906 0.114318848
vt 0.136230469 0.119262695
vt 0.106811523 0.11706543
vt 0.10723877 0.120849609
vt 0.139770508 0.131469727
vt 0.142578125 0.13684082
vt 0.13671875 0.122741699
vt 0.10736084 0.127807617
vt 0.137207031 0.126220703
vt 0.108520508 0.126586914
vt 0.107971191 0.131591797
vt 0.135864258 0.130126953
vt 0.137817383 0.131591797
vt 0.139648438 0.138305664
vt 0.135864258 0.134033203
vt 0.108154297 0.136108398
vt 0.137695312 0.138671875
vt 0.141235352 0.144897461
vt 0.142333984 0.141235352
vt 0.142700195 0.147949219
vt 0.139282227 0.14465332
vt 0.137329102 0.143920898
vt 0.139160156 0.157104492
vt 0.135742188 0.138671875
vt 0.141235352 0.155029297
vt 0.148925781 0.191772461
vt 0.144165039 0.154907227
vt 0.146484375 0.16015625
vt 0.107971191 0.140258789
vt 0.107666016 0.144042969
vt 0.106506348 0.139160156
vt 0.105285645 0.139038086
vt 0.104309082 0.143920898
vt 0.105834961 0.143676758
vt 0.10546875 0.157958984
vt 0.104248047 0.157958984
vt 0.104248047 0.194580078
vt 0.103027344 0.194213867
vt 0.105895996 0.194824219
vt 0.106750488 0.155761719
vt 0.106872559 0.161376953
vt 0.107849121 0.195068359
vt 0.108032227 0.155883789
vt 0.108520508 0.161499023
vt 0.142822266 0.193603516
vt 0.10925293 0.155517578
vt 0.135498047 0.151000977
vt 0.135498047 0.157958984
vt 0.137329102 0.155761719
vt 0.137939453 0.16003418
vt 0.145629883 0.192871094
vt 0.14050293 0.159667969
vt 0.147949219 0.192138672
vt 0.149780273 0.195800781
vt 0.153198242 0.194580078
vt 0.149414062 0.186523438
vt 0.151000977 0.166015625
vt 0.155761719 0.170166016
vt 0.161376953 0.173461914
vt 0.151245117 0.186767578
vt 0.169433594 0.176269531
vt 0.176635742 0.177124023
vt 0.186157227 0.174682617
vt 0.204589844 0.167480469
vt 0.192871094 0.172729492
vt 0.543457031 0.112548828
vt 0.54296875 0.116516113
vt 0.548339844 0.116333008
vt 0.54296875 0.0912475586
vt 0.547851562 0.091796875
vt 0.547851562 0.090637207
vt 0.557617188 0.0910644531
vt 0.561035156 0.110534668
vt 0.559082031 0.11541748
vt 0.561035156 0.114196777
vt 0.562011719 0.11151123
vt 0.55859375 0.0920410156
vt 0.559570312 0.0921630859
vt 0.561523438 0.103515625
vt 0.5625 0.106384277
vt 0.560546875 0.0957641602
vt 0.561523438 0.0969238281
vt 0.561523438 0.094909668
vt 0.5625 0.0977172852
vt 0.490966797 0.578613281
vt 0.506835938 0.578613281
vt 0.492919922 0.577636719
vt 0.495849609 0.57421875
vt 0.498046875 0.569824219
vt 0.509277344 0.578125
vt 0.511230469 0.577148438
vt 0.497802734 0.569335938
vt 0.511230469 0.552246094
vt 0.510253906 0.55078125
vt 0.497558594 0.55078125
vt 0.498046875 0.550292969
vt 0.507324219 0.549316406
vt 0.50390625 0.548828125
vt 0.497314453 0.548828125
vt 0.493896484 0.560546875
vt 0.492919922 0.553222656
vt 0.495117188 0.55078125
vt 0.493408203 0.551757812
vt 0.492919922 0.566894531
vt 0.495117188 0.569335938
vt 0.493652344 0.568359375
vt 0.361816406 0.28515625
vt 0.363037109 0.294433594
vt 0.363037109 0.289794922
vt 0.359375 0.281005859
vt 0.361572266 0.299072266
vt 0.359130859 0.303222656
vt 0.35546875 0.306884766
vt 0.353027344 0.307373047
vt 0.353027344 0.308837891
vt 0.353027344 0.275878906
vt 0.355224609 0.275634766
vt 0.353759766 0.272949219
vt 0.353027344 0.269775391
vt 0.716308594 0.916015625
vt 0.715332031 0.916015625
vt 0.716308594 0.916992188
vt 0.717285156 0.916992188
vt 0.718261719 0.918457031
vt 0.718261719 0.946777344
vt 0.716308594 0.948730469
vt 0.716796875 0.94921875
vt 0.715332031 0.950195312
vt 0.415039062 0.981445312
vt 0.408935547 0.976074219
vt 0.412597656 0.979492188
vt 0.406494141 0.971679688
vt 0.405029297 0.967285156
vt 0.405029297 0.962402344
vt 0.40625 0.958007812
vt 0.420410156 0.943847656
vt 0.427734375 0.942871094
vt 0.435791016 0.943847656
vt 0.418701172 0.942871094
vt 0.437255859 0.942871094
vt 0.412597656 0.948730469
vt 0.408691406 0.953613281
vt 0.414550781 0.944824219
vt 0.417480469 0.941894531
vt 0.415283203 0.939453125
vt 0.417480469 0.939453125
vt 0.416748047 0.938964844
vt 0.449707031 0.984375
vt 0.438476562 0.941894531
vt 0.448486328 0.985351562
vt 0.415283203 0.984375
vt 0.416748047 0.985351562
vt 0.449462891 0.944824219
vt 0.448242188 0.943847656
vt 0.444091797 0.940917969
vt 0.438720703 0.939453125
vt 0.439453125 0.938964844
vt 0.248291016 0.737792969
vt 0.209716797 0.73046875
vt 0.247192383 0.741699219
vt 0.208862305 0.734863281
vt 0.23815918 0.812011719
vt 0.260742188 0.744140625
vt 0.208862305 0.773925781
vt 0.267578125 0.752929688
vt 0.21105957 0.788574219
vt 0.272460938 0.764160156
vt 0.215087891 0.797851562
vt 0.2734375 0.7734375
vt 0.219116211 0.802734375
vt 0.272216797 0.783203125
vt 0.223999023 0.806152344
vt 0.229492188 0.810058594
vt 0.26953125 0.793457031
vt 0.263671875 0.803222656
vt 0.257568359 0.808105469
vt 0.248901367 0.812011719
vt 0.9609375 0.254638672
vt 0.969238281 0.251953125
vt 0.965332031 0.251953125
vt 0.969238281 0.257080078
vt 0.9609375 0.2578125
vt 0.969238281 0.261474609
vt 0.960449219 0.260986328
vt 0.960449219 0.267333984
vt 0.969238281 0.267333984
vt 0.960449219 0.271972656
vt 0.969238281 0.271972656
vt 0.960449219 0.276855469
vt 0.969238281 0.276855469
vt 0.960449219 0.281494141
vt 0.969238281 0.281494141
vt 0.960449219 0.286132812
vt 0.969238281 0.286132812
vt 0.960449219 0.291015625
vt 0.969238281 0.291015625
vt 0.960449219 0.295654297
vt 0.969238281 0.295654297
vt 0.969238281 0.298583984
vt 0.959472656 0.298583984
vt 0.369384766 0.913085938
vt 0.373291016 0.913574219
vt 0.373291016 0.911132812
vt 0.369384766 0.911132812
vt 0.373291016 0.907226562
vt 0.369384766 0.907226562
vt 0.373291016 0.90234375
vt 0.369384766 0.90234375
vt 0.373291016 0.901855469
vt 0.369384766 0.901855469
vt 0.373291016 0.899414062
vt 0.369384766 0.899414062
vt 0.369384766 0.897949219
vt 0.373291016 0.897949219
vt 0.369384766 0.896484375
vt 0.373291016 0.896484375
vt 0.373291016 0.889648438
vt 0.369384766 0.889160156
vt 0.373291016 0.8828125
vt 0.369384766 0.8828125
vt 0.369384766 0.881347656
vt 0.373291016 0.881347656
vt 0.369384766 0.879394531
vt 0.373291016 0.879394531
vt 0.373291016 0.877441406
vt 0.369384766 0.877441406
vt 0.369384766 0.876953125
vt 0.373291016 0.876464844
vt 0.369384766 0.875
vt 0.373291016 0.875
vt 0.941894531 0.647949219
vt 0.941894531 0.649414062
vt 0.945800781 0.647949219
vt 0.945800781 0.649414062
vt 0.945800781 0.680664062
vt 0.941894531 0.681152344
vt 0.941894531 0.683105469
vt 0.945800781 0.682617188
vt 0.877929688 0.612792969
vt 0.873046875 0.616699219
vt 0.873046875 0.619140625
vt 0.877929688 0.619628906
vt 0.873046875 0.625
vt 0.877929688 0.626464844
vt 0.877929688 0.631347656
vt 0.873046875 0.630371094
vt 0.878417969 0.638183594
vt 0.873046875 0.636230469
vt 0.873046875 0.641601562
vt 0.878417969 0.645996094
vt 0.873046875 0.649902344
vt 0.877929688 0.650390625
vt 0.873046875 0.666992188
vt 0.873046875 0.67578125
vt 0.877929688 0.67578125
vt 0.317382812 0.244995117
vt 0.314941406 0.243286133
vt 0.314208984 0.243652344
vt 0.317871094 0.246582031
vt 0.321533203 0.249267578
vt 0.321289062 0.250488281
vt 0.324707031 0.254150391
vt 0.323974609 0.254638672
vt 0.325683594 0.259033203
vt 0.326904297 0.259521484
vt 0.326660156 0.263916016
vt 0.327880859 0.265136719
vt 0.326660156 0.268798828
vt 0.327148438 0.272949219
vt 0.325927734 0.2734375
vt 0.314208984 0.286132812
vt 0.314697266 0.286865234
f 3/3 2/2 1/1
f 1/1 2/2 4/4
f 2/2 5/5 4/4
f 4/4 5/5 6/6
f 7/7 6/6 5/5
f 7/7 5/5 8/8
f 8/8 9/9 7/7
f 10/10 9/9 8/8
f 11/11 10/10 8/8
f 12/12 10/10 11/11
f 13/13 10/10 12/12
f 14/14 13/13 12/12
f 15/15 14/14 12/12
f 16/16 14/14 15/15
f 17/17 16/16 15/15
f 18/18 16/16 17/17
f 19/19 18/18 17/17
f 20/20 18/18 19/19
f 21/21 20/20 19/19
f 22/22 20/20 21/21
f 23/23 22/22 21/21
f 24/24 22/22 23/23
f 24/24 23/23 25/25
f 23/23 26/26 25/25
f 26/26 27/27 25/25
f 28/28 27/27 26/26
f 29/29 27/27 28/28
f 30/30 29/29 28/28
f 31/31 29/29 30/30
f 32/32 31/31 30/30
f 33/33 32/32 30/30
f 36/36 35/35 34/34
f 37/37 36/36 34/34
f 34/34 38/38 37/37
f 39/39 38/38 34/34
f 40/40 39/39 34/34
f 40/40 41/41 39/39
f 42/42 41/41 40/40
f 43/43 41/41 42/42
f 44/44 43/43 42/42
f 45/45 43/43 44/44
f 46/46 45/45 44/44
f 47/47 45/45 46/46
f 48/48 47/47 46/46
f 49/49 47/47 48/48
f 50/50 49/49 48/48
f 51/51 49/49 50/50
f 51/51 50/50 52/52
f 50/50 53/53 52/52
f 52/52 53/53 54/54
f 55/55 53/53 50/50
f 58/58 57/57 56/56
f 59/59 57/57 58/58
f 60/60 59/59 58/58
f 60/60 61/61 59/59
f 59/59 61/61 62/62
f 63/63 62/62 61/61
f 64/64 63/63 61/61
f 65/65 63/63 64/64
f 65/65 64/64 66/66
f 65/65 66/66 67/67
f 67/67 66/66 68/68
f 66/66 64/64 69/69
f 69/69 68/68 66/66
f 67/67 68/68 70/70
f 71/71 67/67 70/70
f 68/68 72/72 70/70
f 68/68 69/69 72/72
f 73/73 71/71 70/70
f 70/70 72/72 73/73
f 74/74 71/71 73/73
f 73/73 75/75 74/74
f 76/76 74/74 75/75
f 72/72 77/77 73/73
f 73/73 77/77 75/75
f 72/72 78/78 77/77
f 77/77 78/78 75/75
f 69/69 79/79 72/72
f 72/72 79/79 78/78
f 69/69 64/64 80/80
f 80/80 79/79 69/69
f 81/81 76/76 75/75
f 75/75 78/78 81/81
f 64/64 82/82 80/80
f 61/61 82/82 64/64
f 82/82 61/61 83/83
f 61/61 60/60 83/83
f 80/80 82/82 84/84
f 84/84 82/82 83/83
f 79/79 80/80 85/85
f 85/85 80/80 84/84
f 86/86 76/76 81/81
f 76/76 86/86 87/87
f 88/88 87/87 86/86
f 89/89 87/87 88/88
f 81/81 90/90 86/86
f 86/86 90/90 88/88
f 89/89 88/88 91/91
f 88/88 90/90 91/91
f 89/89 91/91 92/92
f 81/81 93/93 90/90
f 78/78 93/93 81/81
f 79/79 94/94 78/78
f 78/78 94/94 93/93
f 90/90 95/95 91/91
f 93/93 95/95 90/90
f 91/91 96/96 92/92
f 91/91 95/95 96/96
f 96/96 97/97 92/92
f 92/92 97/97 98/98
f 97/97 99/99 98/98
f 97/97 100/100 99/99
f 101/101 100/100 97/97
f 101/101 102/102 100/100
f 102/102 101/101 103/103
f 101/101 104/104 103/103
f 101/101 105/105 104/104
f 104/104 105/105 106/106
f 107/107 106/106 105/105
f 108/108 106/106 107/107
f 109/109 108/108 107/107
f 110/110 108/108 109/109
f 111/111 110/110 109/109
f 112/112 110/110 111/111
f 111/111 113/113 112/112
f 112/112 113/113 114/114
f 113/113 115/115 114/114
f 114/114 115/115 116/116
f 113/113 117/117 115/115
f 115/115 117/117 118/118
f 117/117 119/119 118/118
f 119/119 120/120 118/118
f 111/111 121/121 113/113
f 121/121 117/117 113/113
f 121/121 111/111 122/122
f 111/111 109/109 122/122
f 121/121 123/123 117/117
f 123/123 119/119 117/117
f 122/122 123/123 121/121
f 124/124 123/123 122/122
f 122/122 109/109 125/125
f 125/125 124/124 122/122
f 126/126 125/125 109/109
f 107/107 126/126 109/109
f 119/119 127/127 120/120
f 128/128 120/120 127/127
f 129/129 128/128 127/127
f 119/119 129/129 127/127
f 123/123 130/130 119/119
f 124/124 130/130 123/123
f 130/130 131/131 119/119
f 131/131 129/129 119/119
f 128/128 129/129 132/132
f 133/133 128/128 132/132
f 134/134 131/131 130/130
f 124/124 134/134 130/130
f 129/129 131/131 135/135
f 132/132 129/129 135/135
f 135/135 131/131 134/134
f 136/136 126/126 107/107
f 136/136 137/137 126/126
f 105/105 136/136 107/107
f 105/105 138/138 136/136
f 138/138 137/137 136/136
f 101/101 138/138 105/105
f 138/138 101/101 139/139
f 139/139 137/137 138/138
f 137/137 140/140 126/126
f 126/126 140/140 125/125
f 140/140 124/124 125/125
f 140/140 141/141 124/124
f 137/137 141/141 140/140
f 141/141 142/142 124/124
f 142/142 134/134 124/124
f 143/143 141/141 137/137
f 143/143 142/142 141/141
f 139/139 101/101 144/144
f 144/144 101/101 97/97
f 97/97 145/145 144/144
f 144/144 145/145 139/139
f 96/96 145/145 97/97
f 139/139 146/146 137/137
f 145/145 146/146 139/139
f 146/146 143/143 137/137
f 96/96 147/147 145/145
f 147/147 146/146 145/145
f 95/95 147/147 96/96
f 134/134 142/142 148/148
f 142/142 143/143 149/149
f 148/148 142/142 149/149
f 148/148 150/150 134/134
f 149/149 150/150 148/148
f 134/134 150/150 135/135
f 146/146 151/151 143/143
f 143/143 151/151 149/149
f 147/147 152/152 146/146
f 152/152 151/151 146/146
f 95/95 153/153 147/147
f 153/153 152/152 147/147
f 151/151 152/152 154/154
f 149/149 151/151 154/154
f 154/154 152/152 153/153
f 154/154 155/155 149/149
f 155/155 150/150 149/149
f 150/150 155/155 156/156
f 156/156 155/155 157/157
f 157/157 155/155 154/154
f 153/153 157/157 154/154
f 158/158 156/156 157/157
f 158/158 157/157 159/159
f 159/159 157/157 153/153
f 160/160 158/158 159/159
f 161/161 153/153 95/95
f 153/153 161/161 159/159
f 159/159 161/161 160/160
f 93/93 161/161 95/95
f 160/160 161/161 93/93
f 94/94 160/160 93/93
f 160/160 94/94 162/162
f 162/162 158/158 160/160
f 162/162 94/94 163/163
f 163/163 158/158 162/162
f 94/94 79/79 163/163
f 163/163 79/79 85/85
f 85/85 164/164 163/163
f 164/164 158/158 163/163
f 158/158 164/164 165/165
f 164/164 85/85 166/166
f 166/166 85/85 84/84
f 165/165 164/164 167/167
f 166/166 167/167 164/164
f 168/168 166/166 84/84
f 84/84 83/83 168/168
f 167/167 166/166 169/169
f 169/169 166/166 168/168
f 168/168 83/83 170/170
f 168/168 170/170 169/169
f 171/171 167/167 169/169
f 165/165 167/167 171/171
f 83/83 172/172 170/170
f 83/83 60/60 172/172
f 170/170 173/173 169/169
f 169/169 173/173 171/171
f 173/173 170/170 174/174
f 170/170 172/172 174/174
f 175/175 173/173 174/174
f 171/171 173/173 175/175
f 175/175 174/174 172/172
f 60/60 176/176 172/172
f 176/176 60/60 58/58
f 177/177 172/172 176/176
f 177/177 175/175 172/172
f 58/58 178/178 176/176
f 178/178 177/177 176/176
f 179/179 171/171 175/175
f 180/180 165/165 171/171
f 171/171 179/179 180/180
f 181/181 175/175 177/177
f 181/181 179/179 175/175
f 180/180 179/179 182/182
f 182/182 165/165 180/180
f 183/183 179/179 181/181
f 179/179 183/183 182/182
f 184/184 178/178 58/58
f 185/185 177/177 178/178
f 185/185 178/178 184/184
f 184/184 58/58 186/186
f 186/186 58/58 187/187
f 188/188 184/184 186/186
f 188/188 185/185 184/184
f 189/189 188/188 186/186
f 190/190 177/177 185/185
f 185/185 188/188 190/190
f 190/190 181/181 177/177
f 191/191 188/188 189/189
f 188/188 191/191 190/190
f 189/189 192/192 191/191
f 191/191 192/192 193/193
f 194/194 193/193 192/192
f 195/195 193/193 194/194
f 194/194 196/196 195/195
f 197/197 181/181 190/190
f 190/190 191/191 198/198
f 198/198 197/197 190/190
f 199/199 198/198 191/191
f 193/193 199/199 191/191
f 199/199 197/197 198/198
f 199/199 193/193 200/200
f 200/200 197/197 199/199
f 193/193 195/195 200/200
f 201/201 181/181 197/197
f 200/200 201/201 197/197
f 201/201 183/183 181/181
f 202/202 183/183 201/201
f 183/183 202/202 182/182
f 203/203 201/201 200/200
f 203/203 202/202 201/201
f 200/200 195/195 204/204
f 204/204 203/203 200/200
f 205/205 204/204 195/195
f 206/206 203/203 204/204
f 205/205 206/206 204/204
f 207/207 205/205 195/195
f 195/195 196/196 207/207
f 208/208 205/205 207/207
f 208/208 206/206 205/205
f 209/209 206/206 208/208
f 206/206 210/210 203/203
f 210/210 202/202 203/203
f 209/209 210/210 206/206
f 207/207 196/196 211/211
f 211/211 208/208 207/207
f 196/196 212/212 211/211
f 213/213 202/202 210/210
f 209/209 213/213 210/210
f 214/214 209/209 208/208
f 214/214 208/208 211/211
f 211/211 212/212 215/215
f 212/212 216/216 215/215
f 214/214 211/211 217/217
f 217/217 209/209 214/214
f 211/211 215/215 217/217
f 202/202 213/213 218/218
f 182/182 202/202 218/218
f 219/219 215/215 216/216
f 220/220 219/219 216/216
f 218/218 221/221 182/182
f 221/221 165/165 182/182
f 165/165 221/221 222/222
f 222/222 221/221 218/218
f 158/158 165/165 222/222
f 218/218 213/213 223/223
f 223/223 222/222 218/218
f 158/158 222/222 224/224
f 224/224 222/222 223/223
f 224/224 156/156 158/158
f 213/213 225/225 223/223
f 225/225 213/213 209/209
f 226/226 224/224 223/223
f 223/223 225/225 226/226
f 227/227 225/225 209/209
f 217/217 227/227 209/209
f 228/228 224/224 226/226
f 156/156 224/224 228/228
f 225/225 229/229 226/226
f 229/229 225/225 227/227
f 226/226 229/229 228/228
f 230/230 227/227 217/217
f 231/231 229/229 227/227
f 231/231 227/227 230/230
f 229/229 232/232 228/228
f 232/232 229/229 231/231
f 233/233 156/156 228/228
f 228/228 232/232 233/233
f 234/234 230/230 217/217
f 217/217 215/215 234/234
f 235/235 234/234 215/215
f 235/235 230/230 234/234
f 219/219 235/235 215/215
f 236/236 231/231 230/230
f 236/236 230/230 235/235
f 237/237 232/232 231/231
f 237/237 231/231 236/236
f 238/238 236/236 235/235
f 219/219 238/238 235/235
f 237/237 236/236 238/238
f 239/239 238/238 219/219
f 239/239 219/219 220/220
f 240/240 239/239 220/220
f 240/240 241/241 239/239
f 238/238 239/239 242/242
f 242/242 237/237 238/238
f 239/239 241/241 243/243
f 239/239 243/243 242/242
f 241/241 244/244 243/243
f 245/245 232/232 237/237
f 233/233 232/232 245/245
f 246/246 237/237 242/242
f 246/246 245/245 237/237
f 247/247 245/245 246/246
f 248/248 233/233 245/245
f 247/247 248/248 245/245
f 249/249 246/246 242/242
f 242/242 243/243 249/249
f 250/250 246/246 249/249
f 250/250 249/249 243/243
f 247/247 246/246 250/250
f 244/244 251/251 243/243
f 251/251 250/250 243/243
f 252/252 251/251 244/244
f 253/253 252/252 244/244
f 250/250 251/251 254/254
f 251/251 252/252 254/254
f 254/254 247/247 250/250
f 254/254 252/252 255/255
f 255/255 247/247 254/254
f 252/252 256/256 255/255
f 247/247 255/255 256/256
f 256/256 257/257 247/247
f 257/257 248/248 247/247
f 258/258 248/248 257/257
f 248/248 258/258 259/259
f 259/259 258/258 260/260
f 261/261 248/248 259/259
f 233/233 248/248 261/261
f 261/261 156/156 233/233
f 262/262 259/259 260/260
f 133/133 262/262 260/260
f 259/259 263/263 261/261
f 156/156 261/261 263/263
f 263/263 259/259 262/262
f 133/133 264/264 262/262
f 263/263 262/262 264/264
f 132/132 264/264 133/133
f 265/265 156/156 263/263
f 263/263 264/264 265/265
f 265/265 264/264 132/132
f 265/265 150/150 156/156
f 135/135 265/265 132/132
f 150/150 265/265 135/135
f 268/268 267/267 266/266
f 269/269 267/267 268/268
f 270/270 267/267 269/269
f 271/271 270/270 269/269
f 267/267 270/270 272/272
f 273/273 267/267 272/272
f 274/274 273/273 272/272
f 272/272 270/270 274/274
f 275/275 273/273 274/274
f 276/276 270/270 271/271
f 270/270 276/276 274/274
f 277/277 276/276 271/271
f 278/278 276/276 277/277
f 279/279 275/275 274/274
f 280/280 274/274 276/276
f 274/274 280/280 279/279
f 276/276 278/278 281/281
f 281/281 280/280 276/276
f 282/282 275/275 279/279
f 282/282 283/283 275/275
f 281/281 278/278 284/284
f 278/278 285/285 284/284
f 285/285 286/286 284/284
f 284/284 286/286 287/287
f 284/284 288/288 281/281
f 288/288 280/280 281/281
f 287/287 288/288 284/284
f 279/279 280/280 289/289
f 280/280 288/288 289/289
f 289/289 282/282 279/279
f 290/290 283/283 282/282
f 290/290 291/291 283/283
f 292/292 291/291 290/290
f 291/291 292/292 293/293
f 282/282 294/294 290/290
f 294/294 292/292 290/290
f 286/286 295/295 287/287
f 296/296 295/295 286/286
f 288/288 287/287 297/297
f 289/289 288/288 297/297
f 289/289 298/298 282/282
f 298/298 294/294 282/282
f 299/299 298/298 289/289
f 297/297 299/299 289/289
f 299/299 294/294 298/298
f 300/300 295/295 296/296
f 296/296 301/301 300/300
f 301/301 302/302 300/300
f 303/303 292/292 294/294
f 299/299 304/304 294/294
f 304/304 303/303 294/294
f 292/292 303/303 305/305
f 293/293 292/292 305/305
f 293/293 305/305 306/306
f 293/293 306/306 307/307
f 305/305 308/308 306/306
f 305/305 303/303 308/308
f 308/308 309/309 306/306
f 303/303 310/310 308/308
f 303/303 304/304 310/310
f 308/308 310/310 309/309
f 311/311 304/304 299/299
f 304/304 312/312 310/310
f 312/312 304/304 311/311
f 310/310 313/313 309/309
f 310/310 312/312 313/313
f 313/313 314/314 309/309
f 309/309 314/314 315/315
f 312/312 316/316 313/313
f 313/313 316/316 314/314
f 317/317 311/311 299/299
f 297/297 317/317 299/299
f 318/318 312/312 311/311
f 316/316 312/312 318/318
f 317/317 319/319 311/311
f 311/311 319/319 318/318
f 320/320 317/317 297/297
f 319/319 317/317 320/320
f 297/297 287/287 320/320
f 320/320 321/321 319/319
f 287/287 321/321 320/320
f 322/322 318/318 319/319
f 321/321 322/322 319/319
f 323/323 316/316 318/318
f 322/322 323/323 318/318
f 316/316 324/324 314/314
f 324/324 316/316 323/323
f 287/287 325/325 321/321
f 295/295 325/325 287/287
f 326/326 322/322 321/321
f 323/323 322/322 326/326
f 321/321 325/325 326/326
f 327/327 326/326 325/325
f 328/328 325/325 295/295
f 327/327 325/325 328/328
f 300/300 328/328 295/295
f 329/329 323/323 326/326
f 329/329 324/324 323/323
f 326/326 327/327 329/329
f 330/330 328/328 300/300
f 330/330 327/327 328/328
f 314/314 324/324 331/331
f 314/314 331/331 315/315
f 331/331 332/332 315/315
f 315/315 332/332 333/333
f 333/333 332/332 334/334
f 324/324 335/335 331/331
f 331/331 335/335 332/332
f 336/336 324/324 329/329
f 324/324 336/336 335/335
f 332/332 335/335 337/337
f 334/334 332/332 337/337
f 335/335 336/336 338/338
f 337/337 335/335 338/338
f 339/339 336/336 329/329
f 338/338 336/336 339/339
f 338/338 340/340 337/337
f 339/339 340/340 338/338
f 341/341 334/334 337/337
f 340/340 341/341 337/337
f 329/329 342/342 339/339
f 329/329 327/327 342/342
f 341/341 343/343 334/334
f 343/343 344/344 334/334
f 339/339 342/342 345/345
f 339/339 345/345 340/340
f 342/342 327/327 346/346
f 342/342 346/346 345/345
f 340/340 347/347 341/341
f 347/347 343/343 341/341
f 345/345 348/348 340/340
f 345/345 346/346 348/348
f 348/348 347/347 340/340
f 327/327 349/349 346/346
f 349/349 327/327 330/330
f 346/346 350/350 348/348
f 346/346 349/349 350/350
f 351/351 347/347 348/348
f 348/348 350/350 351/351
f 352/352 343/343 347/347
f 352/352 347/347 351/351
f 353/353 344/344 343/343
f 353/353 343/343 352/352
f 354/354 352/352 351/351
f 353/353 352/352 354/354
f 350/350 355/355 351/351
f 351/351 355/355 354/354
f 349/349 356/356 350/350
f 356/356 355/355 350/350
f 357/357 349/349 330/330
f 356/356 349/349 357/357
f 358/358 344/344 353/353
f 359/359 344/344 358/358
f 360/360 353/353 354/354
f 358/358 353/353 360/360
f 361/361 354/354 355/355
f 360/360 354/354 361/361
f 362/362 355/355 356/356
f 355/355 362/362 361/361
f 357/357 330/330 363/363
f 363/363 330/330 300/300
f 363/363 300/300 302/302
f 364/364 363/363 302/302
f 364/364 357/357 363/363
f 365/365 364/364 302/302
f 366/366 356/356 357/357
f 366/366 357/357 364/364
f 362/362 356/356 366/366
f 367/367 364/364 365/365
f 367/367 366/366 364/364
f 368/368 367/367 365/365
f 369/369 362/362 366/366
f 369/369 366/366 367/367
f 370/370 367/367 368/368
f 370/370 369/369 367/367
f 371/371 370/370 368/368
f 372/372 370/370 371/371
f 373/373 362/362 369/369
f 373/373 361/361 362/362
f 374/374 369/369 370/370
f 374/374 373/373 369/369
f 375/375 370/370 372/372
f 375/375 374/374 370/370
f 376/376 361/361 373/373
f 377/377 373/373 374/374
f 377/377 376/376 373/373
f 378/378 374/374 375/375
f 378/378 377/377 374/374
f 376/376 379/379 361/361
f 379/379 360/360 361/361
f 379/379 358/358 360/360
f 380/380 379/379 376/376
f 380/380 358/358 379/379
f 381/381 380/380 376/376
f 377/377 381/381 376/376
f 382/382 358/358 380/380
f 381/381 382/382 380/380
f 382/382 359/359 358/358
f 383/383 359/359 382/382
f 384/384 381/381 377/377
f 384/384 382/382 381/381
f 385/385 383/383 382/382
f 385/385 382/382 384/384
f 386/386 384/384 377/377
f 386/386 377/377 378/378
f 387/387 384/384 386/386
f 387/387 385/385 384/384
f 388/388 383/383 385/385
f 389/389 383/383 388/388
f 388/388 385/385 390/390
f 390/390 385/385 387/387
f 389/389 388/388 391/391
f 388/388 390/390 391/391
f 389/389 391/391 392/392
f 386/386 393/393 387/387
f 393/393 386/386 378/378
f 390/390 387/387 394/394
f 391/391 390/390 394/394
f 387/387 393/393 394/394
f 392/392 391/391 395/395
f 396/396 391/391 394/394
f 395/395 391/391 396/396
f 397/397 394/394 393/393
f 396/396 394/394 397/397
f 398/398 393/393 378/378
f 397/397 393/393 398/398
f 399/399 396/396 397/397
f 399/399 397/397 398/398
f 400/400 392/392 395/395
f 401/401 392/392 400/400
f 402/402 401/401 400/400
f 398/398 378/378 403/403
f 403/403 378/378 375/375
f 395/395 396/396 404/404
f 404/404 396/396 399/399
f 405/405 402/402 400/400
f 406/406 402/402 405/405
f 403/403 375/375 407/407
f 407/407 375/375 372/372
f 372/372 408/408 407/407
f 408/408 403/403 407/407
f 409/409 408/408 372/372
f 410/410 398/398 403/403
f 410/410 403/403 408/408
f 408/408 409/409 411/411
f 411/411 410/410 408/408
f 411/411 409/409 412/412
f 413/413 398/398 410/410
f 411/411 413/413 410/410
f 413/413 399/399 398/398
f 412/412 414/414 411/411
f 414/414 413/413 411/411
f 415/415 414/414 412/412
f 416/416 415/415 412/412
f 417/417 415/415 416/416
f 418/418 399/399 413/413
f 414/414 418/418 413/413
f 418/418 404/404 399/399
f 419/419 418/418 414/414
f 415/415 419/419 414/414
f 420/420 404/404 418/418
f 419/419 420/420 418/418
f 420/420 395/395 404/404
f 421/421 395/395 420/420
f 421/421 420/420 419/419
f 400/400 395/395 421/421
f 422/422 415/415 417/417
f 423/423 422/422 417/417
f 424/424 419/419 415/415
f 424/424 421/421 419/419
f 425/425 400/400 421/421
f 405/405 400/400 425/425
f 426/426 424/424 415/415
f 422/422 426/426 415/415
f 427/427 421/421 424/424
f 425/425 421/421 427/427
f 424/424 426/426 427/427
f 428/428 425/425 427/427
f 428/428 405/405 425/425
f 426/426 429/429 427/427
f 427/427 429/429 428/428
f 430/430 426/426 422/422
f 429/429 426/426 430/430
f 431/431 422/422 423/423
f 431/431 430/430 422/422
f 429/429 432/432 428/428
f 429/429 430/430 432/432
f 433/433 405/405 428/428
f 428/428 432/432 433/433
f 430/430 434/434 432/432
f 434/434 430/430 431/431
f 435/435 431/431 423/423
f 435/435 423/423 436/436
f 436/436 437/437 435/435
f 438/438 431/431 435/435
f 438/438 434/434 431/431
f 439/439 434/434 438/438
f 440/440 439/439 438/438
f 432/432 434/434 441/441
f 432/432 441/441 433/433
f 441/441 434/434 439/439
f 442/442 438/438 435/435
f 442/442 435/435 437/437
f 440/440 438/438 442/442
f 437/437 443/443 442/442
f 437/437 444/444 443/443
f 444/444 445/445 443/443
f 433/433 441/441 446/446
f 446/446 441/441 439/439
f 439/439 447/447 446/446
f 446/446 448/448 433/433
f 447/447 448/448 446/446
f 448/448 405/405 433/433
f 448/448 406/406 405/405
f 449/449 406/406 448/448
f 450/450 406/406 449/449
f 451/451 449/449 448/448
f 450/450 449/449 451/451
f 451/451 448/448 447/447
f 451/451 452/452 450/450
f 452/452 453/453 450/450
f 453/453 452/452 454/454
f 455/455 453/453 454/454
f 454/454 452/452 456/456
f 457/457 452/452 451/451
f 447/447 457/457 451/451
f 452/452 458/458 456/456
f 458/458 452/452 457/457
f 456/456 458/458 459/459
f 458/458 457/457 460/460
f 460/460 457/457 447/447
f 458/458 461/461 459/459
f 461/461 458/458 460/460
f 462/462 459/459 461/461
f 460/460 447/447 463/463
f 461/461 460/460 463/463
f 447/447 464/464 463/463
f 439/439 464/464 447/447
f 465/465 461/461 463/463
f 464/464 465/465 463/463
f 462/462 461/461 465/465
f 466/466 464/464 439/439
f 465/465 464/464 466/466
f 466/466 439/439 440/440
f 465/465 466/466 467/467
f 467/467 462/462 465/465
f 467/467 466/466 440/440
f 440/440 462/462 467/467
f 462/462 440/440 468/468
f 440/440 469/469 468/468
f 442/442 469/469 440/440
f 468/468 469/469 470/470
f 469/469 442/442 443/443
f 469/469 443/443 470/470
f 470/470 443/443 471/471
f 471/471 443/443 472/472
f 472/472 443/443 473/473
f 443/443 445/445 473/473
f 445/445 474/474 473/473
f 474/474 475/475 473/473
f 475/475 476/476 473/473
f 473/473 476/476 477/477
f 477/477 476/476 478/478
f 478/478 479/479 477/477
f 477/477 479/479 480/480
f 479/479 481/481 480/480
f 480/480 481/481 482/482
f 485/485 484/484 483/483
f 483/483 486/486 485/485
f 485/485 486/486 487/487
f 488/488 487/487 486/486
f 487/487 488/488 489/489
f 487/487 490/490 485/485
f 490/490 491/491 485/485
f 491/491 490/490 492/492
f 492/492 490/490 493/493
f 494/494 487/487 489/489
f 494/494 489/489 495/495
f 490/490 496/496 493/493
f 493/493 496/496 497/497
f 498/498 490/490 487/487
f 487/487 494/494 498/498
f 498/498 496/496 490/490
f 499/499 494/494 495/495
f 498/498 494/494 499/499
f 496/496 498/498 499/499
f 497/497 496/496 499/499
f 499/499 495/495 500/500
f 497/497 499/499 501/501
f 501/501 499/499 500/500
f 504/504 503/503 502/502
f 505/505 503/503 504/504
f 506/506 503/503 505/505
f 507/507 503/503 506/506
f 507/507 506/506 508/508
f 509/509 508/508 506/506
f 510/510 508/508 509/509
f 511/511 510/510 509/509
f 509/509 512/512 511/511
f 511/511 512/512 513/513
f 513/513 514/514 511/511
f 513/513 515/515 514/514
f 516/516 515/515 513/513
f 509/509 517/517 512/512
f 517/517 518/518 512/512
f 512/512 518/518 519/519
f 520/520 519/519 518/518
f 521/521 517/517 509/509
f 521/521 509/509 522/522
f 522/522 523/523 521/521
f 526/526 525/525 524/524
f 524/524 525/525 527/527
f 525/525 528/528 527/527
f 527/527 528/528 529/529
f 529/529 530/530 527/527
f 530/530 531/531 527/527
f 532/532 531/531 530/530
f 531/531 533/533 527/527
f 527/527 533/533 534/534
f 535/535 534/534 533/533
f 536/536 535/535 533/533
f 539/539 538/538 537/537
f 537/537 540/540 539/539
f 539/539 540/540 541/541
f 541/541 542/542 539/539
f 539/539 542/542 543/543
f 544/544 543/543 542/542
f 545/545 543/543 544/544
f 548/548 547/547 546/546
f 546/546 547/547 549/549
f 549/549 550/550 546/546
f 550/550 551/551 546/546
f 546/546 551/551 552/552
f 553/553 546/546 552/552
f 554/554 546/546 553/553
f 554/554 555/555 546/546
f 556/556 553/553 552/552
f 557/557 546/546 555/555
f 552/552 558/558 556/556
f 559/559 558/558 552/552
f 558/558 560/560 556/556
f 560/560 561/561 556/556
f 560/560 562/562 561/561
f 561/561 562/562 563/563
f 562/562 564/564 563/563
f 565/565 546/546 557/557
f 566/566 565/565 557/557
f 567/567 546/546 565/565
f 567/567 568/568 546/546
f 569/569 568/568 567/567
f 570/570 565/565 566/566
f 570/570 566/566 571/571
f 571/571 566/566 572/572
f 572/572 566/566 573/573
f 572/572 573/573 574/574
f 577/577 576/576 575/575
f 578/578 576/576 577/577
f 579/579 578/578 577/577
f 580/580 579/579 577/577
f 578/578 579/579 581/581
f 582/582 579/579 580/580
f 579/579 583/583 581/581
f 584/584 579/579 582/582
f 579/579 585/585 583/583
f 584/584 586/586 579/579
f 579/579 587/587 585/585
f 586/586 588/588 579/579
f 579/579 589/589 587/587
f 579/579 590/590 589/589
f 588/588 591/591 579/579
f 591/591 592/592 579/579
f 579/579 592/592 593/593
f 593/593 594/594 579/579
f 597/597 596/596 595/595
f 596/596 598/598 595/595
f 595/595 598/598 599/599
f 598/598 600/600 599/599
f 599/599 600/600 601/601
f 601/601 600/600 602/602
f 600/600 603/603 602/602
f 602/602 603/603 604/604
f 603/603 605/605 604/604
f 604/604 605/605 606/606
f 605/605 607/607 606/606
f 606/606 607/607 608/608
f 607/607 609/609 608/608
f 608/608 609/609 610/610
f 609/609 611/611 610/610
f 610/610 611/611 612/612
f 611/611 613/613 612/612
f 612/612 613/613 614/614
f 613/613 615/615 614/614
f 614/614 615/615 616/616
f 617/617 614/614 616/616
f 620/620 619/619 618/618
f 621/621 620/620 618/618
f 620/620 621/621 622/622
f 621/621 623/623 622/622
f 622/622 623/623 624/624
f 623/623 625/625 624/624
f 624/624 625/625 626/626
f 625/625 627/627 626/626
f 627/627 628/628 626/626
f 629/629 628/628 627/627
f 629/629 630/630 628/628
f 628/628 630/630 631/631
f 630/630 632/632 631/631
f 631/631 632/632 633/633
f 633/633 632/632 634/634
f 632/632 635/635 634/634
f 634/634 635/635 636/636
f 635/635 637/637 636/636
f 637/637 638/638 636/636
f 636/636 638/638 639/639
f 638/638 640/640 639/639
f 639/639 640/640 641/641
f 640/640 642/642 641/641
f 643/643 642/642 640/640
f 643/643 644/644 642/642
f 642/642 644/644 645/645
f 646/646 645/645 644/644
f 647/647 645/645 646/646
f 650/650 649/649 648/648
f 651/651 649/649 650/650
f 649/649 651/651 652/652
f 653/653 649/649 652/652
f 653/653 652/652 654/654
f 652/652 655/655 654/654
f 658/658 657/657 656/656
f 659/659 658/658 656/656
f 658/658 659/659 660/660
f 659/659 661/661 660/660
f 661/661 662/662 660/660
f 660/660 662/662 663/663
f 662/662 664/664 663/663
f 663/663 664/664 665/665
f 665/665 664/664 666/666
f 664/664 667/667 666/666
f 666/666 667/667 668/668
f 668/668 667/667 669/669
f 669/669 670/670 668/668
f 669/669 671/671 670/670
f 672/672 671/671 669/669
f 675/675 674/674 673/673
f 676/676 675/675 673/673
f 676/676 673/673 677/677
f 678/678 676/676 677/677
f 678/678 677/677 679/679
f 680/680 678/678 679/679
f 681/681 680/680 679/679
f 682/682 681/681 679/679
f 683/683 681/681 682/682
f 684/684 683/683 682/682
f 685/685 683/683 684/684
f 686/686 685/685 684/684
f 687/687 685/685 686/686
f 688/688 687/687 686/686
f 689/689 688/688 686/686
