v -0.883766138 -2.13359984 -0.0798441761
v -2.13360006 -0.883765801 -0.0798440085
v -2.13360007 -0.883765801 0.0126802034
v -0.883766145 -2.13359984 0.0126800354
v -0.883766145 -2.13359984 0.0126800354
v 0.88376557 -2.13360014 0.0126801689
v 0.883765577 -2.13360014 -0.0798440427
v -0.883766138 -2.13359984 -0.0798441761
v 0.88376557 -2.13360014 0.0126801689
v 2.13359963 -0.883766232 0.0126805255
v 2.13359963 -0.883766232 -0.0798436864
v 0.883765577 -2.13360014 -0.0798440427
v 2.13359963 -0.883766232 0.0126805255
v 2.13359993 0.883765657 0.0126807878
v 2.13359993 0.883765657 -0.0798434244
v 2.13359963 -0.883766232 -0.0798436864
v 2.13359993 0.883765657 0.0126807878
v 0.883766145 2.13359984 0.0126809556
v 0.883766152 2.13359984 -0.079843251
v 2.13359993 0.883765657 -0.0798434244
v 0.883766145 2.13359984 0.0126809556
v -0.88376557 2.13360014 0.0126808222
v -0.883765563 2.13360014 -0.0798433845
v 0.883766152 2.13359984 -0.079843251
v -0.88376557 2.13360014 0.0126808222
v -2.13359977 0.883766232 0.0126804657
v -2.13359977 0.883766232 -0.0798437466
v -0.883765563 2.13360014 -0.0798433845
v -2.13359977 0.883766232 0.0126804657
v -2.13360007 -0.883765801 0.0126802034
v -2.13360006 -0.883765801 -0.0798440085
v -2.13359977 0.883766232 -0.0798437466
v -2.13359977 0.883766232 0.0126804657
v -2.02376155e-10 -2.13875469e-08 0.0126804956
v -2.13360007 -0.883765801 0.0126802034
v -0.88376557 2.13360014 0.0126808222
v -0.883766145 -2.13359984 0.0126800354
v 0.883766145 2.13359984 0.0126809556
v 0.88376557 -2.13360014 0.0126801689
v 2.13359993 0.883765657 0.0126807878
v 2.13359963 -0.883766232 0.0126805255
v -2.13360006 -0.883765801 -0.0798440085
v 6.78301106e-09 -1.84014011e-08 -0.0798437194
v -2.13359977 0.883766232 -0.0798437466
v -0.883766138 -2.13359984 -0.0798441761
v -0.883765563 2.13360014 -0.0798433845
v 0.883765577 -2.13360014 -0.0798440427
v 0.883766152 2.13359984 -0.079843251
v 2.13359963 -0.883766232 -0.0798436864
v 2.13359993 0.883765657 -0.0798434244
vt 1 0.29296875
vt 0.70703125 0
vt 0.70703125 0
vt 1 0.29296875
vt 1 0.29296875
vt 1 0.70703125
vt 1 0.70703125
vt 1 0.29296875
vt 1 0.70703125
vt 0.70703125 1
vt 0.70703125 1
vt 1 0.70703125
vt 0.70703125 1
vt 0.29296875 1
vt 0.29296875 1
vt 0.70703125 1
vt 0.29296875 1
vt 0 0.70703125
vt 0 0.70703125
vt 0.29296875 1
vt 0 0.70703125
vt 0 0.29296875
vt 0 0.29296875
vt 0 0.70703125
vt 0 0.29296875
vt 0.29296875 0
vt 0.29296875 0
vt 0 0.29296875
vt 0.29296875 0
vt 0.70703125 0
vt 0.70703125 0
vt 0.29296875 0
vt 0.29296875 0
vt 0.5 0.5
vt 0.70703125 0
vt 0 0.29296875
vt 1 0.29296875
vt 0 0.70703125
vt 1 0.70703125
vt 0.29296875 1
vt 0.70703125 1
vt 0.70703125 0
vt 0.5 0.5
vt 0.29296875 0
vt 1 0.29296875
vt 0 0.29296875
vt 1 0.70703125
vt 0 0.70703125
vt 0.70703125 1
vt 0.29296875 1
f 3/3 2/2 1/1
f 4/4 3/3 1/1
f 7/7 6/6 5/5
f 8/8 7/7 5/5
f 11/11 10/10 9/9
f 12/12 11/11 9/9
f 15/15 14/14 13/13
f 16/16 15/15 13/13
f 19/19 18/18 17/17
f 20/20 19/19 17/17
f 23/23 22/22 21/21
f 24/24 23/23 21/21
f 27/27 26/26 25/25
f 28/28 27/27 25/25
f 31/31 30/30 29/29
f 32/32 31/31 29/29
f 35/35 34/34 33/33
f 33/33 34/34 36/36
f 37/37 34/34 35/35
f 36/36 34/34 38/38
f 39/39 34/34 37/37
f 38/38 34/34 40/40
f 41/41 34/34 39/39
f 40/40 34/34 41/41
f 44/44 43/43 42/42
f 42/42 43/43 45/45
f 46/46 43/43 44/44
f 45/45 43/43 47/47
f 48/48 43/43 46/46
f 47/47 43/43 49/49
f 50/50 43/43 48/48
f 49/49 43/43 50/50
