v 0.00620923203 0.00394219223 0.00697282958
v 0.00359628525 0.00578120375 0.00813650622
v 0.00729616026 0.00581865052 0.00509759739
v 0.00568579309 0.00394219219 -0.00740591204
v 0.00619622755 0.00583206147 -0.00639902719
v 0.000778311776 0.0057466478 -0.00900256418
v 0.00568579309 0.00394219219 -0.00740591204
v 0.000778311776 0.0057466478 -0.00900256418
v -0.00200818575 0.00394219151 -0.0089546149
v 0.00650818889 -0.0058712654 0.00621934159
v 0.00174773155 -0.00587376911 0.00879897052
v 0.00324662396 -0.00405898653 0.00857349296
v -0.00272819856 -0.00585608201 0.00856962433
v -0.00629637676 -0.00556446667 0.00656742413
v -0.0045645149 -0.00405921059 0.00813380175
v -0.00905748421 -0.00405687176 0.0015147044
v -0.00840446104 -0.00586575334 0.00315314064
v -0.00856412101 -0.00589299272 -0.00296600811
v -0.00905748421 -0.00405687176 0.0015147044
v -0.00856412101 -0.00589299272 -0.00296600811
v -0.00702726212 -0.00405484486 -0.0062240797
v -0.00702726212 -0.00405484486 -0.0062240797
v -0.00856412101 -0.00589299272 -0.00296600811
v -0.00380783335 -0.00579231998 -0.00835007595
v -0.00702726212 -0.00405484486 -0.0062240797
v -0.00380783335 -0.00579231998 -0.00835007595
v 0.00175165859 -0.0040573623 -0.00918278165
v 0.00175165859 -0.0040573623 -0.00918278165
v 0.00638996477 -0.005857452 -0.00646088229
v 0.00869181566 -0.00405718307 -0.00344138643
v 0.00869181566 -0.00405718307 -0.00344138643
v 0.00638996477 -0.005857452 -0.00646088229
v 0.00881748398 -0.00588439321 -0.00154647551
v -0.00500003097 0.00612640317 -0.0241368805
v -0.0174384934 0.00639603888 -0.0226040967
v -0.017500023 0.00444218342 -0.0245579373
v -0.0174538794 -0.00649626679 -0.0226194737
v -0.00500003134 -0.00632250347 -0.023969695
v -0.017500031 -0.00455780472 -0.0245579344
v -0.0184992683 0.00604510116 -0.0201764735
v -0.0175980594 0.00573007593 -0.0212644532
v -0.0180085472 0.00620932685 -0.0156216847
v -0.0175980594 0.00573007593 -0.0212644532
v -0.0184992683 0.00604510116 -0.0201764735
v -0.0185000275 0.00119112267 -0.0242531052
v -0.0175980594 0.00573007593 -0.0212644532
v -0.0185000275 0.00119112267 -0.0242531052
v -0.017500027 -0.000302480186 -0.0242170107
v -0.017500027 -0.000302480186 -0.0242170107
v -0.0185000275 0.00119112267 -0.0242531052
v -0.0180000275 -0.00435632622 -0.0225187308
v -0.0180000275 -0.00435632622 -0.0225187308
v -0.0184994156 -0.00670039824 -0.0184196819
v -0.0173310874 -0.00672817338 -0.0172925953
v -0.0180085472 0.00620932685 -0.0156216847
v -0.0175000375 0.0037482215 -0.0120882854
v -0.0185000437 0.00333648734 -0.0118236836
v -0.0185000437 0.00333648734 -0.0118236836
v -0.0175000375 0.0037482215 -0.0120882854
v -0.0175000384 -0.00262680795 -0.0112503869
v -0.0185000437 0.00333648734 -0.0118236836
v -0.0175000384 -0.00262680795 -0.0112503869
v -0.0185000343 -0.00380404433 -0.0117287083
v -0.0185000343 -0.00380404433 -0.0117287083
v -0.0175000384 -0.00262680795 -0.0112503869
v -0.0173310874 -0.00672817338 -0.0172925953
v -0.0185000343 -0.00380404433 -0.0117287083
v -0.0173310874 -0.00672817338 -0.0172925953
v -0.0184994156 -0.00670039824 -0.0184196819
v -0.0088278639 0.00636626714 -0.0128808562
v -0.0123467562 0.00394223499 -0.0100246267
v -0.0124298071 0.00637306185 -0.00970847686
v 0.00621465553 0.00394214748 -0.015251826
v 0.00548129409 0.00638452232 -0.014838636
v 0.00650432356 0.00636002499 -0.0164019642
v 0.00606856664 -0.00405780903 -0.0151694825
v 0.00544937428 -0.00405780909 -0.0147841231
v 0.0114288497 -0.00405779365 -0.0161839329
v -0.00912531139 0.00394123701 -0.000846671537
v -0.00896210818 0.00577355817 0.00091720085
v -0.0078412744 0.003942191 0.00454464716
v -0.00662702201 0.00578120286 0.00593461591
v -0.0078412744 0.003942191 0.00454464716
v -0.00662702201 0.00578120286 0.00593461591
v -0.00256029851 0.00394219146 0.0089788824
v -0.00188661957 0.005772188 0.0088136163
v -0.00256029851 0.00394219146 0.0089788824
v -0.00188661957 0.005772188 0.0088136163
v 0.00359628525 0.00578120375 0.00813650622
v 0.00620923203 0.00394219223 0.00697282958
v 0.00620923203 0.00394219223 0.00697282958
v 0.00729616026 0.00581865052 0.00509759739
v 0.00913486824 0.00568844451 -0.00101064343
v 0.00917222025 0.00394219249 -0.000294666825
v 0.00917222025 0.00394219249 -0.000294666825
v 0.00913486824 0.00568844451 -0.00101064343
v 0.00568579309 0.00394219219 -0.00740591204
v 0.00619622755 0.00583206147 -0.00639902719
v -0.00200818575 0.00394219151 -0.0089546149
v 0.000778311776 0.0057466478 -0.00900256418
v -0.00417109965 0.00583206056 -0.00787042518
v -0.00674538567 0.0039421911 -0.00605306232
v -0.00769205413 0.00578120276 -0.00446878512
v -0.00912531139 0.00394123701 -0.000846671537
v -0.00896210818 0.00577355817 0.00091720085
v 0.00810591045 -0.00405913526 0.00426866027
v 0.00869181566 -0.00405718307 -0.00344138643
v 0.00866878084 -0.00557531345 0.00272565558
v 0.00881748398 -0.00588439321 -0.00154647551
v 0.00810591045 -0.00405913526 0.00426866027
v 0.00866878084 -0.00557531345 0.00272565558
v 0.00650818889 -0.0058712654 0.00621934159
v 0.00324662396 -0.00405898653 0.00857349296
v 0.00324662396 -0.00405898653 0.00857349296
v 0.00174773155 -0.00587376911 0.00879897052
v -0.0045645149 -0.00405921059 0.00813380175
v -0.00272819856 -0.00585608201 0.00856962433
v -0.0045645149 -0.00405921059 0.00813380175
v -0.00629637676 -0.00556446667 0.00656742413
v -0.00905748421 -0.00405687176 0.0015147044
v -0.00840446104 -0.00586575334 0.00315314064
v -0.00380783335 -0.00579231998 -0.00835007595
v 0.00193182292 -0.00585941945 -0.00869603973
v 0.00175165859 -0.0040573623 -0.00918278165
v 0.00638996477 -0.005857452 -0.00646088229
v 0.0054905069 0.00644218938 -0.0240214853
v -0.00500003097 0.00612640317 -0.0241368805
v 0.00480440779 -0.00655780708 -0.0243023518
v -0.00500003134 -0.00632250347 -0.023969695
v -0.017500031 -0.00455780472 -0.0245579344
v -0.017500023 0.00444218342 -0.0245579373
v -0.0180085472 0.00620932685 -0.0156216847
v -0.0175980594 0.00573007593 -0.0212644532
v -0.0174384934 0.00639603888 -0.0226040967
v -0.017500023 0.00444218342 -0.0245579373
v -0.017500027 -0.000302480186 -0.0242170107
v -0.017500031 -0.00455780472 -0.0245579344
v -0.0180000275 -0.00435632622 -0.0225187308
v -0.0174538794 -0.00649626679 -0.0226194737
v -0.0173310874 -0.00672817338 -0.0172925953
v -0.00840446104 -0.00586575334 0.00315314064
v -0.00629637676 -0.00556446667 0.00656742413
v -0.00272819856 -0.00585608201 0.00856962433
v -0.00424351004 -0.00585690178 0.00321720145
v -0.00856412101 -0.00589299272 -0.00296600811
v -0.000673856801 -0.00584064407 0.00515857282
v -0.00482578968 -0.00555524245 0.00120565401
v 0.00174773155 -0.00587376911 0.00879897052
v -0.00449953501 -0.00558039577 -0.00275500188
v 0.00254223938 -0.0058610583 0.00454947076
v -0.00380783335 -0.00579231998 -0.00835007595
v 0.00650818889 -0.0058712654 0.00621934159
v 0.0010314117 -0.00580559636 -0.00529752178
v 0.00193182292 -0.00585941945 -0.00869603973
v 0.00638996477 -0.005857452 -0.00646088229
v 0.00485593497 -0.00583229915 -0.00219366011
v 0.00881748398 -0.00588439321 -0.00154647551
v 0.00476624533 -0.00586560304 0.00211939241
v 0.00866878084 -0.00557531345 0.00272565558
v -0.017290755 0.00636489489 -0.00986211453
v -0.0124298071 0.00637306185 -0.00970847686
v -0.0173762284 0.00394302436 -0.00981010016
v -0.0123467562 0.00394223499 -0.0100246267
v -0.0180085472 0.00620932685 -0.0156216847
v -0.0124298071 0.00637306185 -0.00970847686
v -0.017290755 0.00636489489 -0.00986211453
v -0.0088278639 0.00636626714 -0.0128808562
v -0.0174384934 0.00639603888 -0.0226040967
v -0.0029165578 0.0063603072 -0.0154285153
v -0.00500003097 0.00612640317 -0.0241368805
v 0.00548129409 0.00638452232 -0.014838636
v 0.00650432356 0.00636002499 -0.0164019642
v 0.0054905069 0.00644218938 -0.0240214853
v 0.0114544253 0.00636483846 -0.0167505175
v -0.0172837777 -0.00647969651 -0.00985639344
v -0.0173310874 -0.00672817338 -0.0172925953
v -0.0175000384 -0.00262680795 -0.0112503869
v -0.0173784483 -0.00405819853 -0.00980370532
v -0.0173762284 0.00394302436 -0.00981010016
v -0.0167751317 -0.00405781103 0.00250197845
v -0.0167021721 0.00394219023 0.00246292602
v -0.0175000375 0.0037482215 -0.0120882854
v -0.017290755 0.00636489489 -0.00986211453
v -0.0180085472 0.00620932685 -0.0156216847
v -0.0124170092 -0.00405769132 -0.00988325264
v -0.0123900167 -0.00648257227 -0.00971285262
v -0.0173784483 -0.00405819853 -0.00980370532
v -0.0172837777 -0.00647969651 -0.00985639344
v 0.00638580298 -0.00649268858 -0.0164728292
v 0.0114385081 -0.00653600555 -0.0171025953
v 0.00480440779 -0.00655780708 -0.0243023518
v -0.00500003134 -0.00632250347 -0.023969695
v 0.00579288446 -0.00649607122 -0.0148541527
v -0.00266305522 -0.00646829599 -0.0154705631
v -0.00875532439 -0.00649036523 -0.0129354637
v -0.0174538794 -0.00649626679 -0.0226194737
v -0.0173310874 -0.00672817338 -0.0172925953
v -0.0123900167 -0.00648257227 -0.00971285262
v -0.0172837777 -0.00647969651 -0.00985639344
v 0.00579288446 -0.00649607122 -0.0148541527
v 0.00606856664 -0.00405780903 -0.0151694825
v 0.00638580298 -0.00649268858 -0.0164728292
v 0.00571172931 -0.00405780907 -0.0148641571
v 0.00544937428 -0.00405780909 -0.0147841231
v -0.00191670225 -0.00405769041 -0.0156449751
v -0.00266305522 -0.00646829599 -0.0154705631
v -0.00875532439 -0.00649036523 -0.0129354637
v -0.0124170092 -0.00405769132 -0.00988325264
v -0.0123900167 -0.00648257227 -0.00971285262
v 0.00548129409 0.00638452232 -0.014838636
v 0.00621465553 0.00394214748 -0.015251826
v -0.00117097614 0.0039420126 -0.015715968
v -0.0029165578 0.0063603072 -0.0154285153
v -0.0029165578 0.0063603072 -0.0154285153
v -0.00117097614 0.0039420126 -0.015715968
v -0.0123467562 0.00394223499 -0.0100246267
v -0.0088278639 0.00636626714 -0.0128808562
v 0.00621465553 0.00394214748 -0.015251826
v 0.0114165374 0.00394219269 -0.0161843462
v 0.0114078368 0.00394219269 0.00452156091
v 0.00917222025 0.00394219249 -0.000294666825
v 0.00568579309 0.00394219219 -0.00740591204
v -0.00117097614 0.0039420126 -0.015715968
v -0.00200818575 0.00394219151 -0.0089546149
v 0.00620923203 0.00394219223 0.00697282958
v 0.00775089686 0.00394219237 0.011304806
v -0.0123467562 0.00394223499 -0.0100246267
v -0.00674538567 0.0039421911 -0.00605306232
v -0.00206149814 0.00394219151 0.0127966036
v -0.00256029851 0.00394219146 0.0089788824
v -0.0078412744 0.003942191 0.00454464716
v -0.0167021721 0.00394219023 0.00246292602
v -0.00912531139 0.00394123701 -0.000846671537
v -0.0173762284 0.00394302436 -0.00981010016
v 0.00476624533 -0.00586560304 0.00211939241
v 0.00321676112 0.00561234366 0.00403716876
v 0.00254223938 -0.0058610583 0.00454947076
v 0.0053052669 0.00573575536 -0.000390770992
v 0.00485593497 -0.00583229915 -0.00219366011
v 0.00381864727 0.0054294767 -0.00334746328
v 0.0010314117 -0.00580559636 -0.00529752178
v 0.00112113143 0.00573790067 -0.00518212073
v -0.00318700454 0.0057437116 0.00417456176
v -0.00424351004 -0.00585690178 0.00321720145
v -7.18989152e-05 0.00571696436 0.00523399503
v -0.000673856801 -0.00584064407 0.00515857282
v -7.18989152e-05 0.00571696436 0.00523399503
v -0.000673856801 -0.00584064407 0.00515857282
v 0.00321676112 0.00561234366 0.00403716876
v 0.00254223938 -0.0058610583 0.00454947076
v 0.00112113143 0.00573790067 -0.00518212073
v 0.0010314117 -0.00580559636 -0.00529752178
v -0.00214324002 0.00543485566 -0.00459685616
v -0.00449953501 -0.00558039577 -0.00275500188
v -0.0045671824 0.00573119465 -0.00264956907
v -0.0045671824 0.00573119465 -0.00264956907
v -0.00449953501 -0.00558039577 -0.00275500188
v -0.00501130758 0.00573612698 0.00148782738
v -0.00482578968 -0.00555524245 0.00120565401
v -0.00501130758 0.00573612698 0.00148782738
v -0.00482578968 -0.00555524245 0.00120565401
v -0.00318700454 0.0057437116 0.00417456176
v -0.00424351004 -0.00585690178 0.00321720145
v -0.0167021721 0.00394219023 0.00246292602
v -0.00206149814 0.00394219151 0.0127966036
v -0.0167751317 -0.00405781103 0.00250197845
v -0.00170961303 -0.00405780971 0.0128796426
v -0.0185000343 -0.00380404433 -0.0117287083
v -0.0180085472 0.00620932685 -0.0156216847
v -0.0185000437 0.00333648734 -0.0118236836
v -0.0184994156 -0.00670039824 -0.0184196819
v -0.0184992683 0.00604510116 -0.0201764735
v -0.0180000275 -0.00435632622 -0.0225187308
v -0.0185000275 0.00119112267 -0.0242531052
v 0.0114165374 0.00394219269 -0.0161843462
v 0.00621465553 0.00394214748 -0.015251826
v 0.0114544253 0.00636483846 -0.0167505175
v 0.00650432356 0.00636002499 -0.0164019642
v 0.0114385081 -0.00653600555 -0.0171025953
v 0.00638580298 -0.00649268858 -0.0164728292
v 0.0114288497 -0.00405779365 -0.0161839329
v 0.00606856664 -0.00405780903 -0.0151694825
v 0.0114385081 -0.00653600555 -0.0171025953
v 0.0114288497 -0.00405779365 -0.0161839329
v 0.0114544253 0.00636483846 -0.0167505175
v 0.0114165374 0.00394219269 -0.0161843462
v 0.0114078368 0.00394219269 0.00452156091
v 0.0110316727 -0.0040578086 0.00658163335
v 0.00775089686 0.00394219237 0.011304806
v 0.00616662182 -0.00405780903 0.0119122458
v 0.0114385081 -0.00653600555 -0.0171025953
v 0.0114544253 0.00636483846 -0.0167505175
v 0.0054905069 0.00644218938 -0.0240214853
v 0.00480440779 -0.00655780708 -0.0243023518
v -0.00170961303 -0.00405780971 0.0128796426
v -0.00206149814 0.00394219151 0.0127966036
v 0.00775089686 0.00394219237 0.011304806
v 0.00616662182 -0.00405780903 0.0119122458
v 0.0114288497 -0.00405779365 -0.0161839329
v 0.00544937428 -0.00405780909 -0.0147841231
v 0.00175165859 -0.0040573623 -0.00918278165
v -0.00191670225 -0.00405769041 -0.0156449751
v 0.00869181566 -0.00405718307 -0.00344138643
v 0.0110316727 -0.0040578086 0.00658163335
v 0.00810591045 -0.00405913526 0.00426866027
v 0.00616662182 -0.00405780903 0.0119122458
v 0.00324662396 -0.00405898653 0.00857349296
v -0.00170961303 -0.00405780971 0.0128796426
v -0.0045645149 -0.00405921059 0.00813380175
v -0.0167751317 -0.00405781103 0.00250197845
v -0.00905748421 -0.00405687176 0.0015147044
v -0.0173784483 -0.00405819853 -0.00980370532
v -0.00702726212 -0.00405484486 -0.0062240797
v -0.0124170092 -0.00405769132 -0.00988325264
v -0.0045671824 0.00573119465 -0.00264956907
v -0.00896210818 0.00577355817 0.00091720085
v -0.00769205413 0.00578120276 -0.00446878512
v -0.00417109965 0.00583206056 -0.00787042518
v -0.00501130758 0.00573612698 0.00148782738
v -0.00214324002 0.00543485566 -0.00459685616
v -0.00662702201 0.00578120286 0.00593461591
v -0.00318700454 0.0057437116 0.00417456176
v -0.00188661957 0.005772188 0.0088136163
v -7.18989152e-05 0.00571696436 0.00523399503
v 0.00359628525 0.00578120375 0.00813650622
v 0.00321676112 0.00561234366 0.00403716876
v 0.00729616026 0.00581865052 0.00509759739
v 0.00112113143 0.00573790067 -0.00518212073
v 0.000778311776 0.0057466478 -0.00900256418
v 0.0053052669 0.00573575536 -0.000390770992
v 0.00913486824 0.00568844451 -0.00101064343
v 0.00619622755 0.00583206147 -0.00639902719
v 0.00381864727 0.0054294767 -0.00334746328
vt 0.500976562 0.0335693359
vt 0.504882812 0.0255126953
vt 0.508789062 0.0337219238
vt 0.534667969 0.0423583984
vt 0.530273438 0.0386962891
vt 0.538085938 0.030380249
vt 0.534667969 0.0423583984
vt 0.538085938 0.030380249
vt 0.544921875 0.026184082
vt 0.555664062 0.965332031
vt 0.55859375 0.977050781
vt 0.551757812 0.9765625
vt 0.565917969 0.982910156
vt 0.573730469 0.985351562
vt 0.567382812 0.989746094
vt 0.586914062 0.986328125
vt 0.581542969 0.983398438
vt 0.58984375 0.975097656
vt 0.586914062 0.986328125
vt 0.58984375 0.975097656
vt 0.596191406 0.969238281
vt 0.596191406 0.969238281
vt 0.58984375 0.975097656
vt 0.590820312 0.961914062
vt 0.596191406 0.969238281
vt 0.590820312 0.961914062
vt 0.58984375 0.947265625
vt 0.58984375 0.947265625
vt 0.575683594 0.94921875
vt 0.565917969 0.944335938
vt 0.565917969 0.944335938
vt 0.575683594 0.94921875
vt 0.564941406 0.951171875
vt 0.876953125 0.778320312
vt 0.872558594 0.751953125
vt 0.878417969 0.751464844
vt 0.8671875 0.834472656
vt 0.863769531 0.860839844
vt 0.861328125 0.833984375
vt 0.433349609 0.311767578
vt 0.435058594 0.309082031
vt 0.435058594 0.323730469
vt 0.435058594 0.309082031
vt 0.433349609 0.311767578
vt 0.427246094 0.302978516
vt 0.435058594 0.309082031
vt 0.427246094 0.302978516
vt 0.426025391 0.299316406
vt 0.426025391 0.299316406
vt 0.427246094 0.302978516
vt 0.412109375 0.299072266
vt 0.412109375 0.299072266
vt 0.408691406 0.308349609
vt 0.405761719 0.309814453
vt 0.435058594 0.323730469
vt 0.422119141 0.330810547
vt 0.421142578 0.327880859
vt 0.421142578 0.327880859
vt 0.422119141 0.330810547
vt 0.409179688 0.322998047
vt 0.421142578 0.327880859
vt 0.409179688 0.322998047
vt 0.409912109 0.319824219
vt 0.409912109 0.319824219
vt 0.409179688 0.322998047
vt 0.405761719 0.309814453
vt 0.409912109 0.319824219
vt 0.405761719 0.309814453
vt 0.408691406 0.308349609
vt 0.840820312 0.389648438
vt 0.834960938 0.380371094
vt 0.840332031 0.379394531
vt 0.836425781 0.422607422
vt 0.841308594 0.420898438
vt 0.841308594 0.424804688
vt 0.830566406 0.548828125
vt 0.830078125 0.550292969
vt 0.827636719 0.537597656
vt 0.530761719 0.000808238983
vt 0.525390625 0.00445175171
vt 0.515625 0.000405550003
vt 0.513671875 0.00665283203
vt 0.515625 0.000405550003
vt 0.513671875 0.00665283203
vt 0.500976562 0.0113754272
vt 0.505371094 0.014755249
vt 0.500976562 0.0113754272
vt 0.505371094 0.014755249
vt 0.504882812 0.0255126953
vt 0.500976562 0.0335693359
vt 0.500976562 0.0335693359
vt 0.508789062 0.0337219238
vt 0.518554688 0.0411682129
vt 0.516113281 0.0445861816
vt 0.516113281 0.0445861816
vt 0.518554688 0.0411682129
vt 0.534667969 0.0423583984
vt 0.530273438 0.0386962891
vt 0.544921875 0.026184082
vt 0.538085938 0.030380249
vt 0.540039062 0.0200653076
vt 0.542480469 0.0109558105
vt 0.535644531 0.0102615356
vt 0.530761719 0.000808238983
vt 0.525390625 0.00445175171
vt 0.551757812 0.958007812
vt 0.565917969 0.944335938
vt 0.558105469 0.95703125
vt 0.564941406 0.951171875
vt 0.551757812 0.958007812
vt 0.558105469 0.95703125
vt 0.555664062 0.965332031
vt 0.551757812 0.9765625
vt 0.551757812 0.9765625
vt 0.55859375 0.977050781
vt 0.567382812 0.989746094
vt 0.565917969 0.982910156
vt 0.567382812 0.989746094
vt 0.573730469 0.985351562
vt 0.586914062 0.986328125
vt 0.581542969 0.983398438
vt 0.590820312 0.961914062
vt 0.585449219 0.951660156
vt 0.58984375 0.947265625
vt 0.575683594 0.94921875
vt 0.301513672 0.902832031
vt 0.300292969 0.925292969
vt 0.273925781 0.903808594
vt 0.273925781 0.924804688
vt 0.277099609 0.951171875
vt 0.296142578 0.951660156
vt 0.349853516 0.478515625
vt 0.338134766 0.480712891
vt 0.334960938 0.479492188
vt 0.331298828 0.484130859
vt 0.333251953 0.494140625
vt 0.333496094 0.502929688
vt 0.337646484 0.502441406
vt 0.337890625 0.506835938
vt 0.349121094 0.506835938
vt 0.581542969 0.983398438
vt 0.573730469 0.985351562
vt 0.565917969 0.982910156
vt 0.575195312 0.977539062
vt 0.58984375 0.975097656
vt 0.567382812 0.975097656
vt 0.579101562 0.975585938
vt 0.55859375 0.977050781
vt 0.583984375 0.969726562
vt 0.563964844 0.969726562
vt 0.590820312 0.961914062
vt 0.555664062 0.965332031
vt 0.581054688 0.958496094
vt 0.585449219 0.951660156
vt 0.575683594 0.94921875
vt 0.571289062 0.956542969
vt 0.564941406 0.951171875
vt 0.564453125 0.962890625
vt 0.558105469 0.95703125
vt 0.838378906 0.369140625
vt 0.840332031 0.379394531
vt 0.833496094 0.369873047
vt 0.834960938 0.380371094
vt 0.857421875 0.751464844
vt 0.845703125 0.763671875
vt 0.845214844 0.753417969
vt 0.852539062 0.770996094
vt 0.872558594 0.751953125
vt 0.858398438 0.783203125
vt 0.876953125 0.778320312
vt 0.858398438 0.801269531
vt 0.861816406 0.803222656
vt 0.877441406 0.800292969
vt 0.862792969 0.813476562
vt 0.312011719 0.300537109
vt 0.327880859 0.300048828
vt 0.314941406 0.308837891
vt 0.312011719 0.305664062
vt 0.312011719 0.322753906
vt 0.285888672 0.305664062
vt 0.285888672 0.322509766
vt 0.316650391 0.322265625
vt 0.312011719 0.327880859
vt 0.32421875 0.327636719
vt 0.828613281 0.591308594
vt 0.833984375 0.591796875
vt 0.827636719 0.602050781
vt 0.832519531 0.602050781
vt 0.87890625 0.885253906
vt 0.877441406 0.895996094
vt 0.862304688 0.881347656
vt 0.863769531 0.860839844
vt 0.882324219 0.883789062
vt 0.881347656 0.866210938
vt 0.887207031 0.853515625
vt 0.8671875 0.834472656
vt 0.878417969 0.834960938
vt 0.89453125 0.845703125
vt 0.89453125 0.835449219
vt 0.835449219 0.549804688
vt 0.830566406 0.548828125
vt 0.835449219 0.546386719
vt 0.830566406 0.549804688
vt 0.830078125 0.550292969
vt 0.829589844 0.565917969
vt 0.834960938 0.567871094
vt 0.834472656 0.581542969
vt 0.828613281 0.591308594
vt 0.833984375 0.591796875
vt 0.841308594 0.420898438
vt 0.836425781 0.422607422
vt 0.8359375 0.406982422
vt 0.841308594 0.403076172
vt 0.841308594 0.403076172
vt 0.8359375 0.406982422
vt 0.834960938 0.380371094
vt 0.840820312 0.389648438
vt 0.224975586 0.886230469
vt 0.2265625 0.897460938
vt 0.182739258 0.895507812
vt 0.193115234 0.891113281
vt 0.208496094 0.884277344
vt 0.2265625 0.870605469
vt 0.212280273 0.868164062
vt 0.177978516 0.884277344
vt 0.168701172 0.887207031
vt 0.215454102 0.846679688
vt 0.206542969 0.857910156
vt 0.166381836 0.866699219
vt 0.174438477 0.865722656
vt 0.184204102 0.854980469
vt 0.189331055 0.836425781
vt 0.195800781 0.852539062
vt 0.215332031 0.8359375
vt 0.813964844 0.203857422
vt 0.838378906 0.208984375
vt 0.813964844 0.21081543
vt 0.838378906 0.198608398
vt 0.813964844 0.194702148
vt 0.837890625 0.191650391
vt 0.813964844 0.184326172
vt 0.838378906 0.184814453
vt 0.838378906 0.155517578
vt 0.813964844 0.158569336
vt 0.838378906 0.14855957
vt 0.813964844 0.150024414
vt 0.838378906 0.216430664
vt 0.813964844 0.217773438
vt 0.838378906 0.208984375
vt 0.813964844 0.21081543
vt 0.838378906 0.184814453
vt 0.813964844 0.184326172
vt 0.837890625 0.177734375
vt 0.814453125 0.171386719
vt 0.838378906 0.171142578
vt 0.838378906 0.171142578
vt 0.814453125 0.171386719
vt 0.838378906 0.162353516
vt 0.814453125 0.163085938
vt 0.838378906 0.162353516
vt 0.814453125 0.163085938
vt 0.838378906 0.155517578
vt 0.813964844 0.158569336
vt 0.285888672 0.322509766
vt 0.247924805 0.322753906
vt 0.285888672 0.305664062
vt 0.247192383 0.305908203
vt 0.409912109 0.319824219
vt 0.435058594 0.323730469
vt 0.421142578 0.327880859
vt 0.408691406 0.308349609
vt 0.433349609 0.311767578
vt 0.412109375 0.299072266
vt 0.427246094 0.302978516
vt 0.833496094 0.433349609
vt 0.836425781 0.422607422
vt 0.838378906 0.435058594
vt 0.841308594 0.424804688
vt 0.832519531 0.535644531
vt 0.835449219 0.546386719
vt 0.827636719 0.537597656
vt 0.830566406 0.548828125
vt 0.165039062 0.300048828
vt 0.166992188 0.305419922
vt 0.165649414 0.327392578
vt 0.166870117 0.322265625
vt 0.210693359 0.322509766
vt 0.215087891 0.305664062
vt 0.226928711 0.322753906
vt 0.23034668 0.305908203
vt 0.645996094 0.573730469
vt 0.645996094 0.546386719
vt 0.666015625 0.546875
vt 0.666992188 0.57421875
vt 0.247192383 0.305908203
vt 0.247924805 0.322753906
vt 0.226928711 0.322753906
vt 0.23034668 0.305908203
vt 0.901855469 0.416015625
vt 0.899414062 0.428955078
vt 0.887695312 0.437255859
vt 0.901855469 0.444335938
vt 0.875 0.422851562
vt 0.853515625 0.418945312
vt 0.858886719 0.424804688
vt 0.842773438 0.4296875
vt 0.850097656 0.435546875
vt 0.841308594 0.446289062
vt 0.8515625 0.451904297
vt 0.864746094 0.477294922
vt 0.866210938 0.4609375
vt 0.890625 0.477539062
vt 0.882324219 0.456054688
vt 0.890625 0.467041016
vt 0.529785156 0.0155563354
vt 0.525390625 0.00445175171
vt 0.535644531 0.0102615356
vt 0.540039062 0.0200653076
vt 0.521972656 0.0122146606
vt 0.532226562 0.0217285156
vt 0.513671875 0.00665283203
vt 0.515625 0.0144195557
vt 0.505371094 0.014755249
vt 0.51171875 0.0200042725
vt 0.504882812 0.0255126953
vt 0.512695312 0.0269317627
vt 0.508789062 0.0337219238
vt 0.53125 0.028427124
vt 0.538085938 0.030380249
vt 0.51953125 0.0333862305
vt 0.518554688 0.0411682129
vt 0.530273438 0.0386962891
vt 0.525878906 0.0322875977
f 3/3 2/2 1/1
f 6/6 5/5 4/4
f 9/9 8/8 7/7
f 12/12 11/11 10/10
f 15/15 14/14 13/13
f 18/18 17/17 16/16
f 21/21 20/20 19/19
f 24/24 23/23 22/22
f 27/27 26/26 25/25
f 30/30 29/29 28/28
f 33/33 32/32 31/31
f 36/36 35/35 34/34
f 39/39 38/38 37/37
f 42/42 41/41 40/40
f 45/45 44/44 43/43
f 48/48 47/47 46/46
f 51/51 50/50 49/49
f 54/54 53/53 52/52
f 57/57 56/56 55/55
f 60/60 59/59 58/58
f 63/63 62/62 61/61
f 66/66 65/65 64/64
f 69/69 68/68 67/67
f 72/72 71/71 70/70
f 75/75 74/74 73/73
f 78/78 77/77 76/76
f 81/81 80/80 79/79
f 82/82 80/80 81/81
f 85/85 84/84 83/83
f 86/86 84/84 85/85
f 89/89 88/88 87/87
f 90/90 89/89 87/87
f 93/93 92/92 91/91
f 94/94 93/93 91/91
f 97/97 96/96 95/95
f 98/98 96/96 97/97
f 101/101 100/100 99/99
f 102/102 101/101 99/99
f 103/103 101/101 102/102
f 104/104 103/103 102/102
f 105/105 103/103 104/104
f 108/108 107/107 106/106
f 108/108 109/109 107/107
f 112/112 111/111 110/110
f 113/113 112/112 110/110
f 116/116 115/115 114/114
f 116/116 117/117 115/115
f 120/120 119/119 118/118
f 120/120 121/121 119/119
f 124/124 123/123 122/122
f 125/125 123/123 124/124
f 128/128 127/127 126/126
f 127/127 128/128 129/129
f 130/130 127/127 129/129
f 131/131 127/127 130/130
f 134/134 133/133 132/132
f 135/135 133/133 134/134
f 136/136 133/133 135/135
f 135/135 137/137 136/136
f 137/137 138/138 136/136
f 139/139 138/138 137/137
f 140/140 138/138 139/139
f 143/143 142/142 141/141
f 143/143 141/141 144/144
f 141/141 145/145 144/144
f 146/146 143/143 144/144
f 145/145 147/147 144/144
f 148/148 143/143 146/146
f 145/145 149/149 147/147
f 150/150 148/148 146/146
f 145/145 151/151 149/149
f 152/152 148/148 150/150
f 149/149 151/151 153/153
f 151/151 154/154 153/153
f 154/154 155/155 153/153
f 153/153 155/155 156/156
f 155/155 157/157 156/156
f 158/158 152/152 150/150
f 158/158 156/156 157/157
f 157/157 152/152 158/158
f 157/157 159/159 152/152
f 162/162 161/161 160/160
f 163/163 161/161 162/162
f 166/166 165/165 164/164
f 165/165 167/167 164/164
f 164/164 167/167 168/168
f 168/168 167/167 169/169
f 168/168 169/169 170/170
f 169/169 171/171 170/170
f 171/171 172/172 170/170
f 172/172 173/173 170/170
f 174/174 173/173 172/172
f 177/177 176/176 175/175
f 178/178 177/177 175/175
f 177/177 178/178 179/179
f 178/178 180/180 179/179
f 179/179 180/180 181/181
f 179/179 182/182 177/177
f 183/183 182/182 179/179
f 184/184 182/182 183/183
f 187/187 186/186 185/185
f 188/188 186/186 187/187
f 191/191 190/190 189/189
f 191/191 189/189 192/192
f 192/192 189/189 193/193
f 194/194 192/192 193/193
f 194/194 195/195 192/192
f 192/192 195/195 196/196
f 196/196 195/195 197/197
f 195/195 198/198 197/197
f 197/197 198/198 199/199
f 202/202 201/201 200/200
f 201/201 203/203 200/200
f 203/203 204/204 200/200
f 204/204 205/205 200/200
f 200/200 205/205 206/206
f 206/206 205/205 207/207
f 205/205 208/208 207/207
f 207/207 208/208 209/209
f 212/212 211/211 210/210
f 213/213 212/212 210/210
f 216/216 215/215 214/214
f 217/217 216/216 214/214
f 220/220 219/219 218/218
f 221/221 220/220 218/218
f 222/222 221/221 218/218
f 223/223 222/222 218/218
f 224/224 222/222 223/223
f 220/220 221/221 225/225
f 226/226 220/220 225/225
f 223/223 227/227 224/224
f 224/224 227/227 228/228
f 229/229 226/226 225/225
f 230/230 229/229 225/225
f 229/229 230/230 231/231
f 229/229 231/231 232/232
f 227/227 233/233 228/228
f 231/231 233/233 232/232
f 227/227 234/234 233/233
f 234/234 232/232 233/233
f 237/237 236/236 235/235
f 238/238 235/235 236/236
f 239/239 235/235 238/238
f 240/240 239/239 238/238
f 241/241 239/239 240/240
f 242/242 241/241 240/240
f 245/245 244/244 243/243
f 246/246 244/244 245/245
f 249/249 248/248 247/247
f 250/250 248/248 249/249
f 253/253 252/252 251/251
f 254/254 252/252 253/253
f 255/255 254/254 253/253
f 258/258 257/257 256/256
f 259/259 257/257 258/258
f 262/262 261/261 260/260
f 263/263 261/261 262/262
f 266/266 265/265 264/264
f 267/267 265/265 266/266
f 270/270 269/269 268/268
f 269/269 271/271 268/268
f 269/269 272/272 271/271
f 272/272 273/273 271/271
f 272/272 274/274 273/273
f 277/277 276/276 275/275
f 278/278 276/276 277/277
f 281/281 280/280 279/279
f 282/282 280/280 281/281
f 285/285 284/284 283/283
f 284/284 285/285 286/286
f 286/286 287/287 284/284
f 284/284 287/287 288/288
f 287/287 289/289 288/288
f 288/288 289/289 290/290
f 293/293 292/292 291/291
f 294/294 293/293 291/291
f 297/297 296/296 295/295
f 298/298 297/297 295/295
f 301/301 300/300 299/299
f 302/302 300/300 301/301
f 303/303 301/301 299/299
f 303/303 299/299 304/304
f 305/305 303/303 304/304
f 306/306 305/305 304/304
f 305/305 306/306 307/307
f 306/306 308/308 307/307
f 308/308 309/309 307/307
f 310/310 309/309 308/308
f 311/311 309/309 310/310
f 310/310 312/312 311/311
f 301/301 313/313 302/302
f 311/311 312/312 313/313
f 302/302 313/313 314/314
f 313/313 312/312 314/314
f 317/317 316/316 315/315
f 318/318 317/317 315/315
f 315/315 316/316 319/319
f 320/320 318/318 315/315
f 316/316 321/321 319/319
f 319/319 321/321 322/322
f 321/321 323/323 322/322
f 322/322 323/323 324/324
f 323/323 325/325 324/324
f 324/324 325/325 326/326
f 325/325 327/327 326/326
f 320/320 328/328 318/318
f 329/329 318/318 328/328
f 326/326 327/327 330/330
f 330/330 327/327 331/331
f 332/332 329/329 328/328
f 331/331 332/332 330/330
f 333/333 332/332 328/328
f 333/333 330/330 332/332
