v 0.038647828 -0.0197591154 0.016495341
v 0.0399588362 -0.0185715524 0.0170245956
v 0.0374002779 -0.0206406079 0.015765948
v 0.0371800811 -0.0194178483 0.0165038233
v 0.038647828 -0.0197591154 0.016495341
v 0.0374002779 -0.0206406079 0.015765948
v 0.0314823487 -0.0212020242 0.013834369
v 0.0278785584 -0.0244591797 0.0107309286
v 0.0220053341 -0.0241350203 0.00987027597
v 0.0231523424 -0.0260239825 0.00807391334
v 0.0154639995 -0.0252622952 0.00841810615
v 0.01281526 -0.0273592468 0.00541126028
v 0.00159634529 -0.0271869007 0.00518405323
v -0.0134051536 -0.0265529158 0.00645375403
v 0.01281526 -0.0273592468 0.00541126028
v 0.00792353317 -0.0254790757 0.00824825329
v 0.0154639995 -0.0252622952 0.00841810615
v -0.010853017 -0.024677814 0.00959601966
v -0.0199961454 -0.0254285336 0.00804664087
v -0.025747499 -0.0235615684 0.0101615653
v -0.0192650604 -0.0217835028 0.0123672202
v -0.0293982368 -0.0246875305 0.00716709255
v -0.0293482338 -0.021590295 0.0121098019
v -0.0231911311 -0.0178393433 0.0159534349
v -0.0329974823 -0.0139303534 0.0186879144
v -0.0247734441 -0.0142540062 0.0187805403
v -0.0255304555 -0.0100044032 0.0209695427
v -0.0337319238 -0.00838007331 0.0204551921
v -0.0257450443 -0.00477011715 0.0215416847
v -0.0338723657 0.00778896787 0.0204617681
v -0.0256398118 0.00884283867 0.0212648825
v -0.0329990621 0.0135398921 0.0188367267
v -0.0247993257 0.0139484088 0.0188794525
v -0.0232801264 0.0175920848 0.0160067197
v -0.0252518123 0.0215419953 0.0122681857
v -0.0204809989 0.0207037909 0.0131869572
v -0.0167547847 0.0228961391 0.0111538007
v -0.0393756185 -0.0163221097 0.0157377144
v -0.0410076539 -0.0139997333 0.0170956308
v -0.0366613628 -0.0222119418 0.00852969242
v -0.045914894 -0.0186081856 0.00757211601
v -0.0397286241 -0.0238101804 0.00308587805
v -0.0480491654 -0.015908334 0.00904421468
v -0.0335612369 -0.0268370525 -0.00103816792
v -0.0293341819 -0.0286760649 -0.0091943155
v 0.00159634529 -0.0271869007 0.00518405323
v -0.0422404256 -0.00967707098 0.0182527379
v -0.0465930692 -0.0110093392 0.0143642988
v -0.0427729884 -0.00290832296 0.0186147605
v -0.0473326882 -0.00569096605 0.0147422747
v -0.047736889 0.00524197077 0.014398247
v -0.0428576435 0.00635134773 0.0184087272
v -0.042080461 0.0102871912 0.0180862946
v -0.0513765891 -0.0128492612 0.00743132405
v -0.0523735702 -0.0104237241 0.00758913884
v -0.0575923993 -0.00954464552 -0.00140719776
v -0.0549619307 -0.0136027379 0.000459845751
v -0.0533953818 -0.0169214053 -0.00117514292
v -0.0513287374 -0.00432511127 0.0105788837
v -0.0578478838 -0.0154695262 -0.0102731508
v -0.0493413343 -0.0209563717 -0.00175863588
v -0.0546949272 -0.00379041308 0.00607666552
v -0.0539407 -0.0199210979 -0.0093128001
v -0.0415762137 -0.0252728183 -0.00254562019
v -0.0545902936 0.00179594276 0.00629582501
v -0.0523102823 0.0048306241 0.00922505424
v -0.0587224202 -0.0017261706 -0.0011176613
v -0.0449673541 -0.026184563 -0.0103640166
v -0.0405204662 -0.0275233418 -0.00956020594
v -0.0503829311 -0.0230343984 -0.00982782949
v -0.0343079654 -0.0286721014 -0.0101495832
v -0.0493899638 0.0114416879 0.0109750348
v -0.0550056292 0.0095320148 0.00370220259
v -0.0585100327 0.00464307739 -0.00121300072
v -0.0456005927 0.0111565849 0.0150735679
v -0.0457866393 0.0151148099 0.0121756377
v -0.0407050172 0.0137433069 0.0172192755
v -0.0389113978 0.0159635655 0.0160291049
v -0.0529658468 0.0128778466 0.00475132329
v -0.0567710445 0.0120764323 -0.00189695111
v -0.0522624717 0.0179411565 -0.000947366061
v -0.0501724207 0.0159186966 0.00572238241
v -0.0466625251 0.0185532382 0.00632989177
v -0.0417663644 0.0175171 0.0124879007
v -0.02916438 0.0225725296 0.0106729749
v -0.0185459816 0.0256676502 0.00748446109
v -0.0324110812 0.0234994849 0.00797087123
v -0.0390730089 0.0208967593 0.00880966763
v -0.0108723472 0.0264236025 0.0063825144
v -0.0105069513 0.0245413326 0.00956106596
v 0.012647332 0.0271619105 0.00536068001
v 0.0112249967 0.0252296925 0.00826143951
v -0.0427464625 0.0221367728 0.00354017502
v -0.0391804751 0.0247598562 0.000721499873
v -0.0459748777 0.0230156733 -0.00229138204
v -0.0212339636 0.0274143949 -0.00116428419
v -0.0274092767 0.0249576236 0.00667468339
v -0.0328603136 0.0263401686 0.000405883748
v 0.00139173583 0.0277421468 -0.00130854196
v 0.012647332 0.0271619105 0.00536068001
v 0.0112493818 0.0283532291 -0.00258726905
v 0.00589380693 0.0286424741 -0.0111392532
v -0.0304179029 0.0284657758 -0.00911465904
v -0.0336188761 0.0293903023 -0.018074445
v 0.00242727565 0.0290665923 -0.0281739078
v -0.0358705959 0.0297669872 -0.0281510089
v -0.0424362221 0.0291070456 -0.0281176501
v -0.0338880952 0.0286865193 -0.0109457556
v -0.0402148459 0.0275323511 -0.010232153
v -0.0391237201 0.0291003841 -0.019846877
v -0.0449780865 0.0276088064 -0.0198111302
v -0.0499272742 0.0261784749 -0.0281096261
v -0.0451346533 0.0256488264 -0.00935318312
v -0.0504164163 0.0249579505 -0.0197864705
v -0.0551046765 0.0225837032 -0.0281036482
v -0.050500794 0.0226548116 -0.00939925085
v -0.0552183443 0.0212882553 -0.019765037
v -0.0603374399 0.0167874043 -0.0280765031
v -0.053992456 0.0201134924 -0.0106381303
v -0.0575215918 0.0154293878 -0.00944982894
v -0.0591648815 0.0167223762 -0.0197463276
v -0.0600125941 0.0103999022 -0.00928918816
v -0.0620739603 0.0114306302 -0.0197295027
v -0.0634520208 0.0108018164 -0.0280723587
v -0.0615365341 0.00442879835 -0.00928860391
v -0.0640652146 0.00452431472 -0.019685633
v -0.0652840889 0.00425612354 -0.0280726148
v -0.0621937971 -0.000634705501 -0.0103387356
v -0.0646449684 8.95354264e-05 -0.0207032848
v -0.0655373847 -0.00306308821 -0.0280944019
v -0.0608098225 -0.00339015337 -0.00667046916
v -0.061434792 -0.00673541972 -0.0104403109
v -0.0637563872 -0.00601643854 -0.0197180227
v -0.0636044997 -0.0104424112 -0.0280759879
v -0.0600966208 -0.0107498514 -0.00977359377
v -0.0619861636 -0.0117427462 -0.0197295987
v -0.0610995849 -0.0156530785 -0.0280929788
v -0.059056915 -0.0169805332 -0.0197463436
v -0.0571912893 -0.0206860356 -0.028104402
v -0.0551076471 -0.0214948105 -0.0197649875
v -0.0508183067 -0.0258098867 -0.0281026994
v -0.0503197989 -0.0251210979 -0.019786373
v -0.0449066754 -0.0277383059 -0.0198109643
v -0.0418004612 -0.0293813973 -0.0281361194
v -0.0390858102 -0.0292098242 -0.0198465903
v -0.0334357817 -0.0295847072 -0.0191162544
v -0.0337853652 -0.0299639738 -0.0281434914
v -0.00011269614 -0.0290917145 -0.0281874469
v 0.00520785393 -0.0286226273 -0.00810570127
v 0.00928953917 -0.0284100147 -0.00233422943
v 0.01281526 -0.0273592468 0.00541126028
v 0.012647332 0.0271619105 0.00536068001
v 0.0185933772 0.0245862016 0.00901264139
v 0.0112249967 0.0252296925 0.00826143951
v 0.0211989775 0.0261558908 0.00748923121
v 0.0251377883 0.0231715159 0.0109166293
v 0.0270541386 0.024740863 0.0100039979
v 0.0325848067 0.0227858443 0.0130015906
v 0.0360788148 0.0210436616 0.015125853
v 0.036322286 0.0191946953 0.0162704528
v 0.0388753584 0.019258935 0.0167855076
v -0.0358705959 0.0297669872 -0.0281510089
v -0.0424362221 0.0291070456 -0.0281176501
v -0.0393509919 0.0292526436 -0.0284681533
v 0.00311986374 0.0285129997 -0.0285232964
v 0.00242727565 0.0290665923 -0.0281739078
v 0.013955693 0.0296843949 -0.0281700311
v 0.0171240597 0.0297638923 -0.0286972674
v 0.0253211767 0.0313415854 -0.0282032619
v 0.0298683766 0.0317825991 -0.0285638467
v 0.0362452672 0.0340459958 -0.0282652589
v 0.0439705994 0.0364224057 -0.0285772141
v 0.0426097101 0.0363248467 -0.0282758177
v 0.0461761575 0.0370104488 -0.0282411958
v 0.0789261275 0.0366459699 -0.0286421244
v 0.0881024255 0.0367042336 -0.028278117
v 0.105478996 0.0347561033 -0.0287251343
v 0.100366291 0.0357005222 -0.028299907
v 0.109344695 0.0342492546 -0.028295521
v 0.117226489 0.0321701271 -0.02825259
v 0.120896611 0.0303936238 -0.0287394912
v 0.123886808 0.029486935 -0.0283803442
v 0.129958077 0.0258814948 -0.0283836504
v 0.130679305 0.0248248978 -0.0287560717
v 0.134297586 0.0220359682 -0.0283624773
v 0.13760873 0.0178729406 -0.0284145906
v 0.136579956 0.018392083 -0.0287635892
v 0.140502699 0.0119360061 -0.0284539856
v 0.140207062 0.0113347289 -0.0287310599
v 0.141818902 0.00665493065 -0.0283966423
v 0.14186533 -0.00472139069 -0.0287662639
v 0.142337347 -9.00203697e-05 -0.0284259382
v 0.141841197 -0.00666310149 -0.0284708891
v -0.0424362221 0.0291070456 -0.0281176501
v -0.0486000144 0.0264162359 -0.0284623733
v -0.0393509919 0.0292526436 -0.0284681533
v -0.0499272742 0.0261784749 -0.0281096261
v -0.0551046765 0.0225837032 -0.0281036482
v -0.0534206766 0.0233463896 -0.0284296257
v -0.0582253868 0.0188378494 -0.0284223381
v -0.0603374399 0.0167874043 -0.0280765031
v -0.0621602358 0.0126492323 -0.0284145965
v -0.0634520208 0.0108018164 -0.0280723587
v -0.0644104677 0.00632306347 -0.0284052163
v -0.0652840889 0.00425612354 -0.0280726148
v -0.0655373847 -0.00306308821 -0.0280944019
v -0.0651586217 -0.00188068121 -0.0284102833
v -0.063768855 -0.00842130733 -0.0284227805
v -0.0636044997 -0.0104424112 -0.0280759879
v -0.0608825752 -0.0151662282 -0.028423217
v -0.0610995849 -0.0156530785 -0.0280929788
v -0.0560278229 -0.0212469449 -0.0284466689
v -0.0571912893 -0.0206860356 -0.028104402
v -0.0508183067 -0.0258098867 -0.0281026994
v -0.0480792636 -0.0267158479 -0.0284691952
v -0.0418004612 -0.0293813973 -0.0281361194
v -0.0413183272 -0.0288951421 -0.0284554932
v -0.03416336 -0.0294435334 -0.0284760608
v -0.0337853652 -0.0299639738 -0.0281434914
v -0.00011269614 -0.0290917145 -0.0281874469
v 0.0055577984 -0.0287820376 -0.0285302609
v 0.0169157368 -0.0300136176 -0.0281923334
v 0.0168442039 -0.0295414313 -0.0285599293
v 0.0292908544 -0.0317077592 -0.0285543269
v 0.0265835492 -0.0316832919 -0.0282524008
v 0.0391628769 -0.0351146702 -0.028245771
v 0.0446974215 -0.0365914942 -0.0286020775
v 0.0432853765 -0.0366747633 -0.0282624649
v 0.0467853857 -0.0371056161 -0.0282476743
v 0.14186533 -0.00472139069 -0.0287662639
v 0.140606997 -0.0117960299 -0.0284479262
v 0.141841197 -0.00666310149 -0.0284708891
v 0.138604433 -0.0154916221 -0.0287649164
v 0.138355735 -0.0169089307 -0.0284597132
v 0.13179976 -0.0240840499 -0.0287674135
v 0.134168614 -0.0222969523 -0.028410487
v 0.129808604 -0.0261281009 -0.0283927744
v 0.123527055 -0.0297947417 -0.0283830392
v 0.121125151 -0.0304523284 -0.0287210569
v 0.11593751 -0.0326909606 -0.0283408677
v 0.106091602 -0.0347204996 -0.0287010072
v 0.108810703 -0.0344630672 -0.0283109315
v 0.0999139188 -0.0358658639 -0.0283036235
v 0.0857114067 -0.0369307306 -0.0282965513
v 0.0840212192 -0.0366360458 -0.028661589
v 0.0467853857 -0.0371056161 -0.0282476743
v 0.0446974215 -0.0365914942 -0.0286020775
v 0.00242727565 0.0290665923 -0.0281739078
v 0.013955693 0.0296843949 -0.0281700311
v 0.00589380693 0.0286424741 -0.0111392532
v 0.0196434225 0.0302135059 -0.0127877269
v 0.0253211767 0.0313415854 -0.0282032619
v 0.0112493818 0.0283532291 -0.00258726905
v 0.0308807678 0.0324394872 -0.0200631112
v 0.0362452672 0.0340459958 -0.0282652589
v 0.031624557 0.0320918595 -0.0142988385
v 0.0380256736 0.0342519754 -0.020050208
v 0.0426097101 0.0363248467 -0.0282758177
v 0.0429527337 0.0356449812 -0.0228313889
v 0.0461761575 0.0370104488 -0.0282411958
v 0.0242642523 0.0297874233 -0.00554351318
v 0.012647332 0.0271619105 0.00536068001
v 0.034968884 0.0311854064 -0.0102607075
v 0.0211989775 0.0261558908 0.00748923121
v 0.041439594 0.0302923065 -0.00866768241
v 0.0270541386 0.024740863 0.0100039979
v 0.0771994961 0.0366966773 -0.0266364514
v 0.0881024255 0.0367042336 -0.028278117
v 0.0853299016 0.0347901647 -0.0209718812
v 0.0999149138 0.0337183854 -0.0210578291
v 0.100366291 0.0357005222 -0.028299907
v 0.109465511 0.0322599496 -0.0210521583
v 0.109344695 0.0342492546 -0.028295521
v 0.117226489 0.0321701271 -0.02825259
v 0.116959246 0.0303796187 -0.0209572856
v 0.124709376 0.0275362974 -0.0210392827
v 0.123886808 0.029486935 -0.0283803442
v 0.129958077 0.0258814948 -0.0283836504
v 0.129769275 0.0246319277 -0.0210086044
v 0.134543712 0.0207814535 -0.0211225706
v 0.134297586 0.0220359682 -0.0283624773
v 0.13760873 0.0178729406 -0.0284145906
v 0.13771454 0.0168300689 -0.0212579165
v 0.140415993 0.0116246759 -0.0211328908
v 0.140502699 0.0119360061 -0.0284539856
v 0.141818902 0.00665493065 -0.0283966423
v 0.141788856 0.00651079174 -0.0210466591
v 0.142324448 0.000274417317 -0.0209498161
v 0.142337347 -9.00203697e-05 -0.0284259382
v 0.141901547 -0.00612372383 -0.0210856961
v 0.141841197 -0.00666310149 -0.0284708891
v 0.140356402 -0.0117126278 -0.0209831342
v 0.140606997 -0.0117960299 -0.0284479262
v 0.13801926 -0.0165959176 -0.0212702362
v 0.138355735 -0.0169089307 -0.0284597132
v 0.134168614 -0.0222969523 -0.028410487
v 0.133984421 -0.0213607723 -0.0210426515
v 0.129808604 -0.0261281009 -0.0283927744
v 0.129735169 -0.0247507272 -0.0210091079
v 0.12409529 -0.0278341941 -0.0209852864
v 0.123527055 -0.0297947417 -0.0283830392
v 0.11913829 -0.0298533339 -0.0210496903
v 0.11593751 -0.0326909606 -0.0283408677
v 0.11230371 -0.03181385 -0.0210923085
v 0.108810703 -0.0344630672 -0.0283109315
v 0.0996893767 -0.0338056591 -0.0210100741
v 0.0999139188 -0.0358658639 -0.0283036235
v 0.0874594525 -0.0348395039 -0.0210983679
v 0.0857114067 -0.0369307306 -0.0282965513
v 0.0731755661 -0.0352704164 -0.0210392114
v 0.0467853857 -0.0371056161 -0.0282476743
v 0.0429920214 -0.0357075877 -0.0226572389
v 0.0432853765 -0.0366747633 -0.0282624649
v 0.0376506098 -0.034113583 -0.0190929102
v 0.0364979902 -0.0315827984 -0.0111196132
v 0.0391628769 -0.0351146702 -0.028245771
v 0.0327474844 -0.032446321 -0.0146709877
v 0.0502816664 -0.0340497747 -0.0180244635
v 0.0731755661 -0.0352704164 -0.0210392114
v 0.0316618679 -0.0327587682 -0.0211554448
v 0.0218828294 -0.0306823534 -0.0145226033
v 0.0265835492 -0.0316832919 -0.0282524008
v 0.0169157368 -0.0300136176 -0.0281923334
v 0.0246338369 -0.030481365 -0.00787427198
v 0.0135627601 -0.0296795933 -0.0234527717
v -0.00011269614 -0.0290917145 -0.0281874469
v 0.00520785393 -0.0286226273 -0.00810570127
v 0.00928953917 -0.0284100147 -0.00233422943
v 0.01281526 -0.0273592468 0.00541126028
v 0.0231523424 -0.0260239825 0.00807391334
v 0.0417925444 -0.029872264 -0.00709644664
v 0.0351232381 -0.0241004788 0.00962743361
v 0.0278785584 -0.0244591797 0.0107309286
v 0.0374002779 -0.0206406079 0.015765948
v 0.0557151353 -0.0240547898 0.00139209342
v 0.0399588362 -0.0185715524 0.0170245956
v 0.059156594 -0.030675048 -0.0121637015
v 0.0692530797 -0.0334439215 -0.0178824746
v 0.0871723138 -0.0322248565 -0.0179496346
v 0.0874594525 -0.0348395039 -0.0210983679
v 0.0996893767 -0.0338056591 -0.0210100741
v 0.0822672121 -0.0278410546 -0.0116463903
v 0.0733469343 -0.0247116602 -0.00512543738
v 0.0600608026 -0.021052981 0.0043454751
v 0.0767100855 -0.0229045085 -0.00450433763
v 0.0880619766 -0.0256767478 -0.0105870196
v 0.100016271 -0.0303920708 -0.0181274256
v 0.111004969 -0.0280445112 -0.0182460484
v 0.11230371 -0.03181385 -0.0210923085
v 0.11913829 -0.0298533339 -0.0210496903
v 0.102696873 -0.0243040527 -0.0137291048
v 0.0841784717 -0.0207627337 -0.00568724463
v 0.0713424598 -0.0172249314 0.00131246179
v 0.119022562 -0.0253952324 -0.0182572127
v 0.12409529 -0.0278341941 -0.0209852864
v 0.0829935787 -0.0161951408 -0.00325464789
v 0.105703961 -0.0191890207 -0.0119842894
v 0.126827464 -0.0219412328 -0.0184063698
v 0.129735169 -0.0247507272 -0.0210091079
v 0.133984421 -0.0213607723 -0.0210426515
v 0.0521541648 -0.0191635741 0.00981150661
v 0.0565203037 -0.0154578631 0.00939622987
v 0.0677534564 -0.0117106522 0.00468874605
v 0.0461224391 -0.0130410149 0.0166228318
v 0.0396644915 -0.0172118214 0.018333015
v 0.0381339877 -0.0128531417 0.0220110669
v 0.0551854036 -0.0100064822 0.011948232
v 0.0482666979 -0.00342182371 0.0172513508
v 0.0400690655 -0.00206814343 0.0232996259
v 0.0462784338 0.00761364758 0.0180324161
v 0.0398681 0.00490296209 0.023164101
v 0.0383517578 0.0118861525 0.0221978553
v 0.0566254312 -0.0001470099 0.0119727738
v 0.0702935159 -0.00527333581 0.00433716341
v 0.0863270142 -0.00744133404 -0.00270634155
v 0.0471005465 0.0148513497 0.0149705011
v 0.0381440233 0.0134104227 0.0215991953
v 0.0552698904 0.00888175247 0.0120493969
v 0.0656265355 0.00370759327 0.0068678688
v 0.0756032353 0.00563932123 0.00195814009
v 0.0635511754 0.0128694385 0.00661881932
v 0.0518223487 0.0192199981 0.00965812433
v 0.0400414674 0.0182059439 0.0170885687
v 0.0566183569 0.0229400297 0.00255964733
v 0.0580895676 0.0186974452 0.00690731031
v 0.0690729984 0.0160275451 0.00288536885
v 0.0851065724 0.0130605478 -0.00321811094
v 0.0745943377 0.0239519089 -0.00490924504
v 0.0785002756 0.022360391 -0.00483596959
v 0.0871407272 0.00385958699 -0.00281581652
v 0.0387236749 0.0209085081 0.0143053767
v 0.0388753584 0.019258935 0.0167855076
v 0.0360788148 0.0210436616 0.015125853
v 0.0325848067 0.0227858443 0.0130015906
v 0.083191307 0.0188776772 -0.00441765405
v 0.0486118724 0.0274394187 -0.00368088768
v 0.0565711324 0.0306468652 -0.0120164281
v 0.0701023531 0.0290081694 -0.0113902868
v 0.0861671671 0.0270957115 -0.0118004275
v 0.099520616 0.0240742491 -0.0128468091
v 0.0505430827 0.0341308755 -0.0184437537
v 0.0686013751 0.0333982463 -0.0179382871
v 0.0638662458 0.0349858162 -0.0204584794
v 0.0853299016 0.0347901647 -0.0209718812
v 0.088050656 0.0325515187 -0.0185078694
v 0.0999149138 0.0337183854 -0.0210578291
v 0.100028442 0.0304848916 -0.0183053911
v 0.111302999 0.0279740644 -0.018313693
v 0.109465511 0.0322599496 -0.0210521583
v 0.116959246 0.0303796187 -0.0209572856
v 0.101943312 0.0207828665 -0.0116405929
v 0.119404516 0.0253225228 -0.0183526587
v 0.124709376 0.0275362974 -0.0210392827
v 0.10417241 0.0176446676 -0.01107352
v 0.127484065 0.0217295247 -0.0185353405
v 0.129769275 0.0246319277 -0.0210086044
v 0.134543712 0.0207814535 -0.0211225706
v 0.107436905 0.0125478596 -0.0108026696
v 0.132649775 0.0171387757 -0.0183935103
v 0.0947575076 0.0106089642 -0.00631431976
v 0.110535079 0.00731445273 -0.0111016598
v 0.137556122 0.0165993541 -0.0206657845
v 0.13771454 0.0168300689 -0.0212579165
v 0.140415993 0.0116246759 -0.0211328908
v 0.136205087 0.0124538509 -0.0184098695
v 0.138663069 0.00587299158 -0.0184343939
v 0.141788856 0.00651079174 -0.0210466591
v 0.142324448 0.000274417317 -0.0209498161
v 0.0987664445 0.00225412213 -0.00705413186
v 0.115320669 -0.000146334221 -0.0122788959
v 0.11032254 -0.00831600027 -0.0110908666
v 0.0965009974 -0.00710528213 -0.00649387221
v 0.139154983 -4.11746433e-05 -0.0184231656
v 0.138776401 -0.00592343773 -0.0185031982
v 0.141901547 -0.00612372383 -0.0210856961
v 0.140356402 -0.0117126278 -0.0209831342
v 0.0921148179 -0.0139438729 -0.00598082042
v 0.10645399 -0.0138154524 -0.0107086606
v 0.131869178 -0.0178662712 -0.0183572629
v 0.136087254 -0.0128135257 -0.0183909229
v 0.13747851 -0.016851442 -0.0207029501
v 0.13801926 -0.0165959176 -0.0212702362
v -0.00835831783 -0.0287058654 -0.0337787409
v 0.0144236106 -0.0292418279 -0.0338112703
v -0.00816442221 0.0286218499 -0.033776011
v 0.0184104941 0.0294897721 -0.0338120677
v 0.0413914557 0.0032887943 -0.0338611921
v 0.0305857479 -0.0320445254 -0.0338466838
v 0.0352400267 0.0336575527 -0.0336079858
v 0.0423499269 -0.0359255929 -0.0340126106
v 0.0422465264 0.0357480669 -0.0339770224
v -0.0118552848 0.0283792139 -0.0353278505
v -0.0399963323 -0.0289083435 -0.0353327894
v -0.0117444772 -0.0285836471 -0.035261648
v -0.0363679104 0.0288844222 -0.035339102
v -0.0446086861 0.0277036093 -0.0353246549
v -0.0544193686 0.0222174767 -0.0353106618
v -0.0603244537 0.0154301326 -0.035298508
v -0.0642991223 0.00594010364 -0.0352937204
v -0.0647891543 -0.00348564047 -0.035291558
v -0.0615313928 -0.0134539058 -0.0352957315
v -0.0565432227 -0.0202231159 -0.0353058247
v -0.0502388495 -0.0252178361 -0.035318482
v 0.0438898833 -0.0361719392 -0.0354953983
v 0.0783596919 -0.0369193779 -0.0355342607
v 0.0439604975 0.036177756 -0.0354931282
v 0.0787307942 0.0367462995 -0.035535029
v 0.102903691 0.0351607133 -0.0355767406
v 0.11845268 0.0314731109 -0.0356023083
v 0.128024197 0.0266128448 -0.0356191013
v 0.13396479 0.0215340072 -0.0356293895
v 0.138031096 0.0154689075 -0.0356361445
v 0.140879116 0.00705486231 -0.035640868
v 0.141214696 -0.003849464 -0.0356411183
v 0.140046492 -0.0102714477 -0.0356393313
v 0.137617708 -0.0164147492 -0.0356351025
v 0.131979901 -0.023741799 -0.0356260891
v 0.12115777 -0.0304817145 -0.0356079778
v 0.10645547 -0.0347454153 -0.035582023
v 0.0446974215 -0.0365914942 -0.0286020775
v 0.0458827711 -0.0372388011 -0.0290929223
v 0.0423493361 -0.03637814 -0.029109788
v 0.0786491877 -0.0372526575 -0.029091633
v 0.0840212192 -0.0366360458 -0.028661589
v 0.0962790017 -0.0364087438 -0.0291755568
v 0.106091602 -0.0347204996 -0.0287010072
v 0.109060507 -0.0345995613 -0.0291706179
v 0.121125151 -0.0304523284 -0.0287210569
v 0.117146506 -0.0324354667 -0.029194518
v 0.123640944 -0.0298441221 -0.0291786651
v 0.13179976 -0.0240840499 -0.0287674135
v 0.129172523 -0.0266306892 -0.0292358833
v 0.132912772 -0.0236702443 -0.0292060606
v 0.138604433 -0.0154916221 -0.0287649164
v 0.136921533 -0.0190424497 -0.0292415498
v 0.139837818 -0.0137082208 -0.0292418001
v 0.14186533 -0.00472139069 -0.0287662639
v 0.14151109 -0.0082483908 -0.0292395882
v 0.142309757 -0.00227575249 -0.029300485
v 0.0446974215 -0.0365914942 -0.0286020775
v 0.0423493361 -0.03637814 -0.029109788
v 0.0358391117 -0.034056301 -0.0290896452
v 0.0292908544 -0.0317077592 -0.0285543269
v 0.0265582958 -0.0316871074 -0.0291377626
v 0.0164067282 -0.0299267748 -0.0290705852
v 0.0168442039 -0.0295414313 -0.0285599293
v 0.00492918007 -0.0291103114 -0.0290305441
v 0.0055577984 -0.0287820376 -0.0285302609
v -0.0120709094 -0.0292521126 -0.0290090102
v -0.03416336 -0.0294435334 -0.0284760608
v -0.0355417086 -0.0299916284 -0.0289682765
v -0.0413183272 -0.0288951421 -0.0284554932
v -0.0423098249 -0.0292046091 -0.028941498
v -0.0478208478 -0.0273721538 -0.0289233431
v -0.0480792636 -0.0267158479 -0.0284691952
v -0.0530998551 -0.0242514058 -0.0289160002
v -0.0560278229 -0.0212469449 -0.0284466689
v -0.0590315771 -0.0188407642 -0.0289250223
v -0.0608825752 -0.0151662282 -0.028423217
v -0.0632064523 -0.0116666012 -0.0288874406
v -0.063768855 -0.00842130733 -0.0284227805
v -0.0652715327 -0.00478229474 -0.0288838171
v -0.0651586217 -0.00188068121 -0.0284102833
v -0.0657016005 0.000642159771 -0.0288793934
v -0.0644104677 0.00632306347 -0.0284052163
v -0.0649111933 0.00639949154 -0.028867161
v -0.0627315556 0.012531826 -0.0288882758
v -0.0621602358 0.0126492323 -0.0284145965
v -0.0589297461 0.0188672034 -0.0289120624
v -0.0582253868 0.0188378494 -0.0284223381
v -0.051298926 0.0254176221 -0.0289238465
v -0.0534206766 0.0233463896 -0.0284296257
v -0.0486000144 0.0264162359 -0.0284623733
v -0.0447491471 0.0284454484 -0.0289328978
v -0.0393509919 0.0292526436 -0.0284681533
v -0.0372086561 0.0298745607 -0.0289458054
v 0.141968438 0.0058189606 -0.0292652752
v 0.142309757 -0.00227575249 -0.029300485
v 0.14186533 -0.00472139069 -0.0287662639
v 0.140207062 0.0113347289 -0.0287310599
v 0.139180593 0.0152402344 -0.029220173
v 0.136579956 0.018392083 -0.0287635892
v 0.133499559 0.0229718644 -0.029204553
v 0.130679305 0.0248248978 -0.0287560717
v 0.128853284 0.0267782623 -0.0291992445
v 0.120896611 0.0303936238 -0.0287394912
v 0.122822376 0.030128101 -0.0291969744
v 0.116432432 0.0325683752 -0.0292137207
v 0.105478996 0.0347561033 -0.0287251343
v 0.105581953 0.0351707136 -0.0291384087
v 0.087165579 0.0368889934 -0.0291049946
v 0.0789261275 0.0366459699 -0.0286421244
v 0.0463586879 0.0371354847 -0.0290535972
v 0.0439705994 0.0364224057 -0.0285772141
v 0.0432259779 0.0366131405 -0.0290962023
v 0.0383267178 0.0347543076 -0.0291135191
v 0.0298683766 0.0317825991 -0.0285638467
v 0.0305087539 0.0324923863 -0.0290831144
v 0.0171240597 0.0297638923 -0.0286972674
v -0.0372086561 0.0298745607 -0.0289458054
v 0.00311986374 0.0285129997 -0.0285232964
v -0.0393509919 0.0292526436 -0.0284681533
v -0.0149152951 0.0291929829 -0.0289929303
v 0.00527985031 0.0290272238 -0.0290361437
v 0.0171240597 0.0297638923 -0.0286972674
v 0.0439604975 0.036177756 -0.0354931282
v 0.0428655158 -0.0364038299 -0.0348371395
v 0.0438898833 -0.0361719392 -0.0354953983
v 0.0429408593 0.0364571236 -0.0347905123
v 0.0422465264 0.0357480669 -0.0339770224
v 0.0423499269 -0.0359255929 -0.0340126106
v 0.140879116 0.00705486231 -0.035640868
v 0.141214696 -0.003849464 -0.0356411183
v 0.142247614 0.00334092735 -0.0348356698
v 0.141939568 -0.00642600858 -0.0348261732
v 0.140046492 -0.0102714477 -0.0356393313
v 0.139631623 -0.0144936619 -0.0348147558
v 0.137617708 -0.0164147492 -0.0356351025
v 0.136377199 -0.0201354208 -0.0348103349
v 0.131979901 -0.023741799 -0.0356260891
v 0.132942109 -0.0239792338 -0.0347962719
v 0.12751166 -0.0282582221 -0.0348041125
v 0.12115777 -0.0304817145 -0.0356079778
v 0.118942387 -0.0323315163 -0.034781429
v 0.10645547 -0.0347454153 -0.035582023
v 0.10983829 -0.0349716449 -0.0347503636
v 0.0965087707 -0.0369544231 -0.0347124733
v 0.0783596919 -0.0369193779 -0.0355342607
v 0.0747858522 -0.0379095604 -0.0346896355
v 0.0438898833 -0.0361719392 -0.0354953983
v 0.0453843913 -0.0374745072 -0.0346682908
v 0.0428655158 -0.0364038299 -0.0348371395
v 0.0425283887 -0.0364153638 -0.0337154313
v 0.0423499269 -0.0359255929 -0.0340126106
v 0.142247614 0.00334092735 -0.0348356698
v 0.141221144 0.00944240089 -0.0348275295
v 0.140879116 0.00705486231 -0.035640868
v 0.139707745 0.0141357005 -0.0348200789
v 0.138031096 0.0154689075 -0.0356361445
v 0.136900703 0.0192693147 -0.0348207861
v 0.13396479 0.0215340072 -0.0356293895
v 0.131795739 0.025105517 -0.0347638037
v 0.128024197 0.0266128448 -0.0356191013
v 0.124896734 0.0296092876 -0.0347708235
v 0.11845268 0.0314731109 -0.0356023083
v 0.117823001 0.0326925468 -0.0347513094
v 0.108887101 0.0351029136 -0.0347140769
v 0.102903691 0.0351607133 -0.0355767406
v 0.0954976797 0.0369417594 -0.0346872053
v 0.0787307942 0.0367462995 -0.035535029
v 0.0756855323 0.0377666417 -0.0346610061
v 0.0458782972 0.0374609266 -0.0346608373
v 0.0439604975 0.036177756 -0.0354931282
v 0.0429408593 0.0364571236 -0.0347905123
v 0.0422695213 0.0362550062 -0.0335342105
v 0.0422465264 0.0357480669 -0.0339770224
v 0.0352400267 0.0336575527 -0.0336079858
v -0.0381279908 0.0298738883 -0.0345195323
v -0.0363679104 0.0288844222 -0.035339102
v -0.0118552848 0.0283792139 -0.0353278505
v -0.0116440209 0.0292641362 -0.0345660228
v -0.00989771103 0.0287319991 -0.0340331811
v -0.0088722507 0.0292197153 -0.033385976
v -0.00816442221 0.0286218499 -0.033776011
v 0.00372214673 0.029008344 -0.033377143
v 0.0184104941 0.0294897721 -0.0338120677
v -0.0381279908 0.0298738883 -0.0345195323
v -0.0446086861 0.0277036093 -0.0353246549
v -0.0363679104 0.0288844222 -0.035339102
v -0.0464191859 0.0280257565 -0.0345315173
v -0.0525658972 0.0247123634 -0.0345761015
v -0.0544193686 0.0222174767 -0.0353106618
v -0.0583515985 0.0196794812 -0.0345972832
v -0.0603244537 0.0154301326 -0.035298508
v -0.0617934404 0.0147547373 -0.0345833134
v -0.0651641114 0.00663492987 -0.0345313165
v -0.0642991223 0.00594010364 -0.0352937204
v -0.0658790054 -0.00298363532 -0.0344958768
v -0.0647891543 -0.00348564047 -0.035291558
v -0.0625398929 -0.013642346 -0.0345770299
v -0.0615313928 -0.0134539058 -0.0352957315
v -0.0582354009 -0.0198694812 -0.034596218
v -0.0565432227 -0.0202231159 -0.0353058247
v -0.0533224994 -0.0243041856 -0.0345727371
v -0.0502388495 -0.0252178361 -0.035318482
v -0.0460926215 -0.0282572826 -0.0345550216
v -0.0399963323 -0.0289083435 -0.0353327894
v -0.0373067308 -0.0300112388 -0.0345369015
v -0.0110665151 -0.029226245 -0.0345888024
v -0.0117444772 -0.0285836471 -0.035261648
v -0.0110665151 -0.029226245 -0.0345888024
v -0.0118552848 0.0283792139 -0.0353278505
v -0.0117444772 -0.0285836471 -0.035261648
v -0.00989771103 0.0287319991 -0.0340331811
v -0.00835831783 -0.0287058654 -0.0337787409
v -0.00816442221 0.0286218499 -0.033776011
v 0.0184104941 0.0294897721 -0.0338120677
v 0.0352400267 0.0336575527 -0.0336079858
v 0.0195148797 0.030103476 -0.0334269163
v 0.00372214673 0.029008344 -0.033377143
v -0.00959833376 -0.0293318918 -0.0334221259
v -0.00835831783 -0.0287058654 -0.0337787409
v -0.0110665151 -0.029226245 -0.0345888024
v 0.00644994398 -0.0291352271 -0.0333574077
v 0.0144236106 -0.0292418279 -0.0338112703
v 0.0216128753 -0.0306363984 -0.0334316777
v 0.0305857479 -0.0320445254 -0.0338466838
v 0.035339786 -0.0338617827 -0.0334631797
v 0.0423499269 -0.0359255929 -0.0340126106
v 0.0425283887 -0.0364153638 -0.0337154313
v -0.0372086561 0.0298745607 -0.0289458054
v -0.0447491471 0.0284454484 -0.0289328978
v -0.0381279908 0.0298738883 -0.0345195323
v -0.0464191859 0.0280257565 -0.0345315173
v -0.051298926 0.0254176221 -0.0289238465
v -0.0525658972 0.0247123634 -0.0345761015
v -0.0589297461 0.0188672034 -0.0289120624
v -0.0583515985 0.0196794812 -0.0345972832
v -0.0617934404 0.0147547373 -0.0345833134
v -0.0627315556 0.012531826 -0.0288882758
v -0.0651641114 0.00663492987 -0.0345313165
v -0.0649111933 0.00639949154 -0.028867161
v -0.0657016005 0.000642159771 -0.0288793934
v -0.0658790054 -0.00298363532 -0.0344958768
v -0.0652715327 -0.00478229474 -0.0288838171
v -0.0632064523 -0.0116666012 -0.0288874406
v -0.0625398929 -0.013642346 -0.0345770299
v -0.0590315771 -0.0188407642 -0.0289250223
v -0.0582354009 -0.0198694812 -0.034596218
v -0.0533224994 -0.0243041856 -0.0345727371
v -0.0530998551 -0.0242514058 -0.0289160002
v -0.0478208478 -0.0273721538 -0.0289233431
v -0.0460926215 -0.0282572826 -0.0345550216
v -0.0423098249 -0.0292046091 -0.028941498
v -0.0373067308 -0.0300112388 -0.0345369015
v -0.0355417086 -0.0299916284 -0.0289682765
v -0.0110665151 -0.029226245 -0.0345888024
v -0.0120709094 -0.0292521126 -0.0290090102
v -0.00959833376 -0.0293318918 -0.0334221259
v 0.00492918007 -0.0291103114 -0.0290305441
v 0.00644994398 -0.0291352271 -0.0333574077
v 0.0164067282 -0.0299267748 -0.0290705852
v 0.0216128753 -0.0306363984 -0.0334316777
v 0.0265582958 -0.0316871074 -0.0291377626
v 0.0358391117 -0.034056301 -0.0290896452
v 0.035339786 -0.0338617827 -0.0334631797
v 0.0425283887 -0.0364153638 -0.0337154313
v 0.0423493361 -0.03637814 -0.029109788
v -0.0149152951 0.0291929829 -0.0289929303
v -0.0372086561 0.0298745607 -0.0289458054
v -0.0381279908 0.0298738883 -0.0345195323
v -0.0116440209 0.0292641362 -0.0345660228
v -0.0088722507 0.0292197153 -0.033385976
v 0.00372214673 0.029008344 -0.033377143
v 0.00527985031 0.0290272238 -0.0290361437
v 0.0171240597 0.0297638923 -0.0286972674
v 0.0195148797 0.030103476 -0.0334269163
v 0.0305087539 0.0324923863 -0.0290831144
v 0.0352400267 0.0336575527 -0.0336079858
v 0.0383267178 0.0347543076 -0.0291135191
v 0.0422695213 0.0362550062 -0.0335342105
v 0.0432259779 0.0366131405 -0.0290962023
v 0.0458782972 0.0374609266 -0.0346608373
v 0.0463586879 0.0371354847 -0.0290535972
v 0.0756855323 0.0377666417 -0.0346610061
v 0.087165579 0.0368889934 -0.0291049946
v 0.0954976797 0.0369417594 -0.0346872053
v 0.105581953 0.0351707136 -0.0291384087
v 0.108887101 0.0351029136 -0.0347140769
v 0.116432432 0.0325683752 -0.0292137207
v 0.117823001 0.0326925468 -0.0347513094
v 0.124896734 0.0296092876 -0.0347708235
v 0.122822376 0.030128101 -0.0291969744
v 0.131795739 0.025105517 -0.0347638037
v 0.128853284 0.0267782623 -0.0291992445
v 0.133499559 0.0229718644 -0.029204553
v 0.136900703 0.0192693147 -0.0348207861
v 0.139180593 0.0152402344 -0.029220173
v 0.139707745 0.0141357005 -0.0348200789
v 0.141221144 0.00944240089 -0.0348275295
v 0.141968438 0.0058189606 -0.0292652752
v 0.142247614 0.00334092735 -0.0348356698
v 0.142309757 -0.00227575249 -0.029300485
v 0.0425283887 -0.0364153638 -0.0337154313
v 0.0423493361 -0.03637814 -0.029109788
v 0.0453843913 -0.0374745072 -0.0346682908
v 0.0458827711 -0.0372388011 -0.0290929223
v 0.0747858522 -0.0379095604 -0.0346896355
v 0.0786491877 -0.0372526575 -0.029091633
v 0.0962790017 -0.0364087438 -0.0291755568
v 0.0965087707 -0.0369544231 -0.0347124733
v 0.109060507 -0.0345995613 -0.0291706179
v 0.10983829 -0.0349716449 -0.0347503636
v 0.117146506 -0.0324354667 -0.029194518
v 0.118942387 -0.0323315163 -0.034781429
v 0.123640944 -0.0298441221 -0.0291786651
v 0.12751166 -0.0282582221 -0.0348041125
v 0.129172523 -0.0266306892 -0.0292358833
v 0.132942109 -0.0239792338 -0.0347962719
v 0.132912772 -0.0236702443 -0.0292060606
v 0.136921533 -0.0190424497 -0.0292415498
v 0.136377199 -0.0201354208 -0.0348103349
v 0.139631623 -0.0144936619 -0.0348147558
v 0.139837818 -0.0137082208 -0.0292418001
v 0.14151109 -0.0082483908 -0.0292395882
v 0.141939568 -0.00642600858 -0.0348261732
v 0.142309757 -0.00227575249 -0.029300485
v 0.142247614 0.00334092735 -0.0348356698
v -0.0256398118 0.00884283867 0.0212648825
v -0.0255304555 -0.0100044032 0.0209695427
v -0.0257450443 -0.00477011715 0.0215416847
v -0.0247993257 0.0139484088 0.0188794525
v -0.0232801264 0.0175920848 0.0160067197
v -0.0247734441 -0.0142540062 0.0187805403
v -0.0231911311 -0.0178393433 0.0159534349
v -0.0204809989 0.0207037909 0.0131869572
v -0.0192650604 -0.0217835028 0.0123672202
v -0.0167547847 0.0228961391 0.0111538007
v -0.0105069513 0.0245413326 0.00956106596
v -0.010853017 -0.024677814 0.00959601966
v 0.00792353317 -0.0254790757 0.00824825329
v 0.0112249967 0.0252296925 0.00826143951
v 0.0154639995 -0.0252622952 0.00841810615
v 0.0185933772 0.0245862016 0.00901264139
v 0.0251377883 0.0231715159 0.0109166293
v 0.0220053341 -0.0241350203 0.00987027597
v 0.0314823487 -0.0212020242 0.013834369
v 0.036322286 0.0191946953 0.0162704528
v 0.0371800811 -0.0194178483 0.0165038233
v 0.0388753584 0.019258935 0.0167855076
v 0.0396644915 -0.0172118214 0.018333015
v 0.0383517578 0.0118861525 0.0221978553
v 0.0381339877 -0.0128531417 0.0220110669
v 0.0381440233 0.0134104227 0.0215991953
v 0.0400414674 0.0182059439 0.0170885687
v 0.0399588362 -0.0185715524 0.0170245956
v 0.0399588362 -0.0185715524 0.0170245956
v 0.038647828 -0.0197591154 0.016495341
v 0.0400414674 0.0182059439 0.0170885687
v 0.0388753584 0.019258935 0.0167855076
v 0.0371800811 -0.0194178483 0.0165038233
v 0.0381339877 -0.0128531417 0.0220110669
v 0.0383517578 0.0118861525 0.0221978553
v 0.0398681 0.00490296209 0.023164101
v 0.0400690655 -0.00206814343 0.0232996259
vt 0.619140625 0.595703125
vt 0.620117188 0.596679688
vt 0.618164062 0.595214844
vt 0.618652344 0.594726562
vt 0.619140625 0.595703125
vt 0.618164062 0.595214844
vt 0.615722656 0.591308594
vt 0.611816406 0.590332031
vt 0.610351562 0.5859375
vt 0.609375 0.587402344
vt 0.607910156 0.58203125
vt 0.604980469 0.581054688
vt 0.390380859 0.702148438
vt 0.382080078 0.693847656
vt 0.397460938 0.707519531
vt 0.396484375 0.703613281
vt 0.401123047 0.70703125
vt 0.385742188 0.693359375
vt 0.37890625 0.689941406
vt 0.376953125 0.686035156
vt 0.382568359 0.6875
vt 0.373046875 0.686035156
vt 0.375976562 0.683105469
vt 0.382568359 0.682128906
vt 0.377197266 0.676757812
vt 0.383056641 0.678710938
vt 0.384033203 0.675292969
vt 0.377929688 0.672851562
vt 0.384765625 0.671386719
vt 0.378173828 0.663085938
vt 0.384521484 0.661132812
vt 0.377685547 0.659179688
vt 0.383789062 0.657226562
vt 0.383300781 0.653808594
vt 0.379882812 0.650878906
vt 0.383789062 0.649902344
vt 0.385009766 0.646484375
vt 0.372070312 0.677246094
vt 0.371826172 0.675292969
vt 0.370117188 0.682128906
vt 0.365234375 0.678222656
vt 0.365722656 0.68359375
vt 0.365234375 0.676269531
vt 0.366455078 0.688476562
vt 0.364013672 0.694335938
vt 0.390380859 0.702148438
vt 0.371826172 0.672851562
vt 0.368164062 0.673339844
vt 0.372070312 0.669433594
vt 0.368164062 0.670410156
vt 0.368164062 0.665039062
vt 0.372070312 0.664550781
vt 0.372314453 0.662109375
vt 0.363037109 0.674316406
vt 0.362792969 0.673339844
vt 0.355957031 0.672851562
vt 0.358154297 0.675292969
vt 0.357666016 0.677734375
vt 0.364746094 0.669921875
vt 0.350585938 0.677246094
vt 0.358886719 0.680664062
vt 0.361083984 0.669433594
vt 0.352783203 0.680664062
vt 0.361816406 0.685058594
vt 0.361328125 0.666503906
vt 0.363769531 0.665039062
vt 0.355957031 0.668457031
vt 0.355712891 0.686523438
vt 0.358154297 0.688964844
vt 0.353759766 0.683105469
vt 0.360839844 0.692382812
vt 0.365966797 0.661621094
vt 0.360107422 0.662597656
vt 0.355957031 0.665039062
vt 0.369384766 0.661621094
vt 0.368164062 0.659667969
vt 0.372558594 0.66015625
vt 0.373046875 0.658691406
vt 0.361572266 0.660644531
vt 0.356445312 0.660644531
vt 0.359130859 0.656738281
vt 0.36328125 0.658691406
vt 0.365234375 0.656738281
vt 0.370117188 0.657714844
vt 0.376464844 0.651367188
vt 0.381347656 0.645019531
vt 0.373291016 0.650878906
vt 0.369873047 0.654296875
vt 0.385742188 0.640625
vt 0.387939453 0.642578125
vt 0.400146484 0.628417969
vt 0.401123047 0.630859375
vt 0.365722656 0.653320312
vt 0.365966797 0.650390625
vt 0.361083984 0.65234375
vt 0.375244141 0.641113281
vt 0.375488281 0.647949219
vt 0.369140625 0.647460938
vt 0.389160156 0.630371094
vt 0.400146484 0.628417969
vt 0.39453125 0.625
vt 0.386230469 0.623046875
vt 0.365478516 0.641601562
vt 0.358398438 0.638671875
vt 0.374267578 0.615722656
vt 0.350830078 0.635253906
vt 0.347167969 0.639160156
vt 0.362548828 0.642578125
vt 0.359619141 0.645996094
vt 0.354248047 0.641113281
vt 0.351318359 0.64453125
vt 0.343017578 0.644042969
vt 0.357666016 0.648925781
vt 0.348632812 0.647949219
vt 0.340087891 0.6484375
vt 0.355224609 0.65234375
vt 0.346191406 0.651855469
vt 0.337402344 0.653808594
vt 0.352783203 0.654296875
vt 0.351806641 0.657714844
vt 0.344482422 0.655761719
vt 0.350830078 0.661132812
vt 0.343017578 0.659667969
vt 0.335693359 0.659179688
vt 0.350097656 0.665039062
vt 0.342041016 0.664550781
vt 0.334960938 0.6640625
vt 0.349121094 0.66796875
vt 0.341064453 0.667480469
vt 0.334716797 0.669921875
vt 0.351806641 0.669433594
vt 0.349121094 0.671386719
vt 0.342041016 0.671386719
vt 0.335449219 0.675292969
vt 0.350097656 0.674316406
vt 0.342529297 0.675292969
vt 0.336425781 0.6796875
vt 0.34375 0.6796875
vt 0.338134766 0.684082031
vt 0.345458984 0.683105469
vt 0.341064453 0.689941406
vt 0.347412109 0.687011719
vt 0.349853516 0.690429688
vt 0.345458984 0.695800781
vt 0.352539062 0.693847656
vt 0.355712891 0.696777344
vt 0.349609375 0.700683594
vt 0.368652344 0.718261719
vt 0.384277344 0.7109375
vt 0.390380859 0.709960938
vt 0.397460938 0.707519531
vt 0.661132812 0.581054688
vt 0.657226562 0.583984375
vt 0.659667969 0.579101562
vt 0.657714844 0.586425781
vt 0.653808594 0.587890625
vt 0.654296875 0.58984375
vt 0.650878906 0.592773438
vt 0.647949219 0.594726562
vt 0.646972656 0.594238281
vt 0.645996094 0.596191406
vt 0.196044922 0.00596618652
vt 0.196289062 0.000571727753
vt 0.196411133 0.00311660767
vt 0.196777344 0.0373535156
vt 0.196411133 0.0368347168
vt 0.196655273 0.0463562012
vt 0.197143555 0.0490722656
vt 0.196533203 0.0561218262
vt 0.196777344 0.0597839355
vt 0.195922852 0.0654296875
vt 0.1953125 0.0733032227
vt 0.195068359 0.0718994141
vt 0.194824219 0.0755004883
vt 0.194702148 0.105224609
vt 0.194335938 0.113647461
vt 0.194580078 0.12512207
vt 0.194213867 0.121520996
vt 0.194458008 0.127807617
vt 0.194824219 0.133422852
vt 0.19543457 0.13659668
vt 0.19543457 0.138916016
vt 0.196044922 0.142944336
vt 0.196411133 0.143676758
vt 0.196411133 0.147094727
vt 0.197021484 0.150146484
vt 0.197265625 0.149414062
vt 0.197387695 0.153442383
vt 0.197631836 0.153686523
vt 0.196899414 0.157104492
vt 0.197265625 0.163818359
vt 0.196899414 0.161010742
vt 0.197265625 0.164916992
vt 0.301513672 0.0068321228
vt 0.303710938 0.0123825073
vt 0.300048828 0.00520324707
vt 0.3046875 0.0132446289
vt 0.306396484 0.0174102783
vt 0.305419922 0.0162658691
vt 0.307617188 0.0207061768
vt 0.308837891 0.0226287842
vt 0.309082031 0.0260620117
vt 0.309814453 0.027633667
vt 0.309570312 0.0311126709
vt 0.310302734 0.0327453613
vt 0.309570312 0.0378723145
vt 0.309326172 0.0370483398
vt 0.308837891 0.0414733887
vt 0.309082031 0.042755127
vt 0.308349609 0.0458679199
vt 0.30859375 0.0460205078
vt 0.308349609 0.0503234863
vt 0.308837891 0.0494384766
vt 0.309082031 0.0552368164
vt 0.30859375 0.0569763184
vt 0.308349609 0.061340332
vt 0.307861328 0.0615234375
vt 0.306640625 0.0662231445
vt 0.307128906 0.0665893555
vt 0.300048828 0.0884399414
vt 0.298828125 0.0919189453
vt 0.297607422 0.0990600586
vt 0.297119141 0.0989379883
vt 0.295654297 0.106567383
vt 0.296386719 0.105102539
vt 0.295166016 0.112060547
vt 0.294677734 0.11529541
vt 0.295166016 0.114562988
vt 0.294433594 0.116516113
vt 0.762695312 0.647949219
vt 0.76171875 0.651855469
vt 0.762207031 0.648925781
vt 0.76171875 0.655273438
vt 0.761230469 0.65625
vt 0.760253906 0.662597656
vt 0.760253906 0.66015625
vt 0.759765625 0.664550781
vt 0.760253906 0.668945312
vt 0.760253906 0.670898438
vt 0.760253906 0.675292969
vt 0.761230469 0.681152344
vt 0.760742188 0.679199219
vt 0.761230469 0.686035156
vt 0.762207031 0.694824219
vt 0.762695312 0.695800781
vt 0.764160156 0.720703125
vt 0.764648438 0.722167969
vt 0.684570312 0.583496094
vt 0.681640625 0.591796875
vt 0.673339844 0.581054688
vt 0.670898438 0.591796875
vt 0.678710938 0.600097656
vt 0.666503906 0.582519531
vt 0.672363281 0.602050781
vt 0.676269531 0.608398438
vt 0.668457031 0.601074219
vt 0.670410156 0.607421875
vt 0.674316406 0.61328125
vt 0.670898438 0.612304688
vt 0.673828125 0.616210938
vt 0.665039062 0.592773438
vt 0.661132812 0.581054688
vt 0.665039062 0.602539062
vt 0.657714844 0.586425781
vt 0.662109375 0.606445312
vt 0.654296875 0.58984375
vt 0.664550781 0.638671875
vt 0.662597656 0.646972656
vt 0.658691406 0.643066406
vt 0.655273438 0.653808594
vt 0.659667969 0.65625
vt 0.65234375 0.66015625
vt 0.656738281 0.662597656
vt 0.654296875 0.668457031
vt 0.649902344 0.665527344
vt 0.646972656 0.670410156
vt 0.651367188 0.672851562
vt 0.647949219 0.677246094
vt 0.64453125 0.673339844
vt 0.642089844 0.676269531
vt 0.645019531 0.680175781
vt 0.642089844 0.682617188
vt 0.639648438 0.678222656
vt 0.636230469 0.6796875
vt 0.637695312 0.684570312
vt 0.633789062 0.685546875
vt 0.633300781 0.680175781
vt 0.629882812 0.680175781
vt 0.629394531 0.686035156
vt 0.625976562 0.680175781
vt 0.624511719 0.685058594
vt 0.623046875 0.678710938
vt 0.62109375 0.684082031
vt 0.620117188 0.677734375
vt 0.617675781 0.682128906
vt 0.614257812 0.679199219
vt 0.6171875 0.675292969
vt 0.611328125 0.67578125
vt 0.615234375 0.672363281
vt 0.612792969 0.668945312
vt 0.608398438 0.671386719
vt 0.611328125 0.665527344
vt 0.60546875 0.666015625
vt 0.609375 0.661132812
vt 0.604003906 0.660644531
vt 0.606445312 0.651855469
vt 0.6015625 0.654296875
vt 0.604003906 0.643066406
vt 0.598632812 0.644042969
vt 0.601074219 0.6328125
vt 0.590820312 0.615234375
vt 0.59375 0.610839844
vt 0.590332031 0.612792969
vt 0.594726562 0.605957031
vt 0.599609375 0.602539062
vt 0.589355469 0.609375
vt 0.596679688 0.601074219
vt 0.598144531 0.614746094
vt 0.601074219 0.6328125
vt 0.592285156 0.602050781
vt 0.594726562 0.592773438
vt 0.586914062 0.599609375
vt 0.584960938 0.592773438
vt 0.599121094 0.593261719
vt 0.587402344 0.588867188
vt 0.581542969 0.580566406
vt 0.595214844 0.579101562
vt 0.599609375 0.580566406
vt 0.604980469 0.581054688
vt 0.609375 0.587402344
vt 0.603515625 0.60546875
vt 0.61328125 0.595703125
vt 0.611816406 0.590332031
vt 0.618164062 0.595214844
vt 0.61328125 0.612792969
vt 0.620117188 0.596679688
vt 0.604492188 0.619628906
vt 0.602539062 0.62890625
vt 0.606445312 0.642089844
vt 0.604003906 0.643066406
vt 0.606445312 0.651855469
vt 0.610351562 0.63671875
vt 0.61328125 0.627929688
vt 0.6171875 0.615234375
vt 0.615234375 0.630371094
vt 0.612792969 0.640625
vt 0.609375 0.651367188
vt 0.611816406 0.659179688
vt 0.609375 0.661132812
vt 0.611328125 0.665527344
vt 0.614257812 0.65234375
vt 0.616699219 0.636230469
vt 0.619628906 0.624511719
vt 0.614257812 0.664550781
vt 0.612792969 0.668945312
vt 0.620117188 0.634765625
vt 0.618164062 0.653808594
vt 0.616699219 0.669921875
vt 0.615234375 0.672363281
vt 0.6171875 0.675292969
vt 0.618652344 0.607421875
vt 0.621582031 0.610839844
vt 0.623535156 0.620605469
vt 0.623535156 0.601074219
vt 0.62109375 0.595703125
vt 0.624511719 0.59375
vt 0.625488281 0.608886719
vt 0.629882812 0.602539062
vt 0.631347656 0.594726562
vt 0.637695312 0.600585938
vt 0.635742188 0.594238281
vt 0.640136719 0.59375
vt 0.631835938 0.610351562
vt 0.627929688 0.623046875
vt 0.626464844 0.63671875
vt 0.642578125 0.602539062
vt 0.641113281 0.59375
vt 0.638183594 0.609375
vt 0.634277344 0.618652344
vt 0.635742188 0.627441406
vt 0.641113281 0.6171875
vt 0.645996094 0.607910156
vt 0.645019531 0.596679688
vt 0.649414062 0.613769531
vt 0.645507812 0.61328125
vt 0.643066406 0.622558594
vt 0.640136719 0.63671875
vt 0.649414062 0.629394531
vt 0.647460938 0.632324219
vt 0.633789062 0.637695312
vt 0.647949219 0.596679688
vt 0.645996094 0.596191406
vt 0.647949219 0.594726562
vt 0.650878906 0.592773438
vt 0.64453125 0.635742188
vt 0.656738281 0.609863281
vt 0.66015625 0.618652344
vt 0.655761719 0.628417969
vt 0.650878906 0.640625
vt 0.647460938 0.650390625
vt 0.666015625 0.616210938
vt 0.661132812 0.629394531
vt 0.6640625 0.626953125
vt 0.658691406 0.643066406
vt 0.65625 0.644042969
vt 0.655273438 0.653808594
vt 0.65234375 0.652832031
vt 0.648925781 0.660644531
vt 0.65234375 0.66015625
vt 0.649902344 0.665527344
vt 0.64453125 0.651855469
vt 0.645996094 0.666015625
vt 0.646972656 0.670410156
vt 0.642089844 0.652832031
vt 0.643066406 0.671386719
vt 0.64453125 0.673339844
vt 0.642089844 0.676269531
vt 0.638671875 0.654785156
vt 0.639648438 0.674316406
vt 0.638183594 0.64453125
vt 0.635253906 0.657226562
vt 0.639160156 0.677734375
vt 0.639648438 0.678222656
vt 0.636230469 0.6796875
vt 0.63671875 0.676269531
vt 0.6328125 0.677246094
vt 0.633300781 0.680175781
vt 0.629882812 0.680175781
vt 0.632324219 0.647460938
vt 0.630371094 0.660644531
vt 0.625488281 0.656738281
vt 0.626464844 0.645507812
vt 0.629394531 0.677734375
vt 0.626464844 0.677246094
vt 0.625976562 0.680175781
vt 0.623046875 0.678710938
vt 0.621582031 0.642089844
vt 0.621582031 0.653808594
vt 0.619628906 0.672851562
vt 0.622558594 0.675292969
vt 0.620117188 0.677246094
vt 0.620117188 0.677734375
vt 0.156860352 0.394042969
vt 0.174560547 0.393554688
vt 0.157348633 0.431640625
vt 0.177978516 0.432128906
vt 0.195678711 0.414550781
vt 0.187011719 0.391601562
vt 0.191040039 0.434570312
vt 0.196166992 0.388916016
vt 0.196533203 0.436035156
vt 0.154174805 0.431396484
vt 0.131958008 0.394042969
vt 0.153930664 0.394042969
vt 0.135253906 0.431884766
vt 0.12878418 0.431152344
vt 0.121154785 0.427734375
vt 0.116516113 0.423095703
vt 0.11340332 0.416992188
vt 0.112976074 0.410888672
vt 0.11541748 0.404296875
vt 0.119262695 0.399658203
vt 0.124084473 0.396484375
vt 0.197875977 0.388671875
vt 0.224609375 0.387939453
vt 0.198364258 0.436279297
vt 0.225341797 0.436523438
vt 0.244018555 0.435302734
vt 0.256103516 0.432861328
vt 0.263427734 0.429443359
vt 0.268066406 0.426269531
vt 0.271240234 0.422119141
vt 0.2734375 0.416503906
vt 0.2734375 0.409423828
vt 0.272460938 0.405273438
vt 0.270751953 0.401123047
vt 0.266357422 0.396484375
vt 0.2578125 0.392089844
vt 0.246337891 0.389404297
vt 0.764648438 0.722167969
vt 0.765136719 0.721191406
vt 0.765136719 0.724121094
vt 0.763671875 0.699707031
vt 0.762695312 0.695800781
vt 0.762207031 0.687988281
vt 0.761230469 0.681152344
vt 0.761230469 0.679199219
vt 0.760253906 0.670898438
vt 0.761230469 0.674316406
vt 0.761230469 0.668945312
vt 0.760253906 0.662597656
vt 0.761230469 0.665039062
vt 0.761230469 0.661621094
vt 0.76171875 0.655273438
vt 0.76171875 0.658203125
vt 0.762207031 0.653808594
vt 0.762695312 0.647949219
vt 0.762695312 0.650390625
vt 0.763183594 0.646484375
vt 0.294677734 0.11529541
vt 0.294189453 0.114013672
vt 0.294921875 0.110168457
vt 0.295654297 0.106567383
vt 0.295410156 0.105041504
vt 0.296630859 0.0986328125
vt 0.297119141 0.0989379883
vt 0.298339844 0.0914306641
vt 0.298828125 0.0919189453
vt 0.301757812 0.0803222656
vt 0.306640625 0.0662231445
vt 0.306396484 0.0653076172
vt 0.307861328 0.0615234375
vt 0.307373047 0.0608825684
vt 0.308105469 0.0573120117
vt 0.30859375 0.0569763184
vt 0.307861328 0.0532226562
vt 0.308349609 0.0503234863
vt 0.307861328 0.048034668
vt 0.308349609 0.0458679199
vt 0.308105469 0.0434875488
vt 0.308837891 0.0414733887
vt 0.30859375 0.0390014648
vt 0.309326172 0.0370483398
vt 0.308837891 0.03515625
vt 0.309570312 0.0311126709
vt 0.309082031 0.0311737061
vt 0.30859375 0.0264282227
vt 0.309082031 0.0260620117
vt 0.307128906 0.021194458
vt 0.307617188 0.0207061768
vt 0.304199219 0.0144424438
vt 0.305419922 0.0162658691
vt 0.303710938 0.0123825073
vt 0.301269531 0.00941467285
vt 0.300048828 0.00520324707
vt 0.298828125 0.00361251831
vt 0.198120117 0.157348633
vt 0.197753906 0.162353516
vt 0.197265625 0.163818359
vt 0.197631836 0.153686523
vt 0.197753906 0.151611328
vt 0.197265625 0.149414062
vt 0.197143555 0.145874023
vt 0.196411133 0.143676758
vt 0.196533203 0.141967773
vt 0.19543457 0.13659668
vt 0.196044922 0.137817383
vt 0.195678711 0.1328125
vt 0.194580078 0.12512207
vt 0.194946289 0.12512207
vt 0.195068359 0.111877441
vt 0.194702148 0.105224609
vt 0.195800781 0.0758056641
vt 0.1953125 0.0733032227
vt 0.195922852 0.0726318359
vt 0.196411133 0.0676269531
vt 0.196777344 0.0597839355
vt 0.197265625 0.0604858398
vt 0.197143555 0.0490722656
vt 0.197021484 0.0048789978
vt 0.196777344 0.0373535156
vt 0.196411133 0.00311660767
vt 0.197143555 0.0228424072
vt 0.197265625 0.0391235352
vt 0.197143555 0.0490722656
vt 0.198364258 0.436279297
vt 0.196899414 0.388671875
vt 0.197875977 0.388671875
vt 0.197387695 0.436523438
vt 0.196533203 0.436035156
vt 0.196166992 0.388916016
vt 0.770996094 0.640625
vt 0.768554688 0.647949219
vt 0.769042969 0.643066406
vt 0.767089844 0.649414062
vt 0.767578125 0.65234375
vt 0.766113281 0.654785156
vt 0.767089844 0.65625
vt 0.765625 0.658691406
vt 0.766601562 0.662597656
vt 0.765625 0.662109375
vt 0.765136719 0.666503906
vt 0.766113281 0.670898438
vt 0.765625 0.672851562
vt 0.767089844 0.680664062
vt 0.765625 0.678222656
vt 0.766601562 0.6875
vt 0.769042969 0.69921875
vt 0.768066406 0.701660156
vt 0.770996094 0.722167969
vt 0.76953125 0.721191406
vt 0.770507812 0.723144531
vt 0.76953125 0.723632812
vt 0.770019531 0.723632812
vt 0.201293945 0.158813477
vt 0.200805664 0.154785156
vt 0.201660156 0.15612793
vt 0.200561523 0.151977539
vt 0.201171875 0.150634766
vt 0.200195312 0.1484375
vt 0.200683594 0.146118164
vt 0.199707031 0.143676758
vt 0.200195312 0.141357422
vt 0.19934082 0.138671875
vt 0.199829102 0.134033203
vt 0.19909668 0.133422852
vt 0.198608398 0.127197266
vt 0.19921875 0.12322998
vt 0.198486328 0.117858887
vt 0.199951172 0.104797363
vt 0.19921875 0.102233887
vt 0.200195312 0.0758666992
vt 0.201293945 0.0741577148
vt 0.200683594 0.0731201172
vt 0.199829102 0.0721435547
vt 0.200317383 0.0719604492
vt 0.200073242 0.0649414062
vt 0.200805664 0.00416564941
vt 0.201660156 0.0055847168
vt 0.201538086 0.0250396729
vt 0.200805664 0.0251617432
vt 0.200683594 0.0266265869
vt 0.200195312 0.0274505615
vt 0.200683594 0.0280456543
vt 0.200561523 0.0377807617
vt 0.201049805 0.0501403809
vt 0.293457031 0.00660324097
vt 0.296142578 0.0120849609
vt 0.291259766 0.00622940063
vt 0.297607422 0.0126495361
vt 0.300292969 0.0169830322
vt 0.300292969 0.0192108154
vt 0.302246094 0.0218505859
vt 0.302246094 0.0250244141
vt 0.303466797 0.0257110596
vt 0.304443359 0.0313720703
vt 0.303466797 0.0317993164
vt 0.304443359 0.0376281738
vt 0.303466797 0.0380554199
vt 0.303710938 0.0445861816
vt 0.302978516 0.0447692871
vt 0.303710938 0.049041748
vt 0.302734375 0.049987793
vt 0.303955078 0.0532226562
vt 0.302978516 0.0551452637
vt 0.303710938 0.0582275391
vt 0.302246094 0.0617980957
vt 0.302734375 0.063659668
vt 0.297363281 0.080078125
vt 0.296875 0.0794677734
vt 0.154663086 0.393554688
vt 0.154174805 0.431396484
vt 0.153930664 0.394042969
vt 0.156005859 0.431640625
vt 0.156860352 0.394042969
vt 0.157348633 0.431640625
vt 0.201049805 0.0501403809
vt 0.200073242 0.0649414062
vt 0.200561523 0.0511474609
vt 0.200561523 0.0377807617
vt 0.297851562 0.081237793
vt 0.297119141 0.0819702148
vt 0.297363281 0.080078125
vt 0.294921875 0.0918579102
vt 0.293212891 0.0969848633
vt 0.292724609 0.101623535
vt 0.291748047 0.106933594
vt 0.291748047 0.109802246
vt 0.291259766 0.113830566
vt 0.291503906 0.114013672
vt 0.298828125 0.00361251831
vt 0.301269531 0.00941467285
vt 0.293457031 0.00660324097
vt 0.297607422 0.0126495361
vt 0.304199219 0.0144424438
vt 0.300292969 0.0169830322
vt 0.307128906 0.021194458
vt 0.302246094 0.0218505859
vt 0.303466797 0.0257110596
vt 0.30859375 0.0264282227
vt 0.304443359 0.0313720703
vt 0.309082031 0.0311737061
vt 0.308837891 0.03515625
vt 0.304443359 0.0376281738
vt 0.30859375 0.0390014648
vt 0.308105469 0.0434875488
vt 0.303710938 0.0445861816
vt 0.307861328 0.048034668
vt 0.303710938 0.049041748
vt 0.303955078 0.0532226562
vt 0.307861328 0.0532226562
vt 0.308105469 0.0573120117
vt 0.303710938 0.0582275391
vt 0.307373047 0.0608825684
vt 0.302734375 0.063659668
vt 0.306396484 0.0653076172
vt 0.297363281 0.080078125
vt 0.301757812 0.0803222656
vt 0.297851562 0.081237793
vt 0.298339844 0.0914306641
vt 0.294921875 0.0918579102
vt 0.296630859 0.0986328125
vt 0.292724609 0.101623535
vt 0.295410156 0.105041504
vt 0.294921875 0.110168457
vt 0.291748047 0.109802246
vt 0.291503906 0.114013672
vt 0.294189453 0.114013672
vt 0.197143555 0.0228424072
vt 0.197021484 0.0048789978
vt 0.200805664 0.00416564941
vt 0.200805664 0.0251617432
vt 0.200195312 0.0274505615
vt 0.200561523 0.0377807617
vt 0.197265625 0.0391235352
vt 0.197143555 0.0490722656
vt 0.200561523 0.0511474609
vt 0.197265625 0.0604858398
vt 0.200073242 0.0649414062
vt 0.196411133 0.0676269531
vt 0.199829102 0.0721435547
vt 0.195922852 0.0726318359
vt 0.200195312 0.0758666992
vt 0.195800781 0.0758056641
vt 0.19921875 0.102233887
vt 0.195068359 0.111877441
vt 0.198486328 0.117858887
vt 0.194946289 0.12512207
vt 0.198608398 0.127197266
vt 0.195678711 0.1328125
vt 0.19909668 0.133422852
vt 0.19934082 0.138671875
vt 0.196044922 0.137817383
vt 0.199707031 0.143676758
vt 0.196533203 0.141967773
vt 0.197143555 0.145874023
vt 0.200195312 0.1484375
vt 0.197753906 0.151611328
vt 0.200561523 0.151977539
vt 0.200805664 0.154785156
vt 0.198120117 0.157348633
vt 0.201293945 0.158813477
vt 0.197753906 0.162353516
vt 0.76953125 0.723632812
vt 0.765136719 0.724121094
vt 0.76953125 0.721191406
vt 0.765136719 0.721191406
vt 0.768066406 0.701660156
vt 0.763671875 0.699707031
vt 0.762207031 0.687988281
vt 0.766601562 0.6875
vt 0.761230469 0.679199219
vt 0.765625 0.678222656
vt 0.761230469 0.674316406
vt 0.765625 0.672851562
vt 0.761230469 0.668945312
vt 0.765136719 0.666503906
vt 0.761230469 0.665039062
vt 0.765625 0.662109375
vt 0.761230469 0.661621094
vt 0.76171875 0.658203125
vt 0.765625 0.658691406
vt 0.766113281 0.654785156
vt 0.762207031 0.653808594
vt 0.762695312 0.650390625
vt 0.767089844 0.649414062
vt 0.763183594 0.646484375
vt 0.769042969 0.643066406
vt 0.866699219 0.126342773
vt 0.854492188 0.126464844
vt 0.857910156 0.125976562
vt 0.870117188 0.128295898
vt 0.872558594 0.130859375
vt 0.8515625 0.128295898
vt 0.849121094 0.130737305
vt 0.874511719 0.133911133
vt 0.846191406 0.134887695
vt 0.875488281 0.137207031
vt 0.876464844 0.142211914
vt 0.844238281 0.141723633
vt 0.843261719 0.15625
vt 0.876953125 0.159057617
vt 0.843261719 0.162109375
vt 0.875976562 0.164794922
vt 0.875 0.170043945
vt 0.844238281 0.167358398
vt 0.845703125 0.175292969
vt 0.872070312 0.1796875
vt 0.846679688 0.180175781
vt 0.872070312 0.181640625
vt 0.848144531 0.18347168
vt 0.8671875 0.186889648
vt 0.851074219 0.186645508
vt 0.868164062 0.186401367
vt 0.871582031 0.182617188
vt 0.847167969 0.182495117
vt 0.847167969 0.182495117
vt 0.846679688 0.181396484
vt 0.871582031 0.182617188
vt 0.872070312 0.181640625
vt 0.846679688 0.180175781
vt 0.851074219 0.186645508
vt 0.8671875 0.186889648
vt 0.862792969 0.188232422
vt 0.857910156 0.188476562
f 3/3 2/2 1/1
f 6/6 5/5 4/4
f 6/6 4/4 7/7
f 6/6 7/7 8/8
f 7/7 9/9 8/8
f 9/9 10/10 8/8
f 10/10 9/9 11/11
f 12/12 10/10 11/11
f 15/15 14/14 13/13
f 14/14 15/15 16/16
f 15/15 17/17 16/16
f 14/14 16/16 18/18
f 14/14 18/18 19/19
f 18/18 20/20 19/19
f 18/18 21/21 20/20
f 19/19 20/20 22/22
f 14/14 19/19 22/22
f 20/20 21/21 23/23
f 20/20 23/23 22/22
f 21/21 24/24 23/23
f 25/25 23/23 24/24
f 25/25 24/24 26/26
f 26/26 27/27 25/25
f 27/27 28/28 25/25
f 27/27 29/29 28/28
f 29/29 30/30 28/28
f 31/31 30/30 29/29
f 31/31 32/32 30/30
f 31/31 33/33 32/32
f 33/33 34/34 32/32
f 34/34 35/35 32/32
f 34/34 36/36 35/35
f 36/36 37/37 35/35
f 38/38 23/23 25/25
f 28/28 39/39 25/25
f 39/39 38/38 25/25
f 23/23 38/38 40/40
f 23/23 40/40 22/22
f 38/38 41/41 40/40
f 22/22 40/40 42/42
f 42/42 40/40 41/41
f 38/38 39/39 43/43
f 38/38 43/43 41/41
f 44/44 22/22 42/42
f 14/14 22/22 44/44
f 14/14 44/44 45/45
f 14/14 45/45 46/46
f 28/28 47/47 39/39
f 39/39 48/48 43/43
f 39/39 47/47 48/48
f 28/28 49/49 47/47
f 30/30 49/49 28/28
f 47/47 50/50 48/48
f 49/49 50/50 47/47
f 51/51 50/50 49/49
f 30/30 52/52 49/49
f 52/52 51/51 49/49
f 53/53 52/52 30/30
f 51/51 52/52 53/53
f 30/30 32/32 53/53
f 43/43 48/48 54/54
f 50/50 55/55 48/48
f 55/55 54/54 48/48
f 55/55 56/56 54/54
f 54/54 56/56 57/57
f 43/43 54/54 58/58
f 54/54 57/57 58/58
f 43/43 58/58 41/41
f 50/50 59/59 55/55
f 51/51 59/59 50/50
f 56/56 60/60 57/57
f 58/58 57/57 60/60
f 61/61 41/41 58/58
f 42/42 41/41 61/61
f 62/62 56/56 55/55
f 59/59 62/62 55/55
f 63/63 58/58 60/60
f 63/63 61/61 58/58
f 64/64 42/42 61/61
f 44/44 42/42 64/64
f 62/62 59/59 65/65
f 51/51 66/66 59/59
f 66/66 65/65 59/59
f 67/67 56/56 62/62
f 67/67 62/62 65/65
f 64/64 61/61 68/68
f 44/44 64/64 69/69
f 68/68 69/69 64/64
f 63/63 70/70 61/61
f 70/70 68/68 61/61
f 71/71 44/44 69/69
f 71/71 45/45 44/44
f 72/72 66/66 51/51
f 66/66 73/73 65/65
f 72/72 73/73 66/66
f 74/74 67/67 65/65
f 73/73 74/74 65/65
f 75/75 72/72 51/51
f 72/72 75/75 76/76
f 51/51 53/53 75/75
f 77/77 75/75 53/53
f 77/77 76/76 75/75
f 77/77 53/53 32/32
f 78/78 77/77 32/32
f 77/77 78/78 76/76
f 78/78 32/32 35/35
f 72/72 79/79 73/73
f 72/72 76/76 79/79
f 73/73 80/80 74/74
f 73/73 79/79 80/80
f 79/79 81/81 80/80
f 79/79 76/76 82/82
f 79/79 82/82 81/81
f 76/76 83/83 82/82
f 82/82 83/83 81/81
f 78/78 84/84 76/76
f 76/76 84/84 83/83
f 85/85 78/78 35/35
f 78/78 85/85 84/84
f 86/86 85/85 35/35
f 86/86 35/35 37/37
f 85/85 87/87 84/84
f 85/85 86/86 87/87
f 84/84 88/88 83/83
f 87/87 88/88 84/84
f 89/89 86/86 37/37
f 89/89 37/37 90/90
f 90/90 91/91 89/89
f 91/91 90/90 92/92
f 93/93 83/83 88/88
f 94/94 93/93 88/88
f 94/94 88/88 87/87
f 83/83 93/93 95/95
f 93/93 94/94 95/95
f 83/83 95/95 81/81
f 86/86 89/89 96/96
f 86/86 97/97 87/87
f 86/86 96/96 97/97
f 98/98 87/87 97/97
f 98/98 94/94 87/87
f 96/96 98/98 97/97
f 96/96 89/89 99/99
f 100/100 99/99 89/89
f 100/100 101/101 99/99
f 101/101 102/102 99/99
f 96/96 99/99 103/103
f 102/102 103/103 99/99
f 96/96 103/103 98/98
f 102/102 104/104 103/103
f 102/102 105/105 104/104
f 104/104 105/105 106/106
f 104/104 106/106 107/107
f 98/98 103/103 108/108
f 108/108 103/103 104/104
f 94/94 98/98 109/109
f 98/98 108/108 109/109
f 108/108 104/104 110/110
f 104/104 107/107 110/110
f 108/108 110/110 109/109
f 111/111 110/110 107/107
f 110/110 111/111 109/109
f 112/112 111/111 107/107
f 94/94 109/109 113/113
f 111/111 113/113 109/109
f 95/95 94/94 113/113
f 112/112 114/114 111/111
f 113/113 111/111 114/114
f 112/112 115/115 114/114
f 95/95 113/113 116/116
f 116/116 113/113 114/114
f 81/81 95/95 116/116
f 115/115 117/117 114/114
f 118/118 117/117 115/115
f 119/119 116/116 114/114
f 81/81 116/116 119/119
f 119/119 114/114 117/117
f 81/81 119/119 120/120
f 119/119 117/117 120/120
f 80/80 81/81 120/120
f 118/118 121/121 117/117
f 121/121 120/120 117/117
f 80/80 120/120 122/122
f 122/122 120/120 121/121
f 80/80 122/122 74/74
f 118/118 123/123 121/121
f 122/122 121/121 123/123
f 118/118 124/124 123/123
f 122/122 125/125 74/74
f 122/122 123/123 125/125
f 124/124 126/126 123/123
f 126/126 125/125 123/123
f 127/127 126/126 124/124
f 74/74 125/125 128/128
f 126/126 128/128 125/125
f 74/74 128/128 67/67
f 126/126 127/127 129/129
f 128/128 126/126 129/129
f 127/127 130/130 129/129
f 131/131 67/67 128/128
f 67/67 131/131 56/56
f 131/131 128/128 132/132
f 132/132 128/128 129/129
f 131/131 132/132 56/56
f 130/130 133/133 129/129
f 132/132 129/129 133/133
f 133/133 130/130 134/134
f 56/56 132/132 135/135
f 135/135 132/132 133/133
f 56/56 135/135 60/60
f 136/136 133/133 134/134
f 135/135 133/133 136/136
f 60/60 135/135 136/136
f 137/137 136/136 134/134
f 60/60 136/136 138/138
f 137/137 138/138 136/136
f 63/63 60/60 138/138
f 138/138 137/137 139/139
f 63/63 138/138 140/140
f 140/140 138/138 139/139
f 63/63 140/140 70/70
f 140/140 139/139 141/141
f 140/140 142/142 70/70
f 142/142 140/140 141/141
f 68/68 70/70 142/142
f 141/141 143/143 142/142
f 68/68 142/142 143/143
f 68/68 143/143 69/69
f 141/141 144/144 143/143
f 145/145 69/69 143/143
f 144/144 145/145 143/143
f 71/71 69/69 145/145
f 144/144 146/146 145/145
f 71/71 145/145 146/146
f 144/144 147/147 146/146
f 146/146 147/147 148/148
f 146/146 45/45 71/71
f 146/146 148/148 149/149
f 146/146 149/149 45/45
f 149/149 46/46 45/45
f 149/149 150/150 46/46
f 151/151 46/46 150/150
f 154/154 153/153 152/152
f 155/155 152/152 153/153
f 153/153 156/156 155/155
f 156/156 157/157 155/155
f 156/156 158/158 157/157
f 156/156 159/159 158/158
f 156/156 160/160 159/159
f 160/160 161/161 159/159
f 164/164 163/163 162/162
f 162/162 165/165 164/164
f 162/162 166/166 165/165
f 166/166 167/167 165/165
f 167/167 168/168 165/165
f 167/167 169/169 168/168
f 169/169 170/170 168/168
f 170/170 169/169 171/171
f 172/172 170/170 171/171
f 172/172 171/171 173/173
f 173/173 174/174 172/172
f 175/175 172/172 174/174
f 175/175 174/174 176/176
f 177/177 175/175 176/176
f 177/177 176/176 178/178
f 178/178 179/179 177/177
f 179/179 180/180 177/177
f 180/180 181/181 177/177
f 180/180 182/182 181/181
f 181/181 182/182 183/183
f 184/184 181/181 183/183
f 184/184 183/183 185/185
f 184/184 185/185 186/186
f 187/187 184/184 186/186
f 186/186 188/188 187/187
f 188/188 189/189 187/187
f 188/188 190/190 189/189
f 190/190 191/191 189/189
f 190/190 192/192 191/191
f 192/192 193/193 191/191
f 196/196 195/195 194/194
f 197/197 194/194 195/195
f 198/198 197/197 195/195
f 198/198 195/195 199/199
f 198/198 199/199 200/200
f 201/201 198/198 200/200
f 201/201 200/200 202/202
f 203/203 201/201 202/202
f 203/203 202/202 204/204
f 205/205 203/203 204/204
f 206/206 205/205 204/204
f 206/206 204/204 207/207
f 207/207 208/208 206/206
f 209/209 206/206 208/208
f 209/209 208/208 210/210
f 209/209 210/210 211/211
f 211/211 210/210 212/212
f 213/213 211/211 212/212
f 212/212 214/214 213/213
f 212/212 215/215 214/214
f 216/216 214/214 215/215
f 216/216 215/215 217/217
f 216/216 217/217 218/218
f 219/219 216/216 218/218
f 220/220 219/219 218/218
f 220/220 218/218 221/221
f 221/221 222/222 220/220
f 221/221 223/223 222/222
f 223/223 224/224 222/222
f 224/224 225/225 222/222
f 226/226 225/225 224/224
f 226/226 224/224 227/227
f 228/228 226/226 227/227
f 229/229 228/228 227/227
f 232/232 231/231 230/230
f 231/231 233/233 230/230
f 234/234 233/233 231/231
f 235/235 233/233 234/234
f 235/235 234/234 236/236
f 236/236 237/237 235/235
f 235/235 237/237 238/238
f 239/239 235/235 238/238
f 240/240 239/239 238/238
f 240/240 241/241 239/239
f 241/241 240/240 242/242
f 243/243 241/241 242/242
f 243/243 244/244 241/241
f 244/244 245/245 241/241
f 244/244 246/246 245/245
f 246/246 247/247 245/245
f 250/250 249/249 248/248
f 251/251 249/249 250/250
f 252/252 249/249 251/251
f 250/250 253/253 251/251
f 254/254 252/252 251/251
f 254/254 255/255 252/252
f 256/256 251/251 253/253
f 254/254 251/251 256/256
f 257/257 255/255 254/254
f 257/257 254/254 256/256
f 255/255 257/257 258/258
f 258/258 257/257 259/259
f 259/259 260/260 258/258
f 261/261 256/256 253/253
f 261/261 253/253 262/262
f 263/263 257/257 256/256
f 261/261 263/263 256/256
f 263/263 261/261 262/262
f 263/263 259/259 257/257
f 264/264 263/263 262/262
f 265/265 263/263 264/264
f 265/265 259/259 263/263
f 265/265 264/264 266/266
f 259/259 267/267 260/260
f 267/267 268/268 260/260
f 269/269 268/268 267/267
f 269/269 267/267 259/259
f 269/269 270/270 268/268
f 270/270 271/271 268/268
f 270/270 272/272 271/271
f 272/272 273/273 271/271
f 272/272 274/274 273/273
f 275/275 274/274 272/272
f 275/275 276/276 274/274
f 276/276 277/277 274/274
f 276/276 278/278 277/277
f 276/276 279/279 278/278
f 279/279 280/280 278/278
f 280/280 281/281 278/278
f 280/280 282/282 281/281
f 280/280 283/283 282/282
f 282/282 283/283 284/284
f 285/285 282/282 284/284
f 286/286 285/285 284/284
f 286/286 284/284 287/287
f 288/288 286/286 287/287
f 289/289 286/286 288/288
f 288/288 290/290 289/289
f 290/290 291/291 289/289
f 291/291 290/290 292/292
f 293/293 291/291 292/292
f 293/293 292/292 294/294
f 295/295 293/293 294/294
f 294/294 296/296 295/295
f 294/294 297/297 296/296
f 297/297 298/298 296/296
f 297/297 299/299 298/298
f 299/299 300/300 298/298
f 300/300 301/301 298/298
f 300/300 302/302 301/301
f 302/302 303/303 301/301
f 303/303 302/302 304/304
f 305/305 303/303 304/304
f 305/305 304/304 306/306
f 306/306 307/307 305/305
f 306/306 308/308 307/307
f 308/308 309/309 307/307
f 308/308 310/310 309/309
f 310/310 311/311 309/309
f 310/310 312/312 311/311
f 312/312 313/313 311/311
f 314/314 313/313 312/312
f 314/314 312/312 315/315
f 313/313 314/314 316/316
f 314/314 317/317 316/316
f 314/314 315/315 317/317
f 312/312 318/318 315/315
f 312/312 319/319 318/318
f 317/317 320/320 316/316
f 317/317 321/321 320/320
f 316/316 320/320 322/322
f 322/322 320/320 321/321
f 323/323 322/322 321/321
f 324/324 317/317 315/315
f 317/317 324/324 321/321
f 325/325 323/323 321/321
f 323/323 325/325 326/326
f 327/327 326/326 325/325
f 327/327 325/325 321/321
f 328/328 327/327 321/321
f 328/328 321/321 324/324
f 329/329 328/328 324/324
f 324/324 315/315 329/329
f 315/315 330/330 329/329
f 331/331 330/330 315/315
f 315/315 318/318 331/331
f 330/330 331/331 332/332
f 333/333 330/330 332/332
f 333/333 332/332 334/334
f 335/335 334/334 332/332
f 335/335 332/332 331/331
f 335/335 336/336 334/334
f 318/318 337/337 331/331
f 335/335 331/331 337/337
f 337/337 318/318 338/338
f 338/338 318/318 319/319
f 338/338 319/319 339/339
f 339/339 319/319 340/340
f 339/339 340/340 341/341
f 342/342 337/337 338/338
f 342/342 338/338 339/339
f 335/335 337/337 343/343
f 337/337 342/342 343/343
f 344/344 335/335 343/343
f 336/336 335/335 344/344
f 343/343 342/342 345/345
f 345/345 344/344 343/343
f 342/342 339/339 346/346
f 346/346 345/345 342/342
f 347/347 339/339 341/341
f 346/346 339/339 347/347
f 348/348 347/347 341/341
f 348/348 341/341 349/349
f 348/348 349/349 350/350
f 346/346 347/347 351/351
f 347/347 348/348 351/351
f 346/346 352/352 345/345
f 346/346 351/351 352/352
f 344/344 345/345 353/353
f 345/345 352/352 353/353
f 354/354 348/348 350/350
f 355/355 354/354 350/350
f 352/352 351/351 356/356
f 353/353 352/352 356/356
f 348/348 357/357 351/351
f 348/348 354/354 357/357
f 357/357 356/356 351/351
f 355/355 358/358 354/354
f 354/354 358/358 357/357
f 359/359 358/358 355/355
f 359/359 360/360 358/358
f 344/344 353/353 361/361
f 336/336 344/344 361/361
f 361/361 353/353 362/362
f 336/336 361/361 362/362
f 353/353 356/356 363/363
f 362/362 353/353 363/363
f 364/364 336/336 362/362
f 336/336 364/364 365/365
f 364/364 366/366 365/365
f 364/364 362/362 367/367
f 367/367 362/362 363/363
f 368/368 366/366 364/364
f 368/368 364/364 367/367
f 369/369 366/366 368/368
f 370/370 369/369 368/368
f 370/370 371/371 369/369
f 370/370 372/372 371/371
f 373/373 368/368 367/367
f 373/373 370/370 368/368
f 374/374 367/367 363/363
f 373/373 367/367 374/374
f 356/356 375/375 363/363
f 374/374 363/363 375/375
f 370/370 376/376 372/372
f 376/376 377/377 372/372
f 378/378 370/370 373/373
f 378/378 376/376 370/370
f 373/373 374/374 379/379
f 379/379 378/378 373/373
f 374/374 380/380 379/379
f 374/374 375/375 380/380
f 378/378 379/379 381/381
f 376/376 378/378 381/381
f 379/379 380/380 381/381
f 376/376 382/382 377/377
f 382/382 383/383 377/377
f 383/383 382/382 384/384
f 385/385 376/376 381/381
f 385/385 382/382 376/376
f 386/386 381/381 380/380
f 385/385 381/381 386/386
f 387/387 386/386 380/380
f 382/382 385/385 388/388
f 388/388 384/384 382/382
f 389/389 385/385 386/386
f 385/385 389/389 388/388
f 375/375 390/390 380/380
f 387/387 380/380 390/390
f 391/391 383/383 384/384
f 383/383 391/391 392/392
f 393/393 392/392 391/391
f 393/393 391/391 394/394
f 391/391 384/384 394/394
f 387/387 395/395 386/386
f 395/395 389/389 386/386
f 396/396 394/394 384/384
f 396/396 266/266 394/394
f 396/396 265/265 266/266
f 397/397 396/396 384/384
f 397/397 265/265 396/396
f 398/398 397/397 384/384
f 388/388 398/398 384/384
f 399/399 388/388 389/389
f 388/388 399/399 398/398
f 395/395 400/400 389/389
f 400/400 399/399 389/389
f 397/397 401/401 265/265
f 265/265 401/401 259/259
f 397/397 398/398 402/402
f 397/397 402/402 401/401
f 401/401 403/403 259/259
f 402/402 403/403 401/401
f 404/404 259/259 403/403
f 402/402 404/404 403/403
f 402/402 398/398 405/405
f 404/404 402/402 405/405
f 398/398 399/399 405/405
f 406/406 404/404 405/405
f 399/399 407/407 405/405
f 406/406 405/405 407/407
f 399/399 400/400 407/407
f 406/406 407/407 408/408
f 407/407 400/400 408/408
f 409/409 406/406 408/408
f 410/410 409/409 408/408
f 400/400 411/411 408/408
f 411/411 400/400 395/395
f 411/411 395/395 387/387
f 410/410 408/408 412/412
f 412/412 408/408 411/411
f 413/413 410/410 412/412
f 412/412 411/411 414/414
f 414/414 411/411 387/387
f 413/413 412/412 415/415
f 415/415 412/412 414/414
f 416/416 413/413 415/415
f 417/417 416/416 415/415
f 414/414 387/387 418/418
f 415/415 414/414 418/418
f 417/417 415/415 419/419
f 419/419 415/415 418/418
f 418/418 387/387 420/420
f 420/420 387/387 390/390
f 418/418 420/420 421/421
f 419/419 418/418 421/421
f 422/422 417/417 419/419
f 417/417 422/422 423/423
f 422/422 424/424 423/423
f 422/422 419/419 425/425
f 424/424 422/422 425/425
f 425/425 419/419 421/421
f 424/424 425/425 426/426
f 426/426 425/425 421/421
f 427/427 424/424 426/426
f 428/428 427/427 426/426
f 420/420 390/390 429/429
f 421/421 420/420 429/429
f 430/430 426/426 421/421
f 421/421 429/429 430/430
f 430/430 429/429 431/431
f 390/390 432/432 429/429
f 429/429 432/432 431/431
f 390/390 375/375 432/432
f 430/430 433/433 426/426
f 428/428 426/426 433/433
f 433/433 430/430 431/431
f 433/433 434/434 428/428
f 434/434 433/433 431/431
f 435/435 428/428 434/434
f 436/436 435/435 434/434
f 437/437 432/432 375/375
f 356/356 437/437 375/375
f 356/356 357/357 437/437
f 437/437 438/438 432/432
f 357/357 438/438 437/437
f 438/438 431/431 432/432
f 357/357 358/358 438/438
f 358/358 439/439 438/438
f 431/431 438/438 439/439
f 439/439 358/358 360/360
f 440/440 434/434 431/431
f 431/431 439/439 440/440
f 436/436 434/434 440/440
f 439/439 360/360 440/440
f 441/441 436/436 440/440
f 441/441 440/440 360/360
f 441/441 442/442 436/436
f 441/441 360/360 442/442
f 445/445 444/444 443/443
f 445/445 446/446 444/444
f 446/446 447/447 444/444
f 447/447 448/448 444/444
f 446/446 449/449 447/447
f 450/450 448/448 447/447
f 449/449 451/451 447/447
f 450/450 447/447 451/451
f 454/454 453/453 452/452
f 455/455 452/452 453/453
f 456/456 455/455 453/453
f 457/457 456/456 453/453
f 457/457 453/453 458/458
f 458/458 453/453 459/459
f 460/460 459/459 453/453
f 460/460 453/453 461/461
f 461/461 453/453 462/462
f 463/463 462/462 453/453
f 466/466 465/465 464/464
f 466/466 467/467 465/465
f 467/467 468/468 465/465
f 468/468 469/469 465/465
f 470/470 465/465 469/469
f 471/471 465/465 470/470
f 471/471 472/472 465/465
f 472/472 473/473 465/465
f 473/473 474/474 465/465
f 474/474 475/475 465/465
f 475/475 476/476 465/465
f 477/477 465/465 476/476
f 477/477 478/478 465/465
f 478/478 479/479 465/465
f 482/482 481/481 480/480
f 481/481 483/483 480/480
f 483/483 484/484 480/480
f 483/483 485/485 484/484
f 485/485 486/486 484/484
f 486/486 485/485 487/487
f 486/486 487/487 488/488
f 488/488 487/487 489/489
f 488/488 489/489 490/490
f 490/490 491/491 488/488
f 490/490 492/492 491/491
f 492/492 493/493 491/491
f 493/493 494/494 491/491
f 493/493 495/495 494/494
f 494/494 495/495 496/496
f 497/497 494/494 496/496
f 497/497 496/496 498/498
f 497/497 498/498 499/499
f 502/502 501/501 500/500
f 502/502 500/500 503/503
f 504/504 502/502 503/503
f 505/505 504/504 503/503
f 505/505 503/503 506/506
f 505/505 506/506 507/507
f 507/507 506/506 508/508
f 508/508 509/509 507/507
f 508/508 510/510 509/509
f 511/511 509/509 510/510
f 512/512 511/511 510/510
f 511/511 512/512 513/513
f 514/514 513/513 512/512
f 514/514 512/512 515/515
f 516/516 514/514 515/515
f 516/516 515/515 517/517
f 518/518 516/516 517/517
f 518/518 517/517 519/519
f 518/518 519/519 520/520
f 520/520 519/519 521/521
f 522/522 520/520 521/521
f 522/522 521/521 523/523
f 522/522 523/523 524/524
f 524/524 523/523 525/525
f 526/526 524/524 525/525
f 526/526 525/525 527/527
f 525/525 528/528 527/527
f 529/529 527/527 528/528
f 529/529 528/528 530/530
f 531/531 529/529 530/530
f 531/531 530/530 532/532
f 531/531 532/532 533/533
f 533/533 534/534 531/531
f 533/533 535/535 534/534
f 535/535 536/536 534/534
f 539/539 538/538 537/537
f 540/540 539/539 537/537
f 540/540 537/537 541/541
f 542/542 540/540 541/541
f 542/542 541/541 543/543
f 544/544 542/542 543/543
f 544/544 543/543 545/545
f 545/545 546/546 544/544
f 545/545 547/547 546/546
f 546/546 547/547 548/548
f 546/546 548/548 549/549
f 549/549 548/548 550/550
f 550/550 551/551 549/549
f 551/551 552/552 549/549
f 551/551 553/553 552/552
f 554/554 552/552 553/553
f 553/553 555/555 554/554
f 555/555 556/556 554/554
f 556/556 557/557 554/554
f 556/556 558/558 557/557
f 558/558 559/559 557/557
f 562/562 561/561 560/560
f 561/561 563/563 560/560
f 561/561 564/564 563/563
f 565/565 564/564 561/561
f 568/568 567/567 566/566
f 567/567 569/569 566/566
f 570/570 569/569 567/567
f 570/570 567/567 571/571
f 574/574 573/573 572/572
f 573/573 574/574 575/575
f 576/576 573/573 575/575
f 576/576 575/575 577/577
f 576/576 577/577 578/578
f 578/578 577/577 579/579
f 579/579 580/580 578/578
f 580/580 579/579 581/581
f 580/580 581/581 582/582
f 583/583 580/580 582/582
f 583/583 582/582 584/584
f 583/583 584/584 585/585
f 585/585 584/584 586/586
f 585/585 586/586 587/587
f 588/588 585/585 587/587
f 588/588 587/587 589/589
f 590/590 588/588 589/589
f 590/590 589/589 591/591
f 591/591 592/592 590/590
f 591/591 593/593 592/592
f 594/594 592/592 593/593
f 597/597 596/596 595/595
f 597/597 598/598 596/596
f 599/599 598/598 597/597
f 599/599 600/600 598/598
f 600/600 599/599 601/601
f 601/601 602/602 600/600
f 603/603 602/602 601/601
f 604/604 602/602 603/603
f 604/604 603/603 605/605
f 606/606 604/604 605/605
f 607/607 606/606 605/605
f 607/607 605/605 608/608
f 609/609 607/607 608/608
f 608/608 610/610 609/609
f 610/610 611/611 609/609
f 612/612 611/611 610/610
f 612/612 610/610 613/613
f 614/614 612/612 613/613
f 615/615 612/612 614/614
f 615/615 614/614 616/616
f 616/616 617/617 615/615
f 620/620 619/619 618/618
f 620/620 618/618 621/621
f 620/620 621/621 622/622
f 621/621 623/623 622/622
f 623/623 624/624 622/622
f 623/623 625/625 624/624
f 626/626 624/624 625/625
f 629/629 628/628 627/627
f 628/628 630/630 627/627
f 628/628 631/631 630/630
f 628/628 632/632 631/631
f 632/632 633/633 631/631
f 633/633 632/632 634/634
f 635/635 633/633 634/634
f 635/635 634/634 636/636
f 637/637 636/636 634/634
f 637/637 638/638 636/636
f 639/639 638/638 637/637
f 640/640 638/638 639/639
f 640/640 639/639 641/641
f 642/642 640/640 641/641
f 642/642 641/641 643/643
f 644/644 642/642 643/643
f 644/644 643/643 645/645
f 646/646 644/644 645/645
f 646/646 645/645 647/647
f 646/646 647/647 648/648
f 647/647 649/649 648/648
f 650/650 649/649 647/647
f 653/653 652/652 651/651
f 651/651 652/652 654/654
f 654/654 655/655 651/651
f 654/654 656/656 655/655
f 659/659 658/658 657/657
f 657/657 660/660 659/659
f 663/663 662/662 661/661
f 664/664 661/661 662/662
f 662/662 665/665 664/664
f 666/666 664/664 665/665
f 665/665 667/667 666/666
f 667/667 668/668 666/666
f 667/667 669/669 668/668
f 669/669 670/670 668/668
f 673/673 672/672 671/671
f 673/673 674/674 672/672
f 675/675 672/672 674/674
f 675/675 674/674 676/676
f 677/677 675/675 676/676
f 677/677 676/676 678/678
f 677/677 678/678 679/679
f 680/680 677/677 679/679
f 680/680 679/679 681/681
f 680/680 681/681 682/682
f 683/683 682/682 681/681
f 681/681 684/684 683/683
f 685/685 683/683 684/684
f 685/685 684/684 686/686
f 686/686 684/684 687/687
f 686/686 687/687 688/688
f 688/688 687/687 689/689
f 688/688 689/689 690/690
f 691/691 688/688 690/690
f 692/692 691/691 690/690
f 692/692 690/690 693/693
f 694/694 692/692 693/693
f 694/694 693/693 695/695
f 696/696 694/694 695/695
f 696/696 695/695 697/697
f 698/698 696/696 697/697
f 699/699 698/698 697/697
f 700/700 698/698 699/699
f 700/700 699/699 701/701
f 702/702 700/700 701/701
f 703/703 702/702 701/701
f 704/704 702/702 703/703
f 704/704 703/703 705/705
f 703/703 706/706 705/705
f 706/706 707/707 705/705
f 708/708 705/705 707/707
f 711/711 710/710 709/709
f 712/712 711/711 709/709
f 713/713 712/712 709/709
f 714/714 713/713 709/709
f 714/714 709/709 715/715
f 714/714 715/715 716/716
f 717/717 714/714 716/716
f 716/716 718/718 717/717
f 717/717 718/718 719/719
f 718/718 720/720 719/719
f 720/720 721/721 719/719
f 720/720 722/722 721/721
f 721/721 722/722 723/723
f 723/723 722/722 724/724
f 724/724 725/725 723/723
f 724/724 726/726 725/725
f 727/727 725/725 726/726
f 727/727 726/726 728/728
f 729/729 727/727 728/728
f 728/728 730/730 729/729
f 731/731 729/729 730/730
f 731/731 730/730 732/732
f 733/733 732/732 730/730
f 734/734 732/732 733/733
f 734/734 733/733 735/735
f 736/736 734/734 735/735
f 734/734 736/736 737/737
f 736/736 738/738 737/737
f 739/739 737/737 738/738
f 738/738 740/740 739/739
f 740/740 738/738 741/741
f 740/740 741/741 742/742
f 741/741 743/743 742/742
f 746/746 745/745 744/744
f 747/747 745/745 746/746
f 748/748 747/747 746/746
f 747/747 748/748 749/749
f 748/748 750/750 749/749
f 751/751 750/750 748/748
f 752/752 750/750 751/751
f 753/753 752/752 751/751
f 754/754 752/752 753/753
f 755/755 754/754 753/753
f 755/755 756/756 754/754
f 755/755 757/757 756/756
f 758/758 756/756 757/757
f 758/758 757/757 759/759
f 760/760 758/758 759/759
f 759/759 761/761 760/760
f 761/761 759/759 762/762
f 762/762 763/763 761/761
f 763/763 764/764 761/761
f 764/764 763/763 765/765
f 763/763 766/766 765/765
f 767/767 765/765 766/766
f 766/766 768/768 767/767
f 771/771 770/770 769/769
f 770/770 772/772 769/769
f 772/772 770/770 773/773
f 774/774 773/773 770/770
f 773/773 774/774 775/775
f 776/776 773/773 775/775
f 775/775 777/777 776/776
f 778/778 776/776 777/777
f 777/777 779/779 778/778
f 780/780 779/779 777/777
f 780/780 781/781 779/779
f 779/779 781/781 782/782
f 783/783 782/782 781/781
f 782/782 783/783 784/784
f 785/785 784/784 783/783
f 786/786 785/785 783/783
f 787/787 785/785 786/786
f 788/788 785/785 787/787
f 787/787 789/789 788/788
f 790/790 788/788 789/789
f 793/793 792/792 791/791
f 791/791 792/792 794/794
f 794/794 795/795 791/791
f 791/791 795/795 796/796
f 799/799 798/798 797/797
f 799/799 800/800 798/798
f 798/798 800/800 801/801
f 804/804 803/803 802/802
f 805/805 804/804 802/802
