v 0.00575337266 0.0314090512 0.322376243
v 0.00592503583 0.0312025528 0.323200318
v 0.0044340912 0.0311274846 0.323852607
v -0.0527135592 0.0454286104 0.282343671
v -0.0533368979 0.0414597201 0.284547721
v -0.0541215022 0.0347311882 0.284247934
v -0.054137077 0.0345538368 0.281826404
v -0.0548257887 0.0177242961 0.284146579
v -0.0547464317 0.0202523894 0.281604414
v -0.0545303761 -0.0296137552 0.283968098
v -0.0545692121 -0.0278554879 0.281674208
v -0.0531995197 -0.0427649544 0.282158459
v -0.0535913955 -0.0395486717 0.284458261
v -0.0525868466 -0.0456725865 0.284792628
v -0.0504501898 -0.0535675873 0.285564716
v -0.0505541904 -0.0532114473 0.283021842
v -0.0474651026 -0.0595513162 0.286202308
v -0.0472815935 -0.0598476249 0.283963423
v -0.0447409642 -0.0633163735 0.28689256
v -0.0422457594 -0.0661363747 0.285220927
v -0.0412501855 -0.0669596627 0.287701974
v -0.0374816429 -0.0697006191 0.288479665
v -0.0347175443 -0.0713642294 0.286724413
v -0.0320937882 -0.072561087 0.289371552
v -0.0241976221 -0.0752378039 0.288430662
v -0.0216950791 -0.0758415528 0.291155908
v -0.0100096265 -0.0776235978 0.289766493
v -0.00776392391 -0.0778293609 0.292273078
v 0.00364322435 -0.0777388244 0.292124195
v 0.00371079205 -0.0777347589 0.289857243
v 0.0127952761 -0.0767221958 0.291482311
v 0.0150986795 -0.0763548679 0.288999773
v 0.0208398322 -0.0748887686 0.290430008
v 0.0249516868 -0.0734152849 0.287478135
v 0.0252722516 -0.0731114954 0.289639039
v 0.0288651982 -0.0711626918 0.28888063
v 0.0325312157 -0.0684480479 0.285742856
v 0.0349977959 -0.0660196319 0.28738524
v 0.0366101905 -0.0639490388 0.284740048
v 0.0406490807 -0.0577815659 0.285923374
v 0.0404407749 -0.0581077654 0.28379934
v 0.0442117133 -0.0499261345 0.284933098
v 0.0443197568 -0.0496524719 0.282845099
v 0.0470818243 -0.0409654125 0.284459743
v 0.0482815412 -0.0359645454 0.281872341
v 0.0498404019 -0.0275934951 0.28384016
v 0.0510147457 -0.0167774101 0.281201589
v 0.0513526008 -0.00875835304 0.283680272
v 0.0513351117 0.00989808059 0.28112261
v 0.0512010192 0.011938207 0.28368642
v 0.0497578299 0.0280909063 0.283925072
v 0.0501125754 0.0250771499 0.281423143
v 0.04766812 0.0387107606 0.282021718
v 0.0461023446 0.0444065985 0.284574051
v 0.0441231815 0.0501967556 0.282893669
v 0.0424801 0.0540714801 0.285413278
v 0.0408955724 0.0572649978 0.283686112
v 0.038868657 0.060770108 0.286360644
v 0.0359876897 0.064919063 0.284892847
v 0.0353712974 0.065598287 0.287291657
v 0.0302865216 0.0702816191 0.288575481
v 0.0296599911 0.0707454021 0.286439224
v 0.0240372522 0.0737615344 0.289900068
v 0.0231688916 0.0741242906 0.287806903
v 0.014494697 0.0765879942 0.29133163
v 0.0135754617 0.0767637537 0.289194773
v 0.00220050239 0.077803792 0.292099425
v 0.00145428491 0.0778313403 0.28988013
v -0.00760626731 0.077100957 0.292289617
v -0.00542528548 0.0777841252 0.289875637
v -0.0149486752 0.0771081569 0.289434713
v -0.0197842139 0.0763262982 0.291294101
v -0.0224181078 0.0757225516 0.288655821
v -0.0304434834 0.0732497132 0.289685368
v -0.0320403532 0.0726254216 0.287202302
v -0.0381214925 0.0693709597 0.288301026
v -0.0385336979 0.0690866287 0.285990218
v -0.0423958613 0.0659487196 0.287403882
v -0.0437916119 0.0645704887 0.284852422
v -0.0460463981 0.0617077889 0.286604108
v -0.0476003503 0.0593615508 0.283872441
v -0.0489519403 0.0568876059 0.285852465
v -0.0503145481 0.0537782244 0.283093586
v -0.0512583752 0.0510262835 0.285175873
v -0.0527135592 0.0454286104 0.282343671
v -0.0525868897 0.0457245009 0.28479263
v -0.0533368979 0.0414597201 0.284547721
v -0.0527223366 0.0363959486 0.287721166
v -0.0533368979 0.0414597201 0.284547721
v -0.0525868897 0.0457245009 0.28479263
v -0.0514796892 0.045438679 0.28761501
v -0.0512583752 0.0510262835 0.285175873
v -0.04992757 0.0387222739 0.291657514
v -0.0496338349 0.0282737699 0.29428708
v -0.049712094 0.052193116 0.287786068
v -0.0489519403 0.0568876059 0.285852465
v -0.0474830555 0.0336912723 0.296191999
v -0.0462498519 0.0403330318 0.295695615
v -0.0472161087 0.051977444 0.290596734
v -0.0449624448 0.0315346201 0.29981879
v -0.0467093337 0.0212045019 0.299901936
v -0.0449611391 0.0615602966 0.288379696
v -0.0460463981 0.0617077889 0.286604108
v -0.0423958613 0.0659487196 0.287403882
v -0.0431819582 0.0505181977 0.294739792
v -0.0426208406 0.0392879374 0.299506289
v -0.0424472095 0.0615091614 0.290221368
v -0.0398639422 0.0664763187 0.289467289
v -0.0381214925 0.0693709597 0.288301026
v -0.0304434834 0.0732497132 0.289685368
v -0.0387433704 0.0522551121 0.2968263
v -0.0330862047 0.0686356627 0.291520746
v -0.026567028 0.0724589274 0.291664429
v -0.0197842139 0.0763262982 0.291294101
v -0.0353266115 0.0495634727 0.299614428
v -0.0406303499 0.0439036247 0.299181145
v -0.0373716519 0.0405724148 0.302714568
v -0.0319570852 0.0528257095 0.299296797
v -0.0289284555 0.0396551477 0.306992176
v -0.038830282 0.0317896338 0.305490745
v -0.0330447623 0.0393037488 0.305558012
v -0.035839566 0.0324672839 0.307459728
v -0.0412044012 0.0255060011 0.305660019
v -0.0364956421 0.023652248 0.311294448
v -0.0321400096 0.031266002 0.310703241
v -0.04268548 0.022418038 0.304922583
v -0.0327444564 0.0231236672 0.315455131
v -0.0372303508 0.0148213744 0.314086196
v -0.0331300821 0.00754761213 0.321614228
v -0.0349645154 0.0197236538 0.314914927
v -0.0324605674 0.0138704314 0.320966486
v -0.0292579841 0.0182601279 0.32315473
v -0.0287409925 0.0110862316 0.327944201
v -0.0303702312 0.00540276581 0.326486026
v -0.0300506914 0.0150001251 0.324013147
v -0.0263111279 0.0166908855 0.329567104
v -0.0281627082 0.0212407874 0.322161599
v -0.0231278804 0.0211444923 0.330263268
v -0.0236818229 0.0181593593 0.333426635
v -0.0270261502 0.0071698611 0.33290353
v -0.0272866611 0.00173190591 0.333166955
v -0.0252729476 0.0132518324 0.334643502
v -0.0296659004 0.0267041338 0.315809834
v -0.0258896062 0.00475827313 0.337119219
v -0.0261084729 0.00272759359 0.33721497
v -0.0257320081 0.00760754348 0.337050279
v -0.0251528886 0.010281778 0.336796894
v -0.024646697 0.0132428013 0.336575451
v -0.0235678058 0.0162862126 0.336103423
v -0.0224504131 0.0187589477 0.335614588
v -0.0219056808 0.0198138744 0.335376264
v -0.0193302364 0.0229119016 0.33424951
v -0.018929552 0.0234005188 0.334074196
v -0.0214461962 0.0238842372 0.328168666
v -0.0266158929 0.0232553738 0.322029686
v -0.0239509504 0.0280592451 0.318952866
v -0.0188492123 0.0259701671 0.327308429
v -0.0185306409 0.0237366865 0.333899682
v -0.0146482592 0.0262590132 0.33220111
v -0.0238680648 0.0251376702 0.322903565
v -0.0136503929 0.0286280137 0.326218928
v -0.0100774181 0.028313662 0.330201387
v -0.0198710983 0.0279514945 0.322411311
v -0.0276118839 0.0321043219 0.312817561
v -0.00561103799 0.0303762871 0.325568386
v -0.00759726669 0.0290789531 0.329116324
v -0.0173534972 0.0296707638 0.321291396
v -0.0239783148 0.0340356927 0.312985854
v -0.0101284925 0.0310268718 0.322037436
v -0.0195035638 0.0317396045 0.317309883
v -0.0238840735 0.0410592191 0.307650614
v -0.0185851623 0.0361997427 0.312807812
v -0.0142060831 0.0336100945 0.316755929
v -0.0113686174 0.03280987 0.318501322
v -0.0269692622 0.0484548205 0.302699271
v -0.0171650275 0.0666274281 0.295636265
v -0.0124659895 0.0728899208 0.293790555
v -0.00760626731 0.077100957 0.292289617
v -0.00575041903 0.0669399541 0.296157152
v -0.0130834892 0.0584047508 0.29922062
v 0.00307847411 0.061748739 0.297768158
v 0.00471445488 0.0735767749 0.293793085
v 0.00220050239 0.077803792 0.292099425
v 0.0130692513 0.069420442 0.29417551
v 0.014494697 0.0765879942 0.29133163
v -0.0234917979 0.0483430862 0.303365531
v -0.016620127 0.0438593025 0.306880418
v -0.0160799163 0.0510913239 0.302588677
v -0.00327330597 0.05541445 0.30052982
v 0.0192631243 0.0715285721 0.292299187
v 0.0240372522 0.0737615344 0.289900068
v 0.0302865216 0.0702816191 0.288575481
v 0.0284921313 0.0660351186 0.291032917
v 0.0353712974 0.065598287 0.287291657
v -0.0144988079 0.0379728595 0.311890788
v -0.00908391444 0.0487402102 0.30412174
v -0.00934475113 0.0428508216 0.308185362
v -0.00718246459 0.0374885728 0.312975815
v -0.00281016579 0.0420433706 0.308664557
v -0.0017838053 0.0483641557 0.304145188
v -0.0018018646 0.0369570529 0.313497574
v 0.0328205522 0.0629974215 0.289897249
v 0.038868657 0.060770108 0.286360644
v 0.035745862 0.0540242149 0.29082186
v 0.00431283505 0.0536473597 0.300858202
v -0.00270502787 0.0334402813 0.318561531
v 0.040312883 0.0542848738 0.287692289
v 0.0424801 0.0540714801 0.285413278
v 0.0433960305 0.0413462425 0.288579865
v 0.0461023446 0.0444065985 0.284574051
v -0.00123191038 0.0319583396 0.321973263
v 0.0384976409 0.0434161048 0.292012825
v 0.0394562664 0.0336681713 0.29384009
v 0.0463398994 0.0357692716 0.287114669
v 0.0497578299 0.0280909063 0.283925072
v 0.0342417754 0.0398911644 0.295961395
v 0.0481722688 0.0233832806 0.287214059
v 0.0512010192 0.011938207 0.28368642
v 0.0312712994 0.0557354955 0.292713663
v 0.0432855566 0.0259670847 0.292015771
v 0.0484977348 0.00645978098 0.288147454
v 0.0513526008 -0.00875835304 0.283680272
v 0.0424113824 0.0154122 0.294280067
v 0.0486047321 -0.0123338924 0.287795116
v 0.0498404019 -0.0275934951 0.28384016
v 0.0390253709 0.0226577219 0.296419962
v 0.043491703 0.00562210528 0.293833032
v 0.0307038484 0.0381577792 0.298649406
v 0.0273757995 0.0449401626 0.298051631
v 0.0326861285 0.0281327732 0.300255246
v 0.0322202947 0.0174633536 0.302934271
v 0.0333684246 0.0084346846 0.303161517
v 0.0421544545 -0.00359742129 0.29526383
v 0.0337660542 -0.00282814035 0.303087029
v 0.0262323572 0.0565038979 0.294672295
v 0.0211395688 0.0561420666 0.296531502
v 0.0297598674 0.00872640893 0.307011716
v 0.0290503845 0.0180070503 0.305871065
v 0.0248186302 0.0392752772 0.30137054
v 0.0157296547 0.057811701 0.297367163
v 0.0189588966 0.0444469895 0.301629109
v 0.0127094343 0.0550906683 0.298988319
v 0.0130494458 0.0465837812 0.302535329
v 0.0271677448 0.0317378602 0.302843157
v 0.0286746743 0.0237018464 0.304475027
v 0.0215874151 0.0359870334 0.304416255
v 0.0164741202 0.0400627502 0.304772231
v 0.0100949144 0.0444572898 0.304456545
v 0.00511192321 0.0480236578 0.30348826
v 0.00473951804 0.0426415899 0.307078326
v 0.0116466859 0.0399673737 0.306970352
v 0.00448504343 0.0382425859 0.31102757
v 0.0167107806 0.0355734905 0.307749716
v 0.0218953447 0.0312402139 0.306926114
v 0.00200377227 0.0351425851 0.315552632
v 0.00794522772 0.0368558876 0.311460089
v 0.0115572259 0.0365821018 0.310006535
v 0.00182158588 0.0332429731 0.31879458
v 0.0161175805 0.0334637486 0.310207825
v 0.0253961892 0.0281483424 0.305606147
v 0.0111259922 0.0339643253 0.313451992
v 0.00676307476 0.0342624738 0.315522365
v 0.0204775159 0.0291913463 0.309960843
v 0.0253796562 0.0243575701 0.307461188
v 0.0162542773 0.0308960764 0.313182418
v 0.0224823852 0.0251015468 0.310747956
v 0.0196158431 0.0273234981 0.313316914
v 0.0183920871 0.0270244601 0.316429059
v 0.0224621457 0.0213730885 0.315147981
v 0.0148163424 0.0301863308 0.316303039
v 0.0121682753 0.0308936391 0.318189549
v 0.0245657849 0.0208270562 0.310649585
v 0.0253219234 0.0143524968 0.314031631
v 0.0260742333 0.0180807963 0.309700036
v 0.0271439922 0.0134931036 0.309919297
v 0.0270078915 0.00685494392 0.312297189
v 0.0280282783 0.00791829401 0.309841408
v 0.0306611746 -0.00129508136 0.306497342
v 0.0064206613 0.0325928342 0.318789415
v 0.00575337266 0.0314090512 0.322376243
v 0.0285066355 -0.000310219349 0.30948063
v 0.0275571103 -0.00721184413 0.310794849
v 0.0289660264 -0.0108663642 0.307767105
v 0.00994089649 0.0306054054 0.321443393
v 0.0108933786 0.0304232409 0.321026699
v 0.0130384461 0.0298144716 0.32008821
v 0.00846150829 0.0307681111 0.322090625
v 0.00592503583 0.0312025528 0.323200318
v 0.0142778364 0.0293688811 0.319546006
v 0.0167080708 0.0276755597 0.31848277
v 0.0180145456 0.0268811939 0.317911171
v 0.0258497649 -0.0149352035 0.312056354
v 0.0257851594 -0.0201649944 0.309152701
v 0.0294787624 -0.0137951271 0.306443354
v 0.0333796215 -0.0128540788 0.302637192
v 0.0277861814 -0.0187228847 0.307002002
v 0.0391819868 -0.0179716852 0.297054843
v 0.0313041625 -0.0201310242 0.30312288
v 0.0402280359 -0.0329396334 0.293353781
v 0.0434347168 -0.0192565116 0.292852832
v 0.0460988497 -0.0282742425 0.288729057
v 0.0465101583 -0.0348875294 0.287052767
v 0.0470818243 -0.0409654125 0.284459743
v 0.0292273885 -0.0211348506 0.30466933
v 0.0449994234 -0.0433747291 0.28658234
v 0.0442117133 -0.0499261345 0.284933098
v 0.0409299887 -0.0425364452 0.290402508
v 0.0408822174 -0.0514598901 0.288003061
v 0.0406490807 -0.0577815659 0.285923374
v 0.0295897853 -0.0292356186 0.302053751
v 0.0379994874 -0.0606595136 0.287545566
v 0.0349977959 -0.0660196319 0.28738524
v 0.0330420411 -0.0524500564 0.292806574
v 0.0376694609 -0.0506830876 0.290536148
v 0.0358283243 -0.0398194092 0.29490416
v 0.0284405572 -0.0663372762 0.290930304
v 0.0288651982 -0.0711626918 0.28888063
v 0.0252722516 -0.0731114954 0.289639039
v 0.0289137185 -0.0461337669 0.296902537
v 0.0258915179 -0.055831307 0.295003311
v 0.0210354366 -0.0601077267 0.29528831
v 0.0243542586 -0.0433046171 0.299937884
v 0.0142173677 -0.0698447862 0.29382757
v 0.0224656231 -0.0721326302 0.291317584
v 0.0208398322 -0.0748887686 0.290430008
v 0.0127952761 -0.0767221958 0.291482311
v 0.00364322435 -0.0777388244 0.292124195
v 0.0300774926 -0.0380523022 0.298963397
v 0.0248154107 -0.0335800936 0.303599982
v 0.0246762396 -0.0288309868 0.30592596
v 0.0239494545 -0.026842645 0.307670516
v 0.0212820935 -0.0325800239 0.306439897
v 0.0188464536 -0.038197338 0.304689829
v 0.0195661006 -0.0301162465 0.310059358
v 0.0223016882 -0.0260875605 0.310272762
v 0.0171806161 -0.0298661002 0.313586705
v 0.0180170223 -0.0330500979 0.308676926
v 0.021265091 -0.0251685847 0.312942492
v 0.023834743 -0.0199982531 0.31285871
v 0.0176103163 -0.0452399845 0.301757636
v 0.0162410327 -0.052974502 0.298978457
v 0.0143393802 -0.037167426 0.307887193
v 0.0126569282 -0.0427673387 0.304656395
v 0.0103835234 -0.0493593629 0.301798981
v 0.0120837388 -0.0612821662 0.296900552
v 0.00363019609 -0.0607202434 0.298087096
v 0.00225441524 -0.0559523038 0.300064246
v 0.00425248766 -0.0494650764 0.302852575
v 0.000918438416 -0.0674898876 0.296009719
v -0.00776392391 -0.0778293609 0.292273078
v -0.00804046645 -0.059994463 0.29855845
v 0.0141748581 -0.0347646885 0.310244566
v 0.010346051 -0.0345427077 0.313254265
v 0.00757880159 -0.0432285642 0.305942511
v -0.00371818438 -0.0479283568 0.304560242
v -0.00619533754 -0.0523723497 0.302093928
v 0.0104327616 -0.0373237973 0.309804553
v 0.00444560208 -0.0398451267 0.309514496
v -0.0169247816 -0.0673035132 0.295360575
v -0.0216950791 -0.0758415528 0.291155908
v -0.0171048881 -0.0574487185 0.299369245
v -0.019086391 -0.0500967406 0.302925733
v -0.0270491057 -0.0499809111 0.301893656
v -0.0235634671 -0.0681047949 0.294146326
v -0.030086268 -0.0671193012 0.293137187
v -0.0320937882 -0.072561087 0.289371552
v -0.0318329586 -0.0509574288 0.300209144
v -0.0362815388 -0.0671713544 0.290897156
v -0.0374816429 -0.0697006191 0.288479665
v -0.0412501855 -0.0669596627 0.287701974
v -0.0368416224 -0.056523162 0.295745635
v -0.0412358993 -0.0543144195 0.294416281
v -0.0404645553 -0.0663166131 0.289106288
v -0.0424580518 -0.0614613714 0.290211833
v -0.0447409642 -0.0633163735 0.28689256
v -0.0448175944 -0.0619581567 0.288302895
v -0.0474651026 -0.0595513162 0.286202308
v -0.0504501898 -0.0535675873 0.285564716
v -0.0371204646 -0.0427787308 0.301875593
v -0.0462750463 -0.0523261887 0.291402616
v -0.0307354673 -0.0410967945 0.305530652
v -0.0409958233 -0.0388268775 0.300956312
v -0.0253626784 -0.0437831124 0.305569651
v -0.0155074958 -0.0446662136 0.306437383
v -0.0226531354 -0.0380486871 0.310094897
v -0.0332412201 -0.0333815966 0.308653747
v -0.0368950096 -0.0346283337 0.305623202
v -0.0278704962 -0.035353006 0.310255222
v -0.0092504191 -0.0444655624 0.306956705
v -0.0157126564 -0.0379884117 0.311700155
v -0.00202845972 -0.0415898592 0.308957521
v -0.00790990809 -0.0401783397 0.310359706
v -0.00157536414 -0.0381959745 0.312175167
v 0.0010693174 -0.0355211376 0.314992745
v -0.00674836792 -0.0362250153 0.314396735
v -0.0224870471 -0.0315154584 0.316006648
v -0.0178771985 -0.0352217658 0.31395461
v -0.0150302107 -0.0332703274 0.317011494
v -0.00590311635 -0.0336311994 0.317973122
v -0.0274971137 -0.0285342708 0.315862911
v -0.00166821159 -0.0323274661 0.320743734
v -0.00990754349 -0.0310772421 0.321818756
v -0.00562993821 -0.0303248674 0.325588648
v -0.0152765946 -0.0302780533 0.321260362
v -0.0203149121 -0.0281303109 0.321625687
v -0.0116403925 -0.0291042236 0.326064749
v 0.00366194766 -0.0345305556 0.315961976
v -0.0169082958 -0.0274788746 0.326024986
v -0.0212828056 -0.0240790805 0.32802922
v -0.0154171692 -0.0258065291 0.332537549
v -0.00976790623 -0.0283869724 0.33006598
v -0.0181460715 -0.0240962027 0.333731424
v -0.00776812426 -0.0289826087 0.329191119
v -0.00495644306 -0.0298095792 0.32796101
v -0.00162041624 -0.0303850854 0.326501489
v 0.000747258182 -0.0309531457 0.325465612
v -0.0197457587 -0.0224203091 0.334431335
v 0.00343598865 -0.0320796196 0.320852146
v 0.00238368682 -0.0310732869 0.324749694
v 0.00551202671 -0.0310877327 0.323381051
v 0.00789947312 -0.0335015125 0.316116336
v 0.00764653412 -0.0318090724 0.319870765
v 0.00714143769 -0.0310779457 0.322668189
v 0.00871875671 -0.0309087585 0.321978137
v 0.0130080573 -0.0298276308 0.320050046
v 0.0134425737 -0.0309052523 0.316732537
v 0.0174181301 -0.027137161 0.318172122
v 0.0194905709 -0.0251299185 0.317265429
v 0.0194905709 -0.0251299185 0.317265429
v 0.0210389801 -0.0229554611 0.316588001
v 0.0212535548 -0.0225874362 0.316494105
v 0.0232005223 -0.0194562469 0.315642345
v 0.0239312436 -0.0176444464 0.31532264
v 0.0252504664 -0.0141844773 0.314745475
v 0.0257452417 -0.0117165287 0.314529015
v 0.0260539367 -0.00917833593 0.314393937
v 0.026644516 -0.00678830198 0.313437695
v 0.0264897632 -0.00690060025 0.314203271
v 0.0265712802 -0.00469078837 0.314167619
v 0.0271087329 -0.000472380404 0.312629154
v 0.0268009277 -2.80233017e-05 0.314067138
v 0.0267041511 0.00377642619 0.314109484
v 0.0263371135 0.00786633251 0.314270064
v 0.0263412563 0.00782016598 0.314268245
v 0.0257080212 0.0112355831 0.314545278
v 0.0252502939 0.0140976984 0.314745548
v 0.0252502939 0.0140976984 0.314745548
v 0.0249122706 0.0150525905 0.314893432
v 0.0227067502 0.0204217638 0.315858333
v 0.0216652096 0.0221904261 0.31631399
v 0.0190598466 0.0257069684 0.317453841
v 0.0180145456 0.0268811939 0.317911171
v -0.0527223366 0.0363959486 0.287721166
v -0.0541215022 0.0347311882 0.284247934
v -0.0533368979 0.0414597201 0.284547721
v -0.0527167466 0.0239247643 0.289337247
v -0.0548257887 0.0177242961 0.284146579
v -0.0496338349 0.0282737699 0.29428708
v -0.0497780552 0.0124590062 0.295869237
v -0.0467093337 0.0212045019 0.299901936
v -0.0533068319 -0.0035444349 0.288711132
v -0.0545303761 -0.0296137552 0.283968098
v -0.0423101651 0.00609539106 0.308545663
v -0.0331300821 0.00754761213 0.321614228
v -0.0327892141 0.000830537756 0.322666549
v -0.0419491709 -0.00812917573 0.308863295
v -0.0303702312 0.00540276581 0.326486026
v -0.0303559246 -0.00479410437 0.326606516
v -0.0272866611 0.00173190591 0.333166955
v -0.0281809204 -0.00548890012 0.330795175
v -0.0332630365 -0.00718499643 0.321474747
v -0.0286094192 -0.0109155376 0.328234147
v -0.0465594407 0.00330454351 0.301889454
v -0.0479064775 -0.0104141857 0.299234384
v -0.0477912614 -0.0224977443 0.298109703
v -0.0508224733 -0.0163256851 0.293548205
v -0.0528788008 -0.0231983349 0.289042514
v -0.0525838726 -0.036482414 0.288011547
v -0.0535913955 -0.0395486717 0.284458261
v -0.033140425 -0.0122345538 0.320451165
v -0.0516254749 -0.0449977773 0.287515636
v -0.0525868466 -0.0456725865 0.284792628
v -0.0493202785 -0.0368843525 0.292989412
v -0.0435127288 -0.0260831939 0.302907614
v -0.0428402845 -0.017615924 0.305900197
v -0.0497597656 -0.0527496556 0.28734145
v -0.0480367374 -0.0432034243 0.292826084
v -0.0442225099 -0.039459278 0.298008712
v -0.0404724818 -0.0300602907 0.304727313
v -0.0355480845 -0.0257331236 0.311234383
v -0.0307331924 -0.0261314006 0.315251403
v -0.0340756231 -0.0232380512 0.314014272
v -0.0356234415 -0.0197210331 0.314126685
v -0.0295895757 -0.0218926517 0.319862431
v -0.0262672657 -0.0242018872 0.321269602
v -0.034471391 -0.0163437816 0.317152901
v -0.0282361058 -0.0195495674 0.323679981
v -0.0298100337 -0.0158235872 0.323927181
v -0.0262905256 -0.0169342813 0.329326596
v -0.0242236939 -0.0259596305 0.321228311
v -0.0252882873 -0.0215128539 0.32597871
v -0.0217332856 -0.019816083 0.335300848
v -0.0230293827 -0.0173306548 0.335867899
v -0.0252414892 -0.0134695273 0.334508569
v -0.0243101096 -0.0142265609 0.336428221
v -0.0246832372 -0.0131604183 0.336591457
v -0.0253238213 -0.00892223401 0.336871727
v -0.0255809771 -0.0074575467 0.336984213
v -0.0256457314 -0.00617960302 0.337012553
v -0.0264145267 -0.00243343048 0.335652277
v -0.026036866 -0.00231616548 0.337183647
v -0.026036866 -0.00231616548 0.337183647
v -0.0261084729 0.00272759359 0.33721497
v -0.0050580089 0.0298483528 0.328005395
v -0.00759726669 0.0290789531 0.329116324
v -0.00136289024 0.0304679366 0.326388787
v 0.000774143338 0.0309654814 0.325453826
v 0.0044340912 0.0311274846 0.323852607
vt 0.6015625 0.151733398
vt 0.602050781 0.151855469
vt 0.602539062 0.151245117
vt 0.173461914 0.000583171844
vt 0.172485352 0.00214576721
vt 0.172607422 0.00479507446
vt 0.173706055 0.00487518311
vt 0.172607422 0.0114517212
vt 0.173706055 0.0104751587
vt 0.172485352 0.0299682617
vt 0.173461914 0.029296875
vt 0.173217773 0.03515625
vt 0.172241211 0.0338745117
vt 0.172119141 0.0362854004
vt 0.17175293 0.0394897461
vt 0.172851562 0.0393676758
vt 0.171386719 0.0421142578
vt 0.172363281 0.0422363281
vt 0.171142578 0.0439147949
vt 0.171875 0.0454101562
vt 0.170776367 0.0458984375
vt 0.170410156 0.0477294922
vt 0.171142578 0.0489807129
vt 0.169921875 0.0501098633
vt 0.170410156 0.0533752441
vt 0.169189453 0.0543823242
vt 0.169799805 0.0589904785
vt 0.168701172 0.0598754883
vt 0.168701172 0.0643310547
vt 0.169799805 0.0643310547
vt 0.169067383 0.0679321289
vt 0.170166016 0.0688476562
vt 0.169555664 0.0711669922
vt 0.170898438 0.0728759766
vt 0.169921875 0.073059082
vt 0.170166016 0.0746459961
vt 0.171630859 0.0764160156
vt 0.170898438 0.0777587891
vt 0.17199707 0.0787963867
vt 0.171508789 0.0816650391
vt 0.172485352 0.0815429688
vt 0.17199707 0.0850219727
vt 0.172851562 0.085144043
vt 0.172119141 0.0887451172
vt 0.173339844 0.0907592773
vt 0.172485352 0.0940551758
vt 0.173706055 0.0983276367
vt 0.172607422 0.10144043
vt 0.173706055 0.108764648
vt 0.172607422 0.109558105
vt 0.172485352 0.115905762
vt 0.173583984 0.114685059
vt 0.173339844 0.120117188
vt 0.172241211 0.122436523
vt 0.172973633 0.124816895
vt 0.171875 0.126464844
vt 0.172607422 0.127807617
vt 0.171508789 0.129394531
vt 0.172119141 0.131469727
vt 0.171020508 0.131835938
vt 0.170532227 0.134521484
vt 0.171508789 0.134765625
vt 0.169921875 0.137329102
vt 0.170898438 0.137695312
vt 0.169311523 0.141235352
vt 0.170288086 0.141601562
vt 0.168945312 0.145996094
vt 0.169921875 0.146362305
vt 0.168823242 0.149902344
vt 0.169921875 0.149047852
vt 0.170166016 0.152709961
vt 0.169311523 0.154663086
vt 0.170410156 0.155761719
vt 0.169921875 0.158935547
vt 0.171020508 0.159667969
vt 0.170410156 0.162353516
vt 0.171508789 0.162597656
vt 0.170776367 0.164550781
vt 0.171875 0.165283203
vt 0.171142578 0.166748047
vt 0.172241211 0.16784668
vt 0.171386719 0.168945312
vt 0.172607422 0.170288086
vt 0.171630859 0.171386719
vt 0.172851562 0.173706055
vt 0.17175293 0.173461914
vt 0.17175293 0.175170898
vt 0.593261719 0.126098633
vt 0.591308594 0.125610352
vt 0.58984375 0.126220703
vt 0.590332031 0.127075195
vt 0.588378906 0.126953125
vt 0.593261719 0.127685547
vt 0.596679688 0.127441406
vt 0.588378906 0.127929688
vt 0.586425781 0.127929688
vt 0.595214844 0.128662109
vt 0.593261719 0.129394531
vt 0.588867188 0.12902832
vt 0.596679688 0.129760742
vt 0.599609375 0.128295898
vt 0.585449219 0.129638672
vt 0.584960938 0.12902832
vt 0.583984375 0.130249023
vt 0.58984375 0.130615234
vt 0.594238281 0.130981445
vt 0.585449219 0.130615234
vt 0.583984375 0.131225586
vt 0.583007812 0.131591797
vt 0.581542969 0.133911133
vt 0.589355469 0.132202148
vt 0.583496094 0.133422852
vt 0.58203125 0.135253906
vt 0.580566406 0.137207031
vt 0.590820312 0.133544922
vt 0.592285156 0.131713867
vt 0.594238281 0.133056641
vt 0.589355469 0.134521484
vt 0.595214844 0.136230469
vt 0.59765625 0.132324219
vt 0.595214844 0.134643555
vt 0.59765625 0.133544922
vt 0.599609375 0.131103516
vt 0.6015625 0.133056641
vt 0.599121094 0.135131836
vt 0.600097656 0.130249023
vt 0.602539062 0.134765625
vt 0.604980469 0.132202148
vt 0.608398438 0.133422852
vt 0.603515625 0.133666992
vt 0.606933594 0.134399414
vt 0.606445312 0.136230469
vt 0.609375 0.135864258
vt 0.610351562 0.134277344
vt 0.607421875 0.135620117
vt 0.608398438 0.137695312
vt 0.604980469 0.13684082
vt 0.607910156 0.139526367
vt 0.609375 0.139160156
vt 0.611328125 0.136108398
vt 0.612792969 0.135009766
vt 0.610839844 0.137939453
vt 0.6015625 0.136108398
vt 0.61328125 0.136474609
vt 0.61328125 0.136230469
vt 0.612792969 0.137084961
vt 0.612304688 0.137695312
vt 0.611328125 0.138427734
vt 0.610839844 0.139160156
vt 0.609863281 0.139892578
vt 0.609863281 0.140258789
vt 0.608886719 0.141357422
vt 0.608886719 0.141601562
vt 0.606445312 0.140136719
vt 0.604492188 0.137573242
vt 0.602050781 0.138671875
vt 0.60546875 0.141235352
vt 0.608398438 0.141723633
vt 0.607421875 0.143188477
vt 0.604492188 0.138793945
vt 0.604492188 0.143310547
vt 0.605957031 0.144897461
vt 0.603515625 0.14050293
vt 0.599121094 0.136962891
vt 0.603515625 0.146606445
vt 0.60546875 0.145874023
vt 0.602539062 0.141479492
vt 0.598632812 0.138305664
vt 0.602050781 0.14453125
vt 0.600585938 0.140380859
vt 0.594726562 0.138061523
vt 0.59765625 0.140380859
vt 0.599609375 0.142456055
vt 0.600097656 0.143676758
vt 0.591308594 0.136474609
vt 0.583496094 0.138549805
vt 0.581054688 0.139526367
vt 0.579589844 0.140380859
vt 0.582519531 0.141967773
vt 0.586425781 0.14050293
vt 0.583496094 0.145263672
vt 0.579101562 0.144042969
vt 0.578125 0.142822266
vt 0.579589844 0.146850586
vt 0.577148438 0.145996094
vt 0.591308594 0.137695312
vt 0.593261719 0.140625
vt 0.58984375 0.140136719
vt 0.586914062 0.144042969
vt 0.577636719 0.147949219
vt 0.575683594 0.148681641
vt 0.575683594 0.150756836
vt 0.577148438 0.151245117
vt 0.575683594 0.152832031
vt 0.596679688 0.141845703
vt 0.590332031 0.142822266
vt 0.59375 0.143432617
vt 0.596679688 0.144897461
vt 0.593261719 0.146118164
vt 0.58984375 0.145629883
vt 0.596679688 0.147338867
vt 0.577148438 0.152832031
vt 0.575683594 0.154663086
vt 0.578613281 0.155395508
vt 0.586425781 0.146850586
vt 0.599609375 0.147460938
vt 0.577148438 0.15637207
vt 0.576171875 0.156860352
vt 0.579101562 0.16015625
vt 0.577148438 0.159790039
vt 0.6015625 0.14831543
vt 0.580566406 0.158569336
vt 0.582519531 0.161621094
vt 0.579101562 0.162231445
vt 0.578613281 0.164916992
vt 0.583007812 0.158691406
vt 0.580078125 0.166015625
vt 0.579101562 0.169921875
vt 0.579589844 0.154052734
vt 0.58203125 0.164672852
vt 0.581542969 0.171630859
vt 0.579101562 0.176635742
vt 0.584472656 0.168212891
vt 0.581054688 0.177978516
vt 0.578613281 0.182495117
vt 0.584960938 0.165161133
vt 0.584472656 0.171875
vt 0.584960938 0.158447266
vt 0.583984375 0.155639648
vt 0.587402344 0.162231445
vt 0.58984375 0.166381836
vt 0.590820312 0.170410156
vt 0.585449219 0.175415039
vt 0.590820312 0.175415039
vt 0.580566406 0.152587891
vt 0.58203125 0.151367188
vt 0.593261719 0.170043945
vt 0.592285156 0.165649414
vt 0.586914062 0.156616211
vt 0.583007812 0.149658203
vt 0.586914062 0.153442383
vt 0.584472656 0.149291992
vt 0.587890625 0.151123047
vt 0.588867188 0.159667969
vt 0.590820312 0.163085938
vt 0.58984375 0.156616211
vt 0.58984375 0.153808594
vt 0.589355469 0.150512695
vt 0.588867188 0.148071289
vt 0.591796875 0.148925781
vt 0.591308594 0.15222168
vt 0.594726562 0.149780273
vt 0.592285156 0.155151367
vt 0.591796875 0.158325195
vt 0.59765625 0.149291992
vt 0.594726562 0.151489258
vt 0.59375 0.152954102
vt 0.599609375 0.149536133
vt 0.59375 0.155639648
vt 0.591308594 0.160522461
vt 0.596191406 0.153442383
vt 0.597167969 0.151489258
vt 0.59375 0.158691406
vt 0.592773438 0.161987305
vt 0.595703125 0.156494141
vt 0.594726562 0.160888672
vt 0.596191406 0.159057617
vt 0.598144531 0.158691406
vt 0.59765625 0.162475586
vt 0.598144531 0.15612793
vt 0.599121094 0.154785156
vt 0.595214844 0.163330078
vt 0.59765625 0.166625977
vt 0.594726562 0.165039062
vt 0.595214844 0.167358398
vt 0.597167969 0.170776367
vt 0.595214844 0.170288086
vt 0.593261719 0.174926758
vt 0.599609375 0.151733398
vt 0.6015625 0.151733398
vt 0.595214844 0.174560547
vt 0.596191406 0.178222656
vt 0.59375 0.17980957
vt 0.601074219 0.153808594
vt 0.600585938 0.154296875
vt 0.600097656 0.155395508
vt 0.6015625 0.153076172
vt 0.602050781 0.151977539
vt 0.600097656 0.15612793
vt 0.599609375 0.157714844
vt 0.599121094 0.158569336
vt 0.596679688 0.182373047
vt 0.594238281 0.184692383
vt 0.592773438 0.181030273
vt 0.58984375 0.179931641
vt 0.592773438 0.18359375
vt 0.5859375 0.181152344
vt 0.58984375 0.183349609
vt 0.582519531 0.185913086
vt 0.583007812 0.180908203
vt 0.580566406 0.183349609
vt 0.579101562 0.185058594
vt 0.577148438 0.186401367
vt 0.591308594 0.184204102
vt 0.578125 0.1875
vt 0.576660156 0.189208984
vt 0.579589844 0.188232422
vt 0.577636719 0.190307617
vt 0.575683594 0.191650391
vt 0.588378906 0.187133789
vt 0.576171875 0.192993164
vt 0.575683594 0.194702148
vt 0.580078125 0.192504883
vt 0.579101562 0.191040039
vt 0.582519531 0.188842773
vt 0.577148438 0.196411133
vt 0.575683594 0.197143555
vt 0.576171875 0.198486328
vt 0.583496094 0.192260742
vt 0.581054688 0.195068359
vt 0.581054688 0.197265625
vt 0.5859375 0.192871094
vt 0.579589844 0.200805664
vt 0.577148438 0.198974609
vt 0.576660156 0.199829102
vt 0.577636719 0.202148438
vt 0.578613281 0.204589844
vt 0.585449219 0.189819336
vt 0.589355469 0.189941406
vt 0.591308594 0.188476562
vt 0.592773438 0.187988281
vt 0.591796875 0.190917969
vt 0.58984375 0.193359375
vt 0.594238281 0.190795898
vt 0.594726562 0.188354492
vt 0.596679688 0.191772461
vt 0.593261719 0.192260742
vt 0.596191406 0.188476562
vt 0.596679688 0.185302734
vt 0.587402344 0.19543457
vt 0.584472656 0.197387695
vt 0.592285156 0.194824219
vt 0.58984375 0.196655273
vt 0.587402344 0.198730469
vt 0.582519531 0.200073242
vt 0.584472656 0.202636719
vt 0.586425781 0.202514648
vt 0.588867188 0.200927734
vt 0.582519531 0.204223633
vt 0.579589844 0.207519531
vt 0.5859375 0.206298828
vt 0.594238281 0.194335938
vt 0.596191406 0.195922852
vt 0.591308594 0.198730469
vt 0.590820312 0.203735352
vt 0.588867188 0.204956055
vt 0.59375 0.196411133
vt 0.59375 0.199462891
vt 0.583984375 0.209472656
vt 0.581054688 0.211181641
vt 0.587890625 0.209106445
vt 0.590820312 0.209472656
vt 0.591308594 0.212280273
vt 0.583984375 0.211547852
vt 0.584472656 0.213500977
vt 0.582519531 0.214233398
vt 0.590820312 0.213867188
vt 0.584472656 0.215454102
vt 0.583007812 0.215942383
vt 0.583984375 0.217041016
vt 0.588378906 0.215576172
vt 0.588867188 0.217041016
vt 0.584472656 0.216796875
vt 0.5859375 0.217407227
vt 0.584960938 0.218261719
vt 0.585449219 0.218261719
vt 0.5859375 0.219360352
vt 0.587890625 0.220703125
vt 0.59375 0.215942383
vt 0.588867188 0.21887207
vt 0.595214844 0.213623047
vt 0.594726562 0.217529297
vt 0.59375 0.211669922
vt 0.593261719 0.208007812
vt 0.597167969 0.210571289
vt 0.598144531 0.21484375
vt 0.597167969 0.216186523
vt 0.598144531 0.212646484
vt 0.593261719 0.205566406
vt 0.597167969 0.207763672
vt 0.59375 0.202392578
vt 0.595703125 0.204711914
vt 0.596191406 0.201782227
vt 0.59765625 0.200317383
vt 0.598144531 0.203857422
vt 0.601074219 0.210449219
vt 0.599121094 0.208618164
vt 0.600585938 0.207397461
vt 0.600097656 0.203369141
vt 0.602050781 0.212646484
vt 0.6015625 0.201293945
vt 0.602539062 0.204956055
vt 0.604492188 0.20300293
vt 0.603027344 0.207397461
vt 0.604003906 0.209472656
vt 0.604980469 0.205688477
vt 0.598144531 0.19909668
vt 0.60546875 0.207885742
vt 0.607421875 0.209838867
vt 0.608398438 0.207275391
vt 0.606933594 0.204833984
vt 0.609375 0.208374023
vt 0.606445312 0.203979492
vt 0.60546875 0.202758789
vt 0.604492188 0.201171875
vt 0.604003906 0.200073242
vt 0.609863281 0.209106445
vt 0.601074219 0.198852539
vt 0.603515625 0.19934082
vt 0.602539062 0.197753906
vt 0.598144531 0.196899414
vt 0.600585938 0.196777344
vt 0.602050781 0.197021484
vt 0.6015625 0.196166992
vt 0.600585938 0.193847656
vt 0.598632812 0.193725586
vt 0.599609375 0.190917969
vt 0.599121094 0.189331055
vt 0.599121094 0.189331055
vt 0.598632812 0.187744141
vt 0.598632812 0.1875
vt 0.598632812 0.185424805
vt 0.598144531 0.184448242
vt 0.598144531 0.182250977
vt 0.598144531 0.180908203
vt 0.598144531 0.17956543
vt 0.59765625 0.178100586
vt 0.598144531 0.178222656
vt 0.598144531 0.177001953
vt 0.597167969 0.174682617
vt 0.598144531 0.174438477
vt 0.598144531 0.172485352
vt 0.598144531 0.170166016
vt 0.598144531 0.170166016
vt 0.598144531 0.168334961
vt 0.598144531 0.167358398
vt 0.598144531 0.166748047
vt 0.598144531 0.166137695
vt 0.598144531 0.162963867
vt 0.598632812 0.161865234
vt 0.599121094 0.159423828
vt 0.599121094 0.158691406
vt 0.615234375 0.235229492
vt 0.613769531 0.235839844
vt 0.616210938 0.236816406
vt 0.611816406 0.232666016
vt 0.608886719 0.233154297
vt 0.613769531 0.231933594
vt 0.609375 0.229003906
vt 0.612792969 0.229248047
vt 0.603515625 0.228271484
vt 0.594238281 0.225097656
vt 0.610351562 0.224121094
vt 0.613769531 0.220458984
vt 0.612304688 0.21887207
vt 0.605957031 0.221313477
vt 0.614257812 0.21875
vt 0.611816406 0.216674805
vt 0.615234375 0.216552734
vt 0.612792969 0.215454102
vt 0.609863281 0.217529297
vt 0.610839844 0.21472168
vt 0.607910156 0.225585938
vt 0.603515625 0.223999023
vt 0.599121094 0.222045898
vt 0.600097656 0.224609375
vt 0.597167969 0.224731445
vt 0.593261719 0.222900391
vt 0.591796875 0.223388672
vt 0.607910156 0.216552734
vt 0.590332031 0.221679688
vt 0.58984375 0.222290039
vt 0.59375 0.221191406
vt 0.599121094 0.219604492
vt 0.602539062 0.220336914
vt 0.588378906 0.220336914
vt 0.591796875 0.220092773
vt 0.594238281 0.21875
vt 0.598632812 0.218017578
vt 0.6015625 0.216308594
vt 0.602539062 0.214111328
vt 0.603027344 0.215820312
vt 0.604003906 0.216796875
vt 0.604980469 0.213867188
vt 0.604980469 0.212280273
vt 0.605957031 0.216674805
vt 0.606933594 0.213378906
vt 0.607910156 0.214477539
vt 0.609375 0.212646484
vt 0.604492188 0.211303711
vt 0.606933594 0.211791992
vt 0.610839844 0.210083008
vt 0.611328125 0.2109375
vt 0.611816406 0.212402344
vt 0.612304688 0.211791992
vt 0.612792969 0.212158203
vt 0.613769531 0.213256836
vt 0.614257812 0.213623047
vt 0.614257812 0.213867188
vt 0.614746094 0.215087891
vt 0.615234375 0.21484375
vt 0.615722656 0.215209961
vt 0.616210938 0.216064453
vt 0.604980469 0.146972656
vt 0.60546875 0.146118164
vt 0.604003906 0.14855957
vt 0.603515625 0.149414062
vt 0.602539062 0.151123047
f 3/3 2/2 1/1
f 6/6 5/5 4/4
f 6/6 4/4 7/7
f 8/8 6/6 7/7
f 8/8 7/7 9/9
f 10/10 8/8 9/9
f 10/10 9/9 11/11
f 10/10 11/11 12/12
f 10/10 12/12 13/13
f 14/14 13/13 12/12
f 15/15 14/14 12/12
f 15/15 12/12 16/16
f 17/17 15/15 16/16
f 17/17 16/16 18/18
f 19/19 17/17 18/18
f 19/19 18/18 20/20
f 21/21 19/19 20/20
f 22/22 21/21 20/20
f 22/22 20/20 23/23
f 23/23 24/24 22/22
f 23/23 25/25 24/24
f 25/25 26/26 24/24
f 26/26 25/25 27/27
f 26/26 27/27 28/28
f 27/27 29/29 28/28
f 27/27 30/30 29/29
f 30/30 31/31 29/29
f 30/30 32/32 31/31
f 32/32 33/33 31/31
f 33/33 32/32 34/34
f 35/35 33/33 34/34
f 36/36 35/35 34/34
f 36/36 34/34 37/37
f 38/38 36/36 37/37
f 37/37 39/39 38/38
f 39/39 40/40 38/38
f 39/39 41/41 40/40
f 42/42 40/40 41/41
f 42/42 41/41 43/43
f 44/44 42/42 43/43
f 44/44 43/43 45/45
f 46/46 44/44 45/45
f 46/46 45/45 47/47
f 48/48 46/46 47/47
f 48/48 47/47 49/49
f 50/50 48/48 49/49
f 51/51 50/50 49/49
f 51/51 49/49 52/52
f 51/51 52/52 53/53
f 54/54 51/51 53/53
f 54/54 53/53 55/55
f 56/56 54/54 55/55
f 56/56 55/55 57/57
f 58/58 56/56 57/57
f 58/58 57/57 59/59
f 58/58 59/59 60/60
f 59/59 61/61 60/60
f 59/59 62/62 61/61
f 63/63 61/61 62/62
f 63/63 62/62 64/64
f 65/65 63/63 64/64
f 65/65 64/64 66/66
f 66/66 67/67 65/65
f 68/68 67/67 66/66
f 68/68 69/69 67/67
f 68/68 70/70 69/69
f 70/70 71/71 69/69
f 72/72 69/69 71/71
f 72/72 71/71 73/73
f 73/73 74/74 72/72
f 73/73 75/75 74/74
f 75/75 76/76 74/74
f 75/75 77/77 76/76
f 77/77 78/78 76/76
f 77/77 79/79 78/78
f 80/80 78/78 79/79
f 81/81 80/80 79/79
f 81/81 82/82 80/80
f 81/81 83/83 82/82
f 83/83 84/84 82/82
f 83/83 85/85 84/84
f 85/85 86/86 84/84
f 87/87 86/86 85/85
f 90/90 89/89 88/88
f 90/90 88/88 91/91
f 90/90 91/91 92/92
f 91/91 88/88 93/93
f 88/88 94/94 93/93
f 92/92 91/91 95/95
f 91/91 93/93 95/95
f 92/92 95/95 96/96
f 93/93 94/94 97/97
f 93/93 98/98 95/95
f 93/93 97/97 98/98
f 95/95 99/99 96/96
f 95/95 98/98 99/99
f 94/94 100/100 97/97
f 94/94 101/101 100/100
f 96/96 99/99 102/102
f 103/103 96/96 102/102
f 104/104 103/103 102/102
f 99/99 98/98 105/105
f 102/102 99/99 105/105
f 97/97 106/106 98/98
f 100/100 106/106 97/97
f 106/106 105/105 98/98
f 104/104 102/102 107/107
f 107/107 102/102 105/105
f 107/107 108/108 104/104
f 104/104 108/108 109/109
f 110/110 109/109 108/108
f 107/107 105/105 111/111
f 108/108 107/107 111/111
f 110/110 108/108 112/112
f 108/108 111/111 112/112
f 112/112 113/113 110/110
f 114/114 110/110 113/113
f 115/115 113/113 112/112
f 115/115 112/112 111/111
f 116/116 111/111 105/105
f 106/106 116/116 105/105
f 111/111 116/116 117/117
f 106/106 117/117 116/116
f 111/111 117/117 115/115
f 118/118 114/114 113/113
f 115/115 118/118 113/113
f 118/118 115/115 119/119
f 117/117 106/106 120/120
f 106/106 100/100 120/120
f 115/115 117/117 121/121
f 115/115 121/121 119/119
f 121/121 117/117 122/122
f 117/117 120/120 122/122
f 120/120 100/100 123/123
f 101/101 123/123 100/100
f 123/123 124/124 120/120
f 124/124 122/122 120/120
f 121/121 122/122 125/125
f 121/121 125/125 119/119
f 101/101 126/126 123/123
f 124/124 123/123 126/126
f 124/124 127/127 122/122
f 127/127 125/125 122/122
f 101/101 128/128 126/126
f 128/128 101/101 129/129
f 130/130 124/124 126/126
f 130/130 126/126 128/128
f 130/130 127/127 124/124
f 128/128 129/129 131/131
f 130/130 128/128 131/131
f 127/127 130/130 132/132
f 130/130 131/131 132/132
f 131/131 129/129 133/133
f 134/134 133/133 129/129
f 132/132 131/131 135/135
f 135/135 131/131 133/133
f 132/132 135/135 136/136
f 135/135 133/133 136/136
f 127/127 132/132 137/137
f 137/137 132/132 136/136
f 137/137 136/136 138/138
f 138/138 136/136 139/139
f 140/140 133/133 134/134
f 141/141 140/140 134/134
f 136/136 133/133 142/142
f 139/139 136/136 142/142
f 142/142 133/133 140/140
f 127/127 137/137 143/143
f 125/125 127/127 143/143
f 141/141 144/144 140/140
f 141/141 145/145 144/144
f 144/144 146/146 140/140
f 147/147 140/140 146/146
f 140/140 147/147 142/142
f 147/147 148/148 142/142
f 142/142 148/148 149/149
f 139/139 142/142 149/149
f 149/149 150/150 139/139
f 139/139 150/150 138/138
f 150/150 151/151 138/138
f 152/152 138/138 151/151
f 152/152 153/153 138/138
f 153/153 154/154 138/138
f 154/154 155/155 138/138
f 155/155 137/137 138/138
f 137/137 155/155 143/143
f 156/156 143/143 155/155
f 154/154 153/153 157/157
f 153/153 158/158 157/157
f 157/157 158/158 159/159
f 154/154 160/160 155/155
f 160/160 156/156 155/155
f 157/157 160/160 154/154
f 161/161 157/157 159/159
f 159/159 162/162 161/161
f 157/157 163/163 160/160
f 163/163 156/156 160/160
f 161/161 163/163 157/157
f 143/143 156/156 164/164
f 143/143 164/164 125/125
f 125/125 164/164 119/119
f 161/161 162/162 165/165
f 162/162 166/166 165/165
f 161/161 167/167 163/163
f 167/167 156/156 163/163
f 164/164 156/156 168/168
f 164/164 168/168 119/119
f 165/165 169/169 161/161
f 169/169 167/167 161/161
f 156/156 170/170 168/168
f 167/167 170/170 156/156
f 168/168 171/171 119/119
f 172/172 168/168 170/170
f 168/168 172/172 171/171
f 173/173 170/170 167/167
f 173/173 172/172 170/170
f 169/169 174/174 167/167
f 174/174 173/173 167/167
f 119/119 171/171 175/175
f 118/118 119/119 175/175
f 175/175 176/176 118/118
f 114/114 118/118 176/176
f 177/177 114/114 176/176
f 114/114 177/177 178/178
f 176/176 179/179 177/177
f 178/178 177/177 179/179
f 175/175 180/180 176/176
f 180/180 179/179 176/176
f 180/180 181/181 179/179
f 179/179 182/182 178/178
f 179/179 181/181 182/182
f 183/183 178/178 182/182
f 183/183 182/182 184/184
f 181/181 184/184 182/182
f 185/185 183/183 184/184
f 171/171 186/186 175/175
f 186/186 180/180 175/175
f 171/171 187/187 186/186
f 172/172 187/187 171/171
f 186/186 188/188 180/180
f 188/188 186/186 187/187
f 180/180 188/188 189/189
f 180/180 189/189 181/181
f 185/185 184/184 190/190
f 185/185 190/190 191/191
f 191/191 190/190 192/192
f 192/192 190/190 193/193
f 192/192 193/193 194/194
f 172/172 195/195 187/187
f 173/173 195/195 172/172
f 188/188 187/187 196/196
f 188/188 196/196 189/189
f 195/195 197/197 187/187
f 196/196 187/187 197/197
f 198/198 195/195 173/173
f 195/195 198/198 197/197
f 198/198 173/173 174/174
f 197/197 199/199 196/196
f 198/198 199/199 197/197
f 189/189 196/196 200/200
f 196/196 199/199 200/200
f 201/201 198/198 174/174
f 198/198 201/201 199/199
f 194/194 193/193 202/202
f 203/203 194/194 202/202
f 204/204 203/203 202/202
f 204/204 202/202 193/193
f 205/205 189/189 200/200
f 189/189 205/205 181/181
f 201/201 174/174 206/206
f 206/206 174/174 169/169
f 203/203 204/204 207/207
f 208/208 203/203 207/207
f 207/207 209/209 208/208
f 210/210 208/208 209/209
f 211/211 206/206 169/169
f 211/211 169/169 165/165
f 204/204 212/212 207/207
f 212/212 209/209 207/207
f 212/212 213/213 209/209
f 210/210 209/209 214/214
f 213/213 214/214 209/209
f 215/215 210/210 214/214
f 212/212 204/204 216/216
f 213/213 212/212 216/216
f 217/217 215/215 214/214
f 218/218 215/215 217/217
f 204/204 219/219 216/216
f 219/219 204/204 193/193
f 213/213 220/220 214/214
f 217/217 214/214 220/220
f 218/218 217/217 221/221
f 222/222 218/218 221/221
f 223/223 217/217 220/220
f 221/221 217/217 223/223
f 221/221 224/224 222/222
f 225/225 222/222 224/224
f 220/220 213/213 226/226
f 220/220 226/226 223/223
f 227/227 221/221 223/223
f 224/224 221/221 227/227
f 213/213 216/216 228/228
f 216/216 219/219 229/229
f 216/216 229/229 228/228
f 226/226 213/213 230/230
f 213/213 228/228 230/230
f 223/223 226/226 231/231
f 226/226 230/230 231/231
f 227/227 223/223 232/232
f 223/223 231/231 232/232
f 233/233 224/224 227/227
f 233/233 227/227 232/232
f 234/234 233/233 232/232
f 229/229 219/219 235/235
f 193/193 235/235 219/219
f 193/193 236/236 235/235
f 229/229 235/235 236/236
f 190/190 236/236 193/193
f 232/232 231/231 237/237
f 232/232 237/237 234/234
f 237/237 231/231 238/238
f 239/239 229/229 236/236
f 239/239 228/228 229/229
f 190/190 240/240 236/236
f 190/190 184/184 240/240
f 241/241 236/236 240/240
f 241/241 239/239 236/236
f 184/184 242/242 240/240
f 241/241 240/240 242/242
f 184/184 181/181 242/242
f 181/181 243/243 242/242
f 243/243 241/241 242/242
f 181/181 205/205 243/243
f 239/239 244/244 228/228
f 244/244 230/230 228/228
f 230/230 245/245 231/231
f 230/230 244/244 245/245
f 238/238 231/231 245/245
f 239/239 241/241 246/246
f 239/239 246/246 244/244
f 241/241 243/243 247/247
f 241/241 247/247 246/246
f 243/243 205/205 248/248
f 243/243 248/248 247/247
f 249/249 248/248 205/205
f 200/200 249/249 205/205
f 250/250 249/249 200/200
f 249/249 250/250 248/248
f 199/199 250/250 200/200
f 251/251 247/247 248/248
f 250/250 251/251 248/248
f 252/252 250/250 199/199
f 252/252 251/251 250/250
f 201/201 252/252 199/199
f 253/253 246/246 247/247
f 251/251 253/253 247/247
f 254/254 244/244 246/246
f 253/253 254/254 246/246
f 252/252 201/201 255/255
f 255/255 201/201 206/206
f 251/251 252/252 256/256
f 256/256 252/252 255/255
f 257/257 253/253 251/251
f 257/257 251/251 256/256
f 255/255 206/206 258/258
f 258/258 206/206 211/211
f 259/259 253/253 257/257
f 259/259 254/254 253/253
f 260/260 244/244 254/254
f 260/260 245/245 244/244
f 257/257 256/256 261/261
f 259/259 257/257 261/261
f 256/256 255/255 262/262
f 262/262 255/255 258/258
f 261/261 256/256 262/262
f 263/263 254/254 259/259
f 260/260 254/254 263/263
f 245/245 260/260 264/264
f 264/264 260/260 263/263
f 264/264 238/238 245/245
f 265/265 259/259 261/261
f 263/263 259/259 265/265
f 264/264 263/263 266/266
f 264/264 266/266 238/238
f 263/263 265/265 267/267
f 266/266 263/263 267/267
f 267/267 265/265 268/268
f 266/266 267/267 269/269
f 269/269 267/267 268/268
f 265/265 261/261 270/270
f 268/268 265/265 270/270
f 271/271 261/261 262/262
f 270/270 261/261 271/271
f 238/238 266/266 272/272
f 272/272 266/266 269/269
f 272/272 269/269 273/273
f 274/274 272/272 273/273
f 238/238 272/272 274/274
f 238/238 274/274 275/275
f 275/275 274/274 273/273
f 275/275 273/273 276/276
f 237/237 238/238 275/275
f 237/237 275/275 277/277
f 277/277 275/275 276/276
f 278/278 237/237 277/277
f 234/234 237/237 278/278
f 271/271 262/262 279/279
f 262/262 258/258 279/279
f 279/279 258/258 280/280
f 280/280 258/258 211/211
f 281/281 277/277 276/276
f 278/278 277/277 281/281
f 278/278 281/281 282/282
f 234/234 278/278 283/283
f 283/283 278/278 282/282
f 279/279 284/284 271/271
f 279/279 280/280 284/284
f 284/284 285/285 271/271
f 285/285 286/286 271/271
f 280/280 287/287 284/284
f 287/287 280/280 288/288
f 271/271 286/286 270/270
f 286/286 289/289 270/270
f 270/270 289/289 290/290
f 268/268 270/270 290/290
f 290/290 291/291 268/268
f 283/283 282/282 292/292
f 293/293 283/283 292/292
f 294/294 283/283 293/293
f 294/294 234/234 283/283
f 295/295 234/234 294/294
f 296/296 294/294 293/293
f 296/296 295/295 294/294
f 297/297 234/234 295/295
f 234/234 297/297 233/233
f 298/298 295/295 296/296
f 298/298 297/297 295/295
f 298/298 299/299 297/297
f 297/297 300/300 233/233
f 297/297 299/299 300/300
f 300/300 224/224 233/233
f 300/300 301/301 224/224
f 299/299 301/301 300/300
f 301/301 225/225 224/224
f 301/301 302/302 225/225
f 299/299 302/302 301/301
f 302/302 303/303 225/225
f 304/304 298/298 296/296
f 304/304 296/296 293/293
f 302/302 305/305 303/303
f 305/305 306/306 303/303
f 307/307 305/305 302/302
f 299/299 307/307 302/302
f 305/305 308/308 306/306
f 307/307 308/308 305/305
f 308/308 309/309 306/306
f 298/298 310/310 299/299
f 310/310 298/298 304/304
f 308/308 311/311 309/309
f 309/309 311/311 312/312
f 312/312 311/311 313/313
f 314/314 311/311 308/308
f 314/314 308/308 307/307
f 314/314 313/313 311/311
f 307/307 313/313 314/314
f 307/307 299/299 315/315
f 310/310 315/315 299/299
f 307/307 315/315 313/313
f 316/316 312/312 313/313
f 316/316 317/317 312/312
f 316/316 318/318 317/317
f 315/315 319/319 313/313
f 313/313 320/320 316/316
f 313/313 319/319 320/320
f 321/321 316/316 320/320
f 316/316 321/321 318/318
f 319/319 321/321 320/320
f 319/319 322/322 321/321
f 322/322 323/323 321/321
f 321/321 323/323 324/324
f 321/321 324/324 318/318
f 325/325 318/318 324/324
f 325/325 324/324 323/323
f 326/326 325/325 323/323
f 327/327 326/326 323/323
f 319/319 315/315 328/328
f 319/319 328/328 322/322
f 310/310 328/328 315/315
f 328/328 310/310 329/329
f 322/322 328/328 329/329
f 329/329 310/310 330/330
f 330/330 310/310 304/304
f 330/330 304/304 331/331
f 304/304 293/293 331/331
f 332/332 329/329 330/330
f 332/332 330/330 331/331
f 322/322 329/329 333/333
f 333/333 329/329 332/332
f 332/332 331/331 334/334
f 331/331 293/293 335/335
f 331/331 335/335 334/334
f 334/334 335/335 336/336
f 337/337 332/332 334/334
f 333/333 332/332 337/337
f 334/334 336/336 337/337
f 335/335 293/293 338/338
f 335/335 338/338 336/336
f 293/293 339/339 338/338
f 293/293 292/292 339/339
f 340/340 322/322 333/333
f 322/322 340/340 341/341
f 322/322 341/341 323/323
f 342/342 333/333 337/337
f 340/340 333/333 343/343
f 343/343 333/333 342/342
f 344/344 341/341 340/340
f 344/344 340/340 343/343
f 341/341 345/345 323/323
f 341/341 344/344 345/345
f 346/346 323/323 345/345
f 346/346 327/327 323/323
f 344/344 347/347 345/345
f 346/346 345/345 347/347
f 343/343 348/348 344/344
f 344/344 348/348 347/347
f 327/327 346/346 349/349
f 350/350 327/327 349/349
f 346/346 351/351 349/349
f 346/346 347/347 351/351
f 350/350 349/349 351/351
f 342/342 337/337 352/352
f 352/352 337/337 336/336
f 352/352 336/336 353/353
f 343/343 342/342 354/354
f 343/343 354/354 348/348
f 354/354 355/355 348/348
f 348/348 356/356 347/347
f 351/351 347/347 356/356
f 355/355 356/356 348/348
f 357/357 342/342 352/352
f 354/354 342/342 357/357
f 357/357 352/352 353/353
f 354/354 357/357 358/358
f 355/355 354/354 358/358
f 358/358 357/357 353/353
f 351/351 359/359 350/350
f 359/359 360/360 350/350
f 351/351 356/356 361/361
f 351/351 361/361 359/359
f 356/356 362/362 361/361
f 356/356 355/355 362/362
f 361/361 363/363 359/359
f 361/361 362/362 363/363
f 360/360 359/359 364/364
f 360/360 364/364 365/365
f 366/366 360/360 365/365
f 367/367 364/364 359/359
f 367/367 359/359 363/363
f 365/365 364/364 367/367
f 366/366 365/365 368/368
f 369/369 366/366 368/368
f 370/370 369/369 368/368
f 367/367 371/371 365/365
f 368/368 365/365 371/371
f 372/372 368/368 371/371
f 370/370 368/368 373/373
f 373/373 368/368 372/372
f 373/373 374/374 370/370
f 374/374 373/373 372/372
f 375/375 370/370 374/374
f 376/376 375/375 374/374
f 376/376 374/374 372/372
f 377/377 375/375 376/376
f 378/378 377/377 376/376
f 371/371 367/367 379/379
f 372/372 371/371 379/379
f 376/376 372/372 380/380
f 378/378 376/376 380/380
f 381/381 379/379 367/367
f 381/381 367/367 363/363
f 380/380 372/372 382/382
f 372/372 379/379 382/382
f 383/383 381/381 363/363
f 383/383 363/363 362/362
f 384/384 383/383 362/362
f 355/355 384/384 362/362
f 383/383 385/385 381/381
f 383/383 384/384 385/385
f 381/381 386/386 379/379
f 379/379 387/387 382/382
f 386/386 387/387 379/379
f 381/381 385/385 388/388
f 388/388 386/386 381/381
f 355/355 389/389 384/384
f 385/385 384/384 390/390
f 384/384 389/389 390/390
f 389/389 355/355 391/391
f 355/355 358/358 391/391
f 389/389 391/391 392/392
f 389/389 392/392 390/390
f 391/391 358/358 393/393
f 391/391 393/393 392/392
f 393/393 358/358 394/394
f 358/358 353/353 394/394
f 392/392 393/393 395/395
f 392/392 395/395 390/390
f 393/393 394/394 395/395
f 385/385 396/396 388/388
f 385/385 390/390 397/397
f 385/385 397/397 396/396
f 390/390 398/398 397/397
f 390/390 395/395 398/398
f 397/397 398/398 396/396
f 395/395 394/394 399/399
f 395/395 399/399 398/398
f 388/388 396/396 400/400
f 400/400 386/386 388/388
f 399/399 394/394 401/401
f 398/398 399/399 402/402
f 399/399 401/401 402/402
f 402/402 401/401 403/403
f 396/396 398/398 404/404
f 398/398 402/402 404/404
f 396/396 405/405 400/400
f 396/396 404/404 405/405
f 404/404 402/402 406/406
f 402/402 403/403 406/406
f 394/394 407/407 401/401
f 394/394 353/353 407/407
f 405/405 404/404 408/408
f 404/404 406/406 408/408
f 405/405 408/408 409/409
f 408/408 406/406 410/410
f 408/408 410/410 409/409
f 406/406 411/411 410/410
f 406/406 403/403 411/411
f 409/409 410/410 412/412
f 403/403 413/413 411/411
f 414/414 413/413 403/403
f 403/403 415/415 414/414
f 416/416 415/415 403/403
f 401/401 416/416 403/403
f 417/417 409/409 412/412
f 401/401 418/418 416/416
f 418/418 419/419 416/416
f 401/401 407/407 418/418
f 418/418 420/420 419/419
f 407/407 421/421 418/418
f 407/407 353/353 421/421
f 418/418 422/422 420/420
f 418/418 421/421 422/422
f 422/422 423/423 420/420
f 424/424 423/423 422/422
f 422/422 425/425 424/424
f 421/421 425/425 422/422
f 353/353 426/426 421/421
f 421/421 426/426 425/425
f 353/353 336/336 426/426
f 426/426 427/427 425/425
f 336/336 427/427 426/426
f 336/336 338/338 427/427
f 338/338 428/428 427/427
f 338/338 430/430 429/429
f 338/338 339/339 430/430
f 339/339 431/431 430/430
f 339/339 432/432 431/431
f 339/339 292/292 432/432
f 292/292 433/433 432/432
f 292/292 434/434 433/433
f 292/292 282/282 434/434
f 282/282 435/435 434/434
f 436/436 435/435 282/282
f 437/437 436/436 282/282
f 438/438 436/436 437/437
f 282/282 281/281 437/437
f 439/439 438/438 437/437
f 437/437 281/281 440/440
f 437/437 440/440 439/439
f 440/440 441/441 439/439
f 281/281 276/276 440/440
f 440/440 276/276 441/441
f 276/276 442/442 441/441
f 276/276 443/443 442/442
f 443/443 444/444 442/442
f 276/276 273/273 443/443
f 273/273 445/445 443/443
f 446/446 445/445 273/273
f 448/448 447/447 273/273
f 273/273 269/269 448/448
f 269/269 449/449 448/448
f 450/450 449/449 269/269
f 269/269 268/268 450/450
f 268/268 451/451 450/450
f 452/452 451/451 268/268
f 455/455 454/454 453/453
f 456/456 453/453 454/454
f 456/456 454/454 457/457
f 453/453 456/456 458/458
f 456/456 459/459 458/458
f 459/459 460/460 458/458
f 461/461 456/456 457/457
f 461/461 459/459 456/456
f 461/461 457/457 462/462
f 459/459 463/463 460/460
f 460/460 463/463 464/464
f 464/464 463/463 465/465
f 465/465 463/463 466/466
f 464/464 465/465 467/467
f 467/467 465/465 468/468
f 467/467 468/468 469/469
f 470/470 469/469 468/468
f 468/468 465/465 471/471
f 466/466 471/471 465/465
f 472/472 468/468 471/471
f 472/472 470/470 468/468
f 459/459 473/473 463/463
f 463/463 473/473 466/466
f 473/473 459/459 474/474
f 466/466 473/473 474/474
f 474/474 475/475 466/466
f 459/459 476/476 474/474
f 476/476 475/475 474/474
f 461/461 476/476 459/459
f 477/477 476/476 461/461
f 477/477 475/475 476/476
f 462/462 477/477 461/461
f 462/462 478/478 477/477
f 477/477 478/478 475/475
f 462/462 479/479 478/478
f 471/471 466/466 480/480
f 472/472 471/471 480/480
f 479/479 481/481 478/478
f 479/479 482/482 481/481
f 482/482 378/378 481/481
f 478/478 483/483 475/475
f 481/481 483/483 478/478
f 483/483 484/484 475/475
f 484/484 485/485 475/475
f 485/485 466/466 475/475
f 466/466 485/485 480/480
f 486/486 481/481 378/378
f 486/486 378/378 380/380
f 481/481 487/487 483/483
f 481/481 486/486 487/487
f 486/486 380/380 487/487
f 483/483 487/487 484/484
f 487/487 380/380 488/488
f 487/487 488/488 484/484
f 380/380 382/382 488/488
f 488/488 382/382 489/489
f 488/488 489/489 484/484
f 387/387 489/489 382/382
f 490/490 489/489 387/387
f 490/490 484/484 489/489
f 386/386 490/490 387/387
f 491/491 490/490 386/386
f 400/400 491/491 386/386
f 490/490 492/492 484/484
f 491/491 492/492 490/490
f 492/492 493/493 484/484
f 485/485 484/484 493/493
f 494/494 492/492 491/491
f 494/494 493/493 492/492
f 491/491 400/400 495/495
f 491/491 495/495 494/494
f 485/485 493/493 496/496
f 485/485 496/496 480/480
f 494/494 497/497 493/493
f 497/497 496/496 493/493
f 497/497 494/494 495/495
f 498/498 480/480 496/496
f 497/497 498/498 496/496
f 472/472 480/480 498/498
f 499/499 498/498 497/497
f 499/499 472/472 498/498
f 400/400 500/500 495/495
f 400/400 405/405 500/500
f 500/500 405/405 409/409
f 500/500 409/409 495/495
f 497/497 495/495 501/501
f 501/501 495/495 409/409
f 499/499 497/497 501/501
f 409/409 417/417 501/501
f 502/502 501/501 417/417
f 499/499 501/501 502/502
f 499/499 502/502 503/503
f 472/472 499/499 504/504
f 504/504 499/499 503/503
f 503/503 505/505 504/504
f 505/505 506/506 504/504
f 507/507 504/504 506/506
f 470/470 472/472 504/504
f 504/504 507/507 470/470
f 507/507 508/508 470/470
f 470/470 508/508 509/509
f 510/510 470/470 509/509
f 509/509 511/511 510/510
f 469/469 470/470 510/510
f 510/510 512/512 469/469
f 512/512 513/513 469/469
f 165/165 515/515 514/514
f 165/165 514/514 516/516
f 165/165 516/516 211/211
f 516/516 517/517 211/211
f 211/211 517/517 280/280
f 517/517 518/518 280/280
