v 0.0386190234 0.0197591367 0.0165627702
v 0.0373727478 0.020640629 0.0158312003
v 0.0399291092 0.0185715739 0.0170943094
v 0.037151262 0.0194178694 0.0165686899
v 0.0373727478 0.020640629 0.0158312003
v 0.0386190234 0.0197591367 0.0165627702
v 0.0314581975 0.0212020443 0.0138892938
v 0.0278598317 0.0244591992 0.0107795677
v 0.0219881179 0.0241350402 0.00990866465
v 0.0231382574 0.0260240011 0.008114308
v 0.0154493282 0.0252623125 0.00844508031
v 0.0128058402 0.0273592636 0.0054336153
v 0.00158733709 0.0271869155 0.00518682646
v 0.0128058402 0.0273592636 0.0054336153
v -0.0134163559 0.026552928 0.00643034073
v 0.00790916888 0.0254790946 0.00826206597
v 0.0154493282 0.0252623125 0.00844508031
v -0.010869708 0.0246778267 0.00957705633
v -0.0200101211 0.0254285475 0.00801171991
v -0.0257651546 0.0235615785 0.0101166028
v -0.0192865763 0.021783514 0.0123335703
v -0.0294106597 0.0246875399 0.00711576286
v -0.0293692855 0.0215903044 0.0120585522
v -0.0232189007 0.0178393553 0.0159129253
v -0.0330300141 0.0139303622 0.0186302859
v -0.0248061476 0.0142540164 0.0187372658
v -0.0255669738 0.0100044133 0.0209249425
v -0.0337675367 0.00838008196 0.0203962787
v -0.0257825599 0.00477012756 0.0214967091
v -0.0339079845 -0.00778895925 0.0204026073
v -0.025676842 -0.00884282787 0.0212200917
v -0.0330318481 -0.0135398833 0.0187790953
v -0.024832196 -0.0139483971 0.0188361329
v -0.0233079801 -0.0175920743 0.0159660543
v -0.0252731388 -0.0215419852 0.0122240832
v -0.0205039378 -0.0207037785 0.0131511813
v -0.0167741813 -0.0228961275 0.0111245325
v -0.0394029877 0.0163221173 0.0156689566
v -0.0410373917 0.0139997407 0.0170240208
v -0.0366761543 0.02221195 0.00846568291
v -0.0459280027 0.0186081936 0.00749195533
v -0.0397339135 0.0238101895 0.00301652217
v -0.0480648406 0.0159083416 0.00896032798
v -0.0335593382 0.0268370611 -0.00109675293
v -0.0293180488 0.0286760743 -0.00924550986
v 0.00158733709 0.0271869155 0.00518682646
v -0.0422721854 0.00967707814 0.0181789743
v -0.0466180306 0.0110093463 0.0142829449
v -0.0428053757 0.00290833039 0.018540067
v -0.0473583122 0.00569097269 0.0146596285
v -0.0477619086 -0.0052419642 0.0143148965
v -0.0428896683 -0.00635134067 0.0183338852
v -0.0421119263 -0.010287184 0.0180128118
v -0.0513894436 0.0128492668 0.00734163041
v -0.0523866978 0.0104237302 0.00749770479
v -0.0575898165 0.00954465073 -0.0015077283
v -0.0549626141 0.0136027428 0.00036390411
v -0.0533932136 0.0169214106 -0.00126834784
v -0.0513470852 0.00432511721 0.0104892679
v -0.0578298247 0.0154695307 -0.0103741157
v -0.049338154 0.0209563776 -0.00184476357
v -0.0547054111 0.00379041843 0.00598118168
v -0.0539243239 0.0199211045 -0.00940694517
v -0.0415716692 0.0252728285 -0.00261819296
v -0.0546011548 -0.00179593739 0.00620052379
v -0.0523262595 -0.00483061834 0.00913372787
v -0.0587203367 0.00172617507 -0.001220165
v -0.04494916 0.0261845697 -0.0104424973
v -0.0405036868 0.0275233492 -0.00963092607
v -0.0503656649 0.0230344041 -0.00991576453
v -0.0342901588 0.02867211 -0.0102094586
v -0.0494090074 -0.011441682 0.0108888024
v -0.0550119664 -0.00953200914 0.0036061796
v -0.058507785 -0.0046430727 -0.0013151337
v -0.04562679 -0.0111565776 0.0149939442
v -0.0458077776 -0.0151148033 0.0120956938
v -0.0407349714 -0.0137432994 0.0171481937
v -0.0389392736 -0.0159635577 0.0159611547
v -0.0529740227 -0.0128778413 0.00465885896
v -0.0567676081 -0.012076427 -0.00199604801
v -0.052260699 -0.0179411511 -0.00103859493
v -0.0501822899 -0.0159186908 0.00563479261
v -0.0466734591 -0.0185532303 0.00624842723
v -0.0417880553 -0.0175170928 0.0124149723
v -0.0291829181 -0.0225725187 0.0106220468
v -0.0185589677 -0.0256676389 0.00745207071
v -0.0324248985 -0.023499476 0.00791427956
v -0.0390882847 -0.0208967501 0.0087414468
v -0.0108834209 -0.0264235898 0.00636352052
v -0.0105235741 -0.0245413199 0.00954270508
v 0.012638009 -0.0271618937 0.00538274035
v 0.0112106122 -0.025229676 0.00828101256
v -0.0427525355 -0.0221367657 0.00346554989
v -0.0391816291 -0.0247598456 0.00065310287
v -0.0459707642 -0.0230156668 -0.00237163422
v -0.0212318502 -0.0274143841 -0.00120135355
v -0.0274208382 -0.0249576139 0.0066268236
v -0.0328609289 -0.0263401598 0.000348518711
v 0.00139406945 -0.027742132 -0.00130611861
v 0.012638009 -0.0271618937 0.00538274035
v 0.0112539335 -0.0283532126 -0.0025676376
v 0.00591329404 -0.0286424586 -0.0111289577
v -0.0304018996 -0.0284657636 -0.00916774807
v -0.0335872322 -0.0293902937 -0.0181331066
v 0.00247649986 -0.0290665773 -0.0281696382
v -0.0358213586 -0.0297669789 -0.028213585
v -0.0423870344 -0.0291070385 -0.0281916873
v -0.0338688933 -0.0286865107 -0.0110048997
v -0.0401968811 -0.0275323406 -0.0103023405
v -0.0390889709 -0.0291003763 -0.0199151458
v -0.0449433957 -0.0276087997 -0.0198896189
v -0.04987809 -0.0261784691 -0.0281967397
v -0.0451182167 -0.0256488197 -0.00943195992
v -0.050381761 -0.0249579447 -0.0198744514
v -0.0550554987 -0.0225836969 -0.0281997956
v -0.0504842707 -0.0226548058 -0.00948739398
v -0.0551837187 -0.0212882504 -0.0198613998
v -0.0602882981 -0.0167874003 -0.0281817862
v -0.0539737561 -0.0201134873 -0.0107323664
v -0.057504965 -0.0154293818 -0.00955022551
v -0.0591302858 -0.0167223706 -0.0198495793
v -0.0599962475 -0.0103998982 -0.00939393285
v -0.0620393887 -0.0114306265 -0.0198378315
v -0.0634028916 -0.0108018122 -0.0281830784
v -0.0615201887 -0.00442879419 -0.00939600868
v -0.06403072 -0.004524311 -0.0197974368
v -0.065234955 -0.00425612004 -0.0281865301
v -0.062175619 0.000634709498 -0.0104472856
v -0.0646086933 -8.95318218e-05 -0.0208160985
v -0.0654882172 0.00306309167 -0.0282087596
v -0.0607980476 0.00339015765 -0.00677660864
v -0.0614164403 0.00673542354 -0.0105475374
v -0.063721842 0.00601644231 -0.0198292852
v -0.0635553684 0.0104424153 -0.0281869754
v -0.060079434 0.0107498561 -0.00987848398
v -0.0619515962 0.0117427499 -0.0198377733
v -0.0610504197 0.0156530824 -0.0281995948
v -0.0590223252 0.0169805389 -0.0198494061
v -0.0571421133 0.0206860402 -0.0282041932
v -0.0550730289 0.0214948154 -0.0198611553
v -0.0507691432 0.0258098952 -0.0281913672
v -0.0502851523 0.0251211037 -0.0198741851
v -0.0448719943 0.0277383126 -0.0198893278
v -0.0417512518 0.0293814046 -0.0282090477
v -0.0390510712 0.0292098319 -0.0199147922
v -0.0334023291 0.0295847159 -0.0191745959
v -0.0337361559 0.0299639825 -0.0282024295
v -6.34542029e-05 0.0290917291 -0.0281876069
v 0.00522203704 0.0286226427 -0.00809660633
v 0.00929364221 0.0284100338 -0.00231801732
v 0.0128058402 0.0273592636 0.0054336153
v 0.012638009 -0.0271618937 0.00538274035
v 0.0112106122 -0.025229676 0.00828101256
v 0.0185776713 -0.0245861838 0.00904507469
v 0.0211859276 -0.0261558725 0.0075262149
v 0.0251187498 -0.023171497 0.0109604829
v 0.0270366865 -0.0247408409 0.0100511978
v 0.0325621184 -0.022785824 0.0130584391
v 0.0360524097 -0.0210436393 0.0151887973
v 0.036293884 -0.0191946744 0.0163338234
v 0.0388460542 -0.0192589122 0.0168533326
v -0.0358213586 -0.0297669789 -0.028213585
v -0.0393011931 -0.029252636 -0.0285368063
v -0.0423870344 -0.0291070385 -0.0281916873
v 0.0031696963 -0.0285129846 -0.0285178161
v 0.00247649986 -0.0290665773 -0.0281696382
v 0.0140048924 -0.0296843779 -0.0281456363
v 0.0171741759 -0.0297638747 -0.0286673428
v 0.02537042 -0.0313415636 -0.0281590328
v 0.0299182428 -0.0317825793 -0.028511681
v 0.0362946041 -0.0340459749 -0.0282019639
v 0.0440204693 -0.0364223835 -0.0285004353
v 0.0426590533 -0.0363248247 -0.0282014138
v 0.0462254338 -0.0370104262 -0.0281605666
v 0.0789760586 -0.0366459415 -0.0285043294
v 0.0881517105 -0.0367042037 -0.0281243032
v 0.105529037 -0.0347560703 -0.0285409915
v 0.100415599 -0.0357004901 -0.0281246874
v 0.109393979 -0.034249221 -0.0281046319
v 0.11727568 -0.0321700921 -0.0280479435
v 0.120946651 -0.0303935881 -0.028528439
v 0.12393622 -0.0294868988 -0.0281640678
v 0.130007488 -0.0258814575 -0.0281567802
v 0.130729379 -0.0248248604 -0.0285279442
v 0.134346962 -0.0220359287 -0.0281280314
v 0.137658174 -0.017872902 -0.0281743676
v 0.136630018 -0.0183920446 -0.028525159
v 0.140552224 -0.0119359663 -0.0282087101
v 0.140257076 -0.0113346899 -0.0284862996
v 0.141868322 -0.00665489057 -0.0281490677
v 0.141915388 0.00472143042 -0.0285186077
v 0.142386823 9.00601654e-05 -0.0281774555
v 0.141890742 0.00666314085 -0.0282232766
v -0.0423870344 -0.0291070385 -0.0281916873
v -0.0393011931 -0.029252636 -0.0285368063
v -0.0485502189 -0.0264162298 -0.0285471702
v -0.04987809 -0.0261784691 -0.0281967397
v -0.0550554987 -0.0225836969 -0.0281997956
v -0.0533709282 -0.023346383 -0.0285228365
v -0.0581756451 -0.0188378435 -0.0285239366
v -0.0602882981 -0.0167874003 -0.0281817862
v -0.0621105068 -0.0126492286 -0.0285230606
v -0.0634028916 -0.0108018122 -0.0281830784
v -0.0643607515 -0.00632306018 -0.0285176095
v -0.065234955 -0.00425612004 -0.0281865301
v -0.0654882172 0.00306309167 -0.0282087596
v -0.0651089011 0.00188068474 -0.0285239832
v -0.0637191064 0.00842131074 -0.028534056
v -0.0635553684 0.0104424153 -0.0281869754
v -0.0608328336 0.0151662321 -0.0285294547
v -0.0610504197 0.0156530824 -0.0281995948
v -0.0559780474 0.0212469497 -0.0285444316
v -0.0571421133 0.0206860402 -0.0282041932
v -0.0507691432 0.0258098952 -0.0281913672
v -0.0480294658 0.0267158541 -0.0285530841
v -0.0417512518 0.0293814046 -0.0282090477
v -0.0412685618 0.0288951495 -0.0285275804
v -0.0341135685 0.0294435448 -0.0285356597
v -0.0337361559 0.0299639825 -0.0282024295
v -6.34542029e-05 0.0290917291 -0.0281876069
v 0.00560763113 0.0287820532 -0.0285205286
v 0.0169649636 0.0300136351 -0.0281627727
v 0.0168940711 0.0295414488 -0.0285304937
v 0.0293406921 0.0317077818 -0.0285031681
v 0.026632863 0.0316833111 -0.0282059656
v 0.0392121581 0.0351146946 -0.028177377
v 0.0447473224 0.0365915194 -0.0285240239
v 0.0433346836 0.0366747854 -0.0281868764
v 0.0468346607 0.0371056388 -0.028165977
v 0.141915388 0.00472143042 -0.0285186077
v 0.141890742 0.00666314085 -0.0282232766
v 0.140656495 0.0117960691 -0.0282024674
v 0.138654477 0.0154916609 -0.0285229558
v 0.138405243 0.0169089709 -0.0282181863
v 0.131849838 0.0240840875 -0.0285373273
v 0.134218051 0.0222969918 -0.0281762652
v 0.12985803 0.0261281381 -0.0281661632
v 0.123576456 0.0297947778 -0.0281673914
v 0.121175146 0.030452367 -0.028509603
v 0.115986852 0.0326909954 -0.028138468
v 0.106141585 0.0347205327 -0.0285157934
v 0.108860011 0.0344631008 -0.0281209708
v 0.0999632144 0.0358658959 -0.0281291897
v 0.0857607138 0.0369307602 -0.0281469082
v 0.0840711608 0.036636075 -0.0285148999
v 0.0468346607 0.0371056388 -0.028165977
v 0.0447473224 0.0365915194 -0.0285240239
v 0.00247649986 -0.0290665773 -0.0281696382
v 0.00591329404 -0.0286424586 -0.0111289577
v 0.0140048924 -0.0296843779 -0.0281456363
v 0.0196657665 -0.0302134879 -0.0127534295
v 0.02537042 -0.0313415636 -0.0281590328
v 0.0112539335 -0.0283532126 -0.0025676376
v 0.0309157941 -0.0324394672 -0.0200091919
v 0.0362946041 -0.0340459749 -0.0282019639
v 0.031649522 -0.0320918365 -0.0142436271
v 0.0380606682 -0.0342519542 -0.0199838178
v 0.0426590533 -0.0363248247 -0.0282014138
v 0.0429925744 -0.0356449592 -0.0227563942
v 0.0462254338 -0.0370104262 -0.0281605666
v 0.0242739447 -0.0297874046 -0.00550116019
v 0.012638009 -0.0271618937 0.00538274035
v 0.0349867971 -0.0311853857 -0.0101996637
v 0.0211859276 -0.0261558725 0.0075262149
v 0.0414547129 -0.0302922817 -0.0085953463
v 0.0270366865 -0.0247408409 0.0100511978
v 0.0772459348 -0.0366966493 -0.0265016744
v 0.0881517105 -0.0367042037 -0.0281243032
v 0.0853664389 -0.0347901352 -0.020822919
v 0.0999515789 -0.0337183534 -0.0208834084
v 0.100415599 -0.0357004901 -0.0281246874
v 0.109502152 -0.0322599159 -0.0208610683
v 0.109393979 -0.034249221 -0.0281046319
v 0.11727568 -0.0321700921 -0.0280479435
v 0.116995701 -0.0303795837 -0.0207531135
v 0.12474597 -0.027536261 -0.0208215846
v 0.12393622 -0.0294868988 -0.0281640678
v 0.130007488 -0.0258814575 -0.0281567802
v 0.129805798 -0.0246318904 -0.0207820733
v 0.134580444 -0.0207814154 -0.0208877056
v 0.134346962 -0.0220359287 -0.0281280314
v 0.137658174 -0.017872902 -0.0281743676
v 0.137751504 -0.0168300303 -0.021017516
v 0.140452735 -0.0116246368 -0.0208877769
v 0.140552224 -0.0119359663 -0.0282087101
v 0.141868322 -0.00665489057 -0.0281490677
v 0.141825434 -0.00651075167 -0.0207991485
v 0.142360863 -0.000274377536 -0.0207013712
v 0.142386823 9.00601654e-05 -0.0281774555
v 0.141938205 0.00612376393 -0.0208379875
v 0.141890742 0.00666314085 -0.0282232766
v 0.140392884 0.0117126677 -0.020738125
v 0.140656495 0.0117960691 -0.0282024674
v 0.13805623 0.0165959562 -0.0210293045
v 0.138405243 0.0169089709 -0.0282181863
v 0.134218051 0.0222969918 -0.0281762652
v 0.134020995 0.0213608103 -0.0208087629
v 0.12985803 0.0261281381 -0.0281661632
v 0.129771684 0.0247507644 -0.0207826364
v 0.124131781 0.0278342333 -0.0207686593
v 0.123576456 0.0297947778 -0.0281673914
v 0.119174898 0.0298533693 -0.0208417157
v 0.115986852 0.0326909954 -0.028138468
v 0.112340399 0.0318138842 -0.0208962607
v 0.108860011 0.0344631008 -0.0281209708
v 0.0997259368 0.033805691 -0.0208360449
v 0.0999632144 0.0358658959 -0.0281291897
v 0.0874961929 0.0348395337 -0.0209456848
v 0.0857607138 0.0369307602 -0.0281469082
v 0.0732122249 0.0352704438 -0.0209114602
v 0.0468346607 0.0371056388 -0.028165977
v 0.0430315469 0.0357076098 -0.0225821714
v 0.0433346836 0.0366747854 -0.0281868764
v 0.0376839219 0.0341136041 -0.0190271719
v 0.0365173853 0.0315828193 -0.0110558976
v 0.0392121581 0.0351146946 -0.028177377
v 0.0327730843 0.0324463413 -0.0146138133
v 0.0503130926 0.034049798 -0.0179366776
v 0.0732122249 0.0352704438 -0.0209114602
v 0.0316987862 0.0327587883 -0.0211001548
v 0.0219081865 0.0306823717 -0.0144843929
v 0.026632863 0.0316833111 -0.0282059656
v 0.0169649636 0.0300136351 -0.0281627727
v 0.0246475861 0.0304813838 -0.00783126961
v 0.0136037186 0.0296796131 -0.023429071
v -6.34542029e-05 0.0290917291 -0.0281876069
v 0.00522203704 0.0286226427 -0.00809660633
v 0.00929364221 0.0284100338 -0.00231801732
v 0.0128058402 0.0273592636 0.0054336153
v 0.0231382574 0.0260240011 0.008114308
v 0.0418049112 0.0298722858 -0.00702349425
v 0.0351064264 0.0241004994 0.00968871973
v 0.0278598317 0.0244591992 0.0107795677
v 0.0373727478 0.020640629 0.0158312003
v 0.0557126689 0.0240548141 0.00148933423
v 0.0399291092 0.0185715739 0.0170943094
v 0.059177782 0.0306750729 -0.0120604345
v 0.0692842324 0.0334439481 -0.0177615759
v 0.0872035599 0.0322248863 -0.017797458
v 0.0874961929 0.0348395337 -0.0209456848
v 0.0997259368 0.033805691 -0.0208360449
v 0.0822874635 0.0278410836 -0.0115027855
v 0.0733558183 0.0247116905 -0.00499741109
v 0.0600531737 0.0210530061 0.00445029691
v 0.0767178813 0.0229045365 -0.00437044291
v 0.0880803658 0.0256767777 -0.0104333012
v 0.100047814 0.0303921028 -0.0179528332
v 0.111036687 0.0280445451 -0.0180522737
v 0.112340399 0.0318138842 -0.0208962607
v 0.119174898 0.0298533693 -0.0208417157
v 0.102720722 0.0243040852 -0.0135498369
v 0.0841883226 0.020762763 -0.00554031176
v 0.071340111 0.0172249584 0.00143697944
v 0.119054292 0.0253952678 -0.0180494448
v 0.124131781 0.0278342333 -0.0207686593
v 0.082999187 0.0161951699 -0.00310978685
v 0.105724761 0.0191890538 -0.0117997755
v 0.126859451 0.0219412695 -0.0181849784
v 0.129771684 0.0247507644 -0.0207826364
v 0.134020995 0.0213608103 -0.0208087629
v 0.0521370077 0.0191635978 0.00990251865
v 0.0565038631 0.0154578875 0.00949486421
v 0.0677452238 0.0117106793 0.00480699491
v 0.0460934028 0.0130410376 0.0167033068
v 0.0396324772 0.0172118429 0.0184022152
v 0.0380955567 0.0128531629 0.0220775895
v 0.0551645111 0.0100065071 0.0120445322
v 0.0482365632 0.00342184707 0.0173355671
v 0.0400283838 0.00206816535 0.0233695246
v 0.046246939 -0.00761362494 0.0181131618
v 0.0398276582 -0.00490294021 0.0232336475
v 0.0383130052 -0.0118861312 0.0222647592
v 0.0566044997 0.000147034703 0.0120715871
v 0.0702858898 0.00527336302 0.00445984588
v 0.0863316637 0.00744136441 -0.0025556632
v 0.0470743964 -0.014851327 0.0150526845
v 0.0381063187 -0.0134104 0.0216657369
v 0.0552488266 -0.00888172753 0.0121458441
v 0.0656145046 -0.00370756688 0.0069824011
v 0.0755997612 -0.0056392931 0.0020900934
v 0.0635395769 -0.0128694114 0.00672972892
v 0.051805466 -0.0192199745 0.00974855648
v 0.0400116334 -0.0182059224 0.0171584295
v 0.0566138557 -0.0229400038 0.00265846193
v 0.0580774753 -0.0186974205 0.00700868695
v 0.069067908 -0.0160275185 0.00300592219
v 0.085112116 -0.0130605169 -0.00306956281
v 0.0746028577 -0.0239518813 -0.00477904396
v 0.0785086556 -0.0223603628 -0.00469895058
v 0.0871455649 -0.00385955684 -0.00266371808
v 0.0386987016 -0.0209084853 0.0143729383
v 0.0388460542 -0.0192589122 0.0168533326
v 0.0360524097 -0.0210436393 0.0151887973
v 0.0325621184 -0.022785824 0.0130584391
v 0.0831989472 -0.0188776481 -0.0042724474
v 0.0486182771 -0.0274393956 -0.00359603946
v 0.056592075 -0.0306468408 -0.0119176766
v 0.0701221896 -0.0290081426 -0.0112679176
v 0.0861876901 -0.0270956819 -0.0116500159
v 0.0995429487 -0.0240742171 -0.0126730883
v 0.0505752542 -0.0341308521 -0.0183555137
v 0.0686326326 -0.0333982198 -0.0178185306
v 0.0639019157 -0.0349857905 -0.0203469841
v 0.0853664389 -0.0347901352 -0.020822919
v 0.0880828854 -0.0325514887 -0.0183541619
v 0.0999515789 -0.0337183534 -0.0208834084
v 0.100060299 -0.0304848596 -0.0181307754
v 0.111334855 -0.0279740304 -0.0181193987
v 0.109502152 -0.0322599159 -0.0208610683
v 0.116995701 -0.0303795837 -0.0207531135
v 0.101963537 -0.0207828341 -0.0114626462
v 0.11943643 -0.0253224845 -0.0181442228
v 0.12474597 -0.027536261 -0.0208215846
v 0.104191645 -0.0176446348 -0.0108916829
v 0.127516281 -0.0217294878 -0.0183128024
v 0.129805798 -0.0246318904 -0.0207820733
v 0.134580444 -0.0207814154 -0.0208877056
v 0.107455651 -0.0125478263 -0.0106151332
v 0.132681745 -0.0171387379 -0.0181619558
v 0.0947684466 -0.0106089331 -0.00614892124
v 0.110554347 -0.00731441885 -0.0109087159
v 0.13759205 -0.0165993155 -0.0204256634
v 0.137751504 -0.0168300303 -0.021017516
v 0.140452735 -0.0116246368 -0.0208877769
v 0.13623708 -0.0124538125 -0.0181721087
v 0.138695085 -0.00587295278 -0.0181923431
v 0.141825434 -0.00651075167 -0.0207991485
v 0.142360863 -0.000274377536 -0.0207013712
v 0.0987786685 -0.00225408995 -0.00688173459
v 0.115341973 0.000146369291 -0.0120775978
v 0.110341782 0.00831603484 -0.0108982938
v 0.0965122418 0.00710531429 -0.00632543015
v 0.139186985 4.12138782e-05 -0.0181802563
v 0.138808542 0.00592347691 -0.0182609496
v 0.141938205 0.00612376393 -0.0208379875
v 0.140392884 0.0117126677 -0.020738125
v 0.0921251648 0.0139439035 -0.00582003449
v 0.106472567 0.013815487 -0.0105228413
v 0.131901084 0.0178663103 -0.018127072
v 0.136119196 0.0128135655 -0.0181533687
v 0.137514491 0.016851482 -0.0204629629
v 0.13805623 0.0165959562 -0.0210293045
v -0.00829930464 0.0287058785 -0.0337932899
v -0.00810540482 -0.0286218368 -0.0337902195
v 0.0144826485 0.029241845 -0.0337860489
v 0.0184695349 -0.0294897544 -0.0337798876
v 0.0414505458 -0.00328877215 -0.033788904
v 0.0306448202 0.0320445482 -0.0337932521
v 0.0352986914 -0.033657532 -0.0335464312
v 0.042409275 0.0359256149 -0.0339386461
v 0.0423058258 -0.035748045 -0.0339032413
v -0.011793555 -0.0283792014 -0.0353484997
v -0.0116828701 0.0285836596 -0.0352821051
v -0.0399345703 0.028908354 -0.0354025571
v -0.0363061296 -0.028884414 -0.0354025367
v -0.04454692 -0.0277036025 -0.0354024727
v -0.0543576122 -0.0222174717 -0.0354056043
v -0.0602627043 -0.0154301271 -0.0354037562
v -0.0642373745 -0.00594009996 -0.035405907
v -0.0647274198 0.00348564406 -0.0354046031
v -0.0614696543 0.0134539096 -0.0354030868
v -0.0564814796 0.0202231205 -0.0354044721
v -0.0501770956 0.0252178419 -0.0354061282
v 0.0439518129 0.0361719615 -0.0354187476
v 0.0440224367 -0.0361777338 -0.0354163494
v 0.0784216475 0.0369194061 -0.0353974436
v 0.0787927568 -0.0367462712 -0.0353975629
v 0.102965688 -0.0351606807 -0.0353970827
v 0.1185147 -0.0314730756 -0.0353955053
v 0.12808624 -0.0266128079 -0.0353955955
v 0.134026843 -0.0215339692 -0.035395514
v 0.138093137 -0.0154688688 -0.0353951706
v 0.14094119 -0.00705482312 -0.0353949261
v 0.141276756 0.00384950361 -0.0353945856
v 0.140108551 0.0102714867 -0.0353948388
v 0.137679755 0.0164147878 -0.0353948504
v 0.132041946 0.0237418381 -0.035395677
v 0.121219791 0.0304817503 -0.035396457
v 0.106517455 0.0347454485 -0.0353961659
v 0.0447473224 0.0365915194 -0.0285240239
v 0.0424001247 0.036378162 -0.0290358323
v 0.0459335246 0.0372388237 -0.0290127995
v 0.0786998917 0.0372526858 -0.0289543183
v 0.0840711608 0.036636075 -0.0285148999
v 0.0963298339 0.0364087752 -0.0290074677
v 0.106141585 0.0347205327 -0.0285157934
v 0.109111317 0.0345995949 -0.0289802207
v 0.121175146 0.030452367 -0.028509603
v 0.117197327 0.0324355017 -0.0289900054
v 0.123691742 0.0298441612 -0.0289628195
v 0.131849838 0.0240840875 -0.0285373273
v 0.129223403 0.0266307263 -0.0290103839
v 0.132963606 0.0236702821 -0.0289740303
v 0.138654477 0.0154916609 -0.0285229558
v 0.136972427 0.0190424882 -0.0290025229
v 0.139888712 0.0137082613 -0.028997683
v 0.141915388 0.00472143042 -0.0285186077
v 0.141561985 0.00824843083 -0.0289925491
v 0.142360746 0.00227579229 -0.0290520547
v 0.0447473224 0.0365915194 -0.0285240239
v 0.0358898745 0.0340563218 -0.0290270546
v 0.0424001247 0.036378162 -0.0290358323
v 0.0293406921 0.0317077818 -0.0285031681
v 0.0266091579 0.0316871266 -0.0290913711
v 0.0164574874 0.0299267922 -0.029041915
v 0.0168940711 0.0295414488 -0.0285304937
v 0.00497988658 0.0291103269 -0.0290219061
v 0.00560763113 0.0287820532 -0.0285205286
v -0.0120202156 0.0292521251 -0.0290300435
v -0.0341135685 0.0294435448 -0.0285356597
v -0.0354910587 0.0299916368 -0.0290302793
v -0.0412685618 0.0288951495 -0.0285275804
v -0.0422592097 0.0292046162 -0.0290153141
v -0.0477702555 0.0273721629 -0.0290067779
v -0.0480294658 0.0267158541 -0.0285530841
v -0.0530492652 0.0242514111 -0.0290086493
v -0.0559780474 0.0212469497 -0.0285444316
v -0.058980963 0.0188407699 -0.0290280266
v -0.0608328336 0.0151662321 -0.0285294547
v -0.0631559068 0.0116666047 -0.0289977324
v -0.0637191064 0.00842131074 -0.028534056
v -0.065220986 0.00478229825 -0.0289977121
v -0.0651089011 0.00188068474 -0.0285239832
v -0.0656510644 -0.000642156384 -0.0289940392
v -0.0643607515 -0.00632306018 -0.0285176095
v -0.0648606679 -0.00639948833 -0.0289804273
v -0.062681 -0.0125318224 -0.0289977383
v -0.0621105068 -0.0126492286 -0.0285230606
v -0.0588791428 -0.0188671992 -0.0290148892
v -0.0581756451 -0.0188378435 -0.0285239366
v -0.0512483216 -0.0254176136 -0.0290133525
v -0.0533709282 -0.023346383 -0.0285228365
v -0.0485502189 -0.0264162298 -0.0285471702
v -0.0446985334 -0.0284454417 -0.0290109718
v -0.0393011931 -0.029252636 -0.0285368063
v -0.0371580277 -0.0298745497 -0.0290107186
v 0.142019371 -0.00581892086 -0.0290174416
v 0.141915388 0.00472143042 -0.0285186077
v 0.142360746 0.00227579229 -0.0290520547
v 0.140257076 -0.0113346899 -0.0284862996
v 0.139231446 -0.0152401941 -0.0289772026
v 0.136630018 -0.0183920446 -0.028525159
v 0.133550402 -0.0229718265 -0.0289715012
v 0.130729379 -0.0248248604 -0.0285279442
v 0.128904115 -0.0267782252 -0.0289743009
v 0.120946651 -0.0303935881 -0.028528439
v 0.12287322 -0.030128065 -0.0289825577
v 0.1164833 -0.0325683403 -0.0290104595
v 0.105529037 -0.0347560703 -0.0285409915
v 0.105632717 -0.0351706806 -0.0289540854
v 0.0872163134 -0.0368889636 -0.0289528165
v 0.0789760586 -0.0366459415 -0.0285043294
v 0.0464093846 -0.0371354621 -0.0289726479
v 0.0440204693 -0.0364223835 -0.0285004353
v 0.043276753 -0.0366131184 -0.0290207216
v 0.0383775304 -0.0347542863 -0.029046589
v 0.0299182428 -0.0317825793 -0.028511681
v 0.0305595254 -0.0324923664 -0.0290298281
v 0.0171741759 -0.0297638747 -0.0286673428
v -0.0371580277 -0.0298745497 -0.0290107186
v -0.0393011931 -0.029252636 -0.0285368063
v 0.0031696963 -0.0285129846 -0.0285178161
v -0.0148646173 -0.029192971 -0.0290189317
v 0.00533057609 -0.0290272083 -0.0290268945
v 0.0171741759 -0.0297638747 -0.0286673428
v 0.0440224367 -0.0361777338 -0.0354163494
v 0.0439518129 0.0361719615 -0.0354187476
v 0.0429262986 0.036403852 -0.0347622728
v 0.0430015763 -0.0364571015 -0.0347155146
v 0.0423058258 -0.035748045 -0.0339032413
v 0.042409275 0.0359256149 -0.0339386461
v 0.14094119 -0.00705482312 -0.0353949261
v 0.142308267 -0.00334088756 -0.0345873326
v 0.141276756 0.00384950361 -0.0353945856
v 0.142000196 0.00642604868 -0.0345783745
v 0.140108551 0.0102714867 -0.0353948388
v 0.139692238 0.0144937009 -0.0345709879
v 0.137679755 0.0164147878 -0.0353948504
v 0.136437812 0.0201354592 -0.0345722452
v 0.132041946 0.0237418381 -0.035395677
v 0.13300271 0.0239792731 -0.0345641776
v 0.127572273 0.0282582589 -0.0345815002
v 0.121219791 0.0304817503 -0.035396457
v 0.119002975 0.0323315517 -0.0345737732
v 0.106517455 0.0347454485 -0.0353961659
v 0.10989882 0.0349716787 -0.0345585984
v 0.0965692653 0.0369544546 -0.0345439767
v 0.0784216475 0.0369194061 -0.0353974436
v 0.0748463349 0.037909588 -0.0345590524
v 0.0439518129 0.0361719615 -0.0354187476
v 0.0454448742 0.0374745297 -0.0345890294
v 0.0429262986 0.036403852 -0.0347622728
v 0.0425872157 0.0364153858 -0.0336411555
v 0.042409275 0.0359256149 -0.0339386461
v 0.142308267 -0.00334088756 -0.0345873326
v 0.14094119 -0.00705482312 -0.0353949261
v 0.141281798 -0.00944236164 -0.0345809851
v 0.139768376 -0.0141356615 -0.0345761771
v 0.138093137 -0.0154688688 -0.0353951706
v 0.136961336 -0.0192692747 -0.0345817825
v 0.134026843 -0.0215339692 -0.035395514
v 0.131856291 -0.0251054794 -0.0345337117
v 0.12808624 -0.0266128079 -0.0353955955
v 0.124957299 -0.0296092512 -0.0345527747
v 0.1185147 -0.0314730756 -0.0353955053
v 0.117883543 -0.0326925116 -0.0345456065
v 0.108947596 -0.03510288 -0.0345239707
v 0.102965688 -0.0351606807 -0.0353970827
v 0.0955581406 -0.0369417281 -0.0345204724
v 0.0787927568 -0.0367462712 -0.0353975629
v 0.0757459817 -0.0377666139 -0.0345288543
v 0.0459387815 -0.037460904 -0.0345807144
v 0.0440224367 -0.0361777338 -0.0354163494
v 0.0430015763 -0.0364571015 -0.0347155146
v 0.0423280438 -0.0362549813 -0.0334603857
v 0.0423058258 -0.035748045 -0.0339032413
v 0.0352986914 -0.033657532 -0.0335464312
v -0.0380676359 -0.0298738804 -0.0345860375
v -0.011793555 -0.0283792014 -0.0353484997
v -0.0363061296 -0.028884414 -0.0354025367
v -0.0115836196 -0.0292641237 -0.0345862994
v -0.00983824178 -0.0287319862 -0.0340504164
v -0.00881391424 -0.0292197023 -0.0334014214
v -0.00810540482 -0.0286218368 -0.0337902195
v 0.00378045078 -0.0290083288 -0.0333706063
v 0.0184695349 -0.0294897544 -0.0337798876
v -0.0380676359 -0.0298738804 -0.0345860375
v -0.0363061296 -0.028884414 -0.0354025367
v -0.04454692 -0.0277036025 -0.0354024727
v -0.0463587993 -0.02802575 -0.0346124958
v -0.0525054209 -0.0247123581 -0.0346678076
v -0.0543576122 -0.0222174717 -0.0354056043
v -0.0582910766 -0.0196794768 -0.0346990884
v -0.0602627043 -0.0154301271 -0.0354037562
v -0.0617329426 -0.0147547321 -0.0346911285
v -0.0651037082 -0.0066349267 -0.0346450135
v -0.0642373745 -0.00594009996 -0.035405907
v -0.0658186679 0.00298363873 -0.0346108223
v -0.0647274198 0.00348564406 -0.0354046031
v -0.0624794117 0.0136423496 -0.034686143
v -0.0614696543 0.0134539096 -0.0354030868
v -0.0581748917 0.0198694856 -0.0346978224
v -0.0564814796 0.0202231205 -0.0354044721
v -0.0532620375 0.0243041909 -0.0346657675
v -0.0501770956 0.0252178419 -0.0354061282
v -0.046032204 0.028257292 -0.0346354267
v -0.0399345703 0.028908354 -0.0354025571
v -0.0372463543 0.0300112468 -0.0346019748
v -0.0110060839 0.0292262577 -0.034608072
v -0.0116828701 0.0285836596 -0.0352821051
v -0.0110060839 0.0292262577 -0.034608072
v -0.0116828701 0.0285836596 -0.0352821051
v -0.011793555 -0.0283792014 -0.0353484997
v -0.00983824178 -0.0287319862 -0.0340504164
v -0.00829930464 0.0287058785 -0.0337932899
v -0.00810540482 -0.0286218368 -0.0337902195
v 0.0184695349 -0.0294897544 -0.0337798876
v 0.0195732498 -0.030103458 -0.0333928125
v 0.0352986914 -0.033657532 -0.0335464312
v 0.00378045078 -0.0290083288 -0.0333706063
v -0.00953994206 0.0293319047 -0.0334388373
v -0.0110060839 0.0292262577 -0.034608072
v -0.00829930464 0.0287058785 -0.0337932899
v 0.00650820039 0.0291352428 -0.0333461096
v 0.0144826485 0.029241845 -0.0337860489
v 0.0216712392 0.0306364168 -0.0333939126
v 0.0306448202 0.0320445482 -0.0337932521
v 0.0353981857 0.0338618034 -0.0334014505
v 0.042409275 0.0359256149 -0.0339386461
v 0.0425872157 0.0364153858 -0.0336411555
v -0.0371580277 -0.0298745497 -0.0290107186
v -0.0380676359 -0.0298738804 -0.0345860375
v -0.0446985334 -0.0284454417 -0.0290109718
v -0.0463587993 -0.02802575 -0.0346124958
v -0.0512483216 -0.0254176136 -0.0290133525
v -0.0525054209 -0.0247123581 -0.0346678076
v -0.0588791428 -0.0188671992 -0.0290148892
v -0.0582910766 -0.0196794768 -0.0346990884
v -0.0617329426 -0.0147547321 -0.0346911285
v -0.062681 -0.0125318224 -0.0289977383
v -0.0651037082 -0.0066349267 -0.0346450135
v -0.0648606679 -0.00639948833 -0.0289804273
v -0.0656510644 -0.000642156384 -0.0289940392
v -0.0658186679 0.00298363873 -0.0346108223
v -0.065220986 0.00478229825 -0.0289977121
v -0.0631559068 0.0116666047 -0.0289977324
v -0.0624794117 0.0136423496 -0.034686143
v -0.058980963 0.0188407699 -0.0290280266
v -0.0581748917 0.0198694856 -0.0346978224
v -0.0532620375 0.0243041909 -0.0346657675
v -0.0530492652 0.0242514111 -0.0290086493
v -0.0477702555 0.0273721629 -0.0290067779
v -0.046032204 0.028257292 -0.0346354267
v -0.0422592097 0.0292046162 -0.0290153141
v -0.0372463543 0.0300112468 -0.0346019748
v -0.0354910587 0.0299916368 -0.0290302793
v -0.0110060839 0.0292262577 -0.034608072
v -0.0120202156 0.0292521251 -0.0290300435
v -0.00953994206 0.0293319047 -0.0334388373
v 0.00497988658 0.0291103269 -0.0290219061
v 0.00650820039 0.0291352428 -0.0333461096
v 0.0164574874 0.0299267922 -0.029041915
v 0.0216712392 0.0306364168 -0.0333939126
v 0.0266091579 0.0316871266 -0.0290913711
v 0.0358898745 0.0340563218 -0.0290270546
v 0.0353981857 0.0338618034 -0.0334014505
v 0.0425872157 0.0364153858 -0.0336411555
v 0.0424001247 0.036378162 -0.0290358323
v -0.0148646173 -0.029192971 -0.0290189317
v -0.0380676359 -0.0298738804 -0.0345860375
v -0.0371580277 -0.0298745497 -0.0290107186
v -0.0115836196 -0.0292641237 -0.0345862994
v -0.00881391424 -0.0292197023 -0.0334014214
v 0.00378045078 -0.0290083288 -0.0333706063
v 0.00533057609 -0.0290272083 -0.0290268945
v 0.0171741759 -0.0297638747 -0.0286673428
v 0.0195732498 -0.030103458 -0.0333928125
v 0.0305595254 -0.0324923664 -0.0290298281
v 0.0352986914 -0.033657532 -0.0335464312
v 0.0383775304 -0.0347542863 -0.029046589
v 0.0423280438 -0.0362549813 -0.0334603857
v 0.043276753 -0.0366131184 -0.0290207216
v 0.0459387815 -0.037460904 -0.0345807144
v 0.0464093846 -0.0371354621 -0.0289726479
v 0.0757459817 -0.0377666139 -0.0345288543
v 0.0872163134 -0.0368889636 -0.0289528165
v 0.0955581406 -0.0369417281 -0.0345204724
v 0.105632717 -0.0351706806 -0.0289540854
v 0.108947596 -0.03510288 -0.0345239707
v 0.1164833 -0.0325683403 -0.0290104595
v 0.117883543 -0.0326925116 -0.0345456065
v 0.124957299 -0.0296092512 -0.0345527747
v 0.12287322 -0.030128065 -0.0289825577
v 0.131856291 -0.0251054794 -0.0345337117
v 0.128904115 -0.0267782252 -0.0289743009
v 0.133550402 -0.0229718265 -0.0289715012
v 0.136961336 -0.0192692747 -0.0345817825
v 0.139231446 -0.0152401941 -0.0289772026
v 0.139768376 -0.0141356615 -0.0345761771
v 0.141281798 -0.00944236164 -0.0345809851
v 0.142019371 -0.00581892086 -0.0290174416
v 0.142308267 -0.00334088756 -0.0345873326
v 0.142360746 0.00227579229 -0.0290520547
v 0.0425872157 0.0364153858 -0.0336411555
v 0.0454448742 0.0374745297 -0.0345890294
v 0.0424001247 0.036378162 -0.0290358323
v 0.0459335246 0.0372388237 -0.0290127995
v 0.0748463349 0.037909588 -0.0345590524
v 0.0786998917 0.0372526858 -0.0289543183
v 0.0963298339 0.0364087752 -0.0290074677
v 0.0965692653 0.0369544546 -0.0345439767
v 0.109111317 0.0345995949 -0.0289802207
v 0.10989882 0.0349716787 -0.0345585984
v 0.117197327 0.0324355017 -0.0289900054
v 0.119002975 0.0323315517 -0.0345737732
v 0.123691742 0.0298441612 -0.0289628195
v 0.127572273 0.0282582589 -0.0345815002
v 0.129223403 0.0266307263 -0.0290103839
v 0.13300271 0.0239792731 -0.0345641776
v 0.132963606 0.0236702821 -0.0289740303
v 0.136972427 0.0190424882 -0.0290025229
v 0.136437812 0.0201354592 -0.0345722452
v 0.139692238 0.0144937009 -0.0345709879
v 0.139888712 0.0137082613 -0.028997683
v 0.141561985 0.00824843083 -0.0289925491
v 0.142000196 0.00642604868 -0.0345783745
v 0.142360746 0.00227579229 -0.0290520547
v 0.142308267 -0.00334088756 -0.0345873326
v -0.025676842 -0.00884282787 0.0212200917
v -0.0257825599 0.00477012756 0.0214967091
v -0.0255669738 0.0100044133 0.0209249425
v -0.024832196 -0.0139483971 0.0188361329
v -0.0233079801 -0.0175920743 0.0159660543
v -0.0248061476 0.0142540164 0.0187372658
v -0.0232189007 0.0178393553 0.0159129253
v -0.0205039378 -0.0207037785 0.0131511813
v -0.0192865763 0.021783514 0.0123335703
v -0.0167741813 -0.0228961275 0.0111245325
v -0.0105235741 -0.0245413199 0.00954270508
v -0.010869708 0.0246778267 0.00957705633
v 0.00790916888 0.0254790946 0.00826206597
v 0.0112106122 -0.025229676 0.00828101256
v 0.0154493282 0.0252623125 0.00844508031
v 0.0185776713 -0.0245861838 0.00904507469
v 0.0251187498 -0.023171497 0.0109604829
v 0.0219881179 0.0241350402 0.00990866465
v 0.0314581975 0.0212020443 0.0138892938
v 0.036293884 -0.0191946744 0.0163338234
v 0.037151262 0.0194178694 0.0165686899
v 0.0388460542 -0.0192589122 0.0168533326
v 0.0396324772 0.0172118429 0.0184022152
v 0.0380955567 0.0128531629 0.0220775895
v 0.0383130052 -0.0118861312 0.0222647592
v 0.0381063187 -0.0134104 0.0216657369
v 0.0400116334 -0.0182059224 0.0171584295
v 0.0399291092 0.0185715739 0.0170943094
v 0.0399291092 0.0185715739 0.0170943094
v 0.0400116334 -0.0182059224 0.0171584295
v 0.0386190234 0.0197591367 0.0165627702
v 0.0388460542 -0.0192589122 0.0168533326
v 0.037151262 0.0194178694 0.0165686899
v 0.0380955567 0.0128531629 0.0220775895
v 0.0398276582 -0.00490294021 0.0232336475
v 0.0383130052 -0.0118861312 0.0222647592
v 0.0400283838 0.00206816535 0.0233695246
vt 0.419433594 0.563476562
vt 0.418457031 0.562988281
vt 0.420410156 0.564453125
vt 0.419189453 0.5625
vt 0.418457031 0.562988281
vt 0.419433594 0.563476562
vt 0.416015625 0.559082031
vt 0.412353516 0.557617188
vt 0.410888672 0.553710938
vt 0.409667969 0.555175781
vt 0.408203125 0.549316406
vt 0.405517578 0.548828125
vt 0.164306641 0.705078125
vt 0.171386719 0.710449219
vt 0.156005859 0.696777344
vt 0.170410156 0.706542969
vt 0.175170898 0.709960938
vt 0.159667969 0.696289062
vt 0.152954102 0.692871094
vt 0.150878906 0.688964844
vt 0.156494141 0.690429688
vt 0.147094727 0.688964844
vt 0.149902344 0.686035156
vt 0.156494141 0.685546875
vt 0.151123047 0.6796875
vt 0.156982422 0.681640625
vt 0.157958984 0.678222656
vt 0.151855469 0.67578125
vt 0.158691406 0.674316406
vt 0.152099609 0.666015625
vt 0.158569336 0.6640625
vt 0.151733398 0.662109375
vt 0.157714844 0.66015625
vt 0.157348633 0.656738281
vt 0.153808594 0.653808594
vt 0.157714844 0.652832031
vt 0.158935547 0.649414062
vt 0.145996094 0.680175781
vt 0.145874023 0.678222656
vt 0.144042969 0.685058594
vt 0.139282227 0.681152344
vt 0.139770508 0.686523438
vt 0.139160156 0.679199219
vt 0.14050293 0.69140625
vt 0.138061523 0.697265625
vt 0.164306641 0.705078125
vt 0.145874023 0.67578125
vt 0.142211914 0.676269531
vt 0.146118164 0.672363281
vt 0.142211914 0.673339844
vt 0.142089844 0.66796875
vt 0.145996094 0.667480469
vt 0.146240234 0.665039062
vt 0.137084961 0.677246094
vt 0.13671875 0.676269531
vt 0.130004883 0.67578125
vt 0.132080078 0.678222656
vt 0.131713867 0.680664062
vt 0.138671875 0.672851562
vt 0.124633789 0.680175781
vt 0.13293457 0.68359375
vt 0.135131836 0.672363281
vt 0.126708984 0.68359375
vt 0.135864258 0.687988281
vt 0.135375977 0.669433594
vt 0.137817383 0.66796875
vt 0.129882812 0.671386719
vt 0.129760742 0.689453125
vt 0.132202148 0.691894531
vt 0.127807617 0.686035156
vt 0.134887695 0.6953125
vt 0.140014648 0.664550781
vt 0.134155273 0.665527344
vt 0.130004883 0.66796875
vt 0.143432617 0.664550781
vt 0.142089844 0.662597656
vt 0.146606445 0.663085938
vt 0.147094727 0.661621094
vt 0.135498047 0.663574219
vt 0.130493164 0.663574219
vt 0.133056641 0.659667969
vt 0.137207031 0.661621094
vt 0.139160156 0.659667969
vt 0.144165039 0.660644531
vt 0.150390625 0.654296875
vt 0.155395508 0.647949219
vt 0.147216797 0.653808594
vt 0.143920898 0.657226562
vt 0.159790039 0.643554688
vt 0.161987305 0.645507812
vt 0.174194336 0.631347656
vt 0.175170898 0.633789062
vt 0.139648438 0.65625
vt 0.140014648 0.653320312
vt 0.135131836 0.655273438
vt 0.149169922 0.644042969
vt 0.149536133 0.650878906
vt 0.143188477 0.650390625
vt 0.163085938 0.633300781
vt 0.174194336 0.631347656
vt 0.168579102 0.627929688
vt 0.16027832 0.625976562
vt 0.139404297 0.64453125
vt 0.132446289 0.641601562
vt 0.148193359 0.618652344
vt 0.12487793 0.638183594
vt 0.121154785 0.642089844
vt 0.136474609 0.645507812
vt 0.133544922 0.648925781
vt 0.128295898 0.644042969
vt 0.125244141 0.647460938
vt 0.116882324 0.646972656
vt 0.131591797 0.651855469
vt 0.122558594 0.650878906
vt 0.114074707 0.651367188
vt 0.129150391 0.655273438
vt 0.120239258 0.654785156
vt 0.11138916 0.656738281
vt 0.126708984 0.657226562
vt 0.125854492 0.660644531
vt 0.118408203 0.658691406
vt 0.124816895 0.6640625
vt 0.117004395 0.662597656
vt 0.109741211 0.662109375
vt 0.124084473 0.66796875
vt 0.116027832 0.667480469
vt 0.108886719 0.666992188
vt 0.123046875 0.670898438
vt 0.114929199 0.670410156
vt 0.108642578 0.672851562
vt 0.125854492 0.672363281
vt 0.123168945 0.674316406
vt 0.115905762 0.674316406
vt 0.109375 0.678222656
vt 0.124084473 0.677246094
vt 0.116577148 0.678222656
vt 0.110412598 0.682617188
vt 0.117736816 0.682617188
vt 0.112121582 0.687011719
vt 0.11932373 0.686035156
vt 0.11505127 0.692871094
vt 0.121337891 0.689941406
vt 0.123779297 0.693359375
vt 0.119506836 0.698730469
vt 0.126464844 0.696777344
vt 0.129760742 0.699707031
vt 0.123718262 0.703613281
vt 0.142700195 0.721191406
vt 0.158325195 0.713867188
vt 0.164306641 0.712890625
vt 0.171386719 0.710449219
vt 0.461669922 0.548828125
vt 0.459960938 0.546875
vt 0.457519531 0.551757812
vt 0.458007812 0.554199219
vt 0.454101562 0.555664062
vt 0.454833984 0.557617188
vt 0.451171875 0.560546875
vt 0.448486328 0.5625
vt 0.447265625 0.562011719
vt 0.446289062 0.563476562
vt 0.00225830078 0.0367736816
vt 0.00268363953 0.0339355469
vt 0.00257110596 0.0314025879
vt 0.00309944153 0.0681762695
vt 0.00263214111 0.0676269531
vt 0.00295639038 0.0771484375
vt 0.00340461731 0.0798950195
vt 0.00283813477 0.0869140625
vt 0.00308227539 0.0905761719
vt 0.00219154358 0.0962524414
vt 0.00158309937 0.104125977
vt 0.00137996674 0.102661133
vt 0.00107955933 0.106323242
vt 0.00103473663 0.135986328
vt 0.000575065613 0.14440918
vt 0.000881671906 0.155883789
vt 0.000528335571 0.15234375
vt 0.000684738159 0.158691406
vt 0.00104618073 0.164306641
vt 0.00176239014 0.167480469
vt 0.00166034698 0.169799805
vt 0.00226211548 0.173706055
vt 0.00266647339 0.174560547
vt 0.00264167786 0.177856445
vt 0.00325584412 0.180908203
vt 0.00348472595 0.180297852
vt 0.0036239624 0.184204102
vt 0.00389862061 0.184570312
vt 0.00320243835 0.187866211
vt 0.00357055664 0.194580078
vt 0.00315666199 0.191894531
vt 0.00350761414 0.195800781
vt 0.505371094 0.386230469
vt 0.506835938 0.387939453
vt 0.503417969 0.380615234
vt 0.502441406 0.379882812
vt 0.500488281 0.375732422
vt 0.501464844 0.376953125
vt 0.499511719 0.372314453
vt 0.498291016 0.370361328
vt 0.497802734 0.366943359
vt 0.497070312 0.365478516
vt 0.497314453 0.362060547
vt 0.496826172 0.360351562
vt 0.497314453 0.355224609
vt 0.497802734 0.355957031
vt 0.498046875 0.3515625
vt 0.497802734 0.350341797
vt 0.498535156 0.347167969
vt 0.498291016 0.347167969
vt 0.498535156 0.342773438
vt 0.498291016 0.34375
vt 0.497802734 0.337890625
vt 0.498291016 0.336181641
vt 0.498535156 0.331787109
vt 0.499267578 0.331542969
vt 0.500488281 0.326904297
vt 0.5 0.326416016
vt 0.506835938 0.3046875
vt 0.508300781 0.301269531
vt 0.509277344 0.293945312
vt 0.509765625 0.294189453
vt 0.511230469 0.286621094
vt 0.510742188 0.288085938
vt 0.51171875 0.281005859
vt 0.512207031 0.277832031
vt 0.51171875 0.278564453
vt 0.512695312 0.276611328
vt 0.764160156 0.259277344
vt 0.763671875 0.260253906
vt 0.763183594 0.262939453
vt 0.763183594 0.266357422
vt 0.762695312 0.267578125
vt 0.76171875 0.273681641
vt 0.76171875 0.271484375
vt 0.761230469 0.275634766
vt 0.76171875 0.280273438
vt 0.76171875 0.281982422
vt 0.76171875 0.286132812
vt 0.762695312 0.292236328
vt 0.762207031 0.290283203
vt 0.762695312 0.297119141
vt 0.763671875 0.305908203
vt 0.764160156 0.306884766
vt 0.765625 0.33203125
vt 0.766113281 0.333251953
vt 0.484863281 0.551269531
vt 0.473632812 0.548828125
vt 0.481933594 0.559570312
vt 0.471191406 0.559570312
vt 0.479003906 0.567871094
vt 0.467041016 0.550292969
vt 0.47265625 0.569824219
vt 0.4765625 0.576171875
vt 0.468994141 0.568847656
vt 0.470947266 0.575195312
vt 0.474853516 0.581054688
vt 0.471435547 0.580078125
vt 0.474121094 0.583984375
vt 0.465332031 0.560546875
vt 0.461669922 0.548828125
vt 0.465576172 0.569824219
vt 0.458007812 0.554199219
vt 0.462646484 0.57421875
vt 0.454833984 0.557617188
vt 0.465087891 0.606445312
vt 0.463134766 0.614746094
vt 0.459228516 0.610839844
vt 0.455566406 0.62109375
vt 0.459960938 0.624023438
vt 0.452880859 0.627929688
vt 0.457275391 0.630371094
vt 0.454589844 0.635742188
vt 0.450439453 0.633300781
vt 0.447509766 0.638183594
vt 0.451904297 0.640625
vt 0.448486328 0.645019531
vt 0.445068359 0.641113281
vt 0.442382812 0.644042969
vt 0.445556641 0.647949219
vt 0.442382812 0.650390625
vt 0.439941406 0.645996094
vt 0.436767578 0.646972656
vt 0.437988281 0.65234375
vt 0.434326172 0.653320312
vt 0.43359375 0.647949219
vt 0.430175781 0.647949219
vt 0.4296875 0.653808594
vt 0.426513672 0.647460938
vt 0.425048828 0.652832031
vt 0.423339844 0.646484375
vt 0.421630859 0.651855469
vt 0.420410156 0.645507812
vt 0.418212891 0.649902344
vt 0.414550781 0.646972656
vt 0.417724609 0.642578125
vt 0.411621094 0.643554688
vt 0.415527344 0.640136719
vt 0.413330078 0.63671875
vt 0.408691406 0.639160156
vt 0.411621094 0.633300781
vt 0.406005859 0.633789062
vt 0.409667969 0.62890625
vt 0.404052734 0.628417969
vt 0.406738281 0.619628906
vt 0.402099609 0.621582031
vt 0.404296875 0.610839844
vt 0.399169922 0.611328125
vt 0.401367188 0.600585938
vt 0.391357422 0.583007812
vt 0.394042969 0.578613281
vt 0.390625 0.580078125
vt 0.395263672 0.573730469
vt 0.400146484 0.5703125
vt 0.389892578 0.577148438
vt 0.397216797 0.568847656
vt 0.398681641 0.582519531
vt 0.401367188 0.600585938
vt 0.392822266 0.569824219
vt 0.395019531 0.560546875
vt 0.387451172 0.567382812
vt 0.385498047 0.560546875
vt 0.399658203 0.561035156
vt 0.387695312 0.556640625
vt 0.382080078 0.548339844
vt 0.395507812 0.546875
vt 0.399902344 0.548339844
vt 0.405517578 0.548828125
vt 0.409667969 0.555175781
vt 0.404052734 0.573242188
vt 0.413574219 0.563476562
vt 0.412353516 0.557617188
vt 0.418457031 0.562988281
vt 0.413818359 0.580566406
vt 0.420410156 0.564453125
vt 0.404785156 0.587402344
vt 0.402832031 0.596679688
vt 0.406738281 0.609863281
vt 0.404296875 0.610839844
vt 0.406738281 0.619628906
vt 0.410888672 0.604492188
vt 0.413818359 0.595703125
vt 0.417480469 0.583007812
vt 0.415527344 0.598144531
vt 0.413330078 0.608398438
vt 0.409667969 0.619140625
vt 0.412353516 0.626953125
vt 0.409667969 0.62890625
vt 0.411621094 0.633300781
vt 0.414794922 0.619628906
vt 0.417236328 0.604003906
vt 0.420166016 0.592285156
vt 0.414794922 0.632324219
vt 0.413330078 0.63671875
vt 0.420654297 0.602539062
vt 0.418701172 0.621582031
vt 0.417236328 0.637695312
vt 0.415527344 0.640136719
vt 0.417724609 0.642578125
vt 0.419189453 0.575195312
vt 0.421875 0.578613281
vt 0.424072266 0.588378906
vt 0.424072266 0.568847656
vt 0.421386719 0.563476562
vt 0.424804688 0.561523438
vt 0.42578125 0.576660156
vt 0.430419922 0.5703125
vt 0.431640625 0.5625
vt 0.437988281 0.568359375
vt 0.436035156 0.562011719
vt 0.440673828 0.561523438
vt 0.432373047 0.578125
vt 0.428466797 0.590332031
vt 0.426757812 0.604492188
vt 0.442871094 0.5703125
vt 0.441650391 0.561523438
vt 0.438720703 0.577148438
vt 0.434814453 0.586425781
vt 0.435791016 0.595214844
vt 0.44140625 0.584960938
vt 0.446289062 0.575195312
vt 0.4453125 0.564453125
vt 0.449951172 0.581542969
vt 0.445800781 0.581054688
vt 0.443359375 0.590332031
vt 0.440673828 0.604492188
vt 0.449462891 0.597167969
vt 0.447998047 0.600097656
vt 0.434326172 0.60546875
vt 0.448242188 0.564453125
vt 0.446289062 0.563476562
vt 0.448486328 0.5625
vt 0.451171875 0.560546875
vt 0.444824219 0.603515625
vt 0.45703125 0.577636719
vt 0.460449219 0.586425781
vt 0.456054688 0.596191406
vt 0.451416016 0.608398438
vt 0.447509766 0.618164062
vt 0.466552734 0.583984375
vt 0.461425781 0.597167969
vt 0.464599609 0.594726562
vt 0.459228516 0.610839844
vt 0.456542969 0.611816406
vt 0.455566406 0.62109375
vt 0.452880859 0.620605469
vt 0.44921875 0.628417969
vt 0.452880859 0.627929688
vt 0.450439453 0.633300781
vt 0.445068359 0.619140625
vt 0.446533203 0.633789062
vt 0.447509766 0.638183594
vt 0.442626953 0.620605469
vt 0.443359375 0.638671875
vt 0.445068359 0.641113281
vt 0.442382812 0.644042969
vt 0.439208984 0.622558594
vt 0.440185547 0.641601562
vt 0.438476562 0.612304688
vt 0.435546875 0.624511719
vt 0.439697266 0.645507812
vt 0.439941406 0.645996094
vt 0.436767578 0.646972656
vt 0.437255859 0.644042969
vt 0.433349609 0.645019531
vt 0.43359375 0.647949219
vt 0.430175781 0.647949219
vt 0.432861328 0.615234375
vt 0.430664062 0.628417969
vt 0.42578125 0.624511719
vt 0.426757812 0.61328125
vt 0.429931641 0.645507812
vt 0.426757812 0.645019531
vt 0.426513672 0.647460938
vt 0.423339844 0.646484375
vt 0.422119141 0.609863281
vt 0.422119141 0.621582031
vt 0.419921875 0.640625
vt 0.422851562 0.643066406
vt 0.420410156 0.64453125
vt 0.420410156 0.645507812
vt 0.126831055 0.389404297
vt 0.126342773 0.351806641
vt 0.109191895 0.389892578
vt 0.105712891 0.351318359
vt 0.0880737305 0.368652344
vt 0.0966796875 0.391845703
vt 0.0926513672 0.348632812
vt 0.0875854492 0.39453125
vt 0.0872192383 0.347412109
vt 0.129516602 0.352050781
vt 0.129760742 0.389404297
vt 0.151733398 0.389404297
vt 0.14855957 0.3515625
vt 0.154907227 0.352294922
vt 0.162597656 0.355712891
vt 0.167236328 0.360107422
vt 0.170410156 0.366455078
vt 0.170776367 0.372558594
vt 0.168334961 0.379150391
vt 0.164550781 0.383544922
vt 0.159667969 0.386962891
vt 0.0858764648 0.394775391
vt 0.0853881836 0.347167969
vt 0.059173584 0.395263672
vt 0.0584411621 0.346923828
vt 0.0397033691 0.348144531
vt 0.0276489258 0.350585938
vt 0.0202636719 0.353759766
vt 0.0156860352 0.357177734
vt 0.0125732422 0.361328125
vt 0.0104141235 0.366699219
vt 0.0102233887 0.374023438
vt 0.0111694336 0.378173828
vt 0.013092041 0.382080078
vt 0.0175018311 0.386962891
vt 0.0259399414 0.391357422
vt 0.0373840332 0.394042969
vt 0.766113281 0.333251953
vt 0.766601562 0.335205078
vt 0.766601562 0.332275391
vt 0.765136719 0.310546875
vt 0.764160156 0.306884766
vt 0.763671875 0.299072266
vt 0.762695312 0.292236328
vt 0.762695312 0.290283203
vt 0.76171875 0.281982422
vt 0.762695312 0.28515625
vt 0.762695312 0.280273438
vt 0.76171875 0.273681641
vt 0.762695312 0.276367188
vt 0.762695312 0.272949219
vt 0.763183594 0.266357422
vt 0.763183594 0.269287109
vt 0.763671875 0.264892578
vt 0.764160156 0.259277344
vt 0.764160156 0.261474609
vt 0.764648438 0.257324219
vt 0.512207031 0.277832031
vt 0.512207031 0.282958984
vt 0.512695312 0.279052734
vt 0.511230469 0.286621094
vt 0.51171875 0.288085938
vt 0.510253906 0.294433594
vt 0.509765625 0.294189453
vt 0.508789062 0.301757812
vt 0.508300781 0.301269531
vt 0.504882812 0.312744141
vt 0.500488281 0.326904297
vt 0.500488281 0.327880859
vt 0.499267578 0.331542969
vt 0.499511719 0.332275391
vt 0.498779297 0.335693359
vt 0.498291016 0.336181641
vt 0.499023438 0.33984375
vt 0.498535156 0.342773438
vt 0.499023438 0.344970703
vt 0.498535156 0.347167969
vt 0.498779297 0.349609375
vt 0.498046875 0.3515625
vt 0.498291016 0.354003906
vt 0.497802734 0.355957031
vt 0.498046875 0.357910156
vt 0.497314453 0.362060547
vt 0.497802734 0.361816406
vt 0.498535156 0.366699219
vt 0.497802734 0.366943359
vt 0.5 0.371826172
vt 0.499511719 0.372314453
vt 0.502929688 0.378662109
vt 0.501464844 0.376953125
vt 0.503417969 0.380615234
vt 0.505859375 0.383789062
vt 0.506835938 0.387939453
vt 0.508300781 0.389404297
vt 0.00440216064 0.188110352
vt 0.00357055664 0.194580078
vt 0.00408172607 0.193115234
vt 0.00389862061 0.184570312
vt 0.00403594971 0.182373047
vt 0.00348472595 0.180297852
vt 0.00336074829 0.176757812
vt 0.00266647339 0.174560547
vt 0.00281143188 0.172729492
vt 0.00176239014 0.167480469
vt 0.00232887268 0.168701172
vt 0.00200462341 0.163574219
vt 0.000881671906 0.155883789
vt 0.00124645233 0.155883789
vt 0.00138473511 0.142700195
vt 0.00103473663 0.135986328
vt 0.00211143494 0.106628418
vt 0.00158309937 0.104125977
vt 0.00218772888 0.10345459
vt 0.00265693665 0.098449707
vt 0.00308227539 0.0905761719
vt 0.0035610199 0.0913085938
vt 0.00340461731 0.0798950195
vt 0.0032749176 0.0357055664
vt 0.00268363953 0.0339355469
vt 0.00309944153 0.0681762695
vt 0.00337791443 0.0536499023
vt 0.00358390808 0.0699462891
vt 0.00340461731 0.0798950195
vt 0.0853881836 0.347167969
vt 0.0858764648 0.394775391
vt 0.0868530273 0.394775391
vt 0.0863647461 0.346923828
vt 0.0872192383 0.347412109
vt 0.0875854492 0.39453125
vt 0.772460938 0.251708984
vt 0.770507812 0.25390625
vt 0.770019531 0.259033203
vt 0.768554688 0.260498047
vt 0.769042969 0.263427734
vt 0.767578125 0.265869141
vt 0.768554688 0.267578125
vt 0.767089844 0.270019531
vt 0.768066406 0.2734375
vt 0.767089844 0.273193359
vt 0.766601562 0.277587891
vt 0.767578125 0.281982422
vt 0.767089844 0.283691406
vt 0.768554688 0.291503906
vt 0.767089844 0.289550781
vt 0.768066406 0.298583984
vt 0.770507812 0.310302734
vt 0.76953125 0.312744141
vt 0.772460938 0.333251953
vt 0.770996094 0.332275391
vt 0.771972656 0.333984375
vt 0.770996094 0.334472656
vt 0.771484375 0.334716797
vt 0.00756835938 0.189697266
vt 0.00788879395 0.186889648
vt 0.00710296631 0.185668945
vt 0.00689697266 0.182739258
vt 0.00746536255 0.181518555
vt 0.00652313232 0.179199219
vt 0.00691986084 0.176879883
vt 0.0059967041 0.174560547
vt 0.00646591187 0.172119141
vt 0.00556564331 0.169555664
vt 0.00614929199 0.164916992
vt 0.00534439087 0.164306641
vt 0.00485992432 0.158081055
vt 0.00553512573 0.154052734
vt 0.00479125977 0.148681641
vt 0.00626754761 0.135620117
vt 0.005443573 0.133056641
vt 0.0064163208 0.106689453
vt 0.00759506226 0.104919434
vt 0.00701141357 0.103942871
vt 0.00610351562 0.102966309
vt 0.00664138794 0.102722168
vt 0.00639724731 0.0957641602
vt 0.00704956055 0.0349731445
vt 0.0078086853 0.055847168
vt 0.00788879395 0.0364074707
vt 0.00703048706 0.0559692383
vt 0.00701522827 0.0574645996
vt 0.0064163208 0.0582580566
vt 0.00690841675 0.0588684082
vt 0.00677871704 0.0686035156
vt 0.00728225708 0.0809326172
vt 0.513671875 0.386474609
vt 0.515625 0.386962891
vt 0.510742188 0.381103516
vt 0.509277344 0.380371094
vt 0.506835938 0.376220703
vt 0.506835938 0.373779297
vt 0.504882812 0.371337891
vt 0.504882812 0.368164062
vt 0.503417969 0.367431641
vt 0.502441406 0.361816406
vt 0.503417969 0.361328125
vt 0.502441406 0.35546875
vt 0.503417969 0.354980469
vt 0.502929688 0.348632812
vt 0.50390625 0.348388672
vt 0.503417969 0.343994141
vt 0.50390625 0.343017578
vt 0.502929688 0.33984375
vt 0.50390625 0.337890625
vt 0.503417969 0.334960938
vt 0.504882812 0.331298828
vt 0.504394531 0.329345703
vt 0.509765625 0.312988281
vt 0.510253906 0.313720703
vt 0.12902832 0.389892578
vt 0.129760742 0.389404297
vt 0.129516602 0.352050781
vt 0.127685547 0.351806641
vt 0.126831055 0.389404297
vt 0.126342773 0.351806641
vt 0.00728225708 0.0809326172
vt 0.00684356689 0.0819702148
vt 0.00639724731 0.0957641602
vt 0.00677871704 0.0686035156
vt 0.509277344 0.311767578
vt 0.509765625 0.312988281
vt 0.509765625 0.311035156
vt 0.512207031 0.301269531
vt 0.513671875 0.296142578
vt 0.514160156 0.291503906
vt 0.515136719 0.286132812
vt 0.515136719 0.283203125
vt 0.515625 0.279296875
vt 0.515136719 0.279052734
vt 0.508300781 0.389404297
vt 0.513671875 0.386474609
vt 0.505859375 0.383789062
vt 0.509277344 0.380371094
vt 0.502929688 0.378662109
vt 0.506835938 0.376220703
vt 0.5 0.371826172
vt 0.504882812 0.371337891
vt 0.503417969 0.367431641
vt 0.498535156 0.366699219
vt 0.502441406 0.361816406
vt 0.497802734 0.361816406
vt 0.498046875 0.357910156
vt 0.502441406 0.35546875
vt 0.498291016 0.354003906
vt 0.498779297 0.349609375
vt 0.502929688 0.348632812
vt 0.499023438 0.344970703
vt 0.503417969 0.343994141
vt 0.502929688 0.33984375
vt 0.499023438 0.33984375
vt 0.498779297 0.335693359
vt 0.503417969 0.334960938
vt 0.499511719 0.332275391
vt 0.504394531 0.329345703
vt 0.500488281 0.327880859
vt 0.509765625 0.312988281
vt 0.504882812 0.312744141
vt 0.509277344 0.311767578
vt 0.508789062 0.301757812
vt 0.512207031 0.301269531
vt 0.510253906 0.294433594
vt 0.514160156 0.291503906
vt 0.51171875 0.288085938
vt 0.512207031 0.282958984
vt 0.515136719 0.283203125
vt 0.515136719 0.279052734
vt 0.512695312 0.279052734
vt 0.00337791443 0.0536499023
vt 0.00704956055 0.0349731445
vt 0.0032749176 0.0357055664
vt 0.00703048706 0.0559692383
vt 0.0064163208 0.0582580566
vt 0.00677871704 0.0686035156
vt 0.00358390808 0.0699462891
vt 0.00340461731 0.0798950195
vt 0.00684356689 0.0819702148
vt 0.0035610199 0.0913085938
vt 0.00639724731 0.0957641602
vt 0.00265693665 0.098449707
vt 0.00610351562 0.102966309
vt 0.00218772888 0.10345459
vt 0.0064163208 0.106689453
vt 0.00211143494 0.106628418
vt 0.005443573 0.133056641
vt 0.00138473511 0.142700195
vt 0.00479125977 0.148681641
vt 0.00124645233 0.155883789
vt 0.00485992432 0.158081055
vt 0.00200462341 0.163574219
vt 0.00534439087 0.164306641
vt 0.00556564331 0.169555664
vt 0.00232887268 0.168701172
vt 0.0059967041 0.174560547
vt 0.00281143188 0.172729492
vt 0.00336074829 0.176757812
vt 0.00652313232 0.179199219
vt 0.00403594971 0.182373047
vt 0.00689697266 0.182739258
vt 0.00710296631 0.185668945
vt 0.00440216064 0.188110352
vt 0.00756835938 0.189697266
vt 0.00408172607 0.193115234
vt 0.770996094 0.334472656
vt 0.770996094 0.332275391
vt 0.766601562 0.335205078
vt 0.766601562 0.332275391
vt 0.76953125 0.312744141
vt 0.765136719 0.310546875
vt 0.763671875 0.299072266
vt 0.768066406 0.298583984
vt 0.762695312 0.290283203
vt 0.767089844 0.289550781
vt 0.762695312 0.28515625
vt 0.767089844 0.283691406
vt 0.762695312 0.280273438
vt 0.766601562 0.277587891
vt 0.762695312 0.276367188
vt 0.767089844 0.273193359
vt 0.762695312 0.272949219
vt 0.763183594 0.269287109
vt 0.767089844 0.270019531
vt 0.767578125 0.265869141
vt 0.763671875 0.264892578
vt 0.764160156 0.261474609
vt 0.768554688 0.260498047
vt 0.764648438 0.257324219
vt 0.770507812 0.25390625
vt 0.879882812 0.479980469
vt 0.87109375 0.479736328
vt 0.867675781 0.480224609
vt 0.883300781 0.481933594
vt 0.885742188 0.484619141
vt 0.864746094 0.481933594
vt 0.862304688 0.484375
vt 0.887695312 0.487548828
vt 0.859375 0.488525391
vt 0.889160156 0.490966797
vt 0.889648438 0.495849609
vt 0.857421875 0.495361328
vt 0.856445312 0.509765625
vt 0.890136719 0.512695312
vt 0.856445312 0.515625
vt 0.889160156 0.518554688
vt 0.888183594 0.523925781
vt 0.857421875 0.520996094
vt 0.858886719 0.528808594
vt 0.885253906 0.533203125
vt 0.859863281 0.533691406
vt 0.885253906 0.53515625
vt 0.861328125 0.537109375
vt 0.864257812 0.540527344
vt 0.880371094 0.540527344
vt 0.881347656 0.540039062
vt 0.884765625 0.536132812
vt 0.860351562 0.536132812
vt 0.860351562 0.536132812
vt 0.884765625 0.536132812
vt 0.859863281 0.53515625
vt 0.885253906 0.53515625
vt 0.859863281 0.533691406
vt 0.864257812 0.540527344
vt 0.875976562 0.541992188
vt 0.880371094 0.540527344
vt 0.87109375 0.541992188
f 3/3 2/2 1/1
f 6/6 5/5 4/4
f 4/4 5/5 7/7
f 7/7 5/5 8/8
f 9/9 7/7 8/8
f 10/10 9/9 8/8
f 9/9 10/10 11/11
f 10/10 12/12 11/11
f 15/15 14/14 13/13
f 14/14 15/15 16/16
f 17/17 14/14 16/16
f 16/16 15/15 18/18
f 18/18 15/15 19/19
f 20/20 18/18 19/19
f 21/21 18/18 20/20
f 20/20 19/19 22/22
f 19/19 15/15 22/22
f 21/21 20/20 23/23
f 23/23 20/20 22/22
f 24/24 21/21 23/23
f 23/23 25/25 24/24
f 24/24 25/25 26/26
f 27/27 26/26 25/25
f 28/28 27/27 25/25
f 29/29 27/27 28/28
f 30/30 29/29 28/28
f 30/30 31/31 29/29
f 32/32 31/31 30/30
f 33/33 31/31 32/32
f 34/34 33/33 32/32
f 35/35 34/34 32/32
f 36/36 34/34 35/35
f 37/37 36/36 35/35
f 23/23 38/38 25/25
f 39/39 28/28 25/25
f 38/38 39/39 25/25
f 38/38 23/23 40/40
f 40/40 23/23 22/22
f 41/41 38/38 40/40
f 40/40 22/22 42/42
f 40/40 42/42 41/41
f 39/39 38/38 43/43
f 43/43 38/38 41/41
f 22/22 44/44 42/42
f 22/22 15/15 44/44
f 44/44 15/15 45/45
f 45/45 15/15 46/46
f 47/47 28/28 39/39
f 48/48 39/39 43/43
f 47/47 39/39 48/48
f 49/49 28/28 47/47
f 49/49 30/30 28/28
f 50/50 47/47 48/48
f 50/50 49/49 47/47
f 50/50 51/51 49/49
f 52/52 30/30 49/49
f 51/51 52/52 49/49
f 52/52 53/53 30/30
f 52/52 51/51 53/53
f 32/32 30/30 53/53
f 48/48 43/43 54/54
f 55/55 50/50 48/48
f 54/54 55/55 48/48
f 56/56 55/55 54/54
f 56/56 54/54 57/57
f 54/54 43/43 58/58
f 57/57 54/54 58/58
f 58/58 43/43 41/41
f 59/59 50/50 55/55
f 59/59 51/51 50/50
f 60/60 56/56 57/57
f 57/57 58/58 60/60
f 41/41 61/61 58/58
f 41/41 42/42 61/61
f 56/56 62/62 55/55
f 62/62 59/59 55/55
f 58/58 63/63 60/60
f 61/61 63/63 58/58
f 42/42 64/64 61/61
f 42/42 44/44 64/64
f 59/59 62/62 65/65
f 66/66 51/51 59/59
f 65/65 66/66 59/59
f 56/56 67/67 62/62
f 62/62 67/67 65/65
f 61/61 64/64 68/68
f 64/64 44/44 69/69
f 69/69 68/68 64/64
f 70/70 63/63 61/61
f 68/68 70/70 61/61
f 44/44 71/71 69/69
f 45/45 71/71 44/44
f 66/66 72/72 51/51
f 73/73 66/66 65/65
f 73/73 72/72 66/66
f 67/67 74/74 65/65
f 74/74 73/73 65/65
f 72/72 75/75 51/51
f 75/75 72/72 76/76
f 53/53 51/51 75/75
f 75/75 77/77 53/53
f 76/76 77/77 75/75
f 53/53 77/77 32/32
f 77/77 78/78 32/32
f 78/78 77/77 76/76
f 32/32 78/78 35/35
f 79/79 72/72 73/73
f 76/76 72/72 79/79
f 80/80 73/73 74/74
f 79/79 73/73 80/80
f 81/81 79/79 80/80
f 76/76 79/79 82/82
f 82/82 79/79 81/81
f 83/83 76/76 82/82
f 83/83 82/82 81/81
f 84/84 78/78 76/76
f 84/84 76/76 83/83
f 78/78 85/85 35/35
f 85/85 78/78 84/84
f 85/85 86/86 35/35
f 35/35 86/86 37/37
f 87/87 85/85 84/84
f 86/86 85/85 87/87
f 88/88 84/84 83/83
f 88/88 87/87 84/84
f 86/86 89/89 37/37
f 37/37 89/89 90/90
f 91/91 90/90 89/89
f 90/90 91/91 92/92
f 83/83 93/93 88/88
f 93/93 94/94 88/88
f 88/88 94/94 87/87
f 93/93 83/83 95/95
f 94/94 93/93 95/95
f 95/95 83/83 81/81
f 89/89 86/86 96/96
f 97/97 86/86 87/87
f 96/96 86/86 97/97
f 87/87 98/98 97/97
f 94/94 98/98 87/87
f 98/98 96/96 97/97
f 89/89 96/96 99/99
f 99/99 100/100 89/89
f 101/101 100/100 99/99
f 102/102 101/101 99/99
f 99/99 96/96 103/103
f 103/103 102/102 99/99
f 103/103 96/96 98/98
f 104/104 102/102 103/103
f 105/105 102/102 104/104
f 105/105 104/104 106/106
f 106/106 104/104 107/107
f 103/103 98/98 108/108
f 103/103 108/108 104/104
f 98/98 94/94 109/109
f 108/108 98/98 109/109
f 104/104 108/108 110/110
f 107/107 104/104 110/110
f 110/110 108/108 109/109
f 110/110 111/111 107/107
f 111/111 110/110 109/109
f 111/111 112/112 107/107
f 109/109 94/94 113/113
f 113/113 111/111 109/109
f 94/94 95/95 113/113
f 114/114 112/112 111/111
f 111/111 113/113 114/114
f 115/115 112/112 114/114
f 113/113 95/95 116/116
f 113/113 116/116 114/114
f 95/95 81/81 116/116
f 117/117 115/115 114/114
f 117/117 118/118 115/115
f 116/116 119/119 114/114
f 116/116 81/81 119/119
f 114/114 119/119 117/117
f 119/119 81/81 120/120
f 117/117 119/119 120/120
f 81/81 80/80 120/120
f 121/121 118/118 117/117
f 120/120 121/121 117/117
f 120/120 80/80 122/122
f 120/120 122/122 121/121
f 122/122 80/80 74/74
f 123/123 118/118 121/121
f 121/121 122/122 123/123
f 124/124 118/118 123/123
f 125/125 122/122 74/74
f 123/123 122/122 125/125
f 126/126 124/124 123/123
f 125/125 126/126 123/123
f 126/126 127/127 124/124
f 125/125 74/74 128/128
f 128/128 126/126 125/125
f 128/128 74/74 67/67
f 127/127 126/126 129/129
f 126/126 128/128 129/129
f 130/130 127/127 129/129
f 67/67 131/131 128/128
f 131/131 67/67 56/56
f 128/128 131/131 132/132
f 128/128 132/132 129/129
f 132/132 131/131 56/56
f 133/133 130/130 129/129
f 129/129 132/132 133/133
f 130/130 133/133 134/134
f 132/132 56/56 135/135
f 132/132 135/135 133/133
f 135/135 56/56 60/60
f 133/133 136/136 134/134
f 133/133 135/135 136/136
f 135/135 60/60 136/136
f 136/136 137/137 134/134
f 136/136 60/60 138/138
f 138/138 137/137 136/136
f 60/60 63/63 138/138
f 137/137 138/138 139/139
f 138/138 63/63 140/140
f 138/138 140/140 139/139
f 140/140 63/63 70/70
f 139/139 140/140 141/141
f 142/142 140/140 70/70
f 140/140 142/142 141/141
f 70/70 68/68 142/142
f 143/143 141/141 142/142
f 142/142 68/68 143/143
f 143/143 68/68 69/69
f 144/144 141/141 143/143
f 69/69 145/145 143/143
f 145/145 144/144 143/143
f 69/69 71/71 145/145
f 146/146 144/144 145/145
f 145/145 71/71 146/146
f 147/147 144/144 146/146
f 147/147 146/146 148/148
f 45/45 146/146 71/71
f 148/148 146/146 149/149
f 149/149 146/146 45/45
f 46/46 149/149 45/45
f 150/150 149/149 46/46
f 46/46 151/151 150/150
f 154/154 153/153 152/152
f 152/152 155/155 154/154
f 156/156 154/154 155/155
f 157/157 156/156 155/155
f 158/158 156/156 157/157
f 159/159 156/156 158/158
f 160/160 156/156 159/159
f 161/161 160/160 159/159
f 164/164 163/163 162/162
f 165/165 162/162 163/163
f 166/166 162/162 165/165
f 167/167 166/166 165/165
f 168/168 167/167 165/165
f 169/169 167/167 168/168
f 170/170 169/169 168/168
f 169/169 170/170 171/171
f 170/170 172/172 171/171
f 171/171 172/172 173/173
f 174/174 173/173 172/172
f 172/172 175/175 174/174
f 174/174 175/175 176/176
f 175/175 177/177 176/176
f 176/176 177/177 178/178
f 179/179 178/178 177/177
f 180/180 179/179 177/177
f 181/181 180/180 177/177
f 182/182 180/180 181/181
f 182/182 181/181 183/183
f 181/181 184/184 183/183
f 183/183 184/184 185/185
f 185/185 184/184 186/186
f 184/184 187/187 186/186
f 188/188 186/186 187/187
f 189/189 188/188 187/187
f 190/190 188/188 189/189
f 191/191 190/190 189/189
f 192/192 190/190 191/191
f 193/193 192/192 191/191
f 196/196 195/195 194/194
f 194/194 197/197 196/196
f 197/197 198/198 196/196
f 196/196 198/198 199/199
f 199/199 198/198 200/200
f 198/198 201/201 200/200
f 200/200 201/201 202/202
f 201/201 203/203 202/202
f 202/202 203/203 204/204
f 203/203 205/205 204/204
f 205/205 206/206 204/204
f 204/204 206/206 207/207
f 208/208 207/207 206/206
f 206/206 209/209 208/208
f 208/208 209/209 210/210
f 210/210 209/209 211/211
f 210/210 211/211 212/212
f 211/211 213/213 212/212
f 214/214 212/212 213/213
f 215/215 212/212 214/214
f 214/214 216/216 215/215
f 215/215 216/216 217/217
f 217/217 216/216 218/218
f 216/216 219/219 218/218
f 219/219 220/220 218/218
f 218/218 220/220 221/221
f 222/222 221/221 220/220
f 223/223 221/221 222/222
f 224/224 223/223 222/222
f 225/225 224/224 222/222
f 225/225 226/226 224/224
f 224/224 226/226 227/227
f 226/226 228/228 227/227
f 228/228 229/229 227/227
f 232/232 231/231 230/230
f 233/233 232/232 230/230
f 233/233 234/234 232/232
f 233/233 235/235 234/234
f 234/234 235/235 236/236
f 237/237 236/236 235/235
f 237/237 235/235 238/238
f 235/235 239/239 238/238
f 239/239 240/240 238/238
f 241/241 240/240 239/239
f 240/240 241/241 242/242
f 241/241 243/243 242/242
f 244/244 243/243 241/241
f 245/245 244/244 241/241
f 246/246 244/244 245/245
f 247/247 246/246 245/245
f 250/250 249/249 248/248
f 250/250 251/251 249/249
f 250/250 252/252 251/251
f 253/253 249/249 251/251
f 252/252 254/254 251/251
f 255/255 254/254 252/252
f 251/251 256/256 253/253
f 251/251 254/254 256/256
f 255/255 257/257 254/254
f 254/254 257/257 256/256
f 257/257 255/255 258/258
f 257/257 258/258 259/259
f 260/260 259/259 258/258
f 256/256 261/261 253/253
f 253/253 261/261 262/262
f 257/257 263/263 256/256
f 263/263 261/261 256/256
f 261/261 263/263 262/262
f 259/259 263/263 257/257
f 263/263 264/264 262/262
f 263/263 265/265 264/264
f 259/259 265/265 263/263
f 264/264 265/265 266/266
f 267/267 259/259 260/260
f 268/268 267/267 260/260
f 268/268 269/269 267/267
f 267/267 269/269 259/259
f 270/270 269/269 268/268
f 271/271 270/270 268/268
f 272/272 270/270 271/271
f 273/273 272/272 271/271
f 274/274 272/272 273/273
f 274/274 275/275 272/272
f 276/276 275/275 274/274
f 277/277 276/276 274/274
f 278/278 276/276 277/277
f 279/279 276/276 278/278
f 280/280 279/279 278/278
f 281/281 280/280 278/278
f 282/282 280/280 281/281
f 283/283 280/280 282/282
f 283/283 282/282 284/284
f 282/282 285/285 284/284
f 285/285 286/286 284/284
f 284/284 286/286 287/287
f 286/286 288/288 287/287
f 286/286 289/289 288/288
f 290/290 288/288 289/289
f 291/291 290/290 289/289
f 290/290 291/291 292/292
f 291/291 293/293 292/292
f 292/292 293/293 294/294
f 293/293 295/295 294/294
f 296/296 294/294 295/295
f 297/297 294/294 296/296
f 298/298 297/297 296/296
f 299/299 297/297 298/298
f 300/300 299/299 298/298
f 301/301 300/300 298/298
f 302/302 300/300 301/301
f 303/303 302/302 301/301
f 302/302 303/303 304/304
f 303/303 305/305 304/304
f 304/304 305/305 306/306
f 307/307 306/306 305/305
f 308/308 306/306 307/307
f 309/309 308/308 307/307
f 310/310 308/308 309/309
f 311/311 310/310 309/309
f 312/312 310/310 311/311
f 313/313 312/312 311/311
f 313/313 314/314 312/312
f 312/312 314/314 315/315
f 314/314 313/313 316/316
f 317/317 314/314 316/316
f 315/315 314/314 317/317
f 318/318 312/312 315/315
f 319/319 312/312 318/318
f 320/320 317/317 316/316
f 321/321 317/317 320/320
f 320/320 316/316 322/322
f 320/320 322/322 321/321
f 322/322 323/323 321/321
f 317/317 324/324 315/315
f 324/324 317/317 321/321
f 323/323 325/325 321/321
f 325/325 323/323 326/326
f 326/326 327/327 325/325
f 325/325 327/327 321/321
f 327/327 328/328 321/321
f 321/321 328/328 324/324
f 328/328 329/329 324/324
f 315/315 324/324 329/329
f 330/330 315/315 329/329
f 330/330 331/331 315/315
f 318/318 315/315 331/331
f 331/331 330/330 332/332
f 330/330 333/333 332/332
f 332/332 333/333 334/334
f 334/334 335/335 332/332
f 332/332 335/335 331/331
f 336/336 335/335 334/334
f 337/337 318/318 331/331
f 331/331 335/335 337/337
f 318/318 337/337 338/338
f 318/318 338/338 319/319
f 319/319 338/338 339/339
f 319/319 339/339 340/340
f 340/340 339/339 341/341
f 337/337 342/342 338/338
f 338/338 342/342 339/339
f 337/337 335/335 343/343
f 342/342 337/337 343/343
f 335/335 344/344 343/343
f 335/335 336/336 344/344
f 342/342 343/343 345/345
f 344/344 345/345 343/343
f 339/339 342/342 346/346
f 345/345 346/346 342/342
f 339/339 347/347 341/341
f 339/339 346/346 347/347
f 347/347 348/348 341/341
f 341/341 348/348 349/349
f 349/349 348/348 350/350
f 347/347 346/346 351/351
f 348/348 347/347 351/351
f 352/352 346/346 345/345
f 351/351 346/346 352/352
f 345/345 344/344 353/353
f 352/352 345/345 353/353
f 348/348 354/354 350/350
f 354/354 355/355 350/350
f 351/351 352/352 356/356
f 352/352 353/353 356/356
f 357/357 348/348 351/351
f 354/354 348/348 357/357
f 356/356 357/357 351/351
f 358/358 355/355 354/354
f 358/358 354/354 357/357
f 358/358 359/359 355/355
f 360/360 359/359 358/358
f 353/353 344/344 361/361
f 344/344 336/336 361/361
f 353/353 361/361 362/362
f 361/361 336/336 362/362
f 356/356 353/353 363/363
f 353/353 362/362 363/363
f 336/336 364/364 362/362
f 364/364 336/336 365/365
f 366/366 364/364 365/365
f 362/362 364/364 367/367
f 362/362 367/367 363/363
f 366/366 368/368 364/364
f 364/364 368/368 367/367
f 366/366 369/369 368/368
f 369/369 370/370 368/368
f 371/371 370/370 369/369
f 372/372 370/370 371/371
f 368/368 373/373 367/367
f 370/370 373/373 368/368
f 367/367 374/374 363/363
f 367/367 373/373 374/374
f 375/375 356/356 363/363
f 363/363 374/374 375/375
f 376/376 370/370 372/372
f 377/377 376/376 372/372
f 370/370 378/378 373/373
f 376/376 378/378 370/370
f 374/374 373/373 379/379
f 378/378 379/379 373/373
f 380/380 374/374 379/379
f 375/375 374/374 380/380
f 379/379 378/378 381/381
f 378/378 376/376 381/381
f 380/380 379/379 381/381
f 382/382 376/376 377/377
f 383/383 382/382 377/377
f 382/382 383/383 384/384
f 376/376 385/385 381/381
f 382/382 385/385 376/376
f 381/381 386/386 380/380
f 381/381 385/385 386/386
f 386/386 387/387 380/380
f 385/385 382/382 388/388
f 384/384 388/388 382/382
f 385/385 389/389 386/386
f 389/389 385/385 388/388
f 390/390 375/375 380/380
f 380/380 387/387 390/390
f 383/383 391/391 384/384
f 391/391 383/383 392/392
f 392/392 393/393 391/391
f 391/391 393/393 394/394
f 384/384 391/391 394/394
f 395/395 387/387 386/386
f 389/389 395/395 386/386
f 394/394 396/396 384/384
f 266/266 396/396 394/394
f 265/265 396/396 266/266
f 396/396 397/397 384/384
f 265/265 397/397 396/396
f 397/397 398/398 384/384
f 398/398 388/388 384/384
f 388/388 399/399 389/389
f 399/399 388/388 398/398
f 400/400 395/395 389/389
f 399/399 400/400 389/389
f 401/401 397/397 265/265
f 401/401 265/265 259/259
f 398/398 397/397 402/402
f 402/402 397/397 401/401
f 403/403 401/401 259/259
f 403/403 402/402 401/401
f 259/259 404/404 403/403
f 404/404 402/402 403/403
f 398/398 402/402 405/405
f 402/402 404/404 405/405
f 399/399 398/398 405/405
f 404/404 406/406 405/405
f 407/407 399/399 405/405
f 405/405 406/406 407/407
f 400/400 399/399 407/407
f 407/407 406/406 408/408
f 400/400 407/407 408/408
f 406/406 409/409 408/408
f 409/409 410/410 408/408
f 411/411 400/400 408/408
f 400/400 411/411 395/395
f 395/395 411/411 387/387
f 408/408 410/410 412/412
f 408/408 412/412 411/411
f 410/410 413/413 412/412
f 411/411 412/412 414/414
f 411/411 414/414 387/387
f 412/412 413/413 415/415
f 412/412 415/415 414/414
f 413/413 416/416 415/415
f 416/416 417/417 415/415
f 387/387 414/414 418/418
f 414/414 415/415 418/418
f 415/415 417/417 419/419
f 415/415 419/419 418/418
f 387/387 418/418 420/420
f 387/387 420/420 390/390
f 420/420 418/418 421/421
f 418/418 419/419 421/421
f 417/417 422/422 419/419
f 422/422 417/417 423/423
f 424/424 422/422 423/423
f 419/419 422/422 425/425
f 422/422 424/424 425/425
f 419/419 425/425 421/421
f 425/425 424/424 426/426
f 425/425 426/426 421/421
f 424/424 427/427 426/426
f 427/427 428/428 426/426
f 390/390 420/420 429/429
f 420/420 421/421 429/429
f 426/426 430/430 421/421
f 429/429 421/421 430/430
f 429/429 430/430 431/431
f 432/432 390/390 429/429
f 432/432 429/429 431/431
f 375/375 390/390 432/432
f 433/433 430/430 426/426
f 426/426 428/428 433/433
f 430/430 433/433 431/431
f 434/434 433/433 428/428
f 433/433 434/434 431/431
f 428/428 435/435 434/434
f 435/435 436/436 434/434
f 432/432 437/437 375/375
f 437/437 356/356 375/375
f 357/357 356/356 437/437
f 438/438 437/437 432/432
f 438/438 357/357 437/437
f 431/431 438/438 432/432
f 358/358 357/357 438/438
f 439/439 358/358 438/438
f 438/438 431/431 439/439
f 358/358 439/439 360/360
f 434/434 440/440 431/431
f 439/439 431/431 440/440
f 434/434 436/436 440/440
f 360/360 439/439 440/440
f 436/436 441/441 440/440
f 440/440 441/441 360/360
f 442/442 441/441 436/436
f 360/360 441/441 442/442
f 445/445 444/444 443/443
f 446/446 444/444 445/445
f 447/447 446/446 445/445
f 448/448 447/447 445/445
f 449/449 446/446 447/447
f 448/448 450/450 447/447
f 451/451 449/449 447/447
f 447/447 450/450 451/451
f 454/454 453/453 452/452
f 452/452 455/455 454/454
f 455/455 456/456 454/454
f 456/456 457/457 454/454
f 454/454 457/457 458/458
f 454/454 458/458 459/459
f 459/459 460/460 454/454
f 454/454 460/460 461/461
f 454/454 461/461 462/462
f 462/462 463/463 454/454
f 466/466 465/465 464/464
f 467/467 465/465 466/466
f 468/468 467/467 466/466
f 469/469 468/468 466/466
f 466/466 470/470 469/469
f 466/466 471/471 470/470
f 472/472 471/471 466/466
f 473/473 472/472 466/466
f 474/474 473/473 466/466
f 475/475 474/474 466/466
f 476/476 475/475 466/466
f 466/466 477/477 476/476
f 478/478 477/477 466/466
f 479/479 478/478 466/466
f 482/482 481/481 480/480
f 483/483 482/482 480/480
f 484/484 483/483 480/480
f 485/485 483/483 484/484
f 486/486 485/485 484/484
f 485/485 486/486 487/487
f 487/487 486/486 488/488
f 487/487 488/488 489/489
f 489/489 488/488 490/490
f 491/491 490/490 488/488
f 492/492 490/490 491/491
f 493/493 492/492 491/491
f 494/494 493/493 491/491
f 495/495 493/493 494/494
f 495/495 494/494 496/496
f 494/494 497/497 496/496
f 496/496 497/497 498/498
f 498/498 497/497 499/499
f 502/502 501/501 500/500
f 500/500 501/501 503/503
f 501/501 504/504 503/503
f 504/504 505/505 503/503
f 503/503 505/505 506/506
f 506/506 505/505 507/507
f 506/506 507/507 508/508
f 509/509 508/508 507/507
f 510/510 508/508 509/509
f 509/509 511/511 510/510
f 511/511 512/512 510/510
f 512/512 511/511 513/513
f 513/513 514/514 512/512
f 512/512 514/514 515/515
f 514/514 516/516 515/515
f 515/515 516/516 517/517
f 516/516 518/518 517/517
f 517/517 518/518 519/519
f 519/519 518/518 520/520
f 519/519 520/520 521/521
f 520/520 522/522 521/521
f 521/521 522/522 523/523
f 523/523 522/522 524/524
f 523/523 524/524 525/525
f 524/524 526/526 525/525
f 526/526 527/527 525/525
f 527/527 528/528 525/525
f 527/527 529/529 528/528
f 528/528 529/529 530/530
f 529/529 531/531 530/530
f 530/530 531/531 532/532
f 532/532 531/531 533/533
f 534/534 533/533 531/531
f 535/535 533/533 534/534
f 536/536 535/535 534/534
f 539/539 538/538 537/537
f 538/538 540/540 537/537
f 537/537 540/540 541/541
f 540/540 542/542 541/541
f 541/541 542/542 543/543
f 542/542 544/544 543/543
f 543/543 544/544 545/545
f 546/546 545/545 544/544
f 547/547 545/545 546/546
f 547/547 546/546 548/548
f 548/548 546/546 549/549
f 548/548 549/549 550/550
f 551/551 550/550 549/549
f 552/552 551/551 549/549
f 553/553 551/551 552/552
f 552/552 554/554 553/553
f 555/555 553/553 554/554
f 556/556 555/555 554/554
f 557/557 556/556 554/554
f 558/558 556/556 557/557
f 559/559 558/558 557/557
f 562/562 561/561 560/560
f 563/563 562/562 560/560
f 564/564 562/562 563/563
f 564/564 565/565 562/562
f 568/568 567/567 566/566
f 569/569 568/568 566/566
f 569/569 570/570 568/568
f 568/568 570/570 571/571
f 574/574 573/573 572/572
f 573/573 574/574 575/575
f 574/574 576/576 575/575
f 575/575 576/576 577/577
f 577/577 576/576 578/578
f 577/577 578/578 579/579
f 580/580 579/579 578/578
f 579/579 580/580 581/581
f 581/581 580/580 582/582
f 580/580 583/583 582/582
f 582/582 583/583 584/584
f 584/584 583/583 585/585
f 584/584 585/585 586/586
f 586/586 585/585 587/587
f 585/585 588/588 587/587
f 587/587 588/588 589/589
f 588/588 590/590 589/589
f 589/589 590/590 591/591
f 592/592 591/591 590/590
f 593/593 591/591 592/592
f 592/592 594/594 593/593
f 597/597 596/596 595/595
f 598/598 596/596 597/597
f 598/598 599/599 596/596
f 600/600 599/599 598/598
f 599/599 600/600 601/601
f 602/602 601/601 600/600
f 602/602 603/603 601/601
f 602/602 604/604 603/603
f 603/603 604/604 605/605
f 604/604 606/606 605/605
f 606/606 607/607 605/605
f 605/605 607/607 608/608
f 607/607 609/609 608/608
f 610/610 608/608 609/609
f 611/611 610/610 609/609
f 611/611 612/612 610/610
f 610/610 612/612 613/613
f 612/612 614/614 613/613
f 612/612 615/615 614/614
f 614/614 615/615 616/616
f 617/617 616/616 615/615
f 620/620 619/619 618/618
f 618/618 619/619 621/621
f 621/621 619/619 622/622
f 623/623 621/621 622/622
f 624/624 623/623 622/622
f 625/625 623/623 624/624
f 624/624 626/626 625/625
f 629/629 628/628 627/627
f 630/630 629/629 627/627
f 631/631 629/629 630/630
f 632/632 629/629 631/631
f 633/633 632/632 631/631
f 632/632 633/633 634/634
f 633/633 635/635 634/634
f 634/634 635/635 636/636
f 636/636 637/637 634/634
f 638/638 637/637 636/636
f 638/638 639/639 637/637
f 638/638 640/640 639/639
f 639/639 640/640 641/641
f 640/640 642/642 641/641
f 641/641 642/642 643/643
f 642/642 644/644 643/643
f 643/643 644/644 645/645
f 644/644 646/646 645/645
f 645/645 646/646 647/647
f 647/647 646/646 648/648
f 649/649 647/647 648/648
f 649/649 650/650 647/647
f 653/653 652/652 651/651
f 653/653 651/651 654/654
f 655/655 654/654 651/651
f 656/656 654/654 655/655
f 659/659 658/658 657/657
f 660/660 657/657 658/658
f 663/663 662/662 661/661
f 661/661 664/664 663/663
f 665/665 663/663 664/664
f 664/664 666/666 665/665
f 667/667 665/665 666/666
f 668/668 667/667 666/666
f 669/669 667/667 668/668
f 670/670 669/669 668/668
f 673/673 672/672 671/671
f 674/674 672/672 673/673
f 673/673 675/675 674/674
f 674/674 675/675 676/676
f 675/675 677/677 676/676
f 676/676 677/677 678/678
f 678/678 677/677 679/679
f 677/677 680/680 679/679
f 679/679 680/680 681/681
f 681/681 680/680 682/682
f 682/682 683/683 681/681
f 684/684 681/681 683/683
f 683/683 685/685 684/684
f 684/684 685/685 686/686
f 684/684 686/686 687/687
f 687/687 686/686 688/688
f 687/687 688/688 689/689
f 689/689 688/688 690/690
f 688/688 691/691 690/690
f 691/691 692/692 690/690
f 690/690 692/692 693/693
f 692/692 694/694 693/693
f 693/693 694/694 695/695
f 694/694 696/696 695/695
f 695/695 696/696 697/697
f 696/696 698/698 697/697
f 698/698 699/699 697/697
f 698/698 700/700 699/699
f 699/699 700/700 701/701
f 700/700 702/702 701/701
f 702/702 703/703 701/701
f 702/702 704/704 703/703
f 703/703 704/704 705/705
f 706/706 703/703 705/705
f 707/707 706/706 705/705
f 705/705 708/708 707/707
f 711/711 710/710 709/709
f 710/710 712/712 709/709
f 712/712 713/713 709/709
f 713/713 714/714 709/709
f 709/709 714/714 715/715
f 715/715 714/714 716/716
f 714/714 717/717 716/716
f 718/718 716/716 717/717
f 718/718 717/717 719/719
f 720/720 718/718 719/719
f 721/721 720/720 719/719
f 722/722 720/720 721/721
f 722/722 721/721 723/723
f 722/722 723/723 724/724
f 725/725 724/724 723/723
f 726/726 724/724 725/725
f 725/725 727/727 726/726
f 726/726 727/727 728/728
f 727/727 729/729 728/728
f 730/730 728/728 729/729
f 729/729 731/731 730/730
f 730/730 731/731 732/732
f 732/732 733/733 730/730
f 732/732 734/734 733/733
f 733/733 734/734 735/735
f 734/734 736/736 735/735
f 736/736 734/734 737/737
f 738/738 736/736 737/737
f 737/737 739/739 738/738
f 740/740 738/738 739/739
f 738/738 740/740 741/741
f 741/741 740/740 742/742
f 743/743 741/741 742/742
f 746/746 745/745 744/744
f 746/746 747/747 745/745
f 747/747 748/748 745/745
f 748/748 747/747 749/749
f 750/750 748/748 749/749
f 750/750 751/751 748/748
f 750/750 752/752 751/751
f 752/752 753/753 751/751
f 752/752 754/754 753/753
f 754/754 755/755 753/753
f 756/756 755/755 754/754
f 757/757 755/755 756/756
f 756/756 758/758 757/757
f 757/757 758/758 759/759
f 758/758 760/760 759/759
f 761/761 759/759 760/760
f 759/759 761/761 762/762
f 763/763 762/762 761/761
f 764/764 763/763 761/761
f 763/763 764/764 765/765
f 766/766 763/763 765/765
f 765/765 767/767 766/766
f 768/768 766/766 767/767
f 771/771 770/770 769/769
f 772/772 771/771 769/769
f 771/771 772/772 773/773
f 773/773 774/774 771/771
f 774/774 773/773 775/775
f 773/773 776/776 775/775
f 777/777 775/775 776/776
f 776/776 778/778 777/777
f 779/779 777/777 778/778
f 779/779 780/780 777/777
f 781/781 780/780 779/779
f 781/781 779/779 782/782
f 782/782 783/783 781/781
f 783/783 782/782 784/784
f 784/784 785/785 783/783
f 785/785 786/786 783/783
f 785/785 787/787 786/786
f 785/785 788/788 787/787
f 789/789 787/787 788/788
f 788/788 790/790 789/789
f 793/793 792/792 791/791
f 793/793 791/791 794/794
f 795/795 794/794 791/791
f 795/795 791/791 796/796
f 799/799 798/798 797/797
f 800/800 798/798 799/799
f 800/800 799/799 801/801
f 804/804 803/803 802/802
f 803/803 805/805 802/802
