v 0.0062092742 -0.00394217841 0.00697286014
v 0.00729620347 -0.00581863833 0.00509762831
v 0.00359632773 -0.00578118566 0.00813653678
v 0.00568583708 -0.00394217009 -0.00740588148
v 0.000778356255 -0.00574662838 -0.00900253435
v 0.00619627223 -0.00583204619 -0.0063989959
v 0.00568583708 -0.00394217009 -0.00740588148
v -0.00200814177 -0.00394218059 -0.00895458506
v 0.000778356255 -0.00574662838 -0.00900253435
v 0.00650823007 0.00587127745 0.00621937288
v 0.00324666508 0.00405900602 0.00857352352
v 0.00174777182 0.00587378506 0.00879900108
v -0.00272815793 0.00585609463 0.00856965416
v -0.00456447414 0.00405922434 0.00813383158
v -0.00629633626 0.0055644823 0.00656745324
v -0.00905744199 0.00405688545 0.00151473305
v -0.00856407984 0.00589301087 -0.00296597918
v -0.00840441914 0.00586577261 0.00315316975
v -0.00905744199 0.00405688545 0.00151473305
v -0.0070272199 0.00405485455 -0.00622405132
v -0.00856407984 0.00589301087 -0.00296597918
v -0.0070272199 0.00405485455 -0.00622405132
v -0.00380779071 0.00579233714 -0.00835004612
v -0.00856407984 0.00589301087 -0.00296597918
v -0.0070272199 0.00405485455 -0.00622405132
v 0.00175170136 0.00405737898 -0.00918275109
v -0.00380779071 0.00579233714 -0.00835004612
v 0.00175170136 0.00405737898 -0.00918275109
v 0.00869185788 0.00405719478 -0.00344135551
v 0.00639000667 0.00585747276 -0.00646085173
v 0.00869185788 0.00405719478 -0.00344135551
v 0.00881752588 0.00588441367 -0.0015464444
v 0.00639000667 0.00585747276 -0.00646085173
v -0.00499998479 -0.00612639458 -0.02413685
v -0.0174999772 -0.00444217229 -0.0245579082
v -0.0174384486 -0.00639602229 -0.0226040676
v -0.0174538369 0.00649627684 -0.0226194461
v -0.0174999867 0.00455781621 -0.0245579053
v -0.00499998733 0.00632252224 -0.0239696645
v -0.0184992221 -0.00604509167 -0.0201764458
v -0.018008501 -0.00620931981 -0.0156216571
v -0.0175980133 -0.00573005899 -0.0212644256
v -0.0175980133 -0.00573005899 -0.0212644256
v -0.0184999836 -0.00119111681 -0.0242530776
v -0.0184992221 -0.00604509167 -0.0201764458
v -0.0175980133 -0.00573005899 -0.0212644256
v -0.0174999834 0.000302490542 -0.024216983
v -0.0184999836 -0.00119111681 -0.0242530776
v -0.0174999834 0.000302490542 -0.024216983
v -0.0179999846 0.00435633216 -0.0225187032
v -0.0184999836 -0.00119111681 -0.0242530776
v -0.0179999846 0.00435633216 -0.0225187032
v -0.0173310435 0.00672818709 -0.0172925676
v -0.0184993731 0.00670040592 -0.0184196542
v -0.018008501 -0.00620931981 -0.0156216571
v -0.018499998 -0.00333647638 -0.0118236567
v -0.0174999918 -0.00374821437 -0.0120882578
v -0.018499998 -0.00333647638 -0.0118236567
v -0.0174999938 0.00262682126 -0.0112503585
v -0.0174999918 -0.00374821437 -0.0120882578
v -0.018499998 -0.00333647638 -0.0118236567
v -0.0184999913 0.00380406002 -0.0117286814
v -0.0174999938 0.00262682126 -0.0112503585
v -0.0184999913 0.00380406002 -0.0117286814
v -0.0173310435 0.00672818709 -0.0172925676
v -0.0174999938 0.00262682126 -0.0112503585
v -0.0184999913 0.00380406002 -0.0117286814
v -0.0184993731 0.00670040592 -0.0184196542
v -0.0173310435 0.00672818709 -0.0172925676
v -0.00882781768 -0.00636625923 -0.0128808271
v -0.0124297623 -0.00637304219 -0.00970844922
v -0.0123467118 -0.00394222624 -0.0100245983
v 0.00621470061 -0.00394212857 -0.0152517954
v 0.00650436906 -0.00636000784 -0.0164019337
v 0.00548133959 -0.00638449808 -0.0148386054
v 0.00606860995 0.00405782319 -0.0151694519
v 0.0114288941 0.00405781748 -0.0161839009
v 0.00544941796 0.00405781986 -0.0147840925
v -0.00912526777 -0.00394121896 -0.000846642888
v -0.00784123151 -0.00394217746 0.00454467627
v -0.00896206424 -0.005773539 0.000917229409
v -0.0066269788 -0.00578118546 0.00593464538
v -0.00784123151 -0.00394217746 0.00454467627
v -0.00256025634 -0.00394217627 0.00897891223
v -0.0066269788 -0.00578118546 0.00593464538
v -0.00188657709 -0.00577217705 0.00881364613
v -0.00256025634 -0.00394217627 0.00897891223
v 0.00359632773 -0.00578118566 0.00813653678
v -0.00188657709 -0.00577217705 0.00881364613
v 0.0062092742 -0.00394217841 0.00697286014
v 0.0062092742 -0.00394217841 0.00697286014
v 0.00913491217 -0.00568842654 -0.00101061241
v 0.00729620347 -0.00581863833 0.00509762831
v 0.00917226387 -0.00394218179 -0.000294635652
v 0.00917226387 -0.00394218179 -0.000294635652
v 0.00568583708 -0.00394217009 -0.00740588148
v 0.00913491217 -0.00568842654 -0.00101061241
v 0.00619627223 -0.00583204619 -0.0063989959
v -0.00200814177 -0.00394218059 -0.00895458506
v -0.00417105497 -0.00583205037 -0.00787039535
v 0.000778356255 -0.00574662838 -0.00900253435
v -0.00674534205 -0.00394217991 -0.00605303321
v -0.00769201019 -0.00578118774 -0.00446875601
v -0.00912526777 -0.00394121896 -0.000846642888
v -0.00896206424 -0.005773539 0.000917229409
v 0.00810595194 0.00405914723 0.00426869119
v 0.0086688228 0.00557532879 0.0027256865
v 0.00869185788 0.00405719478 -0.00344135551
v 0.00881752588 0.00588441367 -0.0015464444
v 0.00810595194 0.00405914723 0.00426869119
v 0.00650823007 0.00587127745 0.00621937288
v 0.0086688228 0.00557532879 0.0027256865
v 0.00324666508 0.00405900602 0.00857352352
v 0.00324666508 0.00405900602 0.00857352352
v -0.00456447414 0.00405922434 0.00813383158
v 0.00174777182 0.00587378506 0.00879900108
v -0.00272815793 0.00585609463 0.00856965416
v -0.00456447414 0.00405922434 0.00813383158
v -0.00905744199 0.00405688545 0.00151473305
v -0.00629633626 0.0055644823 0.00656745324
v -0.00840441914 0.00586577261 0.00315316975
v -0.00380779071 0.00579233714 -0.00835004612
v 0.00175170136 0.00405737898 -0.00918275109
v 0.00193186519 0.00585943652 -0.00869600917
v 0.00639000667 0.00585747276 -0.00646085173
v 0.00549055314 -0.00644217605 -0.0240214533
v 0.00480445175 0.00655782029 -0.0243023198
v -0.00499998479 -0.00612639458 -0.02413685
v -0.00499998733 0.00632252224 -0.0239696645
v -0.0174999867 0.00455781621 -0.0245579053
v -0.0174999772 -0.00444217229 -0.0245579082
v -0.018008501 -0.00620931981 -0.0156216571
v -0.0174384486 -0.00639602229 -0.0226040676
v -0.0175980133 -0.00573005899 -0.0212644256
v -0.0174999772 -0.00444217229 -0.0245579082
v -0.0174999834 0.000302490542 -0.024216983
v -0.0174999867 0.00455781621 -0.0245579053
v -0.0179999846 0.00435633216 -0.0225187032
v -0.0174538369 0.00649627684 -0.0226194461
v -0.0173310435 0.00672818709 -0.0172925676
v -0.00840441914 0.00586577261 0.00315316975
v -0.00272815793 0.00585609463 0.00856965416
v -0.00629633626 0.0055644823 0.00656745324
v -0.00424346923 0.00585691522 0.00321723091
v -0.00856407984 0.00589301087 -0.00296597918
v -0.00067381594 0.00584066141 0.00515860265
v -0.00482574845 0.00555526416 0.0012056832
v 0.00174777182 0.00587378506 0.00879900108
v -0.00449949306 0.0055804088 -0.00275497277
v 0.00254228056 0.00586106748 0.00454950095
v -0.00380779071 0.00579233714 -0.00835004612
v 0.00650823007 0.00587127745 0.00621937288
v 0.00103145361 0.00580561218 -0.00529749159
v 0.00193186519 0.00585943652 -0.00869600917
v 0.00639000667 0.00585747276 -0.00646085173
v 0.00485597688 0.00583231564 -0.00219362937
v 0.00881752588 0.00588441367 -0.0015464444
v 0.00476628614 0.0058656206 0.00211942315
v 0.0086688228 0.00557532879 0.0027256865
v -0.0172907088 -0.00636488336 -0.00986208615
v -0.0173761841 -0.00394301248 -0.00981007179
v -0.0124297623 -0.00637304219 -0.00970844922
v -0.0123467118 -0.00394222624 -0.0100245983
v -0.018008501 -0.00620931981 -0.0156216571
v -0.0172907088 -0.00636488336 -0.00986208615
v -0.0124297623 -0.00637304219 -0.00970844922
v -0.00882781768 -0.00636625923 -0.0128808271
v -0.0174384486 -0.00639602229 -0.0226040676
v -0.00291651267 -0.00636029607 -0.0154284848
v -0.00499998479 -0.00612639458 -0.02413685
v 0.00548133959 -0.00638449808 -0.0148386054
v 0.00650436906 -0.00636000784 -0.0164019337
v 0.00549055314 -0.00644217605 -0.0240214533
v 0.0114544708 -0.00636481754 -0.0167504855
v -0.0172837337 0.0064797095 -0.00985636507
v -0.0174999938 0.00262682126 -0.0112503585
v -0.0173310435 0.00672818709 -0.0172925676
v -0.0173784054 0.00405821659 -0.00980367768
v -0.0173761841 -0.00394301248 -0.00981007179
v -0.0167750903 0.00405781828 0.00250200592
v -0.0167021277 -0.00394218042 0.00246295349
v -0.0174999918 -0.00374821437 -0.0120882578
v -0.0172907088 -0.00636488336 -0.00986208615
v -0.018008501 -0.00620931981 -0.0156216571
v -0.0124169663 0.00405770225 -0.00988322499
v -0.0173784054 0.00405821659 -0.00980367768
v -0.0123899741 0.00648258757 -0.00971282425
v -0.0172837337 0.0064797095 -0.00985636507
v 0.0063858455 0.00649270716 -0.0164727971
v 0.00480445175 0.00655782029 -0.0243023198
v 0.0114385513 0.00653601628 -0.0171025633
v -0.00499998733 0.00632252224 -0.0239696645
v 0.00579292771 0.00649609261 -0.0148541221
v -0.00266301215 0.00646830426 -0.015470534
v -0.00875528115 0.00649037389 -0.0129354346
v -0.0174538369 0.00649627684 -0.0226194461
v -0.0173310435 0.00672818709 -0.0172925676
v -0.0123899741 0.00648258757 -0.00971282425
v -0.0172837337 0.0064797095 -0.00985636507
v 0.00579292771 0.00649609261 -0.0148541221
v 0.0063858455 0.00649270716 -0.0164727971
v 0.00606860995 0.00405782319 -0.0151694519
v 0.00571177298 0.00405782171 -0.0148641266
v 0.00544941796 0.00405781986 -0.0147840925
v -0.00191665894 0.00405770171 -0.0156449445
v -0.00266301215 0.00646830426 -0.015470534
v -0.00875528115 0.00649037389 -0.0129354346
v -0.0124169663 0.00405770225 -0.00988322499
v -0.0123899741 0.00648258757 -0.00971282425
v 0.00548133959 -0.00638449808 -0.0148386054
v -0.00117093134 -0.00394198988 -0.0157159375
v 0.00621470061 -0.00394212857 -0.0152517954
v -0.00291651267 -0.00636029607 -0.0154284848
v -0.00291651267 -0.00636029607 -0.0154284848
v -0.0123467118 -0.00394222624 -0.0100245983
v -0.00117093134 -0.00394198988 -0.0157159375
v -0.00882781768 -0.00636625923 -0.0128808271
v 0.00621470061 -0.00394212857 -0.0152517954
v 0.011407879 -0.00394217759 0.00452159256
v 0.0114165825 -0.00394217432 -0.0161843142
v 0.00917226387 -0.00394218179 -0.000294635652
v 0.00568583708 -0.00394217009 -0.00740588148
v -0.00117093134 -0.00394198988 -0.0157159375
v -0.00200814177 -0.00394218059 -0.00895458506
v 0.0062092742 -0.00394217841 0.00697286014
v 0.00775093829 -0.00394217355 0.0113048365
v -0.0123467118 -0.00394222624 -0.0100245983
v -0.00674534205 -0.00394217991 -0.00605303321
v -0.00206145653 -0.00394217732 0.0127966341
v -0.00256025634 -0.00394217627 0.00897891223
v -0.00784123151 -0.00394217746 0.00454467627
v -0.0167021277 -0.00394218042 0.00246295349
v -0.00912526777 -0.00394121896 -0.000846642888
v -0.0173761841 -0.00394301248 -0.00981007179
v 0.00476628614 0.0058656206 0.00211942315
v 0.00254228056 0.00586106748 0.00454950095
v 0.00321680394 -0.00561232127 0.00403719932
v 0.00530531011 -0.00573573515 -0.000390740388
v 0.00485597688 0.00583231564 -0.00219362937
v 0.00381869115 -0.00542945712 -0.00334743272
v 0.00103145361 0.00580561218 -0.00529749159
v 0.00112117537 -0.00573789029 -0.00518209054
v -0.0031869617 -0.0057436987 0.0041745916
v -7.18560789e-05 -0.00571695528 0.00523402523
v -0.00424346923 0.00585691522 0.00321723091
v -0.00067381594 0.00584066141 0.00515860265
v -7.18560789e-05 -0.00571695528 0.00523402523
v 0.00321680394 -0.00561232127 0.00403719932
v -0.00067381594 0.00584066141 0.00515860265
v 0.00254228056 0.00586106748 0.00454950095
v 0.00112117537 -0.00573789029 -0.00518209054
v -0.00214319632 -0.00543483675 -0.00459682669
v 0.00103145361 0.00580561218 -0.00529749159
v -0.00449949306 0.0055804088 -0.00275497277
v -0.00456713883 -0.0057311809 -0.00264954033
v -0.00456713883 -0.0057311809 -0.00264954033
v -0.00501126401 -0.00573611804 0.00148785639
v -0.00449949306 0.0055804088 -0.00275497277
v -0.00482574845 0.00555526416 0.0012056832
v -0.00501126401 -0.00573611804 0.00148785639
v -0.0031869617 -0.0057436987 0.0041745916
v -0.00482574845 0.00555526416 0.0012056832
v -0.00424346923 0.00585691522 0.00321723091
v -0.0167021277 -0.00394218042 0.00246295349
v -0.0167750903 0.00405781828 0.00250200592
v -0.00206145653 -0.00394217732 0.0127966341
v -0.00170957282 0.00405782397 0.0128796732
v -0.0184999913 0.00380406002 -0.0117286814
v -0.018499998 -0.00333647638 -0.0118236567
v -0.018008501 -0.00620931981 -0.0156216571
v -0.0184993731 0.00670040592 -0.0184196542
v -0.0184992221 -0.00604509167 -0.0201764458
v -0.0179999846 0.00435633216 -0.0225187032
v -0.0184999836 -0.00119111681 -0.0242530776
v 0.0114165825 -0.00394217432 -0.0161843142
v 0.0114544708 -0.00636481754 -0.0167504855
v 0.00621470061 -0.00394212857 -0.0152517954
v 0.00650436906 -0.00636000784 -0.0164019337
v 0.0114385513 0.00653601628 -0.0171025633
v 0.0114288941 0.00405781748 -0.0161839009
v 0.0063858455 0.00649270716 -0.0164727971
v 0.00606860995 0.00405782319 -0.0151694519
v 0.0114385513 0.00653601628 -0.0171025633
v 0.0114544708 -0.00636481754 -0.0167504855
v 0.0114288941 0.00405781748 -0.0161839009
v 0.0114165825 -0.00394217432 -0.0161843142
v 0.011407879 -0.00394217759 0.00452159256
v 0.0110317134 0.00405782253 0.00658166464
v 0.00775093829 -0.00394217355 0.0113048365
v 0.00616666185 0.00405781956 0.0119122764
v 0.0114385513 0.00653601628 -0.0171025633
v 0.00549055314 -0.00644217605 -0.0240214533
v 0.0114544708 -0.00636481754 -0.0167504855
v 0.00480445175 0.00655782029 -0.0243023198
v -0.00170957282 0.00405782397 0.0128796732
v 0.00775093829 -0.00394217355 0.0113048365
v -0.00206145653 -0.00394217732 0.0127966341
v 0.00616666185 0.00405781956 0.0119122764
v 0.0114288941 0.00405781748 -0.0161839009
v 0.00175170136 0.00405737898 -0.00918275109
v 0.00544941796 0.00405781986 -0.0147840925
v -0.00191665894 0.00405770171 -0.0156449445
v 0.00869185788 0.00405719478 -0.00344135551
v 0.0110317134 0.00405782253 0.00658166464
v 0.00810595194 0.00405914723 0.00426869119
v 0.00616666185 0.00405781956 0.0119122764
v 0.00324666508 0.00405900602 0.00857352352
v -0.00170957282 0.00405782397 0.0128796732
v -0.00456447414 0.00405922434 0.00813383158
v -0.0167750903 0.00405781828 0.00250200592
v -0.00905744199 0.00405688545 0.00151473305
v -0.0173784054 0.00405821659 -0.00980367768
v -0.0070272199 0.00405485455 -0.00622405132
v -0.0124169663 0.00405770225 -0.00988322499
v -0.00456713883 -0.0057311809 -0.00264954033
v -0.00769201019 -0.00578118774 -0.00446875601
v -0.00896206424 -0.005773539 0.000917229409
v -0.00417105497 -0.00583205037 -0.00787039535
v -0.00501126401 -0.00573611804 0.00148785639
v -0.00214319632 -0.00543483675 -0.00459682669
v -0.0066269788 -0.00578118546 0.00593464538
v -0.0031869617 -0.0057436987 0.0041745916
v -0.00188657709 -0.00577217705 0.00881364613
v -7.18560789e-05 -0.00571695528 0.00523402523
v 0.00359632773 -0.00578118566 0.00813653678
v 0.00321680394 -0.00561232127 0.00403719932
v 0.00729620347 -0.00581863833 0.00509762831
v 0.00112117537 -0.00573789029 -0.00518209054
v 0.000778356255 -0.00574662838 -0.00900253435
v 0.00530531011 -0.00573573515 -0.000390740388
v 0.00913491217 -0.00568842654 -0.00101061241
v 0.00619627223 -0.00583204619 -0.0063989959
v 0.00381869115 -0.00542945712 -0.00334743272
vt 0.047668457 0.984375
vt 0.0551757812 0.984863281
vt 0.0513000488 0.9765625
vt 0.0809936523 0.993164062
vt 0.0846557617 0.981445312
vt 0.0765991211 0.989746094
vt 0.0809936523 0.993164062
vt 0.0915527344 0.977050781
vt 0.0846557617 0.981445312
vt 0.950195312 0.8203125
vt 0.946777344 0.831054688
vt 0.953125 0.83203125
vt 0.960449219 0.837402344
vt 0.962402344 0.844238281
vt 0.96875 0.840332031
vt 0.981933594 0.841308594
vt 0.984375 0.830078125
vt 0.976074219 0.838378906
vt 0.981933594 0.841308594
vt 0.991210938 0.82421875
vt 0.984375 0.830078125
vt 0.991210938 0.82421875
vt 0.985839844 0.816894531
vt 0.984375 0.830078125
vt 0.991210938 0.82421875
vt 0.984863281 0.802246094
vt 0.985839844 0.816894531
vt 0.984863281 0.802246094
vt 0.9609375 0.798828125
vt 0.970214844 0.804199219
vt 0.9609375 0.798828125
vt 0.959472656 0.806152344
vt 0.970214844 0.804199219
vt 0.517089844 0.240966797
vt 0.518554688 0.214355469
vt 0.512695312 0.21484375
vt 0.231811523 0.818359375
vt 0.226074219 0.817871094
vt 0.228271484 0.844726562
vt 0.385009766 0.0137863159
vt 0.386474609 0.0258331299
vt 0.386474609 0.0111465454
vt 0.386474609 0.0111465454
vt 0.37890625 0.00508117676
vt 0.385009766 0.0137863159
vt 0.386474609 0.0111465454
vt 0.377441406 0.00142288208
vt 0.37890625 0.00508117676
vt 0.377441406 0.00142288208
vt 0.363769531 0.00105857849
vt 0.37890625 0.00508117676
vt 0.363769531 0.00105857849
vt 0.357177734 0.0118560791
vt 0.360107422 0.0105361938
vt 0.386474609 0.0258331299
vt 0.372802734 0.0298614502
vt 0.373779297 0.0328369141
vt 0.372802734 0.0298614502
vt 0.360595703 0.025100708
vt 0.373779297 0.0328369141
vt 0.372802734 0.0298614502
vt 0.361572266 0.0219268799
vt 0.360595703 0.025100708
vt 0.361572266 0.0219268799
vt 0.357177734 0.0118560791
vt 0.360595703 0.025100708
vt 0.361572266 0.0219268799
vt 0.360107422 0.0105361938
vt 0.357177734 0.0118560791
vt 0.842285156 0.0916137695
vt 0.841796875 0.0814819336
vt 0.836425781 0.0824584961
vt 0.837890625 0.124633789
vt 0.842773438 0.126953125
vt 0.842773438 0.123046875
vt 0.83203125 0.694335938
vt 0.829101562 0.683105469
vt 0.831542969 0.695800781
vt 0.0770874023 0.951660156
vt 0.0622253418 0.951660156
vt 0.0717773438 0.955566406
vt 0.0602111816 0.957519531
vt 0.0622253418 0.951660156
vt 0.047668457 0.962402344
vt 0.0602111816 0.957519531
vt 0.0520324707 0.965820312
vt 0.047668457 0.962402344
vt 0.0513000488 0.9765625
vt 0.0520324707 0.965820312
vt 0.047668457 0.984375
vt 0.047668457 0.984375
vt 0.0648193359 0.9921875
vt 0.0551757812 0.984863281
vt 0.0626220703 0.995605469
vt 0.0626220703 0.995605469
vt 0.0809936523 0.993164062
vt 0.0648193359 0.9921875
vt 0.0765991211 0.989746094
vt 0.0915527344 0.977050781
vt 0.0864868164 0.971191406
vt 0.0846557617 0.981445312
vt 0.089050293 0.961914062
vt 0.0822753906 0.961425781
vt 0.0770874023 0.951660156
vt 0.0717773438 0.955566406
vt 0.946777344 0.812988281
vt 0.952636719 0.811523438
vt 0.9609375 0.798828125
vt 0.959472656 0.806152344
vt 0.946777344 0.812988281
vt 0.950195312 0.8203125
vt 0.952636719 0.811523438
vt 0.946777344 0.831054688
vt 0.946777344 0.831054688
vt 0.962402344 0.844238281
vt 0.953125 0.83203125
vt 0.960449219 0.837402344
vt 0.962402344 0.844238281
vt 0.981933594 0.841308594
vt 0.96875 0.840332031
vt 0.976074219 0.838378906
vt 0.985839844 0.816894531
vt 0.984863281 0.802246094
vt 0.98046875 0.806640625
vt 0.970214844 0.804199219
vt 0.961914062 0.000439405441
vt 0.934082031 0.00123214722
vt 0.960449219 0.0226135254
vt 0.934082031 0.0220031738
vt 0.9375 0.0485534668
vt 0.956542969 0.0489807129
vt 0.476074219 0.203979492
vt 0.461181641 0.205200195
vt 0.464355469 0.206298828
vt 0.457519531 0.209716797
vt 0.459472656 0.219604492
vt 0.459716797 0.228637695
vt 0.463867188 0.227783203
vt 0.464111328 0.232421875
vt 0.475341797 0.232421875
vt 0.976074219 0.838378906
vt 0.960449219 0.837402344
vt 0.96875 0.840332031
vt 0.970214844 0.83203125
vt 0.984375 0.830078125
vt 0.962402344 0.829589844
vt 0.973632812 0.830078125
vt 0.953125 0.83203125
vt 0.979003906 0.82421875
vt 0.958496094 0.82421875
vt 0.985839844 0.816894531
vt 0.950195312 0.8203125
vt 0.975585938 0.812988281
vt 0.98046875 0.806640625
vt 0.970214844 0.804199219
vt 0.965820312 0.811523438
vt 0.959472656 0.806152344
vt 0.959472656 0.817382812
vt 0.952636719 0.811523438
vt 0.83984375 0.0712890625
vt 0.834960938 0.0718994141
vt 0.841796875 0.0814819336
vt 0.836425781 0.0824584961
vt 0.498046875 0.214355469
vt 0.485839844 0.216430664
vt 0.486083984 0.22668457
vt 0.493164062 0.234008789
vt 0.512695312 0.21484375
vt 0.499023438 0.24621582
vt 0.517089844 0.240966797
vt 0.498535156 0.263916016
vt 0.501953125 0.266113281
vt 0.518066406 0.263183594
vt 0.503417969 0.276367188
vt 0.315429688 0.0164031982
vt 0.323486328 0.0134735107
vt 0.314941406 0.000669002533
vt 0.320556641 0.0165252686
vt 0.337402344 0.0166015625
vt 0.3203125 0.0426025391
vt 0.337158203 0.0426025391
vt 0.336914062 0.0117721558
vt 0.342529297 0.0165252686
vt 0.342285156 0.00424194336
vt 0.830078125 0.736816406
vt 0.829101562 0.747070312
vt 0.835449219 0.737304688
vt 0.833984375 0.747558594
vt 0.243408203 0.869140625
vt 0.226928711 0.865234375
vt 0.241821289 0.879882812
vt 0.228271484 0.844726562
vt 0.246948242 0.867675781
vt 0.24609375 0.850097656
vt 0.251708984 0.837402344
vt 0.231811523 0.818359375
vt 0.243164062 0.818847656
vt 0.258789062 0.829589844
vt 0.258789062 0.819335938
vt 0.836914062 0.6953125
vt 0.836914062 0.69140625
vt 0.83203125 0.694335938
vt 0.83203125 0.6953125
vt 0.831542969 0.695800781
vt 0.831054688 0.711425781
vt 0.836425781 0.712890625
vt 0.8359375 0.727050781
vt 0.830078125 0.736816406
vt 0.835449219 0.737304688
vt 0.842773438 0.123046875
vt 0.837402344 0.108947754
vt 0.837890625 0.124633789
vt 0.842773438 0.105224609
vt 0.842773438 0.105224609
vt 0.836425781 0.0824584961
vt 0.837402344 0.108947754
vt 0.842285156 0.0916137695
vt 0.317382812 0.890625
vt 0.275146484 0.899902344
vt 0.319091797 0.901855469
vt 0.285644531 0.895507812
vt 0.301025391 0.888671875
vt 0.319091797 0.875
vt 0.3046875 0.872558594
vt 0.270507812 0.888671875
vt 0.261230469 0.891601562
vt 0.307861328 0.851074219
vt 0.299072266 0.862304688
vt 0.258789062 0.87109375
vt 0.266845703 0.870117188
vt 0.276611328 0.859375
vt 0.281738281 0.840820312
vt 0.288085938 0.856933594
vt 0.307861328 0.840332031
vt 0.815429688 0.0556335449
vt 0.815429688 0.0626220703
vt 0.83984375 0.0607910156
vt 0.83984375 0.0504455566
vt 0.815429688 0.0465087891
vt 0.839355469 0.0434265137
vt 0.815429688 0.0361022949
vt 0.83984375 0.036529541
vt 0.83984375 0.00724411011
vt 0.83984375 0.000283718109
vt 0.815429688 0.0103912354
vt 0.815429688 0.00179195404
vt 0.83984375 0.0681762695
vt 0.83984375 0.0607910156
vt 0.815429688 0.069519043
vt 0.815429688 0.0626220703
vt 0.83984375 0.036529541
vt 0.839355469 0.0294952393
vt 0.815429688 0.0361022949
vt 0.815917969 0.0232086182
vt 0.83984375 0.0229187012
vt 0.83984375 0.0229187012
vt 0.83984375 0.0141143799
vt 0.815917969 0.0232086182
vt 0.815917969 0.0148086548
vt 0.83984375 0.0141143799
vt 0.83984375 0.00724411011
vt 0.815917969 0.0148086548
vt 0.815429688 0.0103912354
vt 0.337158203 0.0426025391
vt 0.3203125 0.0426025391
vt 0.337402344 0.0805053711
vt 0.320556641 0.0812988281
vt 0.361572266 0.0219268799
vt 0.372802734 0.0298614502
vt 0.386474609 0.0258331299
vt 0.360107422 0.0105361938
vt 0.385009766 0.0137863159
vt 0.363769531 0.00105857849
vt 0.37890625 0.00508117676
vt 0.834960938 0.135498047
vt 0.83984375 0.137084961
vt 0.837890625 0.124633789
vt 0.842773438 0.126953125
vt 0.833984375 0.681152344
vt 0.829101562 0.683105469
vt 0.836914062 0.69140625
vt 0.83203125 0.694335938
vt 0.314941406 0.163452148
vt 0.342041016 0.162841797
vt 0.320068359 0.161499023
vt 0.336914062 0.161621094
vt 0.337158203 0.117858887
vt 0.3203125 0.11340332
vt 0.337402344 0.101501465
vt 0.320556641 0.0980834961
vt 0.310058594 0.670898438
vt 0.329833984 0.643554688
vt 0.310058594 0.643554688
vt 0.330810547 0.671386719
vt 0.320556641 0.0812988281
vt 0.337402344 0.101501465
vt 0.337402344 0.0805053711
vt 0.320556641 0.0980834961
vt 0.643554688 0.841796875
vt 0.629394531 0.862792969
vt 0.641113281 0.854492188
vt 0.643554688 0.870117188
vt 0.616699219 0.848632812
vt 0.595214844 0.844238281
vt 0.600585938 0.850585938
vt 0.584472656 0.854980469
vt 0.591796875 0.861328125
vt 0.583007812 0.872070312
vt 0.593261719 0.877441406
vt 0.606445312 0.902832031
vt 0.607910156 0.88671875
vt 0.632324219 0.903320312
vt 0.624023438 0.881347656
vt 0.632324219 0.892578125
vt 0.0763549805 0.966796875
vt 0.0822753906 0.961425781
vt 0.0717773438 0.955566406
vt 0.0864868164 0.971191406
vt 0.0682983398 0.963378906
vt 0.0785522461 0.97265625
vt 0.0602111816 0.957519531
vt 0.0619506836 0.965332031
vt 0.0520324707 0.965820312
vt 0.0583496094 0.971191406
vt 0.0513000488 0.9765625
vt 0.0589904785 0.978027344
vt 0.0551757812 0.984863281
vt 0.0775756836 0.979492188
vt 0.0846557617 0.981445312
vt 0.0660400391 0.984375
vt 0.0648193359 0.9921875
vt 0.0765991211 0.989746094
vt 0.0724487305 0.983398438
f 3/3 2/2 1/1
f 6/6 5/5 4/4
f 9/9 8/8 7/7
f 12/12 11/11 10/10
f 15/15 14/14 13/13
f 18/18 17/17 16/16
f 21/21 20/20 19/19
f 24/24 23/23 22/22
f 27/27 26/26 25/25
f 30/30 29/29 28/28
f 33/33 32/32 31/31
f 36/36 35/35 34/34
f 39/39 38/38 37/37
f 42/42 41/41 40/40
f 45/45 44/44 43/43
f 48/48 47/47 46/46
f 51/51 50/50 49/49
f 54/54 53/53 52/52
f 57/57 56/56 55/55
f 60/60 59/59 58/58
f 63/63 62/62 61/61
f 66/66 65/65 64/64
f 69/69 68/68 67/67
f 72/72 71/71 70/70
f 75/75 74/74 73/73
f 78/78 77/77 76/76
f 81/81 80/80 79/79
f 81/81 82/82 80/80
f 85/85 84/84 83/83
f 85/85 86/86 84/84
f 89/89 88/88 87/87
f 88/88 90/90 87/87
f 93/93 92/92 91/91
f 92/92 94/94 91/91
f 97/97 96/96 95/95
f 97/97 98/98 96/96
f 101/101 100/100 99/99
f 100/100 102/102 99/99
f 100/100 103/103 102/102
f 103/103 104/104 102/102
f 103/103 105/105 104/104
f 108/108 107/107 106/106
f 109/109 107/107 108/108
f 112/112 111/111 110/110
f 111/111 113/113 110/110
f 116/116 115/115 114/114
f 117/117 115/115 116/116
f 120/120 119/119 118/118
f 121/121 119/119 120/120
f 124/124 123/123 122/122
f 124/124 125/125 123/123
f 128/128 127/127 126/126
f 127/127 128/128 129/129
f 128/128 130/130 129/129
f 128/128 131/131 130/130
f 134/134 133/133 132/132
f 134/134 135/135 133/133
f 134/134 136/136 135/135
f 137/137 135/135 136/136
f 138/138 137/137 136/136
f 138/138 139/139 137/137
f 138/138 140/140 139/139
f 143/143 142/142 141/141
f 141/141 142/142 144/144
f 145/145 141/141 144/144
f 142/142 146/146 144/144
f 147/147 145/145 144/144
f 142/142 148/148 146/146
f 149/149 145/145 147/147
f 148/148 150/150 146/146
f 151/151 145/145 149/149
f 148/148 152/152 150/150
f 151/151 149/149 153/153
f 154/154 151/151 153/153
f 155/155 154/154 153/153
f 155/155 153/153 156/156
f 157/157 155/155 156/156
f 152/152 158/158 150/150
f 156/156 158/158 157/157
f 152/152 157/157 158/158
f 159/159 157/157 152/152
f 162/162 161/161 160/160
f 162/162 163/163 161/161
f 166/166 165/165 164/164
f 167/167 166/166 164/164
f 167/167 164/164 168/168
f 167/167 168/168 169/169
f 169/169 168/168 170/170
f 171/171 169/169 170/170
f 172/172 171/171 170/170
f 173/173 172/172 170/170
f 173/173 174/174 172/172
f 177/177 176/176 175/175
f 176/176 178/178 175/175
f 178/178 176/176 179/179
f 180/180 178/178 179/179
f 180/180 179/179 181/181
f 182/182 179/179 176/176
f 182/182 183/183 179/179
f 182/182 184/184 183/183
f 187/187 186/186 185/185
f 187/187 188/188 186/186
f 191/191 190/190 189/189
f 189/189 190/190 192/192
f 189/189 192/192 193/193
f 192/192 194/194 193/193
f 195/195 194/194 192/192
f 195/195 192/192 196/196
f 195/195 196/196 197/197
f 198/198 195/195 197/197
f 198/198 197/197 199/199
f 202/202 201/201 200/200
f 203/203 202/202 200/200
f 204/204 203/203 200/200
f 205/205 204/204 200/200
f 205/205 200/200 206/206
f 205/205 206/206 207/207
f 208/208 205/205 207/207
f 208/208 207/207 209/209
f 212/212 211/211 210/210
f 211/211 213/213 210/210
f 216/216 215/215 214/214
f 215/215 217/217 214/214
f 220/220 219/219 218/218
f 219/219 221/221 218/218
f 221/221 222/222 218/218
f 222/222 223/223 218/218
f 222/222 224/224 223/223
f 221/221 219/219 225/225
f 219/219 226/226 225/225
f 227/227 223/223 224/224
f 227/227 224/224 228/228
f 226/226 229/229 225/225
f 229/229 230/230 225/225
f 230/230 229/229 231/231
f 231/231 229/229 232/232
f 233/233 227/227 228/228
f 233/233 231/231 232/232
f 234/234 227/227 233/233
f 232/232 234/234 233/233
f 237/237 236/236 235/235
f 235/235 238/238 237/237
f 235/235 239/239 238/238
f 239/239 240/240 238/238
f 239/239 241/241 240/240
f 241/241 242/242 240/240
f 245/245 244/244 243/243
f 245/245 246/246 244/244
f 249/249 248/248 247/247
f 249/249 250/250 248/248
f 253/253 252/252 251/251
f 253/253 254/254 252/252
f 254/254 255/255 252/252
f 258/258 257/257 256/256
f 258/258 259/259 257/257
f 262/262 261/261 260/260
f 262/262 263/263 261/261
f 266/266 265/265 264/264
f 266/266 267/267 265/265
f 270/270 269/269 268/268
f 271/271 270/270 268/268
f 272/272 270/270 271/271
f 273/273 272/272 271/271
f 274/274 272/272 273/273
f 277/277 276/276 275/275
f 277/277 278/278 276/276
f 281/281 280/280 279/279
f 281/281 282/282 280/280
f 285/285 284/284 283/283
f 284/284 285/285 286/286
f 287/287 286/286 285/285
f 287/287 285/285 288/288
f 289/289 287/287 288/288
f 289/289 288/288 290/290
f 293/293 292/292 291/291
f 292/292 294/294 291/291
f 297/297 296/296 295/295
f 296/296 298/298 295/295
f 301/301 300/300 299/299
f 301/301 302/302 300/300
f 300/300 303/303 299/299
f 299/299 303/303 304/304
f 303/303 305/305 304/304
f 305/305 306/306 304/304
f 306/306 305/305 307/307
f 308/308 306/306 307/307
f 309/309 308/308 307/307
f 309/309 310/310 308/308
f 309/309 311/311 310/310
f 312/312 310/310 311/311
f 313/313 300/300 302/302
f 312/312 311/311 313/313
f 313/313 302/302 314/314
f 312/312 313/313 314/314
f 317/317 316/316 315/315
f 316/316 318/318 315/315
f 317/317 315/315 319/319
f 318/318 320/320 315/315
f 321/321 317/317 319/319
f 321/321 319/319 322/322
f 323/323 321/321 322/322
f 323/323 322/322 324/324
f 325/325 323/323 324/324
f 325/325 324/324 326/326
f 327/327 325/325 326/326
f 328/328 320/320 318/318
f 318/318 329/329 328/328
f 327/327 326/326 330/330
f 327/327 330/330 331/331
f 329/329 332/332 328/328
f 332/332 331/331 330/330
f 332/332 333/333 328/328
f 330/330 333/333 332/332
