v 2.14943998 0.939803375 2.0599992
v 2.1475266 0.944422717 2.05499911
v 2.15405929 0.941716742 2.05499911
v 2.06167139 0.903448735 2.05499914
v 2.06437732 0.909981443 2.05499914
v 2.06629087 0.905362175 2.05999922
v 2.18634269 0.850711786 2.05499912
v 2.18442933 0.85533107 2.05999921
v 2.18904864 0.857244436 2.05499912
v 2.09666072 0.818976483 2.05499915
v 2.10128005 0.820889798 2.05999923
v 2.10319358 0.816270583 2.05499914
v 2.17035117 0.990287754 -0.940000425
v 2.01580504 0.926273257 -0.940000382
v 2.08036758 0.77040449 -0.94000037
v 2.23491375 0.834418879 -0.940000413
v 2.01580504 0.926273257 -0.940000382
v 2.01580504 0.926273258 -0.931000454
v 2.08036758 0.770404491 -0.931000442
v 2.08036758 0.77040449 -0.94000037
v 2.17035117 0.990287754 -0.940000425
v 2.23491375 0.834418879 -0.940000413
v 2.23491376 0.834418881 -0.931000485
v 2.17035117 0.990287756 -0.931000497
v 2.23491375 0.834418879 -0.940000413
v 2.08036758 0.77040449 -0.94000037
v 2.08036758 0.770404491 -0.931000442
v 2.23491376 0.834418881 -0.931000485
v 2.17035117 0.990287754 -0.940000425
v 2.17035117 0.990287756 -0.931000497
v 2.01580504 0.926273258 -0.931000454
v 2.01580504 0.926273257 -0.940000382
v 2.14752601 0.944422116 -0.931000484
v 2.17035117 0.990287756 -0.931000497
v 2.1540587 0.941716144 -0.931000485
v 2.18904796 0.857244059 -0.931000479
v 2.23491376 0.834418881 -0.931000485
v 2.18634204 0.850711351 -0.931000477
v 2.06167081 0.903448137 -0.931000459
v 2.01580504 0.926273258 -0.931000454
v 2.06437674 0.909980847 -0.931000461
v 2.08036758 0.770404491 -0.931000442
v 2.09666014 0.818975885 -0.931000453
v 2.103193 0.816269982 -0.931000454
v 2.06167081 0.903448137 -0.931000459
v 2.06437674 0.909980847 -0.931000461
v 2.06437732 0.909981443 2.05499914
v 2.06167139 0.903448735 2.05499914
v 2.06629087 0.905362175 2.05999922
v 2.06437732 0.909981443 2.05499914
v 2.1475266 0.944422717 2.05499911
v 2.14943998 0.939803375 2.0599992
v 2.15405929 0.941716742 2.05499911
v 2.1475266 0.944422717 2.05499911
v 2.14752601 0.944422116 -0.931000484
v 2.1540587 0.941716144 -0.931000485
v 2.06167139 0.903448735 2.05499914
v 2.06629087 0.905362175 2.05999922
v 2.10128005 0.820889798 2.05999923
v 2.09666072 0.818976483 2.05499915
v 2.10319358 0.816270583 2.05499914
v 2.10128005 0.820889798 2.05999923
v 2.18442933 0.85533107 2.05999921
v 2.18634269 0.850711786 2.05499912
v 2.18904864 0.857244436 2.05499912
v 2.18442933 0.85533107 2.05999921
v 2.14943998 0.939803375 2.0599992
v 2.15405929 0.941716742 2.05499911
v 2.18904796 0.857244059 -0.931000479
v 2.18634204 0.850711351 -0.931000477
v 2.18634269 0.850711786 2.05499912
v 2.18904864 0.857244436 2.05499912
v 2.09666072 0.818976483 2.05499915
v 2.10319358 0.816270583 2.05499914
v 2.103193 0.816269982 -0.931000454
v 2.09666014 0.818975885 -0.931000453
v 2.14943998 0.939803375 2.0599992
v 2.18442933 0.85533107 2.05999921
v 2.10128005 0.820889798 2.05999923
v 2.06629087 0.905362175 2.05999922
v 2.14752601 0.944422116 -0.931000484
v 2.1475266 0.944422717 2.05499911
v 2.06437732 0.909981443 2.05499914
v 2.06437674 0.909980847 -0.931000461
v 2.1540587 0.941716144 -0.931000485
v 2.18904796 0.857244059 -0.931000479
v 2.18904864 0.857244436 2.05499912
v 2.15405929 0.941716742 2.05499911
v 2.06167081 0.903448137 -0.931000459
v 2.06167139 0.903448735 2.05499914
v 2.09666072 0.818976483 2.05499915
v 2.09666014 0.818975885 -0.931000453
v 2.18634204 0.850711351 -0.931000477
v 2.103193 0.816269982 -0.931000454
v 2.10319358 0.816270583 2.05499914
v 2.18634269 0.850711786 2.05499912
v 2.01580504 0.926273258 -0.931000454
v 2.17035117 0.990287756 -0.931000497
v 2.14752601 0.944422116 -0.931000484
v 2.06437674 0.909980847 -0.931000461
v 2.23491376 0.834418881 -0.931000485
v 2.08036758 0.770404491 -0.931000442
v 2.103193 0.816269982 -0.931000454
v 2.18634204 0.850711351 -0.931000477
vt 0.936035156 1
vt 0.937988281 0.997558594
vt 0.936035156 0.997558594
vt 0.987792969 0.00225067139
vt 0.989746094 0.00225067139
vt 0.987792969 0
vt 0.903808594 0.997558594
vt 0.90625 1
vt 0.90625 0.997558594
vt 0.955078125 0.00243186951
vt 0.955078125 0.000110983849
vt 0.952636719 0.00243186951
vt 0.414794922 0.555664062
vt 0.467285156 0.555664062
vt 0.467285156 0.502929688
vt 0.414794922 0.502929688
vt 1 1
vt 1 0.996582031
vt 0.942382812 0.996582031
vt 0.942382812 1
vt 0.948242188 0
vt 0.890625 0
vt 0.890625 0.00321578979
vt 0.948242188 0.00321578979
vt 0.844726562 0.999511719
vt 0.8984375 0.999511719
vt 0.8984375 0.996582031
vt 0.844726562 0.996582031
vt 0.798339844 0.000377655029
vt 0.798339844 0.00347328186
vt 0.852539062 0.00347328186
vt 0.852539062 0.000378131866
vt 0.938476562 0.0150375366
vt 0.948242188 0.00321578979
vt 0.936035156 0.0150375366
vt 0.903808594 0.0150375366
vt 0.890625 0.00321578979
vt 0.900878906 0.0150375366
vt 0.987304688 0.984863281
vt 1 0.996582031
vt 0.989746094 0.984863281
vt 0.942382812 0.996582031
vt 0.955078125 0.984863281
vt 0.952636719 0.984863281
vt 0.987304688 0.984863281
vt 0.989746094 0.984863281
vt 0.989746094 0.00225067139
vt 0.987792969 0.00225067139
vt 0.839355469 0.999511719
vt 0.839355469 0.997070312
vt 0.812011719 0.997070312
vt 0.812011719 0.999511719
vt 0.936035156 0.997558594
vt 0.937988281 0.997558594
vt 0.938476562 0.0150375366
vt 0.936035156 0.0150375366
vt 0.987792969 0.00225067139
vt 0.987792969 0
vt 0.955078125 0.000110983849
vt 0.955078125 0.00243186951
vt 0.885253906 0.00280952454
vt 0.885253906 0.000377655029
vt 0.857910156 0.000377655029
vt 0.857910156 0.00280952454
vt 0.90625 0.997558594
vt 0.90625 1
vt 0.936035156 1
vt 0.936035156 0.997558594
vt 0.903808594 0.0150375366
vt 0.900878906 0.0150375366
vt 0.903808594 0.997558594
vt 0.90625 0.997558594
vt 0.955078125 0.00243186951
vt 0.952636719 0.00243186951
vt 0.952636719 0.984863281
vt 0.955078125 0.984863281
vt 0.417236328 0.564941406
vt 0.417236328 0.592285156
vt 0.443847656 0.592285156
vt 0.443847656 0.564941406
vt 0.812011719 0.0150375366
vt 0.812011719 0.997070312
vt 0.839355469 0.997070312
vt 0.839355469 0.0150375366
vt 0.936035156 0.0150375366
vt 0.903808594 0.0150375366
vt 0.90625 0.997558594
vt 0.936035156 0.997558594
vt 0.987304688 0.984863281
vt 0.987792969 0.00225067139
vt 0.955078125 0.00243186951
vt 0.955078125 0.984863281
vt 0.857910156 0.984863281
vt 0.885253906 0.984863281
vt 0.885253906 0.00280952454
vt 0.857910156 0.00280952454
vt 0.852539062 0.00347328186
vt 0.798339844 0.00347328186
vt 0.812011719 0.0150375366
vt 0.839355469 0.0150375366
vt 0.844726562 0.996582031
vt 0.8984375 0.996582031
vt 0.885253906 0.984863281
vt 0.857910156 0.984863281
f 3/3 2/2 1/1
f 6/6 5/5 4/4
f 9/9 8/8 7/7
f 12/12 11/11 10/10
f 15/15 14/14 13/13
f 16/16 15/15 13/13
f 19/19 18/18 17/17
f 20/20 19/19 17/17
f 23/23 22/22 21/21
f 24/24 23/23 21/21
f 27/27 26/26 25/25
f 28/28 27/27 25/25
f 31/31 30/30 29/29
f 32/32 31/31 29/29
f 35/35 34/34 33/33
f 35/35 36/36 34/34
f 36/36 37/37 34/34
f 38/38 37/37 36/36
f 41/41 40/40 39/39
f 39/39 40/40 42/42
f 43/43 39/39 42/42
f 43/43 42/42 44/44
f 47/47 46/46 45/45
f 48/48 47/47 45/45
f 51/51 50/50 49/49
f 52/52 51/51 49/49
f 55/55 54/54 53/53
f 56/56 55/55 53/53
f 59/59 58/58 57/57
f 60/60 59/59 57/57
f 63/63 62/62 61/61
f 64/64 63/63 61/61
f 67/67 66/66 65/65
f 68/68 67/67 65/65
f 71/71 70/70 69/69
f 72/72 71/71 69/69
f 75/75 74/74 73/73
f 76/76 75/75 73/73
f 79/79 78/78 77/77
f 80/80 79/79 77/77
f 83/83 82/82 81/81
f 84/84 83/83 81/81
f 87/87 86/86 85/85
f 88/88 87/87 85/85
f 91/91 90/90 89/89
f 92/92 91/91 89/89
f 95/95 94/94 93/93
f 96/96 95/95 93/93
f 99/99 98/98 97/97
f 100/100 99/99 97/97
f 103/103 102/102 101/101
f 104/104 103/103 101/101
