v 0.0510422565 0.00741567647 0.0244340277
v 0.0688626131 0.0104555324 0.0217711437
v 0.0669243914 0.00752362397 0.0244721916
v 0.0492107871 0.0103717917 0.0222987393
v 0.0485740267 0.0166856697 0.021127185
v 0.0689055871 0.0184349776 0.0193619184
v 0.0509418821 0.0198252937 0.019865956
v 0.0460196704 0.0214668206 0.0202569441
v 0.0489487642 0.0233918355 0.018235523
v 0.0689324087 0.024153937 0.0162125376
v 0.0419601166 0.0242543327 0.020004969
v 0.050600348 0.0265634954 0.0152339722
v 0.068921023 0.0269485145 0.013865401
v 0.0431355211 0.027348361 0.0156969691
v 0.0378989531 0.0287284729 0.0149883694
v 0.0368785818 0.0255829658 0.0205540025
v 0.00415318966 0.0257189593 0.0296451064
v 0.0468477581 0.0293062662 0.0118612086
v 0.0689079726 0.0301558497 0.00992131754
v 0.0465064602 0.0313312292 0.00786360251
v 0.0688911619 0.0332726139 0.00214603242
v 0.0294305647 0.0320906544 0.00916518329
v 0.0451968285 0.0327654252 0.00384054365
v 0.0390960543 0.0338077463 -0.000342052158
v 0.04140019 0.0345130749 -0.00579747903
v 0.0689282343 0.0344920876 -0.00529357494
v 0.0689412903 0.0346749936 -0.0135326976
v 0.0052692864 0.0283936654 0.0248109543
v 0.00136184419 0.0310097677 0.0197181245
v -0.00115180256 0.0282129796 0.0256910949
v -0.0051621221 0.0257049188 0.0294597266
v 0.00370454475 0.0330181272 0.013053148
v -0.00230390134 0.0344490747 0.00572369099
v 0.0374666996 0.0347498692 -0.0103253486
v -0.0109278585 0.0283423889 0.0232429375
v -0.014156344 0.0257077323 0.0264440838
v -0.00314373062 0.0330466803 0.013167283
v -0.00715184486 0.0309910241 0.0184622011
v -0.0201038139 0.0282302365 0.0161430929
v -0.0222626339 0.0256989132 0.0199928239
v -0.0276060128 0.0257474259 0.0115481358
v -0.00991612903 0.0330363945 0.00915544297
v -0.0146082659 0.0310162681 0.0134219517
v -0.0251073269 0.0283323527 0.00550731856
v -0.0297510641 0.0257054172 0.00285037604
v -0.00489598799 0.0345646429 0.00104706351
v -0.0133755835 0.0330466474 0.00212877239
v -0.0196120161 0.0310606626 0.00306882321
v -0.0250890876 0.0282202825 -0.00603963963
v -0.029469729 0.0257049982 -0.00515216852
v -0.0264540337 0.0257078244 -0.014146381
v -0.00439310362 0.0344486176 -0.0041052881
v -0.0125593564 0.0330312632 -0.00482063297
v -0.0184720773 0.0309917798 -0.00714174021
v -0.0216633703 0.0282018077 -0.0139005715
v -0.0077167773 0.0329899973 -0.0115324365
v 0.0344025465 0.0345165493 -0.0150410022
v 0.0689304404 0.0339019231 -0.0199469083
v -0.0161530999 0.0282306588 -0.0200937968
v -0.0200028437 0.0256989978 -0.022252652
v -0.0120793004 0.0257234049 -0.0273658516
v -0.0151361249 0.0309787037 -0.0127113279
v 0.0308473682 0.0335907736 -0.0205953547
v 0.0464067416 0.0334487919 -0.0223381576
v 0.0689355686 0.0324266528 -0.025556187
v -0.00973499098 0.0309603368 -0.0173819659
v 0.0334045851 0.0319609215 -0.0273795071
v 0.0470606641 0.0316505682 -0.0287308882
v 0.0689474899 0.0288869838 -0.0324774475
v -0.008372607 0.0286430142 -0.0234855135
v 0.0350962832 0.0300225221 -0.032854898
v 0.0295565701 0.0277817828 -0.0359124155
v 0.0212413644 0.025705509 -0.0370621477
v 0.0331698633 0.0252825615 -0.0394988398
v 0.0372190441 0.0273853311 -0.037390698
v 0.0403140767 0.0239413805 -0.0405838655
v 0.0454663593 0.0295329762 -0.0339213555
v 0.0438047608 0.0269505408 -0.0378669269
v 0.0689198941 0.0235088637 -0.0381477905
v 0.0456173973 0.0209574686 -0.0414287293
v 0.0689470717 0.0181175785 -0.041169647
v 0.0487307277 0.0157338275 -0.0423289312
v 0.0688545106 0.0103574008 -0.0432089029
v 0.0493972263 0.00965723807 -0.0434846937
v 0.0669320806 0.00745239525 -0.0454050896
v 0.0511451327 0.00738198152 -0.0454112742
v 0.066931127 -0.00403420778 0.0244679453
v 0.0510978108 -0.00395645901 0.0244635536
v 0.0669243914 0.00752362397 0.0244721916
v 0.0510422565 0.00741567647 0.0244340277
v -0.0243145832 0.0227101795 -0.0172785789
v -0.0132936262 0.022711058 -0.0267538766
v -0.019860389 0.0227101814 -0.0222536473
v -0.0275501041 0.0227101792 -0.0114370858
v -0.0294046409 0.0227101791 -0.00502209296
v -0.0297851589 0.022710182 0.00164472767
v -0.0286725777 0.0227101821 0.00822907314
v -0.0261228697 0.0227101852 0.0144007819
v -0.0222637076 0.022710187 0.0198503767
v -0.0172886275 0.0227101874 0.0243045855
v -0.0114471337 0.0227101836 0.0275400584
v -0.00503206446 0.022710187 0.0293945661
v 0.00325190833 0.0227155065 0.0297322782
v 0.03528529 0.0226769031 0.0209027072
v 0.0224007943 0.0227449147 -0.0373152929
v 0.0395640712 0.0219485903 0.0199153728
v 0.0366394505 0.0218212913 -0.039315084
v 0.0399548978 0.0213705649 0.00579080806
v 0.0430608355 0.0198857271 0.0074500902
v 0.0399871449 0.0208809759 -0.0261714973
v 0.0444320421 0.0191628986 0.0193761021
v 0.045565066 0.0174137891 0.00971130721
v 0.0462502809 0.0164125432 0.019467769
v 0.0470884424 0.0135262596 0.0123180784
v 0.0470796792 0.013187053 0.0198369729
v 0.0471223578 0.00507012749 0.0148805004
v 0.0471189614 0.00499888168 0.0205330347
v 0.0437404478 0.0190915273 -0.0399333541
v 0.0429228513 0.0195269001 -0.0276440609
v 0.0453406551 0.0174123717 -0.0295334117
v 0.0463108402 0.0159418731 -0.0403464364
v 0.0468098488 0.0145669689 -0.0314753532
v 0.0471132389 0.0129134785 -0.0407784828
v 0.0471500146 0.0111475417 -0.0331620395
v 0.0471376168 0.00609768115 -0.0414422044
v 0.0471366623 0.00473347002 -0.0347536756
v 0.0471395851 -0.00307437137 -0.0411122106
v 0.0471366047 -0.00156237081 -0.0346769084
v 0.0471224166 -0.00133833971 0.0148748048
v 0.0471224778 -0.00333949999 0.02016613
v 0.0471208689 -0.00956602259 0.0184297765
v 0.0471228362 -0.00753481242 0.0132401095
v 0.0471206922 -0.0190852998 0.0127048232
v 0.0471348769 -0.01236618 -0.0382594415
v 0.0471361279 -0.00763935629 -0.0330295792
v 0.0471351738 -0.0131120311 -0.0299161766
v 0.0471328492 -0.0228221371 -0.029618878
v 0.047123672 -0.0131121155 0.0100838253
v 0.0471230765 -0.0268358521 0.00194848326
v 0.0471287985 -0.028568083 -0.0176709422
v 0.0471286792 -0.029080293 -0.00714218913
v -0.029469729 0.0257049982 -0.00515216852
v -0.0297510641 0.0257054172 0.00285037604
v -0.0297851589 0.022710182 0.00164472767
v -0.0294046409 0.0227101791 -0.00502209296
v -0.0264540337 0.0257078244 -0.014146381
v -0.0275501041 0.0227101792 -0.0114370858
v -0.0243145832 0.0227101795 -0.0172785789
v -0.0200028437 0.0256989978 -0.022252652
v -0.019860389 0.0227101814 -0.0222536473
v -0.0132936262 0.022711058 -0.0267538766
v -0.0120793004 0.0257234049 -0.0273658516
v 0.0224007943 0.0227449147 -0.0373152929
v 0.0212413644 0.025705509 -0.0370621477
v 0.0331698633 0.0252825615 -0.0394988398
v 0.0366394505 0.0218212913 -0.039315084
v 0.0403140767 0.0239413805 -0.0405838655
v 0.0437404478 0.0190915273 -0.0399333541
v 0.0456173973 0.0209574686 -0.0414287293
v 0.0463108402 0.0159418731 -0.0403464364
v 0.0487307277 0.0157338275 -0.0423289312
v 0.0471132389 0.0129134785 -0.0407784828
v 0.0493972263 0.00965723807 -0.0434846937
v 0.0471376168 0.00609768115 -0.0414422044
v 0.0511451327 0.00738198152 -0.0454112742
v 0.0510961985 -0.00398451183 -0.0453530665
v 0.0471395851 -0.00307437137 -0.0411122106
v 0.0494181533 -0.00584580271 -0.0429857871
v 0.0471348769 -0.01236618 -0.0382594415
v 0.0491384252 -0.0108416855 -0.0409507542
v 0.0491374711 -0.017045677 -0.0375771546
v 0.0471328492 -0.0228221371 -0.029618878
v 0.0491361037 -0.0223891708 -0.0329600269
v 0.0491344917 -0.0266271397 -0.0273111102
v 0.0471287985 -0.028568083 -0.0176709422
v 0.0491326468 -0.0295652558 -0.0208894067
v 0.0491306795 -0.0310687916 -0.0139894008
v 0.0471286792 -0.029080293 -0.00714218913
v 0.0491286539 -0.0310688091 -0.00692747635
v -0.0297851589 0.022710182 0.00164472767
v -0.0297510641 0.0257054172 0.00285037604
v -0.0286725777 0.0227101821 0.00822907314
v -0.0276060128 0.0257474259 0.0115481358
v -0.0261228697 0.0227101852 0.0144007819
v -0.0222626339 0.0256989132 0.0199928239
v -0.0222637076 0.022710187 0.0198503767
v -0.0172886275 0.0227101874 0.0243045855
v -0.014156344 0.0257077323 0.0264440838
v -0.0114471337 0.0227101836 0.0275400584
v -0.00503206446 0.022710187 0.0293945661
v -0.0051621221 0.0257049188 0.0294597266
v 0.00325190833 0.0227155065 0.0297322782
v 0.00415318966 0.0257189593 0.0296451064
v 0.03528529 0.0226769031 0.0209027072
v 0.0368785818 0.0255829658 0.0205540025
v 0.0395640712 0.0219485903 0.0199153728
v 0.0419601166 0.0242543327 0.020004969
v 0.0444320421 0.0191628986 0.0193761021
v 0.0460196704 0.0214668206 0.0202569441
v 0.0485740267 0.0166856697 0.021127185
v 0.0462502809 0.0164125432 0.019467769
v 0.0470796792 0.013187053 0.0198369729
v 0.0492107871 0.0103717917 0.0222987393
v 0.0471189614 0.00499888168 0.0205330347
v 0.0510422565 0.00741567647 0.0244340277
v 0.0510978108 -0.00395645901 0.0244635536
v 0.0471224778 -0.00333949999 0.02016613
v 0.0497048493 -0.00538006027 0.0225596828
v 0.0490529529 -0.00899072919 0.0207067627
v 0.0471208689 -0.00956602259 0.0184297765
v 0.0491217958 -0.0170457905 0.016660332
v 0.0471206922 -0.0190852998 0.0127048232
v 0.0491231699 -0.0223892625 0.0120431883
v 0.0491247769 -0.0266272124 0.0063942447
v 0.0471230765 -0.0268358521 0.00194848326
v 0.0491266281 -0.0295652965 -2.74675699e-05
v 0.0491286539 -0.0310688091 -0.00692747635
v 0.0471286792 -0.029080293 -0.00714218913
v 0.0669320806 0.00745239525 -0.0454050896
v 0.0511451327 0.00738198152 -0.0454112742
v 0.0669712437 -0.00407586591 -0.0453421118
v 0.0510961985 -0.00398451183 -0.0453530665
v 0.0669712437 -0.00407586591 -0.0453421118
v 0.0510961985 -0.00398451183 -0.0453530665
v 0.0494181533 -0.00584580271 -0.0429857871
v 0.0687273108 -0.00634761217 -0.0427543506
v 0.0491384252 -0.0108416855 -0.0409507542
v 0.0689437975 -0.0143915864 -0.0393087859
v 0.0491374711 -0.017045677 -0.0375771546
v 0.0689343801 -0.0221011692 -0.0334257376
v 0.0491361037 -0.0223891708 -0.0329600269
v 0.0689008821 -0.0272431991 -0.0263909111
v 0.0491344917 -0.0266271397 -0.0273111102
v 0.0491326468 -0.0295652558 -0.0208894067
v 0.0689422506 -0.0305458436 -0.0178971983
v 0.0491306795 -0.0310687916 -0.0139894008
v 0.0689334904 -0.0312672751 -0.00867134513
v 0.0491286539 -0.0310688091 -0.00692747635
v 0.0689205565 -0.029539503 0.000448880519
v 0.0491266281 -0.0295652965 -2.74675699e-05
v 0.0491247769 -0.0266272124 0.0063942447
v 0.0689016561 -0.0254252487 0.00838451233
v 0.0491231699 -0.0223892625 0.0120431883
v 0.0689400436 -0.0206343842 0.0138524352
v 0.0491217958 -0.0170457905 0.016660332
v 0.0689494029 -0.0144836986 0.0183456068
v 0.0490529529 -0.00899072919 0.0207067627
v 0.0687435275 -0.0062914185 0.0218276487
v 0.0497048493 -0.00538006027 0.0225596828
v 0.0510978108 -0.00395645901 0.0244635536
v 0.066931127 -0.00403420778 0.0244679453
v 0.047123672 -0.0131121155 0.0100838253
v 0.0399899477 -0.013112119 0.0100838202
v 0.0399900083 -0.00753481232 0.013240111
v 0.0471228362 -0.00753481242 0.0132401095
v 0.0399900078 -0.0013383437 0.0148748048
v 0.0471224166 -0.00133833971 0.0148748048
v 0.0399900072 0.00507012396 0.0148804975
v 0.0471223578 0.00507012749 0.0148805004
v 0.0399899455 0.0112694934 0.0132568181
v 0.0470884424 0.0135262596 0.0123180784
v 0.045565066 0.0174137891 0.00971130721
v 0.0399899451 0.0168523975 0.0101104495
v 0.0430608355 0.0198857271 0.0074500902
v 0.0399548978 0.0213705649 0.00579080806
v 0.0471361279 -0.00763935629 -0.0330295792
v 0.0399899477 -0.0131120317 -0.0299161766
v 0.0471351738 -0.0131120311 -0.0299161766
v 0.0399900083 -0.00763936055 -0.0330295821
v 0.0471366047 -0.00156237081 -0.0346769084
v 0.0399899467 -0.00156237125 -0.0346769084
v 0.0471366623 0.00473347002 -0.0347536756
v 0.0399899461 0.00473346612 -0.0347536727
v 0.0471500146 0.0111475417 -0.0331620395
v 0.0399900067 0.0108488135 -0.0332550029
v 0.0468098488 0.0145669689 -0.0314753532
v 0.0399900062 0.0163957657 -0.0302759669
v 0.0453406551 0.0174123717 -0.0295334117
v 0.0429228513 0.0195269001 -0.0276440609
v 0.0399871449 0.0208809759 -0.0261714973
v 0.0399900072 0.00507012396 0.0148804975
v 0.0399900078 -0.0013383437 0.0148748048
v 0.0399900083 -0.00753481232 0.013240111
v 0.0399899455 0.0112694934 0.0132568181
v 0.0399899451 0.0168523975 0.0101104495
v 0.0399899477 -0.013112119 0.0100838202
v 0.0399548978 0.0213705649 0.00579080806
v 0.0399871449 0.0208809759 -0.0261714973
v 0.0399899477 -0.0131120317 -0.0299161766
v 0.0399900083 -0.00763936055 -0.0330295821
v 0.0399899467 -0.00156237125 -0.0346769084
v 0.0399899461 0.00473346612 -0.0347536727
v 0.0399900067 0.0108488135 -0.0332550029
v 0.0399900062 0.0163957657 -0.0302759669
v 0.0399899477 -0.0131120317 -0.0299161766
v 0.0399899477 -0.013112119 0.0100838202
v 0.0471351738 -0.0131120311 -0.0299161766
v 0.047123672 -0.0131121155 0.0100838253
v 0.0709204667 -0.0268360218 -0.00440937074
v 0.0979090366 -0.0274008957 -0.00943087143
v 0.0709224924 -0.0273316309 -0.0111826979
v 0.0979360915 -0.0264513861 -0.00249957175
v 0.0709186213 -0.0247917338 0.00206708628
v 0.0979376978 -0.0239554911 0.0038711918
v 0.0709169505 -0.0213089744 0.00789752376
v 0.097909036 -0.0202359895 0.00928402224
v 0.0709155181 -0.0165755027 0.0127676205
v 0.0979360323 -0.015053258 0.0139833792
v 0.070914563 -0.010846501 0.0164148296
v 0.097909035 -0.00926539887 0.0171722902
v 0.0709139106 -0.00443082316 0.0186425314
v 0.0979232721 -0.00266439855 0.0190258797
v 0.0709136713 0.00232566437 0.0193306274
v 0.0979194063 0.00579200588 0.019184484
v 0.0709139676 0.00905871313 0.0184420176
v 0.0978491838 0.0154580177 0.0161662087
v 0.0709146248 0.0154053505 0.0160246156
v 0.0709158175 0.0210234172 0.0122087396
v 0.0979072395 0.0223121444 0.0110937413
v 0.070917185 0.0256100499 0.00720010648
v 0.0979433045 0.0275334225 0.00438466523
v 0.0709189135 0.0289179767 0.00126873374
v 0.0979072388 0.0304975021 -0.00358327306
v 0.0709207585 0.0307688668 -0.00526561962
v 0.0979072387 0.0311868729 -0.0103511098
v 0.0709227259 0.0310629465 -0.0120506869
v 0.0978492407 0.0299329344 -0.0187479833
v 0.0709246934 0.0297843482 -0.0187206766
v 0.0709264807 0.0270020133 -0.0249160221
v 0.0979360287 0.0259874474 -0.0265790179
v 0.0709279711 0.0228659312 -0.0303027104
v 0.0979366229 0.020351626 -0.0327415648
v 0.0709292289 0.0175990794 -0.0345903507
v 0.0979243535 0.0112774038 -0.0377747812
v 0.0709300618 0.0114854058 -0.0375478063
v 0.0709303593 0.00359274165 -0.0391851238
v 0.0979518866 0.00136311575 -0.0392510206
v 0.0709305406 -0.00610743553 -0.0381853897
v 0.097907242 -0.00692783523 -0.0378566125
v 0.0979071844 -0.0131335955 -0.035069749
v 0.0709290513 -0.0145436421 -0.0341125706
v 0.0979071848 -0.0185293948 -0.030926874
v 0.0709278002 -0.0196807257 -0.029670287
v 0.0978492454 -0.0237766786 -0.0242524009
v 0.0709262523 -0.0236548785 -0.024163042
v 0.0709244015 -0.0262518468 -0.0178877424
v 0.0979360915 -0.0267652447 -0.0160084426
v 0.0709224924 -0.0273316309 -0.0111826979
v 0.0979090366 -0.0274008957 -0.00943087143
v 0.0989068764 0.00147107267 -0.0381630176
v 0.0989068166 0.019726048 -0.0318243954
v 0.0989011479 0.0113617432 -0.0367147179
v 0.0989065715 0.0266831979 -0.0238864261
v 0.0989025781 0.0302474974 -0.0118344411
v 0.0989097961 0.0281657324 0.00095744972
v 0.0989156292 0.0201020112 0.0119744283
v 0.0988950712 0.00899841607 0.0175981506
v 0.0989090768 0.00013120926 0.0183266515
v 0.0989067491 -0.00737551535 0.0167708436
v 0.0989065753 -0.0166280865 0.0116910342
v 0.0989068203 -0.0223616386 0.00457091664
v 0.0989065761 -0.0261842652 -0.00526779259
v 0.098906576 -0.025284107 -0.0183624943
v 0.0989025825 -0.0189637024 -0.0292256853
v 0.0989108703 -0.00823036834 -0.0364886218
v 0.0979072388 0.0304975021 -0.00358327306
v 0.0979072387 0.0311868729 -0.0103511098
v 0.0989025781 0.0302474974 -0.0118344411
v 0.0978492407 0.0299329344 -0.0187479833
v 0.0989097961 0.0281657324 0.00095744972
v 0.0989065715 0.0266831979 -0.0238864261
v 0.0979433045 0.0275334225 0.00438466523
v 0.0979360287 0.0259874474 -0.0265790179
v 0.0989068166 0.019726048 -0.0318243954
v 0.0979366229 0.020351626 -0.0327415648
v 0.0989011479 0.0113617432 -0.0367147179
v 0.0979243535 0.0112774038 -0.0377747812
v 0.0989068764 0.00147107267 -0.0381630176
v 0.0979518866 0.00136311575 -0.0392510206
v 0.0989156292 0.0201020112 0.0119744283
v 0.0979072395 0.0223121444 0.0110937413
v 0.0978491838 0.0154580177 0.0161662087
v 0.0988950712 0.00899841607 0.0175981506
v 0.0979194063 0.00579200588 0.019184484
v 0.0989090768 0.00013120926 0.0183266515
v 0.0979232721 -0.00266439855 0.0190258797
v 0.0989108703 -0.00823036834 -0.0364886218
v 0.097907242 -0.00692783523 -0.0378566125
v 0.0979071844 -0.0131335955 -0.035069749
v 0.0989067491 -0.00737551535 0.0167708436
v 0.097909035 -0.00926539887 0.0171722902
v 0.0979360323 -0.015053258 0.0139833792
v 0.0989025825 -0.0189637024 -0.0292256853
v 0.0979071848 -0.0185293948 -0.030926874
v 0.0978492454 -0.0237766786 -0.0242524009
v 0.098906576 -0.025284107 -0.0183624943
v 0.0979360915 -0.0267652447 -0.0160084426
v 0.0989065753 -0.0166280865 0.0116910342
v 0.097909036 -0.0202359895 0.00928402224
v 0.0979376978 -0.0239554911 0.0038711918
v 0.0989068203 -0.0223616386 0.00457091664
v 0.0979360915 -0.0264513861 -0.00249957175
v 0.0989065761 -0.0261842652 -0.00526779259
v 0.0979090366 -0.0274008957 -0.00943087143
v 0.0709297662 -0.00335588082 -0.0410900742
v 0.0669712437 -0.00407586591 -0.0453421118
v 0.0687273108 -0.00634761217 -0.0427543506
v 0.0669320806 0.00745239525 -0.0454050896
v 0.0709307797 -0.011027377 -0.038810246
v 0.0709310752 0.00494513117 -0.0412915862
v 0.0689437975 -0.0143915864 -0.0393087859
v 0.0688545106 0.0103574008 -0.0432089029
v 0.0709301809 -0.0194126285 -0.0332798139
v 0.0689343801 -0.0221011692 -0.0334257376
v 0.070937751 0.0119725981 -0.0398557982
v 0.0689470717 0.0181175785 -0.041169647
v 0.0689198941 0.0235088637 -0.0381477905
v 0.0709277964 0.0238335084 -0.0324789056
v 0.0689474899 0.0288869838 -0.0324774475
v 0.0709263058 0.0294317262 -0.0243815724
v 0.0689355686 0.0324266528 -0.025556187
v 0.070927143 -0.0256220486 -0.0251918304
v 0.0689008821 -0.0272431991 -0.0263909111
v 0.0709221321 0.0318619863 -0.0177294161
v 0.0689304404 0.0339019231 -0.0199469083
v 0.0689412903 0.0346749936 -0.0135326976
v 0.0709232031 0.0326892278 -0.00830961362
v 0.0689282343 0.0344920876 -0.00529357494
v 0.0689422506 -0.0305458436 -0.0178971983
v 0.0709244599 -0.0283040859 -0.0180814721
v 0.0709220152 -0.0293378744 -0.010629381
v 0.0689334904 -0.0312672751 -0.00867134513
v 0.0709201118 -0.028362768 -0.00305792455
v 0.0689205565 -0.029539503 0.000448880519
v 0.0709175446 -0.0259264252 0.0037253405
v 0.0689016561 -0.0254252487 0.00838451233
v 0.0709169504 -0.0202746243 0.0114971255
v 0.0689400436 -0.0206343842 0.0138524352
v 0.070920223 0.0305844446 0.0012603944
v 0.0688911619 0.0332726139 0.00214603242
v 0.0689079726 0.0301558497 0.00992131754
v 0.0709155177 -0.0118030355 0.0176141868
v 0.0689494029 -0.0144836986 0.0183456068
v 0.0687435275 -0.0062914185 0.0218276487
v 0.0709118847 -0.00235365968 0.020282359
v 0.066931127 -0.00403420778 0.0244679453
v 0.0709161141 0.0249216017 0.0102005681
v 0.068921023 0.0269485145 0.013865401
v 0.0689324087 0.024153937 0.0162125376
v 0.0709148004 0.0041086889 0.0204761745
v 0.0669243914 0.00752362397 0.0244721916
v 0.0688626131 0.0104555324 0.0217711437
v 0.0709190311 0.0153283374 0.0175950117
v 0.0689055871 0.0184349776 0.0193619184
v 0.070920223 0.0305844446 0.0012603944
v 0.0709189135 0.0289179767 0.00126873374
v 0.070917185 0.0256100499 0.00720010648
v 0.0709207585 0.0307688668 -0.00526561962
v 0.0709161141 0.0249216017 0.0102005681
v 0.0709232031 0.0326892278 -0.00830961362
v 0.0709158175 0.0210234172 0.0122087396
v 0.0709227259 0.0310629465 -0.0120506869
v 0.0709190311 0.0153283374 0.0175950117
v 0.0709146248 0.0154053505 0.0160246156
v 0.0709139676 0.00905871313 0.0184420176
v 0.0709148004 0.0041086889 0.0204761745
v 0.0709136713 0.00232566437 0.0193306274
v 0.0709118847 -0.00235365968 0.020282359
v 0.0709139106 -0.00443082316 0.0186425314
v 0.0709155177 -0.0118030355 0.0176141868
v 0.070914563 -0.010846501 0.0164148296
v 0.0709221321 0.0318619863 -0.0177294161
v 0.0709246934 0.0297843482 -0.0187206766
v 0.0709264807 0.0270020133 -0.0249160221
v 0.0709263058 0.0294317262 -0.0243815724
v 0.0709279711 0.0228659312 -0.0303027104
v 0.0709277964 0.0238335084 -0.0324789056
v 0.0709292289 0.0175990794 -0.0345903507
v 0.0709169504 -0.0202746243 0.0114971255
v 0.0709155181 -0.0165755027 0.0127676205
v 0.0709169505 -0.0213089744 0.00789752376
v 0.0709175446 -0.0259264252 0.0037253405
v 0.0709186213 -0.0247917338 0.00206708628
v 0.0709201118 -0.028362768 -0.00305792455
v 0.0709204667 -0.0268360218 -0.00440937074
v 0.0709220152 -0.0293378744 -0.010629381
v 0.0709224924 -0.0273316309 -0.0111826979
v 0.0709244599 -0.0283040859 -0.0180814721
v 0.0709244015 -0.0262518468 -0.0178877424
v 0.070927143 -0.0256220486 -0.0251918304
v 0.0709262523 -0.0236548785 -0.024163042
v 0.0709301809 -0.0194126285 -0.0332798139
v 0.0709278002 -0.0196807257 -0.029670287
v 0.0709290513 -0.0145436421 -0.0341125706
v 0.0709307797 -0.011027377 -0.038810246
v 0.0709305406 -0.00610743553 -0.0381853897
v 0.0709297662 -0.00335588082 -0.0410900742
v 0.0709303593 0.00359274165 -0.0391851238
v 0.0709310752 0.00494513117 -0.0412915862
v 0.070937751 0.0119725981 -0.0398557982
v 0.0709300618 0.0114854058 -0.0375478063
vt 0.126342773 0.791503906
vt 0.113037109 0.787597656
vt 0.114318848 0.791015625
vt 0.127807617 0.788574219
vt 0.128540039 0.783203125
vt 0.113342285 0.780761719
vt 0.126953125 0.780761719
vt 0.130859375 0.779785156
vt 0.128662109 0.77734375
vt 0.113464355 0.775390625
vt 0.134033203 0.777832031
vt 0.127441406 0.7734375
vt 0.113525391 0.772460938
vt 0.133178711 0.7734375
vt 0.137207031 0.772460938
vt 0.137939453 0.777832031
vt 0.162841797 0.784179688
vt 0.130371094 0.770019531
vt 0.113586426 0.768066406
vt 0.130615234 0.766113281
vt 0.113586426 0.761230469
vt 0.143554688 0.767089844
vt 0.131469727 0.762695312
vt 0.136108398 0.759277344
vt 0.134277344 0.754882812
vt 0.113525391 0.755371094
vt 0.113525391 0.748535156
vt 0.161865234 0.779296875
vt 0.164672852 0.774902344
vt 0.166748047 0.779785156
vt 0.169921875 0.783691406
vt 0.162719727 0.769042969
vt 0.166870117 0.763183594
vt 0.137207031 0.750976562
vt 0.173950195 0.777832031
vt 0.176879883 0.780761719
vt 0.167724609 0.769042969
vt 0.170898438 0.7734375
vt 0.180786133 0.771484375
vt 0.182983398 0.774902344
vt 0.186889648 0.768066406
vt 0.172485352 0.765625
vt 0.176269531 0.769042969
vt 0.184326172 0.762695312
vt 0.188354492 0.760742188
vt 0.168701172 0.759277344
vt 0.174926758 0.760253906
vt 0.1796875 0.760742188
vt 0.184204102 0.753417969
vt 0.188110352 0.75390625
vt 0.185546875 0.74609375
vt 0.168212891 0.755371094
vt 0.174194336 0.754394531
vt 0.178710938 0.752441406
vt 0.181518555 0.747070312
vt 0.170654297 0.749511719
vt 0.139404297 0.747070312
vt 0.113525391 0.743164062
vt 0.177246094 0.741699219
vt 0.180541992 0.739746094
vt 0.174438477 0.735351562
vt 0.176269531 0.748046875
vt 0.142089844 0.742675781
vt 0.130493164 0.741210938
vt 0.113525391 0.73828125
vt 0.172241211 0.744628906
vt 0.140136719 0.736816406
vt 0.130004883 0.735839844
vt 0.113525391 0.731933594
vt 0.171386719 0.739257812
vt 0.138916016 0.731933594
vt 0.143066406 0.729003906
vt 0.149414062 0.727539062
vt 0.14050293 0.725585938
vt 0.137329102 0.728027344
vt 0.135009766 0.724121094
vt 0.131225586 0.730957031
vt 0.132446289 0.727050781
vt 0.113464355 0.725585938
vt 0.130981445 0.721679688
vt 0.11328125 0.720214844
vt 0.128417969 0.717285156
vt 0.113037109 0.713867188
vt 0.127685547 0.712402344
vt 0.114318848 0.710449219
vt 0.126220703 0.709960938
vt 0.112915039 0.337890625
vt 0.113037109 0.349853516
vt 0.122375488 0.337890625
vt 0.122253418 0.349853516
vt 0.693359375 0.393066406
vt 0.687011719 0.384033203
vt 0.689941406 0.389404297
vt 0.697265625 0.395996094
vt 0.702148438 0.397705078
vt 0.70703125 0.398193359
vt 0.712402344 0.397705078
vt 0.717773438 0.395996094
vt 0.722167969 0.393310547
vt 0.726074219 0.389648438
vt 0.729492188 0.385253906
vt 0.731445312 0.380371094
vt 0.732910156 0.373779297
vt 0.729980469 0.348388672
vt 0.683105469 0.35546875
vt 0.729492188 0.344970703
vt 0.68359375 0.344238281
vt 0.71875 0.34375
vt 0.720214844 0.341308594
vt 0.693847656 0.342285156
vt 0.729980469 0.340576172
vt 0.72265625 0.338623047
vt 0.729980469 0.337890625
vt 0.725097656 0.335449219
vt 0.730957031 0.335449219
vt 0.728027344 0.328857422
vt 0.732421875 0.329101562
vt 0.68359375 0.338378906
vt 0.693359375 0.339599609
vt 0.691894531 0.336914062
vt 0.684082031 0.335205078
vt 0.690917969 0.334472656
vt 0.684082031 0.332763672
vt 0.689941406 0.331542969
vt 0.684082031 0.327392578
vt 0.689453125 0.326660156
vt 0.685546875 0.320068359
vt 0.690429688 0.321533203
vt 0.728515625 0.323974609
vt 0.732910156 0.322509766
vt 0.732421875 0.317626953
vt 0.728027344 0.319091797
vt 0.729003906 0.310058594
vt 0.688476562 0.312988281
vt 0.692382812 0.316894531
vt 0.6953125 0.312744141
vt 0.696289062 0.305175781
vt 0.726074219 0.314453125
vt 0.721191406 0.303466797
vt 0.706542969 0.301269531
vt 0.714355469 0.301269531
vt 0.557128906 0.760742188
vt 0.561523438 0.765136719
vt 0.5625 0.762695312
vt 0.559082031 0.759277344
vt 0.552246094 0.755859375
vt 0.555664062 0.755859375
vt 0.552246094 0.751953125
vt 0.547363281 0.75
vt 0.548828125 0.748535156
vt 0.544921875 0.744140625
vt 0.542480469 0.745117188
vt 0.525878906 0.723632812
vt 0.524902344 0.725585938
vt 0.519042969 0.71875
vt 0.51953125 0.71484375
vt 0.516113281 0.713867188
vt 0.517578125 0.709472656
vt 0.515136719 0.709472656
vt 0.518066406 0.706542969
vt 0.516113281 0.704589844
vt 0.519042969 0.704101562
vt 0.518554688 0.700195312
vt 0.522460938 0.699707031
vt 0.518066406 0.697753906
vt 0.524414062 0.690429688
vt 0.52734375 0.693847656
vt 0.526855469 0.690917969
vt 0.533203125 0.688964844
vt 0.530761719 0.688476562
vt 0.535644531 0.685546875
vt 0.543457031 0.684570312
vt 0.541015625 0.683105469
vt 0.546386719 0.681640625
vt 0.553710938 0.683105469
vt 0.551757812 0.681152344
vt 0.557128906 0.681152344
vt 0.562011719 0.684570312
vt 0.5625 0.682128906
vt 0.161865234 0.803710938
vt 0.164306641 0.8046875
vt 0.165161133 0.800292969
vt 0.168701172 0.799804688
vt 0.168457031 0.796386719
vt 0.173583984 0.793945312
vt 0.17175293 0.792480469
vt 0.174926758 0.7890625
vt 0.178710938 0.788085938
vt 0.178222656 0.78515625
vt 0.181518555 0.78125
vt 0.183349609 0.782714844
vt 0.185424805 0.776367188
vt 0.187744141 0.77734375
vt 0.201416016 0.757324219
vt 0.203979492 0.7578125
vt 0.20300293 0.754394531
vt 0.205688477 0.754394531
vt 0.203735352 0.750488281
vt 0.206054688 0.750488281
vt 0.204711914 0.746582031
vt 0.202880859 0.747558594
vt 0.201660156 0.745605469
vt 0.201782227 0.7421875
vt 0.197265625 0.740234375
vt 0.201660156 0.738769531
vt 0.1953125 0.732421875
vt 0.192504883 0.735351562
vt 0.193237305 0.732421875
vt 0.190185547 0.731445312
vt 0.188232422 0.732421875
vt 0.18371582 0.727539062
vt 0.180053711 0.728515625
vt 0.178344727 0.725585938
vt 0.172851562 0.724609375
vt 0.169677734 0.7265625
vt 0.167358398 0.724609375
vt 0.161865234 0.725097656
vt 0.162353516 0.727050781
vt 0.243530273 0.373291016
vt 0.243652344 0.385009766
vt 0.252929688 0.373291016
vt 0.252929688 0.385009766
vt 0.820800781 0.0766601562
vt 0.807617188 0.0766601562
vt 0.806152344 0.078918457
vt 0.822265625 0.0792236328
vt 0.806152344 0.0829467773
vt 0.822265625 0.0858154297
vt 0.806152344 0.0881958008
vt 0.822265625 0.0930175781
vt 0.806152344 0.0935058594
vt 0.822265625 0.0995483398
vt 0.806152344 0.0987548828
vt 0.806152344 0.104064941
vt 0.822265625 0.106384277
vt 0.806152344 0.109375
vt 0.822265625 0.11328125
vt 0.806152344 0.114624023
vt 0.822265625 0.120239258
vt 0.806152344 0.119934082
vt 0.806152344 0.125244141
vt 0.822265625 0.126953125
vt 0.806152344 0.130493164
vt 0.822265625 0.132324219
vt 0.806152344 0.135742188
vt 0.822265625 0.138061523
vt 0.806152344 0.142456055
vt 0.822265625 0.144775391
vt 0.806640625 0.145507812
vt 0.807617188 0.147338867
vt 0.820800781 0.147338867
vt 0.543457031 0.494384766
vt 0.537597656 0.494384766
vt 0.537597656 0.499267578
vt 0.543457031 0.499267578
vt 0.537597656 0.50390625
vt 0.543457031 0.50390625
vt 0.537597656 0.508789062
vt 0.543457031 0.508789062
vt 0.537597656 0.513671875
vt 0.543457031 0.515136719
vt 0.542480469 0.519042969
vt 0.537597656 0.518554688
vt 0.540039062 0.521484375
vt 0.537597656 0.522949219
vt 0.263183594 0.604980469
vt 0.257324219 0.609863281
vt 0.263183594 0.609863281
vt 0.257324219 0.604980469
vt 0.263183594 0.600097656
vt 0.257324219 0.600097656
vt 0.263183594 0.595703125
vt 0.257324219 0.595703125
vt 0.263183594 0.590332031
vt 0.257324219 0.590820312
vt 0.262939453 0.587890625
vt 0.257324219 0.5859375
vt 0.26171875 0.584960938
vt 0.259765625 0.583007812
vt 0.257324219 0.581542969
vt 0.242553711 0.935546875
vt 0.247802734 0.935546875
vt 0.252929688 0.934082031
vt 0.237548828 0.934082031
vt 0.232910156 0.931640625
vt 0.257324219 0.931640625
vt 0.229248047 0.928710938
vt 0.229614258 0.904785156
vt 0.257324219 0.901855469
vt 0.252929688 0.899414062
vt 0.247924805 0.8984375
vt 0.242797852 0.8984375
vt 0.237792969 0.899414062
vt 0.233276367 0.901855469
vt 0.267578125 0.432861328
vt 0.267578125 0.462890625
vt 0.2734375 0.432861328
vt 0.2734375 0.462890625
vt 0.547851562 0.350585938
vt 0.525878906 0.354492188
vt 0.547851562 0.355712891
vt 0.525878906 0.349365234
vt 0.547851562 0.345458984
vt 0.525878906 0.344238281
vt 0.547851562 0.340576172
vt 0.525878906 0.339355469
vt 0.547851562 0.335449219
vt 0.525878906 0.333984375
vt 0.547851562 0.330322266
vt 0.525878906 0.329101562
vt 0.547851562 0.325195312
vt 0.525878906 0.323974609
vt 0.547851562 0.320068359
vt 0.525878906 0.317626953
vt 0.547851562 0.315185547
vt 0.525878906 0.310058594
vt 0.547851562 0.310058594
vt 0.547851562 0.304931641
vt 0.525878906 0.303710938
vt 0.547851562 0.299804688
vt 0.525878906 0.297363281
vt 0.547851562 0.294677734
vt 0.525878906 0.291015625
vt 0.547851562 0.289794922
vt 0.525878906 0.285888672
vt 0.547851562 0.284667969
vt 0.525878906 0.279541016
vt 0.547851562 0.279541016
vt 0.547851562 0.274414062
vt 0.525878906 0.272949219
vt 0.547851562 0.269287109
vt 0.525878906 0.266601562
vt 0.547851562 0.264160156
vt 0.525878906 0.259033203
vt 0.547851562 0.259277344
vt 0.547851562 0.253173828
vt 0.525878906 0.251464844
vt 0.547851562 0.245849609
vt 0.525878906 0.245117188
vt 0.525878906 0.240112305
vt 0.547851562 0.238891602
vt 0.525878906 0.234985352
vt 0.547851562 0.233764648
vt 0.525878906 0.228637695
vt 0.547851562 0.228637695
vt 0.547851562 0.223632812
vt 0.525878906 0.222045898
vt 0.547851562 0.218505859
vt 0.525878906 0.217163086
vt 0.21105957 0.98046875
vt 0.208251953 0.96484375
vt 0.208251953 0.97265625
vt 0.210693359 0.95703125
vt 0.217163086 0.94921875
vt 0.226196289 0.945800781
vt 0.236450195 0.946777344
vt 0.244262695 0.952148438
vt 0.248046875 0.958007812
vt 0.24987793 0.964355469
vt 0.25 0.97265625
vt 0.247558594 0.979980469
vt 0.242675781 0.986328125
vt 0.233886719 0.991210938
vt 0.224487305 0.991210938
vt 0.215698242 0.986816406
vt 0.935058594 0.646972656
vt 0.931152344 0.651367188
vt 0.931152344 0.652832031
vt 0.927734375 0.657226562
vt 0.938476562 0.645996094
vt 0.927734375 0.662109375
vt 0.940429688 0.644042969
vt 0.926269531 0.6640625
vt 0.927246094 0.670898438
vt 0.926269531 0.671386719
vt 0.930175781 0.678710938
vt 0.929199219 0.6796875
vt 0.935058594 0.685058594
vt 0.934570312 0.686035156
vt 0.948730469 0.643554688
vt 0.946777344 0.642578125
vt 0.953125 0.643066406
vt 0.95703125 0.645507812
vt 0.959960938 0.645996094
vt 0.962890625 0.649414062
vt 0.96484375 0.650390625
vt 0.941894531 0.688476562
vt 0.940429688 0.688964844
vt 0.945800781 0.690429688
vt 0.966308594 0.654296875
vt 0.967773438 0.654785156
vt 0.969726562 0.659667969
vt 0.952148438 0.688964844
vt 0.951171875 0.690429688
vt 0.95703125 0.688476562
vt 0.960449219 0.685058594
vt 0.962402344 0.685058594
vt 0.969238281 0.662109375
vt 0.970703125 0.665039062
vt 0.970214844 0.670410156
vt 0.969238281 0.669433594
vt 0.96875 0.676269531
vt 0.967285156 0.677734375
vt 0.966308594 0.680664062
vt 0.50390625 0.908691406
vt 0.502441406 0.913574219
vt 0.504882812 0.912109375
vt 0.494384766 0.909179688
vt 0.509765625 0.91015625
vt 0.498046875 0.905761719
vt 0.51171875 0.912597656
vt 0.493408203 0.905761719
vt 0.517089844 0.909667969
vt 0.519042969 0.911621094
vt 0.493896484 0.901855469
vt 0.489013672 0.900878906
vt 0.486572266 0.896484375
vt 0.488525391 0.892089844
vt 0.484863281 0.890136719
vt 0.487792969 0.884277344
vt 0.484863281 0.883789062
vt 0.523925781 0.90625
vt 0.524902344 0.908203125
vt 0.488525391 0.878417969
vt 0.485839844 0.879394531
vt 0.487548828 0.874023438
vt 0.491210938 0.871582031
vt 0.490478516 0.868164062
vt 0.530273438 0.903320312
vt 0.528320312 0.90234375
vt 0.531738281 0.897460938
vt 0.534179688 0.896972656
vt 0.533691406 0.891601562
vt 0.536132812 0.889648438
vt 0.534179688 0.885742188
vt 0.536132812 0.882324219
vt 0.533203125 0.877929688
vt 0.53515625 0.876464844
vt 0.495849609 0.865722656
vt 0.494140625 0.86328125
vt 0.499023438 0.858886719
vt 0.529785156 0.870605469
vt 0.532226562 0.870605469
vt 0.527832031 0.864746094
vt 0.524414062 0.865234375
vt 0.527832031 0.861328125
vt 0.502929688 0.861328125
vt 0.502929688 0.857421875
vt 0.505371094 0.856933594
vt 0.520507812 0.862304688
vt 0.520019531 0.856933594
vt 0.516601562 0.858398438
vt 0.51171875 0.859863281
vt 0.510253906 0.856933594
vt 0.0762329102 0.932617188
vt 0.077331543 0.932128906
vt 0.0770263672 0.926269531
vt 0.0787353516 0.9375
vt 0.0762329102 0.924316406
vt 0.0787353516 0.940429688
vt 0.0778808594 0.920898438
vt 0.0812988281 0.941894531
vt 0.0793457031 0.915039062
vt 0.0799560547 0.916015625
vt 0.0830078125 0.911621094
vt 0.0852661133 0.907714844
vt 0.0868530273 0.908203125
vt 0.0894775391 0.905273438
vt 0.0914306641 0.905273438
vt 0.096496582 0.902832031
vt 0.0963745117 0.904296875
vt 0.0830688477 0.946289062
vt 0.084777832 0.946289062
vt 0.0889892578 0.94921875
vt 0.0872192383 0.949707031
vt 0.09375 0.951171875
vt 0.0939941406 0.953125
vt 0.098815918 0.951660156
vt 0.104309082 0.903320312
vt 0.10144043 0.904296875
vt 0.106384277 0.905761719
vt 0.110961914 0.90625
vt 0.110900879 0.908203125
vt 0.115234375 0.91015625
vt 0.114807129 0.911621094
vt 0.118896484 0.914550781
vt 0.117858887 0.916015625
vt 0.12121582 0.920410156
vt 0.119812012 0.920898438
vt 0.122375488 0.926269531
vt 0.120727539 0.926757812
vt 0.121704102 0.934570312
vt 0.120422363 0.932128906
vt 0.11895752 0.9375
vt 0.118591309 0.942382812
vt 0.115234375 0.943847656
vt 0.114685059 0.947265625
vt 0.10949707 0.948730469
vt 0.10949707 0.950683594
vt 0.104492188 0.953125
vt 0.103881836 0.951171875
f 3/3 2/2 1/1
f 1/1 2/2 4/4
f 5/5 4/4 2/2
f 6/6 5/5 2/2
f 7/7 5/5 6/6
f 7/7 8/8 5/5
f 9/9 7/7 6/6
f 7/7 9/9 8/8
f 10/10 9/9 6/6
f 9/9 11/11 8/8
f 12/12 9/9 10/10
f 13/13 12/12 10/10
f 11/11 9/9 14/14
f 9/9 12/12 14/14
f 15/15 11/11 14/14
f 15/15 16/16 11/11
f 15/15 17/17 16/16
f 18/18 12/12 13/13
f 14/14 12/12 18/18
f 14/14 18/18 15/15
f 19/19 18/18 13/13
f 20/20 18/18 19/19
f 20/20 19/19 21/21
f 18/18 20/20 22/22
f 15/15 18/18 22/22
f 21/21 23/23 20/20
f 20/20 23/23 22/22
f 23/23 21/21 24/24
f 22/22 23/23 24/24
f 21/21 25/25 24/24
f 26/26 25/25 21/21
f 26/26 27/27 25/25
f 28/28 17/17 15/15
f 15/15 22/22 29/29
f 28/28 15/15 29/29
f 30/30 17/17 28/28
f 29/29 30/30 28/28
f 30/30 31/31 17/17
f 22/22 24/24 32/32
f 29/29 22/22 32/32
f 25/25 33/33 24/24
f 24/24 33/33 32/32
f 25/25 27/27 34/34
f 34/34 33/33 25/25
f 35/35 31/31 30/30
f 35/35 36/36 31/31
f 29/29 32/32 37/37
f 32/32 33/33 37/37
f 38/38 30/30 29/29
f 37/37 38/38 29/29
f 38/38 35/35 30/30
f 36/36 35/35 39/39
f 39/39 40/40 36/36
f 39/39 41/41 40/40
f 33/33 42/42 37/37
f 42/42 38/38 37/37
f 43/43 35/35 38/38
f 35/35 43/43 39/39
f 42/42 43/43 38/38
f 44/44 41/41 39/39
f 41/41 44/44 45/45
f 42/42 33/33 46/46
f 46/46 33/33 34/34
f 43/43 42/42 47/47
f 42/42 46/46 47/47
f 48/48 39/39 43/43
f 48/48 44/44 39/39
f 47/47 48/48 43/43
f 45/45 44/44 49/49
f 44/44 48/48 49/49
f 49/49 50/50 45/45
f 49/49 51/51 50/50
f 52/52 46/46 34/34
f 47/47 46/46 52/52
f 48/48 47/47 53/53
f 47/47 52/52 53/53
f 49/49 48/48 54/54
f 48/48 53/53 54/54
f 55/55 51/51 49/49
f 49/49 54/54 55/55
f 56/56 54/54 53/53
f 52/52 56/56 53/53
f 57/57 52/52 34/34
f 34/34 27/27 57/57
f 58/58 57/57 27/27
f 59/59 51/51 55/55
f 59/59 60/60 51/51
f 61/61 60/60 59/59
f 54/54 62/62 55/55
f 54/54 56/56 62/62
f 55/55 62/62 59/59
f 63/63 52/52 57/57
f 56/56 52/52 63/63
f 64/64 57/57 58/58
f 64/64 63/63 57/57
f 65/65 64/64 58/58
f 62/62 66/66 59/59
f 62/62 56/56 66/66
f 67/67 56/56 63/63
f 63/63 64/64 67/67
f 66/66 56/56 67/67
f 65/65 68/68 64/64
f 68/68 67/67 64/64
f 65/65 69/69 68/68
f 59/59 66/66 70/70
f 70/70 66/66 67/67
f 70/70 61/61 59/59
f 68/68 71/71 67/67
f 67/67 71/71 70/70
f 61/61 70/70 72/72
f 71/71 72/72 70/70
f 73/73 61/61 72/72
f 73/73 72/72 74/74
f 75/75 74/74 72/72
f 71/71 75/75 72/72
f 74/74 75/75 76/76
f 77/77 68/68 69/69
f 77/77 71/71 68/68
f 78/78 75/75 71/71
f 77/77 78/78 71/71
f 69/69 78/78 77/77
f 75/75 78/78 76/76
f 79/79 78/78 69/69
f 76/76 78/78 79/79
f 79/79 80/80 76/76
f 81/81 80/80 79/79
f 82/82 80/80 81/81
f 83/83 82/82 81/81
f 84/84 82/82 83/83
f 85/85 84/84 83/83
f 86/86 84/84 85/85
f 89/89 88/88 87/87
f 90/90 88/88 89/89
f 93/93 92/92 91/91
f 91/91 92/92 94/94
f 94/94 92/92 95/95
f 95/95 92/92 96/96
f 96/96 92/92 97/97
f 97/97 92/92 98/98
f 98/98 92/92 99/99
f 99/99 92/92 100/100
f 100/100 92/92 101/101
f 101/101 92/92 102/102
f 102/102 92/92 103/103
f 103/103 92/92 104/104
f 104/104 92/92 105/105
f 104/104 105/105 106/106
f 105/105 107/107 106/106
f 106/106 107/107 108/108
f 108/108 109/109 106/106
f 108/108 107/107 110/110
f 106/106 109/109 111/111
f 109/109 112/112 111/111
f 111/111 112/112 113/113
f 113/113 112/112 114/114
f 115/115 113/113 114/114
f 114/114 116/116 115/115
f 115/115 116/116 117/117
f 118/118 110/110 107/107
f 119/119 110/110 118/118
f 119/119 118/118 120/120
f 121/121 120/120 118/118
f 122/122 120/120 121/121
f 123/123 122/122 121/121
f 124/124 122/122 123/123
f 123/123 125/125 124/124
f 124/124 125/125 126/126
f 127/127 126/126 125/125
f 128/128 126/126 127/127
f 116/116 129/129 117/117
f 117/117 129/129 130/130
f 131/131 130/130 129/129
f 132/132 131/131 129/129
f 133/133 131/131 132/132
f 127/127 134/134 128/128
f 128/128 134/134 135/135
f 135/135 134/134 136/136
f 134/134 137/137 136/136
f 132/132 138/138 133/133
f 137/137 138/138 136/136
f 138/138 139/139 133/133
f 137/137 140/140 138/138
f 141/141 139/139 138/138
f 138/138 140/140 141/141
f 144/144 143/143 142/142
f 144/144 142/142 145/145
f 142/142 146/146 145/145
f 145/145 146/146 147/147
f 147/147 146/146 148/148
f 148/148 146/146 149/149
f 148/148 149/149 150/150
f 150/150 149/149 151/151
f 149/149 152/152 151/151
f 152/152 153/153 151/151
f 154/154 153/153 152/152
f 154/154 155/155 153/153
f 153/153 155/155 156/156
f 155/155 157/157 156/156
f 157/157 158/158 156/156
f 159/159 158/158 157/157
f 160/160 158/158 159/159
f 161/161 160/160 159/159
f 162/162 160/160 161/161
f 161/161 163/163 162/162
f 164/164 162/162 163/163
f 164/164 163/163 165/165
f 165/165 166/166 164/164
f 166/166 167/167 164/164
f 166/166 168/168 167/167
f 169/169 167/167 168/168
f 169/169 168/168 170/170
f 171/171 169/169 170/170
f 172/172 169/169 171/171
f 173/173 172/172 171/171
f 174/174 172/172 173/173
f 175/175 172/172 174/174
f 176/176 175/175 174/174
f 177/177 175/175 176/176
f 178/178 175/175 177/177
f 179/179 178/178 177/177
f 182/182 181/181 180/180
f 183/183 181/181 182/182
f 184/184 183/183 182/182
f 185/185 183/183 184/184
f 186/186 185/185 184/184
f 187/187 185/185 186/186
f 187/187 188/188 185/185
f 189/189 188/188 187/187
f 190/190 188/188 189/189
f 191/191 188/188 190/190
f 192/192 191/191 190/190
f 191/191 192/192 193/193
f 192/192 194/194 193/193
f 193/193 194/194 195/195
f 194/194 196/196 195/195
f 195/195 196/196 197/197
f 196/196 198/198 197/197
f 197/197 198/198 199/199
f 199/199 198/198 200/200
f 198/198 201/201 200/200
f 201/201 202/202 200/200
f 202/202 203/203 200/200
f 204/204 203/203 202/202
f 205/205 203/203 204/204
f 206/206 205/205 204/204
f 207/207 206/206 204/204
f 208/208 206/206 207/207
f 209/209 208/208 207/207
f 210/210 209/209 207/207
f 209/209 210/210 211/211
f 210/210 212/212 211/211
f 211/211 212/212 213/213
f 213/213 212/212 214/214
f 212/212 215/215 214/214
f 214/214 215/215 216/216
f 216/216 215/215 217/217
f 215/215 218/218 217/217
f 221/221 220/220 219/219
f 222/222 220/220 221/221
f 225/225 224/224 223/223
f 226/226 225/225 223/223
f 227/227 225/225 226/226
f 226/226 228/228 227/227
f 227/227 228/228 229/229
f 228/228 230/230 229/229
f 229/229 230/230 231/231
f 230/230 232/232 231/231
f 231/231 232/232 233/233
f 233/233 232/232 234/234
f 232/232 235/235 234/234
f 236/236 234/234 235/235
f 235/235 237/237 236/236
f 236/236 237/237 238/238
f 239/239 238/238 237/237
f 240/240 238/238 239/239
f 240/240 239/239 241/241
f 241/241 239/239 242/242
f 243/243 241/241 242/242
f 242/242 244/244 243/243
f 243/243 244/244 245/245
f 244/244 246/246 245/245
f 245/245 246/246 247/247
f 246/246 248/248 247/247
f 249/249 247/247 248/248
f 250/250 249/249 248/248
f 251/251 250/250 248/248
f 254/254 253/253 252/252
f 255/255 254/254 252/252
f 256/256 254/254 255/255
f 257/257 256/256 255/255
f 258/258 256/256 257/257
f 259/259 258/258 257/257
f 260/260 258/258 259/259
f 261/261 260/260 259/259
f 261/261 262/262 260/260
f 260/260 262/262 263/263
f 262/262 264/264 263/263
f 264/264 265/265 263/263
f 268/268 267/267 266/266
f 267/267 269/269 266/266
f 266/266 269/269 270/270
f 269/269 271/271 270/270
f 270/270 271/271 272/272
f 271/271 273/273 272/272
f 272/272 273/273 274/274
f 273/273 275/275 274/274
f 275/275 276/276 274/274
f 277/277 276/276 275/275
f 278/278 276/276 277/277
f 277/277 279/279 278/278
f 280/280 279/279 277/277
f 283/283 282/282 281/281
f 281/281 284/284 283/283
f 284/284 285/285 283/283
f 283/283 285/285 286/286
f 285/285 287/287 286/286
f 287/287 288/288 286/286
f 286/286 288/288 289/289
f 288/288 290/290 289/289
f 291/291 290/290 288/288
f 292/292 291/291 288/288
f 288/288 293/293 292/292
f 294/294 293/293 288/288
f 297/297 296/296 295/295
f 298/298 296/296 297/297
f 301/301 300/300 299/299
f 300/300 302/302 299/299
f 299/299 302/302 303/303
f 302/302 304/304 303/303
f 303/303 304/304 305/305
f 304/304 306/306 305/305
f 305/305 306/306 307/307
f 306/306 308/308 307/307
f 307/307 308/308 309/309
f 308/308 310/310 309/309
f 309/309 310/310 311/311
f 310/310 312/312 311/311
f 311/311 312/312 313/313
f 312/312 314/314 313/313
f 313/313 314/314 315/315
f 315/315 314/314 316/316
f 315/315 316/316 317/317
f 317/317 316/316 318/318
f 316/316 319/319 318/318
f 318/318 319/319 320/320
f 319/319 321/321 320/320
f 320/320 321/321 322/322
f 322/322 321/321 323/323
f 322/322 323/323 324/324
f 324/324 323/323 325/325
f 324/324 325/325 326/326
f 326/326 325/325 327/327
f 326/326 327/327 328/328
f 328/328 327/327 329/329
f 327/327 330/330 329/329
f 329/329 330/330 331/331
f 330/330 332/332 331/331
f 331/331 332/332 333/333
f 333/333 332/332 334/334
f 333/333 334/334 335/335
f 336/336 335/335 334/334
f 334/334 337/337 336/336
f 336/336 337/337 338/338
f 337/337 339/339 338/338
f 338/338 339/339 340/340
f 338/338 340/340 341/341
f 341/341 340/340 342/342
f 341/341 342/342 343/343
f 343/343 342/342 344/344
f 343/343 344/344 345/345
f 345/345 344/344 346/346
f 344/344 347/347 346/346
f 346/346 347/347 348/348
f 347/347 349/349 348/348
f 352/352 351/351 350/350
f 351/351 353/353 350/350
f 353/353 354/354 350/350
f 354/354 355/355 350/350
f 350/350 355/355 356/356
f 356/356 357/357 350/350
f 357/357 358/358 350/350
f 358/358 359/359 350/350
f 359/359 360/360 350/350
f 360/360 361/361 350/350
f 361/361 362/362 350/350
f 362/362 363/363 350/350
f 363/363 364/364 350/350
f 364/364 365/365 350/350
f 368/368 367/367 366/366
f 369/369 367/367 368/368
f 368/368 366/366 370/370
f 371/371 369/369 368/368
f 370/370 366/366 372/372
f 373/373 369/369 371/371
f 374/374 373/373 371/371
f 375/375 373/373 374/374
f 376/376 375/375 374/374
f 376/376 377/377 375/375
f 378/378 377/377 376/376
f 379/379 377/377 378/378
f 370/370 372/372 380/380
f 372/372 381/381 380/380
f 381/381 382/382 380/380
f 380/380 382/382 383/383
f 382/382 384/384 383/383
f 383/383 384/384 385/385
f 384/384 386/386 385/385
f 387/387 379/379 378/378
f 387/387 388/388 379/379
f 387/387 389/389 388/388
f 385/385 386/386 390/390
f 386/386 391/391 390/390
f 391/391 392/392 390/390
f 393/393 389/389 387/387
f 393/393 394/394 389/389
f 395/395 394/394 393/393
f 396/396 395/395 393/393
f 397/397 395/395 396/396
f 390/390 392/392 398/398
f 392/392 399/399 398/398
f 399/399 400/400 398/398
f 398/398 400/400 401/401
f 401/401 400/400 402/402
f 403/403 397/397 396/396
f 401/401 402/402 403/403
f 404/404 397/397 403/403
f 402/402 404/404 403/403
f 407/407 406/406 405/405
f 406/406 408/408 405/405
f 405/405 409/409 407/407
f 405/405 408/408 410/410
f 411/411 407/407 409/409
f 408/408 412/412 410/410
f 413/413 411/411 409/409
f 414/414 411/411 413/413
f 410/410 412/412 415/415
f 412/412 416/416 415/415
f 416/416 417/417 415/415
f 415/415 417/417 418/418
f 417/417 419/419 418/418
f 418/418 419/419 420/420
f 419/419 421/421 420/420
f 422/422 414/414 413/413
f 423/423 414/414 422/422
f 420/420 421/421 424/424
f 421/421 425/425 424/424
f 426/426 424/424 425/425
f 427/427 424/424 426/426
f 428/428 427/427 426/426
f 429/429 423/423 422/422
f 430/430 429/429 422/422
f 430/430 431/431 429/429
f 429/429 431/431 432/432
f 433/433 432/432 431/431
f 434/434 432/432 433/433
f 435/435 434/434 433/433
f 434/434 435/435 436/436
f 437/437 436/436 435/435
f 437/437 438/438 436/436
f 439/439 427/427 428/428
f 440/440 439/439 428/428
f 441/441 439/439 440/440
f 442/442 438/438 437/437
f 443/443 438/438 442/442
f 443/443 442/442 444/444
f 445/445 444/444 442/442
f 446/446 444/444 445/445
f 447/447 439/439 441/441
f 448/448 447/447 441/441
f 449/449 447/447 448/448
f 450/450 446/446 445/445
f 451/451 446/446 450/450
f 452/452 451/451 450/450
f 453/453 447/447 449/449
f 450/450 453/453 452/452
f 454/454 453/453 449/449
f 452/452 453/453 454/454
f 457/457 456/456 455/455
f 458/458 455/455 456/456
f 459/459 457/457 455/455
f 460/460 455/455 458/458
f 461/461 457/457 459/459
f 462/462 460/460 458/458
f 463/463 461/461 459/459
f 461/461 463/463 464/464
f 464/464 463/463 465/465
f 466/466 465/465 463/463
f 467/467 465/465 466/466
f 466/466 468/468 467/467
f 467/467 468/468 469/469
f 470/470 469/469 468/468
f 471/471 469/469 470/470
f 472/472 460/460 462/462
f 473/473 472/472 462/462
f 472/472 473/473 474/474
f 474/474 475/475 472/472
f 476/476 475/475 474/474
f 477/477 475/475 476/476
f 478/478 477/477 476/476
f 470/470 479/479 471/471
f 471/471 479/479 480/480
f 480/480 479/479 481/481
f 479/479 482/482 481/481
f 481/481 482/482 483/483
f 482/482 484/484 483/483
f 483/483 484/484 485/485
f 484/484 486/486 485/485
f 485/485 486/486 487/487
f 487/487 486/486 488/488
f 487/487 488/488 489/489
f 488/488 490/490 489/489
f 489/489 490/490 491/491
f 491/491 490/490 492/492
f 491/491 492/492 493/493
f 493/493 492/492 494/494
f 492/492 495/495 494/494
f 495/495 496/496 494/494
f 495/495 497/497 496/496
f 496/496 497/497 498/498
f 497/497 499/499 498/498
f 499/499 500/500 498/498
f 498/498 500/500 501/501
f 501/501 500/500 478/478
f 500/500 477/477 478/478
