v 0.0355012433 0.0229999891 -0.0115785464
v 0.0335012426 0.0229999889 -0.0115785246
v 0.03350124 0.0189724437 -0.0174100249
v 0.0355012378 0.0189724147 -0.0174100467
v 0.0335012434 0.013507696 -0.0219227048
v 0.0355012441 0.0135076816 -0.0219226975
v 0.0335012411 0.00701973115 -0.0247747026
v 0.0355012389 0.00701971677 -0.0247746968
v 0.0335012475 2.92877228e-09 -0.0257500069
v 0.0355012453 3.10361765e-09 -0.0257499982
v 0.0335012481 -0.00701971074 -0.0247747026
v 0.0355012488 -0.00701972511 -0.0247746968
v 0.0335012574 -0.0135076756 -0.0219227106
v 0.0355012581 -0.01350769 -0.0219227033
v 0.0335012608 -0.0189724378 -0.0174100453
v 0.0355012586 -0.0189724231 -0.017410038
v 0.0335012524 -0.022999999 -0.0115785253
v 0.0355012531 -0.0229999989 -0.0115785486
v 0.0335012583 -0.022999999 0.0115785224
v 0.0335012524 -0.022999999 -0.0115785253
v 0.0335012608 -0.0189724378 0.0174100234
v 0.0335012608 -0.0189724378 -0.0174100453
v 0.0335012574 -0.0135076756 -0.0219227106
v 0.0335012481 -0.00701971074 -0.0247747026
v 0.0335012475 2.92877228e-09 -0.0257500069
v 0.0335012411 0.00701973115 -0.0247747026
v 0.0335012434 0.013507696 -0.0219227048
v 0.03350124 0.0189724437 -0.0174100249
v 0.0335012426 0.0229999889 -0.0115785246
v 0.0335012339 0.0229999889 0.0115785246
v 0.03350124 0.0189724437 0.0174100438
v 0.0335012434 0.013507696 0.0219227091
v 0.0335012469 0.0070197166 0.0247746997
v 0.0335012516 -0.0135076756 0.0219227019
v 0.0335012504 2.92877252e-09 0.025750004
v 0.0335012569 -0.00701971074 0.0247746997
v 0.0355012589 -0.0229999989 0.0115785297
v 0.0335012583 -0.022999999 0.0115785224
v 0.0335012608 -0.0189724378 0.0174100234
v 0.0355012586 -0.0189724231 0.0174100278
v 0.0335012516 -0.0135076756 0.0219227019
v 0.0355012523 -0.01350769 0.0219227091
v 0.0335012569 -0.00701971074 0.0247746997
v 0.0355012575 -0.00701972511 0.0247747055
v 0.0335012504 2.92877252e-09 0.025750004
v 0.0355012511 -1.17975427e-08 0.0257499807
v 0.0335012469 0.0070197166 0.0247746997
v 0.0355012476 0.00701971677 0.0247747084
v 0.0335012434 0.013507696 0.0219227091
v 0.0355012441 0.0135076816 0.0219226844
v 0.03350124 0.0189724437 0.0174100438
v 0.0355012378 0.0189724438 0.0174100191
v 0.0335012339 0.0229999889 0.0115785246
v 0.0355012346 0.0229999891 0.0115785304
v 0.0354963839 0.0456503507 -0.0783295778
v 0.0355012332 0.0387532289 -0.0731031061
v 0.0355012303 0.0387532289 -0.0784030883
v 0.035501442 0.0468600572 -0.0542898721
v 0.0355013646 0.0336753294 -0.0628054491
v 0.0355012336 0.0337286156 -0.0730967557
v 0.0355012441 0.0135076816 -0.0219226975
v 0.0355012378 0.0189724147 -0.0174100467
v 0.0355012389 0.00701971677 -0.0247746968
v 0.0355011539 0.0469360532 -0.0219889669
v 0.0355012453 3.10361765e-09 -0.0257499982
v 0.0355012433 0.0229999891 -0.0115785464
v 0.0355025888 0.0456437936 -0.00504969466
v 0.0354988969 -0.0362177901 -0.0628036272
v 0.0355012346 0.0229999891 0.0115785304
v 0.0355028889 0.0421881241 0.0107863831
v 0.0354995859 0.0383564098 0.0209873004
v 0.0355012488 -0.00701972511 -0.0247746968
v 0.0355012378 0.0189724438 0.0174100191
v 0.035501353 0.0329275588 0.0297239574
v 0.0354982277 0.0280828945 0.0349838549
v 0.0355012441 0.0135076816 0.0219226844
v 0.0355011941 0.0195749281 0.0405647472
v 0.0354974957 0.0118378283 0.04311222
v 0.0355012476 0.00701971677 0.0247747084
v 0.0355076714 0.000346365676 0.0444443634
v 0.0355012511 -1.17975427e-08 0.0257499807
v 0.0354791653 -0.0121219125 0.0431199354
v 0.0355012575 -0.00701972511 0.0247747055
v 0.0355012523 -0.01350769 0.0219227091
v 0.0354922307 -0.0199349639 0.0404776016
v 0.0355003308 -0.0262624291 0.0366963766
v 0.0355012586 -0.0189724231 0.0174100278
v 0.0355038266 -0.0312162445 0.0321214757
v 0.0355050988 -0.0356515169 0.0264099246
v 0.0355012589 -0.0229999989 0.0115785297
v 0.0354901399 -0.0405744648 0.0149657077
v 0.0355012531 -0.0229999989 -0.0115785486
v 0.0355000589 -0.0451667553 -0.00285114456
v 0.0355018897 -0.0472593701 -0.0213341293
v 0.0355012586 -0.0189724231 -0.017410038
v 0.0355013804 -0.0472245037 -0.0539319648
v 0.0355012581 -0.01350769 -0.0219227033
v 0.0355010273 -0.0362119344 -0.0730887579
v 0.0355012693 -0.0412467836 -0.0731035136
v 0.0355012693 -0.0412467516 -0.0784035132
v 0.0355012697 -0.0460506037 -0.0781382667
v 0.0220905956 -0.0453500873 -0.108814798
v 0.0307852704 -0.045207958 -0.123401626
v 0.0220366939 -0.045366432 -0.123394653
v 0.0335031781 -0.0451827742 -0.11421747
v 0.0400125961 -0.0439227174 -0.123441033
v 0.0365191208 -0.0457106039 -0.104636385
v 0.0244176086 -0.047460269 -0.0803829171
v 0.0258630504 -0.048259463 -0.0665069034
v 0.0380097552 -0.0485287859 -0.0642338535
v 0.0300438593 -0.048628342 -0.0605546869
v 0.0322529449 -0.0488799794 -0.0541865651
v 0.0341816615 -0.0491606682 -0.0402315432
v 0.0455349345 -0.0453207602 -0.103680312
v 0.0555970452 -0.0421294225 -0.123451673
v 0.0560066701 -0.0438300611 -0.104140851
v 0.0499284285 -0.0466297948 -0.0810335274
v 0.0623557462 -0.041588047 -0.107699819
v 0.0649659637 -0.0386636793 -0.123460463
v 0.0583017285 -0.0457387949 -0.0686534622
v 0.0506228111 -0.0476645029 -0.0589130155
v 0.0542731881 -0.0474019132 -0.0370383379
v 0.0447042678 -0.048780286 -0.0346038491
v 0.0432235231 -0.0485514515 -0.0177562426
v 0.0348791115 -0.0488584423 -0.019930338
v 0.0349888358 -0.0476833984 -0.00449580548
v 0.0679038033 -0.0389502732 -0.104935886
v 0.0700471837 -0.0346278041 -0.12346562
v 0.0636735736 -0.0437919722 -0.0698472315
v 0.0496114995 -0.0478028742 -0.013647275
v 0.0717090183 -0.0353053586 -0.106606574
v 0.0738058788 -0.0287911819 -0.123471429
v 0.0538565608 -0.0461855623 -0.00541213012
v 0.0349468386 -0.0430979386 0.0151974848
v 0.0603682576 -0.0457713677 -0.0379409321
v 0.0540370919 -0.047009387 -0.012433462
v 0.0598794879 -0.0454864296 -0.0164387107
v 0.059112177 -0.0447904407 -0.00393136688
v 0.059895099 -0.0436776062 0.000568179121
v 0.0690146093 -0.0398272355 -0.0831733982
v 0.0648715746 -0.0436247386 -0.0376917335
v 0.062232771 -0.0429555719 -0.00138416899
v 0.0672496485 -0.0420175288 -0.0621362065
v 0.0655651479 -0.0425911335 -0.022665369
v 0.0680437173 -0.0414278881 -0.0412063935
v 0.0714587372 -0.0382608992 -0.0620221894
v 0.0740049786 -0.0343580607 -0.0836191059
v 0.071161331 -0.0381197107 -0.0396914576
v 0.0742475762 -0.0312408426 -0.108637405
v 0.0763493322 -0.0260894819 -0.109008246
v 0.076358639 -0.0194313156 -0.12347349
v 0.0776251796 -0.0208709016 -0.109330029
v 0.0774469641 -0.00822562775 -0.12347874
v 0.0778232083 -0.025099643 -0.0838209642
v 0.0747350365 -0.0334432487 -0.0626717927
v 0.0788835295 -0.0121090041 -0.107666815
v 0.0790017658 -0.000654273259 -0.111019576
v 0.0774162116 0.00825781266 -0.123478286
v 0.0796938094 -0.0129379408 -0.0833463215
v 0.0788845461 0.0114362006 -0.107839471
v 0.0757647891 0.0225669349 -0.123473827
v 0.0744219433 -0.0330188654 -0.0430816028
v 0.077870502 -0.0248263406 -0.0625430024
v 0.0761848084 -0.0276680067 -0.0395413226
v 0.0727372565 -0.0339988992 -0.025724998
v 0.080174132 -0.000154160403 -0.0840795634
v 0.0695308413 -0.0387178877 -0.0222918141
v 0.0659170247 -0.0403352752 -0.00348346839
v 0.0641259051 -0.0404087683 0.00446219456
v 0.067969182 -0.0372092209 0.00111373274
v 0.0625596767 -0.0408543568 0.00618146223
v 0.0658461333 -0.0372378156 0.00992416462
v 0.0690936896 -0.0328663065 0.00830923454
v 0.0704601263 -0.0344426251 -0.00468814033
v 0.0645477998 -0.0376641985 0.0116282725
v 0.0349471145 -0.0367477506 0.028285131
v 0.0724146984 -0.0301007555 -0.00566300259
v 0.0666600566 -0.0342483603 0.014884214
v 0.0646467002 -0.0349576267 0.0161889169
v 0.0349469102 -0.0302912404 0.035964264
v 0.0670322593 -0.0308732618 0.0193369677
v 0.0698746612 -0.025882624 0.0151369808
v 0.0649417894 -0.030938798 0.0211615203
v 0.0655732139 -0.0244842843 0.0262109417
v 0.0349471919 -0.0231949204 0.0411479239
v 0.0677031837 -0.0263995606 0.0229419296
v 0.0675293459 -0.0193139101 0.0277421408
v 0.0349470894 -0.0158546986 0.0443226978
v 0.0707159602 -0.0298763011 0.00549763026
v 0.0724802749 -0.0279741502 -0.00259814333
v 0.0741859689 -0.0273994891 -0.01508438
v 0.0757512597 -0.0210381673 -0.0191848885
v 0.0686408212 -0.0195094877 0.0256582309
v 0.0690353287 -0.0104590295 0.0282838941
v 0.0674214341 -0.0117556984 0.0302171393
v 0.0349472224 -0.00657097684 0.0461881136
v 0.0775962098 -0.0217891405 -0.0415924791
v 0.0667215153 -0.00256473721 0.0318420993
v 0.0349472478 0.00279079682 0.0464535755
v 0.0775647534 -0.0114937951 -0.0269700686
v 0.0793394235 -0.0111278819 -0.0523059163
v 0.0797485118 -0.000774778923 -0.0540382578
v 0.0780086497 0.00170508711 -0.028060723
v 0.0794338694 0.00949033314 -0.0527855125
v 0.0684237753 -0.00626514213 0.030159665
v 0.066482048 0.00849146235 0.031325224
v 0.0349471917 0.0124633488 0.0451529748
v 0.0662298625 0.0171863343 0.0292837998
v 0.0349469989 0.0206677201 0.0422665122
v 0.0670536401 0.0231902203 0.0258881162
v 0.0349470447 0.0291420381 0.0367725064
v 0.0684111082 0.00724107611 0.0300787651
v 0.0796393945 0.0131738107 -0.0836753694
v 0.068354659 -0.000139111266 0.0306387636
v 0.0691688031 0.00703642386 0.0283845846
v 0.0680318379 0.0164494269 0.0281914807
v 0.0691814698 -0.000320815934 0.0289506715
v 0.0687859184 0.0135280994 0.0277356274
v 0.0691356374 -0.00485370452 0.0288460054
v 0.0686358119 0.0198364158 0.0251945487
v 0.0775788376 0.0118773942 -0.0276016654
v 0.0698894303 0.0200989455 0.0191873842
v 0.0755277268 0.021945587 -0.0185917102
v 0.0775934702 0.0215471004 -0.0416984782
v 0.0783947569 0.0215729985 -0.0632497482
v 0.0694544265 0.0255099151 0.0169620311
v 0.0679686352 0.0262826595 0.0219753783
v 0.0714216589 0.0288634507 0.00282114997
v 0.0677494712 0.031489035 0.016124855
v 0.0667806922 0.0291516073 0.0214237589
v 0.0655439128 0.0350742833 0.0154876412
v 0.0696452538 0.0337984765 0.00223716834
v 0.072473285 0.0292689108 -0.00493174557
v 0.0749489792 0.0280713641 -0.0271069322
v 0.0655779592 0.0267851544 0.0244031471
v 0.0651363314 0.0314442119 0.0204867494
v 0.0349468433 0.0356505685 0.0292367768
v 0.0739093666 0.032987228 -0.0358223653
v 0.0759045277 0.0290396719 -0.043553146
v 0.0626637392 0.0390302736 0.0105935847
v 0.0349466305 0.0397374215 0.0222620482
v 0.0349506203 0.043692277 0.0120644538
v 0.0680112422 0.0368377166 0.00106159796
v 0.0643499802 0.0384828045 0.00970155525
v 0.0594054834 0.0438423937 -0.000540673909
v 0.0640693084 0.0413850442 -0.00123074087
v 0.0708947449 0.037960042 -0.0357883109
v 0.073111188 0.0358230673 -0.0619055121
v 0.0761208389 0.0301144327 -0.0619422353
v 0.0560304634 0.0450368117 -0.00252975442
v 0.0349776691 0.0468059357 -0.00150259557
v 0.0777124405 0.0250815365 -0.0840473105
v 0.0776668178 0.0204417617 -0.108966953
v 0.0763894036 0.0256712935 -0.108817569
v 0.0726269589 0.0307057698 -0.123470405
v 0.0741678379 0.0313217555 -0.107194507
v 0.0751729794 0.0317489998 -0.0832156744
v 0.0729682999 0.0354055961 -0.0829543103
v 0.071059269 0.035605094 -0.107270409
v 0.0693387787 0.0349622862 -0.123464607
v 0.0655926556 0.0379448727 -0.123460067
v 0.0689696311 0.0395819751 -0.0822278555
v 0.0674279373 0.038654884 -0.107359164
v 0.0630618385 0.0422069916 -0.0942731858
v 0.0577153194 0.0412705143 -0.123448181
v 0.0578813448 0.0455233057 -0.0684878265
v 0.069353045 0.0400673659 -0.0619051978
v 0.0647135623 0.0432329076 -0.0620887789
v 0.0657766613 0.0427828024 -0.038206263
v 0.0491853881 0.044848489 -0.101609563
v 0.0493953898 0.0427957667 -0.123453641
v 0.0337148104 0.044922487 -0.11145816
v 0.026581252 0.0451365567 -0.123390835
v 0.0205519308 0.0448939059 -0.110396685
v 0.0195571139 0.0446771842 -0.12339853
v 0.0244183716 0.0471153725 -0.0803824572
v 0.0378034181 0.0482487845 -0.0628418697
v 0.0256779475 0.0478611437 -0.0673472357
v 0.0294283048 0.0482342115 -0.0617434911
v 0.0324619513 0.0485692493 -0.0534095336
v 0.0342512868 0.0488244173 -0.0383937382
v 0.0498128723 0.0463640885 -0.0801947783
v 0.0443879822 0.0484526342 -0.034306731
v 0.0348966788 0.048574136 -0.0198667578
v 0.050323301 0.0473756067 -0.0584144611
v 0.054221538 0.0470902498 -0.0370268361
v 0.0437967088 0.0481288307 -0.017069641
v 0.0504843384 0.0473486653 -0.0132218571
v 0.0560694683 0.0461476031 -0.0112624017
v 0.060920652 0.0452250732 -0.0398195029
v 0.0616822178 0.044345995 -0.0168936691
v 0.0664461135 0.0418177136 -0.0266821298
v 0.0299421064 -0.0469130088 -0.0610518618
v 0.0258630504 -0.048259463 -0.0665069034
v 0.0257817662 -0.0465413009 -0.0668160501
v 0.0300438593 -0.048628342 -0.0605546869
v 0.0322529449 -0.0488799794 -0.0541865651
v 0.0327070198 -0.0472383603 -0.0519577181
v 0.0341816615 -0.0491606682 -0.0402315432
v 0.0341520279 -0.0474333588 -0.0401343248
v 0.0348834537 -0.0471929407 -0.0201504052
v 0.0348791115 -0.0488584423 -0.019930338
v 0.0349888358 -0.0476833984 -0.00449580548
v 0.0349728489 -0.0464088719 -0.00876197955
v 0.0349596996 -0.0432691099 0.00901766034
v 0.0349468386 -0.0430979386 0.0151974848
v 0.0349458748 -0.0378112453 0.0228734352
v 0.0349471145 -0.0367477506 0.028285131
v 0.034947964 -0.0330668203 0.0302548229
v 0.0349469102 -0.0302912404 0.035964264
v 0.0349479141 -0.0287827365 0.0348389585
v 0.0349471919 -0.0231949204 0.0411479239
v 0.034950821 -0.0211740406 0.0402460311
v 0.0349470894 -0.0158546986 0.0443226978
v 0.0349497957 -0.0123891949 0.0433220557
v 0.0349472224 -0.00657097684 0.0461881136
v 0.0349580459 -0.00338265003 0.0445733021
v 0.0349472478 0.00279079682 0.0464535755
v 0.0349550154 0.00595726357 0.0443002646
v 0.0349471917 0.0124633488 0.0451529748
v 0.0349810103 0.0123180625 0.0431671011
v 0.0349469989 0.0206677201 0.0422665122
v 0.0349541556 0.0192300258 0.040914485
v 0.0349470447 0.0291420381 0.0367725064
v 0.0349471207 0.0252148691 0.0374639028
v 0.0349504584 0.0314075239 0.0320232415
v 0.0349468433 0.0356505685 0.0292367768
v 0.0349466305 0.0397374215 0.0222620482
v 0.0349462553 0.0374430588 0.0229224577
v 0.0349506203 0.043692277 0.0120644538
v 0.0349514703 0.0417723235 0.0124404876
v 0.0349925558 0.0457363001 -0.00498951813
v 0.0349776691 0.0468059357 -0.00150259557
v 0.0348966788 0.048574136 -0.0198667578
v 0.0348572607 0.0468731685 -0.0211016537
v 0.0342130562 0.0471075357 -0.0394578907
v 0.0342512868 0.0488244173 -0.0383937382
v 0.0324619513 0.0485692493 -0.0534095336
v 0.0326045282 0.0468830024 -0.0524566742
v 0.0303150987 0.0466129944 -0.0600653526
v 0.0294283048 0.0482342115 -0.0617434911
v 0.0258861186 0.0462160265 -0.0664027641
v 0.0256779475 0.0478611437 -0.0673472357
v 0.0257817662 -0.0465413009 -0.0668160501
v 0.0258630504 -0.048259463 -0.0665069034
v 0.0244184146 -0.0453227586 -0.0803840114
v 0.0244176086 -0.047460269 -0.0803829171
v 0.0355012697 -0.0460506037 -0.0781382667
v 0.0257817662 -0.0465413009 -0.0668160501
v 0.0244184146 -0.0453227586 -0.0803840114
v 0.0299421064 -0.0469130088 -0.0610518618
v 0.0355013804 -0.0472245037 -0.0539319648
v 0.0327070198 -0.0472383603 -0.0519577181
v 0.0341520279 -0.0474333588 -0.0401343248
v 0.0355018897 -0.0472593701 -0.0213341293
v 0.0348834537 -0.0471929407 -0.0201504052
v 0.0349728489 -0.0464088719 -0.00876197955
v 0.0355000589 -0.0451667553 -0.00285114456
v 0.0349596996 -0.0432691099 0.00901766034
v 0.0354901399 -0.0405744648 0.0149657077
v 0.0349458748 -0.0378112453 0.0228734352
v 0.0355050988 -0.0356515169 0.0264099246
v 0.034947964 -0.0330668203 0.0302548229
v 0.0355038266 -0.0312162445 0.0321214757
v 0.0349479141 -0.0287827365 0.0348389585
v 0.0355003308 -0.0262624291 0.0366963766
v 0.034950821 -0.0211740406 0.0402460311
v 0.0354922307 -0.0199349639 0.0404776016
v 0.0354791653 -0.0121219125 0.0431199354
v 0.0349497957 -0.0123891949 0.0433220557
v 0.0349580459 -0.00338265003 0.0445733021
v 0.0355076714 0.000346365676 0.0444443634
v 0.0349550154 0.00595726357 0.0443002646
v 0.0354974957 0.0118378283 0.04311222
v 0.0349810103 0.0123180625 0.0431671011
v 0.0349541556 0.0192300258 0.040914485
v 0.0355011941 0.0195749281 0.0405647472
v 0.0349471207 0.0252148691 0.0374639028
v 0.0354982277 0.0280828945 0.0349838549
v 0.0349504584 0.0314075239 0.0320232415
v 0.035501353 0.0329275588 0.0297239574
v 0.0349462553 0.0374430588 0.0229224577
v 0.0354995859 0.0383564098 0.0209873004
v 0.0349514703 0.0417723235 0.0124404876
v 0.0355028889 0.0421881241 0.0107863831
v 0.0349925558 0.0457363001 -0.00498951813
v 0.0355025888 0.0456437936 -0.00504969466
v 0.0355011539 0.0469360532 -0.0219889669
v 0.0348572607 0.0468731685 -0.0211016537
v 0.0342130562 0.0471075357 -0.0394578907
v 0.035501442 0.0468600572 -0.0542898721
v 0.0326045282 0.0468830024 -0.0524566742
v 0.0303150987 0.0466129944 -0.0600653526
v 0.0354963839 0.0456503507 -0.0783295778
v 0.0258861186 0.0462160265 -0.0664027641
v 0.024418395 0.0454117507 -0.0803618925
v 0.0256779475 0.0478611437 -0.0673472357
v 0.0258861186 0.0462160265 -0.0664027641
v 0.0244183716 0.0471153725 -0.0803824572
v 0.024418395 0.0454117507 -0.0803618925
v 0.0335012426 0.0229999889 -0.0115785246
v 0.0355012433 0.0229999891 -0.0115785464
v 0.0335012339 0.0229999889 0.0115785246
v 0.0355012346 0.0229999891 0.0115785304
v 0.0335012583 -0.022999999 0.0115785224
v 0.0355012589 -0.0229999989 0.0115785297
v 0.0335012524 -0.022999999 -0.0115785253
v 0.0355012531 -0.0229999989 -0.0115785486
v 0.0355012303 0.0387532289 -0.0784030883
v 0.019466747 0.0385637441 -0.0784676115
v 0.0244183577 0.0398147873 -0.0803861883
v 0.0150463015 0.0385659498 -0.0804872136
v 0.00760290555 0.0347922301 -0.078402285
v 0.00502824249 0.0344987061 -0.084879424
v 1.86210426e-05 0.030026809 -0.0784020871
v -0.00182741754 0.0295280652 -0.0884312845
v -0.00631510036 0.0236931877 -0.0784019299
v -0.00743963741 0.0232844491 -0.0913397816
v -0.011080662 0.0161089881 -0.0784018368
v -0.0117447954 0.0157320483 -0.0935720396
v -0.0140390948 0.00765451646 -0.0784017961
v -0.014186817 0.00635525451 -0.0950078771
v -0.0150420542 -0.00124631947 -0.0784018077
v -0.0149972066 -0.00214238593 -0.0952618255
v -0.014039246 -0.010147155 -0.0784018834
v -0.0136759516 -0.0105402182 -0.0945743348
v -0.011080958 -0.0186017011 -0.0784020172
v -0.0104897705 -0.0186999003 -0.0929213245
v -0.00631553038 -0.0261859741 -0.0784021919
v -0.00567351591 -0.0258867605 -0.0904246524
v 1.80832154e-05 -0.0325197121 -0.0784024131
v 0.000364071955 -0.0317055121 -0.0872961245
v 0.00760228757 -0.0372852658 -0.0784026692
v 0.00750642746 -0.0361487845 -0.0835961022
v 0.015184489 -0.0402436986 -0.079255458
v 0.0156393716 -0.0390565213 -0.080421142
v 0.0244183938 -0.0412466507 -0.0803866016
v 0.00773668092 0.0309078845 -0.0628051464
v 0.000547663701 0.0259312249 -0.0628021255
v 0.000667864656 0.0259597757 -0.0668022025
v 0.00591332238 0.0299766519 -0.0730964472
v 0.00117090782 0.0264471019 -0.0730970351
v 0.0124850907 0.0331339088 -0.0730966392
v 0.000560068683 0.0251778198 -0.0730983098
v 0.0144855876 0.0336934185 -0.062805356
v 0.00125924106 0.0230726452 -0.0668021734
v 0.000796851887 0.0237645655 -0.0730941189
v 0.00145113554 0.0228833408 -0.0730957428
v 0.019539926 0.0349222583 -0.0730954111
v 0.0216505081 0.0350796433 -0.0628053967
v 0.0249494215 0.0352806317 -0.0730976753
v 0.0287136352 0.035037356 -0.0628045353
v 0.0303316191 0.0349284584 -0.0730958767
v 0.0355013646 0.0336753294 -0.0628054491
v 0.0355012336 0.0337286156 -0.0730967557
v 0.000796851887 0.0237645655 -0.0730941189
v 0.00145113554 0.0228833408 -0.0730957428
v 0.0014507967 -0.0253829638 -0.0731015811
v 0.000560068683 0.0251778198 -0.0730983098
v -0.0135210797 0.0200922924 -0.0731017441
v -0.00844226255 0.0273962149 -0.0731018547
v 0.00117090782 0.0264471019 -0.0730970351
v -0.00199806675 0.0335292365 -0.0731020176
v 0.00591332238 0.0299766519 -0.0730964472
v -0.0170269162 0.0119160693 -0.0731016742
v 0.00630892491 0.0385381141 -0.073102233
v -0.0188164489 0.00320176604 -0.0731016742
v -0.0188165223 -0.0056943909 -0.073101715
v -0.017027138 -0.014408739 -0.0731018197
v 0.0124850907 0.0331339088 -0.0730966392
v 0.019539926 0.0349222583 -0.0730954111
v 0.0249494215 0.0352806317 -0.0730976753
v 0.0355012332 0.0387532289 -0.0731031061
v 0.0303316191 0.0349284584 -0.0730958767
v 0.0355012336 0.0337286156 -0.0730967557
v 0.00056767692 -0.0267790543 -0.0730960281
v -0.013521447 -0.0225850204 -0.0731019594
v -0.00844274648 -0.0298890176 -0.0731021515
v 0.000989509101 -0.0287361442 -0.0730914297
v -0.00199865784 -0.0360221546 -0.0731023843
v 0.00632472434 -0.0410898467 -0.0731026521
v 0.00643663875 -0.0327241718 -0.0730935368
v 0.0122357118 -0.035489527 -0.073049299
v 0.0177283833 -0.0370361332 -0.0730574247
v 0.0232673356 -0.0377469938 -0.0730616564
v 0.0355012693 -0.0412467836 -0.0731035136
v 0.0297887429 -0.0374478524 -0.0730905973
v 0.0355010273 -0.0362119344 -0.0730887579
v 0.00145091175 -0.0254159705 -0.0668024179
v 0.00145113554 0.0228833408 -0.0730957428
v 0.00125924106 0.0230726452 -0.0668021734
v 0.0014507967 -0.0253829638 -0.0731015811
v 0.00056767692 -0.0267790543 -0.0730960281
v 0.0014507967 -0.0253829638 -0.0731015811
v 0.00145091175 -0.0254159705 -0.0668024179
v 0.000629989538 -0.0267633498 -0.0668024062
v 0.00100093709 -0.0287564529 -0.0668023829
v 0.000989509101 -0.0287361442 -0.0730914297
v 0.00535196439 -0.0320641523 -0.0628159789
v 0.00643663875 -0.0327241718 -0.0730935368
v 0.0122357118 -0.035489527 -0.073049299
v 0.000549242282 -0.0283501285 -0.0628023292
v 0.000504706088 -0.0282203254 -0.066802412
v 0.011986201 -0.0353573695 -0.0628214853
v 0.0177283833 -0.0370361332 -0.0730574247
v 0.0199504972 -0.0374380162 -0.0628070731
v 0.0232673356 -0.0377469938 -0.0730616564
v 0.0280759243 -0.0376006768 -0.0628057343
v 0.0297887429 -0.0374478524 -0.0730905973
v 0.0354988969 -0.0362177901 -0.0628036272
v 0.0355010273 -0.0362119344 -0.0730887579
v 0.015184489 -0.0402436986 -0.079255458
v 0.006568044 -0.041120036 -0.0783729483
v 0.0244183938 -0.0412466507 -0.0803866016
v 0.00760228757 -0.0372852658 -0.0784026692
v -0.001998817 -0.0360221255 -0.0784023665
v 1.80832154e-05 -0.0325197121 -0.0784024131
v -0.00844290364 -0.0298889885 -0.0784021511
v -0.00631553038 -0.0261859741 -0.0784021919
v -0.0135216042 -0.0225849898 -0.078401959
v -0.011080958 -0.0186017011 -0.0784020172
v -0.0170272981 -0.0144087084 -0.0784018193
v -0.014039246 -0.010147155 -0.0784018834
v -0.0188166824 -0.00569437599 -0.0784017146
v -0.0150420542 -0.00124631947 -0.0784018077
v -0.0188166089 0.00320178096 -0.0784016738
v -0.017027069 0.0119160991 -0.0784016738
v -0.0140390948 0.00765451646 -0.0784017961
v -0.0135212368 0.0200923215 -0.0784017437
v -0.011080662 0.0161089881 -0.0784018368
v -0.00844241243 0.0273962469 -0.0784018543
v -0.00631510036 0.0236931877 -0.0784019299
v -0.00199822464 0.0335292656 -0.0784020172
v 1.86210426e-05 0.030026809 -0.0784020871
v 0.00632526016 0.0385968224 -0.0784022326
v 0.00760290555 0.0347922301 -0.078402285
v 0.019466747 0.0385637441 -0.0784676115
v 0.006568044 -0.041120036 -0.0783729483
v 0.00632472434 -0.0410898467 -0.0731026521
v 0.0244183938 -0.0412466507 -0.0803866016
v 0.0355012693 -0.0412467836 -0.0731035136
v 0.0355012693 -0.0412467516 -0.0784035132
v 0.00632472434 -0.0410898467 -0.0731026521
v 0.006568044 -0.041120036 -0.0783729483
v -0.001998817 -0.0360221255 -0.0784023665
v -0.00199865784 -0.0360221546 -0.0731023843
v -0.00844290364 -0.0298889885 -0.0784021511
v -0.00844274648 -0.0298890176 -0.0731021515
v -0.0135216042 -0.0225849898 -0.078401959
v -0.013521447 -0.0225850204 -0.0731019594
v -0.0170272981 -0.0144087084 -0.0784018193
v -0.017027138 -0.014408739 -0.0731018197
v -0.0188166824 -0.00569437599 -0.0784017146
v -0.0188165223 -0.0056943909 -0.073101715
v -0.0188166089 0.00320178096 -0.0784016738
v -0.0188164489 0.00320176604 -0.0731016742
v -0.017027069 0.0119160991 -0.0784016738
v -0.0170269162 0.0119160693 -0.0731016742
v -0.0135212368 0.0200923215 -0.0784017437
v -0.0135210797 0.0200922924 -0.0731017441
v -0.00844241243 0.0273962469 -0.0784018543
v -0.00844226255 0.0273962149 -0.0731018547
v -0.00199822464 0.0335292656 -0.0784020172
v -0.00199806675 0.0335292365 -0.0731020176
v 0.00632526016 0.0385968224 -0.0784022326
v 0.00630892491 0.0385381141 -0.073102233
v 0.00630892491 0.0385381141 -0.073102233
v 0.00632526016 0.0385968224 -0.0784022326
v 0.0355012332 0.0387532289 -0.0731031061
v 0.019466747 0.0385637441 -0.0784676115
v 0.0355012303 0.0387532289 -0.0784030883
v 0.0355013646 0.0336753294 -0.0628054491
v 0.0354988969 -0.0362177901 -0.0628036272
v 0.0287136352 0.035037356 -0.0628045353
v 0.0216505081 0.0350796433 -0.0628053967
v 0.0144855876 0.0336934185 -0.062805356
v 0.00773668092 0.0309078845 -0.0628051464
v 0.000547663701 0.0259312249 -0.0628021255
v 0.0280759243 -0.0376006768 -0.0628057343
v 0.0199504972 -0.0374380162 -0.0628070731
v 0.011986201 -0.0353573695 -0.0628214853
v 0.00535196439 -0.0320641523 -0.0628159789
v 0.000549242282 -0.0283501285 -0.0628023292
v 0.000629989538 -0.0267633498 -0.0668024062
v 0.000504706088 -0.0282203254 -0.066802412
v 0.00100093709 -0.0287564529 -0.0668023829
v 0.000667864656 0.0259597757 -0.0668022025
v 0.00125924106 0.0230726452 -0.0668021734
v 0.00145091175 -0.0254159705 -0.0668024179
v 0.000549242282 -0.0283501285 -0.0628023292
v 0.000504706088 -0.0282203254 -0.066802412
v 0.000547663701 0.0259312249 -0.0628021255
v 0.000667864656 0.0259597757 -0.0668022025
v 0.0161897423 0.0466146026 -0.0803866307
v 0.0205519308 0.0448939059 -0.110396685
v 0.0244183716 0.0471153725 -0.0803824572
v 0.0142244613 0.0442214177 -0.113828026
v 0.0195571139 0.0446771842 -0.12339853
v 0.00392330286 0.0424825386 -0.123432116
v 0.00492301712 0.0440834298 -0.103103428
v 0.0126025119 0.0461194355 -0.0810494646
v 0.0033453712 0.0443858039 -0.0857471372
v -0.00832793435 0.0401370075 -0.123411173
v -0.00180216151 0.0429988954 -0.0884166686
v -0.00781209884 0.0407524255 -0.106361962
v -0.014727854 0.0371464021 -0.123396993
v -0.00894520329 0.039891048 -0.0921202998
v -0.0142950553 0.0370780052 -0.108495157
v -0.0142491338 0.0358998909 -0.0948627479
v -0.0186965524 0.0327974396 -0.112130272
v -0.0197879591 0.0323116296 -0.123361312
v -0.0172268817 0.0321713523 -0.0964060775
v -0.0234923755 0.025305016 -0.123339752
v -0.0218104769 0.0264836078 -0.111400546
v -0.0193396491 0.0280726073 -0.0975006958
v -0.0212344098 0.0221368795 -0.0984780374
v -0.0238738635 0.0178344367 -0.111195829
v -0.0255175764 0.0158818635 -0.123336923
v -0.0230994488 0.00607080527 -0.0994695118
v -0.0249818874 0.00474108528 -0.112143974
v -0.026406365 -0.00220830965 -0.123334187
v -0.0230907077 -0.00843265863 -0.0994554022
v -0.0254946543 -0.0161619501 -0.12333761
v -0.0238806096 -0.0176998837 -0.111040182
v -0.023755723 -0.0245869326 -0.123342918
v -0.0212240042 -0.0224598513 -0.0984769315
v -0.0216177233 -0.0277936769 -0.112230121
v -0.0195171063 -0.0279790768 -0.0975928036
v -0.0172358909 -0.0324976762 -0.0964112987
v -0.0201984688 -0.0322760508 -0.123360404
v -0.0182611431 -0.0336889194 -0.112487108
v -0.0140237183 -0.0364788762 -0.0947469613
v -0.0144481757 -0.0375197398 -0.11333077
v -0.0139731153 -0.0379404269 -0.123401766
v -0.0107580936 -0.039570765 -0.101108174
v -0.00819041097 -0.0406028477 -0.0917217345
v -0.00810090938 -0.0409758831 -0.10709177
v -0.00572698522 -0.0411268765 -0.12342002
v 0.000281533334 -0.0439453724 -0.0873415731
v 0.00574196954 -0.0444432919 -0.104622287
v 0.00550220352 -0.0452098083 -0.0846307434
v 0.00105163324 -0.0424445722 -0.123432698
v 0.0123424773 -0.046465245 -0.0811387144
v 0.0129056143 -0.0438459643 -0.123411161
v 0.0161625486 -0.0469529463 -0.0803852046
v 0.0220905956 -0.0453500873 -0.108814798
v 0.0220366939 -0.045366432 -0.123394653
v 0.0244176086 -0.047460269 -0.0803829171
v 0.0355012693 -0.0412467516 -0.0784035132
v 0.0355012697 -0.0460506037 -0.0781382667
v 0.0244184146 -0.0453227586 -0.0803840114
v 0.0244183938 -0.0412466507 -0.0803866016
v 0.0161625486 -0.0469529463 -0.0803852046
v 0.0244176086 -0.047460269 -0.0803829171
v 0.0156393716 -0.0390565213 -0.080421142
v 0.0123424773 -0.046465245 -0.0811387144
v 0.0121343932 -0.0413995662 -0.0812298385
v 0.00550220352 -0.0452098083 -0.0846307434
v 0.00750642746 -0.0361487845 -0.0835961022
v 0.000281533334 -0.0439453724 -0.0873415731
v 0.000364071955 -0.0317055121 -0.0872961245
v -0.00819041097 -0.0406028477 -0.0917217345
v -0.00567351591 -0.0258867605 -0.0904246524
v -0.0140237183 -0.0364788762 -0.0947469613
v -0.0172358909 -0.0324976762 -0.0964112987
v -0.0104897705 -0.0186999003 -0.0929213245
v -0.0195171063 -0.0279790768 -0.0975928036
v -0.0212240042 -0.0224598513 -0.0984769315
v -0.0136759516 -0.0105402182 -0.0945743348
v -0.0230907077 -0.00843265863 -0.0994554022
v -0.0149972066 -0.00214238593 -0.0952618255
v -0.0230994488 0.00607080527 -0.0994695118
v -0.014186817 0.00635525451 -0.0950078771
v -0.0117447954 0.0157320483 -0.0935720396
v -0.0212344098 0.0221368795 -0.0984780374
v -0.0193396491 0.0280726073 -0.0975006958
v -0.00743963741 0.0232844491 -0.0913397816
v -0.0172268817 0.0321713523 -0.0964060775
v -0.0142491338 0.0358998909 -0.0948627479
v -0.00182741754 0.0295280652 -0.0884312845
v -0.00894520329 0.039891048 -0.0921202998
v -0.00180216151 0.0429988954 -0.0884166686
v 0.00502824249 0.0344987061 -0.084879424
v 0.0033453712 0.0443858039 -0.0857471372
v 0.0121686353 0.0410884484 -0.0812177721
v 0.0126025119 0.0461194355 -0.0810494646
v 0.0150463015 0.0385659498 -0.0804872136
v 0.0161897423 0.0466146026 -0.0803866307
v 0.0244183577 0.0398147873 -0.0803861883
v 0.024418395 0.0454117507 -0.0803618925
v 0.0244183716 0.0471153725 -0.0803824572
v 0.0354963839 0.0456503507 -0.0783295778
v 0.0355012303 0.0387532289 -0.0784030883
v 0.00820342192 -0.00194975656 -0.12389241
v -0.0201984688 -0.0322760508 -0.123360404
v -0.0139731153 -0.0379404269 -0.123401766
v -0.023755723 -0.0245869326 -0.123342918
v -0.00572698522 -0.0411268765 -0.12342002
v -0.0254946543 -0.0161619501 -0.12333761
v 0.00105163324 -0.0424445722 -0.123432698
v -0.026406365 -0.00220830965 -0.123334187
v 0.0129056143 -0.0438459643 -0.123411161
v -0.0255175764 0.0158818635 -0.123336923
v 0.0220366939 -0.045366432 -0.123394653
v -0.0234923755 0.025305016 -0.123339752
v 0.0307852704 -0.045207958 -0.123401626
v -0.0197879591 0.0323116296 -0.123361312
v 0.0400125961 -0.0439227174 -0.123441033
v -0.014727854 0.0371464021 -0.123396993
v 0.0555970452 -0.0421294225 -0.123451673
v -0.00832793435 0.0401370075 -0.123411173
v 0.0649659637 -0.0386636793 -0.123460463
v 0.00392330286 0.0424825386 -0.123432116
v 0.0700471837 -0.0346278041 -0.12346562
v 0.0195571139 0.0446771842 -0.12339853
v 0.0738058788 -0.0287911819 -0.123471429
v 0.026581252 0.0451365567 -0.123390835
v 0.076358639 -0.0194313156 -0.12347349
v 0.0493953898 0.0427957667 -0.123453641
v 0.0774469641 -0.00822562775 -0.12347874
v 0.0577153194 0.0412705143 -0.123448181
v 0.0774162116 0.00825781266 -0.123478286
v 0.0655926556 0.0379448727 -0.123460067
v 0.0757647891 0.0225669349 -0.123473827
v 0.0693387787 0.0349622862 -0.123464607
v 0.0726269589 0.0307057698 -0.123470405
vt 0.547851562 0.864746094
vt 0.546875 0.864746094
vt 0.546875 0.868164062
vt 0.547851562 0.868164062
vt 0.546875 0.872070312
vt 0.547851562 0.872070312
vt 0.546875 0.875976562
vt 0.547851562 0.875976562
vt 0.546875 0.879882812
vt 0.547851562 0.879882812
vt 0.546875 0.883789062
vt 0.547851562 0.883789062
vt 0.546875 0.887207031
vt 0.547851562 0.887207031
vt 0.546875 0.891113281
vt 0.547851562 0.891113281
vt 0.546875 0.895019531
vt 0.547851562 0.895019531
vt 0.592285156 0.3046875
vt 0.592285156 0.317382812
vt 0.594238281 0.301757812
vt 0.594238281 0.3203125
vt 0.597167969 0.322753906
vt 0.600585938 0.324462891
vt 0.604492188 0.324951172
vt 0.608398438 0.324462891
vt 0.611816406 0.322753906
vt 0.614746094 0.3203125
vt 0.6171875 0.317382812
vt 0.6171875 0.3046875
vt 0.614746094 0.301757812
vt 0.611816406 0.299316406
vt 0.608398438 0.297607422
vt 0.597167969 0.299316406
vt 0.604492188 0.297119141
vt 0.600585938 0.297607422
vt 0.251953125 0.885742188
vt 0.252929688 0.885742188
vt 0.252929688 0.881835938
vt 0.251953125 0.881835938
vt 0.252929688 0.877929688
vt 0.251953125 0.877929688
vt 0.252929688 0.874023438
vt 0.251953125 0.874023438
vt 0.252929688 0.870117188
vt 0.251953125 0.870117188
vt 0.252929688 0.866210938
vt 0.251953125 0.866210938
vt 0.252929688 0.862792969
vt 0.251953125 0.862792969
vt 0.252929688 0.858886719
vt 0.251953125 0.858886719
vt 0.252929688 0.854980469
vt 0.251953125 0.854980469
vt 0.537109375 0.861816406
vt 0.533203125 0.859375
vt 0.533203125 0.861816406
vt 0.537597656 0.849121094
vt 0.530761719 0.853515625
vt 0.530761719 0.859375
vt 0.51953125 0.831542969
vt 0.522460938 0.829101562
vt 0.516113281 0.833007812
vt 0.537597656 0.831542969
vt 0.512207031 0.833496094
vt 0.524902344 0.826171875
vt 0.537109375 0.822753906
vt 0.492919922 0.853515625
vt 0.524902344 0.813476562
vt 0.53515625 0.813964844
vt 0.533203125 0.80859375
vt 0.508789062 0.833007812
vt 0.522460938 0.810546875
vt 0.530273438 0.803710938
vt 0.52734375 0.80078125
vt 0.51953125 0.808105469
vt 0.522949219 0.797851562
vt 0.518554688 0.796386719
vt 0.516113281 0.806640625
vt 0.512695312 0.795898438
vt 0.512207031 0.806152344
vt 0.505859375 0.796386719
vt 0.508789062 0.806640625
vt 0.505371094 0.808105469
vt 0.501464844 0.797851562
vt 0.498291016 0.800292969
vt 0.502441406 0.810546875
vt 0.495605469 0.802734375
vt 0.493164062 0.805664062
vt 0.5 0.813476562
vt 0.490478516 0.811523438
vt 0.5 0.826171875
vt 0.488037109 0.821289062
vt 0.487060547 0.831542969
vt 0.502441406 0.829101562
vt 0.487060547 0.848632812
vt 0.505371094 0.831542969
vt 0.492919922 0.859375
vt 0.490234375 0.859375
vt 0.490234375 0.861816406
vt 0.487548828 0.861816406
vt 0.0557250977 0.647949219
vt 0.0470275879 0.642578125
vt 0.0470275879 0.647949219
vt 0.052520752 0.641113281
vt 0.0470275879 0.637207031
vt 0.0582580566 0.639160156
vt 0.0726318359 0.646484375
vt 0.0808105469 0.645507812
vt 0.0818481445 0.638183594
vt 0.0841674805 0.642578125
vt 0.087890625 0.641113281
vt 0.0959472656 0.639648438
vt 0.0588378906 0.633789062
vt 0.0471191406 0.627441406
vt 0.0586547852 0.627929688
vt 0.0720825195 0.631347656
vt 0.0566101074 0.623535156
vt 0.0471801758 0.621582031
vt 0.0789794922 0.626953125
vt 0.0845336914 0.630859375
vt 0.0963745117 0.627929688
vt 0.0983886719 0.633300781
vt 0.107849121 0.632324219
vt 0.10760498 0.637207031
vt 0.116577148 0.634765625
vt 0.0582580566 0.620117188
vt 0.0471496582 0.617675781
vt 0.0782470703 0.623535156
vt 0.109191895 0.628417969
vt 0.0572814941 0.6171875
vt 0.0470581055 0.61328125
vt 0.112792969 0.625488281
vt 0.127685547 0.629394531
vt 0.0955200195 0.624511719
vt 0.109313965 0.625976562
vt 0.106628418 0.623535156
vt 0.112792969 0.622558594
vt 0.114807129 0.621582031
vt 0.0708007812 0.620117188
vt 0.0953979492 0.622070312
vt 0.113647461 0.620605469
vt 0.0823974609 0.62109375
vt 0.103088379 0.620605469
vt 0.0934448242 0.620117188
vt 0.0823364258 0.618164062
vt 0.0704956055 0.615722656
vt 0.0940551758 0.617675781
vt 0.056060791 0.614257812
vt 0.0558166504 0.610839844
vt 0.0469360352 0.606933594
vt 0.0556335449 0.607910156
vt 0.0469055176 0.600097656
vt 0.0704345703 0.610351562
vt 0.0819091797 0.615234375
vt 0.0567321777 0.602539062
vt 0.0549621582 0.595703125
vt 0.0475769043 0.589355469
vt 0.0708007812 0.603515625
vt 0.0574951172 0.588378906
vt 0.0487670898 0.580078125
vt 0.0921630859 0.614746094
vt 0.0819702148 0.610351562
vt 0.0939331055 0.611816406
vt 0.101013184 0.615234375
vt 0.0708007812 0.596191406
vt 0.102966309 0.617675781
vt 0.112243652 0.618652344
vt 0.116027832 0.618652344
vt 0.114074707 0.616699219
vt 0.117004395 0.619140625
vt 0.118225098 0.616699219
vt 0.117126465 0.614257812
vt 0.111206055 0.615234375
vt 0.119140625 0.616699219
vt 0.134521484 0.624023438
vt 0.110534668 0.612792969
vt 0.120239258 0.614746094
vt 0.12109375 0.615234375
vt 0.138549805 0.619628906
vt 0.121948242 0.61328125
vt 0.119934082 0.610839844
vt 0.12310791 0.61328125
vt 0.125 0.610839844
vt 0.141479492 0.615722656
vt 0.123291016 0.611328125
vt 0.125366211 0.608398438
vt 0.143554688 0.611328125
vt 0.115722656 0.612792969
vt 0.111938477 0.611816406
vt 0.106018066 0.611816406
vt 0.104003906 0.608398438
vt 0.124389648 0.608398438
vt 0.125488281 0.604492188
vt 0.126586914 0.604980469
vt 0.145141602 0.605957031
vt 0.0928955078 0.608886719
vt 0.127563477 0.6015625
vt 0.145874023 0.600097656
vt 0.100280762 0.604003906
vt 0.0875244141 0.603027344
vt 0.0869140625 0.59765625
vt 0.100158691 0.597167969
vt 0.0880126953 0.592285156
vt 0.126464844 0.603027344
vt 0.127807617 0.596679688
vt 0.145507812 0.594238281
vt 0.127441406 0.592773438
vt 0.144165039 0.588867188
vt 0.126220703 0.590332031
vt 0.141723633 0.583496094
vt 0.126831055 0.597167969
vt 0.0716552734 0.588867188
vt 0.126831055 0.600097656
vt 0.126098633 0.597167969
vt 0.126586914 0.593261719
vt 0.125976562 0.600097656
vt 0.126098633 0.594726562
vt 0.125854492 0.602050781
vt 0.125488281 0.591796875
vt 0.100830078 0.592285156
vt 0.122924805 0.591308594
vt 0.105834961 0.588378906
vt 0.0944213867 0.586914062
vt 0.0832519531 0.585449219
vt 0.122375488 0.588867188
vt 0.124572754 0.588867188
vt 0.116455078 0.586425781
vt 0.122558594 0.5859375
vt 0.124694824 0.587402344
vt 0.12286377 0.584472656
vt 0.116699219 0.583984375
vt 0.112854004 0.5859375
vt 0.102233887 0.584472656
vt 0.126098633 0.588378906
vt 0.124816895 0.586425781
vt 0.138549805 0.578613281
vt 0.0983886719 0.581054688
vt 0.0940551758 0.583007812
vt 0.121643066 0.581542969
vt 0.135498047 0.575195312
vt 0.130859375 0.5703125
vt 0.116577148 0.582519531
vt 0.120910645 0.58203125
vt 0.117736816 0.577148438
vt 0.116455078 0.579589844
vt 0.0989990234 0.578125
vt 0.0852050781 0.577148438
vt 0.0845947266 0.580566406
vt 0.117553711 0.575195312
vt 0.123779297 0.565429688
vt 0.0722045898 0.58203125
vt 0.0574951172 0.583007812
vt 0.058013916 0.579589844
vt 0.0496520996 0.574707031
vt 0.0595092773 0.576171875
vt 0.0732421875 0.578125
vt 0.0736694336 0.575683594
vt 0.0599060059 0.573242188
vt 0.0501708984 0.571289062
vt 0.0505981445 0.568359375
vt 0.0745849609 0.572753906
vt 0.0602416992 0.5703125
vt 0.0682983398 0.567871094
vt 0.051361084 0.562988281
vt 0.0833740234 0.566894531
vt 0.0856933594 0.57421875
vt 0.0861816406 0.571289062
vt 0.0986328125 0.57421875
vt 0.0650634766 0.559082031
vt 0.0520324707 0.558105469
vt 0.0604858398 0.549316406
vt 0.0539550781 0.543945312
vt 0.0621948242 0.541503906
vt 0.0545654297 0.540039062
vt 0.0796508789 0.546386719
vt 0.0885620117 0.556152344
vt 0.0871582031 0.548339844
vt 0.0900268555 0.551269531
vt 0.094543457 0.554199219
vt 0.103027344 0.557128906
vt 0.0775146484 0.561035156
vt 0.103820801 0.562988281
vt 0.113586426 0.560546875
vt 0.0896606445 0.563476562
vt 0.100891113 0.568359375
vt 0.11315918 0.565917969
vt 0.113708496 0.5703125
vt 0.113525391 0.573242188
vt 0.098449707 0.571289062
vt 0.109802246 0.575195312
vt 0.104187012 0.576660156
vt 0.648925781 0.837890625
vt 0.6484375 0.841308594
vt 0.649414062 0.841308594
vt 0.647949219 0.837402344
vt 0.647949219 0.833984375
vt 0.648925781 0.832519531
vt 0.647949219 0.826171875
vt 0.648925781 0.826171875
vt 0.648925781 0.815429688
vt 0.647949219 0.815429688
vt 0.6484375 0.807128906
vt 0.649414062 0.809082031
vt 0.650878906 0.799804688
vt 0.650878906 0.796386719
vt 0.653808594 0.791992188
vt 0.654296875 0.7890625
vt 0.656738281 0.788085938
vt 0.658203125 0.78515625
vt 0.658691406 0.785644531
vt 0.661621094 0.782226562
vt 0.663085938 0.782714844
vt 0.666015625 0.780761719
vt 0.667480469 0.78125
vt 0.670898438 0.779785156
vt 0.672363281 0.780273438
vt 0.67578125 0.779296875
vt 0.677734375 0.780761719
vt 0.681152344 0.780273438
vt 0.681152344 0.78125
vt 0.685546875 0.781738281
vt 0.684570312 0.782714844
vt 0.689941406 0.784667969
vt 0.687988281 0.784179688
vt 0.69140625 0.787109375
vt 0.693359375 0.788574219
vt 0.695800781 0.792480469
vt 0.694335938 0.791992188
vt 0.697753906 0.797851562
vt 0.696777344 0.797851562
vt 0.698730469 0.807128906
vt 0.699707031 0.805175781
vt 0.700683594 0.815429688
vt 0.699707031 0.815917969
vt 0.699707031 0.825683594
vt 0.700683594 0.825195312
vt 0.700683594 0.833496094
vt 0.699707031 0.833007812
vt 0.69921875 0.836914062
vt 0.700195312 0.837890625
vt 0.69921875 0.841308594
vt 0.700195312 0.841796875
vt 0.649414062 0.841308594
vt 0.6484375 0.841308594
vt 0.649902344 0.848632812
vt 0.6484375 0.848632812
vt 0.459960938 0.147338867
vt 0.452148438 0.145263672
vt 0.455566406 0.151733398
vt 0.452392578 0.141357422
vt 0.452636719 0.136474609
vt 0.450683594 0.136474609
vt 0.447998047 0.130737305
vt 0.442871094 0.121948242
vt 0.442138672 0.121582031
vt 0.438964844 0.116455078
vt 0.4375 0.113525391
vt 0.433837891 0.108093262
vt 0.432861328 0.104736328
vt 0.430908203 0.100646973
vt 0.430419922 0.098449707
vt 0.429443359 0.0961914062
vt 0.429443359 0.0947265625
vt 0.428466797 0.0928955078
vt 0.428466797 0.0911865234
vt 0.427490234 0.0879516602
vt 0.427734375 0.0872802734
vt 0.427490234 0.082824707
vt 0.427246094 0.0829467773
vt 0.427246094 0.0780639648
vt 0.427734375 0.0761108398
vt 0.427734375 0.073059082
vt 0.428466797 0.0698852539
vt 0.428222656 0.0696411133
vt 0.428955078 0.0657958984
vt 0.429199219 0.065612793
vt 0.429931641 0.0621643066
vt 0.430664062 0.060333252
vt 0.431396484 0.0579833984
vt 0.432128906 0.0567321777
vt 0.43359375 0.0526123047
vt 0.434570312 0.0517272949
vt 0.436279297 0.0471191406
vt 0.437011719 0.0464477539
vt 0.440673828 0.0385437012
vt 0.440917969 0.0386657715
vt 0.4453125 0.0306243896
vt 0.444824219 0.0308837891
vt 0.44921875 0.0220184326
vt 0.453613281 0.0153427124
vt 0.451904297 0.0154571533
vt 0.452636719 0.0112686157
vt 0.459960938 0.00395584106
vt 0.452392578 0.00712203979
vt 0.455322266 0.000132441521
vt 0.700195312 0.841796875
vt 0.69921875 0.841308594
vt 0.700195312 0.848632812
vt 0.69921875 0.848632812
vt 0.252929688 0.842285156
vt 0.251953125 0.842285156
vt 0.252929688 0.854980469
vt 0.251953125 0.854980469
vt 0.546875 0.907714844
vt 0.547851562 0.907714844
vt 0.546875 0.895019531
vt 0.547851562 0.895019531
vt 0.455810547 0.726074219
vt 0.457275391 0.734863281
vt 0.458007812 0.731933594
vt 0.458740234 0.736816406
vt 0.457519531 0.741210938
vt 0.461181641 0.742675781
vt 0.457519531 0.74609375
vt 0.462890625 0.747558594
vt 0.457275391 0.750976562
vt 0.464355469 0.751953125
vt 0.45703125 0.755859375
vt 0.465332031 0.756835938
vt 0.456787109 0.760742188
vt 0.465820312 0.76171875
vt 0.456542969 0.765625
vt 0.465576172 0.766601562
vt 0.456298828 0.770507812
vt 0.465087891 0.770996094
vt 0.456054688 0.775390625
vt 0.463867188 0.775878906
vt 0.455810547 0.779785156
vt 0.462402344 0.780273438
vt 0.455810547 0.784667969
vt 0.460693359 0.784667969
vt 0.455810547 0.789550781
vt 0.458496094 0.789550781
vt 0.456298828 0.793945312
vt 0.457275391 0.793945312
vt 0.457275391 0.798828125
vt 0.377929688 0.608886719
vt 0.377929688 0.613769531
vt 0.380126953 0.613769531
vt 0.383544922 0.610351562
vt 0.383544922 0.61328125
vt 0.383544922 0.606445312
vt 0.383544922 0.614257812
vt 0.378173828 0.604980469
vt 0.380126953 0.615234375
vt 0.383544922 0.614746094
vt 0.383544922 0.615722656
vt 0.383544922 0.602539062
vt 0.378173828 0.601074219
vt 0.383544922 0.599609375
vt 0.377929688 0.597167969
vt 0.383544922 0.596679688
vt 0.377929688 0.59375
vt 0.383544922 0.59375
vt 0.98046875 0.696289062
vt 0.98046875 0.696777344
vt 0.98046875 0.72265625
vt 0.980957031 0.695800781
vt 0.98828125 0.698242188
vt 0.985839844 0.694335938
vt 0.98046875 0.694824219
vt 0.981933594 0.690917969
vt 0.978027344 0.692871094
vt 0.990234375 0.702636719
vt 0.977539062 0.688476562
vt 0.991210938 0.707519531
vt 0.991210938 0.712402344
vt 0.990234375 0.716796875
vt 0.974121094 0.69140625
vt 0.970703125 0.690429688
vt 0.967773438 0.690429688
vt 0.961914062 0.688476562
vt 0.96484375 0.690429688
vt 0.961914062 0.690917969
vt 0.980957031 0.723632812
vt 0.98828125 0.721191406
vt 0.985839844 0.725097656
vt 0.98046875 0.724609375
vt 0.981933594 0.728515625
vt 0.977539062 0.731445312
vt 0.977539062 0.727050781
vt 0.974609375 0.728515625
vt 0.971679688 0.729003906
vt 0.96875 0.729492188
vt 0.961914062 0.731445312
vt 0.96484375 0.729492188
vt 0.961914062 0.728515625
vt 0.648925781 0.540527344
vt 0.65234375 0.514648438
vt 0.648925781 0.514648438
vt 0.65234375 0.540527344
vt 0.0064163208 0.00165557861
vt 0.0064125061 0.000765323639
vt 0.00301933289 0.000807285309
vt 0.00302696228 0.00165748596
vt 0.00302696228 0.00274848938
vt 0.0064163208 0.00273323059
vt 0.000883579254 0.00569534302
vt 0.0064201355 0.00637054443
vt 0.00640106201 0.00983428955
vt 0.000872612 0.00242614746
vt 0.00302696228 0.00235557556
vt 0.000891208649 0.00968170166
vt 0.00640487671 0.0129013062
vt 0.000885009766 0.0141220093
vt 0.00640869141 0.015914917
vt 0.000881195068 0.0184936523
vt 0.0064201355 0.0194244385
vt 0.000872612 0.022567749
vt 0.0064125061 0.0225830078
vt 0.956542969 0.524414062
vt 0.9609375 0.524414062
vt 0.951660156 0.5234375
vt 0.960449219 0.526367188
vt 0.965820312 0.52734375
vt 0.964355469 0.528808594
vt 0.96875 0.530761719
vt 0.967773438 0.532714844
vt 0.971191406 0.534667969
vt 0.969726562 0.537109375
vt 0.973144531 0.539550781
vt 0.971191406 0.541503906
vt 0.973632812 0.543945312
vt 0.971191406 0.546386719
vt 0.973144531 0.548828125
vt 0.972167969 0.553710938
vt 0.970703125 0.551269531
vt 0.969726562 0.557617188
vt 0.96875 0.555664062
vt 0.966796875 0.561523438
vt 0.965820312 0.559570312
vt 0.963378906 0.564453125
vt 0.962402344 0.5625
vt 0.958496094 0.566894531
vt 0.958007812 0.564941406
vt 0.951660156 0.56640625
vt 0.314941406 0.0891723633
vt 0.312255859 0.089050293
vt 0.316162109 0.098815918
vt 0.312255859 0.104736328
vt 0.314941406 0.104736328
vt 0.312255859 0.089050293
vt 0.314941406 0.0891723633
vt 0.314941406 0.0838012695
vt 0.312255859 0.0838012695
vt 0.314941406 0.0790405273
vt 0.312255859 0.0789794922
vt 0.315185547 0.07421875
vt 0.312255859 0.07421875
vt 0.315185547 0.0694580078
vt 0.312255859 0.0693969727
vt 0.315185547 0.0646362305
vt 0.312255859 0.0646362305
vt 0.315185547 0.0598449707
vt 0.312255859 0.0598449707
vt 0.315185547 0.0550537109
vt 0.312255859 0.0550537109
vt 0.315185547 0.0502624512
vt 0.312255859 0.0502624512
vt 0.315185547 0.0454711914
vt 0.312255859 0.0454711914
vt 0.315185547 0.0406799316
vt 0.312255859 0.0406799316
vt 0.315185547 0.0354309082
vt 0.312255859 0.0354614258
vt 0.312255859 0.0354614258
vt 0.315185547 0.0354309082
vt 0.312255859 0.0197143555
vt 0.315185547 0.0283508301
vt 0.315185547 0.0197143555
vt 0.264892578 0.339355469
vt 0.264892578 0.376953125
vt 0.268554688 0.338623047
vt 0.272460938 0.338623047
vt 0.276367188 0.339355469
vt 0.280029297 0.340820312
vt 0.283691406 0.343505859
vt 0.269042969 0.377685547
vt 0.2734375 0.377685547
vt 0.277587891 0.376464844
vt 0.28125 0.374755859
vt 0.283691406 0.372802734
vt 0.0401000977 0.397705078
vt 0.0401611328 0.396972656
vt 0.0399169922 0.396728516
vt 0.0401611328 0.426269531
vt 0.039855957 0.424560547
vt 0.0396728516 0.3984375
vt 0.222900391 0.382080078
vt 0.225097656 0.382080078
vt 0.222900391 0.353027344
vt 0.225097656 0.352783203
vt 0.76171875 0.330810547
vt 0.74609375 0.334228516
vt 0.762207031 0.335205078
vt 0.743652344 0.331054688
vt 0.738769531 0.334228516
vt 0.73828125 0.325927734
vt 0.749023438 0.325683594
vt 0.761230469 0.328857422
vt 0.758300781 0.323974609
vt 0.737792969 0.319091797
vt 0.756835938 0.321289062
vt 0.747070312 0.318603516
vt 0.737304688 0.315429688
vt 0.754394531 0.317382812
vt 0.745117188 0.314941406
vt 0.752441406 0.313720703
vt 0.743164062 0.311767578
vt 0.736816406 0.311523438
vt 0.751464844 0.311279297
vt 0.736816406 0.307373047
vt 0.743164062 0.307861328
vt 0.750976562 0.308837891
vt 0.75 0.305419922
vt 0.743164062 0.303222656
vt 0.736816406 0.302001953
vt 0.749511719 0.296875
vt 0.742675781 0.296142578
vt 0.736816406 0.292236328
vt 0.749511719 0.2890625
vt 0.736816406 0.284667969
vt 0.743164062 0.283935547
vt 0.736816406 0.280029297
vt 0.750488281 0.28125
vt 0.742675781 0.278320312
vt 0.750976562 0.278320312
vt 0.751464844 0.275634766
vt 0.736816406 0.275634766
vt 0.743164062 0.274658203
vt 0.752929688 0.272705078
vt 0.742675781 0.271728516
vt 0.737304688 0.270996094
vt 0.749511719 0.270019531
vt 0.754882812 0.269042969
vt 0.746582031 0.268310547
vt 0.737792969 0.266113281
vt 0.757324219 0.264404297
vt 0.748535156 0.260742188
vt 0.759277344 0.26171875
vt 0.73828125 0.262451172
vt 0.761230469 0.258056641
vt 0.738769531 0.256103516
vt 0.76171875 0.256103516
vt 0.746582031 0.251708984
vt 0.738769531 0.251220703
vt 0.762207031 0.251464844
vt 0.559570312 0.924804688
vt 0.559570312 0.927246094
vt 0.565429688 0.926757812
vt 0.565429688 0.924804688
vt 0.569824219 0.927734375
vt 0.565429688 0.928222656
vt 0.5703125 0.923828125
vt 0.571777344 0.927734375
vt 0.572265625 0.924804688
vt 0.576171875 0.926757812
vt 0.574707031 0.921875
vt 0.579101562 0.926269531
vt 0.579101562 0.919433594
vt 0.584472656 0.924316406
vt 0.583007812 0.916503906
vt 0.587890625 0.922363281
vt 0.58984375 0.919921875
vt 0.5859375 0.912597656
vt 0.591308594 0.917480469
vt 0.592285156 0.914550781
vt 0.587890625 0.908203125
vt 0.593261719 0.907226562
vt 0.588378906 0.903808594
vt 0.593261719 0.899414062
vt 0.587890625 0.898925781
vt 0.586425781 0.894042969
vt 0.592285156 0.890625
vt 0.591308594 0.887207031
vt 0.583984375 0.890136719
vt 0.58984375 0.885253906
vt 0.587890625 0.883300781
vt 0.580566406 0.88671875
vt 0.584960938 0.880859375
vt 0.580566406 0.879394531
vt 0.576171875 0.883789062
vt 0.577636719 0.878417969
vt 0.572265625 0.880371094
vt 0.571777344 0.877929688
vt 0.5703125 0.881835938
vt 0.569824219 0.877441406
vt 0.565429688 0.881347656
vt 0.565429688 0.877929688
vt 0.565429688 0.877441406
vt 0.559570312 0.877929688
vt 0.559570312 0.881835938
vt 0.668457031 0.900878906
vt 0.684570312 0.916015625
vt 0.687988281 0.912597656
vt 0.680664062 0.91796875
vt 0.689453125 0.908203125
vt 0.67578125 0.918945312
vt 0.690429688 0.904785156
vt 0.668457031 0.919433594
vt 0.690917969 0.897949219
vt 0.658691406 0.918945312
vt 0.691894531 0.893066406
vt 0.653808594 0.917480469
vt 0.691894531 0.888671875
vt 0.649902344 0.915527344
vt 0.690917969 0.883789062
vt 0.647460938 0.913085938
vt 0.689941406 0.875
vt 0.645507812 0.909667969
vt 0.687988281 0.870117188
vt 0.64453125 0.902832031
vt 0.686035156 0.8671875
vt 0.643066406 0.89453125
vt 0.683105469 0.865234375
vt 0.643066406 0.890625
vt 0.677734375 0.863769531
vt 0.64453125 0.878417969
vt 0.671875 0.86328125
vt 0.645019531 0.874023438
vt 0.663085938 0.86328125
vt 0.646972656 0.869628906
vt 0.655273438 0.864257812
vt 0.6484375 0.867675781
vt 0.650878906 0.865722656
f 3/3 2/2 1/1
f 4/4 3/3 1/1
f 5/5 3/3 4/4
f 6/6 5/5 4/4
f 7/7 5/5 6/6
f 8/8 7/7 6/6
f 9/9 7/7 8/8
f 10/10 9/9 8/8
f 11/11 9/9 10/10
f 12/12 11/11 10/10
f 13/13 11/11 12/12
f 14/14 13/13 12/12
f 15/15 13/13 14/14
f 16/16 15/15 14/14
f 17/17 15/15 16/16
f 18/18 17/17 16/16
f 21/21 20/20 19/19
f 22/22 20/20 21/21
f 23/23 22/22 21/21
f 21/21 24/24 23/23
f 25/25 24/24 21/21
f 21/21 26/26 25/25
f 27/27 26/26 21/21
f 28/28 27/27 21/21
f 21/21 29/29 28/28
f 30/30 29/29 21/21
f 31/31 30/30 21/21
f 21/21 32/32 31/31
f 33/33 32/32 21/21
f 34/34 33/33 21/21
f 35/35 33/33 34/34
f 36/36 35/35 34/34
f 39/39 38/38 37/37
f 40/40 39/39 37/37
f 41/41 39/39 40/40
f 42/42 41/41 40/40
f 43/43 41/41 42/42
f 44/44 43/43 42/42
f 45/45 43/43 44/44
f 46/46 45/45 44/44
f 47/47 45/45 46/46
f 48/48 47/47 46/46
f 49/49 47/47 48/48
f 50/50 49/49 48/48
f 51/51 49/49 50/50
f 52/52 51/51 50/50
f 53/53 51/51 52/52
f 54/54 53/53 52/52
f 57/57 56/56 55/55
f 55/55 56/56 58/58
f 56/56 59/59 58/58
f 60/60 59/59 56/56
f 59/59 61/61 58/58
f 61/61 62/62 58/58
f 59/59 63/63 61/61
f 62/62 64/64 58/58
f 65/65 63/63 59/59
f 66/66 64/64 62/62
f 67/67 64/64 66/66
f 68/68 65/65 59/59
f 69/69 67/67 66/66
f 70/70 67/67 69/69
f 69/69 71/71 70/70
f 72/72 65/65 68/68
f 73/73 71/71 69/69
f 73/73 74/74 71/71
f 75/75 74/74 73/73
f 76/76 75/75 73/73
f 76/76 77/77 75/75
f 78/78 77/77 76/76
f 79/79 78/78 76/76
f 78/78 79/79 80/80
f 79/79 81/81 80/80
f 82/82 80/80 81/81
f 83/83 82/82 81/81
f 84/84 82/82 83/83
f 85/85 82/82 84/84
f 86/86 85/85 84/84
f 84/84 87/87 86/86
f 86/86 87/87 88/88
f 89/89 88/88 87/87
f 90/90 89/89 87/87
f 91/91 89/89 90/90
f 90/90 92/92 91/91
f 91/91 92/92 93/93
f 94/94 93/93 92/92
f 95/95 94/94 92/92
f 96/96 94/94 95/95
f 97/97 96/96 95/95
f 68/68 96/96 97/97
f 97/97 72/72 68/68
f 68/68 98/98 96/96
f 96/96 98/98 99/99
f 96/96 99/99 100/100
f 100/100 101/101 96/96
f 104/104 103/103 102/102
f 103/103 105/105 102/102
f 105/105 103/103 106/106
f 102/102 105/105 107/107
f 107/107 108/108 102/102
f 107/107 109/109 108/108
f 110/110 109/109 107/107
f 111/111 109/109 110/110
f 112/112 111/111 110/110
f 112/112 110/110 113/113
f 114/114 105/105 106/106
f 107/107 105/105 114/114
f 114/114 110/110 107/107
f 106/106 115/115 114/114
f 114/114 115/115 116/116
f 117/117 110/110 114/114
f 116/116 117/117 114/114
f 118/118 116/116 115/115
f 119/119 118/118 115/115
f 120/120 117/117 116/116
f 118/118 120/120 116/116
f 121/121 110/110 117/117
f 120/120 121/121 117/117
f 121/121 120/120 122/122
f 110/110 121/121 123/123
f 113/113 110/110 123/123
f 123/123 121/121 122/122
f 123/123 124/124 113/113
f 122/122 124/124 123/123
f 113/113 124/124 125/125
f 124/124 126/126 125/125
f 118/118 119/119 127/127
f 119/119 128/128 127/127
f 129/129 120/120 118/118
f 127/127 129/129 118/118
f 130/130 126/126 124/124
f 122/122 130/130 124/124
f 127/127 128/128 131/131
f 128/128 132/132 131/131
f 133/133 126/126 130/130
f 126/126 133/133 134/134
f 120/120 129/129 135/135
f 122/122 120/120 135/135
f 136/136 130/130 122/122
f 130/130 136/136 133/133
f 135/135 137/137 122/122
f 137/137 136/136 122/122
f 136/136 138/138 133/133
f 137/137 138/138 136/136
f 133/133 138/138 139/139
f 133/133 139/139 134/134
f 140/140 129/129 127/127
f 131/131 140/140 127/127
f 135/135 129/129 141/141
f 141/141 137/137 135/135
f 138/138 137/137 142/142
f 139/139 138/138 142/142
f 140/140 143/143 129/129
f 141/141 129/129 143/143
f 144/144 137/137 141/141
f 142/142 137/137 144/144
f 145/145 141/141 143/143
f 145/145 144/144 141/141
f 146/146 143/143 140/140
f 146/146 145/145 143/143
f 147/147 140/140 131/131
f 147/147 146/146 140/140
f 145/145 148/148 144/144
f 148/148 145/145 146/146
f 149/149 147/147 131/131
f 131/131 132/132 149/149
f 132/132 150/150 149/149
f 150/150 147/147 149/149
f 132/132 151/151 150/150
f 150/150 151/151 152/152
f 151/151 153/153 152/152
f 154/154 147/147 150/150
f 152/152 154/154 150/150
f 155/155 146/146 147/147
f 154/154 155/155 147/147
f 152/152 153/153 156/156
f 156/156 154/154 152/152
f 156/156 153/153 157/157
f 157/157 153/153 158/158
f 159/159 154/154 156/156
f 157/157 159/159 156/156
f 157/157 158/158 160/160
f 158/158 161/161 160/160
f 155/155 162/162 146/146
f 162/162 148/148 146/146
f 163/163 155/155 154/154
f 159/159 163/163 154/154
f 164/164 162/162 155/155
f 155/155 163/163 164/164
f 148/148 162/162 165/165
f 164/164 165/165 162/162
f 166/166 159/159 157/157
f 157/157 160/160 166/166
f 148/148 165/165 167/167
f 144/144 148/148 167/167
f 167/167 168/168 144/144
f 144/144 168/168 142/142
f 168/168 169/169 142/142
f 169/169 139/139 142/142
f 170/170 168/168 167/167
f 170/170 169/169 168/168
f 171/171 139/139 169/169
f 139/139 171/171 134/134
f 171/171 169/169 172/172
f 170/170 172/172 169/169
f 173/173 172/172 170/170
f 167/167 174/174 170/170
f 165/165 174/174 167/167
f 174/174 173/173 170/170
f 175/175 134/134 171/171
f 171/171 172/172 175/175
f 176/176 134/134 175/175
f 177/177 174/174 165/165
f 174/174 177/177 173/173
f 178/178 175/175 172/172
f 178/178 172/172 173/173
f 179/179 176/176 175/175
f 178/178 179/179 175/175
f 180/180 176/176 179/179
f 178/178 181/181 179/179
f 173/173 181/181 178/178
f 182/182 181/181 173/173
f 183/183 180/180 179/179
f 181/181 183/183 179/179
f 183/183 184/184 180/180
f 180/180 184/184 185/185
f 186/186 183/183 181/181
f 186/186 184/184 183/183
f 181/181 182/182 186/186
f 184/184 187/187 185/185
f 187/187 184/184 186/186
f 185/185 187/187 188/188
f 173/173 189/189 182/182
f 177/177 189/189 173/173
f 177/177 190/190 189/189
f 190/190 182/182 189/189
f 190/190 177/177 191/191
f 191/191 177/177 165/165
f 164/164 191/191 165/165
f 190/190 191/191 192/192
f 192/192 191/191 164/164
f 182/182 190/190 192/192
f 182/182 193/193 186/186
f 193/193 187/187 186/186
f 193/193 182/182 194/194
f 193/193 194/194 187/187
f 192/192 194/194 182/182
f 188/188 187/187 195/195
f 194/194 195/195 187/187
f 196/196 188/188 195/195
f 197/197 192/192 164/164
f 197/197 164/164 163/163
f 196/196 195/195 198/198
f 198/198 199/199 196/196
f 200/200 192/192 197/197
f 200/200 194/194 192/192
f 201/201 197/197 163/163
f 197/197 201/201 200/200
f 201/201 163/163 159/159
f 202/202 201/201 159/159
f 200/200 201/201 202/202
f 166/166 202/202 159/159
f 202/202 203/203 200/200
f 200/200 203/203 194/194
f 204/204 202/202 166/166
f 202/202 204/204 203/203
f 194/194 205/205 195/195
f 195/195 205/205 198/198
f 198/198 206/206 199/199
f 199/199 206/206 207/207
f 206/206 208/208 207/207
f 209/209 207/207 208/208
f 210/210 209/209 208/208
f 210/210 211/211 209/209
f 198/198 212/212 206/206
f 206/206 212/212 208/208
f 204/204 166/166 213/213
f 166/166 160/160 213/213
f 205/205 214/214 198/198
f 214/214 212/212 198/198
f 214/214 215/215 212/212
f 208/208 212/212 216/216
f 208/208 216/216 210/210
f 205/205 217/217 214/214
f 217/217 215/215 214/214
f 216/216 212/212 218/218
f 212/212 215/215 218/218
f 219/219 217/217 205/205
f 219/219 205/205 194/194
f 217/217 219/219 194/194
f 194/194 203/203 217/217
f 215/215 217/217 203/203
f 220/220 216/216 218/218
f 216/216 220/220 210/210
f 221/221 215/215 203/203
f 204/204 221/221 203/203
f 215/215 222/222 218/218
f 222/222 220/220 218/218
f 221/221 223/223 215/215
f 222/222 215/215 223/223
f 224/224 221/221 204/204
f 221/221 224/224 223/223
f 204/204 225/225 224/224
f 225/225 204/204 213/213
f 226/226 220/220 222/222
f 227/227 210/210 220/220
f 226/226 227/227 220/220
f 228/228 226/226 222/222
f 222/222 223/223 228/228
f 229/229 227/227 226/226
f 229/229 226/226 228/228
f 230/230 210/210 227/227
f 227/227 229/229 230/230
f 231/231 230/230 229/229
f 228/228 232/232 229/229
f 229/229 232/232 231/231
f 228/228 223/223 233/233
f 232/232 228/228 233/233
f 223/223 224/224 234/234
f 233/233 223/223 234/234
f 230/230 235/235 210/210
f 235/235 211/211 210/210
f 236/236 235/235 230/230
f 236/236 211/211 235/235
f 236/236 230/230 231/231
f 237/237 211/211 236/236
f 231/231 237/237 236/236
f 238/238 232/232 233/233
f 233/233 234/234 238/238
f 239/239 234/234 224/224
f 238/238 234/234 239/239
f 239/239 224/224 225/225
f 231/231 240/240 237/237
f 237/237 240/240 241/241
f 241/241 240/240 242/242
f 232/232 243/243 231/231
f 243/243 232/232 238/238
f 231/231 244/244 240/240
f 231/231 243/243 244/244
f 240/240 245/245 242/242
f 244/244 245/245 240/240
f 243/243 246/246 244/244
f 244/244 246/246 245/245
f 247/247 243/243 238/238
f 246/246 243/243 247/247
f 248/248 238/238 239/239
f 247/247 238/238 248/248
f 249/249 239/239 225/225
f 248/248 239/239 249/249
f 245/245 250/250 242/242
f 251/251 242/242 250/250
f 225/225 252/252 249/249
f 213/213 252/252 225/225
f 213/213 253/253 252/252
f 160/160 253/253 213/213
f 160/160 161/161 253/253
f 253/253 161/161 254/254
f 253/253 254/254 252/252
f 254/254 161/161 255/255
f 254/254 256/256 252/252
f 255/255 256/256 254/254
f 252/252 257/257 249/249
f 252/252 256/256 257/257
f 257/257 258/258 249/249
f 257/257 256/256 258/258
f 249/249 258/258 248/248
f 256/256 255/255 259/259
f 256/256 259/259 258/258
f 259/259 255/255 260/260
f 259/259 260/260 261/261
f 258/258 262/262 248/248
f 258/258 259/259 262/262
f 261/261 263/263 259/259
f 259/259 263/263 262/262
f 263/263 261/261 264/264
f 263/263 264/264 262/262
f 261/261 265/265 264/264
f 264/264 265/265 266/266
f 248/248 262/262 267/267
f 262/262 264/264 267/267
f 267/267 247/247 248/248
f 267/267 264/264 268/268
f 266/266 268/268 264/264
f 247/247 267/267 269/269
f 269/269 267/267 268/268
f 265/265 270/270 266/266
f 265/265 271/271 270/270
f 270/270 271/271 272/272
f 272/272 271/271 273/273
f 274/274 272/272 273/273
f 274/274 273/273 275/275
f 272/272 274/274 276/276
f 272/272 276/276 277/277
f 277/277 276/276 278/278
f 277/277 278/278 279/279
f 280/280 277/277 279/279
f 280/280 281/281 277/277
f 270/270 272/272 282/282
f 266/266 270/270 282/282
f 282/282 272/272 277/277
f 277/277 281/281 283/283
f 284/284 283/283 281/281
f 285/285 282/282 277/277
f 285/285 266/266 282/282
f 285/285 277/277 283/283
f 285/285 286/286 266/266
f 286/286 285/285 283/283
f 284/284 287/287 283/283
f 251/251 287/287 284/284
f 287/287 288/288 283/283
f 288/288 287/287 251/251
f 283/283 288/288 286/286
f 288/288 251/251 250/250
f 288/288 250/250 289/289
f 288/288 289/289 286/286
f 250/250 245/245 289/289
f 266/266 286/286 290/290
f 286/286 289/289 290/290
f 268/268 266/266 290/290
f 290/290 269/269 268/268
f 245/245 291/291 289/289
f 289/289 291/291 290/290
f 269/269 290/290 291/291
f 291/291 245/245 246/246
f 292/292 269/269 291/291
f 291/291 246/246 292/292
f 292/292 247/247 269/269
f 292/292 246/246 247/247
f 295/295 294/294 293/293
f 296/296 293/293 294/294
f 297/297 293/293 296/296
f 298/298 293/293 297/297
f 299/299 298/298 297/297
f 300/300 298/298 299/299
f 301/301 300/300 299/299
f 302/302 301/301 299/299
f 303/303 301/301 302/302
f 303/303 304/304 301/301
f 304/304 303/303 305/305
f 303/303 306/306 305/305
f 306/306 307/307 305/305
f 308/308 307/307 306/306
f 309/309 307/307 308/308
f 310/310 309/309 308/308
f 311/311 309/309 310/310
f 312/312 311/311 310/310
f 312/312 313/313 311/311
f 314/314 313/313 312/312
f 313/313 314/314 315/315
f 314/314 316/316 315/315
f 315/315 316/316 317/317
f 316/316 318/318 317/317
f 317/317 318/318 319/319
f 318/318 320/320 319/319
f 319/319 320/320 321/321
f 321/321 320/320 322/322
f 322/322 323/323 321/321
f 324/324 323/323 322/322
f 325/325 323/323 324/324
f 326/326 325/325 324/324
f 327/327 326/326 324/324
f 328/328 326/326 327/327
f 328/328 329/329 326/326
f 328/328 330/330 329/329
f 329/329 330/330 331/331
f 332/332 331/331 330/330
f 333/333 332/332 330/330
f 334/334 332/332 333/333
f 332/332 334/334 335/335
f 335/335 334/334 336/336
f 334/334 337/337 336/336
f 338/338 336/336 337/337
f 339/339 336/336 338/338
f 340/340 339/339 338/338
f 341/341 340/340 338/338
f 342/342 340/340 341/341
f 341/341 343/343 342/342
f 346/346 345/345 344/344
f 347/347 345/345 346/346
f 350/350 349/349 348/348
f 351/351 348/348 349/349
f 348/348 351/351 352/352
f 351/351 353/353 352/352
f 353/353 354/354 352/352
f 352/352 354/354 355/355
f 354/354 356/356 355/355
f 357/357 355/355 356/356
f 358/358 355/355 357/357
f 358/358 357/357 359/359
f 358/358 359/359 360/360
f 361/361 360/360 359/359
f 362/362 360/360 361/361
f 361/361 363/363 362/362
f 363/363 364/364 362/362
f 365/365 364/364 363/363
f 366/366 364/364 365/365
f 367/367 366/366 365/365
f 368/368 366/366 367/367
f 368/368 367/367 369/369
f 367/367 370/370 369/369
f 369/369 370/370 371/371
f 372/372 369/369 371/371
f 372/372 371/371 373/373
f 374/374 372/372 373/373
f 375/375 374/374 373/373
f 374/374 375/375 376/376
f 377/377 374/374 376/376
f 376/376 378/378 377/377
f 377/377 378/378 379/379
f 378/378 380/380 379/379
f 379/379 380/380 381/381
f 382/382 381/381 380/380
f 383/383 381/381 382/382
f 384/384 383/383 382/382
f 385/385 383/383 384/384
f 384/384 386/386 385/385
f 386/386 387/387 385/385
f 388/388 387/387 386/386
f 389/389 388/388 386/386
f 390/390 388/388 389/389
f 391/391 388/388 390/390
f 392/392 391/391 390/390
f 392/392 393/393 391/391
f 391/391 393/393 394/394
f 393/393 395/395 394/394
f 395/395 396/396 394/394
f 399/399 398/398 397/397
f 400/400 398/398 399/399
f 403/403 402/402 401/401
f 404/404 402/402 403/403
f 407/407 406/406 405/405
f 408/408 406/406 407/407
f 411/411 410/410 409/409
f 412/412 410/410 411/411
f 413/413 410/410 412/412
f 414/414 413/413 412/412
f 415/415 413/413 414/414
f 416/416 415/415 414/414
f 417/417 415/415 416/416
f 418/418 417/417 416/416
f 419/419 417/417 418/418
f 420/420 419/419 418/418
f 421/421 419/419 420/420
f 422/422 421/421 420/420
f 423/423 421/421 422/422
f 424/424 423/423 422/422
f 425/425 423/423 424/424
f 426/426 425/425 424/424
f 427/427 425/425 426/426
f 428/428 427/427 426/426
f 429/429 427/427 428/428
f 430/430 429/429 428/428
f 431/431 429/429 430/430
f 432/432 431/431 430/430
f 433/433 431/431 432/432
f 434/434 433/433 432/432
f 435/435 433/433 434/434
f 436/436 435/435 434/434
f 437/437 435/435 436/436
f 440/440 439/439 438/438
f 438/438 441/441 440/440
f 441/441 442/442 440/440
f 443/443 441/441 438/438
f 444/444 440/440 442/442
f 445/445 443/443 438/438
f 440/440 444/444 446/446
f 444/444 447/447 446/446
f 447/447 448/448 446/446
f 449/449 443/443 445/445
f 450/450 449/449 445/445
f 451/451 449/449 450/450
f 452/452 451/451 450/450
f 453/453 451/451 452/452
f 452/452 454/454 453/453
f 453/453 454/454 455/455
f 458/458 457/457 456/456
f 456/456 459/459 458/458
f 458/458 459/459 460/460
f 460/460 459/459 461/461
f 461/461 459/459 462/462
f 463/463 461/461 462/462
f 462/462 464/464 463/463
f 465/465 458/458 460/460
f 463/463 464/464 466/466
f 467/467 458/458 465/465
f 467/467 468/468 458/458
f 468/468 469/469 458/458
f 464/464 470/470 466/466
f 466/466 470/470 471/471
f 471/471 472/472 466/466
f 466/466 472/472 473/473
f 472/472 474/474 473/473
f 474/474 475/475 473/473
f 458/458 469/469 476/476
f 469/469 477/477 476/476
f 477/477 478/478 476/476
f 476/476 478/478 479/479
f 478/478 480/480 479/479
f 480/480 481/481 479/479
f 479/479 481/481 482/482
f 482/482 481/481 483/483
f 481/481 484/484 483/483
f 485/485 484/484 481/481
f 486/486 485/485 481/481
f 487/487 485/485 486/486
f 488/488 487/487 486/486
f 491/491 490/490 489/489
f 492/492 489/489 490/490
f 495/495 494/494 493/493
f 493/493 496/496 495/495
f 496/496 493/493 497/497
f 493/493 498/498 497/497
f 497/497 498/498 499/499
f 498/498 500/500 499/499
f 500/500 501/501 499/499
f 502/502 497/497 499/499
f 503/503 497/497 502/502
f 499/499 501/501 504/504
f 501/501 505/505 504/504
f 504/504 505/505 506/506
f 505/505 507/507 506/506
f 506/506 507/507 508/508
f 507/507 509/509 508/508
f 508/508 509/509 510/510
f 509/509 511/511 510/510
f 514/514 513/513 512/512
f 512/512 513/513 515/515
f 513/513 516/516 515/515
f 515/515 516/516 517/517
f 516/516 518/518 517/517
f 517/517 518/518 519/519
f 518/518 520/520 519/519
f 519/519 520/520 521/521
f 520/520 522/522 521/521
f 521/521 522/522 523/523
f 522/522 524/524 523/523
f 523/523 524/524 525/525
f 524/524 526/526 525/525
f 526/526 527/527 525/525
f 525/525 527/527 528/528
f 527/527 529/529 528/528
f 528/528 529/529 530/530
f 529/529 531/531 530/530
f 530/530 531/531 532/532
f 531/531 533/533 532/532
f 532/532 533/533 534/534
f 533/533 535/535 534/534
f 534/534 535/535 536/536
f 536/536 535/535 537/537
f 540/540 539/539 538/538
f 541/541 539/539 540/540
f 542/542 541/541 540/540
f 545/545 544/544 543/543
f 546/546 545/545 543/543
f 547/547 545/545 546/546
f 548/548 547/547 546/546
f 549/549 547/547 548/548
f 550/550 549/549 548/548
f 551/551 549/549 550/550
f 552/552 551/551 550/550
f 553/553 551/551 552/552
f 554/554 553/553 552/552
f 555/555 553/553 554/554
f 556/556 555/555 554/554
f 557/557 555/555 556/556
f 558/558 557/557 556/556
f 559/559 557/557 558/558
f 560/560 559/559 558/558
f 561/561 559/559 560/560
f 562/562 561/561 560/560
f 563/563 561/561 562/562
f 564/564 563/563 562/562
f 565/565 563/563 564/564
f 566/566 565/565 564/564
f 569/569 568/568 567/567
f 570/570 568/568 569/569
f 571/571 570/570 569/569
f 574/574 573/573 572/572
f 575/575 573/573 574/574
f 576/576 573/573 575/575
f 576/576 577/577 573/573
f 577/577 578/578 573/573
f 573/573 578/578 579/579
f 578/578 580/580 579/579
f 578/578 581/581 580/580
f 582/582 581/581 578/578
f 583/583 582/582 578/578
f 586/586 585/585 584/584
f 585/585 587/587 584/584
f 584/584 587/587 588/588
f 588/588 589/589 584/584
f 592/592 591/591 590/590
f 593/593 591/591 592/592
f 596/596 595/595 594/594
f 594/594 595/595 597/597
f 595/595 598/598 597/597
f 599/599 597/597 598/598
f 600/600 594/594 597/597
f 597/597 599/599 600/600
f 601/601 594/594 600/600
f 601/601 600/600 602/602
f 603/603 600/600 599/599
f 600/600 604/604 602/602
f 604/604 600/600 603/603
f 605/605 604/604 603/603
f 605/605 603/603 606/606
f 607/607 604/604 605/605
f 606/606 607/607 605/605
f 608/608 607/607 606/606
f 607/607 608/608 609/609
f 608/608 606/606 610/610
f 608/608 610/610 609/609
f 606/606 611/611 610/610
f 609/609 610/610 612/612
f 611/611 613/613 610/610
f 610/610 614/614 612/612
f 610/610 613/613 614/614
f 612/612 614/614 615/615
f 615/615 614/614 616/616
f 614/614 613/613 617/617
f 614/614 617/617 616/616
f 617/617 613/613 618/618
f 619/619 616/616 617/617
f 617/617 618/618 620/620
f 619/619 617/617 620/620
f 620/620 618/618 621/621
f 619/619 620/620 622/622
f 620/620 621/621 622/622
f 623/623 622/622 621/621
f 624/624 622/622 623/623
f 625/625 624/624 623/623
f 626/626 622/622 624/624
f 627/627 624/624 625/625
f 627/627 626/626 624/624
f 628/628 626/626 627/627
f 629/629 628/628 627/627
f 630/630 627/627 625/625
f 631/631 629/629 627/627
f 631/631 627/627 630/630
f 632/632 629/629 631/631
f 633/633 631/631 630/630
f 633/633 632/632 631/631
f 634/634 633/633 630/630
f 635/635 632/632 633/633
f 636/636 632/632 635/635
f 637/637 633/633 634/634
f 637/637 635/635 633/633
f 637/637 636/636 635/635
f 634/634 638/638 637/637
f 639/639 636/636 637/637
f 639/639 637/637 638/638
f 638/638 640/640 639/639
f 639/639 640/640 641/641
f 642/642 640/640 638/638
f 641/641 640/640 643/643
f 644/644 640/640 642/642
f 643/643 640/640 645/645
f 640/640 644/644 646/646
f 640/640 646/646 645/645
f 644/644 647/647 646/646
f 646/646 648/648 645/645
f 651/651 650/650 649/649
f 652/652 651/651 649/649
f 653/653 651/651 652/652
f 654/654 651/651 653/653
f 653/653 652/652 655/655
f 653/653 655/655 656/656
f 655/655 657/657 656/656
f 656/656 657/657 658/658
f 659/659 657/657 655/655
f 657/657 659/659 658/658
f 660/660 658/658 659/659
f 661/661 660/660 659/659
f 662/662 660/660 661/661
f 663/663 662/662 661/661
f 664/664 662/662 663/663
f 665/665 664/664 663/663
f 663/663 666/666 665/665
f 665/665 666/666 667/667
f 667/667 666/666 668/668
f 666/666 669/669 668/668
f 668/668 669/669 670/670
f 669/669 671/671 670/670
f 670/670 671/671 672/672
f 672/672 671/671 673/673
f 674/674 672/672 673/673
f 675/675 672/672 674/674
f 676/676 675/675 674/674
f 677/677 676/676 674/674
f 677/677 678/678 676/676
f 677/677 679/679 678/678
f 680/680 679/679 677/677
f 681/681 679/679 680/680
f 680/680 682/682 681/681
f 683/683 682/682 680/680
f 684/684 682/682 683/683
f 685/685 684/684 683/683
f 686/686 684/684 685/685
f 687/687 685/685 683/683
f 685/685 687/687 686/686
f 686/686 687/687 688/688
f 687/687 689/689 688/688
f 689/689 690/690 688/688
f 688/688 690/690 691/691
f 689/689 692/692 690/690
f 689/689 693/693 692/692
f 696/696 695/695 694/694
f 694/694 695/695 697/697
f 696/696 694/694 698/698
f 699/699 694/694 697/697
f 700/700 698/698 694/694
f 699/699 701/701 694/694
f 700/700 694/694 702/702
f 703/703 694/694 701/701
f 702/702 694/694 704/704
f 703/703 705/705 694/694
f 706/706 704/704 694/694
f 705/705 707/707 694/694
f 706/706 694/694 708/708
f 707/707 709/709 694/694
f 710/710 708/708 694/694
f 709/709 711/711 694/694
f 710/710 694/694 712/712
f 713/713 694/694 711/711
f 712/712 694/694 714/714
f 713/713 715/715 694/694
f 716/716 714/714 694/694
f 715/715 717/717 694/694
f 716/716 694/694 718/718
f 719/719 694/694 717/717
f 720/720 718/718 694/694
f 721/721 694/694 719/719
f 694/694 722/722 720/720
f 721/721 723/723 694/694
f 724/724 722/722 694/694
f 725/725 694/694 723/723
f 726/726 724/724 694/694
f 725/725 726/726 694/694
