v 0.0355012357 -0.0229999683 -0.0115785457
v 0.0335012317 -0.0189724233 -0.0174100234
v 0.033501235 -0.0229999685 -0.0115785231
v 0.0355012324 -0.018972394 -0.0174100453
v 0.0335012342 -0.0135076901 -0.0219227033
v 0.0355012348 -0.0135076754 -0.021922696
v 0.0335012307 -0.00701972529 -0.0247746997
v 0.0355012314 -0.00701971056 -0.0247746939
v 0.0335012359 2.92877126e-09 -0.025750004
v 0.0355012337 3.10361663e-09 -0.0257499982
v 0.0335012353 0.0070197166 -0.0247747026
v 0.0355012359 0.00701973132 -0.0247746939
v 0.0335012434 0.0135076815 -0.0219227091
v 0.0355012441 0.0135076962 -0.0219227019
v 0.0335012459 0.0189724437 -0.0174100438
v 0.0355012436 0.0189724293 -0.0174100351
v 0.0335012397 0.0230000049 -0.0115785246
v 0.0355012375 0.0230000051 -0.0115785479
v 0.0335012426 0.0230000049 0.0115785195
v 0.0335012459 0.0189724437 0.0174100176
v 0.0335012397 0.0230000049 -0.0115785246
v 0.0335012459 0.0189724437 -0.0174100438
v 0.0335012434 0.0135076815 -0.0219227091
v 0.0335012353 0.0070197166 -0.0247747026
v 0.0335012359 2.92877126e-09 -0.025750004
v 0.0335012307 -0.00701972529 -0.0247746997
v 0.0335012342 -0.0135076901 -0.0219227033
v 0.0335012317 -0.0189724233 -0.0174100234
v 0.033501235 -0.0229999685 -0.0115785231
v 0.0335012292 -0.0229999685 0.0115785217
v 0.0335012317 -0.0189724233 0.017410038
v 0.0335012342 -0.0135076901 0.0219227033
v 0.0335012365 -0.00701971074 0.0247746939
v 0.0335012405 0.0135076815 0.021922696
v 0.0335012417 2.92877176e-09 0.0257499982
v 0.033501244 0.0070197166 0.0247746939
v 0.0355012433 0.0230000051 0.0115785268
v 0.0335012459 0.0189724437 0.0174100176
v 0.0335012426 0.0230000049 0.0115785195
v 0.0355012436 0.0189724293 0.0174100234
v 0.0335012405 0.0135076815 0.021922696
v 0.0355012383 0.0135076962 0.0219227033
v 0.033501244 0.0070197166 0.0247746939
v 0.0355012447 0.00701973132 0.0247746997
v 0.0335012417 2.92877176e-09 0.0257499982
v 0.0355012395 1.8004778e-08 0.0257499749
v 0.0335012365 -0.00701971074 0.0247746939
v 0.0355012372 -0.00701971056 0.0247747026
v 0.0335012342 -0.0135076901 0.0219227033
v 0.0355012348 -0.0135076754 0.0219226786
v 0.0335012317 -0.0189724233 0.017410038
v 0.0355012324 -0.0189724231 0.0174100132
v 0.0335012292 -0.0229999685 0.0115785217
v 0.0355012269 -0.0229999683 0.0115785282
v 0.0354963802 -0.0456503299 -0.0783295603
v 0.0355012254 -0.0387532373 -0.0784030766
v 0.0355012283 -0.0387532373 -0.0731030887
v 0.0355014386 -0.0468600656 -0.0542898662
v 0.0355013588 -0.0336753377 -0.0628054375
v 0.0355012279 -0.0337286268 -0.073096744
v 0.0355012348 -0.0135076754 -0.021922696
v 0.0355012324 -0.018972394 -0.0174100453
v 0.0355012314 -0.00701971056 -0.0247746939
v 0.0355011504 -0.0469360615 -0.0219889655
v 0.0355012337 3.10361663e-09 -0.0257499982
v 0.0355012357 -0.0229999683 -0.0115785457
v 0.0355025851 -0.0456437729 -0.00504969612
v 0.0354988789 0.0362177963 -0.0628036098
v 0.0355012269 -0.0229999683 0.0115785282
v 0.0355028846 -0.0421881325 0.0107863794
v 0.0354995839 -0.0383563891 0.0209872946
v 0.0355012359 0.00701973132 -0.0247746939
v 0.0355012324 -0.0189724231 0.0174100132
v 0.0355013471 -0.0329275381 0.0297239516
v 0.0354982209 -0.0280828737 0.0349838461
v 0.0355012348 -0.0135076754 0.0219226786
v 0.0355011859 -0.0195749073 0.0405647414
v 0.0354974861 -0.011837822 0.0431122142
v 0.0355012372 -0.00701971056 0.0247747026
v 0.0355076598 -0.000346359468 0.0444443547
v 0.0355012395 1.8004778e-08 0.0257499749
v 0.0354791515 0.0121219187 0.0431199296
v 0.0355012447 0.00701973132 0.0247746997
v 0.0355012383 0.0135076962 0.0219227033
v 0.0354922155 0.0199349701 0.0404775958
v 0.0355003146 0.0262624353 0.0366963708
v 0.0355012436 0.0189724293 0.0174100234
v 0.0355038095 0.0312162507 0.0321214669
v 0.035505081 0.0356515231 0.0264099188
v 0.0355012433 0.0230000051 0.0115785268
v 0.0354901212 0.0405744622 0.0149657062
v 0.0355012375 0.0230000051 -0.0115785479
v 0.0355000423 0.0451667615 -0.0028511442
v 0.0355018698 0.0472593763 -0.0213341278
v 0.0355012436 0.0189724293 -0.0174100351
v 0.0355013605 0.04722451 -0.053931959
v 0.0355012441 0.0135076962 -0.0219227019
v 0.0355010093 0.0362119407 -0.0730887405
v 0.0355012533 0.0412467898 -0.0731035019
v 0.0355012533 0.0412467578 -0.0784035015
v 0.0355012529 0.0460506099 -0.078138255
v 0.0220905761 0.0453500911 -0.108814787
v 0.0220366743 0.0453664358 -0.123394642
v 0.0307852508 0.0452079633 -0.123401615
v 0.0335031586 0.04518278 -0.114217459
v 0.0400125796 0.0439227244 -0.123441021
v 0.0365191012 0.0457106103 -0.104636373
v 0.0244175886 0.0474602733 -0.0803829054
v 0.0258630303 0.0482594675 -0.0665068917
v 0.0380097351 0.0485287925 -0.064233836
v 0.0300438421 0.0486283473 -0.0605546811
v 0.0322529247 0.048879985 -0.0541865535
v 0.0341816413 0.0491606742 -0.0402315374
v 0.0455349149 0.0453207682 -0.103680301
v 0.0555970262 0.0421294322 -0.12345165
v 0.0560066508 0.0438300709 -0.104140828
v 0.0499284087 0.0466298035 -0.0810335099
v 0.0623557273 0.0415880579 -0.107699807
v 0.0649659453 0.0386636907 -0.123460451
v 0.0583017089 0.0457388051 -0.0686534506
v 0.0506227911 0.0476645117 -0.0589130097
v 0.0542731681 0.0474019227 -0.0370383292
v 0.0447042506 0.0487802939 -0.0346038403
v 0.043223503 0.048551459 -0.0177562382
v 0.0348790913 0.0488584484 -0.0199303337
v 0.0349888158 0.0476834046 -0.00449580511
v 0.0679037791 0.0389502851 -0.104935875
v 0.070047166 0.0346278164 -0.123465597
v 0.0636735485 0.0437919834 -0.0698472199
v 0.0496114795 0.0478028829 -0.0136472736
v 0.0717089946 0.0353053857 -0.106606551
v 0.0738058563 0.0287911948 -0.123471417
v 0.0538565411 0.0461855718 -0.00541212939
v 0.0349468194 0.0430979447 0.0151974818
v 0.060368238 0.0457713782 -0.0379409263
v 0.0540370721 0.0470093964 -0.0124334591
v 0.0598794683 0.0454864401 -0.0164387093
v 0.0591121575 0.044790451 -0.00393136615
v 0.0598950797 0.0436776166 0.000568178893
v 0.0690145907 0.0398272476 -0.0831733865
v 0.0648715495 0.04362475 -0.0376917276
v 0.0622327518 0.0429555828 -0.00138416899
v 0.0672496295 0.0420175406 -0.0621362007
v 0.0655651288 0.0425911449 -0.0226653676
v 0.0680436984 0.0414279 -0.0412063848
v 0.0714587131 0.0382609117 -0.0620221836
v 0.074004961 0.0343580737 -0.0836190942
v 0.0711613127 0.0381197231 -0.0396914518
v 0.0742475591 0.0312408555 -0.108637393
v 0.076349316 0.0260894952 -0.109008222
v 0.0763586181 0.019431329 -0.123473466
v 0.0776251585 0.0208709151 -0.109330018
v 0.077446951 0.00822564129 -0.123478728
v 0.0778231864 0.0250996566 -0.0838209526
v 0.074735019 0.0334432618 -0.0626717811
v 0.07888351 0.0121090179 -0.107666792
v 0.079001754 0.000654287072 -0.111019553
v 0.0774161956 -0.00825779913 -0.123478263
v 0.0796937896 0.0129379547 -0.083346304
v 0.0788845365 -0.0114361868 -0.107839459
v 0.0757647756 -0.0225669071 -0.123473816
v 0.07442192 0.0330188784 -0.043081597
v 0.077870486 0.0248263542 -0.0625429908
v 0.0761847919 0.02766802 -0.0395413139
v 0.0727372331 0.0339989119 -0.025724998
v 0.0801741145 0.000154174421 -0.0840795459
v 0.0695308171 0.0387178998 -0.0222918126
v 0.0659170001 0.0403352867 -0.00348346803
v 0.0641258806 0.0404087795 0.0044621931
v 0.0679691581 0.0372092328 0.0011137322
v 0.0625596521 0.0408543678 0.00618146078
v 0.0658461093 0.0372378271 0.00992416317
v 0.0690936722 0.0328663186 0.00830923309
v 0.0704601086 0.0344426375 -0.00468814033
v 0.0645477816 0.0376642098 0.011628271
v 0.0349470964 0.0367477567 0.0282851252
v 0.0724146757 0.0301007681 -0.00566300259
v 0.0666600331 0.034248372 0.0148842126
v 0.0646466766 0.034957638 0.0161889111
v 0.0349468933 0.0302912465 0.0359642581
v 0.0670322365 0.0308732735 0.0193369633
v 0.0698746392 0.0258826363 0.0151369779
v 0.0649417665 0.0309388094 0.0211615145
v 0.065573198 0.0244842958 0.0262109359
v 0.0349471762 0.0231949265 0.0411479152
v 0.0677031616 0.0263995725 0.0229419238
v 0.0675293251 0.0193139219 0.027742135
v 0.0349470779 0.0158547047 0.044322692
v 0.0707159375 0.0298763134 0.00549762808
v 0.0724802584 0.0279741629 -0.00259814333
v 0.0741859467 0.0273995021 -0.0150843785
v 0.0757512443 0.0210381805 -0.0191848871
v 0.0686408004 0.0195094997 0.0256582251
v 0.0690353094 0.0104590416 0.0282838912
v 0.0674214204 0.0117557102 0.0302171335
v 0.0349472126 0.00657098295 0.0461881078
v 0.0775961943 0.0217891541 -0.0415924704
v 0.0667214973 0.00256474888 0.0318420934
v 0.0349472396 -0.00279079071 0.0464535668
v 0.077564734 0.0114938086 -0.0269700657
v 0.0793394041 0.0111278958 -0.0523059105
v 0.0797484943 0.000774792866 -0.0540382462
v 0.0780086326 -0.00170507347 -0.0280607201
v 0.0794338595 -0.00949031925 -0.0527855067
v 0.0684237626 0.00626515409 0.0301596621
v 0.0664820378 -0.00849145073 0.0313252152
v 0.0349471822 -0.0124633427 0.045152969
v 0.0662298481 -0.0171863081 0.029283794
v 0.0349469908 -0.020667698 0.0422665064
v 0.0670536325 -0.023190194 0.0258881104
v 0.0349470381 -0.0291420495 0.0367725006
v 0.0684110978 -0.00724106414 0.0300787593
v 0.0796393794 -0.0131737968 -0.0836753519
v 0.0683546415 0.000139123218 0.0306387577
v 0.0691687927 -0.00703641176 0.0283845788
v 0.0680318233 -0.016449415 0.0281914778
v 0.0691814581 0.00032082803 0.0289506657
v 0.0687859033 -0.0135280874 0.0277356216
v 0.0691356191 0.00485371661 0.0288459996
v 0.0686357979 -0.0198363892 0.0251945428
v 0.0775788281 -0.0118773807 -0.0276016624
v 0.0698894163 -0.0200989188 0.0191873798
v 0.0755277132 -0.0219455592 -0.0185917088
v 0.0775934623 -0.0215470723 -0.0416984694
v 0.078394749 -0.0215729703 -0.0632497366
v 0.0694544193 -0.0255098884 0.0169620253
v 0.0679686223 -0.0262826331 0.021975374
v 0.0714216465 -0.0288634237 0.00282114815
v 0.0677494651 -0.0314890377 0.0161248492
v 0.0667806798 -0.0291515811 0.0214237531
v 0.0655439073 -0.0350742573 0.0154876368
v 0.0696452422 -0.0337984789 0.00223716615
v 0.0724732727 -0.0292688836 -0.0049317463
v 0.0749489666 -0.0280713364 -0.0271069322
v 0.0655779464 -0.0267851284 0.0244031413
v 0.0651363194 -0.0314442151 0.0204867436
v 0.0349468379 -0.0356505769 0.0292367709
v 0.0739093608 -0.0329872005 -0.0358223566
v 0.0759045211 -0.0290396441 -0.0435531401
v 0.0680112312 -0.0368377193 0.00106159596
v 0.0626637285 -0.0390302772 0.0105935811
v 0.0349466258 -0.0397374299 0.0222620423
v 0.0349506163 -0.0436922563 0.0120644501
v 0.0643499753 -0.0384828078 0.00970155161
v 0.0594054795 -0.0438423979 -0.000540675637
v 0.064069304 -0.0413850185 -0.00123074251
v 0.0708947341 -0.0379600151 -0.0357883051
v 0.0731111768 -0.03582304 -0.0619055063
v 0.0761208325 -0.0301144048 -0.0619422295
v 0.0560304597 -0.0450368165 -0.00252975588
v 0.0349776657 -0.0468059441 -0.0015025973
v 0.0777124333 -0.0250815084 -0.0840472931
v 0.0776668039 -0.0204417336 -0.108966941
v 0.0763893965 -0.0256712656 -0.108817557
v 0.0726269469 -0.0307057426 -0.123470393
v 0.0741678259 -0.0313217279 -0.107194495
v 0.0751729675 -0.0317489721 -0.0832156569
v 0.0729682886 -0.0354055688 -0.0829542929
v 0.0710592578 -0.035605067 -0.107270398
v 0.0693387674 -0.0349622596 -0.123464596
v 0.0655926506 -0.0379448466 -0.123460055
v 0.0689696264 -0.0395819776 -0.082227838
v 0.0674279266 -0.0386548577 -0.107359153
v 0.0630618285 -0.042206966 -0.0942731684
v 0.057715315 -0.0412704896 -0.123448169
v 0.0578813411 -0.0455233101 -0.0684878149
v 0.0693530403 -0.0400673392 -0.0619051862
v 0.0647135524 -0.0432328817 -0.0620887731
v 0.0657766571 -0.0427828055 -0.0382062572
v 0.0491853843 -0.0448484658 -0.101609551
v 0.0493953857 -0.0427957435 -0.123453629
v 0.0337148066 -0.0449224666 -0.111458148
v 0.0265812541 -0.0451365375 -0.123390823
v 0.0205519314 -0.0448938878 -0.110396673
v 0.0195571144 -0.0446771662 -0.123398507
v 0.0244183711 -0.0471153537 -0.0803824398
v 0.0378034149 -0.0482487925 -0.0628418522
v 0.02567795 -0.0478611247 -0.0673472183
v 0.0294283104 -0.0482341918 -0.0617434853
v 0.0324619482 -0.048569229 -0.0534095278
v 0.0342512837 -0.0488243967 -0.0383937324
v 0.0498128688 -0.0463640943 -0.0801947608
v 0.0443879819 -0.048452641 -0.0343067222
v 0.0348966757 -0.0485741154 -0.0198667578
v 0.0503232977 -0.0473755833 -0.0584144553
v 0.0542215346 -0.0470902578 -0.0370268303
v 0.0437967056 -0.0481288085 -0.0170696396
v 0.050484335 -0.0473486419 -0.0132218571
v 0.0560694647 -0.0461476078 -0.0112624017
v 0.0609206483 -0.045225048 -0.039819497
v 0.0616822139 -0.0443459987 -0.0168936676
v 0.0664461033 -0.0418176875 -0.0266821298
v 0.0299420894 0.0469130141 -0.061051856
v 0.0257817464 0.0465413054 -0.0668160385
v 0.0258630303 0.0482594675 -0.0665068917
v 0.0300438421 0.0486283473 -0.0605546811
v 0.0322529247 0.048879985 -0.0541865535
v 0.0327069999 0.047238366 -0.0519577123
v 0.0341816413 0.0491606742 -0.0402315374
v 0.0341520079 0.0474333647 -0.0401343161
v 0.0348834338 0.0471929468 -0.0201504037
v 0.0348790913 0.0488584484 -0.0199303337
v 0.0349888158 0.0476834046 -0.00449580511
v 0.0349728292 0.046408878 -0.00876197737
v 0.0349596803 0.043269116 0.00901765816
v 0.0349468194 0.0430979447 0.0151974818
v 0.0349458565 0.0378112514 0.0228734294
v 0.0349470964 0.0367477567 0.0282851252
v 0.0349479466 0.0330668264 0.0302548171
v 0.0349468933 0.0302912465 0.0359642581
v 0.0349478975 0.0287827426 0.0348389527
v 0.0349471762 0.0231949265 0.0411479152
v 0.0349508056 0.0211740467 0.0402460224
v 0.0349470779 0.0158547047 0.044322692
v 0.0349497819 0.012389201 0.043322047
v 0.0349472126 0.00657098295 0.0461881078
v 0.0349580336 0.00338265614 0.0445732934
v 0.0349472396 -0.00279079071 0.0464535668
v 0.0349550048 -0.00595725745 0.0443002558
v 0.0349471822 -0.0124633427 0.045152969
v 0.0349810008 -0.0123180564 0.0431670953
v 0.0349469908 -0.020667698 0.0422665064
v 0.0349541473 -0.0192300342 0.0409144792
v 0.0349470381 -0.0291420495 0.0367725006
v 0.0349471135 -0.0252148775 0.0374638941
v 0.0349504522 -0.0314075004 0.0320232357
v 0.0349468379 -0.0356505769 0.0292367709
v 0.0349466258 -0.0397374299 0.0222620423
v 0.0349462502 -0.0374430673 0.0229224519
v 0.0349506163 -0.0436922563 0.0120644501
v 0.0349514659 -0.0417723319 0.0124404833
v 0.0349925522 -0.0457362794 -0.00498951958
v 0.0349776657 -0.0468059441 -0.0015025973
v 0.0348966757 -0.0485741154 -0.0198667578
v 0.0348572573 -0.0468731769 -0.0211016508
v 0.0342130557 -0.0471075443 -0.0394578819
v 0.0342512837 -0.0488243967 -0.0383937324
v 0.0324619482 -0.048569229 -0.0534095278
v 0.0326045277 -0.0468830142 -0.0524566625
v 0.0303151039 -0.0466130036 -0.0600653468
v 0.0294283104 -0.0482341918 -0.0617434853
v 0.0258861179 -0.0462160365 -0.0664027466
v 0.02567795 -0.0478611247 -0.0673472183
v 0.0257817464 0.0465413054 -0.0668160385
v 0.024418395 0.0453227628 -0.0803839997
v 0.0258630303 0.0482594675 -0.0665068917
v 0.0244175886 0.0474602733 -0.0803829054
v 0.0355012529 0.0460506099 -0.078138255
v 0.024418395 0.0453227628 -0.0803839997
v 0.0257817464 0.0465413054 -0.0668160385
v 0.0299420894 0.0469130141 -0.061051856
v 0.0355013605 0.04722451 -0.053931959
v 0.0327069999 0.047238366 -0.0519577123
v 0.0341520079 0.0474333647 -0.0401343161
v 0.0355018698 0.0472593763 -0.0213341278
v 0.0348834338 0.0471929468 -0.0201504037
v 0.0349728292 0.046408878 -0.00876197737
v 0.0355000423 0.0451667615 -0.0028511442
v 0.0349596803 0.043269116 0.00901765816
v 0.0354901212 0.0405744622 0.0149657062
v 0.0349458565 0.0378112514 0.0228734294
v 0.035505081 0.0356515231 0.0264099188
v 0.0349479466 0.0330668264 0.0302548171
v 0.0355038095 0.0312162507 0.0321214669
v 0.0349478975 0.0287827426 0.0348389527
v 0.0355003146 0.0262624353 0.0366963708
v 0.0349508056 0.0211740467 0.0402460224
v 0.0354922155 0.0199349701 0.0404775958
v 0.0354791515 0.0121219187 0.0431199296
v 0.0349497819 0.012389201 0.043322047
v 0.0349580336 0.00338265614 0.0445732934
v 0.0355076598 -0.000346359468 0.0444443547
v 0.0349550048 -0.00595725745 0.0443002558
v 0.0354974861 -0.011837822 0.0431122142
v 0.0349810008 -0.0123180564 0.0431670953
v 0.0349541473 -0.0192300342 0.0409144792
v 0.0355011859 -0.0195749073 0.0405647414
v 0.0349471135 -0.0252148775 0.0374638941
v 0.0354982209 -0.0280828737 0.0349838461
v 0.0349504522 -0.0314075004 0.0320232357
v 0.0355013471 -0.0329275381 0.0297239516
v 0.0349462502 -0.0374430673 0.0229224519
v 0.0354995839 -0.0383563891 0.0209872946
v 0.0349514659 -0.0417723319 0.0124404833
v 0.0355028846 -0.0421881325 0.0107863794
v 0.0349925522 -0.0457362794 -0.00498951958
v 0.0355025851 -0.0456437729 -0.00504969612
v 0.0355011504 -0.0469360615 -0.0219889655
v 0.0348572573 -0.0468731769 -0.0211016508
v 0.0342130557 -0.0471075443 -0.0394578819
v 0.0355014386 -0.0468600656 -0.0542898662
v 0.0326045277 -0.0468830142 -0.0524566625
v 0.0303151039 -0.0466130036 -0.0600653468
v 0.0354963802 -0.0456503299 -0.0783295603
v 0.0258861179 -0.0462160365 -0.0664027466
v 0.0244183942 -0.0454117319 -0.0803618808
v 0.02567795 -0.0478611247 -0.0673472183
v 0.0244183711 -0.0471153537 -0.0803824398
v 0.0258861179 -0.0462160365 -0.0664027466
v 0.0244183942 -0.0454117319 -0.0803618808
v 0.033501235 -0.0229999685 -0.0115785231
v 0.0335012292 -0.0229999685 0.0115785217
v 0.0355012357 -0.0229999683 -0.0115785457
v 0.0355012269 -0.0229999683 0.0115785282
v 0.0335012426 0.0230000049 0.0115785195
v 0.0335012397 0.0230000049 -0.0115785246
v 0.0355012433 0.0230000051 0.0115785268
v 0.0355012375 0.0230000051 -0.0115785479
v 0.0355012254 -0.0387532373 -0.0784030766
v 0.0244183559 -0.0398147975 -0.0803861767
v 0.0194667465 -0.0385637553 -0.0784675998
v 0.0150463039 -0.0385659617 -0.0804871961
v 0.00760290654 -0.0347922142 -0.0784022734
v 0.00502824379 -0.0344987198 -0.0848794123
v 1.86230412e-05 -0.0300267915 -0.0784020696
v -0.00182741566 -0.029528051 -0.0884312671
v -0.00631509986 -0.0236931743 -0.0784019125
v -0.00743963698 -0.0232844358 -0.0913397642
v -0.0110806614 -0.01610899 -0.0784018252
v -0.0117447948 -0.0157320504 -0.093572028
v -0.0140390949 -0.00765451891 -0.0784017786
v -0.0141868202 -0.006355257 -0.0950078655
v -0.0150420559 0.00124631684 -0.0784017961
v -0.0149972098 0.00214238331 -0.095261808
v -0.0140392492 0.0101471526 -0.0784018717
v -0.0136759578 0.0105402158 -0.0945743232
v -0.0110809642 0.0186016992 -0.0784020056
v -0.0104897759 0.0186998985 -0.0929213071
v -0.00631553932 0.026185973 -0.0784021744
v -0.0056735248 0.0258867595 -0.0904246408
v 1.80726324e-05 0.0325197121 -0.0784023956
v 0.000364061159 0.0317055121 -0.0872961129
v 0.00760227451 0.0372852671 -0.0784026517
v 0.00750641459 0.0361487858 -0.0835960847
v 0.0151844762 0.0402437012 -0.0792554463
v 0.0156393532 0.039056524 -0.0804211246
v 0.024418375 0.041246655 -0.0803865842
v 0.00773668268 -0.0309078685 -0.062805129
v 0.000667866148 -0.0259597581 -0.066802185
v 0.000547665279 -0.0259312073 -0.0628021138
v 0.00591332399 -0.0299766364 -0.0730964297
v 0.00117090926 -0.0264470872 -0.0730970176
v 0.0124850921 -0.0331338921 -0.0730966218
v 0.000560069721 -0.0251778052 -0.0730982923
v 0.0144855876 -0.0336934014 -0.0628053385
v 0.00125924172 -0.023072629 -0.0668021559
v 0.000796852677 -0.0237645508 -0.0730941072
v 0.00145113618 -0.0228833246 -0.0730957312
v 0.0195399234 -0.0349222694 -0.0730953936
v 0.0216505055 -0.0350796249 -0.0628053851
v 0.024949416 -0.0352806128 -0.0730976579
v 0.0287136326 -0.0350373656 -0.0628045178
v 0.0303316164 -0.0349284676 -0.0730958651
v 0.0355013588 -0.0336753377 -0.0628054375
v 0.0355012279 -0.0337286268 -0.073096744
v 0.000796852677 -0.0237645508 -0.0730941072
v 0.00145078762 0.0253829641 -0.0731015636
v 0.00145113618 -0.0228833246 -0.0730957312
v 0.000560069721 -0.0251778052 -0.0730982923
v -0.0135210776 -0.0200922787 -0.0731017266
v -0.00844225848 -0.0273962018 -0.0731018372
v 0.00117090926 -0.0264470872 -0.0730970176
v -0.00199806343 -0.0335292514 -0.073102006
v 0.00591332399 -0.0299766364 -0.0730964297
v -0.017026917 -0.0119160723 -0.0731016626
v 0.00630892801 -0.0385381276 -0.0731022214
v -0.0188164497 -0.00320176933 -0.0731016626
v -0.0188165247 0.00569438761 -0.0731016975
v -0.017027142 0.014408736 -0.0731018023
v 0.0124850921 -0.0331338921 -0.0730966218
v 0.0195399234 -0.0349222694 -0.0730953936
v 0.024949416 -0.0352806128 -0.0730976579
v 0.0355012283 -0.0387532373 -0.0731030887
v 0.0303316164 -0.0349284676 -0.0730958651
v 0.0355012279 -0.0337286268 -0.073096744
v 0.000567667508 0.0267790544 -0.0730960106
v -0.0135214539 0.022585018 -0.073101942
v -0.00844275462 0.0298890161 -0.0731021399
v 0.000989499438 0.0287361444 -0.073091418
v -0.00199866869 0.0360221542 -0.0731023669
v 0.00632471133 0.0410898478 -0.0731026346
v 0.00643662793 0.0327241729 -0.0730935251
v 0.0122356983 0.0354895292 -0.0730492815
v 0.0177283666 0.0370361363 -0.0730574131
v 0.0232673173 0.0377469978 -0.0730616448
v 0.0355012533 0.0412467898 -0.0731035019
v 0.0297887247 0.0374478576 -0.0730905798
v 0.0355010093 0.0362119407 -0.0730887405
v 0.00145090258 0.0254159707 -0.0668024062
v 0.00125924172 -0.023072629 -0.0668021559
v 0.00145113618 -0.0228833246 -0.0730957312
v 0.00145078762 0.0253829641 -0.0731015636
v 0.000567667508 0.0267790544 -0.0730960106
v 0.00145090258 0.0254159707 -0.0668024062
v 0.00145078762 0.0253829641 -0.0731015636
v 0.000629980402 0.0267633499 -0.0668023888
v 0.00100092742 0.028756453 -0.0668023655
v 0.000989499438 0.0287361444 -0.073091418
v 0.00535195297 0.0320641532 -0.0628159614
v 0.00643662793 0.0327241729 -0.0730935251
v 0.0122356983 0.0354895292 -0.0730492815
v 0.000549232868 0.0283501286 -0.0628023117
v 0.000504696607 0.0282203255 -0.0668023946
v 0.0119861883 0.0353573716 -0.0628214679
v 0.0177283666 0.0370361363 -0.0730574131
v 0.019950479 0.0374380196 -0.0628070615
v 0.0232673173 0.0377469978 -0.0730616448
v 0.0280759061 0.0376006817 -0.0628057169
v 0.0297887247 0.0374478576 -0.0730905798
v 0.0354988789 0.0362177963 -0.0628036098
v 0.0355010093 0.0362119407 -0.0730887405
v 0.0151844762 0.0402437012 -0.0792554463
v 0.024418375 0.041246655 -0.0803865842
v 0.00656803026 0.0411200372 -0.0783729309
v 0.00760227451 0.0372852671 -0.0784026517
v -0.00199882767 0.0360221251 -0.0784023548
v 1.80726324e-05 0.0325197121 -0.0784023956
v -0.00844291178 0.029888987 -0.0784021395
v -0.00631553932 0.026185973 -0.0784021744
v -0.013521611 0.0225849874 -0.0784019416
v -0.0110809642 0.0186016992 -0.0784020056
v -0.017027302 0.0144087054 -0.0784018019
v -0.0140392492 0.0101471526 -0.0784018717
v -0.0188166848 0.0056943727 -0.0784016971
v -0.0150420559 0.00124631684 -0.0784017961
v -0.0188166098 -0.00320178425 -0.0784016622
v -0.0170270698 -0.0119161021 -0.0784016622
v -0.0140390949 -0.00765451891 -0.0784017786
v -0.0135212348 -0.0200923093 -0.0784017262
v -0.0110806614 -0.01610899 -0.0784018252
v -0.00844240837 -0.0273962309 -0.0784018368
v -0.00631509986 -0.0236931743 -0.0784019125
v -0.00199822132 -0.0335292514 -0.0784020056
v 1.86230412e-05 -0.0300267915 -0.0784020696
v 0.00632526181 -0.0385968387 -0.078402221
v 0.00760290654 -0.0347922142 -0.0784022734
v 0.0194667465 -0.0385637553 -0.0784675998
v 0.00656803026 0.0411200372 -0.0783729309
v 0.024418375 0.041246655 -0.0803865842
v 0.00632471133 0.0410898478 -0.0731026346
v 0.0355012533 0.0412467898 -0.0731035019
v 0.0355012533 0.0412467578 -0.0784035015
v 0.00632471133 0.0410898478 -0.0731026346
v -0.00199882767 0.0360221251 -0.0784023548
v 0.00656803026 0.0411200372 -0.0783729309
v -0.00199866869 0.0360221542 -0.0731023669
v -0.00844291178 0.029888987 -0.0784021395
v -0.00844275462 0.0298890161 -0.0731021399
v -0.013521611 0.0225849874 -0.0784019416
v -0.0135214539 0.022585018 -0.073101942
v -0.017027302 0.0144087054 -0.0784018019
v -0.017027142 0.014408736 -0.0731018023
v -0.0188166848 0.0056943727 -0.0784016971
v -0.0188165247 0.00569438761 -0.0731016975
v -0.0188166098 -0.00320178425 -0.0784016622
v -0.0188164497 -0.00320176933 -0.0731016626
v -0.0170270698 -0.0119161021 -0.0784016622
v -0.017026917 -0.0119160723 -0.0731016626
v -0.0135212348 -0.0200923093 -0.0784017262
v -0.0135210776 -0.0200922787 -0.0731017266
v -0.00844240837 -0.0273962309 -0.0784018368
v -0.00844225848 -0.0273962018 -0.0731018372
v -0.00199822132 -0.0335292514 -0.0784020056
v -0.00199806343 -0.0335292514 -0.073102006
v 0.00632526181 -0.0385968387 -0.078402221
v 0.00630892801 -0.0385381276 -0.0731022214
v 0.00630892801 -0.0385381276 -0.0731022214
v 0.0355012283 -0.0387532373 -0.0731030887
v 0.00632526181 -0.0385968387 -0.078402221
v 0.0194667465 -0.0385637553 -0.0784675998
v 0.0355012254 -0.0387532373 -0.0784030766
v 0.0355013588 -0.0336753377 -0.0628054375
v 0.0287136326 -0.0350373656 -0.0628045178
v 0.0354988789 0.0362177963 -0.0628036098
v 0.0216505055 -0.0350796249 -0.0628053851
v 0.0144855876 -0.0336934014 -0.0628053385
v 0.00773668268 -0.0309078685 -0.062805129
v 0.000547665279 -0.0259312073 -0.0628021138
v 0.0280759061 0.0376006817 -0.0628057169
v 0.019950479 0.0374380196 -0.0628070615
v 0.0119861883 0.0353573716 -0.0628214679
v 0.00535195297 0.0320641532 -0.0628159614
v 0.000549232868 0.0283501286 -0.0628023117
v 0.000629980402 0.0267633499 -0.0668023888
v 0.00100092742 0.028756453 -0.0668023655
v 0.000504696607 0.0282203255 -0.0668023946
v 0.000667866148 -0.0259597581 -0.066802185
v 0.00125924172 -0.023072629 -0.0668021559
v 0.00145090258 0.0254159707 -0.0668024062
v 0.000549232868 0.0283501286 -0.0628023117
v 0.000547665279 -0.0259312073 -0.0628021138
v 0.000504696607 0.0282203255 -0.0668023946
v 0.000667866148 -0.0259597581 -0.066802185
v 0.0161897432 -0.0466146143 -0.0803866133
v 0.0244183711 -0.0471153537 -0.0803824398
v 0.0205519314 -0.0448938878 -0.110396673
v 0.0142244632 -0.0442213978 -0.113828015
v 0.0195571144 -0.0446771662 -0.123398507
v 0.00392330483 -0.0424825234 -0.123432092
v 0.00492302009 -0.0440834144 -0.103103416
v 0.0126025156 -0.0461194188 -0.0810494472
v 0.00334537569 -0.0443858179 -0.0857471197
v -0.00832793025 -0.0401369914 -0.123411161
v -0.0018021569 -0.0429988782 -0.0884166569
v -0.00781209463 -0.0407524094 -0.106361951
v -0.0147278505 -0.0371463901 -0.12339697
v -0.00894519705 -0.039891035 -0.0921202882
v -0.0142950518 -0.0370779931 -0.108495145
v -0.0142491304 -0.0358999079 -0.0948627363
v -0.0186965496 -0.0327974283 -0.112130248
v -0.0197879549 -0.0323116185 -0.1233613
v -0.0172268775 -0.0321713408 -0.09640606
v -0.0234923725 -0.0253050056 -0.123339728
v -0.0218104752 -0.026483597 -0.111400522
v -0.0193396457 -0.0280725961 -0.0975006784
v -0.0212344074 -0.0221368686 -0.0984780258
v -0.0238738618 -0.0178344263 -0.111195818
v -0.0255175765 -0.0158818679 -0.123336911
v -0.0230994492 -0.0060708093 -0.0994695001
v -0.0249818865 -0.00474108965 -0.112143962
v -0.0264063683 0.00220830503 -0.123334164
v -0.0230907106 0.0084326546 -0.0994553789
v -0.02549466 0.0161619456 -0.123337598
v -0.0238806156 0.0176998795 -0.11104017
v -0.0237557287 0.0245869284 -0.123342907
v -0.0212240111 0.0224598476 -0.0984769198
v -0.0216177296 0.0277936731 -0.11223011
v -0.0195171126 0.0279790734 -0.097592792
v -0.0172358981 0.0324976732 -0.0964112871
v -0.0201984759 0.0322760473 -0.123360392
v -0.0182611504 0.0336889162 -0.112487096
v -0.014023729 0.0364788737 -0.0947469438
v -0.0144481881 0.0375197373 -0.113330758
v -0.0139731263 0.0379404245 -0.123401755
v -0.0107581049 0.0395707631 -0.101108162
v -0.00819042098 0.0406028463 -0.091721717
v -0.00810092091 0.0409758817 -0.107091758
v -0.00572699787 0.0411268755 -0.123420008
v 0.000281520102 0.0439453725 -0.0873415614
v 0.00574195485 0.0444432929 -0.104622275
v 0.0055021887 0.0452098092 -0.0846307259
v 0.00105161909 0.0424445724 -0.123432674
v 0.0123424633 0.0464652472 -0.081138697
v 0.0129055979 0.0438459665 -0.123411149
v 0.0161625287 0.0469529492 -0.080385193
v 0.0220905761 0.0453500911 -0.108814787
v 0.0220366743 0.0453664358 -0.123394642
v 0.0244175886 0.0474602733 -0.0803829054
v 0.0355012533 0.0412467578 -0.0784035015
v 0.024418395 0.0453227628 -0.0803839997
v 0.0355012529 0.0460506099 -0.078138255
v 0.024418375 0.041246655 -0.0803865842
v 0.0161625287 0.0469529492 -0.080385193
v 0.0244175886 0.0474602733 -0.0803829054
v 0.0156393532 0.039056524 -0.0804211246
v 0.0123424633 0.0464652472 -0.081138697
v 0.0121343794 0.0413995683 -0.0812298269
v 0.0055021887 0.0452098092 -0.0846307259
v 0.00750641459 0.0361487858 -0.0835960847
v 0.000281520102 0.0439453725 -0.0873415614
v 0.000364061159 0.0317055121 -0.0872961129
v -0.00819042098 0.0406028463 -0.091721717
v -0.0056735248 0.0258867595 -0.0904246408
v -0.014023729 0.0364788737 -0.0947469438
v -0.0172358981 0.0324976732 -0.0964112871
v -0.0104897759 0.0186998985 -0.0929213071
v -0.0195171126 0.0279790734 -0.097592792
v -0.0212240111 0.0224598476 -0.0984769198
v -0.0136759578 0.0105402158 -0.0945743232
v -0.0230907106 0.0084326546 -0.0994553789
v -0.0149972098 0.00214238331 -0.095261808
v -0.0230994492 -0.0060708093 -0.0994695001
v -0.0141868202 -0.006355257 -0.0950078655
v -0.0117447948 -0.0157320504 -0.093572028
v -0.0212344074 -0.0221368686 -0.0984780258
v -0.0193396457 -0.0280725961 -0.0975006784
v -0.00743963698 -0.0232844358 -0.0913397642
v -0.0172268775 -0.0321713408 -0.09640606
v -0.0142491304 -0.0358999079 -0.0948627363
v -0.00182741566 -0.029528051 -0.0884312671
v -0.00894519705 -0.039891035 -0.0921202882
v -0.0018021569 -0.0429988782 -0.0884166569
v 0.00502824379 -0.0344987198 -0.0848794123
v 0.00334537569 -0.0443858179 -0.0857471197
v 0.0121686382 -0.0410884288 -0.0812177546
v 0.0126025156 -0.0461194188 -0.0810494472
v 0.0150463039 -0.0385659617 -0.0804871961
v 0.0161897432 -0.0466146143 -0.0803866133
v 0.0244183559 -0.0398147975 -0.0803861767
v 0.0244183942 -0.0454117319 -0.0803618808
v 0.0244183711 -0.0471153537 -0.0803824398
v 0.0354963802 -0.0456503299 -0.0783295603
v 0.0355012254 -0.0387532373 -0.0784030766
v 0.00820341357 0.001949758 -0.123892399
v -0.0139731263 0.0379404245 -0.123401755
v -0.0201984759 0.0322760473 -0.123360392
v -0.0237557287 0.0245869284 -0.123342907
v -0.00572699787 0.0411268755 -0.123420008
v -0.02549466 0.0161619456 -0.123337598
v 0.00105161909 0.0424445724 -0.123432674
v -0.0264063683 0.00220830503 -0.123334164
v 0.0129055979 0.0438459665 -0.123411149
v -0.0255175765 -0.0158818679 -0.123336911
v 0.0220366743 0.0453664358 -0.123394642
v -0.0234923725 -0.0253050056 -0.123339728
v 0.0307852508 0.0452079633 -0.123401615
v -0.0197879549 -0.0323116185 -0.1233613
v 0.0400125796 0.0439227244 -0.123441021
v -0.0147278505 -0.0371463901 -0.12339697
v 0.0555970262 0.0421294322 -0.12345165
v -0.00832793025 -0.0401369914 -0.123411161
v 0.0649659453 0.0386636907 -0.123460451
v 0.00392330483 -0.0424825234 -0.123432092
v 0.070047166 0.0346278164 -0.123465597
v 0.0195571144 -0.0446771662 -0.123398507
v 0.0738058563 0.0287911948 -0.123471417
v 0.0265812541 -0.0451365375 -0.123390823
v 0.0763586181 0.019431329 -0.123473466
v 0.0493953857 -0.0427957435 -0.123453629
v 0.077446951 0.00822564129 -0.123478728
v 0.057715315 -0.0412704896 -0.123448169
v 0.0774161956 -0.00825779913 -0.123478263
v 0.0655926506 -0.0379448466 -0.123460055
v 0.0757647756 -0.0225669071 -0.123473816
v 0.0693387674 -0.0349622596 -0.123464596
v 0.0726269469 -0.0307057426 -0.123470393
vt 0.969238281 0.733886719
vt 0.968261719 0.737792969
vt 0.968261719 0.733886719
vt 0.969238281 0.737792969
vt 0.968261719 0.741699219
vt 0.969238281 0.741699219
vt 0.968261719 0.745605469
vt 0.969238281 0.745605469
vt 0.968261719 0.749023438
vt 0.969238281 0.749023438
vt 0.968261719 0.752929688
vt 0.969238281 0.752929688
vt 0.968261719 0.756835938
vt 0.969238281 0.756835938
vt 0.968261719 0.760742188
vt 0.969238281 0.760742188
vt 0.968261719 0.764648438
vt 0.969238281 0.764648438
vt 0.599609375 0.533691406
vt 0.6015625 0.530761719
vt 0.599609375 0.546386719
vt 0.6015625 0.549316406
vt 0.604492188 0.551757812
vt 0.607910156 0.553222656
vt 0.611816406 0.553710938
vt 0.615722656 0.553222656
vt 0.619140625 0.551757812
vt 0.622070312 0.549316406
vt 0.624511719 0.546386719
vt 0.624511719 0.533691406
vt 0.622070312 0.530761719
vt 0.619140625 0.528320312
vt 0.615722656 0.526855469
vt 0.604492188 0.528320312
vt 0.611816406 0.525878906
vt 0.607910156 0.526855469
vt 0.931640625 0.251464844
vt 0.932617188 0.247680664
vt 0.932617188 0.251464844
vt 0.931640625 0.247680664
vt 0.932617188 0.243896484
vt 0.931640625 0.243896484
vt 0.932617188 0.240112305
vt 0.931640625 0.240112305
vt 0.932617188 0.236206055
vt 0.931640625 0.236206055
vt 0.932617188 0.232421875
vt 0.931640625 0.232421875
vt 0.932617188 0.228637695
vt 0.931640625 0.228637695
vt 0.932617188 0.224853516
vt 0.931640625 0.224853516
vt 0.932617188 0.220947266
vt 0.931640625 0.220947266
vt 0.877441406 0.367431641
vt 0.874023438 0.367431641
vt 0.874023438 0.364501953
vt 0.877929688 0.354492188
vt 0.87109375 0.359130859
vt 0.87109375 0.364501953
vt 0.860351562 0.337158203
vt 0.86328125 0.334716797
vt 0.856445312 0.338623047
vt 0.878417969 0.337158203
vt 0.853027344 0.339111328
vt 0.865234375 0.331542969
vt 0.877441406 0.327880859
vt 0.833496094 0.359130859
vt 0.865234375 0.319091797
vt 0.875488281 0.319335938
vt 0.873535156 0.313964844
vt 0.849121094 0.338623047
vt 0.86328125 0.315917969
vt 0.870605469 0.309326172
vt 0.868164062 0.306396484
vt 0.860351562 0.313476562
vt 0.86328125 0.303466797
vt 0.859375 0.302001953
vt 0.856445312 0.312011719
vt 0.853027344 0.301269531
vt 0.853027344 0.311279297
vt 0.846191406 0.302001953
vt 0.849121094 0.312011719
vt 0.845703125 0.313476562
vt 0.842285156 0.303466797
vt 0.838867188 0.305419922
vt 0.842773438 0.315917969
vt 0.8359375 0.307861328
vt 0.833496094 0.311035156
vt 0.840332031 0.319091797
vt 0.831054688 0.317138672
vt 0.840332031 0.331542969
vt 0.828613281 0.326660156
vt 0.827636719 0.336669922
vt 0.842773438 0.334716797
vt 0.827636719 0.354248047
vt 0.845703125 0.337158203
vt 0.833496094 0.364501953
vt 0.830566406 0.364501953
vt 0.830566406 0.367431641
vt 0.828125 0.367431641
vt 0.281738281 0.645019531
vt 0.272949219 0.645019531
vt 0.272949219 0.639648438
vt 0.278564453 0.638183594
vt 0.272949219 0.634277344
vt 0.284179688 0.636230469
vt 0.298583984 0.643554688
vt 0.306884766 0.642578125
vt 0.307861328 0.635253906
vt 0.310302734 0.639648438
vt 0.313964844 0.638183594
vt 0.322021484 0.63671875
vt 0.284912109 0.630859375
vt 0.273193359 0.624511719
vt 0.284667969 0.624511719
vt 0.298095703 0.628417969
vt 0.282714844 0.620605469
vt 0.273193359 0.618652344
vt 0.304931641 0.624023438
vt 0.310546875 0.627929688
vt 0.322509766 0.625
vt 0.324462891 0.630371094
vt 0.333740234 0.629394531
vt 0.333740234 0.634277344
vt 0.342529297 0.631835938
vt 0.284179688 0.6171875
vt 0.273193359 0.614746094
vt 0.304199219 0.620605469
vt 0.335205078 0.625488281
vt 0.283203125 0.614257812
vt 0.273193359 0.610351562
vt 0.338867188 0.622558594
vt 0.353759766 0.626464844
vt 0.321533203 0.621582031
vt 0.335205078 0.623046875
vt 0.332763672 0.620605469
vt 0.338867188 0.619628906
vt 0.340820312 0.618652344
vt 0.296875 0.6171875
vt 0.321533203 0.619140625
vt 0.339599609 0.617675781
vt 0.308349609 0.618164062
vt 0.329101562 0.617675781
vt 0.319335938 0.6171875
vt 0.308349609 0.615234375
vt 0.296630859 0.612792969
vt 0.320068359 0.614746094
vt 0.281982422 0.611328125
vt 0.281738281 0.607910156
vt 0.272949219 0.604003906
vt 0.281738281 0.604980469
vt 0.272949219 0.597167969
vt 0.296386719 0.607421875
vt 0.307861328 0.612304688
vt 0.282714844 0.599609375
vt 0.281005859 0.592773438
vt 0.273681641 0.586425781
vt 0.296875 0.600585938
vt 0.283447266 0.585449219
vt 0.274902344 0.577148438
vt 0.318115234 0.611816406
vt 0.308105469 0.607421875
vt 0.319824219 0.608886719
vt 0.327148438 0.612304688
vt 0.296875 0.593261719
vt 0.328857422 0.614746094
vt 0.338134766 0.615722656
vt 0.342041016 0.615722656
vt 0.340087891 0.613769531
vt 0.343017578 0.616210938
vt 0.344238281 0.613769531
vt 0.343017578 0.611328125
vt 0.337158203 0.612304688
vt 0.345214844 0.613769531
vt 0.360595703 0.62109375
vt 0.336669922 0.609863281
vt 0.346191406 0.611816406
vt 0.347167969 0.612304688
vt 0.364501953 0.616699219
vt 0.347900391 0.610351562
vt 0.345947266 0.607910156
vt 0.349121094 0.610351562
vt 0.351074219 0.607910156
vt 0.367431641 0.612792969
vt 0.349365234 0.608398438
vt 0.351318359 0.60546875
vt 0.369628906 0.608398438
vt 0.341796875 0.609863281
vt 0.337890625 0.608886719
vt 0.33203125 0.608886719
vt 0.330078125 0.60546875
vt 0.350341797 0.60546875
vt 0.3515625 0.6015625
vt 0.352539062 0.602050781
vt 0.37109375 0.603027344
vt 0.318847656 0.605957031
vt 0.353515625 0.598632812
vt 0.371826172 0.597167969
vt 0.326416016 0.601074219
vt 0.313476562 0.600097656
vt 0.312988281 0.594726562
vt 0.326171875 0.594238281
vt 0.313964844 0.589355469
vt 0.352539062 0.600097656
vt 0.353759766 0.59375
vt 0.371582031 0.591308594
vt 0.353515625 0.58984375
vt 0.370117188 0.5859375
vt 0.352294922 0.587402344
vt 0.367675781 0.580566406
vt 0.352783203 0.594238281
vt 0.297607422 0.5859375
vt 0.352783203 0.597167969
vt 0.352050781 0.594238281
vt 0.352539062 0.590332031
vt 0.352050781 0.597167969
vt 0.352050781 0.591796875
vt 0.351806641 0.599121094
vt 0.3515625 0.588867188
vt 0.326904297 0.589355469
vt 0.348876953 0.588378906
vt 0.331787109 0.585449219
vt 0.3203125 0.583984375
vt 0.309326172 0.582519531
vt 0.348388672 0.5859375
vt 0.350585938 0.5859375
vt 0.342529297 0.583496094
vt 0.348632812 0.583007812
vt 0.350830078 0.584472656
vt 0.348876953 0.581542969
vt 0.342773438 0.581054688
vt 0.338867188 0.583007812
vt 0.328369141 0.581542969
vt 0.352050781 0.585449219
vt 0.350830078 0.583496094
vt 0.364501953 0.575683594
vt 0.324462891 0.578125
vt 0.320068359 0.580078125
vt 0.342529297 0.579589844
vt 0.34765625 0.578613281
vt 0.361572266 0.572265625
vt 0.356933594 0.567382812
vt 0.346923828 0.579101562
vt 0.34375 0.57421875
vt 0.342529297 0.576660156
vt 0.324951172 0.575195312
vt 0.311279297 0.57421875
vt 0.310546875 0.577636719
vt 0.343505859 0.572265625
vt 0.349853516 0.5625
vt 0.298339844 0.579101562
vt 0.283447266 0.580078125
vt 0.283935547 0.576660156
vt 0.275634766 0.571777344
vt 0.285400391 0.573242188
vt 0.299316406 0.575195312
vt 0.299804688 0.572753906
vt 0.285888672 0.5703125
vt 0.276123047 0.568359375
vt 0.276611328 0.565429688
vt 0.300537109 0.569824219
vt 0.286376953 0.567382812
vt 0.294433594 0.564941406
vt 0.27734375 0.560058594
vt 0.309326172 0.563964844
vt 0.311767578 0.571289062
vt 0.312255859 0.568359375
vt 0.324707031 0.571289062
vt 0.291015625 0.556152344
vt 0.278076172 0.555175781
vt 0.286376953 0.546386719
vt 0.280029297 0.541015625
vt 0.288330078 0.538574219
vt 0.280517578 0.537109375
vt 0.305664062 0.543457031
vt 0.314697266 0.553222656
vt 0.313232422 0.545410156
vt 0.316162109 0.548339844
vt 0.320556641 0.551269531
vt 0.329101562 0.553710938
vt 0.303466797 0.558105469
vt 0.329833984 0.560058594
vt 0.339599609 0.557617188
vt 0.315673828 0.560546875
vt 0.326904297 0.565429688
vt 0.339111328 0.562988281
vt 0.33984375 0.567382812
vt 0.339599609 0.5703125
vt 0.324462891 0.568359375
vt 0.335693359 0.572265625
vt 0.330322266 0.573730469
vt 0.801757812 0.510253906
vt 0.801757812 0.514160156
vt 0.80078125 0.514160156
vt 0.80078125 0.510253906
vt 0.80078125 0.506347656
vt 0.801269531 0.505371094
vt 0.800292969 0.499023438
vt 0.801269531 0.498779297
vt 0.801757812 0.488037109
vt 0.80078125 0.488037109
vt 0.801269531 0.479736328
vt 0.801757812 0.481933594
vt 0.803710938 0.472412109
vt 0.803710938 0.468994141
vt 0.806640625 0.46484375
vt 0.807128906 0.461914062
vt 0.809082031 0.4609375
vt 0.810546875 0.457763672
vt 0.811523438 0.458496094
vt 0.814453125 0.455078125
vt 0.815429688 0.455566406
vt 0.818359375 0.453369141
vt 0.8203125 0.453857422
vt 0.823242188 0.452392578
vt 0.825195312 0.453125
vt 0.828613281 0.452148438
vt 0.830078125 0.453369141
vt 0.833496094 0.452880859
vt 0.833496094 0.454101562
vt 0.837890625 0.454345703
vt 0.837402344 0.455078125
vt 0.842773438 0.457519531
vt 0.840332031 0.45703125
vt 0.84375 0.459960938
vt 0.846191406 0.461425781
vt 0.848144531 0.465332031
vt 0.847167969 0.46484375
vt 0.850585938 0.470703125
vt 0.849609375 0.470458984
vt 0.8515625 0.479980469
vt 0.852050781 0.478027344
vt 0.853027344 0.488037109
vt 0.852050781 0.488525391
vt 0.852539062 0.498535156
vt 0.853027344 0.497802734
vt 0.853027344 0.505859375
vt 0.852050781 0.505371094
vt 0.852050781 0.509765625
vt 0.853027344 0.510742188
vt 0.852050781 0.514160156
vt 0.852539062 0.514648438
vt 0.801757812 0.514160156
vt 0.802246094 0.521484375
vt 0.80078125 0.514160156
vt 0.801269531 0.521484375
vt 0.257324219 0.327392578
vt 0.26171875 0.331787109
vt 0.255371094 0.335205078
vt 0.251464844 0.334960938
vt 0.246582031 0.334716797
vt 0.246582031 0.336425781
vt 0.240844727 0.339355469
vt 0.232055664 0.344482422
vt 0.231689453 0.344970703
vt 0.2265625 0.348388672
vt 0.223632812 0.349853516
vt 0.218139648 0.353515625
vt 0.21484375 0.354492188
vt 0.210693359 0.356445312
vt 0.208496094 0.356933594
vt 0.206176758 0.357910156
vt 0.204833984 0.357910156
vt 0.20300293 0.358642578
vt 0.201293945 0.358886719
vt 0.197998047 0.359619141
vt 0.197387695 0.359375
vt 0.192871094 0.359863281
vt 0.192993164 0.360107422
vt 0.188110352 0.360107422
vt 0.186157227 0.359619141
vt 0.183105469 0.359619141
vt 0.179931641 0.358886719
vt 0.1796875 0.359130859
vt 0.17578125 0.358398438
vt 0.17565918 0.358154297
vt 0.172241211 0.357421875
vt 0.170410156 0.356445312
vt 0.16809082 0.355957031
vt 0.166748047 0.355224609
vt 0.162719727 0.353515625
vt 0.161743164 0.352783203
vt 0.157226562 0.350830078
vt 0.156494141 0.350341797
vt 0.14855957 0.346435547
vt 0.148681641 0.346191406
vt 0.140625 0.341796875
vt 0.140991211 0.342529297
vt 0.132080078 0.338134766
vt 0.125366211 0.333496094
vt 0.125488281 0.335449219
vt 0.121337891 0.334472656
vt 0.114013672 0.327392578
vt 0.1171875 0.334960938
vt 0.110168457 0.33203125
vt 0.852539062 0.514648438
vt 0.852539062 0.521484375
vt 0.852050781 0.514160156
vt 0.8515625 0.521484375
vt 0.932617188 0.208496094
vt 0.932617188 0.220947266
vt 0.931640625 0.208496094
vt 0.931640625 0.220947266
vt 0.968261719 0.776855469
vt 0.968261719 0.764648438
vt 0.969238281 0.776855469
vt 0.969238281 0.764648438
vt 0.787597656 0.478271484
vt 0.789550781 0.483886719
vt 0.7890625 0.486816406
vt 0.790527344 0.489013672
vt 0.7890625 0.493408203
vt 0.79296875 0.494628906
vt 0.7890625 0.498291016
vt 0.794433594 0.499267578
vt 0.7890625 0.502929688
vt 0.795898438 0.50390625
vt 0.7890625 0.5078125
vt 0.796875 0.508789062
vt 0.788574219 0.512695312
vt 0.797363281 0.513671875
vt 0.788085938 0.517578125
vt 0.797363281 0.518554688
vt 0.788085938 0.522460938
vt 0.796875 0.522949219
vt 0.787597656 0.52734375
vt 0.795410156 0.527832031
vt 0.787597656 0.531738281
vt 0.793945312 0.532226562
vt 0.787597656 0.536621094
vt 0.792480469 0.536621094
vt 0.787597656 0.541503906
vt 0.790039062 0.541503906
vt 0.788085938 0.545898438
vt 0.7890625 0.545898438
vt 0.7890625 0.55078125
vt 0.0316772461 0.645996094
vt 0.0338134766 0.650390625
vt 0.0316772461 0.650390625
vt 0.0372314453 0.646972656
vt 0.0372314453 0.649902344
vt 0.0372314453 0.643066406
vt 0.0372314453 0.650878906
vt 0.0317077637 0.641601562
vt 0.0338134766 0.651855469
vt 0.0372314453 0.651367188
vt 0.0372009277 0.65234375
vt 0.0372314453 0.639160156
vt 0.0317077637 0.637695312
vt 0.0372314453 0.636230469
vt 0.0316772461 0.634277344
vt 0.0372314453 0.633300781
vt 0.0316772461 0.630371094
vt 0.0372009277 0.630371094
vt 0.981933594 0.0110397339
vt 0.981933594 0.0375061035
vt 0.981933594 0.0115127563
vt 0.982421875 0.0102767944
vt 0.989746094 0.0130157471
vt 0.987304688 0.00908660889
vt 0.981933594 0.00959777832
vt 0.983398438 0.00577926636
vt 0.979492188 0.00769424438
vt 0.991699219 0.0174255371
vt 0.979003906 0.00308227539
vt 0.992675781 0.0221099854
vt 0.992675781 0.0269012451
vt 0.991699219 0.0316162109
vt 0.975585938 0.0059928894
vt 0.972167969 0.00503158569
vt 0.969238281 0.00483703613
vt 0.963378906 0.00296592712
vt 0.966308594 0.005027771
vt 0.963378906 0.00567245483
vt 0.982421875 0.038269043
vt 0.989746094 0.0360107422
vt 0.987304688 0.0399475098
vt 0.981933594 0.0393066406
vt 0.983398438 0.0432434082
vt 0.979003906 0.0459594727
vt 0.979003906 0.0414733887
vt 0.976074219 0.04296875
vt 0.973144531 0.0437927246
vt 0.970214844 0.0441589355
vt 0.963378906 0.0460510254
vt 0.966308594 0.0440063477
vt 0.963378906 0.0433349609
vt 0.162963867 0.674316406
vt 0.162963867 0.647949219
vt 0.166381836 0.647949219
vt 0.166381836 0.674316406
vt 0.0152206421 0.561035156
vt 0.0118255615 0.560058594
vt 0.0152206421 0.560058594
vt 0.0118331909 0.561035156
vt 0.0118331909 0.562011719
vt 0.0152206421 0.562011719
vt 0.00968933105 0.564941406
vt 0.0152282715 0.565429688
vt 0.0152053833 0.568847656
vt 0.00968170166 0.561523438
vt 0.0118331909 0.561523438
vt 0.00969696045 0.568847656
vt 0.0152130127 0.572265625
vt 0.00968933105 0.573242188
vt 0.0152130127 0.575195312
vt 0.00968933105 0.577636719
vt 0.0152282715 0.578613281
vt 0.00968170166 0.581542969
vt 0.0152206421 0.581542969
vt 0.979003906 0.250732422
vt 0.974121094 0.24987793
vt 0.983886719 0.250488281
vt 0.983398438 0.252441406
vt 0.98828125 0.253662109
vt 0.987304688 0.255371094
vt 0.991699219 0.257080078
vt 0.990234375 0.259033203
vt 0.994140625 0.261230469
vt 0.992675781 0.263183594
vt 0.995605469 0.265625
vt 0.994140625 0.267822266
vt 0.996582031 0.270507812
vt 0.994140625 0.272705078
vt 0.99609375 0.275146484
vt 0.994628906 0.279785156
vt 0.993164062 0.27734375
vt 0.992675781 0.284179688
vt 0.991210938 0.281982422
vt 0.989746094 0.287841797
vt 0.988769531 0.285888672
vt 0.985839844 0.291015625
vt 0.984863281 0.2890625
vt 0.981445312 0.293457031
vt 0.980957031 0.291259766
vt 0.974121094 0.29296875
vt 0.240112305 0.262451172
vt 0.241210938 0.271972656
vt 0.237304688 0.262207031
vt 0.237304688 0.277832031
vt 0.240112305 0.277832031
vt 0.237304688 0.262207031
vt 0.240234375 0.257080078
vt 0.240112305 0.262451172
vt 0.237304688 0.257080078
vt 0.240234375 0.252197266
vt 0.237304688 0.252197266
vt 0.240234375 0.247436523
vt 0.237426758 0.247436523
vt 0.240234375 0.242553711
vt 0.237426758 0.242553711
vt 0.240234375 0.237792969
vt 0.237426758 0.237792969
vt 0.240234375 0.233032227
vt 0.237426758 0.233032227
vt 0.240356445 0.228271484
vt 0.237426758 0.228271484
vt 0.240356445 0.223388672
vt 0.237426758 0.223388672
vt 0.240356445 0.21862793
vt 0.237426758 0.21862793
vt 0.240356445 0.213867188
vt 0.237548828 0.213867188
vt 0.240356445 0.208618164
vt 0.237548828 0.208618164
vt 0.237548828 0.208618164
vt 0.237548828 0.192871094
vt 0.240356445 0.208618164
vt 0.240356445 0.201538086
vt 0.240356445 0.192871094
vt 0.380859375 0.0590209961
vt 0.384521484 0.0582885742
vt 0.380859375 0.0966796875
vt 0.388427734 0.0582885742
vt 0.392333984 0.0590209961
vt 0.395751953 0.0605163574
vt 0.399658203 0.0632324219
vt 0.385009766 0.0974121094
vt 0.389404297 0.0973510742
vt 0.393554688 0.0961914062
vt 0.397216797 0.0944213867
vt 0.399658203 0.0924682617
vt 0.276367188 0.390380859
vt 0.276123047 0.389404297
vt 0.276367188 0.389648438
vt 0.276367188 0.418945312
vt 0.276123047 0.417236328
vt 0.275878906 0.391113281
vt 0.170166016 0.354248047
vt 0.170166016 0.324951172
vt 0.172241211 0.354248047
vt 0.172241211 0.324951172
vt 0.764648438 0.0797729492
vt 0.765136719 0.0842285156
vt 0.749023438 0.0833129883
vt 0.746582031 0.080078125
vt 0.741699219 0.0833740234
vt 0.741210938 0.0748901367
vt 0.751953125 0.0746459961
vt 0.764160156 0.0778808594
vt 0.761230469 0.073059082
vt 0.740722656 0.0681762695
vt 0.759765625 0.0703125
vt 0.75 0.0677490234
vt 0.740234375 0.0643920898
vt 0.757324219 0.0662841797
vt 0.748046875 0.0638427734
vt 0.755371094 0.0628662109
vt 0.74609375 0.0607299805
vt 0.739746094 0.0606079102
vt 0.754394531 0.0603637695
vt 0.739746094 0.0563354492
vt 0.74609375 0.0569458008
vt 0.75390625 0.0578918457
vt 0.752929688 0.0545654297
vt 0.74609375 0.0521850586
vt 0.739746094 0.0511474609
vt 0.752441406 0.0458374023
vt 0.745605469 0.0451049805
vt 0.739746094 0.0413513184
vt 0.752441406 0.0379943848
vt 0.739746094 0.0338134766
vt 0.74609375 0.032989502
vt 0.739746094 0.0291595459
vt 0.753417969 0.0303497314
vt 0.745605469 0.0274047852
vt 0.75390625 0.0272521973
vt 0.754394531 0.0245513916
vt 0.739746094 0.0245666504
vt 0.74609375 0.0237731934
vt 0.755859375 0.0218658447
vt 0.745605469 0.0208435059
vt 0.740234375 0.0200195312
vt 0.752441406 0.0191650391
vt 0.7578125 0.0181274414
vt 0.749511719 0.0172729492
vt 0.740722656 0.0152664185
vt 0.760253906 0.0134353638
vt 0.751464844 0.00972747803
vt 0.762207031 0.0106735229
vt 0.741210938 0.0115509033
vt 0.764160156 0.00709533691
vt 0.741699219 0.00513839722
vt 0.764648438 0.00505828857
vt 0.75 0.000756263733
vt 0.741699219 0.000163435936
vt 0.765136719 0.000611305237
vt 0.907226562 0.305419922
vt 0.913085938 0.307617188
vt 0.907226562 0.307861328
vt 0.913085938 0.305419922
vt 0.917480469 0.30859375
vt 0.913085938 0.308837891
vt 0.91796875 0.304199219
vt 0.919921875 0.308349609
vt 0.919921875 0.305664062
vt 0.923828125 0.307617188
vt 0.922851562 0.302734375
vt 0.927246094 0.306884766
vt 0.927246094 0.300292969
vt 0.932128906 0.305175781
vt 0.930664062 0.297119141
vt 0.936035156 0.302978516
vt 0.937988281 0.30078125
vt 0.93359375 0.293212891
vt 0.938964844 0.298339844
vt 0.939941406 0.295410156
vt 0.935546875 0.288818359
vt 0.94140625 0.287841797
vt 0.936523438 0.284423828
vt 0.94140625 0.280029297
vt 0.936035156 0.279785156
vt 0.934570312 0.274658203
vt 0.939941406 0.271240234
vt 0.938964844 0.268066406
vt 0.931640625 0.270751953
vt 0.9375 0.265869141
vt 0.936035156 0.263916016
vt 0.928222656 0.267333984
vt 0.932617188 0.26171875
vt 0.928222656 0.260009766
vt 0.924316406 0.264648438
vt 0.925292969 0.259277344
vt 0.919921875 0.260986328
vt 0.919433594 0.258300781
vt 0.918457031 0.262451172
vt 0.917480469 0.258056641
vt 0.913085938 0.26171875
vt 0.913085938 0.258789062
vt 0.913085938 0.2578125
vt 0.907226562 0.258789062
vt 0.907226562 0.262451172
vt 0.90625 0.772949219
vt 0.925292969 0.78515625
vt 0.922363281 0.788085938
vt 0.918457031 0.790039062
vt 0.927246094 0.780273438
vt 0.913574219 0.791015625
vt 0.927734375 0.776855469
vt 0.90625 0.791503906
vt 0.928710938 0.770507812
vt 0.896484375 0.791015625
vt 0.9296875 0.765625
vt 0.891601562 0.790039062
vt 0.9296875 0.760742188
vt 0.887695312 0.788085938
vt 0.928710938 0.755859375
vt 0.885253906 0.78515625
vt 0.927734375 0.747558594
vt 0.883300781 0.781738281
vt 0.92578125 0.7421875
vt 0.882324219 0.775390625
vt 0.923828125 0.739746094
vt 0.880859375 0.766601562
vt 0.920898438 0.737792969
vt 0.880859375 0.763183594
vt 0.915527344 0.736328125
vt 0.882324219 0.750976562
vt 0.909667969 0.735839844
vt 0.8828125 0.74609375
vt 0.900878906 0.735839844
vt 0.884765625 0.7421875
vt 0.893066406 0.736328125
vt 0.886230469 0.740234375
vt 0.888671875 0.73828125
f 3/3 2/2 1/1
f 2/2 4/4 1/1
f 2/2 5/5 4/4
f 5/5 6/6 4/4
f 5/5 7/7 6/6
f 7/7 8/8 6/6
f 7/7 9/9 8/8
f 9/9 10/10 8/8
f 9/9 11/11 10/10
f 11/11 12/12 10/10
f 11/11 13/13 12/12
f 13/13 14/14 12/12
f 13/13 15/15 14/14
f 15/15 16/16 14/14
f 15/15 17/17 16/16
f 17/17 18/18 16/16
f 21/21 20/20 19/19
f 21/21 22/22 20/20
f 22/22 23/23 20/20
f 24/24 20/20 23/23
f 24/24 25/25 20/20
f 26/26 20/20 25/25
f 26/26 27/27 20/20
f 27/27 28/28 20/20
f 29/29 20/20 28/28
f 29/29 30/30 20/20
f 30/30 31/31 20/20
f 32/32 20/20 31/31
f 32/32 33/33 20/20
f 33/33 34/34 20/20
f 33/33 35/35 34/34
f 35/35 36/36 34/34
f 39/39 38/38 37/37
f 38/38 40/40 37/37
f 38/38 41/41 40/40
f 41/41 42/42 40/40
f 41/41 43/43 42/42
f 43/43 44/44 42/42
f 43/43 45/45 44/44
f 45/45 46/46 44/44
f 45/45 47/47 46/46
f 47/47 48/48 46/46
f 47/47 49/49 48/48
f 49/49 50/50 48/48
f 49/49 51/51 50/50
f 51/51 52/52 50/50
f 51/51 53/53 52/52
f 53/53 54/54 52/52
f 57/57 56/56 55/55
f 57/57 55/55 58/58
f 59/59 57/57 58/58
f 59/59 60/60 57/57
f 61/61 59/59 58/58
f 62/62 61/61 58/58
f 63/63 59/59 61/61
f 64/64 62/62 58/58
f 63/63 65/65 59/59
f 64/64 66/66 62/62
f 64/64 67/67 66/66
f 65/65 68/68 59/59
f 67/67 69/69 66/66
f 67/67 70/70 69/69
f 71/71 69/69 70/70
f 65/65 72/72 68/68
f 71/71 73/73 69/69
f 74/74 73/73 71/71
f 74/74 75/75 73/73
f 75/75 76/76 73/73
f 77/77 76/76 75/75
f 77/77 78/78 76/76
f 78/78 79/79 76/76
f 79/79 78/78 80/80
f 81/81 79/79 80/80
f 80/80 82/82 81/81
f 82/82 83/83 81/81
f 82/82 84/84 83/83
f 82/82 85/85 84/84
f 85/85 86/86 84/84
f 87/87 84/84 86/86
f 87/87 86/86 88/88
f 88/88 89/89 87/87
f 89/89 90/90 87/87
f 89/89 91/91 90/90
f 92/92 90/90 91/91
f 92/92 91/91 93/93
f 93/93 94/94 92/92
f 94/94 95/95 92/92
f 94/94 96/96 95/95
f 96/96 97/97 95/95
f 96/96 68/68 97/97
f 72/72 97/97 68/68
f 98/98 68/68 96/96
f 98/98 96/96 99/99
f 99/99 96/96 100/100
f 101/101 100/100 96/96
f 104/104 103/103 102/102
f 105/105 104/104 102/102
f 104/104 105/105 106/106
f 105/105 102/102 107/107
f 108/108 107/107 102/102
f 109/109 107/107 108/108
f 109/109 110/110 107/107
f 109/109 111/111 110/110
f 111/111 112/112 110/110
f 110/110 112/112 113/113
f 105/105 114/114 106/106
f 105/105 107/107 114/114
f 110/110 114/114 107/107
f 115/115 106/106 114/114
f 115/115 114/114 116/116
f 110/110 117/117 114/114
f 117/117 116/116 114/114
f 116/116 118/118 115/115
f 118/118 119/119 115/115
f 117/117 120/120 116/116
f 120/120 118/118 116/116
f 110/110 121/121 117/117
f 121/121 120/120 117/117
f 120/120 121/121 122/122
f 121/121 110/110 123/123
f 110/110 113/113 123/123
f 121/121 123/123 122/122
f 124/124 123/123 113/113
f 124/124 122/122 123/123
f 124/124 113/113 125/125
f 126/126 124/124 125/125
f 119/119 118/118 127/127
f 128/128 119/119 127/127
f 120/120 129/129 118/118
f 129/129 127/127 118/118
f 126/126 130/130 124/124
f 130/130 122/122 124/124
f 128/128 127/127 131/131
f 132/132 128/128 131/131
f 126/126 133/133 130/130
f 133/133 126/126 134/134
f 129/129 120/120 135/135
f 120/120 122/122 135/135
f 130/130 136/136 122/122
f 136/136 130/130 133/133
f 137/137 135/135 122/122
f 136/136 137/137 122/122
f 138/138 136/136 133/133
f 138/138 137/137 136/136
f 138/138 133/133 139/139
f 139/139 133/133 134/134
f 129/129 140/140 127/127
f 140/140 131/131 127/127
f 129/129 135/135 141/141
f 137/137 141/141 135/135
f 137/137 138/138 142/142
f 138/138 139/139 142/142
f 143/143 140/140 129/129
f 129/129 141/141 143/143
f 137/137 144/144 141/141
f 137/137 142/142 144/144
f 141/141 145/145 143/143
f 144/144 145/145 141/141
f 143/143 146/146 140/140
f 145/145 146/146 143/143
f 140/140 147/147 131/131
f 146/146 147/147 140/140
f 148/148 145/145 144/144
f 145/145 148/148 146/146
f 147/147 149/149 131/131
f 132/132 131/131 149/149
f 150/150 132/132 149/149
f 147/147 150/150 149/149
f 151/151 132/132 150/150
f 151/151 150/150 152/152
f 153/153 151/151 152/152
f 147/147 154/154 150/150
f 154/154 152/152 150/150
f 146/146 155/155 147/147
f 155/155 154/154 147/147
f 153/153 152/152 156/156
f 154/154 156/156 152/152
f 153/153 156/156 157/157
f 153/153 157/157 158/158
f 154/154 159/159 156/156
f 159/159 157/157 156/156
f 158/158 157/157 160/160
f 161/161 158/158 160/160
f 162/162 155/155 146/146
f 148/148 162/162 146/146
f 155/155 163/163 154/154
f 163/163 159/159 154/154
f 162/162 164/164 155/155
f 163/163 155/155 164/164
f 162/162 148/148 165/165
f 165/165 164/164 162/162
f 159/159 166/166 157/157
f 160/160 157/157 166/166
f 165/165 148/148 167/167
f 148/148 144/144 167/167
f 168/168 167/167 144/144
f 168/168 144/144 142/142
f 169/169 168/168 142/142
f 139/139 169/169 142/142
f 168/168 170/170 167/167
f 169/169 170/170 168/168
f 139/139 171/171 169/169
f 171/171 139/139 134/134
f 169/169 171/171 172/172
f 172/172 170/170 169/169
f 172/172 173/173 170/170
f 174/174 167/167 170/170
f 174/174 165/165 167/167
f 173/173 174/174 170/170
f 134/134 175/175 171/171
f 172/172 171/171 175/175
f 134/134 176/176 175/175
f 174/174 177/177 165/165
f 177/177 174/174 173/173
f 175/175 178/178 172/172
f 172/172 178/178 173/173
f 176/176 179/179 175/175
f 179/179 178/178 175/175
f 176/176 180/180 179/179
f 181/181 178/178 179/179
f 181/181 173/173 178/178
f 181/181 182/182 173/173
f 180/180 183/183 179/179
f 183/183 181/181 179/179
f 184/184 183/183 180/180
f 184/184 180/180 185/185
f 183/183 186/186 181/181
f 184/184 186/186 183/183
f 182/182 181/181 186/186
f 187/187 184/184 185/185
f 184/184 187/187 186/186
f 187/187 185/185 188/188
f 189/189 177/177 173/173
f 189/189 173/173 182/182
f 190/190 177/177 189/189
f 182/182 190/190 189/189
f 177/177 190/190 191/191
f 177/177 191/191 165/165
f 191/191 164/164 165/165
f 191/191 190/190 192/192
f 191/191 192/192 164/164
f 190/190 182/182 192/192
f 193/193 182/182 186/186
f 187/187 193/193 186/186
f 182/182 193/193 194/194
f 194/194 193/193 187/187
f 194/194 192/192 182/182
f 187/187 188/188 195/195
f 195/195 194/194 187/187
f 188/188 196/196 195/195
f 192/192 197/197 164/164
f 164/164 197/197 163/163
f 195/195 196/196 198/198
f 199/199 198/198 196/196
f 192/192 200/200 197/197
f 194/194 200/200 192/192
f 197/197 201/201 163/163
f 201/201 197/197 200/200
f 163/163 201/201 159/159
f 201/201 202/202 159/159
f 201/201 200/200 202/202
f 202/202 166/166 159/159
f 203/203 202/202 200/200
f 203/203 200/200 194/194
f 202/202 204/204 166/166
f 204/204 202/202 203/203
f 205/205 194/194 195/195
f 205/205 195/195 198/198
f 206/206 198/198 199/199
f 206/206 199/199 207/207
f 208/208 206/206 207/207
f 207/207 209/209 208/208
f 209/209 210/210 208/208
f 211/211 210/210 209/209
f 212/212 198/198 206/206
f 212/212 206/206 208/208
f 166/166 204/204 213/213
f 160/160 166/166 213/213
f 214/214 205/205 198/198
f 212/212 214/214 198/198
f 215/215 214/214 212/212
f 212/212 208/208 216/216
f 216/216 208/208 210/210
f 217/217 205/205 214/214
f 215/215 217/217 214/214
f 212/212 216/216 218/218
f 215/215 212/212 218/218
f 217/217 219/219 205/205
f 205/205 219/219 194/194
f 219/219 217/217 194/194
f 203/203 194/194 217/217
f 217/217 215/215 203/203
f 216/216 220/220 218/218
f 220/220 216/216 210/210
f 215/215 221/221 203/203
f 221/221 204/204 203/203
f 222/222 215/215 218/218
f 220/220 222/222 218/218
f 223/223 221/221 215/215
f 215/215 222/222 223/223
f 221/221 224/224 204/204
f 224/224 221/221 223/223
f 225/225 204/204 224/224
f 204/204 225/225 213/213
f 220/220 226/226 222/222
f 210/210 227/227 220/220
f 227/227 226/226 220/220
f 226/226 228/228 222/222
f 223/223 222/222 228/228
f 227/227 229/229 226/226
f 226/226 229/229 228/228
f 210/210 230/230 227/227
f 229/229 227/227 230/230
f 230/230 231/231 229/229
f 232/232 228/228 229/229
f 232/232 229/229 231/231
f 223/223 228/228 233/233
f 228/228 232/232 233/233
f 224/224 223/223 234/234
f 223/223 233/233 234/234
f 235/235 230/230 210/210
f 211/211 235/235 210/210
f 235/235 236/236 230/230
f 211/211 236/236 235/235
f 230/230 236/236 231/231
f 211/211 237/237 236/236
f 237/237 231/231 236/236
f 232/232 238/238 233/233
f 234/234 233/233 238/238
f 234/234 239/239 224/224
f 234/234 238/238 239/239
f 224/224 239/239 225/225
f 240/240 232/232 231/231
f 232/232 240/240 238/238
f 241/241 231/231 237/237
f 241/241 237/237 242/242
f 241/241 242/242 243/243
f 244/244 231/231 241/241
f 240/240 231/231 244/244
f 245/245 241/241 243/243
f 245/245 244/244 241/241
f 246/246 240/240 244/244
f 246/246 244/244 245/245
f 240/240 247/247 238/238
f 240/240 246/246 247/247
f 238/238 248/248 239/239
f 238/238 247/247 248/248
f 239/239 249/249 225/225
f 239/239 248/248 249/249
f 250/250 245/245 243/243
f 243/243 251/251 250/250
f 252/252 225/225 249/249
f 252/252 213/213 225/225
f 253/253 213/213 252/252
f 253/253 160/160 213/213
f 161/161 160/160 253/253
f 161/161 253/253 254/254
f 254/254 253/253 252/252
f 161/161 254/254 255/255
f 256/256 254/254 252/252
f 256/256 255/255 254/254
f 257/257 252/252 249/249
f 256/256 252/252 257/257
f 258/258 257/257 249/249
f 256/256 257/257 258/258
f 258/258 249/249 248/248
f 255/255 256/256 259/259
f 259/259 256/256 258/258
f 255/255 259/259 260/260
f 260/260 259/259 261/261
f 262/262 258/258 248/248
f 259/259 258/258 262/262
f 263/263 261/261 259/259
f 263/263 259/259 262/262
f 261/261 263/263 264/264
f 264/264 263/263 262/262
f 265/265 261/261 264/264
f 265/265 264/264 266/266
f 262/262 248/248 267/267
f 264/264 262/262 267/267
f 247/247 267/267 248/248
f 264/264 267/267 268/268
f 268/268 266/266 264/264
f 267/267 247/247 269/269
f 267/267 269/269 268/268
f 270/270 265/265 266/266
f 271/271 265/265 270/270
f 271/271 270/270 272/272
f 271/271 272/272 273/273
f 272/272 274/274 273/273
f 273/273 274/274 275/275
f 274/274 272/272 276/276
f 276/276 272/272 277/277
f 276/276 277/277 278/278
f 278/278 277/277 279/279
f 277/277 280/280 279/279
f 281/281 280/280 277/277
f 272/272 270/270 282/282
f 270/270 266/266 282/282
f 272/272 282/282 277/277
f 281/281 277/277 283/283
f 283/283 284/284 281/281
f 282/282 285/285 277/277
f 266/266 285/285 282/282
f 277/277 285/285 283/283
f 286/286 285/285 266/266
f 285/285 286/286 283/283
f 287/287 284/284 283/283
f 287/287 251/251 284/284
f 288/288 287/287 283/283
f 287/287 288/288 251/251
f 288/288 283/283 286/286
f 251/251 288/288 250/250
f 250/250 288/288 289/289
f 289/289 288/288 286/286
f 245/245 250/250 289/289
f 286/286 266/266 290/290
f 289/289 286/286 290/290
f 266/266 268/268 290/290
f 269/269 290/290 268/268
f 291/291 245/245 289/289
f 291/291 289/289 290/290
f 290/290 269/269 291/291
f 245/245 291/291 246/246
f 269/269 292/292 291/291
f 246/246 291/291 292/292
f 247/247 292/292 269/269
f 246/246 292/292 247/247
f 295/295 294/294 293/293
f 293/293 296/296 295/295
f 293/293 297/297 296/296
f 293/293 298/298 297/297
f 298/298 299/299 297/297
f 298/298 300/300 299/299
f 300/300 301/301 299/299
f 301/301 302/302 299/299
f 301/301 303/303 302/302
f 304/304 303/303 301/301
f 303/303 304/304 305/305
f 306/306 303/303 305/305
f 307/307 306/306 305/305
f 307/307 308/308 306/306
f 307/307 309/309 308/308
f 309/309 310/310 308/308
f 309/309 311/311 310/310
f 311/311 312/312 310/310
f 313/313 312/312 311/311
f 313/313 314/314 312/312
f 314/314 313/313 315/315
f 316/316 314/314 315/315
f 316/316 315/315 317/317
f 318/318 316/316 317/317
f 318/318 317/317 319/319
f 320/320 318/318 319/319
f 320/320 319/319 321/321
f 320/320 321/321 322/322
f 323/323 322/322 321/321
f 323/323 324/324 322/322
f 323/323 325/325 324/324
f 325/325 326/326 324/324
f 326/326 327/327 324/324
f 326/326 328/328 327/327
f 329/329 328/328 326/326
f 330/330 328/328 329/329
f 330/330 329/329 331/331
f 331/331 332/332 330/330
f 332/332 333/333 330/330
f 332/332 334/334 333/333
f 334/334 332/332 335/335
f 334/334 335/335 336/336
f 337/337 334/334 336/336
f 336/336 338/338 337/337
f 336/336 339/339 338/338
f 339/339 340/340 338/338
f 340/340 341/341 338/338
f 340/340 342/342 341/341
f 343/343 341/341 342/342
f 346/346 345/345 344/344
f 346/346 347/347 345/345
f 350/350 349/349 348/348
f 348/348 351/351 350/350
f 351/351 348/348 352/352
f 353/353 351/351 352/352
f 354/354 353/353 352/352
f 354/354 352/352 355/355
f 356/356 354/354 355/355
f 355/355 357/357 356/356
f 355/355 358/358 357/357
f 357/357 358/358 359/359
f 359/359 358/358 360/360
f 360/360 361/361 359/359
f 360/360 362/362 361/361
f 363/363 361/361 362/362
f 364/364 363/363 362/362
f 364/364 365/365 363/363
f 364/364 366/366 365/365
f 366/366 367/367 365/365
f 366/366 368/368 367/367
f 367/367 368/368 369/369
f 370/370 367/367 369/369
f 370/370 369/369 371/371
f 369/369 372/372 371/371
f 371/371 372/372 373/373
f 372/372 374/374 373/373
f 374/374 375/375 373/373
f 375/375 374/374 376/376
f 374/374 377/377 376/376
f 378/378 376/376 377/377
f 378/378 377/377 379/379
f 380/380 378/378 379/379
f 380/380 379/379 381/381
f 381/381 382/382 380/380
f 381/381 383/383 382/382
f 383/383 384/384 382/382
f 383/383 385/385 384/384
f 386/386 384/384 385/385
f 387/387 386/386 385/385
f 387/387 388/388 386/386
f 388/388 389/389 386/386
f 388/388 390/390 389/389
f 388/388 391/391 390/390
f 391/391 392/392 390/390
f 393/393 392/392 391/391
f 393/393 391/391 394/394
f 395/395 393/393 394/394
f 396/396 395/395 394/394
f 399/399 398/398 397/397
f 399/399 400/400 398/398
f 403/403 402/402 401/401
f 403/403 404/404 402/402
f 407/407 406/406 405/405
f 407/407 408/408 406/406
f 411/411 410/410 409/409
f 411/411 412/412 410/410
f 411/411 413/413 412/412
f 413/413 414/414 412/412
f 413/413 415/415 414/414
f 415/415 416/416 414/414
f 415/415 417/417 416/416
f 417/417 418/418 416/416
f 417/417 419/419 418/418
f 419/419 420/420 418/418
f 419/419 421/421 420/420
f 421/421 422/422 420/420
f 421/421 423/423 422/422
f 423/423 424/424 422/422
f 423/423 425/425 424/424
f 425/425 426/426 424/424
f 425/425 427/427 426/426
f 427/427 428/428 426/426
f 427/427 429/429 428/428
f 429/429 430/430 428/428
f 429/429 431/431 430/430
f 431/431 432/432 430/430
f 431/431 433/433 432/432
f 433/433 434/434 432/432
f 433/433 435/435 434/434
f 435/435 436/436 434/434
f 435/435 437/437 436/436
f 440/440 439/439 438/438
f 441/441 438/438 439/439
f 442/442 441/441 439/439
f 441/441 443/443 438/438
f 439/439 444/444 442/442
f 443/443 445/445 438/438
f 444/444 439/439 446/446
f 447/447 444/444 446/446
f 448/448 447/447 446/446
f 443/443 449/449 445/445
f 449/449 450/450 445/445
f 449/449 451/451 450/450
f 451/451 452/452 450/450
f 451/451 453/453 452/452
f 454/454 452/452 453/453
f 454/454 453/453 455/455
f 458/458 457/457 456/456
f 459/459 456/456 457/457
f 459/459 457/457 460/460
f 459/459 460/460 461/461
f 459/459 461/461 462/462
f 461/461 463/463 462/462
f 464/464 462/462 463/463
f 457/457 465/465 460/460
f 464/464 463/463 466/466
f 457/457 467/467 465/465
f 468/468 467/467 457/457
f 469/469 468/468 457/457
f 470/470 464/464 466/466
f 470/470 466/466 471/471
f 472/472 471/471 466/466
f 472/472 466/466 473/473
f 474/474 472/472 473/473
f 475/475 474/474 473/473
f 469/469 457/457 476/476
f 477/477 469/469 476/476
f 478/478 477/477 476/476
f 478/478 476/476 479/479
f 480/480 478/478 479/479
f 481/481 480/480 479/479
f 481/481 479/479 482/482
f 481/481 482/482 483/483
f 484/484 481/481 483/483
f 484/484 485/485 481/481
f 485/485 486/486 481/481
f 485/485 487/487 486/486
f 487/487 488/488 486/486
f 491/491 490/490 489/489
f 489/489 492/492 491/491
f 495/495 494/494 493/493
f 496/496 493/493 494/494
f 493/493 496/496 497/497
f 498/498 493/493 497/497
f 498/498 497/497 499/499
f 500/500 498/498 499/499
f 501/501 500/500 499/499
f 497/497 502/502 499/499
f 497/497 503/503 502/502
f 501/501 499/499 504/504
f 505/505 501/501 504/504
f 505/505 504/504 506/506
f 507/507 505/505 506/506
f 507/507 506/506 508/508
f 509/509 507/507 508/508
f 509/509 508/508 510/510
f 511/511 509/509 510/510
f 514/514 513/513 512/512
f 514/514 512/512 515/515
f 516/516 514/514 515/515
f 516/516 515/515 517/517
f 518/518 516/516 517/517
f 518/518 517/517 519/519
f 520/520 518/518 519/519
f 520/520 519/519 521/521
f 522/522 520/520 521/521
f 522/522 521/521 523/523
f 524/524 522/522 523/523
f 524/524 523/523 525/525
f 526/526 524/524 525/525
f 527/527 526/526 525/525
f 527/527 525/525 528/528
f 529/529 527/527 528/528
f 529/529 528/528 530/530
f 531/531 529/529 530/530
f 531/531 530/530 532/532
f 533/533 531/531 532/532
f 533/533 532/532 534/534
f 535/535 533/533 534/534
f 535/535 534/534 536/536
f 535/535 536/536 537/537
f 540/540 539/539 538/538
f 540/540 541/541 539/539
f 541/541 542/542 539/539
f 545/545 544/544 543/543
f 544/544 546/546 543/543
f 544/544 547/547 546/546
f 547/547 548/548 546/546
f 547/547 549/549 548/548
f 549/549 550/550 548/548
f 549/549 551/551 550/550
f 551/551 552/552 550/550
f 551/551 553/553 552/552
f 553/553 554/554 552/552
f 553/553 555/555 554/554
f 555/555 556/556 554/554
f 555/555 557/557 556/556
f 557/557 558/558 556/556
f 557/557 559/559 558/558
f 559/559 560/560 558/558
f 559/559 561/561 560/560
f 561/561 562/562 560/560
f 561/561 563/563 562/562
f 563/563 564/564 562/562
f 563/563 565/565 564/564
f 565/565 566/566 564/564
f 569/569 568/568 567/567
f 569/569 570/570 568/568
f 570/570 571/571 568/568
f 574/574 573/573 572/572
f 574/574 575/575 573/573
f 574/574 576/576 575/575
f 577/577 576/576 574/574
f 578/578 577/577 574/574
f 578/578 574/574 579/579
f 580/580 578/578 579/579
f 581/581 578/578 580/580
f 581/581 582/582 578/578
f 582/582 583/583 578/578
f 586/586 585/585 584/584
f 587/587 586/586 584/584
f 587/587 584/584 588/588
f 589/589 588/588 584/584
f 592/592 591/591 590/590
f 592/592 593/593 591/591
f 596/596 595/595 594/594
f 596/596 594/594 597/597
f 598/598 596/596 597/597
f 597/597 599/599 598/598
f 594/594 600/600 597/597
f 599/599 597/597 600/600
f 594/594 601/601 600/600
f 600/600 601/601 602/602
f 600/600 603/603 599/599
f 604/604 600/600 602/602
f 600/600 604/604 603/603
f 604/604 605/605 603/603
f 603/603 605/605 606/606
f 604/604 607/607 605/605
f 607/607 606/606 605/605
f 607/607 608/608 606/606
f 608/608 607/607 609/609
f 606/606 608/608 610/610
f 610/610 608/608 609/609
f 611/611 606/606 610/610
f 610/610 609/609 612/612
f 613/613 611/611 610/610
f 614/614 610/610 612/612
f 613/613 610/610 614/614
f 614/614 612/612 615/615
f 614/614 615/615 616/616
f 613/613 614/614 617/617
f 617/617 614/614 616/616
f 613/613 617/617 618/618
f 616/616 619/619 617/617
f 618/618 617/617 620/620
f 617/617 619/619 620/620
f 618/618 620/620 621/621
f 620/620 619/619 622/622
f 621/621 620/620 622/622
f 622/622 623/623 621/621
f 622/622 624/624 623/623
f 624/624 625/625 623/623
f 622/622 626/626 624/624
f 624/624 627/627 625/625
f 626/626 627/627 624/624
f 626/626 628/628 627/627
f 628/628 629/629 627/627
f 627/627 630/630 625/625
f 629/629 631/631 627/627
f 627/627 631/631 630/630
f 629/629 632/632 631/631
f 631/631 633/633 630/630
f 632/632 633/633 631/631
f 633/633 634/634 630/630
f 632/632 635/635 633/633
f 632/632 636/636 635/635
f 633/633 637/637 634/634
f 635/635 637/637 633/633
f 636/636 637/637 635/635
f 638/638 634/634 637/637
f 636/636 639/639 637/637
f 637/637 639/639 638/638
f 640/640 638/638 639/639
f 640/640 639/639 641/641
f 640/640 642/642 638/638
f 640/640 641/641 643/643
f 640/640 644/644 642/642
f 640/640 643/643 645/645
f 644/644 640/640 646/646
f 646/646 640/640 645/645
f 647/647 644/644 646/646
f 648/648 646/646 645/645
f 651/651 650/650 649/649
f 650/650 652/652 649/649
f 650/650 653/653 652/652
f 650/650 654/654 653/653
f 652/652 653/653 655/655
f 655/655 653/653 656/656
f 657/657 655/655 656/656
f 657/657 656/656 658/658
f 657/657 659/659 655/655
f 659/659 657/657 658/658
f 658/658 660/660 659/659
f 660/660 661/661 659/659
f 660/660 662/662 661/661
f 662/662 663/663 661/661
f 662/662 664/664 663/663
f 664/664 665/665 663/663
f 666/666 663/663 665/665
f 666/666 665/665 667/667
f 666/666 667/667 668/668
f 669/669 666/666 668/668
f 669/669 668/668 670/670
f 671/671 669/669 670/670
f 671/671 670/670 672/672
f 671/671 672/672 673/673
f 672/672 674/674 673/673
f 672/672 675/675 674/674
f 675/675 676/676 674/674
f 676/676 677/677 674/674
f 678/678 677/677 676/676
f 679/679 677/677 678/678
f 679/679 680/680 677/677
f 679/679 681/681 680/680
f 682/682 680/680 681/681
f 682/682 683/683 680/680
f 682/682 684/684 683/683
f 684/684 685/685 683/683
f 684/684 686/686 685/685
f 685/685 687/687 683/683
f 687/687 685/685 686/686
f 687/687 686/686 688/688
f 689/689 687/687 688/688
f 690/690 689/689 688/688
f 690/690 688/688 691/691
f 692/692 689/689 690/690
f 693/693 689/689 692/692
f 696/696 695/695 694/694
f 696/696 694/694 697/697
f 694/694 695/695 698/698
f 694/694 699/699 697/697
f 698/698 700/700 694/694
f 701/701 699/699 694/694
f 694/694 700/700 702/702
f 694/694 703/703 701/701
f 694/694 702/702 704/704
f 705/705 703/703 694/694
f 704/704 706/706 694/694
f 707/707 705/705 694/694
f 694/694 706/706 708/708
f 709/709 707/707 694/694
f 708/708 710/710 694/694
f 711/711 709/709 694/694
f 694/694 710/710 712/712
f 694/694 713/713 711/711
f 694/694 712/712 714/714
f 715/715 713/713 694/694
f 714/714 716/716 694/694
f 717/717 715/715 694/694
f 694/694 716/716 718/718
f 694/694 719/719 717/717
f 718/718 720/720 694/694
f 694/694 721/721 719/719
f 722/722 694/694 720/720
f 723/723 721/721 694/694
f 722/722 724/724 694/694
f 694/694 725/725 723/723
f 724/724 726/726 694/694
f 726/726 725/725 694/694
