v 0.749808037 2.14656778 0.148523335
v -0.75228717 2.14656778 0.148523081
v -0.75228717 2.18456779 0.148523081
v 0.749808037 2.18456779 0.148523335
v 0.749808037 2.14656778 0.148523335
v 0.749808037 2.18456779 0.148523335
v 0.749807735 2.18456779 1.94010631
v 0.749807735 2.14656778 1.94010631
v 0.749807735 2.14656778 1.94010631
v 0.749807735 2.18456779 1.94010631
v -0.752287473 2.18456779 1.94010605
v -0.752287473 2.14656778 1.94010605
v -0.75228717 2.14656778 0.148523081
v -0.752287473 2.14656778 1.94010605
v -0.752287473 2.18456779 1.94010605
v -0.75228717 2.18456779 0.148523081
v 0.749807735 2.18456779 1.94010631
v 0.737615756 2.18456779 1.92790897
v -0.740095489 2.18456779 1.92790872
v -0.752287473 2.18456779 1.94010605
v -0.752287473 2.14656778 1.94010605
v -0.740095489 2.14656778 1.92790872
v 0.737615756 2.14656778 1.92790897
v 0.749807735 2.14656778 1.94010631
v 0.749808037 2.18456779 0.148523335
v 0.737616054 2.18456779 0.160720797
v 0.737615756 2.18456779 1.92790897
v 0.749807735 2.18456779 1.94010631
v 0.749807735 2.14656778 1.94010631
v 0.737615756 2.14656778 1.92790897
v 0.737616054 2.14656778 0.160720797
v 0.749808037 2.14656778 0.148523335
v 0.737616054 2.18456779 0.160720797
v 0.737616054 2.18956806 0.160720797
v 0.737615756 2.18956806 1.92790897
v 0.737615756 2.18456779 1.92790897
v 0.737615756 2.14656778 1.92790897
v 0.737615756 2.14156769 1.92790897
v 0.737616054 2.14156769 0.160720797
v 0.737616054 2.14656778 0.160720797
v -0.740095489 2.18456779 1.92790872
v -0.740095489 2.18956806 1.92790872
v -0.740095191 2.18956806 0.160720548
v -0.740095191 2.18456779 0.160720548
v -0.740095191 2.18456779 0.160720548
v -0.740095191 2.18956806 0.160720548
v 0.737616054 2.18956806 0.160720797
v 0.737616054 2.18456779 0.160720797
v -0.740095191 2.14656778 0.160720548
v -0.740095191 2.14156769 0.160720548
v -0.740095489 2.14156769 1.92790872
v -0.740095489 2.14656778 1.92790872
v -0.740095489 2.14656778 1.92790872
v -0.740095489 2.14156769 1.92790872
v 0.737615756 2.14156769 1.92790897
v 0.737615756 2.14656778 1.92790897
v 0.737615756 2.18456779 1.92790897
v 0.737615756 2.18956806 1.92790897
v -0.740095489 2.18956806 1.92790872
v -0.740095489 2.18456779 1.92790872
v 0.737616054 2.14656778 0.160720797
v 0.737616054 2.14156769 0.160720797
v -0.740095191 2.14156769 0.160720548
v -0.740095191 2.14656778 0.160720548
v 0.749808037 2.14656778 0.148523335
v 0.737616054 2.14656778 0.160720797
v -0.740095191 2.14656778 0.160720548
v -0.75228717 2.14656778 0.148523081
v -0.75228717 2.14656778 0.148523081
v -0.740095191 2.14656778 0.160720548
v -0.740095489 2.14656778 1.92790872
v -0.752287473 2.14656778 1.94010605
v -0.75228717 2.18456779 0.148523081
v -0.740095191 2.18456779 0.160720548
v 0.737616054 2.18456779 0.160720797
v 0.749808037 2.18456779 0.148523335
v -0.752287473 2.18456779 1.94010605
v -0.740095489 2.18456779 1.92790872
v -0.740095191 2.18456779 0.160720548
v -0.75228717 2.18456779 0.148523081
v 0.759520989 2.14156769 0.132507688
v 0.761999977 2.14456748 0.129314782
v -0.764479059 2.14456841 0.129314525
v -0.762000072 2.14156806 0.132507431
v 0.761999977 2.18656827 0.129314782
v 0.759520989 2.18956806 0.132507688
v -0.762000072 2.18956806 0.132507431
v -0.764479059 2.18656827 0.129314525
v 0.761999977 2.14456748 0.129314782
v 0.759520989 2.14156769 0.132507688
v 0.759520682 2.14156769 1.95612194
v 0.761999668 2.14456748 1.95931484
v 0.759520989 2.18956806 0.132507688
v 0.761999977 2.18656827 0.129314782
v 0.761999668 2.18656827 1.95931484
v 0.759520682 2.18956806 1.95612194
v 0.761999668 2.14456748 1.95931484
v 0.759520682 2.14156769 1.95612194
v -0.76200038 2.14156769 1.95612169
v -0.764479367 2.14456748 1.95931458
v 0.759520682 2.18956806 1.95612194
v 0.761999668 2.18656827 1.95931484
v -0.764479367 2.18656827 1.95931458
v -0.76200038 2.18956806 1.95612169
v -0.762000072 2.14156806 0.132507431
v -0.764479059 2.14456841 0.129314525
v -0.764479367 2.14456748 1.95931458
v -0.76200038 2.14156769 1.95612169
v -0.764479059 2.18656827 0.129314525
v -0.762000072 2.18956806 0.132507431
v -0.76200038 2.18956806 1.95612169
v -0.764479367 2.18656827 1.95931458
v 0.737616054 2.14156769 0.160720797
v 0.759520989 2.14156769 0.132507688
v -0.762000072 2.14156806 0.132507431
v -0.740095191 2.14156769 0.160720548
v 0.761999668 2.18656827 1.95931484
v 0.761999977 2.18656827 0.129314782
v 0.761999977 2.14456748 0.129314782
v 0.761999668 2.14456748 1.95931484
v 0.761999977 2.18656827 0.129314782
v -0.764479059 2.18656827 0.129314525
v -0.764479059 2.14456841 0.129314525
v 0.761999977 2.14456748 0.129314782
v 0.737615756 2.14156769 1.92790897
v 0.759520682 2.14156769 1.95612194
v 0.759520989 2.14156769 0.132507688
v 0.737616054 2.14156769 0.160720797
v -0.764479059 2.18656827 0.129314525
v -0.764479367 2.18656827 1.95931458
v -0.764479367 2.14456748 1.95931458
v -0.764479059 2.14456841 0.129314525
v -0.762000072 2.14156806 0.132507431
v -0.76200038 2.14156769 1.95612169
v -0.740095489 2.14156769 1.92790872
v -0.740095191 2.14156769 0.160720548
v -0.762000072 2.18956806 0.132507431
v 0.759520989 2.18956806 0.132507688
v 0.737616054 2.18956806 0.160720797
v -0.740095191 2.18956806 0.160720548
v 0.737615756 2.18956806 1.92790897
v 0.737616054 2.18956806 0.160720797
v 0.759520989 2.18956806 0.132507688
v 0.759520682 2.18956806 1.95612194
v -0.76200038 2.18956806 1.95612169
v -0.762000072 2.18956806 0.132507431
v -0.740095191 2.18956806 0.160720548
v -0.740095489 2.18956806 1.92790872
v -0.764479367 2.18656827 1.95931458
v 0.761999668 2.18656827 1.95931484
v 0.761999668 2.14456748 1.95931484
v -0.764479367 2.14456748 1.95931458
v 0.737615756 2.14156769 1.92790897
v -0.740095489 2.14156769 1.92790872
v -0.76200038 2.14156769 1.95612169
v 0.759520682 2.14156769 1.95612194
v -0.76200038 2.18956806 1.95612169
v -0.740095489 2.18956806 1.92790872
v 0.737615756 2.18956806 1.92790897
v 0.759520682 2.18956806 1.95612194
vt 0.181030273 0.987792969
vt 0.181030273 0.00428771973
vt 0.163208008 0.00428771973
vt 0.163208008 0.987792969
vt 0.40625 0.00455856323
vt 0.388427734 0.00455856323
vt 0.388427734 0.878417969
vt 0.40625 0.878417969
vt 0.190551758 0.987792969
vt 0.208374023 0.987792969
vt 0.208374023 0.00428771973
vt 0.190551758 0.00428771973
vt 0.361083984 0.00455474854
vt 0.361083984 0.878417969
vt 0.37890625 0.878417969
vt 0.37890625 0.00455474854
vt 0.0838623047 0.994140625
vt 0.08984375 0.98828125
vt 0.08984375 0.0164642334
vt 0.0838623047 0.0105209351
vt 0.153564453 0.0105209351
vt 0.147583008 0.0164642334
vt 0.147583008 0.98828125
vt 0.153564453 0.994140625
vt 0.280029297 0.013458252
vt 0.273925781 0.0194091797
vt 0.273925781 0.881347656
vt 0.280029297 0.887207031
vt 0.217041016 0.887207031
vt 0.223022461 0.881347656
vt 0.223022461 0.0194091797
vt 0.217041016 0.013458252
vt 0.273925781 0.0194091797
vt 0.271728516 0.0194091797
vt 0.271728516 0.881347656
vt 0.273925781 0.881347656
vt 0.223022461 0.881347656
vt 0.225341797 0.881347656
vt 0.225341797 0.0194091797
vt 0.223022461 0.0194091797
vt 0.294677734 0.881347656
vt 0.296875 0.881347656
vt 0.296875 0.0194091797
vt 0.294677734 0.0194091797
vt 0.0106658936 0.98828125
vt 0.0130081177 0.98828125
vt 0.0130081177 0.0164642334
vt 0.0106658936 0.0164642334
vt 0.345458984 0.0194091797
vt 0.343261719 0.0194091797
vt 0.343261719 0.881347656
vt 0.345458984 0.881347656
vt 0.147583008 0.0164642334
vt 0.145263672 0.0164642334
vt 0.145263672 0.98828125
vt 0.147583008 0.98828125
vt 0.08984375 0.98828125
vt 0.0921630859 0.98828125
vt 0.0921630859 0.0164642334
vt 0.08984375 0.0164642334
vt 0.0684814453 0.0164642334
vt 0.0661010742 0.0164642334
vt 0.0661010742 0.98828125
vt 0.0684814453 0.98828125
vt 0.0744018555 0.0105209351
vt 0.0684814453 0.0164642334
vt 0.0684814453 0.98828125
vt 0.0744018555 0.994140625
vt 0.3515625 0.013458252
vt 0.345458984 0.0194091797
vt 0.345458984 0.881347656
vt 0.3515625 0.887207031
vt 0.00471878052 0.994140625
vt 0.0106658936 0.98828125
vt 0.0106658936 0.0164642334
vt 0.00471878052 0.0105209351
vt 0.288574219 0.887207031
vt 0.294677734 0.881347656
vt 0.294677734 0.0194091797
vt 0.288574219 0.013458252
vt 0.0523681641 0.00577926636
vt 0.049407959 0.00457000732
vt 0.049407959 1
vt 0.0523681641 0.999023438
vt 0.0297241211 0.00457000732
vt 0.026763916 0.00577926636
vt 0.026763916 0.999023438
vt 0.0297241211 1
vt 0.238647461 0.00408935547
vt 0.236083984 0.00564575195
vt 0.236083984 0.895019531
vt 0.238647461 0.896484375
vt 0.260986328 0.00564575195
vt 0.258300781 0.00408935547
vt 0.258300781 0.896484375
vt 0.260986328 0.895019531
vt 0.128540039 1
vt 0.131469727 0.999023438
vt 0.131469727 0.00577926636
vt 0.128540039 0.00457000732
vt 0.105895996 0.999023438
vt 0.108886719 1
vt 0.108886719 0.00457000732
vt 0.105895996 0.00577926636
vt 0.332519531 0.00564575195
vt 0.329833984 0.00408935547
vt 0.329833984 0.896484375
vt 0.332519531 0.895019531
vt 0.310302734 0.00408935547
vt 0.307617188 0.00564575195
vt 0.307617188 0.895019531
vt 0.310302734 0.896484375
vt 0.0661010742 0.0164642334
vt 0.0523681641 0.00577926636
vt 0.0523681641 0.999023438
vt 0.0661010742 0.98828125
vt 0.258300781 0.896484375
vt 0.258300781 0.00408935547
vt 0.238647461 0.00408935547
vt 0.238647461 0.896484375
vt 0.0297241211 0.00457000732
vt 0.0297241211 1
vt 0.049407959 1
vt 0.049407959 0.00457000732
vt 0.225341797 0.881347656
vt 0.236083984 0.895019531
vt 0.236083984 0.00564575195
vt 0.225341797 0.0194091797
vt 0.310302734 0.00408935547
vt 0.310302734 0.896484375
vt 0.329833984 0.896484375
vt 0.329833984 0.00408935547
vt 0.332519531 0.00564575195
vt 0.332519531 0.895019531
vt 0.343261719 0.881347656
vt 0.343261719 0.0194091797
vt 0.026763916 0.999023438
vt 0.026763916 0.00577926636
vt 0.0130081177 0.0164642334
vt 0.0130081177 0.98828125
vt 0.271728516 0.881347656
vt 0.271728516 0.0194091797
vt 0.260986328 0.00564575195
vt 0.260986328 0.895019531
vt 0.307617188 0.895019531
vt 0.307617188 0.00564575195
vt 0.296875 0.0194091797
vt 0.296875 0.881347656
vt 0.108886719 0.00457000732
vt 0.108886719 1
vt 0.128540039 1
vt 0.128540039 0.00457000732
vt 0.145263672 0.98828125
vt 0.145263672 0.0164642334
vt 0.131469727 0.00577926636
vt 0.131469727 0.999023438
vt 0.105895996 0.00577926636
vt 0.0921630859 0.0164642334
vt 0.0921630859 0.98828125
vt 0.105895996 0.999023438
f 3/3 2/2 1/1
f 4/4 3/3 1/1
f 7/7 6/6 5/5
f 8/8 7/7 5/5
f 11/11 10/10 9/9
f 12/12 11/11 9/9
f 15/15 14/14 13/13
f 16/16 15/15 13/13
f 19/19 18/18 17/17
f 20/20 19/19 17/17
f 23/23 22/22 21/21
f 24/24 23/23 21/21
f 27/27 26/26 25/25
f 28/28 27/27 25/25
f 31/31 30/30 29/29
f 32/32 31/31 29/29
f 35/35 34/34 33/33
f 36/36 35/35 33/33
f 39/39 38/38 37/37
f 40/40 39/39 37/37
f 43/43 42/42 41/41
f 44/44 43/43 41/41
f 47/47 46/46 45/45
f 48/48 47/47 45/45
f 51/51 50/50 49/49
f 52/52 51/51 49/49
f 55/55 54/54 53/53
f 56/56 55/55 53/53
f 59/59 58/58 57/57
f 60/60 59/59 57/57
f 63/63 62/62 61/61
f 64/64 63/63 61/61
f 67/67 66/66 65/65
f 68/68 67/67 65/65
f 71/71 70/70 69/69
f 72/72 71/71 69/69
f 75/75 74/74 73/73
f 76/76 75/75 73/73
f 79/79 78/78 77/77
f 80/80 79/79 77/77
f 83/83 82/82 81/81
f 84/84 83/83 81/81
f 87/87 86/86 85/85
f 88/88 87/87 85/85
f 91/91 90/90 89/89
f 92/92 91/91 89/89
f 95/95 94/94 93/93
f 96/96 95/95 93/93
f 99/99 98/98 97/97
f 100/100 99/99 97/97
f 103/103 102/102 101/101
f 104/104 103/103 101/101
f 107/107 106/106 105/105
f 108/108 107/107 105/105
f 111/111 110/110 109/109
f 112/112 111/111 109/109
f 115/115 114/114 113/113
f 116/116 115/115 113/113
f 119/119 118/118 117/117
f 120/120 119/119 117/117
f 123/123 122/122 121/121
f 124/124 123/123 121/121
f 127/127 126/126 125/125
f 128/128 127/127 125/125
f 131/131 130/130 129/129
f 132/132 131/131 129/129
f 135/135 134/134 133/133
f 136/136 135/135 133/133
f 139/139 138/138 137/137
f 140/140 139/139 137/137
f 143/143 142/142 141/141
f 144/144 143/143 141/141
f 147/147 146/146 145/145
f 148/148 147/147 145/145
f 151/151 150/150 149/149
f 152/152 151/151 149/149
f 155/155 154/154 153/153
f 156/156 155/155 153/153
f 159/159 158/158 157/157
f 160/160 159/159 157/157
