v 0.0510520308 -0.00741568573 0.0244346447
v 0.0669341075 -0.00752363045 0.0244730036
v 0.0688723938 -0.0104555378 0.0217719775
v 0.049220562 -0.0103718005 0.0222993345
v 0.0485838667 -0.0166856772 0.0211277686
v 0.0689153692 -0.0184349801 0.0193627508
v 0.0509517226 -0.0198252993 0.0198665686
v 0.0460294502 -0.0214668285 0.0202574942
v 0.0489585995 -0.0233918415 0.0182361095
v 0.0689423082 -0.0241539395 0.01621337
v 0.041969955 -0.0242543399 0.0200054696
v 0.050610248 -0.0265635011 0.0152345805
v 0.068930923 -0.026948517 0.0138662333
v 0.04314536 -0.027348368 0.0156974842
v 0.0379088534 -0.0287284809 0.0149888205
v 0.0368883623 -0.0255829739 0.020554442
v 0.00416285008 -0.025718976 0.0296451413
v 0.0468576556 -0.0293062697 0.0118617703
v 0.0689178732 -0.0301558522 0.00992215064
v 0.0465164192 -0.0313312298 0.00786415912
v 0.0689012435 -0.0332726105 0.00214686497
v 0.0294405238 -0.0320906521 0.00916553108
v 0.0452068459 -0.0327654202 0.00384108534
v 0.0391061331 -0.0338077453 -0.00034158536
v 0.04141033 -0.0345130735 -0.00579698426
v 0.0689383161 -0.0344920843 -0.00529274148
v 0.0689514885 -0.0346749844 -0.0135318638
v 0.00527900695 -0.0283936791 0.0248110067
v 0.00137162477 -0.031009782 0.0197181274
v -0.00114208214 -0.0282129943 0.0256910658
v -0.00515240202 -0.0257049342 0.0294596481
v 0.0037144451 -0.0330181382 0.01305318
v -0.00229394126 -0.034449078 0.00572364916
v 0.037476959 -0.0347498655 -0.0103249011
v -0.0109180783 -0.0283424054 0.0232427876
v -0.0141465636 -0.0257077494 0.0264438917
v -0.00313383027 -0.0330466925 0.0131672306
v -0.00714200453 -0.0309910399 0.0184620963
v -0.0200939748 -0.0282302545 0.0161428296
v -0.0222528549 -0.0256989345 0.0199925373
v -0.0275960548 -0.0257474453 0.0115477844
v -0.00990616975 -0.0330363991 0.00915530691
v -0.0145984263 -0.0310162823 0.0134217567
v -0.0250973074 -0.0283323716 0.00550699733
v -0.0297410449 -0.025705437 0.00284999842
v -0.00488596841 -0.0345646524 0.00104698956
v -0.0133655631 -0.0330466527 0.0021285945
v -0.0196020572 -0.0310606748 0.00306856928
v -0.0250788905 -0.0282202986 -0.00603996014
v -0.0294595934 -0.025705015 -0.00515254214
v -0.0264437759 -0.0257078378 -0.0141467171
v -0.00438296473 -0.0344486242 -0.00410535467
v -0.0125492181 -0.0330312741 -0.00482080031
v -0.0184619394 -0.0309917946 -0.00714197959
v -0.0216531135 -0.0282018232 -0.0139008494
v -0.00770657937 -0.0329900016 -0.0115325449
v 0.0344128029 -0.0345165462 -0.0150405918
v 0.0689407607 -0.0339019168 -0.0199460716
v -0.0161427834 -0.0282306704 -0.0200940049
v -0.0199925277 -0.02569901 -0.0222529081
v -0.0120689248 -0.0257234158 -0.0273660087
v -0.0151259274 -0.0309787151 -0.0127115272
v 0.0308576855 -0.0335907711 -0.020594988
v 0.0464170589 -0.0334487896 -0.0223375988
v 0.0689459469 -0.0324266437 -0.0255553517
v -0.00972473301 -0.0309603472 -0.0173820954
v 0.0334150215 -0.0319609186 -0.0273791084
v 0.0470710422 -0.0316505658 -0.0287303177
v 0.0689579839 -0.0288869805 -0.0324766093
v -0.00836229051 -0.0286430244 -0.023485627
v 0.0351067193 -0.0300225218 -0.0328544731
v 0.029567064 -0.0277817806 -0.0359120575
v 0.021251919 -0.0257055111 -0.0370619004
v 0.0331804178 -0.0252825616 -0.039498441
v 0.037229599 -0.0273853304 -0.0373902469
v 0.0403246281 -0.0239413793 -0.0405833795
v 0.0454767953 -0.0295329741 -0.0339208025
v 0.0438152574 -0.0269505361 -0.0378663972
v 0.0689304454 -0.0235088575 -0.0381469494
v 0.0456278929 -0.020957465 -0.0414281763
v 0.0689576279 -0.0181175723 -0.0411688088
v 0.0487412805 -0.0157338248 -0.0423283433
v 0.0688650596 -0.010357396 -0.0432080618
v 0.0494078392 -0.00965723598 -0.0434840913
v 0.0669427514 -0.00745239082 -0.0454042689
v 0.0511557452 -0.00738197985 -0.0454106543
v 0.0669408411 0.00403419911 0.0244687602
v 0.0669341075 -0.00752363045 0.0244730036
v 0.051107525 0.00395644794 0.0244641735
v 0.0510520308 -0.00741568573 0.0244346447
v -0.0243043274 -0.0227101911 -0.0172788874
v -0.0198500735 -0.0227101936 -0.0222539005
v -0.0132832511 -0.022711069 -0.0267540483
v -0.027539905 -0.0227101928 -0.0114374365
v -0.0293945059 -0.022710193 -0.00502246512
v -0.0297751403 -0.0227101988 0.00164435005
v -0.0286626202 -0.0227102002 0.00822870788
v -0.0261129704 -0.0227101999 0.0144004473
v -0.022253868 -0.0227102054 0.01985009
v -0.0172789072 -0.022710205 0.02430436
v -0.0114374141 -0.0227102016 0.0275399041
v -0.0050223449 -0.0227102039 0.0293944904
v 0.00326162752 -0.0227155205 0.0297323044
v 0.035295131 -0.0226769114 0.0209031263
v 0.0224112888 -0.0227449151 -0.0373150251
v 0.0395738481 -0.0219485964 0.0199158443
v 0.0366500045 -0.0218212907 -0.0393146416
v 0.0399649162 -0.021370571 0.00579128682
v 0.0430707954 -0.0198857326 0.00745060752
v 0.0399975183 -0.0208809762 -0.0261710142
v 0.0444418797 -0.019162904 0.0193766347
v 0.0455749644 -0.0174137942 0.00971185509
v 0.0462600597 -0.0164125496 0.0194683234
v 0.04709834 -0.0135262659 0.0123186474
v 0.0470894575 -0.0131870622 0.019837539
v 0.047132254 -0.00507013598 0.0148810694
v 0.0471287964 -0.00499889126 0.0205336022
v 0.0437510013 -0.0190915254 -0.0399328244
v 0.0429332855 -0.0195268999 -0.0276435429
v 0.045351089 -0.0174123725 -0.0295328617
v 0.0463213931 -0.0159418708 -0.0403458776
v 0.0468203432 -0.0145669709 -0.0314747827
v 0.0471238495 -0.0129134775 -0.0407779124
v 0.0471605056 -0.0111475422 -0.0331614603
v 0.0471482262 -0.00609768019 -0.0414416252
v 0.0471471551 -0.00473347124 -0.0347530993
v 0.0471501347 0.00307437015 -0.0411116314
v 0.0471470934 0.00156236886 -0.0346763263
v 0.0471322534 0.00133832976 0.0148753737
v 0.0471323114 0.00333948895 0.020166699
v 0.0471306433 0.00956601046 0.0184303441
v 0.0471327302 0.00753480174 0.01324068
v 0.0471305813 0.0190852877 0.012705398
v 0.0471454248 0.0123661766 -0.0382588652
v 0.0471465574 0.00763935362 -0.0330289971
v 0.0471455441 0.0131120277 -0.0299156003
v 0.0471432179 0.0228221308 -0.0296182989
v 0.0471335621 0.0131121063 0.0100843972
v 0.0471330836 0.0268358429 0.00194905788
v 0.0471390439 0.0285680738 -0.0176703645
v 0.0471388663 0.0290802838 -0.00714161215
v -0.0294595934 -0.025705015 -0.00515254214
v -0.0297751403 -0.0227101988 0.00164435005
v -0.0297410449 -0.025705437 0.00284999842
v -0.0293945059 -0.022710193 -0.00502246512
v -0.0264437759 -0.0257078378 -0.0141467171
v -0.027539905 -0.0227101928 -0.0114374365
v -0.0243043274 -0.0227101911 -0.0172788874
v -0.0199925277 -0.02569901 -0.0222529081
v -0.0198500735 -0.0227101936 -0.0222539005
v -0.0132832511 -0.022711069 -0.0267540483
v -0.0120689248 -0.0257234158 -0.0273660087
v 0.0224112888 -0.0227449151 -0.0373150251
v 0.021251919 -0.0257055111 -0.0370619004
v 0.0331804178 -0.0252825616 -0.039498441
v 0.0366500045 -0.0218212907 -0.0393146416
v 0.0403246281 -0.0239413793 -0.0405833795
v 0.0437510013 -0.0190915254 -0.0399328244
v 0.0456278929 -0.020957465 -0.0414281763
v 0.0463213931 -0.0159418708 -0.0403458776
v 0.0487412805 -0.0157338248 -0.0423283433
v 0.0471238495 -0.0129134775 -0.0407779124
v 0.0494078392 -0.00965723598 -0.0434840913
v 0.0471482262 -0.00609768019 -0.0414416252
v 0.0511557452 -0.00738197985 -0.0454106543
v 0.0511068091 0.00398451167 -0.0453524437
v 0.0471501347 0.00307437015 -0.0411116314
v 0.0494287577 0.00584580189 -0.0429851847
v 0.0471454248 0.0123661766 -0.0382588652
v 0.0491489763 0.0108416832 -0.0409501547
v 0.0491480212 0.0170456754 -0.037576555
v 0.0471432179 0.0228221308 -0.0296182989
v 0.0491465888 0.0223891663 -0.0329594244
v 0.0491448597 0.0266271337 -0.0273105077
v 0.0471390439 0.0285680738 -0.0176703645
v 0.0491429502 0.0295652469 -0.0208888028
v 0.0491409244 0.0310687799 -0.0139887998
v 0.0471388663 0.0290802838 -0.00714161215
v 0.0491387824 0.0310688002 -0.00692687536
v -0.0297751403 -0.0227101988 0.00164435005
v -0.0286626202 -0.0227102002 0.00822870788
v -0.0297410449 -0.025705437 0.00284999842
v -0.0275960548 -0.0257474453 0.0115477844
v -0.0261129704 -0.0227101999 0.0144004473
v -0.0222528549 -0.0256989345 0.0199925373
v -0.022253868 -0.0227102054 0.01985009
v -0.0172789072 -0.022710205 0.02430436
v -0.0141465636 -0.0257077494 0.0264438917
v -0.0114374141 -0.0227102016 0.0275399041
v -0.0050223449 -0.0227102039 0.0293944904
v -0.00515240202 -0.0257049342 0.0294596481
v 0.00326162752 -0.0227155205 0.0297323044
v 0.00416285008 -0.025718976 0.0296451413
v 0.035295131 -0.0226769114 0.0209031263
v 0.0368883623 -0.0255829739 0.020554442
v 0.0395738481 -0.0219485964 0.0199158443
v 0.041969955 -0.0242543399 0.0200054696
v 0.0444418797 -0.019162904 0.0193766347
v 0.0460294502 -0.0214668285 0.0202574942
v 0.0485838667 -0.0166856772 0.0211277686
v 0.0462600597 -0.0164125496 0.0194683234
v 0.0470894575 -0.0131870622 0.019837539
v 0.049220562 -0.0103718005 0.0222993345
v 0.0471287964 -0.00499889126 0.0205336022
v 0.0510520308 -0.00741568573 0.0244346447
v 0.051107525 0.00395644794 0.0244641735
v 0.0471323114 0.00333948895 0.020166699
v 0.0497145632 0.00538004931 0.0225602867
v 0.0490627244 0.00899071739 0.0207073579
v 0.0471306433 0.00956601046 0.0184303441
v 0.0491316881 0.0170457787 0.0166609287
v 0.0471305813 0.0190852877 0.012705398
v 0.0491331195 0.0223892522 0.0120437871
v 0.0491347257 0.0266272006 0.00639484424
v 0.0471330836 0.0268358429 0.00194905788
v 0.0491366929 0.0295652847 -2.68675194e-05
v 0.0491387824 0.0310688002 -0.00692687536
v 0.0471388663 0.0290802838 -0.00714161215
v 0.0669427514 -0.00745239082 -0.0454042689
v 0.0669818484 0.00407586816 -0.0453412969
v 0.0511557452 -0.00738197985 -0.0454106543
v 0.0511068091 0.00398451167 -0.0453524437
v 0.0669818484 0.00407586816 -0.0453412969
v 0.0494287577 0.00584580189 -0.0429851847
v 0.0511068091 0.00398451167 -0.0453524437
v 0.068737921 0.00634761473 -0.0427535095
v 0.0491489763 0.0108416832 -0.0409501547
v 0.068954348 0.0143915868 -0.0393079361
v 0.0491480212 0.0170456754 -0.037576555
v 0.0689448653 0.0221011682 -0.0334248907
v 0.0491465888 0.0223891663 -0.0329594244
v 0.0689112499 0.0272431966 -0.0263900642
v 0.0491448597 0.0266271337 -0.0273105077
v 0.0491429502 0.0295652469 -0.0208888028
v 0.0689524956 0.0305458411 -0.0178963513
v 0.0491409244 0.0310687799 -0.0139887998
v 0.068943613 0.0312672697 -0.00867049966
v 0.0491387824 0.0310688002 -0.00692687536
v 0.0689306212 0.0295394946 0.000449723666
v 0.0491366929 0.0295652847 -2.68675194e-05
v 0.0491347257 0.0266272006 0.00639484424
v 0.068911611 0.0254252404 0.0083853527
v 0.0491331195 0.0223892522 0.0120437871
v 0.0689499353 0.0206343759 0.0138532749
v 0.0491316881 0.0170457787 0.0166609287
v 0.0689592316 0.0144836888 0.0183464464
v 0.0490627244 0.00899071739 0.0207073579
v 0.0687533577 0.00629141087 0.021828484
v 0.0497145632 0.00538004931 0.0225602867
v 0.051107525 0.00395644794 0.0244641735
v 0.0669408411 0.00403419911 0.0244687602
v 0.0471335621 0.0131121063 0.0100843972
v 0.0399998994 0.00753480112 0.0132405941
v 0.0399998407 0.0131121086 0.0100843048
v 0.0471327302 0.00753480174 0.01324068
v 0.0399998417 0.00133833259 0.0148752864
v 0.0471322534 0.00133832976 0.0148753737
v 0.0399999005 -0.0050701337 0.0148809777
v 0.047132254 -0.00507013598 0.0148810694
v 0.0399998428 -0.0112695017 0.0132572968
v 0.04709834 -0.0135262659 0.0123186474
v 0.0455749644 -0.0174137942 0.00971185509
v 0.0399999015 -0.0168524036 0.0101109297
v 0.0430707954 -0.0198857326 0.00745060752
v 0.0399649162 -0.021370571 0.00579128682
v 0.0471465574 0.00763935362 -0.0330289971
v 0.0471455441 0.0131120277 -0.0299156003
v 0.0400003762 0.0131120271 -0.0299156905
v 0.0400004378 0.00763935663 -0.0330290932
v 0.0471470934 0.00156236886 -0.0346763263
v 0.0400004383 0.00156236806 -0.0346764165
v 0.0471471551 -0.00473347124 -0.0347530993
v 0.0400004389 -0.00473346859 -0.0347531808
v 0.0471605056 -0.0111475422 -0.0331614603
v 0.0400004394 -0.0108488138 -0.0332545198
v 0.0468203432 -0.0145669709 -0.0314747827
v 0.0400003788 -0.016395766 -0.0302754837
v 0.045351089 -0.0174123725 -0.0295328617
v 0.0429332855 -0.0195268999 -0.0276435429
v 0.0399975183 -0.0208809762 -0.0261710142
v 0.0399999005 -0.0050701337 0.0148809777
v 0.0399998994 0.00753480112 0.0132405941
v 0.0399998417 0.00133833259 0.0148752864
v 0.0399998428 -0.0112695017 0.0132572968
v 0.0399999015 -0.0168524036 0.0101109297
v 0.0399998407 0.0131121086 0.0100843048
v 0.0399649162 -0.021370571 0.00579128682
v 0.0399975183 -0.0208809762 -0.0261710142
v 0.0400003762 0.0131120271 -0.0299156905
v 0.0400004378 0.00763935663 -0.0330290932
v 0.0400004383 0.00156236806 -0.0346764165
v 0.0400004389 -0.00473346859 -0.0347531808
v 0.0400004394 -0.0108488138 -0.0332545198
v 0.0400003788 -0.016395766 -0.0302754837
v 0.0400003762 0.0131120271 -0.0299156905
v 0.0471455441 0.0131120277 -0.0299156003
v 0.0399998407 0.0131121086 0.0100843048
v 0.0471335621 0.0131121063 0.0100843972
v 0.070930596 0.0268360167 -0.00440850272
v 0.0709326797 0.0273316288 -0.0111818299
v 0.0979192182 0.0274008953 -0.0094296709
v 0.0979461568 0.0264513858 -0.00249837249
v 0.0709286287 0.0247917287 0.00206795285
v 0.0979477169 0.0239554893 0.00387238979
v 0.0709269003 0.0213089665 0.00789838887
v 0.097918986 0.0202359863 0.00928521913
v 0.0709253523 0.0165754948 0.0127684863
v 0.0979459249 0.0150532547 0.0139845739
v 0.0709243982 0.0108464945 0.0164156911
v 0.0979189287 0.00926539561 0.017173482
v 0.0709237411 0.00443081664 0.0186433914
v 0.0979331087 0.00266439657 0.019027073
v 0.070923503 -0.00232567016 0.0193314889
v 0.0979292328 -0.00579200658 0.0191856743
v 0.0709237422 -0.00905871746 0.0184428776
v 0.0978590818 -0.0154580166 0.0161673961
v 0.0709244587 -0.0154053541 0.0160254727
v 0.0709257107 -0.0210234179 0.0122095982
v 0.0979171387 -0.0223121404 0.011094931
v 0.070927143 -0.025610052 0.00720096432
v 0.0979532628 -0.027533417 0.00438585485
v 0.0709289943 -0.028917973 0.00126959194
v 0.097917314 -0.0304974937 -0.00358208308
v 0.0709308979 -0.030768866 -0.00526476069
v 0.0979174421 -0.0311868674 -0.0103499195
v 0.0709329235 -0.0310629457 -0.0120498284
v 0.0978595021 -0.029932926 -0.0187467929
v 0.070935013 -0.0297843446 -0.0187198166
v 0.0709367998 -0.0270020067 -0.0249151635
v 0.0979464058 -0.025987439 -0.0265778246
v 0.070938406 -0.0228659275 -0.0303018489
v 0.0979470573 -0.0203516147 -0.0327403686
v 0.070939721 -0.0175990728 -0.0345894834
v 0.0979348445 -0.0112773947 -0.0377735851
v 0.0709405528 -0.0114854007 -0.037546939
v 0.070940913 -0.00359273834 -0.0391842565
v 0.0979624341 -0.00136310781 -0.0392498216
v 0.0709410868 0.00610743775 -0.0381845224
v 0.0979177298 0.00692784216 -0.0378554163
v 0.0979176711 0.013133601 -0.035068547
v 0.0709394795 0.0145436428 -0.0341117004
v 0.0979176124 0.0185293973 -0.0309256749
v 0.0709382276 0.0196807221 -0.0296694197
v 0.0978595556 0.0237766783 -0.0242512033
v 0.0709366149 0.0236548764 -0.0241621747
v 0.0709346473 0.0262518446 -0.0178868722
v 0.097946343 0.0267652473 -0.0160072406
v 0.0709326797 0.0273316288 -0.0111818299
v 0.0979192182 0.0274008953 -0.0094296709
v 0.0989174239 -0.00147106465 -0.0381618069
v 0.0989116389 -0.0113617346 -0.0367135013
v 0.0989172508 -0.0197260365 -0.0318231876
v 0.0989169488 -0.0266831893 -0.0238852241
v 0.0989127814 -0.0302474918 -0.0118332391
v 0.0989198127 -0.0281657268 0.000958651981
v 0.098925528 -0.020102007 0.0119756318
v 0.0989049099 -0.00899841697 0.0175993511
v 0.0989189139 -0.000131210508 0.0183278535
v 0.0989166431 0.007375513 0.0167720485
v 0.0989164677 0.0166280835 0.0116922434
v 0.0989168281 0.022361637 0.00457212591
v 0.0989166997 0.026184268 -0.0052665815
v 0.098916886 0.0252841098 -0.0183612807
v 0.0989130099 0.0189637051 -0.0292244717
v 0.0989213579 0.00823037327 -0.0364874082
v 0.097917314 -0.0304974937 -0.00358208308
v 0.0989127814 -0.0302474918 -0.0118332391
v 0.0979174421 -0.0311868674 -0.0103499195
v 0.0978595021 -0.029932926 -0.0187467929
v 0.0989198127 -0.0281657268 0.000958651981
v 0.0989169488 -0.0266831893 -0.0238852241
v 0.0979532628 -0.027533417 0.00438585485
v 0.0979464058 -0.025987439 -0.0265778246
v 0.0989172508 -0.0197260365 -0.0318231876
v 0.0979470573 -0.0203516147 -0.0327403686
v 0.0989116389 -0.0113617346 -0.0367135013
v 0.0979348445 -0.0112773947 -0.0377735851
v 0.0989174239 -0.00147106465 -0.0381618069
v 0.0979624341 -0.00136310781 -0.0392498216
v 0.098925528 -0.020102007 0.0119756318
v 0.0979171387 -0.0223121404 0.011094931
v 0.0978590818 -0.0154580166 0.0161673961
v 0.0989049099 -0.00899841697 0.0175993511
v 0.0979292328 -0.00579200658 0.0191856743
v 0.0989189139 -0.000131210508 0.0183278535
v 0.0979331087 0.00266439657 0.019027073
v 0.0989213579 0.00823037327 -0.0364874082
v 0.0979177298 0.00692784216 -0.0378554163
v 0.0979176711 0.013133601 -0.035068547
v 0.0989166431 0.007375513 0.0167720485
v 0.0979189287 0.00926539561 0.017173482
v 0.0979459249 0.0150532547 0.0139845739
v 0.0989130099 0.0189637051 -0.0292244717
v 0.0979176124 0.0185293973 -0.0309256749
v 0.0978595556 0.0237766783 -0.0242512033
v 0.098916886 0.0252841098 -0.0183612807
v 0.097946343 0.0267652473 -0.0160072406
v 0.0989164677 0.0166280835 0.0116922434
v 0.097918986 0.0202359863 0.00928521913
v 0.0979477169 0.0239554893 0.00387238979
v 0.0989168281 0.022361637 0.00457212591
v 0.0979461568 0.0264513858 -0.00249837249
v 0.0989166997 0.026184268 -0.0052665815
v 0.0979192182 0.0274008953 -0.0094296709
v 0.0709403129 0.00335588413 -0.0410892069
v 0.068737921 0.00634761473 -0.0427535095
v 0.0669818484 0.00407586816 -0.0453412969
v 0.0669427514 -0.00745239082 -0.0454042689
v 0.0709412668 0.0110273792 -0.0388093729
v 0.0709416233 -0.0049451264 -0.0412907219
v 0.068954348 0.0143915868 -0.0393079361
v 0.0688650596 -0.010357396 -0.0432080618
v 0.0709406724 0.0194126264 -0.0332789408
v 0.0689448653 0.0221011682 -0.0334248907
v 0.0709483643 -0.011972593 -0.0398549368
v 0.0689576279 -0.0181175723 -0.0411688088
v 0.0689304454 -0.0235088575 -0.0381469494
v 0.0709382896 -0.0238335033 -0.0324780412
v 0.0689579839 -0.0288869805 -0.0324766093
v 0.0709366195 -0.0294317226 -0.0243807139
v 0.0689459469 -0.0324266437 -0.0255553517
v 0.0709375693 0.0256220465 -0.0251909631
v 0.0689112499 0.0272431966 -0.0263900642
v 0.0709324463 -0.0318619768 -0.0177285561
v 0.0689407607 -0.0339019168 -0.0199460716
v 0.0689514885 -0.0346749844 -0.0135318638
v 0.0709333427 -0.0326892212 -0.00830875433
v 0.0689383161 -0.0344920843 -0.00529274148
v 0.0689524956 0.0305458411 -0.0178963513
v 0.0709347111 0.0283040838 -0.0180806033
v 0.0709321441 0.0293378693 -0.010628513
v 0.068943613 0.0312672697 -0.00867049966
v 0.0709301767 0.0283627629 -0.00305705689
v 0.0689306212 0.0295394946 0.000449723666
v 0.0709275576 0.0259264172 0.00372620707
v 0.068911611 0.0254252404 0.0083853527
v 0.0709269003 0.0202746163 0.0114979921
v 0.0689499353 0.0206343759 0.0138532749
v 0.0709303041 -0.0305844438 0.00126125242
v 0.0689012435 -0.0332726105 0.00214686497
v 0.0689178732 -0.0301558522 0.00992215064
v 0.070925411 0.0118030268 0.0176150497
v 0.0689592316 0.0144836888 0.0183464464
v 0.0687533577 0.00629141087 0.021828484
v 0.0709216574 0.0023536528 0.0202832205
v 0.0669408411 0.00403419911 0.0244687602
v 0.0709260137 -0.0249216009 0.0102014259
v 0.068930923 -0.026948517 0.0138662333
v 0.0689423082 -0.0241539395 0.01621337
v 0.0709246382 -0.00410869432 0.020477036
v 0.0669341075 -0.00752363045 0.0244730036
v 0.0688723938 -0.0104555378 0.0217719775
v 0.0709288709 -0.0153283425 0.0175958688
v 0.0689153692 -0.0184349801 0.0193627508
v 0.0709303041 -0.0305844438 0.00126125242
v 0.070927143 -0.025610052 0.00720096432
v 0.0709289943 -0.028917973 0.00126959194
v 0.0709308979 -0.030768866 -0.00526476069
v 0.0709260137 -0.0249216009 0.0102014259
v 0.0709333427 -0.0326892212 -0.00830875433
v 0.0709257107 -0.0210234179 0.0122095982
v 0.0709329235 -0.0310629457 -0.0120498284
v 0.0709288709 -0.0153283425 0.0175958688
v 0.0709244587 -0.0154053541 0.0160254727
v 0.0709237422 -0.00905871746 0.0184428776
v 0.0709246382 -0.00410869432 0.020477036
v 0.070923503 -0.00232567016 0.0193314889
v 0.0709216574 0.0023536528 0.0202832205
v 0.0709237411 0.00443081664 0.0186433914
v 0.070925411 0.0118030268 0.0176150497
v 0.0709243982 0.0108464945 0.0164156911
v 0.0709324463 -0.0318619768 -0.0177285561
v 0.070935013 -0.0297843446 -0.0187198166
v 0.0709367998 -0.0270020067 -0.0249151635
v 0.0709366195 -0.0294317226 -0.0243807139
v 0.070938406 -0.0228659275 -0.0303018489
v 0.0709382896 -0.0238335033 -0.0324780412
v 0.070939721 -0.0175990728 -0.0345894834
v 0.0709269003 0.0202746163 0.0114979921
v 0.0709253523 0.0165754948 0.0127684863
v 0.0709269003 0.0213089665 0.00789838887
v 0.0709275576 0.0259264172 0.00372620707
v 0.0709286287 0.0247917287 0.00206795285
v 0.0709301767 0.0283627629 -0.00305705689
v 0.070930596 0.0268360167 -0.00440850272
v 0.0709321441 0.0293378693 -0.010628513
v 0.0709326797 0.0273316288 -0.0111818299
v 0.0709347111 0.0283040838 -0.0180806033
v 0.0709346473 0.0262518446 -0.0178868722
v 0.0709375693 0.0256220465 -0.0251909631
v 0.0709366149 0.0236548764 -0.0241621747
v 0.0709406724 0.0194126264 -0.0332789408
v 0.0709382276 0.0196807221 -0.0296694197
v 0.0709394795 0.0145436428 -0.0341117004
v 0.0709412668 0.0110273792 -0.0388093729
v 0.0709410868 0.00610743775 -0.0381845224
v 0.0709403129 0.00335588413 -0.0410892069
v 0.070940913 -0.00359273834 -0.0391842565
v 0.0709416233 -0.0049451264 -0.0412907219
v 0.0709483643 -0.011972593 -0.0398549368
v 0.0709405528 -0.0114854007 -0.037546939
vt 0.488769531 0.803222656
vt 0.476806641 0.802734375
vt 0.475585938 0.799316406
vt 0.490234375 0.800292969
vt 0.490966797 0.795410156
vt 0.475830078 0.792480469
vt 0.489501953 0.792480469
vt 0.493408203 0.791503906
vt 0.491210938 0.7890625
vt 0.476074219 0.787109375
vt 0.496582031 0.789550781
vt 0.489990234 0.785644531
vt 0.476074219 0.784179688
vt 0.495605469 0.78515625
vt 0.499755859 0.784179688
vt 0.500488281 0.789550781
vt 0.525390625 0.795898438
vt 0.492919922 0.781738281
vt 0.476074219 0.780273438
vt 0.493164062 0.778320312
vt 0.476074219 0.772949219
vt 0.505859375 0.778808594
vt 0.494140625 0.774414062
vt 0.498535156 0.770996094
vt 0.496826172 0.766601562
vt 0.476074219 0.767089844
vt 0.476074219 0.760253906
vt 0.524414062 0.791015625
vt 0.52734375 0.786621094
vt 0.529296875 0.791992188
vt 0.532226562 0.795410156
vt 0.525390625 0.780761719
vt 0.529296875 0.774902344
vt 0.499755859 0.762695312
vt 0.536621094 0.789550781
vt 0.539550781 0.792480469
vt 0.530273438 0.780761719
vt 0.533203125 0.78515625
vt 0.543457031 0.783203125
vt 0.545410156 0.787109375
vt 0.549316406 0.779785156
vt 0.53515625 0.77734375
vt 0.538574219 0.780761719
vt 0.546875 0.774414062
vt 0.55078125 0.772460938
vt 0.53125 0.770996094
vt 0.537597656 0.771972656
vt 0.541992188 0.772460938
vt 0.546875 0.765136719
vt 0.55078125 0.765625
vt 0.548339844 0.7578125
vt 0.530761719 0.767089844
vt 0.536621094 0.766601562
vt 0.541503906 0.764160156
vt 0.543945312 0.758789062
vt 0.533203125 0.761230469
vt 0.501953125 0.758789062
vt 0.476074219 0.754882812
vt 0.539550781 0.753417969
vt 0.54296875 0.751464844
vt 0.537109375 0.747070312
vt 0.538574219 0.759765625
vt 0.504394531 0.754394531
vt 0.492919922 0.752929688
vt 0.476074219 0.75
vt 0.534667969 0.756347656
vt 0.502441406 0.748535156
vt 0.492431641 0.747558594
vt 0.476074219 0.743652344
vt 0.533691406 0.750976562
vt 0.501464844 0.743652344
vt 0.505371094 0.740722656
vt 0.51171875 0.739257812
vt 0.502929688 0.737304688
vt 0.499755859 0.739746094
vt 0.497558594 0.735839844
vt 0.493652344 0.742675781
vt 0.494873047 0.739257812
vt 0.475830078 0.737304688
vt 0.493408203 0.733398438
vt 0.475830078 0.731933594
vt 0.490966797 0.729003906
vt 0.475585938 0.725585938
vt 0.490234375 0.724121094
vt 0.476806641 0.72265625
vt 0.488769531 0.721679688
vt 0.0689086914 0.330566406
vt 0.0783081055 0.330566406
vt 0.0689697266 0.342529297
vt 0.0782470703 0.342529297
vt 0.185424805 0.724609375
vt 0.182128906 0.721191406
vt 0.179443359 0.715820312
vt 0.189575195 0.727539062
vt 0.194335938 0.729492188
vt 0.199462891 0.729980469
vt 0.204711914 0.729492188
vt 0.209716797 0.727539062
vt 0.214477539 0.725097656
vt 0.218505859 0.721191406
vt 0.221679688 0.716796875
vt 0.223876953 0.711914062
vt 0.225097656 0.705566406
vt 0.222045898 0.680175781
vt 0.175537109 0.687011719
vt 0.221801758 0.676757812
vt 0.17565918 0.67578125
vt 0.2109375 0.675292969
vt 0.212646484 0.672851562
vt 0.186157227 0.673828125
vt 0.222045898 0.672363281
vt 0.21472168 0.670410156
vt 0.222412109 0.669921875
vt 0.217163086 0.666992188
vt 0.223022461 0.666992188
vt 0.220092773 0.660644531
vt 0.224487305 0.660644531
vt 0.176025391 0.669921875
vt 0.185424805 0.671386719
vt 0.184326172 0.668457031
vt 0.176147461 0.666992188
vt 0.183105469 0.666015625
vt 0.176147461 0.664550781
vt 0.182250977 0.663085938
vt 0.176391602 0.659179688
vt 0.181762695 0.658203125
vt 0.177612305 0.651855469
vt 0.182495117 0.653320312
vt 0.220825195 0.655761719
vt 0.225097656 0.654296875
vt 0.224487305 0.649414062
vt 0.220214844 0.650878906
vt 0.221069336 0.641601562
vt 0.180908203 0.64453125
vt 0.184448242 0.6484375
vt 0.18737793 0.64453125
vt 0.188720703 0.63671875
vt 0.218383789 0.645996094
vt 0.213500977 0.635253906
vt 0.198608398 0.6328125
vt 0.206787109 0.6328125
vt 0.759765625 0.245727539
vt 0.765136719 0.247680664
vt 0.764160156 0.25
vt 0.76171875 0.244140625
vt 0.754882812 0.240600586
vt 0.758300781 0.240478516
vt 0.754882812 0.236816406
vt 0.749511719 0.234985352
vt 0.751464844 0.233154297
vt 0.747558594 0.228881836
vt 0.745117188 0.229736328
vt 0.728515625 0.208251953
vt 0.727539062 0.210571289
vt 0.721679688 0.203613281
vt 0.722167969 0.199829102
vt 0.71875 0.198852539
vt 0.720214844 0.194335938
vt 0.717773438 0.194335938
vt 0.720703125 0.191162109
vt 0.71875 0.189575195
vt 0.721679688 0.188842773
vt 0.721191406 0.185180664
vt 0.724609375 0.184326172
vt 0.720703125 0.182495117
vt 0.727050781 0.175415039
vt 0.729980469 0.178710938
vt 0.729492188 0.17565918
vt 0.735839844 0.173828125
vt 0.733398438 0.173217773
vt 0.73828125 0.170166016
vt 0.74609375 0.169311523
vt 0.743164062 0.16796875
vt 0.748535156 0.166503906
vt 0.756347656 0.16796875
vt 0.754394531 0.165893555
vt 0.759765625 0.166015625
vt 0.764648438 0.169189453
vt 0.765136719 0.167114258
vt 0.540527344 0.796386719
vt 0.543945312 0.79296875
vt 0.54296875 0.797363281
vt 0.547363281 0.792480469
vt 0.546875 0.7890625
vt 0.552246094 0.786621094
vt 0.550292969 0.78515625
vt 0.553710938 0.78125
vt 0.557128906 0.780761719
vt 0.556640625 0.777832031
vt 0.560058594 0.773925781
vt 0.562011719 0.775390625
vt 0.563964844 0.769042969
vt 0.56640625 0.770019531
vt 0.580078125 0.75
vt 0.582519531 0.750488281
vt 0.581542969 0.747070312
vt 0.584472656 0.747070312
vt 0.582519531 0.742675781
vt 0.584472656 0.743164062
vt 0.583496094 0.739257812
vt 0.581542969 0.740234375
vt 0.580078125 0.73828125
vt 0.580566406 0.734863281
vt 0.576171875 0.732910156
vt 0.580566406 0.731445312
vt 0.57421875 0.724609375
vt 0.571289062 0.728027344
vt 0.571777344 0.725097656
vt 0.568847656 0.724121094
vt 0.566894531 0.725097656
vt 0.5625 0.720214844
vt 0.55859375 0.721191406
vt 0.557128906 0.718261719
vt 0.551269531 0.717285156
vt 0.548339844 0.719238281
vt 0.545898438 0.717285156
vt 0.540527344 0.717773438
vt 0.541015625 0.719726562
vt 0.374267578 0.295410156
vt 0.383544922 0.295410156
vt 0.374267578 0.307128906
vt 0.383544922 0.307373047
vt 0.822265625 0.675292969
vt 0.807617188 0.677734375
vt 0.809082031 0.675292969
vt 0.823730469 0.678222656
vt 0.807617188 0.681640625
vt 0.823730469 0.684570312
vt 0.807617188 0.687011719
vt 0.823730469 0.691894531
vt 0.807617188 0.692382812
vt 0.823730469 0.698242188
vt 0.807617188 0.697753906
vt 0.807617188 0.702636719
vt 0.823730469 0.705078125
vt 0.807617188 0.708007812
vt 0.823730469 0.711914062
vt 0.807617188 0.713378906
vt 0.823730469 0.719238281
vt 0.807617188 0.71875
vt 0.807617188 0.724121094
vt 0.823730469 0.725585938
vt 0.807617188 0.729492188
vt 0.823730469 0.730957031
vt 0.807617188 0.734375
vt 0.823730469 0.736816406
vt 0.807617188 0.741210938
vt 0.823730469 0.743652344
vt 0.808105469 0.744140625
vt 0.809082031 0.74609375
vt 0.822265625 0.74609375
vt 0.580078125 0.457763672
vt 0.57421875 0.462402344
vt 0.57421875 0.457763672
vt 0.580078125 0.462402344
vt 0.57421875 0.467285156
vt 0.580078125 0.467285156
vt 0.57421875 0.472167969
vt 0.580078125 0.472167969
vt 0.57421875 0.476806641
vt 0.580078125 0.478759766
vt 0.579101562 0.482177734
vt 0.57421875 0.481689453
vt 0.577148438 0.484619141
vt 0.57421875 0.486328125
vt 0.646484375 0.0237426758
vt 0.646484375 0.0284423828
vt 0.640625 0.0284423828
vt 0.640625 0.0237426758
vt 0.646484375 0.01902771
vt 0.640625 0.01902771
vt 0.646484375 0.0143203735
vt 0.640625 0.0143203735
vt 0.646484375 0.00936889648
vt 0.640625 0.00960540771
vt 0.645996094 0.00651931763
vt 0.640625 0.00489425659
vt 0.645019531 0.00394439697
vt 0.643066406 0.00183010101
vt 0.640625 0.000347614288
vt 0.918945312 0.487792969
vt 0.929199219 0.486572266
vt 0.924316406 0.487792969
vt 0.9140625 0.486572266
vt 0.909667969 0.484130859
vt 0.934082031 0.484130859
vt 0.905761719 0.480957031
vt 0.90625 0.45703125
vt 0.934082031 0.454345703
vt 0.9296875 0.451904297
vt 0.924316406 0.450683594
vt 0.919433594 0.450683594
vt 0.914550781 0.451904297
vt 0.909667969 0.454101562
vt 0.198730469 0.325683594
vt 0.204589844 0.325683594
vt 0.198730469 0.355712891
vt 0.204589844 0.355712891
vt 0.286865234 0.533203125
vt 0.281738281 0.533203125
vt 0.282958984 0.511230469
vt 0.288085938 0.511230469
vt 0.291748047 0.533203125
vt 0.293212891 0.511230469
vt 0.296875 0.533203125
vt 0.298095703 0.511230469
vt 0.302001953 0.533203125
vt 0.303466797 0.511230469
vt 0.307128906 0.533203125
vt 0.308349609 0.511230469
vt 0.312255859 0.533203125
vt 0.313476562 0.511230469
vt 0.317138672 0.533203125
vt 0.319824219 0.511230469
vt 0.322265625 0.533203125
vt 0.327392578 0.511230469
vt 0.327392578 0.533203125
vt 0.332519531 0.533203125
vt 0.333740234 0.511230469
vt 0.337646484 0.533203125
vt 0.340087891 0.511230469
vt 0.342773438 0.533203125
vt 0.346435547 0.511230469
vt 0.34765625 0.533203125
vt 0.3515625 0.511230469
vt 0.352783203 0.533203125
vt 0.357910156 0.511230469
vt 0.357910156 0.533203125
vt 0.363037109 0.533203125
vt 0.364501953 0.511230469
vt 0.368164062 0.533203125
vt 0.370605469 0.511230469
vt 0.373046875 0.533203125
vt 0.378417969 0.511230469
vt 0.378173828 0.533203125
vt 0.384277344 0.533203125
vt 0.385986328 0.511230469
vt 0.391601562 0.533203125
vt 0.392333984 0.511230469
vt 0.397460938 0.511230469
vt 0.3984375 0.533203125
vt 0.40234375 0.511230469
vt 0.403564453 0.533203125
vt 0.408691406 0.511230469
vt 0.408691406 0.533203125
vt 0.413818359 0.533203125
vt 0.415283203 0.511230469
vt 0.418945312 0.533203125
vt 0.420410156 0.511230469
vt 0.00406646729 0.979003906
vt 0.00127983093 0.971191406
vt 0.0012960434 0.963378906
vt 0.00381088257 0.955566406
vt 0.0102615356 0.947753906
vt 0.019317627 0.944335938
vt 0.0294799805 0.9453125
vt 0.0372924805 0.950683594
vt 0.0411071777 0.956542969
vt 0.0429077148 0.962890625
vt 0.0431213379 0.971191406
vt 0.0406494141 0.978515625
vt 0.035736084 0.984863281
vt 0.0269317627 0.989746094
vt 0.0175323486 0.989746094
vt 0.00879669189 0.985351562
vt 0.930664062 0.849609375
vt 0.926757812 0.85546875
vt 0.926757812 0.853515625
vt 0.923339844 0.859375
vt 0.934082031 0.848632812
vt 0.923339844 0.864746094
vt 0.936035156 0.846191406
vt 0.921875 0.866699219
vt 0.922851562 0.873535156
vt 0.921875 0.874023438
vt 0.92578125 0.881347656
vt 0.924804688 0.882324219
vt 0.930664062 0.887207031
vt 0.930175781 0.888671875
vt 0.944335938 0.846191406
vt 0.942382812 0.845214844
vt 0.948730469 0.845703125
vt 0.952636719 0.848144531
vt 0.955566406 0.848632812
vt 0.958007812 0.852050781
vt 0.960449219 0.852539062
vt 0.9375 0.891113281
vt 0.936035156 0.891601562
vt 0.94140625 0.893066406
vt 0.961914062 0.856933594
vt 0.963378906 0.857421875
vt 0.965332031 0.862304688
vt 0.947753906 0.891601562
vt 0.946777344 0.893066406
vt 0.952636719 0.891113281
vt 0.956054688 0.887695312
vt 0.958007812 0.887207031
vt 0.96484375 0.864746094
vt 0.966308594 0.867675781
vt 0.965820312 0.873046875
vt 0.96484375 0.871582031
vt 0.964355469 0.878417969
vt 0.962890625 0.879882812
vt 0.961914062 0.883300781
vt 0.817871094 0.91015625
vt 0.818847656 0.913574219
vt 0.81640625 0.915039062
vt 0.80859375 0.910644531
vt 0.823730469 0.911621094
vt 0.812011719 0.907226562
vt 0.825683594 0.9140625
vt 0.807617188 0.907226562
vt 0.831054688 0.911132812
vt 0.833007812 0.913085938
vt 0.808105469 0.903320312
vt 0.803222656 0.90234375
vt 0.80078125 0.897949219
vt 0.802734375 0.893554688
vt 0.798828125 0.891601562
vt 0.801757812 0.885742188
vt 0.798828125 0.885253906
vt 0.837890625 0.907714844
vt 0.838867188 0.909667969
vt 0.802734375 0.879882812
vt 0.799804688 0.880859375
vt 0.801757812 0.875488281
vt 0.805175781 0.873046875
vt 0.8046875 0.869628906
vt 0.844238281 0.904785156
vt 0.842285156 0.903808594
vt 0.845703125 0.898925781
vt 0.848144531 0.8984375
vt 0.84765625 0.893066406
vt 0.850097656 0.891113281
vt 0.848144531 0.887207031
vt 0.850097656 0.883789062
vt 0.847167969 0.879394531
vt 0.849121094 0.877929688
vt 0.810058594 0.8671875
vt 0.808105469 0.864746094
vt 0.812988281 0.860351562
vt 0.84375 0.872070312
vt 0.846191406 0.872070312
vt 0.842285156 0.866210938
vt 0.838378906 0.866699219
vt 0.841796875 0.862792969
vt 0.816894531 0.862792969
vt 0.816894531 0.858886719
vt 0.819335938 0.858398438
vt 0.834472656 0.863769531
vt 0.833984375 0.858398438
vt 0.830566406 0.859863281
vt 0.826171875 0.861328125
vt 0.824707031 0.858398438
vt 0.0278167725 0.931152344
vt 0.0285797119 0.924804688
vt 0.0288696289 0.930664062
vt 0.0303192139 0.936035156
vt 0.0278167725 0.922851562
vt 0.0303192139 0.938964844
vt 0.0294799805 0.919433594
vt 0.0328369141 0.940429688
vt 0.0309295654 0.913574219
vt 0.0314941406 0.914550781
vt 0.0345458984 0.91015625
vt 0.0368652344 0.90625
vt 0.0384521484 0.906738281
vt 0.041015625 0.903808594
vt 0.0429992676 0.903808594
vt 0.0480651855 0.901367188
vt 0.0479431152 0.902832031
vt 0.0346069336 0.944824219
vt 0.036315918 0.944824219
vt 0.0405578613 0.947753906
vt 0.0388183594 0.948242188
vt 0.0453186035 0.949707031
vt 0.0455932617 0.951660156
vt 0.0503845215 0.950195312
vt 0.0558776855 0.901855469
vt 0.0530090332 0.902832031
vt 0.0579528809 0.904296875
vt 0.0625610352 0.904785156
vt 0.0625 0.906738281
vt 0.0667724609 0.908691406
vt 0.06640625 0.91015625
vt 0.0704345703 0.913085938
vt 0.0693969727 0.914550781
vt 0.0727539062 0.918945312
vt 0.0714111328 0.919433594
vt 0.0739135742 0.924804688
vt 0.072265625 0.925292969
vt 0.0732421875 0.933105469
vt 0.0719604492 0.930664062
vt 0.0704956055 0.936035156
vt 0.0701293945 0.940917969
vt 0.0667724609 0.942382812
vt 0.0662231445 0.945800781
vt 0.0610656738 0.947265625
vt 0.0610656738 0.94921875
vt 0.0560302734 0.951660156
vt 0.0554199219 0.949707031
f 3/3 2/2 1/1
f 3/3 1/1 4/4
f 4/4 5/5 3/3
f 5/5 6/6 3/3
f 5/5 7/7 6/6
f 8/8 7/7 5/5
f 7/7 9/9 6/6
f 9/9 7/7 8/8
f 9/9 10/10 6/6
f 11/11 9/9 8/8
f 9/9 12/12 10/10
f 12/12 13/13 10/10
f 9/9 11/11 14/14
f 12/12 9/9 14/14
f 11/11 15/15 14/14
f 16/16 15/15 11/11
f 17/17 15/15 16/16
f 12/12 18/18 13/13
f 12/12 14/14 18/18
f 18/18 14/14 15/15
f 18/18 19/19 13/13
f 18/18 20/20 19/19
f 19/19 20/20 21/21
f 20/20 18/18 22/22
f 18/18 15/15 22/22
f 23/23 21/21 20/20
f 23/23 20/20 22/22
f 21/21 23/23 24/24
f 23/23 22/22 24/24
f 25/25 21/21 24/24
f 25/25 26/26 21/21
f 27/27 26/26 25/25
f 17/17 28/28 15/15
f 22/22 15/15 29/29
f 15/15 28/28 29/29
f 17/17 30/30 28/28
f 30/30 29/29 28/28
f 31/31 30/30 17/17
f 24/24 22/22 32/32
f 22/22 29/29 32/32
f 33/33 25/25 24/24
f 33/33 24/24 32/32
f 27/27 25/25 34/34
f 33/33 34/34 25/25
f 31/31 35/35 30/30
f 36/36 35/35 31/31
f 32/32 29/29 37/37
f 33/33 32/32 37/37
f 30/30 38/38 29/29
f 38/38 37/37 29/29
f 35/35 38/38 30/30
f 35/35 36/36 39/39
f 40/40 39/39 36/36
f 41/41 39/39 40/40
f 42/42 33/33 37/37
f 38/38 42/42 37/37
f 35/35 43/43 38/38
f 43/43 35/35 39/39
f 43/43 42/42 38/38
f 41/41 44/44 39/39
f 44/44 41/41 45/45
f 33/33 42/42 46/46
f 33/33 46/46 34/34
f 42/42 43/43 47/47
f 46/46 42/42 47/47
f 39/39 48/48 43/43
f 44/44 48/48 39/39
f 48/48 47/47 43/43
f 44/44 45/45 49/49
f 48/48 44/44 49/49
f 50/50 49/49 45/45
f 51/51 49/49 50/50
f 46/46 52/52 34/34
f 46/46 47/47 52/52
f 47/47 48/48 53/53
f 52/52 47/47 53/53
f 48/48 49/49 54/54
f 53/53 48/48 54/54
f 51/51 55/55 49/49
f 54/54 49/49 55/55
f 54/54 56/56 53/53
f 56/56 52/52 53/53
f 52/52 57/57 34/34
f 27/27 34/34 57/57
f 57/57 58/58 27/27
f 51/51 59/59 55/55
f 60/60 59/59 51/51
f 60/60 61/61 59/59
f 62/62 54/54 55/55
f 56/56 54/54 62/62
f 62/62 55/55 59/59
f 52/52 63/63 57/57
f 52/52 56/56 63/63
f 57/57 64/64 58/58
f 63/63 64/64 57/57
f 64/64 65/65 58/58
f 66/66 62/62 59/59
f 56/56 62/62 66/66
f 56/56 67/67 63/63
f 64/64 63/63 67/67
f 56/56 66/66 67/67
f 68/68 65/65 64/64
f 67/67 68/68 64/64
f 69/69 65/65 68/68
f 66/66 59/59 70/70
f 66/66 70/70 67/67
f 61/61 70/70 59/59
f 71/71 68/68 67/67
f 71/71 67/67 70/70
f 70/70 61/61 72/72
f 72/72 71/71 70/70
f 61/61 73/73 72/72
f 72/72 73/73 74/74
f 74/74 75/75 72/72
f 75/75 71/71 72/72
f 75/75 74/74 76/76
f 68/68 77/77 69/69
f 71/71 77/77 68/68
f 75/75 78/78 71/71
f 78/78 77/77 71/71
f 78/78 69/69 77/77
f 78/78 75/75 76/76
f 78/78 79/79 69/69
f 78/78 76/76 79/79
f 80/80 79/79 76/76
f 80/80 81/81 79/79
f 80/80 82/82 81/81
f 82/82 83/83 81/81
f 82/82 84/84 83/83
f 84/84 85/85 83/83
f 84/84 86/86 85/85
f 89/89 88/88 87/87
f 89/89 90/90 88/88
f 93/93 92/92 91/91
f 93/93 91/91 94/94
f 93/93 94/94 95/95
f 93/93 95/95 96/96
f 93/93 96/96 97/97
f 93/93 97/97 98/98
f 93/93 98/98 99/99
f 93/93 99/99 100/100
f 93/93 100/100 101/101
f 93/93 101/101 102/102
f 93/93 102/102 103/103
f 93/93 103/103 104/104
f 93/93 104/104 105/105
f 105/105 104/104 106/106
f 107/107 105/105 106/106
f 107/107 106/106 108/108
f 109/109 108/108 106/106
f 107/107 108/108 110/110
f 109/109 106/106 111/111
f 112/112 109/109 111/111
f 112/112 111/111 113/113
f 112/112 113/113 114/114
f 113/113 115/115 114/114
f 116/116 114/114 115/115
f 116/116 115/115 117/117
f 110/110 118/118 107/107
f 110/110 119/119 118/118
f 118/118 119/119 120/120
f 120/120 121/121 118/118
f 120/120 122/122 121/121
f 122/122 123/123 121/121
f 122/122 124/124 123/123
f 125/125 123/123 124/124
f 125/125 124/124 126/126
f 126/126 127/127 125/125
f 126/126 128/128 127/127
f 129/129 116/116 117/117
f 129/129 117/117 130/130
f 130/130 131/131 129/129
f 131/131 132/132 129/129
f 131/131 133/133 132/132
f 134/134 127/127 128/128
f 134/134 128/128 135/135
f 134/134 135/135 136/136
f 137/137 134/134 136/136
f 138/138 132/132 133/133
f 138/138 137/137 136/136
f 139/139 138/138 133/133
f 140/140 137/137 138/138
f 139/139 141/141 138/138
f 140/140 138/138 141/141
f 144/144 143/143 142/142
f 142/142 143/143 145/145
f 146/146 142/142 145/145
f 146/146 145/145 147/147
f 146/146 147/147 148/148
f 146/146 148/148 149/149
f 149/149 148/148 150/150
f 149/149 150/150 151/151
f 152/152 149/149 151/151
f 153/153 152/152 151/151
f 153/153 154/154 152/152
f 155/155 154/154 153/153
f 155/155 153/153 156/156
f 157/157 155/155 156/156
f 158/158 157/157 156/156
f 158/158 159/159 157/157
f 158/158 160/160 159/159
f 160/160 161/161 159/159
f 160/160 162/162 161/161
f 163/163 161/161 162/162
f 162/162 164/164 163/163
f 163/163 164/164 165/165
f 166/166 165/165 164/164
f 167/167 166/166 164/164
f 168/168 166/166 167/167
f 167/167 169/169 168/168
f 168/168 169/169 170/170
f 169/169 171/171 170/170
f 169/169 172/172 171/171
f 172/172 173/173 171/171
f 172/172 174/174 173/173
f 172/172 175/175 174/174
f 175/175 176/176 174/174
f 175/175 177/177 176/176
f 175/175 178/178 177/177
f 178/178 179/179 177/177
f 182/182 181/181 180/180
f 182/182 183/183 181/181
f 183/183 184/184 181/181
f 183/183 185/185 184/184
f 185/185 186/186 184/184
f 185/185 187/187 186/186
f 188/188 187/187 185/185
f 188/188 189/189 187/187
f 188/188 190/190 189/189
f 188/188 191/191 190/190
f 191/191 192/192 190/190
f 192/192 191/191 193/193
f 194/194 192/192 193/193
f 194/194 193/193 195/195
f 196/196 194/194 195/195
f 196/196 195/195 197/197
f 198/198 196/196 197/197
f 198/198 197/197 199/199
f 198/198 199/199 200/200
f 201/201 198/198 200/200
f 202/202 201/201 200/200
f 203/203 202/202 200/200
f 203/203 204/204 202/202
f 203/203 205/205 204/204
f 205/205 206/206 204/204
f 206/206 207/207 204/204
f 206/206 208/208 207/207
f 208/208 209/209 207/207
f 209/209 210/210 207/207
f 210/210 209/209 211/211
f 212/212 210/210 211/211
f 212/212 211/211 213/213
f 212/212 213/213 214/214
f 215/215 212/212 214/214
f 215/215 214/214 216/216
f 215/215 216/216 217/217
f 218/218 215/215 217/217
f 221/221 220/220 219/219
f 221/221 222/222 220/220
f 225/225 224/224 223/223
f 224/224 226/226 223/223
f 224/224 227/227 226/226
f 228/228 226/226 227/227
f 228/228 227/227 229/229
f 230/230 228/228 229/229
f 230/230 229/229 231/231
f 232/232 230/230 231/231
f 232/232 231/231 233/233
f 232/232 233/233 234/234
f 235/235 232/232 234/234
f 234/234 236/236 235/235
f 237/237 235/235 236/236
f 237/237 236/236 238/238
f 238/238 239/239 237/237
f 238/238 240/240 239/239
f 239/239 240/240 241/241
f 239/239 241/241 242/242
f 241/241 243/243 242/242
f 244/244 242/242 243/243
f 244/244 243/243 245/245
f 246/246 244/244 245/245
f 246/246 245/245 247/247
f 248/248 246/246 247/247
f 247/247 249/249 248/248
f 249/249 250/250 248/248
f 250/250 251/251 248/248
f 254/254 253/253 252/252
f 253/253 255/255 252/252
f 253/253 256/256 255/255
f 256/256 257/257 255/255
f 256/256 258/258 257/257
f 258/258 259/259 257/257
f 258/258 260/260 259/259
f 260/260 261/261 259/259
f 262/262 261/261 260/260
f 262/262 260/260 263/263
f 264/264 262/262 263/263
f 265/265 264/264 263/263
f 268/268 267/267 266/266
f 269/269 268/268 266/266
f 269/269 266/266 270/270
f 271/271 269/269 270/270
f 271/271 270/270 272/272
f 273/273 271/271 272/272
f 273/273 272/272 274/274
f 275/275 273/273 274/274
f 276/276 275/275 274/274
f 276/276 277/277 275/275
f 276/276 278/278 277/277
f 279/279 277/277 278/278
f 279/279 280/280 277/277
f 283/283 282/282 281/281
f 284/284 281/281 282/282
f 285/285 284/284 282/282
f 285/285 282/282 286/286
f 287/287 285/285 286/286
f 288/288 287/287 286/286
f 288/288 286/286 289/289
f 290/290 288/288 289/289
f 290/290 291/291 288/288
f 291/291 292/292 288/288
f 293/293 288/288 292/292
f 293/293 294/294 288/288
f 297/297 296/296 295/295
f 297/297 298/298 296/296
f 301/301 300/300 299/299
f 302/302 301/301 299/299
f 302/302 299/299 303/303
f 304/304 302/302 303/303
f 304/304 303/303 305/305
f 306/306 304/304 305/305
f 306/306 305/305 307/307
f 308/308 306/306 307/307
f 308/308 307/307 309/309
f 310/310 308/308 309/309
f 310/310 309/309 311/311
f 312/312 310/310 311/311
f 312/312 311/311 313/313
f 314/314 312/312 313/313
f 314/314 313/313 315/315
f 314/314 315/315 316/316
f 316/316 315/315 317/317
f 316/316 317/317 318/318
f 319/319 316/316 318/318
f 319/319 318/318 320/320
f 321/321 319/319 320/320
f 321/321 320/320 322/322
f 321/321 322/322 323/323
f 323/323 322/322 324/324
f 323/323 324/324 325/325
f 325/325 324/324 326/326
f 325/325 326/326 327/327
f 327/327 326/326 328/328
f 327/327 328/328 329/329
f 330/330 327/327 329/329
f 330/330 329/329 331/331
f 332/332 330/330 331/331
f 332/332 331/331 333/333
f 332/332 333/333 334/334
f 334/334 333/333 335/335
f 335/335 336/336 334/334
f 337/337 334/334 336/336
f 337/337 336/336 338/338
f 339/339 337/337 338/338
f 339/339 338/338 340/340
f 340/340 338/338 341/341
f 340/340 341/341 342/342
f 342/342 341/341 343/343
f 342/342 343/343 344/344
f 344/344 343/343 345/345
f 344/344 345/345 346/346
f 347/347 344/344 346/346
f 347/347 346/346 348/348
f 349/349 347/347 348/348
f 352/352 351/351 350/350
f 353/353 352/352 350/350
f 354/354 353/353 350/350
f 355/355 354/354 350/350
f 355/355 350/350 356/356
f 357/357 356/356 350/350
f 358/358 357/357 350/350
f 359/359 358/358 350/350
f 360/360 359/359 350/350
f 361/361 360/360 350/350
f 362/362 361/361 350/350
f 363/363 362/362 350/350
f 364/364 363/363 350/350
f 365/365 364/364 350/350
f 368/368 367/367 366/366
f 368/368 369/369 367/367
f 366/366 367/367 370/370
f 369/369 371/371 367/367
f 366/366 370/370 372/372
f 369/369 373/373 371/371
f 373/373 374/374 371/371
f 373/373 375/375 374/374
f 375/375 376/376 374/374
f 377/377 376/376 375/375
f 377/377 378/378 376/376
f 377/377 379/379 378/378
f 372/372 370/370 380/380
f 381/381 372/372 380/380
f 382/382 381/381 380/380
f 382/382 380/380 383/383
f 384/384 382/382 383/383
f 384/384 383/383 385/385
f 386/386 384/384 385/385
f 379/379 387/387 378/378
f 388/388 387/387 379/379
f 389/389 387/387 388/388
f 386/386 385/385 390/390
f 391/391 386/386 390/390
f 392/392 391/391 390/390
f 389/389 393/393 387/387
f 394/394 393/393 389/389
f 394/394 395/395 393/393
f 395/395 396/396 393/393
f 395/395 397/397 396/396
f 392/392 390/390 398/398
f 399/399 392/392 398/398
f 400/400 399/399 398/398
f 400/400 398/398 401/401
f 400/400 401/401 402/402
f 397/397 403/403 396/396
f 402/402 401/401 403/403
f 397/397 404/404 403/403
f 404/404 402/402 403/403
f 407/407 406/406 405/405
f 408/408 407/407 405/405
f 409/409 405/405 406/406
f 408/408 405/405 410/410
f 406/406 411/411 409/409
f 412/412 408/408 410/410
f 411/411 413/413 409/409
f 411/411 414/414 413/413
f 412/412 410/410 415/415
f 416/416 412/412 415/415
f 417/417 416/416 415/415
f 417/417 415/415 418/418
f 419/419 417/417 418/418
f 419/419 418/418 420/420
f 421/421 419/419 420/420
f 414/414 422/422 413/413
f 414/414 423/423 422/422
f 421/421 420/420 424/424
f 425/425 421/421 424/424
f 424/424 426/426 425/425
f 424/424 427/427 426/426
f 427/427 428/428 426/426
f 423/423 429/429 422/422
f 429/429 430/430 422/422
f 431/431 430/430 429/429
f 431/431 429/429 432/432
f 432/432 433/433 431/431
f 432/432 434/434 433/433
f 434/434 435/435 433/433
f 435/435 434/434 436/436
f 436/436 437/437 435/435
f 438/438 437/437 436/436
f 427/427 439/439 428/428
f 439/439 440/440 428/428
f 439/439 441/441 440/440
f 438/438 442/442 437/437
f 438/438 443/443 442/442
f 442/442 443/443 444/444
f 444/444 445/445 442/442
f 444/444 446/446 445/445
f 439/439 447/447 441/441
f 447/447 448/448 441/441
f 447/447 449/449 448/448
f 446/446 450/450 445/445
f 446/446 451/451 450/450
f 451/451 452/452 450/450
f 447/447 453/453 449/449
f 453/453 450/450 452/452
f 453/453 454/454 449/449
f 453/453 452/452 454/454
f 457/457 456/456 455/455
f 455/455 458/458 457/457
f 456/456 459/459 455/455
f 455/455 460/460 458/458
f 456/456 461/461 459/459
f 460/460 462/462 458/458
f 461/461 463/463 459/459
f 463/463 461/461 464/464
f 463/463 464/464 465/465
f 465/465 466/466 463/463
f 465/465 467/467 466/466
f 468/468 466/466 467/467
f 468/468 467/467 469/469
f 469/469 470/470 468/468
f 469/469 471/471 470/470
f 460/460 472/472 462/462
f 472/472 473/473 462/462
f 473/473 472/472 474/474
f 475/475 474/474 472/472
f 475/475 476/476 474/474
f 475/475 477/477 476/476
f 477/477 478/478 476/476
f 479/479 470/470 471/471
f 479/479 471/471 480/480
f 479/479 480/480 481/481
f 482/482 479/479 481/481
f 482/482 481/481 483/483
f 484/484 482/482 483/483
f 484/484 483/483 485/485
f 486/486 484/484 485/485
f 486/486 485/485 487/487
f 486/486 487/487 488/488
f 488/488 487/487 489/489
f 490/490 488/488 489/489
f 490/490 489/489 491/491
f 490/490 491/491 492/492
f 492/492 491/491 493/493
f 492/492 493/493 494/494
f 495/495 492/492 494/494
f 496/496 495/495 494/494
f 497/497 495/495 496/496
f 497/497 496/496 498/498
f 499/499 497/497 498/498
f 500/500 499/499 498/498
f 500/500 498/498 501/501
f 500/500 501/501 478/478
f 477/477 500/500 478/478
