v -0.600000024 -3.45499986 -0.317999989
v -0.598906279 -3.43859363 -0.317999989
v -0.624986172 -3.4541679 -0.317999989
v -0.623637795 -3.43493962 -0.317999989
v -0.64997232 -3.453336 -0.317999989
v -0.648369312 -3.43128568 -0.317999989
v -0.674958467 -3.45250404 -0.317999989
v -0.673100889 -3.42763168 -0.317999989
v -0.699944615 -3.45167208 -0.317999989
v -0.697832406 -3.42397773 -0.317999989
v -0.600000024 -3.45499986 -0.317999989
v -0.598906279 -3.43859363 -0.317999989
v -0.575013876 -3.45583183 -0.317999989
v -0.574174762 -3.44224763 -0.317999989
v -0.550027728 -3.45666373 -0.317999989
v -0.549443245 -3.44590157 -0.317999989
v -0.52504158 -3.45749569 -0.317999989
v -0.524711668 -3.44955558 -0.317999989
v -0.500055432 -3.45832765 -0.317999989
v -0.499980152 -3.45320952 -0.317999989
v -0.598906279 -3.43859363 -0.317999989
v -0.595624983 -3.42437482 -0.317999989
v -0.623637795 -3.43493962 -0.317999989
v -0.619302511 -3.4163515 -0.317999989
v -0.648369312 -3.43128568 -0.317999989
v -0.642980099 -3.40832818 -0.317999989
v -0.673100889 -3.42763168 -0.317999989
v -0.666657627 -3.40030485 -0.317999989
v -0.697832406 -3.42397773 -0.317999989
v -0.690335155 -3.39228153 -0.317999989
v -0.598906279 -3.43859363 -0.317999989
v -0.595624983 -3.42437482 -0.317999989
v -0.574174762 -3.44224763 -0.317999989
v -0.571947455 -3.43239814 -0.317999989
v -0.549443245 -3.44590157 -0.317999989
v -0.548269868 -3.44042146 -0.317999989
v -0.524711668 -3.44955558 -0.317999989
v -0.52459234 -3.44844478 -0.317999989
v -0.499980152 -3.45320952 -0.317999989
v -0.500914812 -3.45646811 -0.317999989
v -0.595624983 -3.42437482 -0.317999989
v -0.590156257 -3.41234362 -0.317999989
v -0.619302511 -3.4163515 -0.317999989
v -0.611549497 -3.3994081 -0.317999989
v -0.642980099 -3.40832818 -0.317999989
v -0.632942796 -3.38647252 -0.317999989
v -0.666657627 -3.40030485 -0.317999989
v -0.654336035 -3.373537 -0.317999989
v -0.690335155 -3.39228153 -0.317999989
v -0.675729275 -3.36060143 -0.317999989
v -0.595624983 -3.42437482 -0.317999989
v -0.590156257 -3.41234362 -0.317999989
v -0.571947455 -3.43239814 -0.317999989
v -0.568763018 -3.42527914 -0.317999989
v -0.548269868 -3.44042146 -0.317999989
v -0.547369719 -3.43821472 -0.317999989
v -0.52459234 -3.44844478 -0.317999989
v -0.525976479 -3.45115024 -0.317999989
v -0.500914812 -3.45646811 -0.317999989
v -0.50458324 -3.46408582 -0.317999989
v -0.590156257 -3.41234362 -0.317999989
v -0.582500041 -3.40249991 -0.317999989
v -0.611549497 -3.3994081 -0.317999989
v -0.600177705 -3.38482225 -0.317999989
v -0.632942796 -3.38647252 -0.317999989
v -0.61785537 -3.36714458 -0.317999989
v -0.654336035 -3.373537 -0.317999989
v -0.635533094 -3.34946692 -0.317999989
v -0.675729275 -3.36060143 -0.317999989
v -0.653210759 -3.33178926 -0.317999989
v -0.590156257 -3.41234362 -0.317999989
v -0.582500041 -3.40249991 -0.317999989
v -0.568763018 -3.42527914 -0.317999989
v -0.564822376 -3.42017758 -0.317999989
v -0.547369719 -3.43821472 -0.317999989
v -0.547144711 -3.43785524 -0.317999989
v -0.525976479 -3.45115024 -0.317999989
v -0.529466987 -3.45553291 -0.317999989
v -0.50458324 -3.46408582 -0.317999989
v -0.511789322 -3.47321057 -0.317999989
v -0.582500041 -3.40249991 -0.317999989
v -0.572656274 -3.39484364 -0.317999989
v -0.600177705 -3.38482225 -0.317999989
v -0.585591853 -3.3734504 -0.317999989
v -0.61785537 -3.36714458 -0.317999989
v -0.598527491 -3.35205716 -0.317999989
v -0.635533094 -3.34946692 -0.317999989
v -0.61146307 -3.33066392 -0.317999989
v -0.653210759 -3.33178926 -0.317999989
v -0.624398649 -3.30927074 -0.317999989
v -0.582500041 -3.40249991 -0.317999989
v -0.572656274 -3.39484364 -0.317999989
v -0.564822376 -3.42017758 -0.317999989
v -0.559720695 -3.41623688 -0.317999989
v -0.547144711 -3.43785524 -0.317999989
v -0.546785057 -3.43763012 -0.317999989
v -0.529466987 -3.45553291 -0.317999989
v -0.533849478 -3.45902336 -0.317999989
v -0.511789322 -3.47321057 -0.317999989
v -0.520913899 -3.48041654 -0.317999989
v -0.572656274 -3.39484364 -0.317999989
v -0.560625076 -3.38937485 -0.317999989
v -0.585591853 -3.3734504 -0.317999989
v -0.568648398 -3.36569732 -0.317999989
v -0.598527491 -3.35205716 -0.317999989
v -0.57667172 -3.34201974 -0.317999989
v -0.61146307 -3.33066392 -0.317999989
v -0.584695041 -3.31834221 -0.317999989
v -0.624398649 -3.30927074 -0.317999989
v -0.592718363 -3.29466468 -0.317999989
v -0.572656274 -3.39484364 -0.317999989
v -0.560625076 -3.38937485 -0.317999989
v -0.559720695 -3.41623688 -0.317999989
v -0.552601755 -3.41305238 -0.317999989
v -0.546785057 -3.43763012 -0.317999989
v -0.544578433 -3.43672997 -0.317999989
v -0.533849478 -3.45902336 -0.317999989
v -0.536555111 -3.4604075 -0.317999989
v -0.520913899 -3.48041654 -0.317999989
v -0.52853179 -3.48408502 -0.317999989
v -0.560625076 -3.38937485 -0.317999989
v -0.546406269 -3.38609362 -0.317999989
v -0.568648398 -3.36569732 -0.317999989
v -0.550060213 -3.3613621 -0.317999989
v -0.57667172 -3.34201974 -0.317999989
v -0.553714097 -3.33663052 -0.317999989
v -0.584695041 -3.31834221 -0.317999989
v -0.55736804 -3.31189901 -0.317999989
v -0.592718363 -3.29466468 -0.317999989
v -0.561021984 -3.28716749 -0.317999989
v -0.560625076 -3.38937485 -0.317999989
v -0.546406269 -3.38609362 -0.317999989
v -0.552601755 -3.41305238 -0.317999989
v -0.542752326 -3.41082513 -0.317999989
v -0.544578433 -3.43672997 -0.317999989
v -0.539098442 -3.43555671 -0.317999989
v -0.536555111 -3.4604075 -0.317999989
v -0.535444498 -3.46028823 -0.317999989
v -0.52853179 -3.48408502 -0.317999989
v -0.531790555 -3.48501974 -0.317999989
v -0.546406269 -3.38609362 -0.317999989
v -0.530000031 -3.38499987 -0.317999989
v -0.550060213 -3.3613621 -0.317999989
v -0.530831993 -3.36001372 -0.317999989
v -0.553714097 -3.33663052 -0.317999989
v -0.531663895 -3.33502758 -0.317999989
v -0.55736804 -3.31189901 -0.317999989
v -0.532495856 -3.31004143 -0.317999989
v -0.561021984 -3.28716749 -0.317999989
v -0.533327818 -3.28505528 -0.317999989
v -0.546406269 -3.38609362 -0.317999989
v -0.530000031 -3.38499987 -0.317999989
v -0.542752326 -3.41082513 -0.317999989
v -0.529168069 -3.40998602 -0.317999989
v -0.539098442 -3.43555671 -0.317999989
v -0.528336167 -3.43497217 -0.317999989
v -0.535444498 -3.46028823 -0.317999989
v -0.527504206 -3.45995831 -0.317999989
v -0.531790555 -3.48501974 -0.317999989
v -0.526672244 -3.48494446 -0.317999989
v -0.530000031 -3.38499987 -0.317999989
v 0.530000031 -3.38499987 -0.317999989
v -0.530831993 -3.36001372 -0.317999989
v 0.530831993 -3.36001372 -0.317999989
v -0.531663895 -3.33502758 -0.317999989
v 0.531663895 -3.33502758 -0.317999989
v -0.532495856 -3.31004143 -0.317999989
v 0.532495856 -3.31004143 -0.317999989
v -0.533327818 -3.28505528 -0.317999989
v 0.533327818 -3.28505528 -0.317999989
v -0.530000031 -3.38499987 -0.317999989
v 0.530000031 -3.38499987 -0.317999989
v -0.529168069 -3.40998602 -0.317999989
v 0.529168069 -3.40998602 -0.317999989
v -0.528336167 -3.43497217 -0.317999989
v 0.528336167 -3.43497217 -0.317999989
v -0.527504206 -3.45995831 -0.317999989
v 0.527504206 -3.45995831 -0.317999989
v -0.526672244 -3.48494446 -0.317999989
v 0.526672244 -3.48494446 -0.317999989
v 0.530000031 -3.38499987 -0.317999989
v 0.546406269 -3.38609362 -0.317999989
v 0.530831993 -3.36001372 -0.317999989
v 0.550060272 -3.3613621 -0.317999989
v 0.531663895 -3.33502758 -0.317999989
v 0.553714216 -3.33663058 -0.317999989
v 0.532495856 -3.31004143 -0.317999989
v 0.557368219 -3.31189901 -0.317999989
v 0.533327818 -3.28505528 -0.317999989
v 0.561022162 -3.28716749 -0.317999989
v 0.530000031 -3.38499987 -0.317999989
v 0.546406269 -3.38609362 -0.317999989
v 0.529168069 -3.40998602 -0.317999989
v 0.542752266 -3.41082513 -0.317999989
v 0.528336167 -3.43497217 -0.317999989
v 0.539098322 -3.43555665 -0.317999989
v 0.527504206 -3.45995831 -0.317999989
v 0.535444319 -3.46028823 -0.317999989
v 0.526672244 -3.48494446 -0.317999989
v 0.531790376 -3.48501974 -0.317999989
v 0.546406269 -3.38609362 -0.317999989
v 0.560625076 -3.38937491 -0.317999989
v 0.550060272 -3.3613621 -0.317999989
v 0.568648398 -3.36569738 -0.317999989
v 0.553714216 -3.33663058 -0.317999989
v 0.57667172 -3.3420198 -0.317999989
v 0.557368219 -3.31189901 -0.317999989
v 0.584695041 -3.31834227 -0.317999989
v 0.561022162 -3.28716749 -0.317999989
v 0.592718363 -3.29466474 -0.317999989
v 0.546406269 -3.38609362 -0.317999989
v 0.560625076 -3.38937491 -0.317999989
v 0.542752266 -3.41082513 -0.317999989
v 0.552601755 -3.41305244 -0.317999989
v 0.539098322 -3.43555665 -0.317999989
v 0.544578433 -3.43673003 -0.317999989
v 0.535444319 -3.46028823 -0.317999989
v 0.536555111 -3.46040756 -0.317999989
v 0.531790376 -3.48501974 -0.317999989
v 0.52853179 -3.48408508 -0.317999989
v 0.560625076 -3.38937491 -0.317999989
v 0.572656274 -3.39484364 -0.317999989
v 0.568648398 -3.36569738 -0.317999989
v 0.585591793 -3.3734504 -0.317999989
v 0.57667172 -3.3420198 -0.317999989
v 0.598527372 -3.3520571 -0.317999989
v 0.584695041 -3.31834227 -0.317999989
v 0.611462891 -3.33066386 -0.317999989
v 0.592718363 -3.29466474 -0.317999989
v 0.62439847 -3.30927062 -0.317999989
v 0.560625076 -3.38937491 -0.317999989
v 0.572656274 -3.39484364 -0.317999989
v 0.552601755 -3.41305244 -0.317999989
v 0.559720755 -3.41623688 -0.317999989
v 0.544578433 -3.43673003 -0.317999989
v 0.546785176 -3.43763018 -0.317999989
v 0.536555111 -3.46040756 -0.317999989
v 0.533849657 -3.45902342 -0.317999989
v 0.52853179 -3.48408508 -0.317999989
v 0.520914078 -3.48041666 -0.317999989
v 0.572656274 -3.39484364 -0.317999989
v 0.582499981 -3.40249985 -0.317999989
v 0.585591793 -3.3734504 -0.317999989
v 0.600177646 -3.38482219 -0.317999989
v 0.598527372 -3.3520571 -0.317999989
v 0.61785531 -3.36714453 -0.317999989
v 0.611462891 -3.33066386 -0.317999989
v 0.635532975 -3.3494668 -0.317999989
v 0.62439847 -3.30927062 -0.317999989
v 0.65321064 -3.33178914 -0.317999989
v 0.572656274 -3.39484364 -0.317999989
v 0.582499981 -3.40249985 -0.317999989
v 0.559720755 -3.41623688 -0.317999989
v 0.564822316 -3.42017752 -0.317999989
v 0.546785176 -3.43763018 -0.317999989
v 0.547144651 -3.43785518 -0.317999989
v 0.533849657 -3.45902342 -0.317999989
v 0.529466987 -3.45553291 -0.317999989
v 0.520914078 -3.48041666 -0.317999989
v 0.511789322 -3.47321057 -0.317999989
v 0.582499981 -3.40249985 -0.317999989
v 0.590156257 -3.41234362 -0.317999989
v 0.600177646 -3.38482219 -0.317999989
v 0.611549497 -3.39940804 -0.317999989
v 0.61785531 -3.36714453 -0.317999989
v 0.632942736 -3.3864724 -0.317999989
v 0.635532975 -3.3494668 -0.317999989
v 0.654335976 -3.37353683 -0.317999989
v 0.65321064 -3.33178914 -0.317999989
v 0.675729156 -3.36060125 -0.317999989
v 0.582499981 -3.40249985 -0.317999989
v 0.590156257 -3.41234362 -0.317999989
v 0.564822316 -3.42017752 -0.317999989
v 0.568763018 -3.4252792 -0.317999989
v 0.547144651 -3.43785518 -0.317999989
v 0.547369778 -3.43821484 -0.317999989
v 0.529466987 -3.45553291 -0.317999989
v 0.525976539 -3.45115042 -0.317999989
v 0.511789322 -3.47321057 -0.317999989
v 0.504583359 -3.464086 -0.317999989
v 0.590156257 -3.41234362 -0.317999989
v 0.595625043 -3.42437482 -0.317999989
v 0.611549497 -3.39940804 -0.317999989
v 0.619302571 -3.4163515 -0.317999989
v 0.632942736 -3.3864724 -0.317999989
v 0.642980158 -3.40832818 -0.317999989
v 0.654335976 -3.37353683 -0.317999989
v 0.666657686 -3.40030485 -0.317999989
v 0.675729156 -3.36060125 -0.317999989
v 0.690335214 -3.39228153 -0.317999989
v 0.590156257 -3.41234362 -0.317999989
v 0.595625043 -3.42437482 -0.317999989
v 0.568763018 -3.4252792 -0.317999989
v 0.571947515 -3.43239814 -0.317999989
v 0.547369778 -3.43821484 -0.317999989
v 0.548269928 -3.44042146 -0.317999989
v 0.525976539 -3.45115042 -0.317999989
v 0.5245924 -3.44844478 -0.317999989
v 0.504583359 -3.464086 -0.317999989
v 0.500914872 -3.45646811 -0.317999989
v 0.595625043 -3.42437482 -0.317999989
v 0.598906279 -3.43859363 -0.317999989
v 0.619302571 -3.4163515 -0.317999989
v 0.623637795 -3.43493968 -0.317999989
v 0.642980158 -3.40832818 -0.317999989
v 0.648369372 -3.4312858 -0.317999989
v 0.666657686 -3.40030485 -0.317999989
v 0.673100889 -3.42763186 -0.317999989
v 0.690335214 -3.39228153 -0.317999989
v 0.697832406 -3.42397791 -0.317999989
v 0.595625043 -3.42437482 -0.317999989
v 0.598906279 -3.43859363 -0.317999989
v 0.571947515 -3.43239814 -0.317999989
v 0.574174762 -3.44224757 -0.317999989
v 0.548269928 -3.44042146 -0.317999989
v 0.549443185 -3.44590145 -0.317999989
v 0.5245924 -3.44844478 -0.317999989
v 0.524711668 -3.4495554 -0.317999989
v 0.500914872 -3.45646811 -0.317999989
v 0.499980152 -3.45320934 -0.317999989
v 0.598906279 -3.43859363 -0.317999989
v 0.600000024 -3.45499986 -0.317999989
v 0.623637795 -3.43493968 -0.317999989
v 0.624986172 -3.4541679 -0.317999989
v 0.648369372 -3.4312858 -0.317999989
v 0.64997232 -3.453336 -0.317999989
v 0.673100889 -3.42763186 -0.317999989
v 0.674958467 -3.45250404 -0.317999989
v 0.697832406 -3.42397791 -0.317999989
v 0.699944615 -3.45167208 -0.317999989
v 0.598906279 -3.43859363 -0.317999989
v 0.600000024 -3.45499986 -0.317999989
v 0.574174762 -3.44224757 -0.317999989
v 0.575013876 -3.45583183 -0.317999989
v 0.549443185 -3.44590145 -0.317999989
v 0.550027728 -3.45666373 -0.317999989
v 0.524711668 -3.4495554 -0.317999989
v 0.52504158 -3.45749569 -0.317999989
v 0.499980152 -3.45320934 -0.317999989
v 0.500055432 -3.45832765 -0.317999989
v 0.600000024 -3.45499986 -0.317999989
v 0.600000024 -4.51499993 -0.317999989
v 0.624986172 -3.4541679 -0.317999989
v 0.624986172 -4.51583189 -0.317999989
v 0.64997232 -3.453336 -0.317999989
v 0.64997232 -4.51666379 -0.317999989
v 0.674958467 -3.45250404 -0.317999989
v 0.674958467 -4.51749575 -0.317999989
v 0.699944615 -3.45167208 -0.317999989
v 0.699944615 -4.51832771 -0.317999989
v 0.600000024 -3.45499986 -0.317999989
v 0.600000024 -4.51499993 -0.317999989
v 0.575013876 -3.45583183 -0.317999989
v 0.575013876 -4.51416796 -0.317999989
v 0.550027728 -3.45666373 -0.317999989
v 0.550027728 -4.51333606 -0.317999989
v 0.52504158 -3.45749569 -0.317999989
v 0.52504158 -4.5125041 -0.317999989
v 0.500055432 -3.45832765 -0.317999989
v 0.500055432 -4.51167214 -0.317999989
v 0.600000024 -4.51499993 -0.317999989
v 0.598906279 -4.53140616 -0.317999989
v 0.624986172 -4.51583189 -0.317999989
v 0.623637795 -4.53506017 -0.317999989
v 0.64997232 -4.51666379 -0.317999989
v 0.648369312 -4.53871411 -0.317999989
v 0.674958467 -4.51749575 -0.317999989
v 0.673100889 -4.54236811 -0.317999989
v 0.699944615 -4.51832771 -0.317999989
v 0.697832406 -4.54602206 -0.317999989
v 0.600000024 -4.51499993 -0.317999989
v 0.598906279 -4.53140616 -0.317999989
v 0.575013876 -4.51416796 -0.317999989
v 0.574174762 -4.52775216 -0.317999989
v 0.550027728 -4.51333606 -0.317999989
v 0.549443245 -4.52409822 -0.317999989
v 0.52504158 -4.5125041 -0.317999989
v 0.524711668 -4.52044421 -0.317999989
v 0.500055432 -4.51167214 -0.317999989
v 0.499980152 -4.51679027 -0.317999989
v 0.598906279 -4.53140616 -0.317999989
v 0.595624983 -4.54562497 -0.317999989
v 0.623637795 -4.53506017 -0.317999989
v 0.619302511 -4.55364829 -0.317999989
v 0.648369312 -4.53871411 -0.317999989
v 0.642980099 -4.56167161 -0.317999989
v 0.673100889 -4.54236811 -0.317999989
v 0.666657627 -4.56969494 -0.317999989
v 0.697832406 -4.54602206 -0.317999989
v 0.690335155 -4.57771826 -0.317999989
v 0.598906279 -4.53140616 -0.317999989
v 0.595624983 -4.54562497 -0.317999989
v 0.574174762 -4.52775216 -0.317999989
v 0.571947455 -4.53760165 -0.317999989
v 0.549443245 -4.52409822 -0.317999989
v 0.548269868 -4.52957833 -0.317999989
v 0.524711668 -4.52044421 -0.317999989
v 0.52459234 -4.52155501 -0.317999989
v 0.499980152 -4.51679027 -0.317999989
v 0.500914812 -4.51353168 -0.317999989
v 0.595624983 -4.54562497 -0.317999989
v 0.590156257 -4.55765617 -0.317999989
v 0.619302511 -4.55364829 -0.317999989
v 0.611549497 -4.57059169 -0.317999989
v 0.642980099 -4.56167161 -0.317999989
v 0.632942796 -4.58352727 -0.317999989
v 0.666657627 -4.56969494 -0.317999989
v 0.654336035 -4.59646279 -0.317999989
v 0.690335155 -4.57771826 -0.317999989
v 0.675729275 -4.60939837 -0.317999989
v 0.595624983 -4.54562497 -0.317999989
v 0.590156257 -4.55765617 -0.317999989
v 0.571947455 -4.53760165 -0.317999989
v 0.568763018 -4.54472065 -0.317999989
v 0.548269868 -4.52957833 -0.317999989
v 0.547369719 -4.53178507 -0.317999989
v 0.52459234 -4.52155501 -0.317999989
v 0.525976479 -4.51884955 -0.317999989
v 0.500914812 -4.51353168 -0.317999989
v 0.50458324 -4.50591397 -0.317999989
v 0.590156257 -4.55765617 -0.317999989
v 0.582500041 -4.56749988 -0.317999989
v 0.611549497 -4.57059169 -0.317999989
v 0.600177705 -4.58517754 -0.317999989
v 0.632942796 -4.58352727 -0.317999989
v 0.61785537 -4.60285521 -0.317999989
v 0.654336035 -4.59646279 -0.317999989
v 0.635533094 -4.62053287 -0.317999989
v 0.675729275 -4.60939837 -0.317999989
v 0.653210759 -4.63821054 -0.317999989
v 0.590156257 -4.55765617 -0.317999989
v 0.582500041 -4.56749988 -0.317999989
v 0.568763018 -4.54472065 -0.317999989
v 0.564822376 -4.54982221 -0.317999989
v 0.547369719 -4.53178507 -0.317999989
v 0.547144711 -4.53214455 -0.317999989
v 0.525976479 -4.51884955 -0.317999989
v 0.529466987 -4.51446688 -0.317999989
v 0.50458324 -4.50591397 -0.317999989
v 0.511789322 -4.49678922 -0.317999989
v 0.582500041 -4.56749988 -0.317999989
v 0.572656274 -4.57515615 -0.317999989
v 0.600177705 -4.58517754 -0.317999989
v 0.585591853 -4.59654939 -0.317999989
v 0.61785537 -4.60285521 -0.317999989
v 0.598527491 -4.61794263 -0.317999989
v 0.635533094 -4.62053287 -0.317999989
v 0.61146307 -4.63933587 -0.317999989
v 0.653210759 -4.63821054 -0.317999989
v 0.624398649 -4.66072905 -0.317999989
v 0.582500041 -4.56749988 -0.317999989
v 0.572656274 -4.57515615 -0.317999989
v 0.564822376 -4.54982221 -0.317999989
v 0.559720695 -4.55376291 -0.317999989
v 0.547144711 -4.53214455 -0.317999989
v 0.546785057 -4.53236967 -0.317999989
v 0.529466987 -4.51446688 -0.317999989
v 0.533849478 -4.51097643 -0.317999989
v 0.511789322 -4.49678922 -0.317999989
v 0.520913899 -4.48958325 -0.317999989
v 0.572656274 -4.57515615 -0.317999989
v 0.560625076 -4.58062494 -0.317999989
v 0.585591853 -4.59654939 -0.317999989
v 0.568648398 -4.60430247 -0.317999989
v 0.598527491 -4.61794263 -0.317999989
v 0.57667172 -4.62798005 -0.317999989
v 0.61146307 -4.63933587 -0.317999989
v 0.584695041 -4.65165758 -0.317999989
v 0.624398649 -4.66072905 -0.317999989
v 0.592718363 -4.67533511 -0.317999989
v 0.572656274 -4.57515615 -0.317999989
v 0.560625076 -4.58062494 -0.317999989
v 0.559720695 -4.55376291 -0.317999989
v 0.552601755 -4.55694741 -0.317999989
v 0.546785057 -4.53236967 -0.317999989
v 0.544578433 -4.53326982 -0.317999989
v 0.533849478 -4.51097643 -0.317999989
v 0.536555111 -4.50959229 -0.317999989
v 0.520913899 -4.48958325 -0.317999989
v 0.52853179 -4.48591477 -0.317999989
v 0.560625076 -4.58062494 -0.317999989
v 0.546406269 -4.58390617 -0.317999989
v 0.568648398 -4.60430247 -0.317999989
v 0.550060213 -4.60863769 -0.317999989
v 0.57667172 -4.62798005 -0.317999989
v 0.553714097 -4.63336927 -0.317999989
v 0.584695041 -4.65165758 -0.317999989
v 0.55736804 -4.65810078 -0.317999989
v 0.592718363 -4.67533511 -0.317999989
v 0.561021984 -4.6828323 -0.317999989
v 0.560625076 -4.58062494 -0.317999989
v 0.546406269 -4.58390617 -0.317999989
v 0.552601755 -4.55694741 -0.317999989
v 0.542752326 -4.55917466 -0.317999989
v 0.544578433 -4.53326982 -0.317999989
v 0.539098442 -4.53444308 -0.317999989
v 0.536555111 -4.50959229 -0.317999989
v 0.535444498 -4.50971156 -0.317999989
v 0.52853179 -4.48591477 -0.317999989
v 0.531790555 -4.48498005 -0.317999989
v 0.546406269 -4.58390617 -0.317999989
v 0.530000031 -4.58499992 -0.317999989
v 0.550060213 -4.60863769 -0.317999989
v 0.530831993 -4.60998607 -0.317999989
v 0.553714097 -4.63336927 -0.317999989
v 0.531663895 -4.63497221 -0.317999989
v 0.55736804 -4.65810078 -0.317999989
v 0.532495856 -4.65995836 -0.317999989
v 0.561021984 -4.6828323 -0.317999989
v 0.533327818 -4.68494451 -0.317999989
v 0.546406269 -4.58390617 -0.317999989
v 0.530000031 -4.58499992 -0.317999989
v 0.542752326 -4.55917466 -0.317999989
v 0.529168069 -4.56001377 -0.317999989
v 0.539098442 -4.53444308 -0.317999989
v 0.528336167 -4.53502762 -0.317999989
v 0.535444498 -4.50971156 -0.317999989
v 0.527504206 -4.51004148 -0.317999989
v 0.531790555 -4.48498005 -0.317999989
v 0.526672244 -4.48505533 -0.317999989
v 0.530000031 -4.58499992 -0.317999989
v -0.530000031 -4.58499992 -0.317999989
v 0.530831993 -4.60998607 -0.317999989
v -0.530831993 -4.60998607 -0.317999989
v 0.531663895 -4.63497221 -0.317999989
v -0.531663895 -4.63497221 -0.317999989
v 0.532495856 -4.65995836 -0.317999989
v -0.532495856 -4.65995836 -0.317999989
v 0.533327818 -4.68494451 -0.317999989
v -0.533327818 -4.68494451 -0.317999989
v 0.530000031 -4.58499992 -0.317999989
v -0.530000031 -4.58499992 -0.317999989
v 0.529168069 -4.56001377 -0.317999989
v -0.529168069 -4.56001377 -0.317999989
v 0.528336167 -4.53502762 -0.317999989
v -0.528336167 -4.53502762 -0.317999989
v 0.527504206 -4.51004148 -0.317999989
v -0.527504206 -4.51004148 -0.317999989
v 0.526672244 -4.48505533 -0.317999989
v -0.526672244 -4.48505533 -0.317999989
v -0.530000031 -4.58499992 -0.317999989
v -0.546406269 -4.58390617 -0.317999989
v -0.530831993 -4.60998607 -0.317999989
v -0.550060272 -4.60863769 -0.317999989
v -0.531663895 -4.63497221 -0.317999989
v -0.553714216 -4.63336921 -0.317999989
v -0.532495856 -4.65995836 -0.317999989
v -0.557368219 -4.65810078 -0.317999989
v -0.533327818 -4.68494451 -0.317999989
v -0.561022162 -4.6828323 -0.317999989
v -0.530000031 -4.58499992 -0.317999989
v -0.546406269 -4.58390617 -0.317999989
v -0.529168069 -4.56001377 -0.317999989
v -0.542752266 -4.55917466 -0.317999989
v -0.528336167 -4.53502762 -0.317999989
v -0.539098322 -4.53444314 -0.317999989
v -0.527504206 -4.51004148 -0.317999989
v -0.535444319 -4.50971156 -0.317999989
v -0.526672244 -4.48505533 -0.317999989
v -0.531790376 -4.48498005 -0.317999989
v -0.546406269 -4.58390617 -0.317999989
v -0.560625076 -4.58062488 -0.317999989
v -0.550060272 -4.60863769 -0.317999989
v -0.568648398 -4.60430241 -0.317999989
v -0.553714216 -4.63336921 -0.317999989
v -0.57667172 -4.62797999 -0.317999989
v -0.557368219 -4.65810078 -0.317999989
v -0.584695041 -4.65165752 -0.317999989
v -0.561022162 -4.6828323 -0.317999989
v -0.592718363 -4.67533505 -0.317999989
v -0.546406269 -4.58390617 -0.317999989
v -0.560625076 -4.58062488 -0.317999989
v -0.542752266 -4.55917466 -0.317999989
v -0.552601755 -4.55694735 -0.317999989
v -0.539098322 -4.53444314 -0.317999989
v -0.544578433 -4.53326976 -0.317999989
v -0.535444319 -4.50971156 -0.317999989
v -0.536555111 -4.50959224 -0.317999989
v -0.531790376 -4.48498005 -0.317999989
v -0.52853179 -4.48591471 -0.317999989
v -0.560625076 -4.58062488 -0.317999989
v -0.572656274 -4.57515615 -0.317999989
v -0.568648398 -4.60430241 -0.317999989
v -0.585591793 -4.59654939 -0.317999989
v -0.57667172 -4.62797999 -0.317999989
v -0.598527372 -4.61794269 -0.317999989
v -0.584695041 -4.65165752 -0.317999989
v -0.611462891 -4.63933593 -0.317999989
v -0.592718363 -4.67533505 -0.317999989
v -0.62439847 -4.66072917 -0.317999989
v -0.560625076 -4.58062488 -0.317999989
v -0.572656274 -4.57515615 -0.317999989
v -0.552601755 -4.55694735 -0.317999989
v -0.559720755 -4.55376291 -0.317999989
v -0.544578433 -4.53326976 -0.317999989
v -0.546785176 -4.53236961 -0.317999989
v -0.536555111 -4.50959224 -0.317999989
v -0.533849657 -4.51097637 -0.317999989
v -0.52853179 -4.48591471 -0.317999989
v -0.520914078 -4.48958313 -0.317999989
v -0.572656274 -4.57515615 -0.317999989
v -0.582499981 -4.56749994 -0.317999989
v -0.585591793 -4.59654939 -0.317999989
v -0.600177646 -4.5851776 -0.317999989
v -0.598527372 -4.61794269 -0.317999989
v -0.61785531 -4.60285527 -0.317999989
v -0.611462891 -4.63933593 -0.317999989
v -0.635532975 -4.62053299 -0.317999989
v -0.62439847 -4.66072917 -0.317999989
v -0.65321064 -4.63821065 -0.317999989
v -0.572656274 -4.57515615 -0.317999989
v -0.582499981 -4.56749994 -0.317999989
v -0.559720755 -4.55376291 -0.317999989
v -0.564822316 -4.54982227 -0.317999989
v -0.546785176 -4.53236961 -0.317999989
v -0.547144651 -4.53214461 -0.317999989
v -0.533849657 -4.51097637 -0.317999989
v -0.529466987 -4.51446688 -0.317999989
v -0.520914078 -4.48958313 -0.317999989
v -0.511789322 -4.49678922 -0.317999989
v -0.582499981 -4.56749994 -0.317999989
v -0.590156257 -4.55765617 -0.317999989
v -0.600177646 -4.5851776 -0.317999989
v -0.611549497 -4.57059175 -0.317999989
v -0.61785531 -4.60285527 -0.317999989
v -0.632942736 -4.58352739 -0.317999989
v -0.635532975 -4.62053299 -0.317999989
v -0.654335976 -4.59646297 -0.317999989
v -0.65321064 -4.63821065 -0.317999989
v -0.675729156 -4.60939854 -0.317999989
v -0.582499981 -4.56749994 -0.317999989
v -0.590156257 -4.55765617 -0.317999989
v -0.564822316 -4.54982227 -0.317999989
v -0.568763018 -4.54472059 -0.317999989
v -0.547144651 -4.53214461 -0.317999989
v -0.547369778 -4.53178495 -0.317999989
v -0.529466987 -4.51446688 -0.317999989
v -0.525976539 -4.51884937 -0.317999989
v -0.511789322 -4.49678922 -0.317999989
v -0.504583359 -4.50591379 -0.317999989
v -0.590156257 -4.55765617 -0.317999989
v -0.595625043 -4.54562497 -0.317999989
v -0.611549497 -4.57059175 -0.317999989
v -0.619302571 -4.55364829 -0.317999989
v -0.632942736 -4.58352739 -0.317999989
v -0.642980158 -4.56167161 -0.317999989
v -0.654335976 -4.59646297 -0.317999989
v -0.666657686 -4.56969494 -0.317999989
v -0.675729156 -4.60939854 -0.317999989
v -0.690335214 -4.57771826 -0.317999989
v -0.590156257 -4.55765617 -0.317999989
v -0.595625043 -4.54562497 -0.317999989
v -0.568763018 -4.54472059 -0.317999989
v -0.571947515 -4.53760165 -0.317999989
v -0.547369778 -4.53178495 -0.317999989
v -0.548269928 -4.52957833 -0.317999989
v -0.525976539 -4.51884937 -0.317999989
v -0.5245924 -4.52155501 -0.317999989
v -0.504583359 -4.50591379 -0.317999989
v -0.500914872 -4.51353168 -0.317999989
v -0.595625043 -4.54562497 -0.317999989
v -0.598906279 -4.53140616 -0.317999989
v -0.619302571 -4.55364829 -0.317999989
v -0.623637795 -4.53506011 -0.317999989
v -0.642980158 -4.56167161 -0.317999989
v -0.648369372 -4.53871399 -0.317999989
v -0.666657686 -4.56969494 -0.317999989
v -0.673100889 -4.54236794 -0.317999989
v -0.690335214 -4.57771826 -0.317999989
v -0.697832406 -4.54602188 -0.317999989
v -0.595625043 -4.54562497 -0.317999989
v -0.598906279 -4.53140616 -0.317999989
v -0.571947515 -4.53760165 -0.317999989
v -0.574174762 -4.52775222 -0.317999989
v -0.548269928 -4.52957833 -0.317999989
v -0.549443185 -4.52409834 -0.317999989
v -0.5245924 -4.52155501 -0.317999989
v -0.524711668 -4.52044439 -0.317999989
v -0.500914872 -4.51353168 -0.317999989
v -0.499980152 -4.51679045 -0.317999989
v -0.598906279 -4.53140616 -0.317999989
v -0.600000024 -4.51499993 -0.317999989
v -0.623637795 -4.53506011 -0.317999989
v -0.624986172 -4.51583189 -0.317999989
v -0.648369372 -4.53871399 -0.317999989
v -0.64997232 -4.51666379 -0.317999989
v -0.673100889 -4.54236794 -0.317999989
v -0.674958467 -4.51749575 -0.317999989
v -0.697832406 -4.54602188 -0.317999989
v -0.699944615 -4.51832771 -0.317999989
v -0.598906279 -4.53140616 -0.317999989
v -0.600000024 -4.51499993 -0.317999989
v -0.574174762 -4.52775222 -0.317999989
v -0.575013876 -4.51416796 -0.317999989
v -0.549443185 -4.52409834 -0.317999989
v -0.550027728 -4.51333606 -0.317999989
v -0.524711668 -4.52044439 -0.317999989
v -0.52504158 -4.5125041 -0.317999989
v -0.499980152 -4.51679045 -0.317999989
v -0.500055432 -4.51167214 -0.317999989
v -0.600000024 -4.51499993 -0.317999989
v -0.600000024 -3.45499986 -0.317999989
v -0.624986172 -4.51583189 -0.317999989
v -0.624986172 -3.4541679 -0.317999989
v -0.64997232 -4.51666379 -0.317999989
v -0.64997232 -3.453336 -0.317999989
v -0.674958467 -4.51749575 -0.317999989
v -0.674958467 -3.45250404 -0.317999989
v -0.699944615 -4.51832771 -0.317999989
v -0.699944615 -3.45167208 -0.317999989
v -0.600000024 -4.51499993 -0.317999989
v -0.600000024 -3.45499986 -0.317999989
v -0.575013876 -4.51416796 -0.317999989
v -0.575013876 -3.45583183 -0.317999989
v -0.550027728 -4.51333606 -0.317999989
v -0.550027728 -3.45666373 -0.317999989
v -0.52504158 -4.5125041 -0.317999989
v -0.52504158 -3.45749569 -0.317999989
v -0.500055432 -4.51167214 -0.317999989
v -0.500055432 -3.45832765 -0.317999989
vt 0 0
vt 0 1
vt 0.25 0
vt 0.25 1
vt 0.5 0
vt 0.5 1
vt 0.75 0
vt 0.75 1
vt 1 0
vt 1 1
vt 0 0
vt 0 1
vt 0.25 0
vt 0.25 1
vt 0.5 0
vt 0.5 1
vt 0.75 0
vt 0.75 1
vt 1 0
vt 1 1
vt 0 0
vt 0 1
vt 0.25 0
vt 0.25 1
vt 0.5 0
vt 0.5 1
vt 0.75 0
vt 0.75 1
vt 1 0
vt 1 1
vt 0 0
vt 0 1
vt 0.25 0
vt 0.25 1
vt 0.5 0
vt 0.5 1
vt 0.75 0
vt 0.75 1
vt 1 0
vt 1 1
vt 0 0
vt 0 1
vt 0.25 0
vt 0.25 1
vt 0.5 0
vt 0.5 1
vt 0.75 0
vt 0.75 1
vt 1 0
vt 1 1
vt 0 0
vt 0 1
vt 0.25 0
vt 0.25 1
vt 0.5 0
vt 0.5 1
vt 0.75 0
vt 0.75 1
vt 1 0
vt 1 1
vt 0 0
vt 0 1
vt 0.25 0
vt 0.25 1
vt 0.5 0
vt 0.5 1
vt 0.75 0
vt 0.75 1
vt 1 0
vt 1 1
vt 0 0
vt 0 1
vt 0.25 0
vt 0.25 1
vt 0.5 0
vt 0.5 1
vt 0.75 0
vt 0.75 1
vt 1 0
vt 1 1
vt 0 0
vt 0 1
vt 0.25 0
vt 0.25 1
vt 0.5 0
vt 0.5 1
vt 0.75 0
vt 0.75 1
vt 1 0
vt 1 1
vt 0 0
vt 0 1
vt 0.25 0
vt 0.25 1
vt 0.5 0
vt 0.5 1
vt 0.75 0
vt 0.75 1
vt 1 0
vt 1 1
vt 0 0
vt 0 1
vt 0.25 0
vt 0.25 1
vt 0.5 0
vt 0.5 1
vt 0.75 0
vt 0.75 1
vt 1 0
vt 1 1
vt 0 0
vt 0 1
vt 0.25 0
vt 0.25 1
vt 0.5 0
vt 0.5 1
vt 0.75 0
vt 0.75 1
vt 1 0
vt 1 1
vt 0 0
vt 0 1
vt 0.25 0
vt 0.25 1
vt 0.5 0
vt 0.5 1
vt 0.75 0
vt 0.75 1
vt 1 0
vt 1 1
vt 0 0
vt 0 1
vt 0.25 0
vt 0.25 1
vt 0.5 0
vt 0.5 1
vt 0.75 0
vt 0.75 1
vt 1 0
vt 1 1
vt 0 0
vt 0 1
vt 0.25 0
vt 0.25 1
vt 0.5 0
vt 0.5 1
vt 0.75 0
vt 0.75 1
vt 1 0
vt 1 1
vt 0 0
vt 0 1
vt 0.25 0
vt 0.25 1
vt 0.5 0
vt 0.5 1
vt 0.75 0
vt 0.75 1
vt 1 0
vt 1 1
vt 0 0
vt 0 1
vt 0.25 0
vt 0.25 1
vt 0.5 0
vt 0.5 1
vt 0.75 0
vt 0.75 1
vt 1 0
vt 1 1
vt 0 0
vt 0 1
vt 0.25 0
vt 0.25 1
vt 0.5 0
vt 0.5 1
vt 0.75 0
vt 0.75 1
vt 1 0
vt 1 1
vt 0 0
vt 0 1
vt 0.25 0
vt 0.25 1
vt 0.5 0
vt 0.5 1
vt 0.75 0
vt 0.75 1
vt 1 0
vt 1 1
vt 0 0
vt 0 1
vt 0.25 0
vt 0.25 1
vt 0.5 0
vt 0.5 1
vt 0.75 0
vt 0.75 1
vt 1 0
vt 1 1
vt 0 0
vt 0 1
vt 0.25 0
vt 0.25 1
vt 0.5 0
vt 0.5 1
vt 0.75 0
vt 0.75 1
vt 1 0
vt 1 1
vt 0 0
vt 0 1
vt 0.25 0
vt 0.25 1
vt 0.5 0
vt 0.5 1
vt 0.75 0
vt 0.75 1
vt 1 0
vt 1 1
vt 0 0
vt 0 1
vt 0.25 0
vt 0.25 1
vt 0.5 0
vt 0.5 1
vt 0.75 0
vt 0.75 1
vt 1 0
vt 1 1
vt 0 0
vt 0 1
vt 0.25 0
vt 0.25 1
vt 0.5 0
vt 0.5 1
vt 0.75 0
vt 0.75 1
vt 1 0
vt 1 1
vt 0 0
vt 0 1
vt 0.25 0
vt 0.25 1
vt 0.5 0
vt 0.5 1
vt 0.75 0
vt 0.75 1
vt 1 0
vt 1 1
vt 0 0
vt 0 1
vt 0.25 0
vt 0.25 1
vt 0.5 0
vt 0.5 1
vt 0.75 0
vt 0.75 1
vt 1 0
vt 1 1
vt 0 0
vt 0 1
vt 0.25 0
vt 0.25 1
vt 0.5 0
vt 0.5 1
vt 0.75 0
vt 0.75 1
vt 1 0
vt 1 1
vt 0 0
vt 0 1
vt 0.25 0
vt 0.25 1
vt 0.5 0
vt 0.5 1
vt 0.75 0
vt 0.75 1
vt 1 0
vt 1 1
vt 0 0
vt 0 1
vt 0.25 0
vt 0.25 1
vt 0.5 0
vt 0.5 1
vt 0.75 0
vt 0.75 1
vt 1 0
vt 1 1
vt 0 0
vt 0 1
vt 0.25 0
vt 0.25 1
vt 0.5 0
vt 0.5 1
vt 0.75 0
vt 0.75 1
vt 1 0
vt 1 1
vt 0 0
vt 0 1
vt 0.25 0
vt 0.25 1
vt 0.5 0
vt 0.5 1
vt 0.75 0
vt 0.75 1
vt 1 0
vt 1 1
vt 0 0
vt 0 1
vt 0.25 0
vt 0.25 1
vt 0.5 0
vt 0.5 1
vt 0.75 0
vt 0.75 1
vt 1 0
vt 1 1
vt 0 0
vt 0 1
vt 0.25 0
vt 0.25 1
vt 0.5 0
vt 0.5 1
vt 0.75 0
vt 0.75 1
vt 1 0
vt 1 1
vt 0 0
vt 0 1
vt 0.25 0
vt 0.25 1
vt 0.5 0
vt 0.5 1
vt 0.75 0
vt 0.75 1
vt 1 0
vt 1 1
vt 0 0
vt 0 1
vt 0.25 0
vt 0.25 1
vt 0.5 0
vt 0.5 1
vt 0.75 0
vt 0.75 1
vt 1 0
vt 1 1
vt 0 0
vt 0 1
vt 0.25 0
vt 0.25 1
vt 0.5 0
vt 0.5 1
vt 0.75 0
vt 0.75 1
vt 1 0
vt 1 1
vt 0 0
vt 0 1
vt 0.25 0
vt 0.25 1
vt 0.5 0
vt 0.5 1
vt 0.75 0
vt 0.75 1
vt 1 0
vt 1 1
vt 0 0
vt 0 1
vt 0.25 0
vt 0.25 1
vt 0.5 0
vt 0.5 1
vt 0.75 0
vt 0.75 1
vt 1 0
vt 1 1
vt 0 0
vt 0 1
vt 0.25 0
vt 0.25 1
vt 0.5 0
vt 0.5 1
vt 0.75 0
vt 0.75 1
vt 1 0
vt 1 1
vt 0 0
vt 0 1
vt 0.25 0
vt 0.25 1
vt 0.5 0
vt 0.5 1
vt 0.75 0
vt 0.75 1
vt 1 0
vt 1 1
vt 0 0
vt 0 1
vt 0.25 0
vt 0.25 1
vt 0.5 0
vt 0.5 1
vt 0.75 0
vt 0.75 1
vt 1 0
vt 1 1
vt 0 0
vt 0 1
vt 0.25 0
vt 0.25 1
vt 0.5 0
vt 0.5 1
vt 0.75 0
vt 0.75 1
vt 1 0
vt 1 1
vt 0 0
vt 0 1
vt 0.25 0
vt 0.25 1
vt 0.5 0
vt 0.5 1
vt 0.75 0
vt 0.75 1
vt 1 0
vt 1 1
vt 0 0
vt 0 1
vt 0.25 0
vt 0.25 1
vt 0.5 0
vt 0.5 1
vt 0.75 0
vt 0.75 1
vt 1 0
vt 1 1
vt 0 0
vt 0 1
vt 0.25 0
vt 0.25 1
vt 0.5 0
vt 0.5 1
vt 0.75 0
vt 0.75 1
vt 1 0
vt 1 1
vt 0 0
vt 0 1
vt 0.25 0
vt 0.25 1
vt 0.5 0
vt 0.5 1
vt 0.75 0
vt 0.75 1
vt 1 0
vt 1 1
vt 0 0
vt 0 1
vt 0.25 0
vt 0.25 1
vt 0.5 0
vt 0.5 1
vt 0.75 0
vt 0.75 1
vt 1 0
vt 1 1
vt 0 0
vt 0 1
vt 0.25 0
vt 0.25 1
vt 0.5 0
vt 0.5 1
vt 0.75 0
vt 0.75 1
vt 1 0
vt 1 1
vt 0 0
vt 0 1
vt 0.25 0
vt 0.25 1
vt 0.5 0
vt 0.5 1
vt 0.75 0
vt 0.75 1
vt 1 0
vt 1 1
vt 0 0
vt 0 1
vt 0.25 0
vt 0.25 1
vt 0.5 0
vt 0.5 1
vt 0.75 0
vt 0.75 1
vt 1 0
vt 1 1
vt 0 0
vt 0 1
vt 0.25 0
vt 0.25 1
vt 0.5 0
vt 0.5 1
vt 0.75 0
vt 0.75 1
vt 1 0
vt 1 1
vt 0 0
vt 0 1
vt 0.25 0
vt 0.25 1
vt 0.5 0
vt 0.5 1
vt 0.75 0
vt 0.75 1
vt 1 0
vt 1 1
vt 0 0
vt 0 1
vt 0.25 0
vt 0.25 1
vt 0.5 0
vt 0.5 1
vt 0.75 0
vt 0.75 1
vt 1 0
vt 1 1
vt 0 0
vt 0 1
vt 0.25 0
vt 0.25 1
vt 0.5 0
vt 0.5 1
vt 0.75 0
vt 0.75 1
vt 1 0
vt 1 1
vt 0 0
vt 0 1
vt 0.25 0
vt 0.25 1
vt 0.5 0
vt 0.5 1
vt 0.75 0
vt 0.75 1
vt 1 0
vt 1 1
vt 0 0
vt 0 1
vt 0.25 0
vt 0.25 1
vt 0.5 0
vt 0.5 1
vt 0.75 0
vt 0.75 1
vt 1 0
vt 1 1
vt 0 0
vt 0 1
vt 0.25 0
vt 0.25 1
vt 0.5 0
vt 0.5 1
vt 0.75 0
vt 0.75 1
vt 1 0
vt 1 1
vt 0 0
vt 0 1
vt 0.25 0
vt 0.25 1
vt 0.5 0
vt 0.5 1
vt 0.75 0
vt 0.75 1
vt 1 0
vt 1 1
vt 0 0
vt 0 1
vt 0.25 0
vt 0.25 1
vt 0.5 0
vt 0.5 1
vt 0.75 0
vt 0.75 1
vt 1 0
vt 1 1
vt 0 0
vt 0 1
vt 0.25 0
vt 0.25 1
vt 0.5 0
vt 0.5 1
vt 0.75 0
vt 0.75 1
vt 1 0
vt 1 1
vt 0 0
vt 0 1
vt 0.25 0
vt 0.25 1
vt 0.5 0
vt 0.5 1
vt 0.75 0
vt 0.75 1
vt 1 0
vt 1 1
vt 0 0
vt 0 1
vt 0.25 0
vt 0.25 1
vt 0.5 0
vt 0.5 1
vt 0.75 0
vt 0.75 1
vt 1 0
vt 1 1
vt 0 0
vt 0 1
vt 0.25 0
vt 0.25 1
vt 0.5 0
vt 0.5 1
vt 0.75 0
vt 0.75 1
vt 1 0
vt 1 1
vt 0 0
vt 0 1
vt 0.25 0
vt 0.25 1
vt 0.5 0
vt 0.5 1
vt 0.75 0
vt 0.75 1
vt 1 0
vt 1 1
vt 0 0
vt 0 1
vt 0.25 0
vt 0.25 1
vt 0.5 0
vt 0.5 1
vt 0.75 0
vt 0.75 1
vt 1 0
vt 1 1
vt 0 0
vt 0 1
vt 0.25 0
vt 0.25 1
vt 0.5 0
vt 0.5 1
vt 0.75 0
vt 0.75 1
vt 1 0
vt 1 1
vt 0 0
vt 0 1
vt 0.25 0
vt 0.25 1
vt 0.5 0
vt 0.5 1
vt 0.75 0
vt 0.75 1
vt 1 0
vt 1 1
vt 0 0
vt 0 1
vt 0.25 0
vt 0.25 1
vt 0.5 0
vt 0.5 1
vt 0.75 0
vt 0.75 1
vt 1 0
vt 1 1
vt 0 0
vt 0 1
vt 0.25 0
vt 0.25 1
vt 0.5 0
vt 0.5 1
vt 0.75 0
vt 0.75 1
vt 1 0
vt 1 1
vt 0 0
vt 0 1
vt 0.25 0
vt 0.25 1
vt 0.5 0
vt 0.5 1
vt 0.75 0
vt 0.75 1
vt 1 0
vt 1 1
vt 0 0
vt 0 1
vt 0.25 0
vt 0.25 1
vt 0.5 0
vt 0.5 1
vt 0.75 0
vt 0.75 1
vt 1 0
vt 1 1
vt 0 0
vt 0 1
vt 0.25 0
vt 0.25 1
vt 0.5 0
vt 0.5 1
vt 0.75 0
vt 0.75 1
vt 1 0
vt 1 1
f 2/2 3/3 1/1
f 4/4 3/3 2/2
f 4/4 5/5 3/3
f 6/6 5/5 4/4
f 6/6 7/7 5/5
f 8/8 7/7 6/6
f 8/8 9/9 7/7
f 10/10 9/9 8/8
f 13/13 12/12 11/11
f 13/13 14/14 12/12
f 15/15 14/14 13/13
f 15/15 16/16 14/14
f 17/17 16/16 15/15
f 17/17 18/18 16/16
f 19/19 18/18 17/17
f 19/19 20/20 18/18
f 22/22 23/23 21/21
f 24/24 23/23 22/22
f 24/24 25/25 23/23
f 26/26 25/25 24/24
f 26/26 27/27 25/25
f 28/28 27/27 26/26
f 28/28 29/29 27/27
f 30/30 29/29 28/28
f 33/33 32/32 31/31
f 33/33 34/34 32/32
f 35/35 34/34 33/33
f 35/35 36/36 34/34
f 37/37 36/36 35/35
f 37/37 38/38 36/36
f 39/39 38/38 37/37
f 39/39 40/40 38/38
f 42/42 43/43 41/41
f 44/44 43/43 42/42
f 44/44 45/45 43/43
f 46/46 45/45 44/44
f 46/46 47/47 45/45
f 48/48 47/47 46/46
f 48/48 49/49 47/47
f 50/50 49/49 48/48
f 53/53 52/52 51/51
f 53/53 54/54 52/52
f 55/55 54/54 53/53
f 55/55 56/56 54/54
f 57/57 56/56 55/55
f 57/57 58/58 56/56
f 59/59 58/58 57/57
f 59/59 60/60 58/58
f 62/62 63/63 61/61
f 64/64 63/63 62/62
f 64/64 65/65 63/63
f 66/66 65/65 64/64
f 66/66 67/67 65/65
f 68/68 67/67 66/66
f 68/68 69/69 67/67
f 70/70 69/69 68/68
f 73/73 72/72 71/71
f 73/73 74/74 72/72
f 75/75 74/74 73/73
f 75/75 76/76 74/74
f 77/77 76/76 75/75
f 77/77 78/78 76/76
f 79/79 78/78 77/77
f 79/79 80/80 78/78
f 82/82 83/83 81/81
f 84/84 83/83 82/82
f 84/84 85/85 83/83
f 86/86 85/85 84/84
f 86/86 87/87 85/85
f 88/88 87/87 86/86
f 88/88 89/89 87/87
f 90/90 89/89 88/88
f 93/93 92/92 91/91
f 93/93 94/94 92/92
f 95/95 94/94 93/93
f 95/95 96/96 94/94
f 97/97 96/96 95/95
f 97/97 98/98 96/96
f 99/99 98/98 97/97
f 99/99 100/100 98/98
f 102/102 103/103 101/101
f 104/104 103/103 102/102
f 104/104 105/105 103/103
f 106/106 105/105 104/104
f 106/106 107/107 105/105
f 108/108 107/107 106/106
f 108/108 109/109 107/107
f 110/110 109/109 108/108
f 113/113 112/112 111/111
f 113/113 114/114 112/112
f 115/115 114/114 113/113
f 115/115 116/116 114/114
f 117/117 116/116 115/115
f 117/117 118/118 116/116
f 119/119 118/118 117/117
f 119/119 120/120 118/118
f 122/122 123/123 121/121
f 124/124 123/123 122/122
f 124/124 125/125 123/123
f 126/126 125/125 124/124
f 126/126 127/127 125/125
f 128/128 127/127 126/126
f 128/128 129/129 127/127
f 130/130 129/129 128/128
f 133/133 132/132 131/131
f 133/133 134/134 132/132
f 135/135 134/134 133/133
f 135/135 136/136 134/134
f 137/137 136/136 135/135
f 137/137 138/138 136/136
f 139/139 138/138 137/137
f 139/139 140/140 138/138
f 142/142 143/143 141/141
f 144/144 143/143 142/142
f 144/144 145/145 143/143
f 146/146 145/145 144/144
f 146/146 147/147 145/145
f 148/148 147/147 146/146
f 148/148 149/149 147/147
f 150/150 149/149 148/148
f 153/153 152/152 151/151
f 153/153 154/154 152/152
f 155/155 154/154 153/153
f 155/155 156/156 154/154
f 157/157 156/156 155/155
f 157/157 158/158 156/156
f 159/159 158/158 157/157
f 159/159 160/160 158/158
f 162/162 163/163 161/161
f 164/164 163/163 162/162
f 164/164 165/165 163/163
f 166/166 165/165 164/164
f 166/166 167/167 165/165
f 168/168 167/167 166/166
f 168/168 169/169 167/167
f 170/170 169/169 168/168
f 173/173 172/172 171/171
f 173/173 174/174 172/172
f 175/175 174/174 173/173
f 175/175 176/176 174/174
f 177/177 176/176 175/175
f 177/177 178/178 176/176
f 179/179 178/178 177/177
f 179/179 180/180 178/178
f 182/182 183/183 181/181
f 184/184 183/183 182/182
f 184/184 185/185 183/183
f 186/186 185/185 184/184
f 186/186 187/187 185/185
f 188/188 187/187 186/186
f 188/188 189/189 187/187
f 190/190 189/189 188/188
f 193/193 192/192 191/191
f 193/193 194/194 192/192
f 195/195 194/194 193/193
f 195/195 196/196 194/194
f 197/197 196/196 195/195
f 197/197 198/198 196/196
f 199/199 198/198 197/197
f 199/199 200/200 198/198
f 202/202 203/203 201/201
f 204/204 203/203 202/202
f 204/204 205/205 203/203
f 206/206 205/205 204/204
f 206/206 207/207 205/205
f 208/208 207/207 206/206
f 208/208 209/209 207/207
f 210/210 209/209 208/208
f 213/213 212/212 211/211
f 213/213 214/214 212/212
f 215/215 214/214 213/213
f 215/215 216/216 214/214
f 217/217 216/216 215/215
f 217/217 218/218 216/216
f 219/219 218/218 217/217
f 219/219 220/220 218/218
f 222/222 223/223 221/221
f 224/224 223/223 222/222
f 224/224 225/225 223/223
f 226/226 225/225 224/224
f 226/226 227/227 225/225
f 228/228 227/227 226/226
f 228/228 229/229 227/227
f 230/230 229/229 228/228
f 233/233 232/232 231/231
f 233/233 234/234 232/232
f 235/235 234/234 233/233
f 235/235 236/236 234/234
f 237/237 236/236 235/235
f 237/237 238/238 236/236
f 239/239 238/238 237/237
f 239/239 240/240 238/238
f 242/242 243/243 241/241
f 244/244 243/243 242/242
f 244/244 245/245 243/243
f 246/246 245/245 244/244
f 246/246 247/247 245/245
f 248/248 247/247 246/246
f 248/248 249/249 247/247
f 250/250 249/249 248/248
f 253/253 252/252 251/251
f 253/253 254/254 252/252
f 255/255 254/254 253/253
f 255/255 256/256 254/254
f 257/257 256/256 255/255
f 257/257 258/258 256/256
f 259/259 258/258 257/257
f 259/259 260/260 258/258
f 262/262 263/263 261/261
f 264/264 263/263 262/262
f 264/264 265/265 263/263
f 266/266 265/265 264/264
f 266/266 267/267 265/265
f 268/268 267/267 266/266
f 268/268 269/269 267/267
f 270/270 269/269 268/268
f 273/273 272/272 271/271
f 273/273 274/274 272/272
f 275/275 274/274 273/273
f 275/275 276/276 274/274
f 277/277 276/276 275/275
f 277/277 278/278 276/276
f 279/279 278/278 277/277
f 279/279 280/280 278/278
f 282/282 283/283 281/281
f 284/284 283/283 282/282
f 284/284 285/285 283/283
f 286/286 285/285 284/284
f 286/286 287/287 285/285
f 288/288 287/287 286/286
f 288/288 289/289 287/287
f 290/290 289/289 288/288
f 293/293 292/292 291/291
f 293/293 294/294 292/292
f 295/295 294/294 293/293
f 295/295 296/296 294/294
f 297/297 296/296 295/295
f 297/297 298/298 296/296
f 299/299 298/298 297/297
f 299/299 300/300 298/298
f 302/302 303/303 301/301
f 304/304 303/303 302/302
f 304/304 305/305 303/303
f 306/306 305/305 304/304
f 306/306 307/307 305/305
f 308/308 307/307 306/306
f 308/308 309/309 307/307
f 310/310 309/309 308/308
f 313/313 312/312 311/311
f 313/313 314/314 312/312
f 315/315 314/314 313/313
f 315/315 316/316 314/314
f 317/317 316/316 315/315
f 317/317 318/318 316/316
f 319/319 318/318 317/317
f 319/319 320/320 318/318
f 322/322 323/323 321/321
f 324/324 323/323 322/322
f 324/324 325/325 323/323
f 326/326 325/325 324/324
f 326/326 327/327 325/325
f 328/328 327/327 326/326
f 328/328 329/329 327/327
f 330/330 329/329 328/328
f 333/333 332/332 331/331
f 333/333 334/334 332/332
f 335/335 334/334 333/333
f 335/335 336/336 334/334
f 337/337 336/336 335/335
f 337/337 338/338 336/336
f 339/339 338/338 337/337
f 339/339 340/340 338/338
f 342/342 343/343 341/341
f 344/344 343/343 342/342
f 344/344 345/345 343/343
f 346/346 345/345 344/344
f 346/346 347/347 345/345
f 348/348 347/347 346/346
f 348/348 349/349 347/347
f 350/350 349/349 348/348
f 353/353 352/352 351/351
f 353/353 354/354 352/352
f 355/355 354/354 353/353
f 355/355 356/356 354/354
f 357/357 356/356 355/355
f 357/357 358/358 356/356
f 359/359 358/358 357/357
f 359/359 360/360 358/358
f 362/362 363/363 361/361
f 364/364 363/363 362/362
f 364/364 365/365 363/363
f 366/366 365/365 364/364
f 366/366 367/367 365/365
f 368/368 367/367 366/366
f 368/368 369/369 367/367
f 370/370 369/369 368/368
f 373/373 372/372 371/371
f 373/373 374/374 372/372
f 375/375 374/374 373/373
f 375/375 376/376 374/374
f 377/377 376/376 375/375
f 377/377 378/378 376/376
f 379/379 378/378 377/377
f 379/379 380/380 378/378
f 382/382 383/383 381/381
f 384/384 383/383 382/382
f 384/384 385/385 383/383
f 386/386 385/385 384/384
f 386/386 387/387 385/385
f 388/388 387/387 386/386
f 388/388 389/389 387/387
f 390/390 389/389 388/388
f 393/393 392/392 391/391
f 393/393 394/394 392/392
f 395/395 394/394 393/393
f 395/395 396/396 394/394
f 397/397 396/396 395/395
f 397/397 398/398 396/396
f 399/399 398/398 397/397
f 399/399 400/400 398/398
f 402/402 403/403 401/401
f 404/404 403/403 402/402
f 404/404 405/405 403/403
f 406/406 405/405 404/404
f 406/406 407/407 405/405
f 408/408 407/407 406/406
f 408/408 409/409 407/407
f 410/410 409/409 408/408
f 413/413 412/412 411/411
f 413/413 414/414 412/412
f 415/415 414/414 413/413
f 415/415 416/416 414/414
f 417/417 416/416 415/415
f 417/417 418/418 416/416
f 419/419 418/418 417/417
f 419/419 420/420 418/418
f 422/422 423/423 421/421
f 424/424 423/423 422/422
f 424/424 425/425 423/423
f 426/426 425/425 424/424
f 426/426 427/427 425/425
f 428/428 427/427 426/426
f 428/428 429/429 427/427
f 430/430 429/429 428/428
f 433/433 432/432 431/431
f 433/433 434/434 432/432
f 435/435 434/434 433/433
f 435/435 436/436 434/434
f 437/437 436/436 435/435
f 437/437 438/438 436/436
f 439/439 438/438 437/437
f 439/439 440/440 438/438
f 442/442 443/443 441/441
f 444/444 443/443 442/442
f 444/444 445/445 443/443
f 446/446 445/445 444/444
f 446/446 447/447 445/445
f 448/448 447/447 446/446
f 448/448 449/449 447/447
f 450/450 449/449 448/448
f 453/453 452/452 451/451
f 453/453 454/454 452/452
f 455/455 454/454 453/453
f 455/455 456/456 454/454
f 457/457 456/456 455/455
f 457/457 458/458 456/456
f 459/459 458/458 457/457
f 459/459 460/460 458/458
f 462/462 463/463 461/461
f 464/464 463/463 462/462
f 464/464 465/465 463/463
f 466/466 465/465 464/464
f 466/466 467/467 465/465
f 468/468 467/467 466/466
f 468/468 469/469 467/467
f 470/470 469/469 468/468
f 473/473 472/472 471/471
f 473/473 474/474 472/472
f 475/475 474/474 473/473
f 475/475 476/476 474/474
f 477/477 476/476 475/475
f 477/477 478/478 476/476
f 479/479 478/478 477/477
f 479/479 480/480 478/478
f 482/482 483/483 481/481
f 484/484 483/483 482/482
f 484/484 485/485 483/483
f 486/486 485/485 484/484
f 486/486 487/487 485/485
f 488/488 487/487 486/486
f 488/488 489/489 487/487
f 490/490 489/489 488/488
f 493/493 492/492 491/491
f 493/493 494/494 492/492
f 495/495 494/494 493/493
f 495/495 496/496 494/494
f 497/497 496/496 495/495
f 497/497 498/498 496/496
f 499/499 498/498 497/497
f 499/499 500/500 498/498
f 502/502 503/503 501/501
f 504/504 503/503 502/502
f 504/504 505/505 503/503
f 506/506 505/505 504/504
f 506/506 507/507 505/505
f 508/508 507/507 506/506
f 508/508 509/509 507/507
f 510/510 509/509 508/508
f 513/513 512/512 511/511
f 513/513 514/514 512/512
f 515/515 514/514 513/513
f 515/515 516/516 514/514
f 517/517 516/516 515/515
f 517/517 518/518 516/516
f 519/519 518/518 517/517
f 519/519 520/520 518/518
f 522/522 523/523 521/521
f 524/524 523/523 522/522
f 524/524 525/525 523/523
f 526/526 525/525 524/524
f 526/526 527/527 525/525
f 528/528 527/527 526/526
f 528/528 529/529 527/527
f 530/530 529/529 528/528
f 533/533 532/532 531/531
f 533/533 534/534 532/532
f 535/535 534/534 533/533
f 535/535 536/536 534/534
f 537/537 536/536 535/535
f 537/537 538/538 536/536
f 539/539 538/538 537/537
f 539/539 540/540 538/538
f 542/542 543/543 541/541
f 544/544 543/543 542/542
f 544/544 545/545 543/543
f 546/546 545/545 544/544
f 546/546 547/547 545/545
f 548/548 547/547 546/546
f 548/548 549/549 547/547
f 550/550 549/549 548/548
f 553/553 552/552 551/551
f 553/553 554/554 552/552
f 555/555 554/554 553/553
f 555/555 556/556 554/554
f 557/557 556/556 555/555
f 557/557 558/558 556/556
f 559/559 558/558 557/557
f 559/559 560/560 558/558
f 562/562 563/563 561/561
f 564/564 563/563 562/562
f 564/564 565/565 563/563
f 566/566 565/565 564/564
f 566/566 567/567 565/565
f 568/568 567/567 566/566
f 568/568 569/569 567/567
f 570/570 569/569 568/568
f 573/573 572/572 571/571
f 573/573 574/574 572/572
f 575/575 574/574 573/573
f 575/575 576/576 574/574
f 577/577 576/576 575/575
f 577/577 578/578 576/576
f 579/579 578/578 577/577
f 579/579 580/580 578/578
f 582/582 583/583 581/581
f 584/584 583/583 582/582
f 584/584 585/585 583/583
f 586/586 585/585 584/584
f 586/586 587/587 585/585
f 588/588 587/587 586/586
f 588/588 589/589 587/587
f 590/590 589/589 588/588
f 593/593 592/592 591/591
f 593/593 594/594 592/592
f 595/595 594/594 593/593
f 595/595 596/596 594/594
f 597/597 596/596 595/595
f 597/597 598/598 596/596
f 599/599 598/598 597/597
f 599/599 600/600 598/598
f 602/602 603/603 601/601
f 604/604 603/603 602/602
f 604/604 605/605 603/603
f 606/606 605/605 604/604
f 606/606 607/607 605/605
f 608/608 607/607 606/606
f 608/608 609/609 607/607
f 610/610 609/609 608/608
f 613/613 612/612 611/611
f 613/613 614/614 612/612
f 615/615 614/614 613/613
f 615/615 616/616 614/614
f 617/617 616/616 615/615
f 617/617 618/618 616/616
f 619/619 618/618 617/617
f 619/619 620/620 618/618
f 622/622 623/623 621/621
f 624/624 623/623 622/622
f 624/624 625/625 623/623
f 626/626 625/625 624/624
f 626/626 627/627 625/625
f 628/628 627/627 626/626
f 628/628 629/629 627/627
f 630/630 629/629 628/628
f 633/633 632/632 631/631
f 633/633 634/634 632/632
f 635/635 634/634 633/633
f 635/635 636/636 634/634
f 637/637 636/636 635/635
f 637/637 638/638 636/636
f 639/639 638/638 637/637
f 639/639 640/640 638/638
f 642/642 643/643 641/641
f 644/644 643/643 642/642
f 644/644 645/645 643/643
f 646/646 645/645 644/644
f 646/646 647/647 645/645
f 648/648 647/647 646/646
f 648/648 649/649 647/647
f 650/650 649/649 648/648
f 653/653 652/652 651/651
f 653/653 654/654 652/652
f 655/655 654/654 653/653
f 655/655 656/656 654/654
f 657/657 656/656 655/655
f 657/657 658/658 656/656
f 659/659 658/658 657/657
f 659/659 660/660 658/658
f 662/662 663/663 661/661
f 664/664 663/663 662/662
f 664/664 665/665 663/663
f 666/666 665/665 664/664
f 666/666 667/667 665/665
f 668/668 667/667 666/666
f 668/668 669/669 667/667
f 670/670 669/669 668/668
f 673/673 672/672 671/671
f 673/673 674/674 672/672
f 675/675 674/674 673/673
f 675/675 676/676 674/674
f 677/677 676/676 675/675
f 677/677 678/678 676/676
f 679/679 678/678 677/677
f 679/679 680/680 678/678
f 682/682 683/683 681/681
f 684/684 683/683 682/682
f 684/684 685/685 683/683
f 686/686 685/685 684/684
f 686/686 687/687 685/685
f 688/688 687/687 686/686
f 688/688 689/689 687/687
f 690/690 689/689 688/688
f 693/693 692/692 691/691
f 693/693 694/694 692/692
f 695/695 694/694 693/693
f 695/695 696/696 694/694
f 697/697 696/696 695/695
f 697/697 698/698 696/696
f 699/699 698/698 697/697
f 699/699 700/700 698/698
f 702/702 703/703 701/701
f 704/704 703/703 702/702
f 704/704 705/705 703/703
f 706/706 705/705 704/704
f 706/706 707/707 705/705
f 708/708 707/707 706/706
f 708/708 709/709 707/707
f 710/710 709/709 708/708
f 713/713 712/712 711/711
f 713/713 714/714 712/712
f 715/715 714/714 713/713
f 715/715 716/716 714/714
f 717/717 716/716 715/715
f 717/717 718/718 716/716
f 719/719 718/718 717/717
f 719/719 720/720 718/718
