v 0.0100000492 0.000132254376 0.00504299569
v 0.015999937 0.000714529631 0.00494888736
v 0.0160002078 -0.000708618711 0.00494886044
v 0.0100005602 -0.00261496574 0.00431288645
v 0.0160004625 -0.00207411182 0.00454788751
v 0.016000678 -0.0032713259 0.00377845281
v 0.0100008398 -0.00420441305 0.0027029786
v 0.0160008411 -0.00420326947 0.00270289111
v 0.0100009592 -0.00497135283 0.000846589228
v 0.0160009342 -0.00479444212 0.00140833863
v 0.0160009532 -0.00499695058 -3.27969607e-07
v 0.0100008558 -0.00463964519 -0.00197657355
v 0.0160008935 -0.00479438828 -0.00140898674
v 0.0160007625 -0.00420316725 -0.0027035172
v 0.0100004795 -0.00283427784 -0.00417223455
v 0.0160005689 -0.00327118256 -0.00377904289
v 0.0160003301 -0.00207393956 -0.00454843212
v 0.0100000631 -0.000709574705 -0.00494926644
v 0.0160000637 -0.000708431264 -0.00494935412
v 0.00999968167 0.001297655 -0.00487572797
v 0.0159997914 0.000714717124 -0.00494932683
v 0.0159995381 0.00208021023 -0.00454835354
v 0.00999932061 0.00327628055 -0.00377883152
v 0.0159993197 0.00327742413 -0.00377891884
v 0.00999910295 0.00453515946 -0.00221371211
v 0.0159991581 0.00420936807 -0.00270335786
v 0.0159990649 0.00480054035 -0.00140880502
v 0.00999904616 0.00500190523 -5.10866405e-08
v 0.015999046 0.00500304881 -1.38549139e-07
v 0.00999914442 0.004643457 0.00197628178
v 0.0159991057 0.00480048724 0.00140852035
v 0.0159992382 0.00420926548 0.00270305063
v 0.00999952001 0.00283809001 0.00417194278
v 0.0160069828 0.00269344286 0.00426900551
v 0.0100000492 0.000132254376 0.00504299569
v 0.015999937 0.000714529631 0.00494888736
v -0.0100001759 0.00129365839 0.00487577709
v -0.00999979159 -0.000713573637 0.00494923952
v -0.0159997914 -0.000714717124 0.00494932683
v -0.0160000622 0.000708431264 0.00494935412
v -0.0160003287 0.00207393956 0.00454843284
v -0.010000569 0.00327232614 0.00377895558
v -0.0160005689 0.00327118256 0.00377904325
v -0.0100008318 0.00453126362 0.00221388309
v -0.0160082815 0.00460553753 0.00205584129
v -0.0100009526 0.00499809379 2.40454967e-07
v -0.0160009532 0.00499695058 3.27917449e-07
v -0.0100009126 0.00463971941 -0.00197610752
v -0.0160009342 0.00479444212 -0.00140833854
v -0.0160008411 0.00420326947 -0.00270289129
v -0.0100006789 0.00327246947 -0.00377854012
v -0.016000678 0.0032713259 -0.00377845245
v -0.0100003644 0.00154416215 -0.00480193085
v -0.0160004611 0.00207411182 -0.00454788751
v -0.0160002078 0.000708618711 -0.00494886044
v -0.00999993638 -0.00071338619 -0.00494897504
v -0.0159999355 -0.000714529631 -0.00494888736
v -0.00999956369 -0.00261861329 -0.0043129854
v -0.0159996705 -0.00208003797 -0.00454796609
v -0.0159994303 -0.00327728116 -0.0037785765
v -0.00999923759 -0.00420812226 -0.00270313813
v -0.0159992367 -0.00420926548 -0.00270305081
v -0.00999906435 -0.00497513189 -0.00084677813
v -0.0159991057 -0.00480048724 -0.00140852026
v -0.015999046 -0.00500304881 1.38496981e-07
v -0.00999908621 -0.00464353194 0.00197639692
v -0.0159990649 -0.00480054035 0.00140880511
v -0.0159991581 -0.00420936807 0.00270335768
v -0.00999939851 -0.00283824735 0.00417212723
v -0.0159993197 -0.00327742413 0.0037789192
v -0.0159995367 -0.00208021023 0.0045483539
v -0.00999979159 -0.000713573637 0.00494923952
v -0.0159997914 -0.000714717124 0.00494932683
v -0.000649210971 0.00999976177 0.00601092433
v -0.000928363114 -0.0100002901 0.00597329672
v 0.0021830128 -0.00999969106 0.00563813555
v 0.00244287825 0.0100003608 0.00552929123
v 0.00470996034 -0.00999917424 0.00379219164
v 0.00487989004 0.0100008624 0.00356614
v 0.00597539234 -0.00999887946 0.000930077294
v 0.0060088298 0.0100011324 0.000647491242
v 0.00564023045 -0.00999888458 -0.00218129571
v 0.00552719488 0.0100010996 -0.00244459552
v 0.00424448423 -0.00999911098 -0.00424289174
v 0.0035640422 0.010000772 -0.00488160877
v 0.00244653253 -0.0099994291 -0.00552936071
v 0.000645400031 0.010000237 -0.00601054489
v -0.000645575154 -0.01000001 -0.00601090469
v -0.00155490467 0.00999981335 -0.0057953428
v -0.00356418444 -0.0100005865 -0.00488188343
v -0.00379442186 0.00999936568 -0.00470775631
v -0.00552726655 -0.010001008 -0.00244481344
v -0.00519810179 0.00999906579 -0.00299973472
v -0.00601264015 0.00999886636 -0.000647116894
v -0.00600880979 -0.0100011579 0.000647290426
v -0.00553100668 0.00999889914 0.0024449746
v -0.00487978745 -0.0100009977 0.00356590172
v -0.00356785509 0.00999922818 0.00488198602
v -0.00299801817 -0.0100006694 0.0051960069
v -0.000928363114 -0.0100002901 0.00597329672
v -0.000649210971 0.00999976177 0.00601092433
v -0.00765490171 -0.0100024822 0.00655494077
v -0.00754389329 -0.00845923416 0.0084912157
v 0.00757808244 -0.00999882547 0.00657480268
v 0.00749904797 -0.00875077974 0.00816894972
v 0.00754081036 -0.00701149627 0.00972280322
v -0.00747436221 -0.00661950973 0.00998116375
v -0.00750731006 -0.00516294305 0.0107987966
v 0.0075148583 -0.00499525347 0.0108750137
v -0.00754380209 -0.00294808499 0.0116173782
v 0.00749651765 -0.0033586967 0.0114914466
v 0.00754004368 -0.00107144112 0.0119398166
v -0.00747705121 -0.000604618225 0.011960385
v -0.0075105193 0.00106959749 0.011920312
v 0.00751475589 0.00125243625 0.0119019416
v -0.00754395398 0.0033870482 0.0114967195
v 0.00749382354 0.00297402905 0.011598217
v 0.00753925588 0.00516856664 0.0108169945
v -0.00747987409 0.00557854372 0.0105957304
v -0.00757216974 0.00698548836 0.00970410038
v 0.00758055404 0.00711615278 0.00960723555
v -0.00750766049 0.00833260645 0.00859512365
v 0.00749164827 0.00847518597 0.00845936447
v -0.00754964145 0.00999331175 0.00663272949
v 0.00750700259 0.00999709075 0.00662515085
v -0.0169995442 -0.00262262823 -0.00302279859
v -0.0170004216 -0.00398066262 0.000677437265
v -0.0170005075 -0.00371537611 -0.00158042149
v -0.0170005832 -0.00298314502 0.00272029174
v -0.0170009355 -0.00103953019 0.00389955239
v -0.0170013694 0.00123309761 0.00384081395
v -0.0170004556 0.00261614602 0.00302329554
v -0.0170018745 0.0037088939 0.00158092535
v -0.017001959 0.00397418368 -0.000676935679
v -0.0170006725 0.00336181508 -0.00216225162
v -0.0170016401 0.00208963317 -0.00344915206
v -0.0170001659 0.000566094528 -0.00395902716
v -0.0170010097 -0.00123958237 -0.00384031628
v 0.0170019211 -0.00370895538 0.00158028415
v 0.0170006652 -0.00226572789 0.00333718526
v 0.0170019386 -0.00397415967 -0.000677577782
v 0.0170017202 -0.00297656312 -0.00272040288
v 0.017001333 -0.00103290346 -0.00389959096
v 0.0170009006 0.00123972235 -0.00384076666
v 0.0170005614 0.00311978004 -0.00256259973
v 0.0170004216 0.00401035289 -0.000470902023
v 0.0170005249 0.00362869326 0.00177022157
v 0.0170008423 0.00209597987 0.0034492321
v 0.0170012703 -0.000101164326 0.0040330593
v -0.0160000622 0.000708431264 0.00494935412
v -0.0159997914 -0.000714717124 0.00494932683
v -0.0170009355 -0.00103953019 0.00389955239
v -0.0170013694 0.00123309761 0.00384081395
v -0.0160003287 0.00207393956 0.00454843284
v -0.0160005689 0.00327118256 0.00377904325
v -0.0170004556 0.00261614602 0.00302329554
v -0.0160082815 0.00460553753 0.00205584129
v -0.0170018745 0.0037088939 0.00158092535
v -0.0160009532 0.00499695058 3.27917449e-07
v -0.017001959 0.00397418368 -0.000676935679
v -0.0160009342 0.00479444212 -0.00140833854
v -0.0160008411 0.00420326947 -0.00270289129
v -0.0170006725 0.00336181508 -0.00216225162
v -0.016000678 0.0032713259 -0.00377845245
v -0.0170016401 0.00208963317 -0.00344915206
v -0.0160004611 0.00207411182 -0.00454788751
v -0.0160002078 0.000708618711 -0.00494886044
v -0.0170001659 0.000566094528 -0.00395902716
v -0.0159999355 -0.000714529631 -0.00494888736
v -0.0170010097 -0.00123958237 -0.00384031628
v -0.0159996705 -0.00208003797 -0.00454796609
v -0.0159994303 -0.00327728116 -0.0037785765
v -0.0169995442 -0.00262262823 -0.00302279859
v -0.0159992367 -0.00420926548 -0.00270305081
v -0.0170005075 -0.00371537611 -0.00158042149
v -0.0159991057 -0.00480048724 -0.00140852026
v -0.015999046 -0.00500304881 1.38496981e-07
v -0.0170004216 -0.00398066262 0.000677437265
v -0.0159990649 -0.00480054035 0.00140880511
v -0.0159991581 -0.00420936807 0.00270335768
v -0.0170005832 -0.00298314502 0.00272029174
v -0.0159993197 -0.00327742413 0.0037789192
v -0.0159995367 -0.00208021023 0.0045483539
v -0.0170009355 -0.00103953019 0.00389955239
v -0.0159997914 -0.000714717124 0.00494932683
v 0.0160002078 -0.000708618711 0.00494886044
v 0.015999937 0.000714529631 0.00494888736
v 0.0170012703 -0.000101164326 0.0040330593
v 0.0160004625 -0.00207411182 0.00454788751
v 0.0170006652 -0.00226572789 0.00333718526
v 0.016000678 -0.0032713259 0.00377845281
v 0.0160008411 -0.00420326947 0.00270289111
v 0.0170019211 -0.00370895538 0.00158028415
v 0.0160009342 -0.00479444212 0.00140833863
v 0.0160009532 -0.00499695058 -3.27969607e-07
v 0.0170019386 -0.00397415967 -0.000677577782
v 0.0160008935 -0.00479438828 -0.00140898674
v 0.0160007625 -0.00420316725 -0.0027035172
v 0.0170017202 -0.00297656312 -0.00272040288
v 0.0160005689 -0.00327118256 -0.00377904289
v 0.0160003301 -0.00207393956 -0.00454843212
v 0.017001333 -0.00103290346 -0.00389959096
v 0.0160000637 -0.000708431264 -0.00494935412
v 0.0159997914 0.000714717124 -0.00494932683
v 0.0170009006 0.00123972235 -0.00384076666
v 0.0159995381 0.00208021023 -0.00454835354
v 0.0159993197 0.00327742413 -0.00377891884
v 0.0170005614 0.00311978004 -0.00256259973
v 0.0159991581 0.00420936807 -0.00270335786
v 0.0159990649 0.00480054035 -0.00140880502
v 0.0170004216 0.00401035289 -0.000470902023
v 0.015999046 0.00500304881 -1.38549139e-07
v 0.0159991057 0.00480048724 0.00140852035
v 0.0170005249 0.00362869326 0.00177022157
v 0.0159992382 0.00420926548 0.00270305063
v 0.0160069828 0.00269344286 0.00426900551
v 0.0170008423 0.00209597987 0.0034492321
v 0.015999937 0.000714529631 0.00494888736
v 0.0170012703 -0.000101164326 0.0040330593
v 0.00758055404 0.00711615278 0.00960723555
v 0.00749164827 0.00847518597 0.00845936447
v 0.00849939967 0.00864513642 0.00777733003
v 0.00750700259 0.00999709075 0.00662515085
v 0.00878102859 0.0100003629 0.00561951056
v 0.00850612796 0.0062346073 0.00980635887
v 0.00753925588 0.00516856664 0.0108169945
v 0.00891878704 0.0035938982 0.0107733853
v 0.00749382354 0.00297402905 0.011598217
v 0.00912607866 0.00823909729 0.00749929823
v 0.00850697599 0.00191167584 0.0114615039
v 0.00751475589 0.00125243625 0.0119019416
v 0.00754004368 -0.00107144112 0.0119398166
v 0.00891884774 8.20061596e-05 0.0113559428
v 0.00959700916 0.00866685161 0.00597399703
v 0.00955459531 0.0100001286 0.00354869917
v 0.00912653798 0.00596510697 0.00940910904
v 0.00960499911 0.00619440627 0.00853950696
v 0.00990023251 0.00873520853 0.00459589974
v 0.00986700383 0.00999956478 -6.31031412e-05
v 0.00960121516 0.00306438862 0.0100611796
v 0.00995882171 0.0055700069 0.00784641015
v 0.00850785533 -0.00271439056 0.0112976857
v 0.00749651765 -0.0033586967 0.0114914466
v 0.0075148583 -0.00499525347 0.0108750137
v 0.00850838673 -0.00560270344 0.0101787169
v 0.00754081036 -0.00701149627 0.00972280322
v 0.00912819546 -0.00261616253 0.0108277076
v 0.009601748 0.000297429026 0.0105128078
v 0.00995274009 0.00143074472 0.00958822857
v 0.00979724522 -0.0025085165 0.00986112282
v 0.0100020069 -0.00459777824 0.00799296395
v 0.00945652471 -0.00492646167 0.00959032841
v 0.00850883514 -0.00809278352 0.00833641316
v 0.00749904797 -0.00875077974 0.00816894972
v 0.00757808244 -0.00999882547 0.00657480268
v 0.00845221235 -0.00999411858 0.00599321647
v 0.00912893214 -0.00663550156 0.00894652039
v 0.00914866836 -0.0087329797 0.00688152795
v 0.0094192315 -0.00999678877 0.00420678589
v 0.00990233873 -0.0059754379 0.00785835437
v 0.00960316166 -0.00734963021 0.00752086416
v 0.00982311617 -0.00880266367 0.00501260911
v 0.00987897816 -0.00999801691 0.000199779242
v 0.0100027516 -0.00894140088 0.00225022432
v 0.00997326209 -0.00864014641 -0.00403432641
v 0.00954645744 -0.00999605753 -0.00357877834
v 0.00961225238 -0.00900635193 -0.0054019838
v 0.00896601065 -0.00999654507 -0.00525057949
v 0.0100008398 -0.00420441305 0.0027029786
v 0.0100009592 -0.00497135283 0.000846589228
v 0.0100005602 -0.00261496574 0.00431288645
v 0.0100008558 -0.00463964519 -0.00197657355
v 0.0100000492 0.000132254376 0.00504299569
v 0.00999952001 0.00283809001 0.00417194278
v 0.00999914442 0.004643457 0.00197628178
v 0.0100004795 -0.00283427784 -0.00417223455
v 0.00996639744 -0.00284193779 -0.00918617807
v 0.0100000631 -0.000709574705 -0.00494926644
v 0.00999932884 0.00899891034 0.00202488754
v 0.00999904616 0.00500190523 -5.10866405e-08
v 0.00999910295 0.00453515946 -0.00221371211
v 0.0100003629 0.00742228745 -0.00560789958
v 0.00999932061 0.00327628055 -0.00377883152
v 0.00999968167 0.001297655 -0.00487572797
v 0.00997094024 0.000745436053 -0.00951458569
v 0.00960568495 0.00113736144 -0.0104874722
v 0.00990927655 0.0084523404 -0.00511886901
v 0.00952998875 0.0099998456 -0.0036557045
v 0.00990013685 0.00429414045 -0.00889176736
v 0.00945449498 0.00870668892 -0.00635907854
v 0.00889529096 0.00999979098 -0.00541732079
v 0.00940190523 0.00707280351 -0.00824415838
v 0.008522057 0.00864043397 -0.00775938533
v 0.00850583474 0.00627330593 -0.00978190365
v 0.00754351189 0.00999614342 -0.00663207247
v 0.00945958266 0.00491562797 -0.00958870805
v 0.00750448598 0.00833579972 -0.00859480206
v 0.00912674775 0.00333700671 -0.0106289415
v 0.00877161869 0.000560568236 -0.0114590133
v -0.00749488319 0.00847264608 -0.00845904797
v -0.00751043641 0.00999448173 -0.00662493039
v -0.00850269428 0.00864219181 -0.00777700188
v -0.0087848393 0.00999722829 -0.00561913184
v -0.00758326558 0.00711363179 -0.0096069627
v 0.00850635158 0.00346616945 -0.0110912973
v 0.00756950988 0.00698874203 -0.00970383553
v 0.00747775072 0.00558179919 -0.0105955172
v -0.00754122493 0.0051661046 -0.0108167973
v 0.00754266555 0.00339035389 -0.0114965922
v -0.00850850174 0.00623173908 -0.0098061224
v -0.0091292175 0.00823590228 -0.00749898463
v -0.0097935641 0.00836947207 -0.00581500899
v -0.00955840747 0.00999662068 -0.00354831536
v -0.00997108078 0.00890990326 -0.00347443893
v -0.00987081454 0.00999580211 6.34752837e-05
v -0.00946204804 0.00662782612 -0.00849305434
v -0.00990090534 0.00572082122 -0.00798879046
v -0.00940437788 0.00450022735 -0.00988393367
v -0.00850798781 0.00341949452 -0.0111045229
v -0.00749495838 0.00297160284 -0.0115981064
v -0.00751522904 0.00125003014 -0.011901895
v -0.00997646449 0.00325372152 -0.00897916107
v 0.00751011093 0.00107291418 -0.0119202719
v -0.00877209533 0.000206481906 -0.0114704926
v -0.00912804332 0.00181559037 -0.0109904489
v -0.00960639308 0.000974722367 -0.0105031882
v -0.00996930685 -1.83621158e-05 -0.0095683863
v -0.00753963095 -0.00107386461 -0.0119398581
v 0.00747728196 -0.000601314633 -0.0119604083
v -0.0100006789 0.00327246947 -0.00377854012
v -0.0100003644 0.00154416215 -0.00480193085
v -0.00999993638 -0.00071338619 -0.00494897504
v -0.0100009126 0.00463971941 -0.00197610752
v -0.00999956369 -0.00261861329 -0.0043129854
v -0.0100022917 0.00914925389 -0.000184426142
v -0.0100009526 0.00499809379 2.40454967e-07
v -0.00995325975 0.00859229826 0.00444227153
v -0.0100008318 0.00453126362 0.00221388309
v -0.00953380019 0.00999607499 0.00365608212
v -0.010000569 0.00327232614 0.00377895558
v -0.00999974161 -0.00653993571 -0.00649894864
v -0.00999923759 -0.00420812226 -0.00270313813
v -0.00999906435 -0.00497513189 -0.00084677813
v -0.00961258192 0.00827953979 0.00651457449
v -0.0089112547 0.00999624676 0.00539383473
v -0.0100017383 0.00405307932 0.00828226766
v -0.0100001759 0.00129365839 0.00487577709
v -0.00995935758 -0.00143303437 0.00951455877
v -0.00999979159 -0.000713573637 0.00494923952
v -0.00999939851 -0.00283824735 0.00417212723
v -0.00888480866 0.00861586227 0.00745108482
v -0.00754964145 0.00999331175 0.00663272949
v -0.00980820892 0.00576634034 0.0083808729
v -0.00850847711 0.00751756232 0.00885896661
v -0.00750766049 0.00833260645 0.00859512365
v -0.00757216974 0.00698548836 0.00970410038
v -0.00912855155 0.00602275243 0.0093703522
v -0.00850795302 0.0049099275 0.0105307423
v -0.00747987409 0.00557854372 0.0105957304
v -0.00754395398 0.0033870482 0.0114967195
v -0.0099015323 0.00306657589 0.00938465018
v -0.00940278585 0.00396305613 0.0100873724
v -0.00891895052 0.00218115269 0.0111447247
v -0.00960184422 0.0018021369 0.0103613733
v -0.00850708096 0.000409141405 0.0116125535
v -0.0075105193 0.00106959749 0.011920312
v -0.00747705121 -0.000604618225 0.011960385
v -0.00940196403 -0.000289494532 0.0108347827
v -0.00850649716 -0.00267339548 0.0113084781
v -0.00754380209 -0.00294808499 0.0116173782
v -0.00940275401 -0.0024448299 0.0105828891
v -0.00850596286 -0.00556607558 0.010200814
v -0.00750731006 -0.00516294305 0.0107987966
v -0.00747436221 -0.00661950973 0.00998116375
v -0.00996819251 -0.00449472041 0.00844773094
v -0.00999908621 -0.00464353194 0.00197639692
v -0.0099636825 -0.00871696917 0.00393374175
v -0.00940225464 -0.00515393377 0.00956143849
v -0.00884193586 -0.00733416241 0.0087269269
v -0.00754389329 -0.00845923416 0.0084912157
v -0.00989822884 -0.00720119583 0.0066891218
v -0.00960015541 -0.00727327654 0.00759852701
v -0.00852539664 -0.00897924767 0.00734858841
v -0.00765490171 -0.0100024822 0.00655494077
v -0.00896219993 -0.0100001613 0.0052502015
v -0.00913343316 -0.0087210349 0.00692377434
v -0.0096088202 -0.00901021933 0.00540164001
v -0.00954264818 -0.00999983105 0.00357839308
v -0.00987516672 -0.0100017738 -0.000200157524
v -0.0099985605 -0.00903768902 -0.0010404503
v -0.00982316119 -0.00879571684 -0.00501938775
v -0.00941542152 -0.0100002196 -0.00420715987
v -0.00990005958 -0.00597891281 -0.00785858283
v -0.0091453359 -0.00873620309 -0.00688186556
v -0.00844840673 -0.00999711193 -0.00599359155
v -0.00850575018 -0.00809570631 -0.00833672457
v -0.00757163783 -0.0100005512 -0.00657649216
v -0.00945417278 -0.00728841488 -0.00794782172
v -0.00979628799 -0.00251186533 -0.00986122323
v -0.0094025071 -0.00528865976 -0.00948733141
v -0.0091271982 -0.00261923112 -0.0108278058
v -0.00850625098 -0.0056055622 -0.0101789272
v -0.00850681512 -0.00271719365 -0.0112977941
v -0.00749571114 -0.00875332909 -0.00816927932
v -0.00753813449 -0.00701400343 -0.00972306807
v 0.00754711656 -0.00845603361 -0.00849153948
v 0.00765832898 -0.00999930059 -0.00655555559
v -0.00751295185 -0.00499769915 -0.0108752065
v -0.00749524086 -0.00336111763 -0.011491574
v 0.00754492383 -0.00294476984 -0.011617491
v 0.0075092762 -0.00515967593 -0.0107989916
v 0.0089199788 -0.00430208124 -0.0105096522
v 0.00850751626 -0.00266971873 -0.0113085793
v 0.00912758124 -0.00107700946 -0.0110875983
v 0.00960195778 -0.0023818852 -0.0102435435
v 0.00747688449 -0.00661628081 -0.00998141477
v 0.00850834245 -0.00687245845 -0.00936838405
v 0.00960246951 -0.00500345912 -0.00924982014
v 0.00852881718 -0.00897572825 -0.00734891801
v 0.00913675907 -0.00871728837 -0.0069241054
v 0.00912866147 -0.00657677585 -0.0089900539
v 0.00960292591 -0.00726932983 -0.00759880277
v 0.00990031972 -0.00674727548 -0.0072131661
v 0.000645400031 0.010000237 -0.00601054489
v 0.00754351189 0.00999614342 -0.00663207247
v 0.0035640422 0.010000772 -0.00488160877
v 0.00552719488 0.0100010996 -0.00244459552
v -0.00751043641 0.00999448173 -0.00662493039
v 0.00889529096 0.00999979098 -0.00541732079
v 0.00952998875 0.0099998456 -0.0036557045
v 0.00986700383 0.00999956478 -6.31031412e-05
v 0.0060088298 0.0100011324 0.000647491242
v 0.00955459531 0.0100001286 0.00354869917
v -0.00155490467 0.00999981335 -0.0057953428
v -0.00379442186 0.00999936568 -0.00470775631
v 0.00487989004 0.0100008624 0.00356614
v 0.00878102859 0.0100003629 0.00561951056
v -0.00519810179 0.00999906579 -0.00299973472
v -0.0087848393 0.00999722829 -0.00561913184
v -0.00955840747 0.00999662068 -0.00354831536
v -0.00601264015 0.00999886636 -0.000647116894
v -0.00987081454 0.00999580211 6.34752837e-05
v 0.00750700259 0.00999709075 0.00662515085
v 0.00244287825 0.0100003608 0.00552929123
v -0.000649210971 0.00999976177 0.00601092433
v -0.00553100668 0.00999889914 0.0024449746
v -0.00754964145 0.00999331175 0.00663272949
v -0.00356785509 0.00999922818 0.00488198602
v -0.00953380019 0.00999607499 0.00365608212
v -0.0089112547 0.00999624676 0.00539383473
v -0.000645575154 -0.01000001 -0.00601090469
v -0.00757163783 -0.0100005512 -0.00657649216
v -0.00356418444 -0.0100005865 -0.00488188343
v -0.00552726655 -0.010001008 -0.00244481344
v 0.00765832898 -0.00999930059 -0.00655555559
v -0.00844840673 -0.00999711193 -0.00599359155
v -0.00941542152 -0.0100002196 -0.00420715987
v -0.00987516672 -0.0100017738 -0.000200157524
v -0.00600880979 -0.0100011579 0.000647290426
v -0.00954264818 -0.00999983105 0.00357839308
v 0.00244653253 -0.0099994291 -0.00552936071
v 0.00424448423 -0.00999911098 -0.00424289174
v -0.00487978745 -0.0100009977 0.00356590172
v -0.00896219993 -0.0100001613 0.0052502015
v 0.00564023045 -0.00999888458 -0.00218129571
v -0.00765490171 -0.0100024822 0.00655494077
v -0.00299801817 -0.0100006694 0.0051960069
v -0.000928363114 -0.0100002901 0.00597329672
v 0.00896601065 -0.00999654507 -0.00525057949
v 0.00954645744 -0.00999605753 -0.00357877834
v 0.00987897816 -0.00999801691 0.000199779242
v 0.00597539234 -0.00999887946 0.000930077294
v 0.0094192315 -0.00999678877 0.00420678589
v 0.00757808244 -0.00999882547 0.00657480268
v 0.0021830128 -0.00999969106 0.00563813555
v 0.00470996034 -0.00999917424 0.00379219164
v 0.00845221235 -0.00999411858 0.00599321647
vt 0.73046875 0.396484375
vt 0.713867188 0.400634766
vt 0.715820312 0.404296875
vt 0.732910156 0.404785156
vt 0.716796875 0.407958984
vt 0.718261719 0.411621094
vt 0.734863281 0.411376953
vt 0.71875 0.415283203
vt 0.735839844 0.416992188
vt 0.719726562 0.418945312
vt 0.720703125 0.422607422
vt 0.737304688 0.425537109
vt 0.721191406 0.426269531
vt 0.721679688 0.430175781
vt 0.73828125 0.434082031
vt 0.722167969 0.433837891
vt 0.722167969 0.437744141
vt 0.738769531 0.440917969
vt 0.72265625 0.44140625
vt 0.738769531 0.446777344
vt 0.72265625 0.4453125
vt 0.72265625 0.448974609
vt 0.73828125 0.453613281
vt 0.722167969 0.452880859
vt 0.73828125 0.459716797
vt 0.722167969 0.456542969
vt 0.721679688 0.460205078
vt 0.737304688 0.466308594
vt 0.721191406 0.464111328
vt 0.736328125 0.472412109
vt 0.720214844 0.467773438
vt 0.719726562 0.471435547
vt 0.734375 0.480712891
vt 0.718261719 0.477050781
vt 0.731933594 0.489257812
vt 0.715820312 0.482421875
vt 0.450927734 0.658203125
vt 0.44921875 0.65234375
vt 0.432617188 0.656738281
vt 0.434082031 0.661132812
vt 0.435546875 0.664550781
vt 0.452392578 0.664550781
vt 0.436279297 0.668457031
vt 0.453613281 0.670410156
vt 0.4375 0.674316406
vt 0.454589844 0.677246094
vt 0.438232422 0.6796875
vt 0.455078125 0.68359375
vt 0.438720703 0.683105469
vt 0.438964844 0.687011719
vt 0.455322266 0.690429688
vt 0.439208984 0.690917969
vt 0.455566406 0.696289062
vt 0.439208984 0.694824219
vt 0.439208984 0.698242188
vt 0.455322266 0.703125
vt 0.438964844 0.702148438
vt 0.454833984 0.708984375
vt 0.438964844 0.706054688
vt 0.438476562 0.709960938
vt 0.454101562 0.715820312
vt 0.437988281 0.713378906
vt 0.453125 0.721679688
vt 0.4375 0.717285156
vt 0.436767578 0.720703125
vt 0.451416016 0.729980469
vt 0.436035156 0.724609375
vt 0.435058594 0.728027344
vt 0.44921875 0.73828125
vt 0.433837891 0.731933594
vt 0.432617188 0.735351562
vt 0.447021484 0.744628906
vt 0.430908203 0.739257812
vt 0.659667969 0.340332031
vt 0.604003906 0.339599609
vt 0.604003906 0.348388672
vt 0.659667969 0.349121094
vt 0.604003906 0.357177734
vt 0.659667969 0.357910156
vt 0.604003906 0.366210938
vt 0.659667969 0.366943359
vt 0.604003906 0.375
vt 0.659667969 0.375732422
vt 0.604003906 0.382080078
vt 0.659667969 0.384521484
vt 0.604003906 0.388183594
vt 0.659667969 0.393554688
vt 0.604003906 0.397216797
vt 0.659667969 0.399658203
vt 0.604003906 0.406005859
vt 0.659667969 0.406738281
vt 0.604003906 0.414794922
vt 0.659667969 0.413085938
vt 0.659667969 0.420166016
vt 0.604003906 0.423828125
vt 0.659667969 0.428955078
vt 0.604003906 0.432617188
vt 0.659667969 0.437744141
vt 0.604003906 0.439697266
vt 0.604003906 0.446044922
vt 0.659667969 0.446777344
vt 0.11529541 0.793457031
vt 0.115600586 0.80078125
vt 0.157592773 0.793457031
vt 0.157348633 0.799316406
vt 0.157470703 0.806152344
vt 0.115783691 0.807128906
vt 0.115722656 0.812011719
vt 0.157348633 0.8125
vt 0.115600586 0.818847656
vt 0.157348633 0.817382812
vt 0.157470703 0.82421875
vt 0.115783691 0.825683594
vt 0.115661621 0.830078125
vt 0.157348633 0.830566406
vt 0.115600586 0.836914062
vt 0.157348633 0.8359375
vt 0.157470703 0.842285156
vt 0.115783691 0.84375
vt 0.115539551 0.848144531
vt 0.157592773 0.848632812
vt 0.115661621 0.853515625
vt 0.157348633 0.854003906
vt 0.115600586 0.860351562
vt 0.157348633 0.860351562
vt 0.647949219 0.692382812
vt 0.650878906 0.703125
vt 0.650878906 0.696777344
vt 0.647460938 0.708496094
vt 0.641601562 0.7109375
vt 0.634765625 0.709960938
vt 0.631347656 0.707519531
vt 0.62890625 0.703125
vt 0.62890625 0.696777344
vt 0.630859375 0.692871094
vt 0.634765625 0.689453125
vt 0.639648438 0.688476562
vt 0.64453125 0.689453125
vt 0.345214844 0.489501953
vt 0.346191406 0.495849609
vt 0.347900391 0.483642578
vt 0.353271484 0.480224609
vt 0.359619141 0.480224609
vt 0.364990234 0.483642578
vt 0.367431641 0.489501953
vt 0.366455078 0.495849609
vt 0.362304688 0.500488281
vt 0.356201172 0.502441406
vt 0.350097656 0.500488281
vt 0.434082031 0.661132812
vt 0.432617188 0.656738281
vt 0.427978516 0.657714844
vt 0.430908203 0.664550781
vt 0.435546875 0.664550781
vt 0.436279297 0.668457031
vt 0.432373047 0.669433594
vt 0.4375 0.674316406
vt 0.43359375 0.674804688
vt 0.438232422 0.6796875
vt 0.434570312 0.682128906
vt 0.438720703 0.683105469
vt 0.438964844 0.687011719
vt 0.434814453 0.6875
vt 0.439208984 0.690917969
vt 0.435058594 0.693359375
vt 0.439208984 0.694824219
vt 0.439208984 0.698242188
vt 0.435058594 0.698242188
vt 0.438964844 0.702148438
vt 0.434814453 0.704101562
vt 0.438964844 0.706054688
vt 0.438476562 0.709960938
vt 0.434326172 0.709472656
vt 0.437988281 0.713378906
vt 0.43359375 0.715332031
vt 0.4375 0.717285156
vt 0.436767578 0.720703125
vt 0.432373047 0.722167969
vt 0.436035156 0.724609375
vt 0.435058594 0.728027344
vt 0.430664062 0.729003906
vt 0.433837891 0.731933594
vt 0.432617188 0.735351562
vt 0.427978516 0.735839844
vt 0.430908203 0.739257812
vt 0.715820312 0.404296875
vt 0.713867188 0.400634766
vt 0.711425781 0.404785156
vt 0.716796875 0.407958984
vt 0.713867188 0.411376953
vt 0.718261719 0.411621094
vt 0.71875 0.415283203
vt 0.715332031 0.418457031
vt 0.719726562 0.418945312
vt 0.720703125 0.422607422
vt 0.716796875 0.425537109
vt 0.721191406 0.426269531
vt 0.721679688 0.430175781
vt 0.717773438 0.432861328
vt 0.722167969 0.433837891
vt 0.722167969 0.437744141
vt 0.718261719 0.440185547
vt 0.72265625 0.44140625
vt 0.72265625 0.4453125
vt 0.718261719 0.447509766
vt 0.72265625 0.448974609
vt 0.722167969 0.452880859
vt 0.718261719 0.454833984
vt 0.722167969 0.456542969
vt 0.721679688 0.460205078
vt 0.717285156 0.461914062
vt 0.721191406 0.464111328
vt 0.720214844 0.467773438
vt 0.715820312 0.469238281
vt 0.719726562 0.471435547
vt 0.718261719 0.477050781
vt 0.714355469 0.475830078
vt 0.715820312 0.482421875
vt 0.711425781 0.481933594
vt 0.0390930176 0.252685547
vt 0.0429077148 0.257080078
vt 0.0466308594 0.255859375
vt 0.0488891602 0.26171875
vt 0.0538024902 0.259765625
vt 0.0400085449 0.248657227
vt 0.0346984863 0.246582031
vt 0.0372009277 0.240356445
vt 0.0316467285 0.239379883
vt 0.0481262207 0.25390625
vt 0.034362793 0.235351562
vt 0.0306396484 0.233642578
vt 0.030090332 0.226074219
vt 0.0351257324 0.229614258
vt 0.0531921387 0.254882812
vt 0.0608520508 0.258544922
vt 0.0420227051 0.247192383
vt 0.045135498 0.247558594
vt 0.0575561523 0.254638672
vt 0.0721435547 0.2578125
vt 0.0401306152 0.23840332
vt 0.0473022461 0.245483398
vt 0.0342102051 0.220947266
vt 0.03125 0.218383789
vt 0.0331726074 0.212768555
vt 0.0374755859 0.211791992
vt 0.0370178223 0.206176758
vt 0.0366821289 0.221435547
vt 0.0385131836 0.230102539
vt 0.0416259766 0.233398438
vt 0.0403137207 0.221801758
vt 0.0458679199 0.215332031
vt 0.0406494141 0.214355469
vt 0.0430297852 0.203857422
vt 0.0417480469 0.200317383
vt 0.0467224121 0.196044922
vt 0.0499267578 0.197265625
vt 0.0421142578 0.208984375
vt 0.0481567383 0.202270508
vt 0.0567016602 0.198120117
vt 0.046081543 0.211181641
vt 0.0467834473 0.20690918
vt 0.054473877 0.202270508
vt 0.0699462891 0.198242188
vt 0.0632324219 0.201660156
vt 0.0841064453 0.203491211
vt 0.0833740234 0.198608398
vt 0.088684082 0.20324707
vt 0.08984375 0.19934082
vt 0.0617980957 0.216186523
vt 0.0675048828 0.213989258
vt 0.0571289062 0.220947266
vt 0.0761108398 0.215087891
vt 0.0552062988 0.229125977
vt 0.0580749512 0.236938477
vt 0.0648193359 0.241943359
vt 0.08203125 0.220336914
vt 0.0944213867 0.221435547
vt 0.0838623047 0.226074219
vt 0.0655517578 0.255126953
vt 0.0707397461 0.242675781
vt 0.0771484375 0.240722656
vt 0.0879516602 0.247436523
vt 0.081237793 0.236816406
vt 0.0836791992 0.231201172
vt 0.0947875977 0.229614258
vt 0.0971679688 0.23046875
vt 0.0872192383 0.250488281
vt 0.0838012695 0.256347656
vt 0.0947265625 0.237915039
vt 0.0912475586 0.250488281
vt 0.0900878906 0.255615234
vt 0.0950927734 0.244750977
vt 0.0963134766 0.249633789
vt 0.0990600586 0.24206543
vt 0.0968017578 0.255859375
vt 0.0968017578 0.239013672
vt 0.0999755859 0.248535156
vt 0.0986328125 0.235229492
vt 0.0999755859 0.229125977
vt 0.138549805 0.249389648
vt 0.14074707 0.256347656
vt 0.141845703 0.25
vt 0.146606445 0.256591797
vt 0.137573242 0.244873047
vt 0.100341797 0.235351562
vt 0.101074219 0.244140625
vt 0.101989746 0.240356445
vt 0.136474609 0.239624023
vt 0.102600098 0.235229492
vt 0.139404297 0.24230957
vt 0.143920898 0.249023438
vt 0.148925781 0.250732422
vt 0.154541016 0.258056641
vt 0.155761719 0.254394531
vt 0.167602539 0.259521484
vt 0.143188477 0.244018555
vt 0.145263672 0.2421875
vt 0.141357422 0.23815918
vt 0.138183594 0.235473633
vt 0.135742188 0.23449707
vt 0.135498047 0.230834961
vt 0.14440918 0.235595703
vt 0.102905273 0.230224609
vt 0.138305664 0.228515625
vt 0.139526367 0.232055664
vt 0.141235352 0.230224609
vt 0.143432617 0.228027344
vt 0.135498047 0.225952148
vt 0.102966309 0.22668457
vt 0.157592773 0.237182617
vt 0.155151367 0.232177734
vt 0.154663086 0.226074219
vt 0.162475586 0.241577148
vt 0.15625 0.220947266
vt 0.166992188 0.256347656
vt 0.168457031 0.243041992
vt 0.182861328 0.254638672
vt 0.175537109 0.241699219
vt 0.180541992 0.259765625
vt 0.180541992 0.237792969
vt 0.14855957 0.211425781
vt 0.16027832 0.216186523
vt 0.165527344 0.213256836
vt 0.189819336 0.253417969
vt 0.186889648 0.260009766
vt 0.194702148 0.239990234
vt 0.184082031 0.231689453
vt 0.198486328 0.223266602
vt 0.184326172 0.225585938
vt 0.181640625 0.219238281
vt 0.193481445 0.254882812
vt 0.193237305 0.26171875
vt 0.19519043 0.245361328
vt 0.198364258 0.251708984
vt 0.19934082 0.255859375
vt 0.202758789 0.251220703
vt 0.198974609 0.246337891
vt 0.203491211 0.243286133
vt 0.205932617 0.246459961
vt 0.208862305 0.239013672
vt 0.198120117 0.236938477
vt 0.200805664 0.239868164
vt 0.204589844 0.234375
vt 0.201416016 0.233154297
vt 0.20690918 0.228881836
vt 0.210205078 0.231201172
vt 0.210449219 0.225463867
vt 0.20300293 0.22668457
vt 0.205810547 0.218994141
vt 0.209106445 0.217529297
vt 0.202148438 0.219970703
vt 0.202270508 0.209594727
vt 0.206420898 0.209960938
vt 0.203735352 0.204833984
vt 0.195068359 0.213745117
vt 0.174560547 0.213867188
vt 0.180419922 0.200195312
vt 0.198974609 0.211547852
vt 0.197021484 0.204101562
vt 0.198486328 0.198486328
vt 0.189453125 0.205200195
vt 0.192504883 0.204833984
vt 0.192871094 0.198242188
vt 0.191650391 0.193115234
vt 0.185424805 0.195068359
vt 0.190795898 0.199829102
vt 0.185424805 0.19909668
vt 0.179077148 0.195556641
vt 0.165527344 0.196899414
vt 0.163330078 0.200683594
vt 0.151000977 0.204101562
vt 0.15222168 0.19934082
vt 0.145385742 0.213745117
vt 0.145141602 0.205566406
vt 0.145141602 0.200317383
vt 0.141113281 0.208374023
vt 0.141479492 0.200195312
vt 0.143920898 0.210449219
vt 0.142089844 0.222412109
vt 0.141601562 0.216186523
vt 0.139526367 0.222412109
vt 0.138916016 0.215698242
vt 0.137817383 0.222412109
vt 0.138916016 0.205932617
vt 0.137207031 0.211791992
vt 0.0997314453 0.206665039
vt 0.0966186523 0.199584961
vt 0.136108398 0.217163086
vt 0.135620117 0.220947266
vt 0.102600098 0.221679688
vt 0.102050781 0.216552734
vt 0.098815918 0.21862793
vt 0.100463867 0.222290039
vt 0.0989379883 0.225708008
vt 0.0969238281 0.22277832
vt 0.101501465 0.212646484
vt 0.0985107422 0.211914062
vt 0.0957641602 0.216430664
vt 0.0955810547 0.204589844
vt 0.0932617188 0.205200195
vt 0.0966186523 0.212524414
vt 0.0933227539 0.209838867
vt 0.091796875 0.2109375
vt 0.896484375 0.127563477
vt 0.895019531 0.146728516
vt 0.899902344 0.135742188
vt 0.906738281 0.141113281
vt 0.895019531 0.104980469
vt 0.8984375 0.150512695
vt 0.903320312 0.15222168
vt 0.913574219 0.153198242
vt 0.915527344 0.142456055
vt 0.923828125 0.15234375
vt 0.897460938 0.121459961
vt 0.900390625 0.11529541
vt 0.923828125 0.139282227
vt 0.9296875 0.150146484
vt 0.905273438 0.11138916
vt 0.897949219 0.10144043
vt 0.903808594 0.0992431641
vt 0.912109375 0.109130859
vt 0.9140625 0.0983886719
vt 0.932617188 0.146606445
vt 0.929199219 0.132568359
vt 0.930664062 0.123962402
vt 0.920410156 0.110412598
vt 0.932617188 0.104797363
vt 0.927734375 0.115905762
vt 0.923828125 0.0993041992
vt 0.929199219 0.101074219
vt 0.9296875 0.065246582
vt 0.931152344 0.0460205078
vt 0.926269531 0.0571594238
vt 0.919433594 0.0516967773
vt 0.931152344 0.0883178711
vt 0.929199219 0.0435791016
vt 0.924316406 0.0408935547
vt 0.913085938 0.039642334
vt 0.910644531 0.0503845215
vt 0.90234375 0.0405883789
vt 0.928222656 0.0738525391
vt 0.924316406 0.0788574219
vt 0.90234375 0.053527832
vt 0.897460938 0.0422058105
vt 0.918457031 0.0827026367
vt 0.894042969 0.0458374023
vt 0.897460938 0.0587463379
vt 0.895507812 0.0645141602
vt 0.927246094 0.0919189453
vt 0.922363281 0.0935668945
vt 0.912109375 0.0944824219
vt 0.909667969 0.0836791992
vt 0.900390625 0.0932006836
vt 0.894042969 0.0881347656
vt 0.896484375 0.0731201172
vt 0.901855469 0.0801391602
vt 0.895507812 0.0905761719
f 3/3 2/2 1/1
f 3/3 1/1 4/4
f 5/5 3/3 4/4
f 6/6 5/5 4/4
f 6/6 4/4 7/7
f 8/8 6/6 7/7
f 8/8 7/7 9/9
f 10/10 8/8 9/9
f 11/11 10/10 9/9
f 11/11 9/9 12/12
f 13/13 11/11 12/12
f 14/14 13/13 12/12
f 14/14 12/12 15/15
f 16/16 14/14 15/15
f 17/17 16/16 15/15
f 17/17 15/15 18/18
f 19/19 17/17 18/18
f 19/19 18/18 20/20
f 21/21 19/19 20/20
f 22/22 21/21 20/20
f 22/22 20/20 23/23
f 24/24 22/22 23/23
f 24/24 23/23 25/25
f 26/26 24/24 25/25
f 27/27 26/26 25/25
f 27/27 25/25 28/28
f 29/29 27/27 28/28
f 29/29 28/28 30/30
f 31/31 29/29 30/30
f 32/32 31/31 30/30
f 32/32 30/30 33/33
f 34/34 32/32 33/33
f 34/34 33/33 35/35
f 36/36 34/34 35/35
f 39/39 38/38 37/37
f 40/40 39/39 37/37
f 41/41 40/40 37/37
f 41/41 37/37 42/42
f 43/43 41/41 42/42
f 43/43 42/42 44/44
f 45/45 43/43 44/44
f 45/45 44/44 46/46
f 47/47 45/45 46/46
f 47/47 46/46 48/48
f 49/49 47/47 48/48
f 50/50 49/49 48/48
f 50/50 48/48 51/51
f 52/52 50/50 51/51
f 52/52 51/51 53/53
f 54/54 52/52 53/53
f 55/55 54/54 53/53
f 55/55 53/53 56/56
f 57/57 55/55 56/56
f 57/57 56/56 58/58
f 59/59 57/57 58/58
f 60/60 59/59 58/58
f 60/60 58/58 61/61
f 62/62 60/60 61/61
f 62/62 61/61 63/63
f 64/64 62/62 63/63
f 65/65 64/64 63/63
f 65/65 63/63 66/66
f 67/67 65/65 66/66
f 68/68 67/67 66/66
f 68/68 66/66 69/69
f 70/70 68/68 69/69
f 71/71 70/70 69/69
f 71/71 69/69 72/72
f 73/73 71/71 72/72
f 76/76 75/75 74/74
f 76/76 74/74 77/77
f 78/78 76/76 77/77
f 78/78 77/77 79/79
f 80/80 78/78 79/79
f 80/80 79/79 81/81
f 82/82 80/80 81/81
f 82/82 81/81 83/83
f 84/84 82/82 83/83
f 84/84 83/83 85/85
f 86/86 84/84 85/85
f 86/86 85/85 87/87
f 88/88 86/86 87/87
f 88/88 87/87 89/89
f 90/90 88/88 89/89
f 90/90 89/89 91/91
f 92/92 90/90 91/91
f 92/92 91/91 93/93
f 92/92 93/93 94/94
f 95/95 92/92 94/94
f 95/95 94/94 96/96
f 97/97 95/95 96/96
f 97/97 96/96 98/98
f 99/99 97/97 98/98
f 100/100 99/99 98/98
f 100/100 98/98 101/101
f 104/104 103/103 102/102
f 104/104 105/105 103/103
f 105/105 106/106 103/103
f 106/106 107/107 103/103
f 106/106 108/108 107/107
f 106/106 109/109 108/108
f 109/109 110/110 108/108
f 109/109 111/111 110/110
f 111/111 112/112 110/110
f 112/112 113/113 110/110
f 112/112 114/114 113/113
f 112/112 115/115 114/114
f 115/115 116/116 114/114
f 115/115 117/117 116/116
f 117/117 118/118 116/116
f 118/118 119/119 116/116
f 118/118 120/120 119/119
f 118/118 121/121 120/120
f 121/121 122/122 120/120
f 121/121 123/123 122/122
f 123/123 124/124 122/122
f 123/123 125/125 124/124
f 128/128 127/127 126/126
f 129/129 126/126 127/127
f 129/129 130/130 126/126
f 130/130 131/131 126/126
f 132/132 126/126 131/131
f 132/132 133/133 126/126
f 134/134 126/126 133/133
f 134/134 135/135 126/126
f 136/136 126/126 135/135
f 136/136 137/137 126/126
f 138/138 126/126 137/137
f 141/141 140/140 139/139
f 141/141 142/142 140/140
f 142/142 143/143 140/140
f 144/144 140/140 143/143
f 144/144 145/145 140/140
f 145/145 146/146 140/140
f 147/147 140/140 146/146
f 147/147 148/148 140/140
f 149/149 140/140 148/148
f 152/152 151/151 150/150
f 153/153 152/152 150/150
f 153/153 150/150 154/154
f 153/153 154/154 155/155
f 156/156 153/153 155/155
f 156/156 155/155 157/157
f 158/158 156/156 157/157
f 158/158 157/157 159/159
f 160/160 158/158 159/159
f 160/160 159/159 161/161
f 160/160 161/161 162/162
f 163/163 160/160 162/162
f 163/163 162/162 164/164
f 165/165 163/163 164/164
f 165/165 164/164 166/166
f 165/165 166/166 167/167
f 168/168 165/165 167/167
f 168/168 167/167 169/169
f 170/170 168/168 169/169
f 170/170 169/169 171/171
f 170/170 171/171 172/172
f 173/173 170/170 172/172
f 173/173 172/172 174/174
f 175/175 173/173 174/174
f 175/175 174/174 176/176
f 175/175 176/176 177/177
f 178/178 175/175 177/177
f 178/178 177/177 179/179
f 178/178 179/179 180/180
f 181/181 178/178 180/180
f 181/181 180/180 182/182
f 181/181 182/182 183/183
f 184/184 181/181 183/183
f 184/184 183/183 185/185
f 188/188 187/187 186/186
f 188/188 186/186 189/189
f 190/190 188/188 189/189
f 190/190 189/189 191/191
f 190/190 191/191 192/192
f 193/193 190/190 192/192
f 193/193 192/192 194/194
f 193/193 194/194 195/195
f 196/196 193/193 195/195
f 196/196 195/195 197/197
f 196/196 197/197 198/198
f 199/199 196/196 198/198
f 199/199 198/198 200/200
f 199/199 200/200 201/201
f 202/202 199/199 201/201
f 202/202 201/201 203/203
f 202/202 203/203 204/204
f 205/205 202/202 204/204
f 205/205 204/204 206/206
f 205/205 206/206 207/207
f 208/208 205/205 207/207
f 208/208 207/207 209/209
f 208/208 209/209 210/210
f 211/211 208/208 210/210
f 211/211 210/210 212/212
f 211/211 212/212 213/213
f 214/214 211/211 213/213
f 214/214 213/213 215/215
f 214/214 215/215 216/216
f 217/217 214/214 216/216
f 217/217 216/216 218/218
f 219/219 217/217 218/218
f 222/222 221/221 220/220
f 221/221 222/222 223/223
f 223/223 222/222 224/224
f 222/222 220/220 225/225
f 226/226 225/225 220/220
f 226/226 227/227 225/225
f 228/228 227/227 226/226
f 224/224 222/222 229/229
f 229/229 222/222 225/225
f 228/228 230/230 227/227
f 230/230 228/228 231/231
f 232/232 230/230 231/231
f 232/232 233/233 230/230
f 227/227 230/230 233/233
f 234/234 224/224 229/229
f 234/234 235/235 224/224
f 229/229 225/225 236/236
f 227/227 236/236 225/225
f 237/237 229/229 236/236
f 229/229 237/237 234/234
f 227/227 237/237 236/236
f 234/234 238/238 235/235
f 237/237 238/238 234/234
f 238/238 239/239 235/235
f 227/227 240/240 237/237
f 240/240 227/227 233/233
f 237/237 241/241 238/238
f 240/240 241/241 237/237
f 232/232 242/242 233/233
f 243/243 242/242 232/232
f 242/242 243/243 244/244
f 242/242 244/244 245/245
f 246/246 245/245 244/244
f 242/242 247/247 233/233
f 247/247 242/242 245/245
f 240/240 233/233 248/248
f 247/247 248/248 233/233
f 249/249 240/240 248/248
f 240/240 249/249 241/241
f 247/247 250/250 248/248
f 250/250 249/249 248/248
f 250/250 251/251 249/249
f 250/250 247/247 252/252
f 247/247 245/245 252/252
f 246/246 253/253 245/245
f 254/254 253/253 246/246
f 253/253 254/254 255/255
f 253/253 255/255 256/256
f 253/253 257/257 245/245
f 245/245 257/257 252/252
f 258/258 253/253 256/256
f 253/253 258/258 257/257
f 258/258 256/256 259/259
f 250/250 252/252 260/260
f 251/251 250/250 260/260
f 257/257 261/261 252/252
f 258/258 261/261 257/257
f 261/261 260/260 252/252
f 262/262 258/258 259/259
f 261/261 258/258 262/262
f 260/260 261/261 262/262
f 251/251 260/260 262/262
f 263/263 262/262 259/259
f 264/264 262/262 263/263
f 251/251 262/262 264/264
f 265/265 264/264 263/263
f 266/266 265/265 263/263
f 266/266 267/267 265/265
f 268/268 267/267 266/266
f 251/251 264/264 269/269
f 264/264 270/270 269/269
f 251/251 269/269 271/271
f 264/264 272/272 270/270
f 264/264 265/265 272/272
f 271/271 273/273 251/251
f 249/249 251/251 273/273
f 249/249 273/273 274/274
f 274/274 241/241 249/249
f 241/241 274/274 275/275
f 265/265 276/276 272/272
f 265/265 277/277 276/276
f 277/277 278/278 276/276
f 279/279 241/241 275/275
f 279/279 275/275 280/280
f 279/279 238/238 241/241
f 279/279 280/280 281/281
f 279/279 281/281 282/282
f 238/238 279/279 239/239
f 279/279 282/282 239/239
f 281/281 283/283 282/282
f 283/283 284/284 282/282
f 285/285 284/284 278/278
f 277/277 285/285 278/278
f 285/285 282/282 284/284
f 277/277 286/286 285/285
f 282/282 287/287 239/239
f 287/287 288/288 239/239
f 285/285 289/289 282/282
f 285/285 286/286 289/289
f 282/282 289/289 287/287
f 287/287 290/290 288/288
f 290/290 291/291 288/288
f 289/289 292/292 287/287
f 290/290 287/287 292/292
f 290/290 293/293 291/291
f 293/293 290/290 292/292
f 292/292 294/294 293/293
f 295/295 291/291 293/293
f 292/292 289/289 296/296
f 296/296 289/289 286/286
f 294/294 292/292 296/296
f 295/295 293/293 297/297
f 294/294 297/297 293/293
f 298/298 296/296 286/286
f 298/298 294/294 296/296
f 286/286 299/299 298/298
f 295/295 297/297 300/300
f 295/295 300/300 301/301
f 302/302 301/301 300/300
f 302/302 303/303 301/301
f 297/297 304/304 300/300
f 302/302 300/300 304/304
f 298/298 305/305 294/294
f 299/299 305/305 298/298
f 294/294 306/306 297/297
f 297/297 306/306 304/304
f 305/305 307/307 294/294
f 306/306 294/294 307/307
f 306/306 308/308 304/304
f 306/306 307/307 308/308
f 305/305 309/309 307/307
f 299/299 309/309 305/305
f 307/307 309/309 308/308
f 310/310 302/302 304/304
f 310/310 304/304 308/308
f 311/311 303/303 302/302
f 311/311 302/302 310/310
f 303/303 311/311 312/312
f 312/312 313/313 303/303
f 313/313 312/312 314/314
f 314/314 315/315 313/313
f 311/311 316/316 312/312
f 316/316 311/311 310/310
f 316/316 317/317 312/312
f 314/314 312/312 317/317
f 318/318 316/316 310/310
f 316/316 318/318 317/317
f 319/319 310/310 308/308
f 318/318 310/310 319/319
f 309/309 320/320 308/308
f 319/319 308/308 320/320
f 309/309 321/321 320/320
f 319/319 320/320 321/321
f 322/322 314/314 317/317
f 318/318 322/322 317/317
f 309/309 323/323 321/321
f 299/299 323/323 309/309
f 324/324 319/319 321/321
f 325/325 318/318 319/319
f 325/325 319/319 324/324
f 325/325 326/326 318/318
f 318/318 326/326 322/322
f 325/325 324/324 326/326
f 326/326 327/327 322/322
f 323/323 328/328 321/321
f 324/324 321/321 328/328
f 323/323 299/299 329/329
f 323/323 329/329 328/328
f 322/322 330/330 314/314
f 322/322 331/331 330/330
f 331/331 322/322 327/327
f 332/332 331/331 327/327
f 333/333 314/314 330/330
f 327/327 334/334 332/332
f 335/335 314/314 333/333
f 335/335 333/333 336/336
f 335/335 315/315 314/314
f 335/335 337/337 315/315
f 336/336 338/338 335/335
f 338/338 337/337 335/335
f 337/337 339/339 315/315
f 338/338 340/340 337/337
f 341/341 334/334 327/327
f 341/341 342/342 334/334
f 343/343 342/342 341/341
f 337/337 344/344 339/339
f 339/339 344/344 345/345
f 340/340 346/346 337/337
f 346/346 340/340 347/347
f 348/348 346/346 347/347
f 348/348 347/347 349/349
f 350/350 348/348 349/349
f 344/344 351/351 345/345
f 345/345 351/351 352/352
f 337/337 353/353 344/344
f 346/346 353/353 337/337
f 344/344 353/353 351/351
f 351/351 354/354 352/352
f 354/354 355/355 352/352
f 354/354 356/356 355/355
f 351/351 357/357 354/354
f 353/353 357/357 351/351
f 354/354 358/358 356/356
f 357/357 358/358 354/354
f 358/358 359/359 356/356
f 358/358 360/360 359/359
f 346/346 361/361 353/353
f 346/346 348/348 361/361
f 353/353 362/362 357/357
f 357/357 362/362 358/358
f 361/361 362/362 353/353
f 358/358 363/363 360/360
f 362/362 363/363 358/358
f 361/361 364/364 362/362
f 361/361 348/348 364/364
f 364/364 363/363 362/362
f 363/363 365/365 360/360
f 365/365 366/366 360/360
f 365/365 367/367 366/366
f 364/364 368/368 363/363
f 348/348 368/368 364/364
f 363/363 368/368 365/365
f 365/365 369/369 367/367
f 369/369 370/370 367/367
f 368/368 371/371 365/365
f 348/348 371/371 368/368
f 371/371 369/369 365/365
f 369/369 372/372 370/370
f 372/372 373/373 370/370
f 372/372 374/374 373/373
f 348/348 375/375 371/371
f 375/375 348/348 350/350
f 375/375 350/350 376/376
f 377/377 375/375 376/376
f 377/377 376/376 343/343
f 371/371 378/378 369/369
f 378/378 372/372 369/369
f 375/375 378/378 371/371
f 372/372 379/379 374/374
f 378/378 379/379 372/372
f 379/379 380/380 374/374
f 375/375 381/381 378/378
f 375/375 377/377 381/381
f 381/381 382/382 378/378
f 382/382 379/379 378/378
f 379/379 383/383 380/380
f 383/383 384/384 380/380
f 383/383 385/385 384/384
f 386/386 383/383 379/379
f 382/382 386/386 379/379
f 386/386 385/385 383/383
f 381/381 387/387 382/382
f 382/382 387/387 386/386
f 387/387 385/385 386/386
f 381/381 377/377 387/387
f 387/387 388/388 385/385
f 377/377 388/388 387/387
f 377/377 389/389 388/388
f 377/377 390/390 389/389
f 390/390 377/377 343/343
f 343/343 341/341 390/390
f 390/390 391/391 389/389
f 390/390 341/341 391/391
f 389/389 391/391 392/392
f 341/341 393/393 391/391
f 341/341 327/327 393/393
f 391/391 394/394 392/392
f 394/394 395/395 392/392
f 394/394 396/396 395/395
f 395/395 396/396 397/397
f 394/394 391/391 398/398
f 398/398 391/391 393/393
f 394/394 398/398 396/396
f 327/327 399/399 393/393
f 326/326 399/399 327/327
f 400/400 398/398 393/393
f 400/400 393/393 399/399
f 398/398 400/400 396/396
f 401/401 399/399 326/326
f 401/401 400/400 399/399
f 324/324 401/401 326/326
f 400/400 401/401 402/402
f 400/400 402/402 396/396
f 401/401 324/324 403/403
f 401/401 403/403 402/402
f 403/403 324/324 328/328
f 396/396 404/404 397/397
f 396/396 402/402 405/405
f 396/396 405/405 404/404
f 406/406 397/397 404/404
f 406/406 404/404 405/405
f 406/406 407/407 397/397
f 402/402 403/403 408/408
f 402/402 408/408 405/405
f 403/403 328/328 409/409
f 403/403 409/409 408/408
f 410/410 409/409 328/328
f 410/410 408/408 409/409
f 329/329 410/410 328/328
f 411/411 405/405 408/408
f 410/410 411/411 408/408
f 412/412 411/411 410/410
f 413/413 410/410 329/329
f 412/412 410/410 413/413
f 413/413 329/329 299/299
f 414/414 413/413 299/299
f 413/413 414/414 412/412
f 299/299 286/286 414/414
f 415/415 414/414 286/286
f 414/414 415/415 412/412
f 277/277 415/415 286/286
f 411/411 416/416 405/405
f 416/416 406/406 405/405
f 411/411 417/417 416/416
f 417/417 406/406 416/416
f 411/411 412/412 417/417
f 277/277 418/418 415/415
f 418/418 412/412 415/415
f 406/406 417/417 419/419
f 419/419 407/407 406/406
f 268/268 407/407 419/419
f 268/268 419/419 420/420
f 417/417 420/420 419/419
f 267/267 268/268 420/420
f 412/412 421/421 417/417
f 417/417 421/421 420/420
f 412/412 418/418 421/421
f 421/421 422/422 420/420
f 267/267 420/420 422/422
f 422/422 421/421 418/418
f 418/418 277/277 423/423
f 423/423 422/422 418/418
f 423/423 267/267 422/422
f 423/423 277/277 265/265
f 265/265 267/267 423/423
f 426/426 425/425 424/424
f 426/426 427/427 425/425
f 424/424 425/425 428/428
f 429/429 425/425 427/427
f 430/430 429/429 427/427
f 431/431 430/430 427/427
f 427/427 432/432 431/431
f 433/433 431/431 432/432
f 434/434 424/424 428/428
f 434/434 428/428 435/435
f 433/433 432/432 436/436
f 433/433 436/436 437/437
f 428/428 438/438 435/435
f 428/428 439/439 438/438
f 440/440 438/438 439/439
f 440/440 441/441 438/438
f 440/440 442/442 441/441
f 443/443 437/437 436/436
f 444/444 443/443 436/436
f 444/444 445/445 443/443
f 446/446 441/441 442/442
f 445/445 447/447 443/443
f 448/448 447/447 445/445
f 448/448 446/446 447/447
f 442/442 449/449 446/446
f 450/450 447/447 446/446
f 450/450 446/446 449/449
f 453/453 452/452 451/451
f 453/453 454/454 452/452
f 451/451 452/452 455/455
f 456/456 452/452 454/454
f 457/457 456/456 454/454
f 457/457 454/454 458/458
f 458/458 454/454 459/459
f 460/460 458/458 459/459
f 461/461 451/451 455/455
f 461/461 455/455 462/462
f 460/460 459/459 463/463
f 464/464 460/460 463/463
f 455/455 465/465 462/462
f 466/466 464/464 463/463
f 463/463 467/467 466/466
f 468/468 466/466 467/467
f 469/469 465/465 455/455
f 470/470 465/465 469/469
f 470/470 471/471 465/465
f 465/465 471/471 472/472
f 471/471 473/473 472/472
f 468/468 474/474 466/466
f 468/468 475/475 474/474
f 473/473 476/476 472/472
f 475/475 476/476 474/474
f 473/473 477/477 476/476
f 477/477 474/474 476/476
