v -0.00964692137 -0.0517880611 -0.0765570556
v -0.00983259069 -0.0521175397 -0.075596926
v -0.0105607715 -0.051151217 -0.0757270434
v -0.0105494421 -0.0511645989 -0.0769677805
v -0.0155882705 -0.0508459531 -0.0766095938
v -0.0148219608 -0.0510015771 -0.0776853936
v -0.0169320585 -0.0500420647 -0.0780124101
v -0.0183345052 -0.048856887 -0.0769912265
v -0.0187052473 -0.0482578283 -0.0782350136
v -0.0197738428 -0.0450111186 -0.0781059265
v -0.019612088 -0.0463307212 -0.0769843173
v -0.0202093388 -0.0354360341 -0.0741264143
v -0.0199156547 -0.0382304209 -0.0764211116
v -0.0203960824 -0.0316436595 -0.0736672024
v -0.0211200334 -0.0264441817 -0.0689727953
v -0.0210674719 -0.025594667 -0.0699279364
v -0.0219319492 -0.0211664597 -0.0643781619
v -0.0218562255 -0.020437301 -0.065449049
v -0.0228836885 -0.0167268232 -0.058992242
v -0.0227860292 -0.0159181078 -0.0599218241
v -0.0239494012 -0.0132458669 -0.0529613695
v -0.0239991703 -0.0120873169 -0.053384382
v -0.0267358602 -0.0132013136 -0.0361749902
v -0.026768896 -0.0120540137 -0.0373374205
v -0.0264552528 -0.0120738319 -0.0344235363
v -0.0252342102 -0.013218166 -0.0322252978
v -0.0249290683 -0.0120669327 -0.0316354184
v -0.0229801913 -0.0132181804 -0.0300659449
v -0.0224828244 -0.0120590344 -0.0296104379
v -0.0190618058 -0.0132242001 -0.0286567083
v -0.019129692 -0.0120895218 -0.0286414492
v -0.0183400906 -0.0122003419 -0.0274581922
v -0.0183420215 -0.0132183444 -0.0276292441
v -0.00987387939 -0.0457821481 -0.0751480169
v -0.0105607715 -0.051151217 -0.0757270434
v -0.00983259069 -0.0521175397 -0.075596926
v -0.0155882705 -0.0508459531 -0.0766095938
v -0.0183345052 -0.048856887 -0.0769912265
v -0.019612088 -0.0463307212 -0.0769843173
v -0.0101520617 -0.0389214905 -0.0735737907
v -0.0202093388 -0.0354360341 -0.0741264143
v -0.0106225613 -0.0324165982 -0.0709112268
v -0.0211200334 -0.0264441817 -0.0689727953
v -0.0112725981 -0.0264441808 -0.0672326656
v -0.0219319492 -0.0211664597 -0.0643781619
v -0.0120845117 -0.0211664588 -0.0626380264
v -0.0228836885 -0.0167268232 -0.058992242
v -0.0130362561 -0.0167268223 -0.0572521123
v -0.0239494012 -0.0132458669 -0.0529613695
v -0.0141019718 -0.0132458661 -0.051221234
v -0.0267358602 -0.0132013136 -0.0361749902
v -0.0252342102 -0.013218166 -0.0322252978
v -0.0190618058 -0.0132242001 -0.0286567083
v -0.0229801913 -0.0132181804 -0.0300659449
v -0.0183420215 -0.0132183444 -0.0276292441
v -0.0183400906 -0.0122003419 -0.0274581922
v -0.0204862449 -0.0121234672 -0.0154155321
v -0.019129692 -0.0120895218 -0.0286414492
v -0.0224828244 -0.0120590344 -0.0296104379
v -0.0334725501 -0.0120280413 -0.0190627994
v -0.0347390207 -0.0120453116 -0.0249343342
v -0.0249290683 -0.0120669327 -0.0316354184
v -0.0264552528 -0.0120738319 -0.0344235363
v -0.0311025786 -0.0120378905 -0.0465481018
v -0.026768896 -0.0120540137 -0.0373374205
v -0.0277144213 -0.0120356405 -0.0525689276
v -0.0239991703 -0.0120873169 -0.053384382
v -0.0271450892 -0.0122575477 -0.0537682557
v -0.03002138 -0.01252185 -0.0517086009
v -0.0246325786 -0.0148623607 -0.058759097
v -0.0227860292 -0.0159181078 -0.0599218241
v -0.0281734611 -0.0155307377 -0.0584336754
v -0.02402807 -0.0175338696 -0.0624567037
v -0.0218562255 -0.020437301 -0.065449049
v -0.0249753542 -0.0213806205 -0.0665278872
v -0.0210674719 -0.025594667 -0.0699279364
v -0.0265373367 -0.0182596757 -0.0627097092
v -0.027987234 -0.0207105152 -0.0643716427
v -0.0309106822 -0.0161471993 -0.0559194363
v -0.0320473326 -0.0126950616 -0.0481921335
v -0.0244888921 -0.0252722522 -0.0698361255
v -0.0339352777 -0.0121708836 -0.0365888205
v -0.0358982001 -0.0125077395 -0.0268459698
v -0.0343040174 -0.0129391426 -0.0409776898
v -0.0337525404 -0.0139403972 -0.0458488503
v -0.0222776467 -0.0294557821 -0.0727504084
v -0.0203960824 -0.0316436595 -0.0736672024
v -0.0218128465 -0.0339347423 -0.0750487729
v -0.0199156547 -0.0382304209 -0.0764211116
v -0.0245652774 -0.0321633844 -0.0739735551
v -0.0231287743 -0.0390838386 -0.0769471284
v -0.0197738428 -0.0450111186 -0.0781059265
v -0.0268413719 -0.028328271 -0.0708560459
v -0.0295143614 -0.0217906851 -0.0637140998
v -0.0260408382 -0.0372852396 -0.075386255
v -0.0230313328 -0.0440844151 -0.078129943
v -0.0211682389 -0.0498134778 -0.0788164092
v -0.0187052473 -0.0482578283 -0.0782350136
v -0.0169320585 -0.0500420647 -0.0780124101
v -0.0148219608 -0.0510015771 -0.0776853936
v -0.0097083088 -0.0581846523 -0.076412526
v -0.0105494421 -0.0511645989 -0.0769677805
v -0.00964692137 -0.0517880611 -0.0765570556
v -0.00338215772 -0.0568151477 -0.0755446788
v -0.00998981134 -0.0652777564 -0.0748118269
v -0.00370403151 -0.0653899744 -0.0737410097
v -0.0104961839 -0.0722899285 -0.0719322707
v -0.00428375299 -0.0725464957 -0.0708139676
v -0.0112060629 -0.0787099717 -0.0679151155
v -0.00515061647 -0.080060971 -0.0658812001
v -0.0120975411 -0.0843433557 -0.0628558802
v -0.00620625625 -0.086183084 -0.0598022132
v -0.0130302195 -0.0885652157 -0.0575429527
v -0.00705093715 -0.0896374992 -0.0548498996
v -0.0139482458 -0.0915929804 -0.0523565628
v -0.00778848913 -0.0919569291 -0.050455943
v -0.0248669365 -0.0891766707 -0.0587361515
v -0.0260169188 -0.091848059 -0.0538837921
v -0.0282281874 -0.0883940341 -0.0585234433
v -0.0287908777 -0.0917015506 -0.0526513031
v -0.0241913918 -0.0861067055 -0.0629140646
v -0.0235482207 -0.082895383 -0.0664154417
v -0.0262127242 -0.0841882103 -0.0646504981
v -0.0262489532 -0.0782181765 -0.0696035859
v -0.0229630158 -0.0786673007 -0.0700188568
v -0.0223145028 -0.0742064285 -0.0729654275
v -0.0301104221 -0.0912708781 -0.0520369562
v -0.0320280852 -0.0909757188 -0.0490543141
v -0.0309237872 -0.0878524062 -0.0559194945
v -0.0280110209 -0.0834499161 -0.0642368861
v -0.0295508697 -0.0824358631 -0.0635075208
v -0.0324071978 -0.0872471165 -0.0534803374
v -0.0336380189 -0.0906759088 -0.0450429972
v -0.0294092277 -0.0766747133 -0.0677513483
v -0.0307446187 -0.0812252894 -0.0624907028
v -0.0219986655 -0.0695785003 -0.075267849
v -0.0242087946 -0.0672495654 -0.0759907649
v -0.021697629 -0.0650376683 -0.0769446895
v -0.0224191949 -0.0592875198 -0.0783680356
v -0.0247801909 -0.0741463758 -0.0726533821
v -0.0264093683 -0.0715309544 -0.0733007502
v -0.0280000644 -0.0709259092 -0.072283484
v -0.0267833677 -0.0643728383 -0.0756071357
v -0.0214537616 -0.0545607666 -0.0788123114
v -0.0237282145 -0.0520730354 -0.078710448
v -0.0256347129 -0.0571445235 -0.0776845147
v -0.0256308866 -0.047075125 -0.077706133
v -0.0292542533 -0.0702150948 -0.0709246902
v -0.0286776548 -0.0614966 -0.0741877011
v -0.0301361692 -0.0696748347 -0.0693055394
v -0.027248206 -0.0570252853 -0.0765383127
v -0.0272423482 -0.0472920854 -0.0765714562
v -0.0283096619 -0.0416223712 -0.0746179372
v -0.028475512 -0.0522421756 -0.0753316563
v -0.0294060922 -0.0548006003 -0.0734116416
v -0.0402874914 -0.079127684 -0.0120987148
v -0.0297797722 -0.0394155094 -0.0714254566
v -0.0314649318 -0.0248635128 -0.0619469211
v -0.0292185053 -0.0342191164 -0.0711270084
v -0.0293481372 -0.027818442 -0.0680971891
v -0.0279774773 -0.0333618252 -0.0724113197
v -0.0306868964 -0.0231118972 -0.0628173933
v -0.0320048522 -0.0176682354 -0.0553590828
v -0.0341186606 -0.0162082187 -0.046882531
v -0.0413076197 -0.0312628319 -0.00631082512
v -0.0366954033 -0.0146736685 -0.0319278915
v -0.0392247236 -0.020092281 -0.0178558621
v -0.0365971896 -0.0133604134 -0.028297244
v -0.0379017191 -0.0158046362 -0.0222441668
v -0.0364595256 -0.0130606323 -0.0239772809
v -0.0391824153 -0.0200511092 -0.0130902336
v -0.0346510835 -0.0123347215 -0.0194885375
v -0.0377750709 -0.0161841239 -0.0171494336
v -0.0356802386 -0.0127654408 -0.0205180506
v -0.0372039692 -0.0174352102 -0.0122153375
v -0.0324680372 -0.0121874683 -0.0173823544
v -0.0356776218 -0.0166576241 -0.0112793387
v -0.0330501776 -0.0148598425 -0.0124270082
v -0.0396812749 -0.0250733376 -0.00618084814
v -0.0404306286 -0.0261315878 -0.00767868987
v -0.038504418 -0.0241836334 -0.00485598466
v -0.0415428976 -0.0357949473 -0.00142506415
v -0.0406366016 -0.0331104128 -0.000774662203
v -0.0215282359 -0.0154666025 -0.00947638182
v -0.0338480443 -0.0179335053 -0.00826615797
v -0.015595046 -0.0164942597 -0.00656291159
v -0.014246759 -0.0121855 -0.0141973971
v -0.0224759319 -0.0197041639 -0.00414855167
v -0.0169381042 -0.0239387315 0.00103141792
v -0.0354238563 -0.0213990834 -0.004810475
v -0.0233776176 -0.0253994475 0.000944637304
v -0.0177506942 -0.0308229196 0.00562929854
v -0.0240862022 -0.0318568949 0.004958094
v -0.0183234176 -0.0384596891 0.00887023416
v -0.0245900325 -0.0388732114 0.00780610571
v -0.018675202 -0.0481512705 0.0108597967
v -0.0375199486 -0.0276279785 -0.000663853507
v -0.0351278468 -0.0253658161 -0.00117776353
v -0.0355305968 -0.0298352565 0.00181750911
v -0.0370622058 -0.0346654244 0.00385538369
v -0.0394908974 -0.0325055304 0.000726413646
v -0.041234769 -0.0422164688 0.00261032528
v -0.0392946846 -0.0393629982 0.00422116464
v -0.0363412716 -0.0389440832 0.00573605757
v -0.0248773972 -0.0464214849 0.00944444619
v -0.0365285281 -0.0443473025 0.00704264676
v -0.038771368 -0.0468065472 0.00641809675
v -0.0249297457 -0.0536928324 0.009764266
v -0.0186504514 -0.0561397364 0.0107231157
v -0.0365577624 -0.0497642762 0.0076766657
v -0.0396143015 -0.0545080029 0.00602971704
v -0.0402655295 -0.0468918245 0.00511011858
v -0.0414419263 -0.051876621 0.00378267832
v -0.0245887846 -0.0650630878 0.00782676798
v -0.0183755154 -0.06596537 0.00876895574
v -0.036634011 -0.0549253399 0.00759641625
v -0.0374717876 -0.0600231728 0.00671866874
v -0.0421366204 -0.0493568929 0.00193483665
v -0.0240765842 -0.0722128919 0.00492788531
v -0.01752787 -0.0743099911 0.00500141759
v -0.0422415634 -0.0449327847 -0.000614386045
v -0.0423119616 -0.0558851557 -0.000527543489
v -0.0419440946 -0.0610612777 0.000886070848
v -0.0417046975 -0.0687329019 -0.00379874764
v -0.0412463972 -0.0615446573 0.00267613887
v -0.0413848346 -0.0698170952 -0.00227874643
v -0.0401151836 -0.0619262783 0.00425936232
v -0.0404817159 -0.0775665488 -0.00738955932
v -0.0406592091 -0.0706743193 -0.000646736498
v -0.038352143 -0.0671467661 0.00404555285
v -0.0395056467 -0.0713666819 0.00080984837
v -0.0397135638 -0.0787492236 -0.00599809318
v -0.0392729664 -0.0836136494 -0.012656943
v -0.0363197936 -0.0650974255 0.005735382
v -0.0360323521 -0.0699952393 0.00389904744
v -0.0377384095 -0.0741469416 0.000676330092
v -0.0380868839 -0.0781151499 -0.00261388777
v -0.0355788034 -0.0741485537 0.00184483033
v -0.0233628791 -0.0787192569 0.000875163823
v -0.0169203635 -0.0791247309 0.00190430601
v -0.0157730987 -0.0848824812 -0.00352032584
v -0.0350863982 -0.078822658 -0.0012810081
v -0.0224764749 -0.084372507 -0.00417217379
v -0.0146505651 -0.0888546243 -0.00858054191
v -0.037913023 -0.0833257426 -0.00820277492
v -0.0363556653 -0.0841144795 -0.00725251302
v -0.0360529181 -0.0885055199 -0.0138448522
v -0.0377627275 -0.0878888215 -0.0171449632
v -0.0344412591 -0.0829196158 -0.00479765986
v -0.0338080264 -0.086409718 -0.0086441818
v -0.0215349016 -0.0885344304 -0.00943292835
v -0.0204763921 -0.0919272326 -0.0154701163
v -0.0135325688 -0.0918982737 -0.0141358614
v -0.0330214078 -0.0891073519 -0.0122935482
v -0.0324831584 -0.091956483 -0.0176592919
v -0.0337156852 -0.0919582992 -0.0187277401
v -0.0354840224 -0.0915144252 -0.0207959907
v -0.0361820981 -0.0913412109 -0.0247937365
v -0.0369809227 -0.0900958348 -0.0275796541
v -0.0358295431 -0.0910971636 -0.0323446875
v -0.0386334735 -0.0863008933 -0.0201371891
v -0.035241902 -0.0896233165 -0.0398626435
v -0.0372716352 -0.0882548545 -0.0290887547
v -0.0334575871 -0.0865886366 -0.0505935634
v -0.0317154411 -0.0799473694 -0.060637889
v -0.00990745859 -0.00499990652 -0.03875361
v -0.0107106431 -0.0104957823 -0.0346746761
v -0.00843787158 -0.00499945928 -0.0469934865
v -0.00781453749 -0.012129471 -0.0505975739
v -0.00713230903 -0.00921149611 -0.0541012036
v -0.00680415409 -0.0152462124 -0.0563154987
v -0.00762529684 -0.00690956434 -0.0511745573
v -0.0071180216 -0.00500293125 -0.0509410864
v -0.00615371839 -0.0070482345 -0.0549852673
v -0.00429993481 -0.00501278083 -0.0546467316
v -0.00602147138 -0.0145661533 -0.06047262
v -0.00531231912 -0.022483408 -0.0647589623
v -0.00432057881 -0.0307436745 -0.0704405713
v -0.00397543123 -0.0118555723 -0.0622213876
v -0.00431111652 -0.0172218239 -0.0659352925
v -0.00447627769 -0.023259073 -0.0685458188
v -0.00234951832 -0.0112741293 -0.0626017514
v -0.0015330482 -0.00500474866 -0.0551753619
v -0.00348025633 -0.0343516763 -0.0741489872
v -0.00378343792 -0.0376008454 -0.0734003843
v -0.00341888798 -0.046889752 -0.0755710527
v -0.00228014185 -0.0408682974 -0.0775131804
v -0.00303169828 -0.028019518 -0.0731880951
v -0.0024363938 -0.0216579285 -0.070727506
v 0.000531379118 -0.0106058716 -0.0620049192
v 0.0337751121 -0.00500406018 -0.0487827056
v 0.0349454475 -0.0105307371 -0.0555925013
v 0.035320121 -0.00501568302 -0.0458283816
v 0.000843972182 -0.017971768 -0.0688971311
v -0.00240359129 -0.0523524594 -0.0779192371
v -0.00338215772 -0.0568151477 -0.0755446788
v -0.00155213315 -0.030739754 -0.0755056099
v -0.00120021403 -0.0179301788 -0.0687274907
v 0.000173112075 -0.0242018097 -0.0731204636
v -0.00306647748 -0.0619757166 -0.0760591764
v -0.00370403151 -0.0653899744 -0.0737410097
v -0.00428375299 -0.0725464957 -0.0708139676
v 0.0358539793 -0.0159353729 -0.0608287926
v 0.0358617098 -0.0222699904 -0.0658033532
v 0.0366198084 -0.011440244 -0.0542422931
v 0.037604464 -0.0145613809 -0.0548714248
v 0.0354475346 -0.00500033474 -0.0426059123
v 0.0377597622 -0.0170106254 -0.0591890188
v 0.0393276651 -0.0274590357 -0.0646519125
v 0.0379165538 -0.0224122075 -0.0645007705
v 0.0028743129 -0.0297085321 -0.0757326488
v 0.0364895179 -0.0291854548 -0.0695075607
v 0.0385575167 -0.029071388 -0.0681275502
v 0.039016316 -0.0362290559 -0.0707240019
v 0.0400456372 -0.0386637106 -0.0687844527
v 0.0369655553 -0.0363335272 -0.0720147626
v -8.0663362e-05 -0.0292137847 -0.0755170942
v 0.00312675105 -0.0368199338 -0.0781371375
v -0.00117390658 -0.0371235889 -0.0776459987
v 0.000340203198 -0.0356002885 -0.0778523157
v -0.00094137892 -0.0440202509 -0.0789618702
v 0.000608146258 -0.0419485848 -0.0792649284
v 0.00348645459 -0.0432732541 -0.07940465
v 0.0380323685 -0.0436835249 -0.0732146262
v -0.000947940289 -0.0512883068 -0.0793863728
v 0.000922455455 -0.0509636068 -0.0800449518
v 0.000727820849 -0.0586390029 -0.079421117
v -0.00137661734 -0.058506505 -0.0785658252
v 0.00339650882 -0.0514303855 -0.0799123838
v -0.00171185851 -0.0672613796 -0.0767412712
v 0.0398810526 -0.0438270066 -0.0711928413
v 0.0401900922 -0.0514023378 -0.0708045205
v 0.0402114806 -0.0514244858 -0.0695420662
v 0.0399840296 -0.0647681148 -0.0684178143
v 0.0394247983 -0.0514145615 -0.0725215534
v 0.0377960432 -0.0515874442 -0.073747267
v 0.039896895 -0.058249468 -0.0710665074
v 0.0386478836 -0.0565334189 -0.0728849031
v 0.0377488694 -0.0588856313 -0.073181442
v 0.0390473547 -0.0637870248 -0.0712389767
v 0.039606428 -0.0681471627 -0.068705302
v 0.00345775379 -0.0592436638 -0.0792570761
v 0.0389982402 -0.0763734361 -0.0652551709
v 0.0389958858 -0.0779401768 -0.0629223068
v 0.0374531343 -0.0650449507 -0.0720835465
v 0.0030822 -0.0659022012 -0.0779923343
v 0.0385697122 -0.0727560337 -0.0684945961
v 0.0371643841 -0.0709329059 -0.0703475438
v 0.000328831839 -0.0682027894 -0.0773847161
v 0.00264151584 -0.0726135969 -0.075873686
v 0.0363525101 -0.0784742905 -0.0668866327
v 0.0380051799 -0.0787295775 -0.0653603114
v 0.0381978184 -0.0820609999 -0.0617771468
v 0.0363466955 -0.0829728347 -0.0635106408
v 0.00200963269 -0.0801798246 -0.0719478703
v -0.00035467138 -0.0769148581 -0.0737614231
v -0.00233827114 -0.0758145007 -0.0732994115
v 0.037367408 -0.0869249485 -0.0570764532
v 0.0377139297 -0.0859316405 -0.0555878214
v 0.0357378932 -0.0866248416 -0.0601284613
v 0.000859861116 -0.0873349141 -0.0657737779
v -0.00117869965 -0.0845412725 -0.0684044324
v -0.00341172782 -0.0707031347 -0.0736834249
v -0.00413708517 -0.0786072462 -0.0695280556
v -0.00515061647 -0.080060971 -0.0658812001
v -0.00319591343 -0.0834157286 -0.0681036094
v -0.00510007175 -0.0854492599 -0.0636777317
v -0.00620625625 -0.086183084 -0.0598022132
v -0.00430139168 -0.0897574242 -0.0611525553
v -0.00630469373 -0.0908199703 -0.0563920359
v -0.00705093715 -0.0896374992 -0.0548498996
v -0.00778848913 -0.0919569291 -0.050455943
v -0.00236666117 -0.0908213961 -0.0612491509
v -0.00562481739 -0.0943807483 -0.053025817
v -0.00767976428 -0.0944099861 -0.0482157047
v -0.000293302715 -0.0929011207 -0.0580885855
v -0.00359606567 -0.0955189581 -0.0527479278
v -0.00707373862 -0.0971093605 -0.0442235469
v 0.0351994959 -0.0896345502 -0.0564971939
v 0.0344859138 -0.0922493141 -0.0527178578
v 0.0337108849 -0.0945076433 -0.0485629134
v 0.0360169674 -0.0921228054 -0.0494428445
v 0.035696383 -0.092962451 -0.0442618533
v 0.0330200648 -0.0962460152 -0.0441966491
v 0.0349120465 -0.0947840598 -0.0432041474
v -0.00448094891 -0.0974914238 -0.0467164034
v 0.0321661324 -0.0975583594 -0.0398682227
v 0.0339269606 -0.096153267 -0.036581757
v 0.0330384147 -0.0954165851 -0.0289710471
v 0.0326893931 -0.0976276497 -0.0362124323
v 0.032180399 -0.0970841474 -0.0276913983
v 0.0305276563 -0.0948436939 -0.0163041608
v -0.00533276483 -0.0984457908 -0.0417017844
v 0.0304269458 -0.0986098169 -0.0340680068
v 0.0296246054 -0.0962668189 -0.0164423327
v 0.0297692429 -0.0986150556 -0.0264014496
v -0.00633721875 -0.0987563288 -0.036796942
v -0.00856883288 -0.097931573 -0.0350943941
v -0.00754344958 -0.098500774 -0.0301954075
v 0.0275528518 -0.0924247293 -0.00449437648
v 0.0291821336 -0.0916535359 -0.00743296914
v 0.0277429692 -0.0881826714 0.000425489179
v -0.0091289297 -0.0961637016 -0.0395808689
v 0.0281855695 -0.0977506138 -0.0190955339
v 0.0257536961 -0.086697439 0.0057064346
v 0.0265193477 -0.0829930569 0.00743423807
v -0.00907950212 -0.0940462757 -0.0431612047
v -0.0108089201 -0.0947361996 -0.0334294979
v -0.0132193097 -0.0919964176 -0.0199446891
v -0.0106195551 -0.0961578053 -0.0308302086
v -0.0121219998 -0.0946355005 -0.0221060414
v -0.0135325688 -0.0918982737 -0.0141358614
v -0.0101270251 -0.0970325325 -0.0258584478
v -0.0117615627 -0.0946101103 -0.016765506
v -0.0133573216 -0.0908718572 -0.00846244729
v -0.0146505651 -0.0888546243 -0.00858054191
v -0.0157730987 -0.0848824812 -0.00352032584
v -0.00901281117 -0.0970033995 -0.0215026579
v -0.0101753733 -0.0948444425 -0.0144937323
v 0.0273046546 -0.0963242759 -0.0130060595
v 0.0262497047 -0.0947578205 -0.00788375182
v -0.0147726079 -0.0857508638 -0.000925692075
v -0.0169203635 -0.0791247309 0.00190430601
v -0.0108852887 -0.0930101387 -0.00995931186
v 0.0251889366 -0.0905251632 0.00116185356
v -0.0115680502 -0.0908194003 -0.00569493095
v 0.0239477282 -0.0915512829 -0.000453331222
v 0.023749148 -0.0875504259 0.00587772302
v -0.0106305236 -0.0881036986 -0.000835933224
v -0.0129954872 -0.0866389728 0.000230436717
v -0.0158946092 -0.0792521066 0.00546310257
v -0.0112621287 -0.0845777521 0.00341481427
v 0.0230794874 -0.0831806605 0.0107867549
v -0.0141836095 -0.0796201651 0.00706452847
v -0.0178385391 -0.0706507433 0.00851247169
v -0.01752787 -0.0743099911 0.00500141759
v -0.0183755154 -0.06596537 0.00876895574
v -0.0166670356 -0.0718245181 0.0103994287
v -0.0146614324 -0.0732751169 0.0113437301
v -0.0179441059 -0.0556403263 0.0176932124
v -0.0119179498 -0.0797792523 0.00778628382
v -0.0189739418 -0.057466062 0.0143443409
v -0.0210888781 -0.00555540794 0.0245101604
v -0.0186504514 -0.0561397364 0.0107231157
v -0.018675202 -0.0481512705 0.0108597967
v 0.0225043284 -0.078363249 0.0147032362
v 0.0219945293 -0.07367436 0.01761811
v 0.0244253384 -0.0790601167 0.0132516376
v 0.0254922207 -0.0783101284 0.0122529906
v 0.025060689 -0.0722911478 0.0156562368
v 0.0240001732 -0.0733865928 0.0166906102
v 0.0234022595 -0.0550091363 0.0241468428
v 0.0238945173 -0.0545901749 0.0228266232
v 0.0216308258 -0.00554975661 0.0348603789
v 0.0220273859 -0.00554972674 0.0333896111
v 0.0203149151 -0.00554968214 0.0364431558
v 0.0224965807 -0.0583758034 0.0240377296
v 0.0220369869 -0.0509753629 0.0265068753
v 0.0181116009 -0.00554963759 0.0371716771
v 0.0210419217 -0.0584775913 0.0246980257
v 0.0201408156 -0.0509501534 0.027182253
v -0.0175833261 -0.00554959633 0.0308380084
v 0.0196316477 -0.0590533874 0.0245631061
v -0.0134130651 -0.0643588731 0.0162297394
v -0.0140664178 -0.0552517607 0.0200779992
v -0.0161319193 -0.057990507 0.018289093
v -0.0166313808 -0.0519961541 0.0199871007
v -0.0201432306 -0.00554999855 0.0286301336
v -0.0187684955 -0.0515492126 0.0176147019
v -0.0209508459 -0.00555113112 0.0258268585
v -0.0211347971 -2.84969722e-07 0.0255108898
v -0.0205008066 -1.66933984e-08 0.0211956518
v -0.0205093693 -0.0121541339 0.0212116007
v -0.0183234176 -0.0384596891 0.00887023416
v -0.0177506942 -0.0308229196 0.00562929854
v -0.0169381042 -0.0239387315 0.00103141792
v -0.0201739056 -0.0110784039 0.0193435335
v -0.015595046 -0.0164942597 -0.00656291159
v -0.014246759 -0.0121855 -0.0141973971
v -0.012142606 -0.0109999786 -0.0261048524
v -0.00781453749 -0.012129471 -0.0505975739
v -0.0107106431 -0.0104957823 -0.0346746761
v -0.0132193097 -0.0919964176 -0.0199446891
v -0.0204763921 -0.0919272326 -0.0154701163
v -0.0135325688 -0.0918982737 -0.0141358614
v -0.00778848913 -0.0919569291 -0.050455943
v -0.0142482873 -0.0919990661 -0.050686649
v -0.0139482458 -0.0915929804 -0.0523565628
v -0.0260169188 -0.091848059 -0.0538837921
v -0.0347478817 -0.0919938525 -0.0260610104
v -0.0337156852 -0.0919582992 -0.0187277401
v -0.0354840224 -0.0915144252 -0.0207959907
v -0.0361820981 -0.0913412109 -0.0247937365
v -0.0275378093 -0.0920078916 -0.0526494638
v -0.0287908777 -0.0917015506 -0.0526513031
v -0.0339789672 -0.0918654056 -0.0363415107
v -0.0358295431 -0.0910971636 -0.0323446875
v -0.0307447488 -0.0919864016 -0.0476039539
v -0.0324840054 -0.0915285519 -0.0461668591
v -0.0320280852 -0.0909757188 -0.0490543141
v -0.0336380189 -0.0906759088 -0.0450429972
v 0.031876448 -0.00499997744 -0.0229139565
v 0.0306536448 -0.00499997755 -0.0256973581
v 0.0354475346 -0.00500033474 -0.0426059123
v 0.0262164573 -0.00499997794 -0.0302108761
v 0.0208777933 -0.00499996349 -0.0340944593
v 0.035320121 -0.00501568302 -0.0458283816
v 0.0337751121 -0.00500406018 -0.0487827056
v 0.0198626837 -0.00499999341 -0.033882042
v -0.0015330482 -0.00500474866 -0.0551753619
v -0.00429993481 -0.00501278083 -0.0546467316
v -0.00701257406 -0.00499998084 -0.0385399006
v -0.00785818513 -0.00499998092 -0.0391823181
v -0.0071180216 -0.00500293125 -0.0509410864
v -0.00843787158 -0.00499945928 -0.0469934865
v -0.00990745859 -0.00499990652 -0.03875361
v 0.00604052701 -0.0049999797 -0.031332139
v -0.00436432267 -0.00499998061 -0.0318037928
v -0.00728865954 -0.00499998087 -0.0351572817
v -0.00622192849 -0.00499998077 -0.0330278359
v 0.0150478726 -0.00499997891 -0.028407725
v 0.0189572999 -0.00499997857 -0.030543402
v 0.0171643162 -0.00499999364 -0.0288952724
v -0.02571048 -0.0109999798 -0.01446448
v -0.0283723047 -0.01099998 -0.00807850811
v -0.029473582 -0.0109999801 -0.00124819535
v -0.0216343038 -0.0109999794 -0.0200080947
v -0.0289537381 -0.0109999801 0.00565077025
v -0.0268413588 -0.0109999799 0.0122389189
v -0.0232541124 -0.0110037347 0.0181892989
v -0.0201739056 -0.0110784039 0.0193435335
v -0.0205093693 -0.0121541339 0.0212116007
v -0.012142606 -0.0109999786 -0.0261048524
v -0.0149008634 -0.0109875959 -0.0266702496
v -0.0123952681 -0.010538728 -0.0305148889
v -0.0107106431 -0.0104957823 -0.0346746761
v 0.0216308258 -0.00554975661 0.0348603789
v 0.0202021232 -0.00554966724 0.0345395732
v 0.0220273859 -0.00554972674 0.0333896111
v 0.0203149151 -0.00554968214 0.0364431558
v 0.0181116009 -0.00554963759 0.0371716771
v -0.0175833261 -0.00554959633 0.0308380084
v -0.0193149618 -0.00555002831 0.0274867663
v -0.0201432306 -0.00554999855 0.0286301336
v -0.0209508459 -0.00555113112 0.0258268585
v -0.0205008066 -1.66933984e-08 0.0211956518
v -0.0232526494 1.28683495e-08 0.0181539115
v -0.0268413598 1.25546145e-08 0.012238916
v -0.0289537391 1.23699444e-08 0.00565076843
v -0.029473583 1.23244982e-08 -0.00124819699
v -0.0283723057 1.2420775e-08 -0.00807850956
v -0.025710481 1.26534791e-08 -0.0144644815
v -0.00440074182 1.45164358e-08 -0.0318444771
v 0.00506338838 1.53438164e-08 -0.0315048062
v 0.0149997155 1.62124777e-08 -0.0283819885
v -0.00622192892 1.43572225e-08 -0.0330278359
v 0.0171643158 1.64017131e-08 -0.0288952724
v -0.015448156 -4.63286521e-07 -0.0259270484
v -0.0216345128 1.30098116e-08 -0.0200548704
v -0.0119871846 1.03260176e-07 -0.0313501427
v -0.00734148416 1.42593479e-08 -0.0351906434
v -0.00982818528 2.0775705e-07 -0.0387504348
v -0.00700881428 1.42884308e-08 -0.038388485
v -0.00762803393 1.42342969e-08 -0.03914634
v 0.0220258094 1.68267184e-08 0.0333895761
v 0.0188962382 1.65531226e-08 -0.0305301626
v 0.0201803705 1.6665385e-08 0.0345362525
v -0.0211347971 -2.84969722e-07 0.0255108898
v -0.0195634682 -1.11929738e-06 0.0273379002
v 0.0317935279 1.76806395e-08 -0.0233626823
v 0.0306536444 1.75809877e-08 -0.0256973581
v 0.0262164569 1.71930765e-08 -0.0302108761
v 0.0197961548 1.66317958e-08 -0.0338025537
v 0.0207970588 1.67192976e-08 -0.0341142033
v 0.0317935279 1.76806395e-08 -0.0233626823
v 0.031876448 -0.00499997744 -0.0229139565
v 0.0220258094 1.68267184e-08 0.0333895761
v 0.0220273859 -0.00554972674 0.0333896111
v 0.0330384147 -0.0954165851 -0.0289710471
v 0.0354475346 -0.00500033474 -0.0426059123
v 0.0238945173 -0.0545901749 0.0228266232
v 0.037604464 -0.0145613809 -0.0548714248
v 0.025060689 -0.0722911478 0.0156562368
v 0.0393276651 -0.0274590357 -0.0646519125
v 0.0265193477 -0.0829930569 0.00743423807
v 0.0400456372 -0.0386637106 -0.0687844527
v 0.0277429692 -0.0881826714 0.000425489179
v 0.0402114806 -0.0514244858 -0.0695420662
v 0.0291821336 -0.0916535359 -0.00743296914
v 0.0305276563 -0.0948436939 -0.0163041608
v 0.0399840296 -0.0647681148 -0.0684178143
v 0.0389958858 -0.0779401768 -0.0629223068
v 0.0377139297 -0.0859316405 -0.0555878214
v 0.035696383 -0.092962451 -0.0442618533
v -0.0107106431 -0.0104957823 -0.0346746761
v -0.00990745859 -0.00499990652 -0.03875361
v -0.00982818528 2.0775705e-07 -0.0387504348
v -0.0119871846 1.03260176e-07 -0.0313501427
v -0.0123952681 -0.010538728 -0.0305148889
v -0.015448156 -4.63286521e-07 -0.0259270484
v -0.0149008634 -0.0109875959 -0.0266702496
v -0.0216343038 -0.0109999794 -0.0200080947
v -0.0216345128 1.30098116e-08 -0.0200548704
v -0.02571048 -0.0109999798 -0.01446448
v -0.025710481 1.26534791e-08 -0.0144644815
v -0.0283723047 -0.01099998 -0.00807850811
v -0.0283723057 1.2420775e-08 -0.00807850956
v -0.029473582 -0.0109999801 -0.00124819535
v -0.029473583 1.23244982e-08 -0.00124819699
v -0.0289537381 -0.0109999801 0.00565077025
v -0.0289537391 1.23699444e-08 0.00565076843
v -0.0268413588 -0.0109999799 0.0122389189
v -0.0268413598 1.25546145e-08 0.012238916
v -0.0232541124 -0.0110037347 0.0181892989
v -0.0232526494 1.28683495e-08 0.0181539115
v -0.0205008066 -1.66933984e-08 0.0211956518
v -0.0205093693 -0.0121541339 0.0212116007
v 0.0317935279 1.76806395e-08 -0.0233626823
v 0.0306536448 -0.00499997755 -0.0256973581
v 0.031876448 -0.00499997744 -0.0229139565
v 0.0306536444 1.75809877e-08 -0.0256973581
v 0.0262164573 -0.00499997794 -0.0302108761
v 0.0262164569 1.71930765e-08 -0.0302108761
v 0.0208777933 -0.00499996349 -0.0340944593
v 0.0207970588 1.67192976e-08 -0.0341142033
v 0.0198626837 -0.00499999341 -0.033882042
v 0.0197961548 1.66317958e-08 -0.0338025537
v 0.0189572999 -0.00499997857 -0.030543402
v 0.0188962382 1.65531226e-08 -0.0305301626
v 0.0171643158 1.64017131e-08 -0.0288952724
v 0.0171643162 -0.00499999364 -0.0288952724
v 0.0149997155 1.62124777e-08 -0.0283819885
v 0.0150478726 -0.00499997891 -0.028407725
v 0.00604052701 -0.0049999797 -0.031332139
v 0.00506338838 1.53438164e-08 -0.0315048062
v -0.00436432267 -0.00499998061 -0.0318037928
v -0.00440074182 1.45164358e-08 -0.0318444771
v -0.00622192892 1.43572225e-08 -0.0330278359
v -0.00622192849 -0.00499998077 -0.0330278359
v -0.00734148416 1.42593479e-08 -0.0351906434
v -0.00728865954 -0.00499998087 -0.0351572817
v -0.00701257406 -0.00499998084 -0.0385399006
v -0.00700881428 1.42884308e-08 -0.038388485
v -0.00762803393 1.42342969e-08 -0.03914634
v -0.00785818513 -0.00499998092 -0.0391823181
v -0.00982818528 2.0775705e-07 -0.0387504348
v -0.00990745859 -0.00499990652 -0.03875361
v 0.0220258094 1.68267184e-08 0.0333895761
v 0.0220273859 -0.00554972674 0.0333896111
v 0.0201803705 1.6665385e-08 0.0345362525
v 0.0202021232 -0.00554966724 0.0345395732
v -0.0193149618 -0.00555002831 0.0274867663
v -0.0195634682 -1.11929738e-06 0.0273379002
v -0.0211347971 -2.84969722e-07 0.0255108898
v -0.0209508459 -0.00555113112 0.0258268585
v -0.00338215772 -0.0568151477 -0.0755446788
v -0.00960919369 -0.0478568961 -0.0766458747
v -0.00964692137 -0.0517880611 -0.0765570556
v -0.00341888798 -0.046889752 -0.0755710527
v -0.00987928159 -0.0397214587 -0.0751174462
v -0.00378343792 -0.0376008454 -0.0734003843
v -0.00432057881 -0.0307436745 -0.0704405713
v -0.0104098757 -0.032021016 -0.0721148157
v -0.00531231912 -0.022483408 -0.0647589623
v -0.0111821733 -0.025028393 -0.0677443633
v -0.0121688163 -0.0189913215 -0.0621609506
v -0.00680415409 -0.0152462124 -0.0563154987
v -0.0138561987 -0.0123609466 -0.0526185322
v -0.00781453749 -0.012129471 -0.0505975739
v -0.0183400906 -0.0122003419 -0.0274581922
v -0.0204862449 -0.0121234672 -0.0154155321
v -0.014246759 -0.0121855 -0.0141973971
v -0.00960919369 -0.0478568961 -0.0766458747
v -0.00983259069 -0.0521175397 -0.075596926
v -0.00964692137 -0.0517880611 -0.0765570556
v -0.00987387939 -0.0457821481 -0.0751480169
v -0.00987928159 -0.0397214587 -0.0751174462
v -0.0101520617 -0.0389214905 -0.0735737907
v -0.0104098757 -0.032021016 -0.0721148157
v -0.0106225613 -0.0324165982 -0.0709112268
v -0.0112725981 -0.0264441808 -0.0672326656
v -0.0111821733 -0.025028393 -0.0677443633
v -0.0120845117 -0.0211664588 -0.0626380264
v -0.0121688163 -0.0189913215 -0.0621609506
v -0.0130362561 -0.0167268223 -0.0572521123
v -0.0138561987 -0.0123609466 -0.0526185322
v -0.0141019718 -0.0132458661 -0.051221234
v -0.0183420215 -0.0132183444 -0.0276292441
v -0.0183400906 -0.0122003419 -0.0274581922
vt 0.913085938 0.199951172
vt 0.913574219 0.200439453
vt 0.912597656 0.201049805
vt 0.912109375 0.200439453
vt 0.909667969 0.203491211
vt 0.909667969 0.202514648
vt 0.908203125 0.203735352
vt 0.907714844 0.205322266
vt 0.906738281 0.204956055
vt 0.905273438 0.20703125
vt 0.90625 0.20690918
vt 0.901855469 0.214477539
vt 0.90234375 0.211669922
vt 0.899902344 0.216796875
vt 0.899414062 0.222290039
vt 0.8984375 0.222167969
vt 0.8984375 0.227661133
vt 0.897949219 0.227539062
vt 0.8984375 0.233032227
vt 0.897949219 0.233032227
vt 0.899414062 0.23828125
vt 0.898925781 0.238769531
vt 0.907226562 0.247558594
vt 0.905761719 0.247558594
vt 0.907226562 0.249145508
vt 0.909179688 0.249755859
vt 0.908691406 0.250732422
vt 0.910644531 0.251220703
vt 0.91015625 0.252197266
vt 0.912597656 0.253173828
vt 0.912109375 0.25390625
vt 0.913085938 0.254394531
vt 0.913574219 0.253662109
vt 0.939941406 0.749511719
vt 0.938964844 0.745605469
vt 0.939941406 0.745117188
vt 0.935058594 0.74609375
vt 0.933105469 0.747070312
vt 0.932128906 0.749023438
vt 0.939941406 0.754394531
vt 0.932128906 0.756835938
vt 0.939941406 0.758789062
vt 0.932128906 0.763671875
vt 0.939941406 0.763671875
vt 0.932128906 0.768554688
vt 0.939941406 0.768554688
vt 0.932128906 0.7734375
vt 0.939941406 0.7734375
vt 0.932128906 0.778320312
vt 0.939941406 0.778320312
vt 0.932128906 0.790039062
vt 0.93359375 0.792480469
vt 0.938964844 0.793945312
vt 0.936035156 0.793457031
vt 0.939941406 0.794433594
vt 0.108093262 0.696777344
vt 0.105529785 0.708007812
vt 0.107421875 0.695800781
vt 0.104370117 0.6953125
vt 0.0960083008 0.703613281
vt 0.0952758789 0.699707031
vt 0.102355957 0.694335938
vt 0.101013184 0.692382812
vt 0.0959472656 0.685546875
vt 0.100341797 0.690429688
vt 0.0971069336 0.680664062
vt 0.0996704102 0.678710938
vt 0.0971679688 0.6796875
vt 0.0956420898 0.682128906
vt 0.0964355469 0.675292969
vt 0.0969848633 0.673339844
vt 0.0941162109 0.676757812
vt 0.0944213867 0.672363281
vt 0.0933227539 0.668945312
vt 0.090637207 0.670410156
vt 0.0887451172 0.665527344
vt 0.0925292969 0.673339844
vt 0.0901489258 0.672851562
vt 0.0927734375 0.6796875
vt 0.094909668 0.684570312
vt 0.0874633789 0.66796875
vt 0.0948486328 0.692382812
vt 0.0943603516 0.698730469
vt 0.0940551758 0.689941406
vt 0.0935668945 0.686523438
vt 0.0846557617 0.665039062
vt 0.0834960938 0.663085938
vt 0.0810546875 0.6640625
vt 0.0780029297 0.661621094
vt 0.0817871094 0.666015625
vt 0.0765991211 0.6640625
vt 0.0720825195 0.661132812
vt 0.0844116211 0.668945312
vt 0.0889892578 0.674316406
vt 0.0776977539 0.666503906
vt 0.0726318359 0.6640625
vt 0.0681762695 0.663085938
vt 0.0692138672 0.661132812
vt 0.0674438477 0.66015625
vt 0.0664672852 0.658691406
vt 0.059753418 0.65625
vt 0.0656738281 0.655273438
vt 0.0649414062 0.654785156
vt 0.059387207 0.650878906
vt 0.053894043 0.659179688
vt 0.0518188477 0.654296875
vt 0.048034668 0.662109375
vt 0.0453796387 0.657714844
vt 0.0425109863 0.666015625
vt 0.038269043 0.663085938
vt 0.0373535156 0.670410156
vt 0.032043457 0.668457031
vt 0.032989502 0.674316406
vt 0.0279846191 0.672363281
vt 0.0292358398 0.678710938
vt 0.0247344971 0.67578125
vt 0.0391235352 0.680664062
vt 0.0366210938 0.684570312
vt 0.041015625 0.682128906
vt 0.037902832 0.686523438
vt 0.041809082 0.677734375
vt 0.044342041 0.675292969
vt 0.044128418 0.677246094
vt 0.0486755371 0.674316406
vt 0.0475158691 0.672363281
vt 0.0506896973 0.669921875
vt 0.0386657715 0.6875
vt 0.0390930176 0.689941406
vt 0.0418395996 0.684570312
vt 0.0450439453 0.678222656
vt 0.0459594727 0.679199219
vt 0.0423278809 0.686523438
vt 0.0394287109 0.693359375
vt 0.0500793457 0.676269531
vt 0.046875 0.680175781
vt 0.0539550781 0.668457031
vt 0.0559997559 0.668945312
vt 0.0571289062 0.666503906
vt 0.0612792969 0.665527344
vt 0.0513000488 0.671386719
vt 0.0534057617 0.671875
vt 0.0539550781 0.672851562
vt 0.0582580566 0.669921875
vt 0.0645751953 0.6640625
vt 0.0665283203 0.665039062
vt 0.0630493164 0.667480469
vt 0.0702514648 0.666015625
vt 0.054473877 0.673828125
vt 0.0602722168 0.670898438
vt 0.0548400879 0.674804688
vt 0.0632324219 0.668457031
vt 0.0701293945 0.667480469
vt 0.0742797852 0.668457031
vt 0.0666503906 0.669433594
vt 0.0648803711 0.670898438
vt 0.0489807129 0.715332031
vt 0.0758666992 0.670898438
vt 0.0864868164 0.67578125
vt 0.0797119141 0.670410156
vt 0.0844116211 0.671875
vt 0.0803833008 0.668945312
vt 0.0878295898 0.675292969
vt 0.0914306641 0.680175781
vt 0.0919799805 0.686035156
vt 0.0813598633 0.713867188
vt 0.0926513672 0.695800781
vt 0.0888061523 0.705566406
vt 0.0935668945 0.697753906
vt 0.091796875 0.702148438
vt 0.0938720703 0.700683594
vt 0.0889282227 0.708496094
vt 0.0951538086 0.703613281
vt 0.0916748047 0.705566406
vt 0.0944213867 0.702636719
vt 0.0911865234 0.708984375
vt 0.096496582 0.705078125
vt 0.0922241211 0.709472656
vt 0.094543457 0.708984375
vt 0.0856933594 0.713378906
vt 0.0848388672 0.712402344
vt 0.0865478516 0.714355469
vt 0.0784301758 0.717285156
vt 0.0803222656 0.717285156
vt 0.101806641 0.713867188
vt 0.0922851562 0.711914062
vt 0.105529785 0.718261719
vt 0.110595703 0.7109375
vt 0.0978393555 0.71875
vt 0.0978393555 0.727050781
vt 0.0893554688 0.714355469
vt 0.092590332 0.724121094
vt 0.090637207 0.732421875
vt 0.0866699219 0.728515625
vt 0.0827026367 0.736816406
vt 0.0803222656 0.731933594
vt 0.0726928711 0.740234375
vt 0.0845336914 0.717285156
vt 0.0868530273 0.717285156
vt 0.0837402344 0.720214844
vt 0.080078125 0.721679688
vt 0.0809326172 0.71875
vt 0.0743408203 0.720703125
vt 0.0764770508 0.721679688
vt 0.0772094727 0.723632812
vt 0.073425293 0.734375
vt 0.0734863281 0.725097656
vt 0.0715332031 0.724121094
vt 0.0668945312 0.735351562
vt 0.0642700195 0.741699219
vt 0.0697021484 0.726074219
vt 0.0663452148 0.724609375
vt 0.0713500977 0.72265625
vt 0.0680541992 0.722167969
vt 0.0564880371 0.735351562
vt 0.0541381836 0.741210938
vt 0.0660400391 0.7265625
vt 0.0624084473 0.726074219
vt 0.0696411133 0.720703125
vt 0.049987793 0.734375
vt 0.045501709 0.739257812
vt 0.0724487305 0.71875
vt 0.065246582 0.719726562
vt 0.0618591309 0.721191406
vt 0.0565490723 0.719238281
vt 0.0615539551 0.72265625
vt 0.0558776855 0.720214844
vt 0.0612487793 0.724121094
vt 0.0503234863 0.718261719
vt 0.0552978516 0.721679688
vt 0.0575561523 0.725097656
vt 0.0547485352 0.723144531
vt 0.0494995117 0.719238281
vt 0.0458068848 0.715820312
vt 0.0586853027 0.7265625
vt 0.0551757812 0.726074219
vt 0.0525512695 0.723632812
vt 0.0497741699 0.721679688
vt 0.0520629883 0.725097656
vt 0.0439758301 0.732421875
vt 0.0406188965 0.737304688
vt 0.0342712402 0.734375
vt 0.0484924316 0.724121094
vt 0.0384521484 0.729492188
vt 0.0293121338 0.731445312
vt 0.0459594727 0.71875
vt 0.0450439453 0.720214844
vt 0.0414733887 0.716308594
vt 0.042175293 0.713378906
vt 0.0453186035 0.722167969
vt 0.042388916 0.720214844
vt 0.0338134766 0.7265625
vt 0.0291748047 0.72265625
vt 0.0247344971 0.728027344
vt 0.039855957 0.718261719
vt 0.0370178223 0.71484375
vt 0.0374755859 0.713867188
vt 0.0385131836 0.711425781
vt 0.0387878418 0.708496094
vt 0.0400085449 0.706054688
vt 0.0391540527 0.702636719
vt 0.0434265137 0.7109375
vt 0.0403747559 0.697265625
vt 0.0414428711 0.704589844
vt 0.0427856445 0.688964844
vt 0.0477294922 0.681152344
vt 0.0412902832 0.174316406
vt 0.0361328125 0.171508789
vt 0.048248291 0.172119141
vt 0.049041748 0.165893555
vt 0.0528564453 0.167114258
vt 0.052947998 0.162231445
vt 0.0511474609 0.169555664
vt 0.0516967773 0.171020508
vt 0.0544433594 0.168334961
vt 0.0557861328 0.170166016
vt 0.0563964844 0.161743164
vt 0.0579833984 0.155883789
vt 0.0604553223 0.149780273
vt 0.0591125488 0.163208008
vt 0.0600585938 0.158813477
vt 0.0604858398 0.154663086
vt 0.0604248047 0.163696289
vt 0.0582885742 0.170776367
vt 0.0625610352 0.146972656
vt 0.0616455078 0.145019531
vt 0.0623779297 0.138671875
vt 0.0643920898 0.142700195
vt 0.0629882812 0.151000977
vt 0.0628662109 0.155273438
vt 0.0624389648 0.164794922
vt 0.0905761719 0.177246094
vt 0.0910644531 0.170288086
vt 0.092956543 0.179077148
vt 0.0646362305 0.158325195
vt 0.0645141602 0.135131836
vt 0.0632324219 0.131835938
vt 0.0645751953 0.149047852
vt 0.0631103516 0.158081055
vt 0.0651855469 0.153442383
vt 0.0647583008 0.128662109
vt 0.0640258789 0.126098633
vt 0.0639648438 0.120910645
vt 0.091796875 0.164672852
vt 0.0921020508 0.159057617
vt 0.0931396484 0.170654297
vt 0.0950927734 0.168579102
vt 0.0947265625 0.181030273
vt 0.0940551758 0.164916992
vt 0.0970458984 0.156616211
vt 0.0939941406 0.159545898
vt 0.0677490234 0.149902344
vt 0.0930786133 0.153564453
vt 0.0949707031 0.154174805
vt 0.0958862305 0.148803711
vt 0.0983276367 0.147460938
vt 0.0939331055 0.1484375
vt 0.065612793 0.150024414
vt 0.0684204102 0.145263672
vt 0.0653076172 0.145019531
vt 0.0663452148 0.145996094
vt 0.0657958984 0.140625
vt 0.0668945312 0.141967773
vt 0.0690307617 0.141235352
vt 0.094909668 0.143310547
vt 0.0660400391 0.135986328
vt 0.0674438477 0.136352539
vt 0.0679321289 0.131469727
vt 0.0662841797 0.131347656
vt 0.0692749023 0.136108398
vt 0.0668334961 0.125732422
vt 0.0970458984 0.143432617
vt 0.0982666016 0.138183594
vt 0.0992431641 0.138183594
vt 0.0982666016 0.12890625
vt 0.0966796875 0.138183594
vt 0.0950317383 0.138061523
vt 0.0971679688 0.133544922
vt 0.095703125 0.134765625
vt 0.0948486328 0.133300781
vt 0.0961914062 0.130004883
vt 0.0974731445 0.126831055
vt 0.0698852539 0.131347656
vt 0.0981445312 0.121337891
vt 0.0993652344 0.119750977
vt 0.0947875977 0.129272461
vt 0.0702514648 0.127197266
vt 0.0965576172 0.124084473
vt 0.0950927734 0.125488281
vt 0.0684814453 0.125488281
vt 0.0706176758 0.12286377
vt 0.0955200195 0.120239258
vt 0.0971679688 0.119812012
vt 0.0985107422 0.116821289
vt 0.096496582 0.116699219
vt 0.0710449219 0.117614746
vt 0.0689697266 0.119689941
vt 0.0673217773 0.119995117
vt 0.0995483398 0.112182617
vt 0.101074219 0.111999512
vt 0.0971069336 0.113525391
vt 0.0712890625 0.111694336
vt 0.0693969727 0.113830566
vt 0.0654296875 0.122924805
vt 0.0657958984 0.116943359
vt 0.0642700195 0.114440918
vt 0.0676879883 0.114074707
vt 0.0662231445 0.110839844
vt 0.0648193359 0.108337402
vt 0.0680541992 0.107910156
vt 0.0666503906 0.104614258
vt 0.0651855469 0.103881836
vt 0.0660400391 0.100219727
vt 0.0697631836 0.107849121
vt 0.0687255859 0.10168457
vt 0.0676269531 0.0983886719
vt 0.0718383789 0.105712891
vt 0.0704345703 0.1015625
vt 0.0693969727 0.0959472656
vt 0.0974121094 0.110412598
vt 0.0974731445 0.10736084
vt 0.0975341797 0.104187012
vt 0.0995483398 0.105712891
vt 0.101074219 0.102111816
vt 0.0977783203 0.100952148
vt 0.0998535156 0.100891113
vt 0.0709838867 0.09765625
vt 0.0977172852 0.0979614258
vt 0.100036621 0.0963745117
vt 0.101806641 0.0911865234
vt 0.0986938477 0.0958251953
vt 0.100402832 0.0900878906
vt 0.101257324 0.0817871094
vt 0.071105957 0.0946044922
vt 0.0972900391 0.0940551758
vt 0.0998535156 0.08203125
vt 0.0982666016 0.0889282227
vt 0.0709838867 0.0916748047
vt 0.069519043 0.0905761719
vt 0.0705566406 0.0877685547
vt 0.0991210938 0.0729980469
vt 0.100952148 0.0747680664
vt 0.100280762 0.0685424805
vt 0.0682373047 0.0932006836
vt 0.0980834961 0.0839233398
vt 0.0985717773 0.0648803711
vt 0.100097656 0.0623474121
vt 0.0670166016 0.0953979492
vt 0.0668334961 0.0894775391
vt 0.0642700195 0.0807495117
vt 0.0678100586 0.0879516602
vt 0.0664672852 0.0824584961
vt 0.0648193359 0.0764160156
vt 0.0686035156 0.0850219727
vt 0.0670776367 0.0787963867
vt 0.065612793 0.0721435547
vt 0.063659668 0.071472168
vt 0.0627441406 0.0662231445
vt 0.0695800781 0.0822753906
vt 0.0685424805 0.0772705078
vt 0.0979614258 0.0795288086
vt 0.0975952148 0.0757446289
vt 0.0650634766 0.0651245117
vt 0.062286377 0.0596923828
vt 0.0680541992 0.0738525391
vt 0.0974121094 0.0687866211
vt 0.0676269531 0.0703735352
vt 0.0963134766 0.0700073242
vt 0.0968017578 0.0650024414
vt 0.0689086914 0.0664672852
vt 0.0670166016 0.0650024414
vt 0.0651245117 0.0582275391
vt 0.0689697266 0.0624694824
vt 0.0966796875 0.0605163574
vt 0.0670776367 0.0578918457
vt 0.0635375977 0.0517272949
vt 0.0625 0.0552978516
vt 0.0620727539 0.0486755371
vt 0.065612793 0.0519104004
vt 0.067565918 0.0526123047
vt 0.0656738281 0.0394897461
vt 0.0690307617 0.0578613281
vt 0.0635375977 0.0415039062
vt 0.0559082031 0.00476837158
vt 0.0606079102 0.0416870117
vt 0.0582885742 0.0364074707
vt 0.096862793 0.0563049316
vt 0.0971679688 0.052520752
vt 0.0982666016 0.057434082
vt 0.0995483398 0.0575256348
vt 0.100524902 0.0526123047
vt 0.0989990234 0.0528564453
vt 0.0993041992 0.0385742188
vt 0.100524902 0.0386047363
vt 0.100585938 0.00202941895
vt 0.101806641 0.00229644775
vt 0.0988769531 0.00170898438
vt 0.0980834961 0.0408630371
vt 0.0979003906 0.0352478027
vt 0.0969848633 0.00149059296
vt 0.0967407227 0.0407104492
vt 0.0962524414 0.0350341797
vt 0.0619812012 0.00302505493
vt 0.0955810547 0.0411071777
vt 0.0693359375 0.0455322266
vt 0.0692749023 0.0386657715
vt 0.0674438477 0.0408630371
vt 0.0668334961 0.0365905762
vt 0.0592346191 0.00367927551
vt 0.0642700195 0.036895752
vt 0.0569152832 0.00442123413
vt 0.0549926758 0.000813961029
vt 0.0516662598 0.00197029114
vt 0.0553588867 0.0100021362
vt 0.0538330078 0.0305786133
vt 0.049041748 0.0264129639
vt 0.0434570312 0.0231170654
vt 0.0536193848 0.00978851318
vt 0.035369873 0.0202484131
vt 0.028213501 0.0194549561
vt 0.0187225342 0.0218505859
vt 0.000267267227 0.0291290283
vt 0.0120010376 0.0238037109
vt 0.0150909424 0.70703125
vt 0.0202026367 0.7109375
vt 0.0146255493 0.7109375
vt 0.0146255493 0.685546875
vt 0.0196838379 0.686035156
vt 0.0196685791 0.685058594
vt 0.0292816162 0.685546875
vt 0.0325622559 0.705078125
vt 0.0309753418 0.709960938
vt 0.0326538086 0.708496094
vt 0.0336608887 0.706054688
vt 0.0302429199 0.686523438
vt 0.0312347412 0.686523438
vt 0.0331726074 0.697753906
vt 0.0343017578 0.700683594
vt 0.0319824219 0.689941406
vt 0.033203125 0.69140625
vt 0.0333862305 0.689453125
vt 0.0342407227 0.691894531
vt 0.0184631348 0.615722656
vt 0.0204467773 0.614257812
vt 0.0341796875 0.615722656
vt 0.0233154297 0.610839844
vt 0.0255584717 0.606933594
vt 0.0366516113 0.615234375
vt 0.0386962891 0.613769531
vt 0.0252532959 0.605957031
vt 0.0386962891 0.589355469
vt 0.037902832 0.587402344
vt 0.025100708 0.587402344
vt 0.0254821777 0.586914062
vt 0.0346679688 0.5859375
vt 0.0314331055 0.585449219
vt 0.0248565674 0.585449219
vt 0.0213623047 0.597167969
vt 0.0202636719 0.58984375
vt 0.0224456787 0.587890625
vt 0.0209503174 0.588867188
vt 0.0203552246 0.603515625
vt 0.0225524902 0.605957031
vt 0.0210266113 0.604980469
vt 0.36328125 0.0548095703
vt 0.364501953 0.0594177246
vt 0.364501953 0.0641479492
vt 0.360839844 0.0505981445
vt 0.363037109 0.0687255859
vt 0.360595703 0.0728759766
vt 0.356933594 0.0764770508
vt 0.354492188 0.0768432617
vt 0.354492188 0.0783691406
vt 0.354492188 0.0453796387
vt 0.356689453 0.0453186035
vt 0.355224609 0.0424194336
vt 0.354492188 0.0394287109
vt 0.952636719 0.387695312
vt 0.952636719 0.388671875
vt 0.951660156 0.387451172
vt 0.953613281 0.388427734
vt 0.954589844 0.390136719
vt 0.954589844 0.418457031
vt 0.952636719 0.420166016
vt 0.953125 0.420654297
vt 0.951660156 0.421875
vt 0.94921875 0.488037109
vt 0.946777344 0.486328125
vt 0.943359375 0.482910156
vt 0.940917969 0.478759766
vt 0.939453125 0.474121094
vt 0.939453125 0.469482422
vt 0.940429688 0.46484375
vt 0.954589844 0.450439453
vt 0.961914062 0.449707031
vt 0.970214844 0.450683594
vt 0.953125 0.449951172
vt 0.971679688 0.449951172
vt 0.946777344 0.455810547
vt 0.942871094 0.460449219
vt 0.948730469 0.451660156
vt 0.951660156 0.448730469
vt 0.94921875 0.446533203
vt 0.951660156 0.446533203
vt 0.951171875 0.446044922
vt 0.983886719 0.491210938
vt 0.97265625 0.448730469
vt 0.982421875 0.4921875
vt 0.94921875 0.490966797
vt 0.950683594 0.4921875
vt 0.983398438 0.451904297
vt 0.982421875 0.450439453
vt 0.978515625 0.447998047
vt 0.973144531 0.446289062
vt 0.973632812 0.446044922
vt 0.784179688 0.561523438
vt 0.782714844 0.565429688
vt 0.745117188 0.554199219
vt 0.744628906 0.55859375
vt 0.773925781 0.635742188
vt 0.796386719 0.567871094
vt 0.744628906 0.59765625
vt 0.803222656 0.577148438
vt 0.746582031 0.612304688
vt 0.808105469 0.588378906
vt 0.750976562 0.621582031
vt 0.809082031 0.597167969
vt 0.754882812 0.626464844
vt 0.807617188 0.607421875
vt 0.759765625 0.630371094
vt 0.765136719 0.633789062
vt 0.805175781 0.617675781
vt 0.799316406 0.626953125
vt 0.793457031 0.632324219
vt 0.784667969 0.636230469
vt 0.953613281 0.740722656
vt 0.958007812 0.737792969
vt 0.961914062 0.737792969
vt 0.961914062 0.743164062
vt 0.953613281 0.743652344
vt 0.961914062 0.747558594
vt 0.953125 0.746582031
vt 0.953125 0.752929688
vt 0.961914062 0.752929688
vt 0.953125 0.7578125
vt 0.961914062 0.7578125
vt 0.953125 0.762695312
vt 0.961914062 0.762695312
vt 0.953125 0.767089844
vt 0.961914062 0.767089844
vt 0.953125 0.771972656
vt 0.961914062 0.771972656
vt 0.953125 0.776855469
vt 0.961914062 0.776855469
vt 0.953125 0.78125
vt 0.961914062 0.78125
vt 0.961914062 0.784179688
vt 0.952148438 0.784179688
vt 0.899414062 0.875
vt 0.903320312 0.873046875
vt 0.903320312 0.875488281
vt 0.899414062 0.873046875
vt 0.903320312 0.868652344
vt 0.899414062 0.868652344
vt 0.903320312 0.864257812
vt 0.899414062 0.864257812
vt 0.903320312 0.863769531
vt 0.899414062 0.863769531
vt 0.903320312 0.861328125
vt 0.899414062 0.861328125
vt 0.899414062 0.859863281
vt 0.903320312 0.859863281
vt 0.899414062 0.857910156
vt 0.903320312 0.858398438
vt 0.903320312 0.8515625
vt 0.899414062 0.851074219
vt 0.903320312 0.844726562
vt 0.899414062 0.844726562
vt 0.899414062 0.843261719
vt 0.903320312 0.843261719
vt 0.899414062 0.841308594
vt 0.903320312 0.841308594
vt 0.903320312 0.839355469
vt 0.899414062 0.839355469
vt 0.899414062 0.838378906
vt 0.903320312 0.838378906
vt 0.899414062 0.836914062
vt 0.903320312 0.836914062
vt 0.908203125 0.160522461
vt 0.912109375 0.160522461
vt 0.908203125 0.162231445
vt 0.912109375 0.162109375
vt 0.912109375 0.193603516
vt 0.908203125 0.193847656
vt 0.908203125 0.195800781
vt 0.912109375 0.19543457
vt 0.0121536255 0.805175781
vt 0.0072593689 0.811523438
vt 0.00721359253 0.80859375
vt 0.0121994019 0.812011719
vt 0.00730133057 0.816894531
vt 0.012260437 0.818359375
vt 0.0122680664 0.823730469
vt 0.00733184814 0.822753906
vt 0.0122909546 0.830566406
vt 0.00733947754 0.828613281
vt 0.00733947754 0.833984375
vt 0.0122833252 0.838378906
vt 0.00732421875 0.842285156
vt 0.0122680664 0.842773438
vt 0.0072479248 0.859375
vt 0.00721359253 0.867675781
vt 0.0121994019 0.868164062
vt 0.964355469 0.384277344
vt 0.961425781 0.383056641
vt 0.961914062 0.3828125
vt 0.96484375 0.385986328
vt 0.96875 0.388671875
vt 0.968261719 0.389892578
vt 0.972167969 0.393554688
vt 0.971191406 0.394042969
vt 0.973144531 0.398681641
vt 0.974121094 0.398925781
vt 0.974121094 0.403320312
vt 0.975097656 0.404541016
vt 0.974121094 0.408203125
vt 0.974609375 0.412597656
vt 0.973144531 0.412841797
vt 0.961425781 0.425537109
vt 0.961914062 0.426269531
f 3/3 2/2 1/1
f 3/3 1/1 4/4
f 5/5 3/3 4/4
f 5/5 4/4 6/6
f 6/6 7/7 5/5
f 5/5 7/7 8/8
f 9/9 8/8 7/7
f 9/9 10/10 8/8
f 10/10 11/11 8/8
f 10/10 12/12 11/11
f 10/10 13/13 12/12
f 13/13 14/14 12/12
f 14/14 15/15 12/12
f 14/14 16/16 15/15
f 16/16 17/17 15/15
f 16/16 18/18 17/17
f 18/18 19/19 17/17
f 18/18 20/20 19/19
f 20/20 21/21 19/19
f 20/20 22/22 21/21
f 22/22 23/23 21/21
f 22/22 24/24 23/23
f 23/23 24/24 25/25
f 26/26 23/23 25/25
f 27/27 26/26 25/25
f 27/27 28/28 26/26
f 27/27 29/29 28/28
f 29/29 30/30 28/28
f 29/29 31/31 30/30
f 31/31 32/32 30/30
f 32/32 33/33 30/30
f 36/36 35/35 34/34
f 35/35 37/37 34/34
f 38/38 34/34 37/37
f 38/38 39/39 34/34
f 39/39 40/40 34/34
f 41/41 40/40 39/39
f 41/41 42/42 40/40
f 41/41 43/43 42/42
f 43/43 44/44 42/42
f 43/43 45/45 44/44
f 45/45 46/46 44/44
f 45/45 47/47 46/46
f 47/47 48/48 46/46
f 47/47 49/49 48/48
f 49/49 50/50 48/48
f 49/49 51/51 50/50
f 50/50 51/51 52/52
f 53/53 50/50 52/52
f 53/53 52/52 54/54
f 53/53 55/55 50/50
f 58/58 57/57 56/56
f 58/58 59/59 57/57
f 59/59 60/60 57/57
f 61/61 60/60 59/59
f 61/61 59/59 62/62
f 62/62 63/63 61/61
f 63/63 64/64 61/61
f 63/63 65/65 64/64
f 64/64 65/65 66/66
f 66/66 65/65 67/67
f 66/66 67/67 68/68
f 64/64 66/66 69/69
f 68/68 69/69 66/66
f 68/68 67/67 70/70
f 67/67 71/71 70/70
f 72/72 68/68 70/70
f 69/69 68/68 72/72
f 71/71 73/73 70/70
f 72/72 70/70 73/73
f 71/71 74/74 73/73
f 75/75 73/73 74/74
f 74/74 76/76 75/75
f 77/77 72/72 73/73
f 77/77 73/73 75/75
f 78/78 72/72 77/77
f 78/78 77/77 75/75
f 79/79 69/69 72/72
f 79/79 72/72 78/78
f 64/64 69/69 80/80
f 79/79 80/80 69/69
f 76/76 81/81 75/75
f 78/78 75/75 81/81
f 82/82 64/64 80/80
f 82/82 61/61 64/64
f 61/61 82/82 83/83
f 60/60 61/61 83/83
f 82/82 80/80 84/84
f 82/82 84/84 83/83
f 80/80 79/79 85/85
f 80/80 85/85 84/84
f 76/76 86/86 81/81
f 86/86 76/76 87/87
f 87/87 88/88 86/86
f 87/87 89/89 88/88
f 90/90 81/81 86/86
f 90/90 86/86 88/88
f 88/88 89/89 91/91
f 90/90 88/88 91/91
f 91/91 89/89 92/92
f 93/93 81/81 90/90
f 93/93 78/78 81/81
f 94/94 79/79 78/78
f 94/94 78/78 93/93
f 95/95 90/90 91/91
f 95/95 93/93 90/90
f 96/96 91/91 92/92
f 95/95 91/91 96/96
f 97/97 96/96 92/92
f 97/97 92/92 98/98
f 99/99 97/97 98/98
f 100/100 97/97 99/99
f 100/100 101/101 97/97
f 102/102 101/101 100/100
f 101/101 102/102 103/103
f 104/104 101/101 103/103
f 105/105 101/101 104/104
f 105/105 104/104 106/106
f 106/106 107/107 105/105
f 106/106 108/108 107/107
f 108/108 109/109 107/107
f 108/108 110/110 109/109
f 110/110 111/111 109/109
f 110/110 112/112 111/111
f 113/113 111/111 112/112
f 113/113 112/112 114/114
f 115/115 113/113 114/114
f 115/115 114/114 116/116
f 117/117 113/113 115/115
f 117/117 115/115 118/118
f 119/119 117/117 118/118
f 120/120 119/119 118/118
f 121/121 111/111 113/113
f 117/117 121/121 113/113
f 111/111 121/121 122/122
f 109/109 111/111 122/122
f 123/123 121/121 117/117
f 119/119 123/123 117/117
f 123/123 122/122 121/121
f 123/123 124/124 122/122
f 109/109 122/122 125/125
f 124/124 125/125 122/122
f 125/125 126/126 109/109
f 126/126 107/107 109/109
f 127/127 119/119 120/120
f 120/120 128/128 127/127
f 128/128 129/129 127/127
f 129/129 119/119 127/127
f 130/130 123/123 119/119
f 130/130 124/124 123/123
f 131/131 130/130 119/119
f 129/129 131/131 119/119
f 129/129 128/128 132/132
f 128/128 133/133 132/132
f 131/131 134/134 130/130
f 134/134 124/124 130/130
f 131/131 129/129 135/135
f 129/129 132/132 135/135
f 131/131 135/135 134/134
f 126/126 136/136 107/107
f 137/137 136/136 126/126
f 136/136 105/105 107/107
f 138/138 105/105 136/136
f 137/137 138/138 136/136
f 138/138 101/101 105/105
f 101/101 138/138 139/139
f 137/137 139/139 138/138
f 140/140 137/137 126/126
f 140/140 126/126 125/125
f 124/124 140/140 125/125
f 141/141 140/140 124/124
f 141/141 137/137 140/140
f 142/142 141/141 124/124
f 134/134 142/142 124/124
f 141/141 143/143 137/137
f 142/142 143/143 141/141
f 101/101 139/139 144/144
f 101/101 144/144 97/97
f 145/145 97/97 144/144
f 145/145 144/144 139/139
f 145/145 96/96 97/97
f 146/146 139/139 137/137
f 146/146 145/145 139/139
f 143/143 146/146 137/137
f 147/147 96/96 145/145
f 146/146 147/147 145/145
f 147/147 95/95 96/96
f 142/142 134/134 148/148
f 143/143 142/142 149/149
f 142/142 148/148 149/149
f 150/150 148/148 134/134
f 150/150 149/149 148/148
f 150/150 134/134 135/135
f 151/151 146/146 143/143
f 151/151 143/143 149/149
f 152/152 147/147 146/146
f 151/151 152/152 146/146
f 153/153 95/95 147/147
f 152/152 153/153 147/147
f 152/152 151/151 154/154
f 151/151 149/149 154/154
f 152/152 154/154 153/153
f 155/155 154/154 149/149
f 150/150 155/155 149/149
f 155/155 150/150 156/156
f 155/155 156/156 157/157
f 155/155 157/157 154/154
f 157/157 153/153 154/154
f 156/156 158/158 157/157
f 157/157 158/158 159/159
f 157/157 159/159 153/153
f 158/158 160/160 159/159
f 153/153 161/161 95/95
f 161/161 153/153 159/159
f 161/161 159/159 160/160
f 161/161 93/93 95/95
f 161/161 160/160 93/93
f 160/160 94/94 93/93
f 94/94 160/160 162/162
f 158/158 162/162 160/160
f 94/94 162/162 163/163
f 158/158 163/163 162/162
f 79/79 94/94 163/163
f 79/79 163/163 85/85
f 164/164 85/85 163/163
f 158/158 164/164 163/163
f 164/164 158/158 165/165
f 85/85 164/164 166/166
f 85/85 166/166 84/84
f 164/164 165/165 167/167
f 167/167 166/166 164/164
f 166/166 168/168 84/84
f 83/83 84/84 168/168
f 166/166 167/167 169/169
f 166/166 169/169 168/168
f 83/83 168/168 170/170
f 170/170 168/168 169/169
f 167/167 171/171 169/169
f 167/167 165/165 171/171
f 172/172 83/83 170/170
f 60/60 83/83 172/172
f 173/173 170/170 169/169
f 173/173 169/169 171/171
f 170/170 173/173 174/174
f 172/172 170/170 174/174
f 173/173 175/175 174/174
f 173/173 171/171 175/175
f 174/174 175/175 172/172
f 176/176 60/60 172/172
f 60/60 176/176 57/57
f 172/172 177/177 176/176
f 175/175 177/177 172/172
f 178/178 57/57 176/176
f 177/177 178/178 176/176
f 171/171 179/179 175/175
f 165/165 180/180 171/171
f 179/179 171/171 180/180
f 175/175 181/181 177/177
f 179/179 181/181 175/175
f 179/179 180/180 182/182
f 165/165 182/182 180/180
f 179/179 183/183 181/181
f 183/183 179/179 182/182
f 178/178 184/184 57/57
f 177/177 185/185 178/178
f 178/178 185/185 184/184
f 57/57 184/184 186/186
f 57/57 186/186 187/187
f 184/184 188/188 186/186
f 185/185 188/188 184/184
f 188/188 189/189 186/186
f 177/177 190/190 185/185
f 188/188 185/185 190/190
f 181/181 190/190 177/177
f 188/188 191/191 189/189
f 191/191 188/188 190/190
f 192/192 189/189 191/191
f 192/192 191/191 193/193
f 193/193 194/194 192/192
f 193/193 195/195 194/194
f 196/196 194/194 195/195
f 181/181 197/197 190/190
f 191/191 190/190 198/198
f 197/197 198/198 190/190
f 198/198 199/199 191/191
f 199/199 193/193 191/191
f 197/197 199/199 198/198
f 193/193 199/199 200/200
f 197/197 200/200 199/199
f 195/195 193/193 200/200
f 181/181 201/201 197/197
f 201/201 200/200 197/197
f 183/183 201/201 181/181
f 183/183 202/202 201/201
f 202/202 183/183 182/182
f 201/201 203/203 200/200
f 202/202 203/203 201/201
f 195/195 200/200 204/204
f 203/203 204/204 200/200
f 196/196 195/195 205/205
f 204/204 206/206 195/195
f 206/206 205/205 195/195
f 203/203 207/207 204/204
f 207/207 206/206 204/204
f 196/196 205/205 208/208
f 209/209 196/196 208/208
f 206/206 210/210 205/205
f 207/207 210/210 206/206
f 210/210 208/208 205/205
f 207/207 211/211 210/210
f 212/212 207/207 203/203
f 202/202 212/212 203/203
f 212/212 211/211 207/207
f 202/202 213/213 212/212
f 213/213 211/211 212/212
f 209/209 208/208 214/214
f 215/215 209/209 214/214
f 210/210 216/216 208/208
f 211/211 216/216 210/210
f 208/208 216/216 217/217
f 214/214 208/208 217/217
f 211/211 217/217 216/216
f 213/213 202/202 218/218
f 202/202 182/182 218/218
f 214/214 219/219 215/215
f 219/219 220/220 215/215
f 221/221 218/218 182/182
f 165/165 221/221 182/182
f 221/221 165/165 222/222
f 221/221 222/222 218/218
f 165/165 158/158 222/222
f 213/213 218/218 223/223
f 222/222 223/223 218/218
f 222/222 158/158 224/224
f 222/222 224/224 223/223
f 156/156 224/224 158/158
f 213/213 225/225 211/211
f 225/225 213/213 223/223
f 224/224 226/226 223/223
f 225/225 223/223 226/226
f 225/225 227/227 211/211
f 227/227 217/217 211/211
f 224/224 228/228 226/226
f 224/224 156/156 228/228
f 229/229 225/225 226/226
f 225/225 229/229 227/227
f 229/229 226/226 228/228
f 227/227 230/230 217/217
f 229/229 231/231 227/227
f 227/227 231/231 230/230
f 232/232 229/229 228/228
f 229/229 232/232 231/231
f 156/156 233/233 228/228
f 232/232 228/228 233/233
f 230/230 234/234 217/217
f 214/214 217/217 234/234
f 234/234 235/235 214/214
f 230/230 235/235 234/234
f 235/235 219/219 214/214
f 231/231 236/236 230/230
f 230/230 236/236 235/235
f 232/232 237/237 231/231
f 231/231 237/237 236/236
f 236/236 238/238 235/235
f 238/238 219/219 235/235
f 236/236 237/237 238/238
f 238/238 239/239 219/219
f 219/219 239/239 220/220
f 239/239 240/240 220/220
f 241/241 240/240 239/239
f 239/239 238/238 242/242
f 237/237 242/242 238/238
f 241/241 239/239 243/243
f 243/243 239/239 242/242
f 244/244 241/241 243/243
f 232/232 245/245 237/237
f 232/232 233/233 245/245
f 237/237 246/246 242/242
f 245/245 246/246 237/237
f 245/245 247/247 246/246
f 233/233 248/248 245/245
f 248/248 247/247 245/245
f 246/246 249/249 242/242
f 243/243 242/242 249/249
f 246/246 250/250 249/249
f 249/249 250/250 243/243
f 246/246 247/247 250/250
f 251/251 244/244 243/243
f 250/250 251/251 243/243
f 251/251 252/252 244/244
f 252/252 253/253 244/244
f 251/251 250/250 254/254
f 252/252 251/251 254/254
f 247/247 254/254 250/250
f 252/252 254/254 255/255
f 247/247 255/255 254/254
f 256/256 252/252 255/255
f 255/255 247/247 256/256
f 257/257 256/256 247/247
f 248/248 257/257 247/247
f 248/248 258/258 257/257
f 258/258 248/248 259/259
f 258/258 259/259 260/260
f 248/248 261/261 259/259
f 248/248 233/233 261/261
f 156/156 261/261 233/233
f 259/259 262/262 260/260
f 262/262 133/133 260/260
f 263/263 259/259 261/261
f 261/261 156/156 263/263
f 259/259 263/263 262/262
f 264/264 133/133 262/262
f 262/262 263/263 264/264
f 264/264 132/132 133/133
f 156/156 265/265 263/263
f 264/264 263/263 265/265
f 264/264 265/265 132/132
f 150/150 265/265 156/156
f 265/265 135/135 132/132
f 265/265 150/150 135/135
f 268/268 267/267 266/266
f 268/268 269/269 267/267
f 268/268 270/270 269/269
f 270/270 271/271 269/269
f 270/270 268/268 272/272
f 268/268 273/273 272/272
f 273/273 274/274 272/272
f 270/270 272/272 274/274
f 273/273 275/275 274/274
f 270/270 276/276 271/271
f 276/276 270/270 274/274
f 276/276 277/277 271/271
f 276/276 278/278 277/277
f 275/275 279/279 274/274
f 274/274 280/280 276/276
f 280/280 274/274 279/279
f 278/278 276/276 281/281
f 280/280 281/281 276/276
f 275/275 282/282 279/279
f 283/283 282/282 275/275
f 278/278 281/281 284/284
f 285/285 278/278 284/284
f 286/286 285/285 284/284
f 286/286 284/284 287/287
f 288/288 284/284 281/281
f 280/280 288/288 281/281
f 288/288 287/287 284/284
f 280/280 279/279 289/289
f 288/288 280/280 289/289
f 282/282 289/289 279/279
f 283/283 290/290 282/282
f 291/291 290/290 283/283
f 291/291 292/292 290/290
f 292/292 291/291 293/293
f 294/294 282/282 290/290
f 292/292 294/294 290/290
f 295/295 286/286 287/287
f 295/295 296/296 286/286
f 287/287 288/288 297/297
f 288/288 289/289 297/297
f 298/298 289/289 282/282
f 294/294 298/298 282/282
f 298/298 299/299 289/289
f 299/299 297/297 289/289
f 294/294 299/299 298/298
f 295/295 300/300 296/296
f 301/301 296/296 300/300
f 302/302 301/301 300/300
f 292/292 303/303 294/294
f 304/304 299/299 294/294
f 303/303 304/304 294/294
f 303/303 292/292 305/305
f 292/292 293/293 305/305
f 305/305 293/293 306/306
f 306/306 293/293 307/307
f 308/308 305/305 306/306
f 303/303 305/305 308/308
f 309/309 308/308 306/306
f 310/310 303/303 308/308
f 304/304 303/303 310/310
f 310/310 308/308 309/309
f 304/304 311/311 299/299
f 312/312 304/304 310/310
f 304/304 312/312 311/311
f 313/313 310/310 309/309
f 312/312 310/310 313/313
f 314/314 313/313 309/309
f 314/314 309/309 315/315
f 316/316 312/312 313/313
f 316/316 313/313 314/314
f 311/311 317/317 299/299
f 317/317 297/297 299/299
f 312/312 318/318 311/311
f 312/312 316/316 318/318
f 317/317 319/319 297/297
f 287/287 297/297 319/319
f 320/320 317/317 311/311
f 317/317 320/320 319/319
f 320/320 311/311 318/318
f 321/321 287/287 319/319
f 321/321 319/319 320/320
f 318/318 322/322 320/320
f 322/322 321/321 320/320
f 316/316 323/323 318/318
f 323/323 322/322 318/318
f 324/324 316/316 314/314
f 316/316 324/324 323/323
f 325/325 287/287 321/321
f 325/325 295/295 287/287
f 322/322 326/326 321/321
f 322/322 323/323 326/326
f 325/325 321/321 326/326
f 326/326 327/327 325/325
f 325/325 328/328 295/295
f 325/325 327/327 328/328
f 328/328 300/300 295/295
f 323/323 329/329 326/326
f 324/324 329/329 323/323
f 327/327 326/326 329/329
f 328/328 330/330 300/300
f 327/327 330/330 328/328
f 324/324 314/314 331/331
f 331/331 314/314 315/315
f 332/332 331/331 315/315
f 332/332 315/315 333/333
f 332/332 333/333 334/334
f 335/335 324/324 331/331
f 335/335 331/331 332/332
f 324/324 336/336 329/329
f 336/336 324/324 335/335
f 335/335 332/332 337/337
f 332/332 334/334 337/337
f 336/336 335/335 338/338
f 335/335 337/337 338/338
f 336/336 339/339 329/329
f 336/336 338/338 339/339
f 340/340 338/338 337/337
f 340/340 339/339 338/338
f 334/334 341/341 337/337
f 341/341 340/340 337/337
f 342/342 329/329 339/339
f 327/327 329/329 342/342
f 343/343 341/341 334/334
f 344/344 343/343 334/334
f 342/342 339/339 345/345
f 345/345 339/339 340/340
f 327/327 342/342 346/346
f 346/346 342/342 345/345
f 347/347 340/340 341/341
f 343/343 347/347 341/341
f 348/348 345/345 340/340
f 346/346 345/345 348/348
f 347/347 348/348 340/340
f 349/349 327/327 346/346
f 327/327 349/349 330/330
f 350/350 346/346 348/348
f 349/349 346/346 350/350
f 347/347 351/351 348/348
f 350/350 348/348 351/351
f 343/343 352/352 347/347
f 347/347 352/352 351/351
f 344/344 353/353 343/343
f 343/343 353/353 352/352
f 352/352 354/354 351/351
f 352/352 353/353 354/354
f 355/355 350/350 351/351
f 355/355 351/351 354/354
f 356/356 349/349 350/350
f 355/355 356/356 350/350
f 349/349 357/357 330/330
f 349/349 356/356 357/357
f 344/344 358/358 353/353
f 344/344 359/359 358/358
f 353/353 360/360 354/354
f 353/353 358/358 360/360
f 354/354 361/361 355/355
f 354/354 360/360 361/361
f 355/355 362/362 356/356
f 362/362 355/355 361/361
f 330/330 357/357 363/363
f 330/330 363/363 300/300
f 300/300 363/363 302/302
f 363/363 364/364 302/302
f 357/357 364/364 363/363
f 364/364 365/365 302/302
f 356/356 366/366 357/357
f 357/357 366/366 364/364
f 356/356 362/362 366/366
f 364/364 367/367 365/365
f 366/366 367/367 364/364
f 367/367 368/368 365/365
f 362/362 369/369 366/366
f 366/366 369/369 367/367
f 367/367 370/370 368/368
f 369/369 370/370 367/367
f 370/370 371/371 368/368
f 370/370 372/372 371/371
f 362/362 373/373 369/369
f 361/361 373/373 362/362
f 369/369 374/374 370/370
f 373/373 374/374 369/369
f 370/370 375/375 372/372
f 374/374 375/375 370/370
f 361/361 376/376 373/373
f 373/373 377/377 374/374
f 376/376 377/377 373/373
f 374/374 378/378 375/375
f 377/377 378/378 374/374
f 379/379 376/376 361/361
f 360/360 379/379 361/361
f 358/358 379/379 360/360
f 379/379 380/380 376/376
f 358/358 380/380 379/379
f 380/380 381/381 376/376
f 381/381 377/377 376/376
f 358/358 382/382 380/380
f 382/382 381/381 380/380
f 359/359 382/382 358/358
f 359/359 383/383 382/382
f 381/381 384/384 377/377
f 382/382 384/384 381/381
f 383/383 385/385 382/382
f 382/382 385/385 384/384
f 384/384 386/386 377/377
f 377/377 386/386 378/378
f 384/384 387/387 386/386
f 385/385 387/387 384/384
f 383/383 388/388 385/385
f 383/383 389/389 388/388
f 385/385 388/388 390/390
f 385/385 390/390 387/387
f 388/388 389/389 391/391
f 390/390 388/388 391/391
f 391/391 389/389 392/392
f 393/393 386/386 387/387
f 386/386 393/393 378/378
f 387/387 390/390 394/394
f 394/394 390/390 391/391
f 393/393 387/387 394/394
f 391/391 392/392 395/395
f 396/396 394/394 391/391
f 391/391 395/395 396/396
f 394/394 397/397 393/393
f 394/394 396/396 397/397
f 393/393 398/398 378/378
f 393/393 397/397 398/398
f 396/396 399/399 397/397
f 397/397 399/399 398/398
f 392/392 400/400 395/395
f 392/392 401/401 400/400
f 401/401 402/402 400/400
f 378/378 398/398 403/403
f 378/378 403/403 375/375
f 396/396 395/395 404/404
f 396/396 404/404 399/399
f 402/402 405/405 400/400
f 402/402 406/406 405/405
f 375/375 403/403 407/407
f 375/375 407/407 372/372
f 408/408 372/372 407/407
f 403/403 408/408 407/407
f 408/408 409/409 372/372
f 398/398 410/410 403/403
f 403/403 410/410 408/408
f 409/409 408/408 411/411
f 410/410 411/411 408/408
f 409/409 411/411 412/412
f 398/398 413/413 410/410
f 413/413 411/411 410/410
f 399/399 413/413 398/398
f 414/414 412/412 411/411
f 413/413 414/414 411/411
f 414/414 415/415 412/412
f 415/415 416/416 412/412
f 415/415 417/417 416/416
f 399/399 418/418 413/413
f 418/418 414/414 413/413
f 404/404 418/418 399/399
f 418/418 419/419 414/414
f 419/419 415/415 414/414
f 404/404 420/420 418/418
f 420/420 419/419 418/418
f 395/395 420/420 404/404
f 395/395 421/421 420/420
f 420/420 421/421 419/419
f 395/395 400/400 421/421
f 415/415 422/422 417/417
f 422/422 423/423 417/417
f 419/419 424/424 415/415
f 421/421 424/424 419/419
f 400/400 425/425 421/421
f 400/400 405/405 425/425
f 424/424 426/426 415/415
f 426/426 422/422 415/415
f 421/421 427/427 424/424
f 421/421 425/425 427/427
f 426/426 424/424 427/427
f 425/425 428/428 427/427
f 405/405 428/428 425/425
f 429/429 426/426 427/427
f 429/429 427/427 428/428
f 426/426 430/430 422/422
f 426/426 429/429 430/430
f 422/422 431/431 423/423
f 430/430 431/431 422/422
f 432/432 429/429 428/428
f 430/430 429/429 432/432
f 405/405 433/433 428/428
f 432/432 428/428 433/433
f 434/434 430/430 432/432
f 430/430 434/434 431/431
f 431/431 435/435 423/423
f 423/423 435/435 436/436
f 437/437 436/436 435/435
f 431/431 438/438 435/435
f 434/434 438/438 431/431
f 434/434 439/439 438/438
f 439/439 440/440 438/438
f 434/434 432/432 441/441
f 441/441 432/432 433/433
f 434/434 441/441 439/439
f 438/438 442/442 435/435
f 435/435 442/442 437/437
f 438/438 440/440 442/442
f 443/443 437/437 442/442
f 444/444 437/437 443/443
f 445/445 444/444 443/443
f 441/441 433/433 446/446
f 441/441 446/446 439/439
f 447/447 439/439 446/446
f 448/448 446/446 433/433
f 448/448 447/447 446/446
f 405/405 448/448 433/433
f 406/406 448/448 405/405
f 406/406 449/449 448/448
f 406/406 450/450 449/449
f 449/449 451/451 448/448
f 449/449 450/450 451/451
f 448/448 451/451 447/447
f 452/452 451/451 450/450
f 453/453 452/452 450/450
f 452/452 453/453 454/454
f 453/453 455/455 454/454
f 452/452 454/454 456/456
f 452/452 457/457 451/451
f 457/457 447/447 451/451
f 458/458 452/452 456/456
f 452/452 458/458 457/457
f 458/458 456/456 459/459
f 457/457 458/458 460/460
f 457/457 460/460 447/447
f 461/461 458/458 459/459
f 458/458 461/461 460/460
f 459/459 462/462 461/461
f 447/447 460/460 463/463
f 460/460 461/461 463/463
f 464/464 447/447 463/463
f 464/464 439/439 447/447
f 461/461 465/465 463/463
f 465/465 464/464 463/463
f 461/461 462/462 465/465
f 464/464 466/466 439/439
f 464/464 465/465 466/466
f 439/439 466/466 440/440
f 466/466 465/465 467/467
f 462/462 467/467 465/465
f 466/466 467/467 440/440
f 462/462 440/440 467/467
f 440/440 462/462 468/468
f 469/469 440/440 468/468
f 469/469 442/442 440/440
f 469/469 468/468 470/470
f 442/442 469/469 443/443
f 443/443 469/469 470/470
f 443/443 470/470 471/471
f 443/443 471/471 472/472
f 443/443 472/472 473/473
f 445/445 443/443 473/473
f 474/474 445/445 473/473
f 475/475 474/474 473/473
f 476/476 475/475 473/473
f 476/476 473/473 477/477
f 476/476 477/477 478/478
f 479/479 478/478 477/477
f 479/479 477/477 480/480
f 481/481 479/479 480/480
f 481/481 480/480 482/482
f 485/485 484/484 483/483
f 486/486 483/483 484/484
f 486/486 484/484 487/487
f 487/487 488/488 486/486
f 488/488 487/487 489/489
f 490/490 487/487 484/484
f 491/491 490/490 484/484
f 490/490 491/491 492/492
f 490/490 492/492 493/493
f 487/487 494/494 489/489
f 489/489 494/494 495/495
f 496/496 490/490 493/493
f 496/496 493/493 497/497
f 490/490 498/498 487/487
f 494/494 487/487 498/498
f 496/496 498/498 490/490
f 494/494 499/499 495/495
f 494/494 498/498 499/499
f 498/498 496/496 499/499
f 496/496 497/497 499/499
f 495/495 499/499 500/500
f 499/499 497/497 501/501
f 499/499 501/501 500/500
f 504/504 503/503 502/502
f 504/504 505/505 503/503
f 504/504 506/506 505/505
f 504/504 507/507 506/506
f 506/506 507/507 508/508
f 508/508 509/509 506/506
f 508/508 510/510 509/509
f 510/510 511/511 509/509
f 512/512 509/509 511/511
f 512/512 511/511 513/513
f 514/514 513/513 511/511
f 515/515 513/513 514/514
f 515/515 516/516 513/513
f 517/517 509/509 512/512
f 518/518 517/517 512/512
f 518/518 512/512 519/519
f 519/519 520/520 518/518
f 517/517 521/521 509/509
f 509/509 521/521 522/522
f 523/523 522/522 521/521
f 526/526 525/525 524/524
f 526/526 524/524 527/527
f 528/528 526/526 527/527
f 528/528 527/527 529/529
f 530/530 529/529 527/527
f 531/531 530/530 527/527
f 531/531 532/532 530/530
f 533/533 531/531 527/527
f 533/533 527/527 534/534
f 534/534 535/535 533/533
f 535/535 536/536 533/533
f 539/539 538/538 537/537
f 540/540 537/537 538/538
f 540/540 538/538 541/541
f 542/542 541/541 538/538
f 542/542 538/538 543/543
f 543/543 544/544 542/542
f 543/543 545/545 544/544
f 548/548 547/547 546/546
f 548/548 546/546 549/549
f 550/550 549/549 546/546
f 551/551 550/550 546/546
f 551/551 546/546 552/552
f 546/546 553/553 552/552
f 546/546 554/554 553/553
f 555/555 554/554 546/546
f 553/553 556/556 552/552
f 546/546 557/557 555/555
f 558/558 552/552 556/556
f 558/558 559/559 552/552
f 560/560 558/558 556/556
f 561/561 560/560 556/556
f 562/562 560/560 561/561
f 562/562 561/561 563/563
f 564/564 562/562 563/563
f 546/546 565/565 557/557
f 565/565 566/566 557/557
f 546/546 567/567 565/565
f 568/568 567/567 546/546
f 568/568 569/569 567/567
f 565/565 570/570 566/566
f 566/566 570/570 571/571
f 566/566 571/571 572/572
f 566/566 572/572 573/573
f 573/573 572/572 574/574
f 577/577 576/576 575/575
f 577/577 578/578 576/576
f 578/578 579/579 576/576
f 579/579 580/580 576/576
f 579/579 578/578 581/581
f 579/579 582/582 580/580
f 583/583 579/579 581/581
f 579/579 584/584 582/582
f 585/585 579/579 583/583
f 586/586 584/584 579/579
f 587/587 579/579 585/585
f 588/588 586/586 579/579
f 589/589 579/579 587/587
f 590/590 579/579 589/589
f 591/591 588/588 579/579
f 592/592 591/591 579/579
f 592/592 579/579 593/593
f 594/594 593/593 579/579
f 597/597 596/596 595/595
f 598/598 597/597 595/595
f 598/598 595/595 599/599
f 600/600 598/598 599/599
f 600/600 599/599 601/601
f 600/600 601/601 602/602
f 603/603 600/600 602/602
f 603/603 602/602 604/604
f 605/605 603/603 604/604
f 605/605 604/604 606/606
f 607/607 605/605 606/606
f 607/607 606/606 608/608
f 609/609 607/607 608/608
f 609/609 608/608 610/610
f 611/611 609/609 610/610
f 611/611 610/610 612/612
f 613/613 611/611 612/612
f 613/613 612/612 614/614
f 615/615 613/613 614/614
f 615/615 614/614 616/616
f 614/614 617/617 616/616
f 620/620 619/619 618/618
f 619/619 621/621 618/618
f 621/621 619/619 622/622
f 623/623 621/621 622/622
f 623/623 622/622 624/624
f 625/625 623/623 624/624
f 625/625 624/624 626/626
f 627/627 625/625 626/626
f 628/628 627/627 626/626
f 628/628 629/629 627/627
f 630/630 629/629 628/628
f 630/630 628/628 631/631
f 632/632 630/630 631/631
f 632/632 631/631 633/633
f 632/632 633/633 634/634
f 635/635 632/632 634/634
f 635/635 634/634 636/636
f 637/637 635/635 636/636
f 638/638 637/637 636/636
f 638/638 636/636 639/639
f 640/640 638/638 639/639
f 640/640 639/639 641/641
f 642/642 640/640 641/641
f 642/642 643/643 640/640
f 644/644 643/643 642/642
f 644/644 642/642 645/645
f 645/645 646/646 644/644
f 645/645 647/647 646/646
f 650/650 649/649 648/648
f 650/650 651/651 649/649
f 651/651 650/650 652/652
f 650/650 653/653 652/652
f 652/652 653/653 654/654
f 655/655 652/652 654/654
f 658/658 657/657 656/656
f 657/657 659/659 656/656
f 659/659 657/657 660/660
f 661/661 659/659 660/660
f 662/662 661/661 660/660
f 662/662 660/660 663/663
f 664/664 662/662 663/663
f 664/664 663/663 665/665
f 664/664 665/665 666/666
f 667/667 664/664 666/666
f 667/667 666/666 668/668
f 667/667 668/668 669/669
f 670/670 669/669 668/668
f 671/671 669/669 670/670
f 671/671 672/672 669/669
f 675/675 674/674 673/673
f 674/674 676/676 673/673
f 673/673 676/676 677/677
f 676/676 678/678 677/677
f 677/677 678/678 679/679
f 678/678 680/680 679/679
f 680/680 681/681 679/679
f 681/681 682/682 679/679
f 681/681 683/683 682/682
f 683/683 684/684 682/682
f 683/683 685/685 684/684
f 685/685 686/686 684/684
f 685/685 687/687 686/686
f 687/687 688/688 686/686
f 688/688 689/689 686/686
