v 1.01317441 3.9299994 1.89726242
v 2.21525812 3.93000061 0.695182174
v 1.0131743 3.99999943 1.89726242
v 2.21525788 4.00000063 0.695182174
v 1.01317441 3.9299994 1.89726242
v 2.21525812 3.93000061 0.695182174
v 1.01317453 3.85999939 1.89726242
v 2.21525812 3.86000059 0.695182055
v 1.01317441 3.9299994 1.89726242
v 1.0131743 3.99999943 1.89726242
v 0.988425553 3.99062118 1.92201123
v 0.970308244 3.96499937 1.94012865
v 0.96367687 3.92999935 1.94676003
v 0.970308244 3.89499934 1.94012865
v 0.988425732 3.86937757 1.92201123
v 1.01317453 3.85999939 1.89726242
v 2.21525812 3.93000061 0.695182174
v 2.21525788 4.00000063 0.695182174
v 2.24000669 3.99062243 0.670433432
v 2.25812411 3.96500066 0.652316064
v 2.26475549 3.93000066 0.645684689
v 2.25812411 3.89500064 0.652316064
v 2.24000692 3.86937883 0.670433313
v 2.21525812 3.86000059 0.695182055
v -0.599999547 3.66699991 -4.83300033
v -0.598905802 3.66699991 -4.84940687
v -0.624985695 3.66699991 -4.83383241
v -0.623637319 3.66699991 -4.85306087
v -0.649971843 3.66699991 -4.83466449
v -0.648368835 3.66699991 -4.85671487
v -0.674957991 3.66699991 -4.8354961
v -0.673100412 3.66699991 -4.86036888
v -0.699944139 3.66699991 -4.83632818
v -0.697831929 3.66699991 -4.8640224
v -0.599999547 3.66699991 -4.83300033
v -0.598905802 3.66699991 -4.84940687
v -0.575013399 3.66699991 -4.83216873
v -0.574174285 3.66699991 -4.84575287
v -0.550027251 3.66699991 -4.83133665
v -0.549442768 3.66699991 -4.84209886
v -0.525041103 3.66699991 -4.83050457
v -0.524711192 3.66699991 -4.83844486
v -0.500054955 3.66699991 -4.82967296
v -0.499979675 3.66699991 -4.83479086
v -0.598905802 3.66699991 -4.84940687
v -0.595624506 3.66699991 -4.86362568
v -0.623637319 3.66699991 -4.85306087
v -0.619302034 3.66699991 -4.87164894
v -0.648368835 3.66699991 -4.85671487
v -0.642979622 3.66699991 -4.8796722
v -0.673100412 3.66699991 -4.86036888
v -0.66665715 3.66699991 -4.88769546
v -0.697831929 3.66699991 -4.8640224
v -0.690334678 3.66699991 -4.89571872
v -0.598905802 3.66699991 -4.84940687
v -0.595624506 3.66699991 -4.86362568
v -0.574174285 3.66699991 -4.84575287
v -0.571946979 3.66699991 -4.85560241
v -0.549442768 3.66699991 -4.84209886
v -0.548269391 3.66699991 -4.84757915
v -0.524711192 3.66699991 -4.83844486
v -0.524591863 3.66699991 -4.83955541
v -0.499979675 3.66699991 -4.83479086
v -0.500914335 3.66699991 -4.83153215
v -0.595624506 3.66699991 -4.86362568
v -0.59015578 3.66699991 -4.87565675
v -0.619302034 3.66699991 -4.87164894
v -0.61154902 3.66699991 -4.88859239
v -0.642979622 3.66699991 -4.8796722
v -0.632942319 3.66699991 -4.90152803
v -0.66665715 3.66699991 -4.88769546
v -0.654335558 3.66699991 -4.91446319
v -0.690334678 3.66699991 -4.89571872
v -0.675728798 3.66699991 -4.92739883
v -0.595624506 3.66699991 -4.86362568
v -0.59015578 3.66699991 -4.87565675
v -0.571946979 3.66699991 -4.85560241
v -0.568762541 3.66699991 -4.86272112
v -0.548269391 3.66699991 -4.84757915
v -0.547369242 3.66699991 -4.84978548
v -0.524591863 3.66699991 -4.83955541
v -0.525976002 3.66699991 -4.83685032
v -0.500914335 3.66699991 -4.83153215
v -0.504582763 3.66699991 -4.82391468
v -0.59015578 3.66699991 -4.87565675
v -0.582499564 3.66699991 -4.88550058
v -0.61154902 3.66699991 -4.88859239
v -0.600177228 3.66699991 -4.90317836
v -0.632942319 3.66699991 -4.90152803
v -0.617854893 3.66699991 -4.92085567
v -0.654335558 3.66699991 -4.91446319
v -0.635532618 3.66699991 -4.93853346
v -0.675728798 3.66699991 -4.92739883
v -0.653210282 3.66699991 -4.95621124
v -0.59015578 3.66699991 -4.87565675
v -0.582499564 3.66699991 -4.88550058
v -0.568762541 3.66699991 -4.86272112
v -0.564821899 3.66699991 -4.8678228
v -0.547369242 3.66699991 -4.84978548
v -0.547144234 3.66699991 -4.85014501
v -0.525976002 3.66699991 -4.83685032
v -0.52946651 3.66699991 -4.83246723
v -0.504582763 3.66699991 -4.82391468
v -0.511788845 3.66699991 -4.81478992
v -0.582499564 3.66699991 -4.88550058
v -0.572655797 3.66699991 -4.89315668
v -0.600177228 3.66699991 -4.90317836
v -0.585591376 3.66699991 -4.91454998
v -0.617854893 3.66699991 -4.92085567
v -0.598527014 3.66699991 -4.93594328
v -0.635532618 3.66699991 -4.93853346
v -0.611462593 3.66699991 -4.95733657
v -0.653210282 3.66699991 -4.95621124
v -0.624398172 3.66699991 -4.9787294
v -0.582499564 3.66699991 -4.88550058
v -0.572655797 3.66699991 -4.89315668
v -0.564821899 3.66699991 -4.8678228
v -0.559720218 3.66699991 -4.87176338
v -0.547144234 3.66699991 -4.85014501
v -0.54678458 3.66699991 -4.85037008
v -0.52946651 3.66699991 -4.83246723
v -0.533849001 3.66699991 -4.82897678
v -0.511788845 3.66699991 -4.81478992
v -0.520913422 3.66699991 -4.80758396
v -0.572655797 3.66699991 -4.89315668
v -0.560624599 3.66699991 -4.89862552
v -0.585591376 3.66699991 -4.91454998
v -0.568647921 3.66699991 -4.92230287
v -0.598527014 3.66699991 -4.93594328
v -0.576671243 3.66699991 -4.9459807
v -0.611462593 3.66699991 -4.95733657
v -0.584694564 3.66699991 -4.96965805
v -0.624398172 3.66699991 -4.9787294
v -0.592717886 3.66699991 -4.99333587
v -0.572655797 3.66699991 -4.89315668
v -0.560624599 3.66699991 -4.89862552
v -0.559720218 3.66699991 -4.87176338
v -0.552601278 3.66699991 -4.87494817
v -0.54678458 3.66699991 -4.85037008
v -0.544577956 3.66699991 -4.85127035
v -0.533849001 3.66699991 -4.82897678
v -0.536554635 3.66699991 -4.827593
v -0.520913422 3.66699991 -4.80758396
v -0.528531313 3.66699991 -4.80391517
v -0.560624599 3.66699991 -4.89862552
v -0.546405792 3.66699991 -4.90190664
v -0.568647921 3.66699991 -4.92230287
v -0.550059736 3.66699991 -4.92663828
v -0.576671243 3.66699991 -4.9459807
v -0.55371362 3.66699991 -4.95136991
v -0.584694564 3.66699991 -4.96965805
v -0.557367563 3.66699991 -4.97610155
v -0.592717886 3.66699991 -4.99333587
v -0.561021507 3.66699991 -5.00083271
v -0.560624599 3.66699991 -4.89862552
v -0.546405792 3.66699991 -4.90190664
v -0.552601278 3.66699991 -4.87494817
v -0.542751849 3.66699991 -4.87717548
v -0.544577956 3.66699991 -4.85127035
v -0.539097965 3.66699991 -4.85244384
v -0.536554635 3.66699991 -4.827593
v -0.535444021 3.66699991 -4.82771221
v -0.528531313 3.66699991 -4.80391517
v -0.531790078 3.66699991 -4.80298057
v -0.546405792 3.66699991 -4.90190664
v -0.529999554 3.66699991 -4.9030005
v -0.550059736 3.66699991 -4.92663828
v -0.530831516 3.66699991 -4.92798677
v -0.55371362 3.66699991 -4.95136991
v -0.531663418 3.66699991 -4.95297256
v -0.557367563 3.66699991 -4.97610155
v -0.532495379 3.66699991 -4.97795883
v -0.561021507 3.66699991 -5.00083271
v -0.533327341 3.66699991 -5.0029451
v -0.546405792 3.66699991 -4.90190664
v -0.529999554 3.66699991 -4.9030005
v -0.542751849 3.66699991 -4.87717548
v -0.529167593 3.66699991 -4.87801424
v -0.539097965 3.66699991 -4.85244384
v -0.52833569 3.66699991 -4.85302845
v -0.535444021 3.66699991 -4.82771221
v -0.527503729 3.66699991 -4.82804218
v -0.531790078 3.66699991 -4.80298057
v -0.526671767 3.66699991 -4.80305591
v -0.529999554 3.66699991 -4.9030005
v 0.530000627 3.66699991 -4.9030005
v -0.530831516 3.66699991 -4.92798677
v 0.530832589 3.66699991 -4.92798629
v -0.531663418 3.66699991 -4.95297256
v 0.531664491 3.66699991 -4.95297256
v -0.532495379 3.66699991 -4.97795883
v 0.532496452 3.66699991 -4.97795883
v -0.533327341 3.66699991 -5.0029451
v 0.533328414 3.66699991 -5.0029451
v -0.529999554 3.66699991 -4.9030005
v 0.530000627 3.66699991 -4.9030005
v -0.529167593 3.66699991 -4.87801424
v 0.529168665 3.66699991 -4.87801424
v -0.52833569 3.66699991 -4.85302845
v 0.528336763 3.66699991 -4.85302797
v -0.527503729 3.66699991 -4.82804218
v 0.527504802 3.66699991 -4.82804218
v -0.526671767 3.66699991 -4.80305591
v 0.52667284 3.66699991 -4.80305591
v 0.530000627 3.66699991 -4.9030005
v 0.546406865 3.66699991 -4.90190664
v 0.530832589 3.66699991 -4.92798629
v 0.550060868 3.66699991 -4.92663828
v 0.531664491 3.66699991 -4.95297256
v 0.553714812 3.66699991 -4.95136943
v 0.532496452 3.66699991 -4.97795883
v 0.557368815 3.66699991 -4.97610107
v 0.533328414 3.66699991 -5.0029451
v 0.561022758 3.66699991 -5.00083271
v 0.530000627 3.66699991 -4.9030005
v 0.546406865 3.66699991 -4.90190664
v 0.529168665 3.66699991 -4.87801424
v 0.542752862 3.66699991 -4.877175
v 0.528336763 3.66699991 -4.85302797
v 0.539098918 3.66699991 -4.85244384
v 0.527504802 3.66699991 -4.82804218
v 0.535444915 3.66699991 -4.82771221
v 0.52667284 3.66699991 -4.80305591
v 0.531790972 3.66699991 -4.80298057
v 0.546406865 3.66699991 -4.90190664
v 0.560625672 3.66699991 -4.89862552
v 0.550060868 3.66699991 -4.92663828
v 0.568648994 3.66699991 -4.92230287
v 0.553714812 3.66699991 -4.95136943
v 0.576672316 3.66699991 -4.94598022
v 0.557368815 3.66699991 -4.97610107
v 0.584695637 3.66699991 -4.96965805
v 0.561022758 3.66699991 -5.00083271
v 0.592718959 3.66699991 -4.9933354
v 0.546406865 3.66699991 -4.90190664
v 0.560625672 3.66699991 -4.89862552
v 0.542752862 3.66699991 -4.877175
v 0.552602351 3.66699991 -4.8749477
v 0.539098918 3.66699991 -4.85244384
v 0.544579029 3.66699991 -4.85127035
v 0.535444915 3.66699991 -4.82771221
v 0.536555707 3.66699991 -4.82759252
v 0.531790972 3.66699991 -4.80298057
v 0.528532386 3.66699991 -4.80391517
v 0.560625672 3.66699991 -4.89862552
v 0.57265687 3.66699991 -4.89315668
v 0.568648994 3.66699991 -4.92230287
v 0.585592389 3.66699991 -4.91454998
v 0.576672316 3.66699991 -4.94598022
v 0.598527968 3.66699991 -4.93594328
v 0.584695637 3.66699991 -4.96965805
v 0.611463487 3.66699991 -4.95733657
v 0.592718959 3.66699991 -4.9933354
v 0.624399066 3.66699991 -4.9787294
v 0.560625672 3.66699991 -4.89862552
v 0.57265687 3.66699991 -4.89315668
v 0.552602351 3.66699991 -4.8749477
v 0.559721351 3.66699991 -4.87176338
v 0.544579029 3.66699991 -4.85127035
v 0.546785772 3.66699991 -4.85037008
v 0.536555707 3.66699991 -4.82759252
v 0.533850253 3.66699991 -4.82897678
v 0.528532386 3.66699991 -4.80391517
v 0.520914674 3.66699991 -4.80758348
v 0.57265687 3.66699991 -4.89315668
v 0.582500577 3.66699991 -4.88550058
v 0.585592389 3.66699991 -4.91454998
v 0.600178242 3.66699991 -4.90317789
v 0.598527968 3.66699991 -4.93594328
v 0.617855906 3.66699991 -4.92085567
v 0.611463487 3.66699991 -4.95733657
v 0.635533571 3.66699991 -4.93853346
v 0.624399066 3.66699991 -4.9787294
v 0.653211236 3.66699991 -4.95621124
v 0.57265687 3.66699991 -4.89315668
v 0.582500577 3.66699991 -4.88550058
v 0.559721351 3.66699991 -4.87176338
v 0.564822912 3.66699991 -4.8678228
v 0.546785772 3.66699991 -4.85037008
v 0.547145247 3.66699991 -4.85014501
v 0.533850253 3.66699991 -4.82897678
v 0.529467583 3.66699991 -4.83246723
v 0.520914674 3.66699991 -4.80758348
v 0.511789918 3.66699991 -4.81478992
v 0.582500577 3.66699991 -4.88550058
v 0.590156853 3.66699991 -4.87565675
v 0.600178242 3.66699991 -4.90317789
v 0.611550093 3.66699991 -4.88859239
v 0.617855906 3.66699991 -4.92085567
v 0.632943332 3.66699991 -4.90152803
v 0.635533571 3.66699991 -4.93853346
v 0.654336572 3.66699991 -4.91446319
v 0.653211236 3.66699991 -4.95621124
v 0.675729752 3.66699991 -4.92739883
v 0.582500577 3.66699991 -4.88550058
v 0.590156853 3.66699991 -4.87565675
v 0.564822912 3.66699991 -4.8678228
v 0.568763614 3.66699991 -4.86272112
v 0.547145247 3.66699991 -4.85014501
v 0.547370374 3.66699991 -4.84978548
v 0.529467583 3.66699991 -4.83246723
v 0.525977135 3.66699991 -4.83684984
v 0.511789918 3.66699991 -4.81478992
v 0.504583955 3.66699991 -4.8239142
v 0.590156853 3.66699991 -4.87565675
v 0.595625639 3.66699991 -4.86362568
v 0.611550093 3.66699991 -4.88859239
v 0.619303167 3.66699991 -4.87164894
v 0.632943332 3.66699991 -4.90152803
v 0.642980754 3.66699991 -4.8796722
v 0.654336572 3.66699991 -4.91446319
v 0.666658282 3.66699991 -4.88769546
v 0.675729752 3.66699991 -4.92739883
v 0.69033581 3.66699991 -4.89571872
v 0.590156853 3.66699991 -4.87565675
v 0.595625639 3.66699991 -4.86362568
v 0.568763614 3.66699991 -4.86272112
v 0.571948111 3.66699991 -4.85560194
v 0.547370374 3.66699991 -4.84978548
v 0.548270524 3.66699991 -4.84757867
v 0.525977135 3.66699991 -4.83684984
v 0.524592996 3.66699991 -4.83955541
v 0.504583955 3.66699991 -4.8239142
v 0.500915468 3.66699991 -4.83153215
v 0.595625639 3.66699991 -4.86362568
v 0.598906875 3.66699991 -4.84940639
v 0.619303167 3.66699991 -4.87164894
v 0.623638391 3.66699991 -4.85306039
v 0.642980754 3.66699991 -4.8796722
v 0.648369968 3.66699991 -4.8567144
v 0.666658282 3.66699991 -4.88769546
v 0.673101485 3.66699991 -4.8603684
v 0.69033581 3.66699991 -4.89571872
v 0.697833002 3.66699991 -4.8640224
v 0.595625639 3.66699991 -4.86362568
v 0.598906875 3.66699991 -4.84940639
v 0.571948111 3.66699991 -4.85560194
v 0.574175358 3.66699991 -4.84575287
v 0.548270524 3.66699991 -4.84757867
v 0.549443781 3.66699991 -4.84209886
v 0.524592996 3.66699991 -4.83955541
v 0.524712265 3.66699991 -4.83844486
v 0.500915468 3.66699991 -4.83153215
v 0.499980748 3.66699991 -4.83479086
v 0.598906875 3.66699991 -4.84940639
v 0.60000062 3.66699991 -4.83300033
v 0.623638391 3.66699991 -4.85306039
v 0.624986768 3.66699991 -4.83383241
v 0.648369968 3.66699991 -4.8567144
v 0.649972916 3.66699991 -4.83466449
v 0.673101485 3.66699991 -4.8603684
v 0.674959064 3.66699991 -4.8354961
v 0.697833002 3.66699991 -4.8640224
v 0.699945211 3.66699991 -4.83632818
v 0.598906875 3.66699991 -4.84940639
v 0.60000062 3.66699991 -4.83300033
v 0.574175358 3.66699991 -4.84575287
v 0.575014472 3.66699991 -4.83216825
v 0.549443781 3.66699991 -4.84209886
v 0.550028324 3.66699991 -4.83133665
v 0.524712265 3.66699991 -4.83844486
v 0.525042176 3.66699991 -4.83050457
v 0.499980748 3.66699991 -4.83479086
v 0.500056028 3.66699991 -4.82967249
v 0.60000062 3.66699991 -4.83300033
v 0.600000501 3.66699991 -3.77300015
v 0.624986768 3.66699991 -4.83383241
v 0.624986649 3.66699991 -3.77216831
v 0.649972916 3.66699991 -4.83466449
v 0.649972796 3.66699991 -3.77133623
v 0.674959064 3.66699991 -4.8354961
v 0.674958944 3.66699991 -3.77050439
v 0.699945211 3.66699991 -4.83632818
v 0.699945092 3.66699991 -3.76967254
v 0.60000062 3.66699991 -4.83300033
v 0.600000501 3.66699991 -3.77300015
v 0.575014472 3.66699991 -4.83216825
v 0.575014353 3.66699991 -3.77383223
v 0.550028324 3.66699991 -4.83133665
v 0.550028205 3.66699991 -3.77466407
v 0.525042176 3.66699991 -4.83050457
v 0.525042057 3.66699991 -3.77549616
v 0.500056028 3.66699991 -4.82967249
v 0.500055909 3.66699991 -3.776328
v 0.600000501 3.66699991 -3.77300015
v 0.598906755 3.66699991 -3.75659385
v 0.624986649 3.66699991 -3.77216831
v 0.623638272 3.66699991 -3.75293985
v 0.649972796 3.66699991 -3.77133623
v 0.648369789 3.66699991 -3.74928609
v 0.674958944 3.66699991 -3.77050439
v 0.673101366 3.66699991 -3.74563208
v 0.699945092 3.66699991 -3.76967254
v 0.697832882 3.66699991 -3.74197808
v 0.600000501 3.66699991 -3.77300015
v 0.598906755 3.66699991 -3.75659385
v 0.575014353 3.66699991 -3.77383223
v 0.574175239 3.66699991 -3.76024786
v 0.550028205 3.66699991 -3.77466407
v 0.549443722 3.66699991 -3.76390186
v 0.525042057 3.66699991 -3.77549616
v 0.524712145 3.66699991 -3.76755586
v 0.500055909 3.66699991 -3.776328
v 0.499980628 3.66699991 -3.77120987
v 0.598906755 3.66699991 -3.75659385
v 0.59562546 3.66699991 -3.74237505
v 0.623638272 3.66699991 -3.75293985
v 0.619302988 3.66699991 -3.73435178
v 0.648369789 3.66699991 -3.74928609
v 0.642980576 3.66699991 -3.72632852
v 0.673101366 3.66699991 -3.74563208
v 0.666658103 3.66699991 -3.71830526
v 0.697832882 3.66699991 -3.74197808
v 0.690335631 3.66699991 -3.710282
v 0.598906755 3.66699991 -3.75659385
v 0.59562546 3.66699991 -3.74237505
v 0.574175239 3.66699991 -3.76024786
v 0.571947932 3.66699991 -3.75039855
v 0.549443722 3.66699991 -3.76390186
v 0.548270345 3.66699991 -3.75842181
v 0.524712145 3.66699991 -3.76755586
v 0.524592817 3.66699991 -3.76644507
v 0.499980628 3.66699991 -3.77120987
v 0.500915289 3.66699991 -3.77446857
v 0.59562546 3.66699991 -3.74237505
v 0.590156734 3.66699991 -3.73034397
v 0.619302988 3.66699991 -3.73435178
v 0.611549973 3.66699991 -3.71740833
v 0.642980576 3.66699991 -3.72632852
v 0.632943273 3.66699991 -3.70447293
v 0.666658103 3.66699991 -3.71830526
v 0.654336512 3.66699991 -3.69153729
v 0.690335631 3.66699991 -3.710282
v 0.675729752 3.66699991 -3.67860189
v 0.59562546 3.66699991 -3.74237505
v 0.590156734 3.66699991 -3.73034397
v 0.571947932 3.66699991 -3.75039855
v 0.568763494 3.66699991 -3.74327961
v 0.548270345 3.66699991 -3.75842181
v 0.547370195 3.66699991 -3.75621501
v 0.524592817 3.66699991 -3.76644507
v 0.525976956 3.66699991 -3.76915064
v 0.500915289 3.66699991 -3.77446857
v 0.504583716 3.66699991 -3.78208604
v 0.590156734 3.66699991 -3.73034397
v 0.582500517 3.66699991 -3.72050014
v 0.611549973 3.66699991 -3.71740833
v 0.600178182 3.66699991 -3.7028226
v 0.632943273 3.66699991 -3.70447293
v 0.617855847 3.66699991 -3.68514505
v 0.654336512 3.66699991 -3.69153729
v 0.635533571 3.66699991 -3.66746727
v 0.675729752 3.66699991 -3.67860189
v 0.653211236 3.66699991 -3.64978948
v 0.590156734 3.66699991 -3.73034397
v 0.582500517 3.66699991 -3.72050014
v 0.568763494 3.66699991 -3.74327961
v 0.564822853 3.66699991 -3.73817793
v 0.547370195 3.66699991 -3.75621501
v 0.547145188 3.66699991 -3.75585571
v 0.525976956 3.66699991 -3.76915064
v 0.529467463 3.66699991 -3.77353325
v 0.504583716 3.66699991 -3.78208604
v 0.511789799 3.66699991 -3.7912108
v 0.582500517 3.66699991 -3.72050014
v 0.572656751 3.66699991 -3.71284404
v 0.600178182 3.66699991 -3.7028226
v 0.58559233 3.66699991 -3.69145074
v 0.617855847 3.66699991 -3.68514505
v 0.598527968 3.66699991 -3.67005745
v 0.635533571 3.66699991 -3.66746727
v 0.611463547 3.66699991 -3.64866415
v 0.653211236 3.66699991 -3.64978948
v 0.624399126 3.66699991 -3.62727109
v 0.582500517 3.66699991 -3.72050014
v 0.572656751 3.66699991 -3.71284404
v 0.564822853 3.66699991 -3.73817793
v 0.559721172 3.66699991 -3.73423734
v 0.547145188 3.66699991 -3.75585571
v 0.546785533 3.66699991 -3.7556304
v 0.529467463 3.66699991 -3.77353325
v 0.533849955 3.66699991 -3.7770237
v 0.511789799 3.66699991 -3.7912108
v 0.520914376 3.66699991 -3.79841676
v 0.572656751 3.66699991 -3.71284404
v 0.560625553 3.66699991 -3.7073752
v 0.58559233 3.66699991 -3.69145074
v 0.568648875 3.66699991 -3.68369761
v 0.598527968 3.66699991 -3.67005745
v 0.576672196 3.66699991 -3.66002002
v 0.611463547 3.66699991 -3.64866415
v 0.584695518 3.66699991 -3.63634267
v 0.624399126 3.66699991 -3.62727109
v 0.59271884 3.66699991 -3.61266509
v 0.572656751 3.66699991 -3.71284404
v 0.560625553 3.66699991 -3.7073752
v 0.559721172 3.66699991 -3.73423734
v 0.552602232 3.66699991 -3.73105279
v 0.546785533 3.66699991 -3.7556304
v 0.54457891 3.66699991 -3.75473037
v 0.533849955 3.66699991 -3.7770237
v 0.536555588 3.66699991 -3.77840772
v 0.520914376 3.66699991 -3.79841676
v 0.528532267 3.66699991 -3.80208531
v 0.560625553 3.66699991 -3.7073752
v 0.546406746 3.66699991 -3.70409408
v 0.568648875 3.66699991 -3.68369761
v 0.550060689 3.66699991 -3.67936245
v 0.576672196 3.66699991 -3.66002002
v 0.553714573 3.66699991 -3.65463081
v 0.584695518 3.66699991 -3.63634267
v 0.557368517 3.66699991 -3.62989941
v 0.59271884 3.66699991 -3.61266509
v 0.56102246 3.66699991 -3.60516778
v 0.560625553 3.66699991 -3.7073752
v 0.546406746 3.66699991 -3.70409408
v 0.552602232 3.66699991 -3.73105279
v 0.542752802 3.66699991 -3.72882548
v 0.54457891 3.66699991 -3.75473037
v 0.539098918 3.66699991 -3.75355712
v 0.536555588 3.66699991 -3.77840772
v 0.535444975 3.66699991 -3.77828851
v 0.528532267 3.66699991 -3.80208531
v 0.531791031 3.66699991 -3.80302015
v 0.546406746 3.66699991 -3.70409408
v 0.530000508 3.66699991 -3.70300022
v 0.550060689 3.66699991 -3.67936245
v 0.530832469 3.66699991 -3.67801395
v 0.553714573 3.66699991 -3.65463081
v 0.531664371 3.66699991 -3.65302792
v 0.557368517 3.66699991 -3.62989941
v 0.532496333 3.66699991 -3.62804189
v 0.56102246 3.66699991 -3.60516778
v 0.533328295 3.66699991 -3.60305563
v 0.546406746 3.66699991 -3.70409408
v 0.530000508 3.66699991 -3.70300022
v 0.542752802 3.66699991 -3.72882548
v 0.529168546 3.66699991 -3.72798648
v 0.539098918 3.66699991 -3.75355712
v 0.528336644 3.66699991 -3.75297251
v 0.535444975 3.66699991 -3.77828851
v 0.527504683 3.66699991 -3.77795854
v 0.531791031 3.66699991 -3.80302015
v 0.526672721 3.66699991 -3.80294481
v 0.530000508 3.66699991 -3.70300022
v -0.529999673 3.66699991 -3.70300022
v 0.530832469 3.66699991 -3.67801395
v -0.530831635 3.66699991 -3.67801419
v 0.531664371 3.66699991 -3.65302792
v -0.531663537 3.66699991 -3.65302816
v 0.532496333 3.66699991 -3.62804189
v -0.532495499 3.66699991 -3.62804189
v 0.533328295 3.66699991 -3.60305563
v -0.53332746 3.66699991 -3.60305563
v 0.530000508 3.66699991 -3.70300022
v -0.529999673 3.66699991 -3.70300022
v 0.529168546 3.66699991 -3.72798648
v -0.529167712 3.66699991 -3.72798648
v 0.528336644 3.66699991 -3.75297251
v -0.52833581 3.66699991 -3.75297275
v 0.527504683 3.66699991 -3.77795854
v -0.527503848 3.66699991 -3.77795878
v 0.526672721 3.66699991 -3.80294481
v -0.526671886 3.66699991 -3.80294481
v -0.529999673 3.66699991 -3.70300022
v -0.546405911 3.66699991 -3.70409408
v -0.530831635 3.66699991 -3.67801419
v -0.550059915 3.66699991 -3.67936245
v -0.531663537 3.66699991 -3.65302816
v -0.553713858 3.66699991 -3.65463105
v -0.532495499 3.66699991 -3.62804189
v -0.557367861 3.66699991 -3.62989941
v -0.53332746 3.66699991 -3.60305563
v -0.561021805 3.66699991 -3.60516801
v -0.529999673 3.66699991 -3.70300022
v -0.546405911 3.66699991 -3.70409408
v -0.529167712 3.66699991 -3.72798648
v -0.542751908 3.66699991 -3.72882572
v -0.52833581 3.66699991 -3.75297275
v -0.539097965 3.66699991 -3.75355712
v -0.527503848 3.66699991 -3.77795878
v -0.535443962 3.66699991 -3.77828875
v -0.526671886 3.66699991 -3.80294481
v -0.531790018 3.66699991 -3.80302015
v -0.546405911 3.66699991 -3.70409408
v -0.560624719 3.66699991 -3.70737544
v -0.550059915 3.66699991 -3.67936245
v -0.56864804 3.66699991 -3.68369785
v -0.553713858 3.66699991 -3.65463105
v -0.576671362 3.66699991 -3.66002026
v -0.557367861 3.66699991 -3.62989941
v -0.584694684 3.66699991 -3.63634267
v -0.561021805 3.66699991 -3.60516801
v -0.592718005 3.66699991 -3.61266533
v -0.546405911 3.66699991 -3.70409408
v -0.560624719 3.66699991 -3.70737544
v -0.542751908 3.66699991 -3.72882572
v -0.552601397 3.66699991 -3.73105302
v -0.539097965 3.66699991 -3.75355712
v -0.544578075 3.66699991 -3.75473037
v -0.535443962 3.66699991 -3.77828875
v -0.536554754 3.66699991 -3.77840796
v -0.531790018 3.66699991 -3.80302015
v -0.528531432 3.66699991 -3.80208555
v -0.560624719 3.66699991 -3.70737544
v -0.572655916 3.66699991 -3.71284404
v -0.56864804 3.66699991 -3.68369785
v -0.585591435 3.66699991 -3.69145074
v -0.576671362 3.66699991 -3.66002026
v -0.598527014 3.66699991 -3.67005745
v -0.584694684 3.66699991 -3.63634267
v -0.611462533 3.66699991 -3.64866439
v -0.592718005 3.66699991 -3.61266533
v -0.624398112 3.66699991 -3.62727109
v -0.560624719 3.66699991 -3.70737544
v -0.572655916 3.66699991 -3.71284404
v -0.552601397 3.66699991 -3.73105302
v -0.559720397 3.66699991 -3.73423734
v -0.544578075 3.66699991 -3.75473037
v -0.546784818 3.66699991 -3.75563064
v -0.536554754 3.66699991 -3.77840796
v -0.533849299 3.66699991 -3.77702394
v -0.528531432 3.66699991 -3.80208555
v -0.52091372 3.66699991 -3.79841724
v -0.572655916 3.66699991 -3.71284404
v -0.582499623 3.66699991 -3.72050038
v -0.585591435 3.66699991 -3.69145074
v -0.600177288 3.66699991 -3.7028226
v -0.598527014 3.66699991 -3.67005745
v -0.617854953 3.66699991 -3.68514505
v -0.611462533 3.66699991 -3.64866439
v -0.635532618 3.66699991 -3.66746727
v -0.624398112 3.66699991 -3.62727109
v -0.653210282 3.66699991 -3.64978948
v -0.572655916 3.66699991 -3.71284404
v -0.582499623 3.66699991 -3.72050038
v -0.559720397 3.66699991 -3.73423734
v -0.564821959 3.66699991 -3.73817793
v -0.546784818 3.66699991 -3.75563064
v -0.547144294 3.66699991 -3.75585571
v -0.533849299 3.66699991 -3.77702394
v -0.529466629 3.66699991 -3.77353349
v -0.52091372 3.66699991 -3.79841724
v -0.511788964 3.66699991 -3.79121104
v -0.582499623 3.66699991 -3.72050038
v -0.5901559 3.66699991 -3.73034397
v -0.600177288 3.66699991 -3.7028226
v -0.611549139 3.66699991 -3.71740857
v -0.617854953 3.66699991 -3.68514505
v -0.632942379 3.66699991 -3.70447293
v -0.635532618 3.66699991 -3.66746727
v -0.654335618 3.66699991 -3.69153729
v -0.653210282 3.66699991 -3.64978948
v -0.675728798 3.66699991 -3.67860165
v -0.582499623 3.66699991 -3.72050038
v -0.5901559 3.66699991 -3.73034397
v -0.564821959 3.66699991 -3.73817793
v -0.56876266 3.66699991 -3.74327961
v -0.547144294 3.66699991 -3.75585571
v -0.547369421 3.66699991 -3.75621524
v -0.529466629 3.66699991 -3.77353349
v -0.525976181 3.66699991 -3.76915088
v -0.511788964 3.66699991 -3.79121104
v -0.504583001 3.66699991 -3.78208652
v -0.5901559 3.66699991 -3.73034397
v -0.595624685 3.66699991 -3.74237528
v -0.611549139 3.66699991 -3.71740857
v -0.619302213 3.66699991 -3.73435202
v -0.632942379 3.66699991 -3.70447293
v -0.642979801 3.66699991 -3.72632852
v -0.654335618 3.66699991 -3.69153729
v -0.666657329 3.66699991 -3.71830526
v -0.675728798 3.66699991 -3.67860165
v -0.690334857 3.66699991 -3.710282
v -0.5901559 3.66699991 -3.73034397
v -0.595624685 3.66699991 -3.74237528
v -0.56876266 3.66699991 -3.74327961
v -0.571947157 3.66699991 -3.75039855
v -0.547369421 3.66699991 -3.75621524
v -0.54826957 3.66699991 -3.75842205
v -0.525976181 3.66699991 -3.76915088
v -0.524592042 3.66699991 -3.76644531
v -0.504583001 3.66699991 -3.78208652
v -0.500914514 3.66699991 -3.77446857
v -0.595624685 3.66699991 -3.74237528
v -0.598905921 3.66699991 -3.75659409
v -0.619302213 3.66699991 -3.73435202
v -0.623637438 3.66699991 -3.75294009
v -0.642979801 3.66699991 -3.72632852
v -0.648369014 3.66699991 -3.74928632
v -0.666657329 3.66699991 -3.71830526
v -0.673100531 3.66699991 -3.74563232
v -0.690334857 3.66699991 -3.710282
v -0.697832048 3.66699991 -3.74197832
v -0.595624685 3.66699991 -3.74237528
v -0.598905921 3.66699991 -3.75659409
v -0.571947157 3.66699991 -3.75039855
v -0.574174404 3.66699991 -3.76024809
v -0.54826957 3.66699991 -3.75842205
v -0.549442828 3.66699991 -3.76390186
v -0.524592042 3.66699991 -3.76644531
v -0.524711311 3.66699991 -3.76755586
v -0.500914514 3.66699991 -3.77446857
v -0.499979794 3.66699991 -3.77120987
v -0.598905921 3.66699991 -3.75659409
v -0.599999666 3.66699991 -3.77300039
v -0.623637438 3.66699991 -3.75294009
v -0.624985814 3.66699991 -3.77216831
v -0.648369014 3.66699991 -3.74928632
v -0.649971962 3.66699991 -3.77133647
v -0.673100531 3.66699991 -3.74563232
v -0.67495811 3.66699991 -3.77050462
v -0.697832048 3.66699991 -3.74197832
v -0.699944258 3.66699991 -3.76967254
v -0.598905921 3.66699991 -3.75659409
v -0.599999666 3.66699991 -3.77300039
v -0.574174404 3.66699991 -3.76024809
v -0.575013518 3.66699991 -3.77383223
v -0.549442828 3.66699991 -3.76390186
v -0.55002737 3.66699991 -3.77466407
v -0.524711311 3.66699991 -3.76755586
v -0.525041223 3.66699991 -3.77549616
v -0.499979794 3.66699991 -3.77120987
v -0.500055075 3.66699991 -3.77632824
v -0.599999666 3.66699991 -3.77300039
v -0.599999547 3.66699991 -4.83300033
v -0.624985814 3.66699991 -3.77216831
v -0.624985695 3.66699991 -4.83383241
v -0.649971962 3.66699991 -3.77133647
v -0.649971843 3.66699991 -4.83466449
v -0.67495811 3.66699991 -3.77050462
v -0.674957991 3.66699991 -4.8354961
v -0.699944258 3.66699991 -3.76967254
v -0.699944139 3.66699991 -4.83632818
v -0.599999666 3.66699991 -3.77300039
v -0.599999547 3.66699991 -4.83300033
v -0.575013518 3.66699991 -3.77383223
v -0.575013399 3.66699991 -4.83216873
v -0.55002737 3.66699991 -3.77466407
v -0.550027251 3.66699991 -4.83133665
v -0.525041223 3.66699991 -3.77549616
v -0.525041103 3.66699991 -4.83050457
v -0.500055075 3.66699991 -3.77632824
v -0.500054955 3.66699991 -4.82967296
v -1.01317751 3.92999999 -2.53326002
v -2.21526003 3.92999907 -1.33117881
v -1.01317763 4 -2.53326002
v -2.21526003 3.99999908 -1.33117881
v -1.01317751 3.92999999 -2.53326002
v -2.21526003 3.92999907 -1.33117881
v -1.01317739 3.85999998 -2.53326002
v -2.21525979 3.85999906 -1.33117881
v -1.01317751 3.92999999 -2.53326002
v -1.01317763 4 -2.53326002
v -0.988428831 3.99062179 -2.55800882
v -0.970311403 3.96500002 -2.57612625
v -0.963680029 3.93000002 -2.58275762
v -0.970311403 3.89500001 -2.57612625
v -0.988428771 3.86937821 -2.55800882
v -1.01317739 3.85999998 -2.53326002
v -2.21526003 3.92999907 -1.33117881
v -2.21526003 3.99999908 -1.33117881
v -2.24000883 3.99062084 -1.30643001
v -2.25812602 3.96499904 -1.28831264
v -2.26475739 3.92999903 -1.28168127
v -2.25812602 3.89499903 -1.28831264
v -2.24000859 3.86937726 -1.30643001
v -2.21525979 3.85999906 -1.33117881
vt 0 0
vt 0 1
vt 1 0
vt 1 1
vt 0 0
vt 0 1
vt 1 0
vt 1 1
vt 0 0.5
vt 1 0.5
vt 1 0.5
vt 1 0.5
vt 1 0.5
vt 1 0.5
vt 1 0.5
vt 1 0.5
vt 0 0.5
vt 1 0.5
vt 1 0.5
vt 1 0.5
vt 1 0.5
vt 1 0.5
vt 1 0.5
vt 1 0.5
vt 0 0
vt 0 1
vt 0.25 0
vt 0.25 1
vt 0.5 0
vt 0.5 1
vt 0.75 0
vt 0.75 1
vt 1 0
vt 1 1
vt 0 0
vt 0 1
vt 0.25 0
vt 0.25 1
vt 0.5 0
vt 0.5 1
vt 0.75 0
vt 0.75 1
vt 1 0
vt 1 1
vt 0 0
vt 0 1
vt 0.25 0
vt 0.25 1
vt 0.5 0
vt 0.5 1
vt 0.75 0
vt 0.75 1
vt 1 0
vt 1 1
vt 0 0
vt 0 1
vt 0.25 0
vt 0.25 1
vt 0.5 0
vt 0.5 1
vt 0.75 0
vt 0.75 1
vt 1 0
vt 1 1
vt 0 0
vt 0 1
vt 0.25 0
vt 0.25 1
vt 0.5 0
vt 0.5 1
vt 0.75 0
vt 0.75 1
vt 1 0
vt 1 1
vt 0 0
vt 0 1
vt 0.25 0
vt 0.25 1
vt 0.5 0
vt 0.5 1
vt 0.75 0
vt 0.75 1
vt 1 0
vt 1 1
vt 0 0
vt 0 1
vt 0.25 0
vt 0.25 1
vt 0.5 0
vt 0.5 1
vt 0.75 0
vt 0.75 1
vt 1 0
vt 1 1
vt 0 0
vt 0 1
vt 0.25 0
vt 0.25 1
vt 0.5 0
vt 0.5 1
vt 0.75 0
vt 0.75 1
vt 1 0
vt 1 1
vt 0 0
vt 0 1
vt 0.25 0
vt 0.25 1
vt 0.5 0
vt 0.5 1
vt 0.75 0
vt 0.75 1
vt 1 0
vt 1 1
vt 0 0
vt 0 1
vt 0.25 0
vt 0.25 1
vt 0.5 0
vt 0.5 1
vt 0.75 0
vt 0.75 1
vt 1 0
vt 1 1
vt 0 0
vt 0 1
vt 0.25 0
vt 0.25 1
vt 0.5 0
vt 0.5 1
vt 0.75 0
vt 0.75 1
vt 1 0
vt 1 1
vt 0 0
vt 0 1
vt 0.25 0
vt 0.25 1
vt 0.5 0
vt 0.5 1
vt 0.75 0
vt 0.75 1
vt 1 0
vt 1 1
vt 0 0
vt 0 1
vt 0.25 0
vt 0.25 1
vt 0.5 0
vt 0.5 1
vt 0.75 0
vt 0.75 1
vt 1 0
vt 1 1
vt 0 0
vt 0 1
vt 0.25 0
vt 0.25 1
vt 0.5 0
vt 0.5 1
vt 0.75 0
vt 0.75 1
vt 1 0
vt 1 1
vt 0 0
vt 0 1
vt 0.25 0
vt 0.25 1
vt 0.5 0
vt 0.5 1
vt 0.75 0
vt 0.75 1
vt 1 0
vt 1 1
vt 0 0
vt 0 1
vt 0.25 0
vt 0.25 1
vt 0.5 0
vt 0.5 1
vt 0.75 0
vt 0.75 1
vt 1 0
vt 1 1
vt 0 0
vt 0 1
vt 0.25 0
vt 0.25 1
vt 0.5 0
vt 0.5 1
vt 0.75 0
vt 0.75 1
vt 1 0
vt 1 1
vt 0 0
vt 0 1
vt 0.25 0
vt 0.25 1
vt 0.5 0
vt 0.5 1
vt 0.75 0
vt 0.75 1
vt 1 0
vt 1 1
vt 0 0
vt 0 1
vt 0.25 0
vt 0.25 1
vt 0.5 0
vt 0.5 1
vt 0.75 0
vt 0.75 1
vt 1 0
vt 1 1
vt 0 0
vt 0 1
vt 0.25 0
vt 0.25 1
vt 0.5 0
vt 0.5 1
vt 0.75 0
vt 0.75 1
vt 1 0
vt 1 1
vt 0 0
vt 0 1
vt 0.25 0
vt 0.25 1
vt 0.5 0
vt 0.5 1
vt 0.75 0
vt 0.75 1
vt 1 0
vt 1 1
vt 0 0
vt 0 1
vt 0.25 0
vt 0.25 1
vt 0.5 0
vt 0.5 1
vt 0.75 0
vt 0.75 1
vt 1 0
vt 1 1
vt 0 0
vt 0 1
vt 0.25 0
vt 0.25 1
vt 0.5 0
vt 0.5 1
vt 0.75 0
vt 0.75 1
vt 1 0
vt 1 1
vt 0 0
vt 0 1
vt 0.25 0
vt 0.25 1
vt 0.5 0
vt 0.5 1
vt 0.75 0
vt 0.75 1
vt 1 0
vt 1 1
vt 0 0
vt 0 1
vt 0.25 0
vt 0.25 1
vt 0.5 0
vt 0.5 1
vt 0.75 0
vt 0.75 1
vt 1 0
vt 1 1
vt 0 0
vt 0 1
vt 0.25 0
vt 0.25 1
vt 0.5 0
vt 0.5 1
vt 0.75 0
vt 0.75 1
vt 1 0
vt 1 1
vt 0 0
vt 0 1
vt 0.25 0
vt 0.25 1
vt 0.5 0
vt 0.5 1
vt 0.75 0
vt 0.75 1
vt 1 0
vt 1 1
vt 0 0
vt 0 1
vt 0.25 0
vt 0.25 1
vt 0.5 0
vt 0.5 1
vt 0.75 0
vt 0.75 1
vt 1 0
vt 1 1
vt 0 0
vt 0 1
vt 0.25 0
vt 0.25 1
vt 0.5 0
vt 0.5 1
vt 0.75 0
vt 0.75 1
vt 1 0
vt 1 1
vt 0 0
vt 0 1
vt 0.25 0
vt 0.25 1
vt 0.5 0
vt 0.5 1
vt 0.75 0
vt 0.75 1
vt 1 0
vt 1 1
vt 0 0
vt 0 1
vt 0.25 0
vt 0.25 1
vt 0.5 0
vt 0.5 1
vt 0.75 0
vt 0.75 1
vt 1 0
vt 1 1
vt 0 0
vt 0 1
vt 0.25 0
vt 0.25 1
vt 0.5 0
vt 0.5 1
vt 0.75 0
vt 0.75 1
vt 1 0
vt 1 1
vt 0 0
vt 0 1
vt 0.25 0
vt 0.25 1
vt 0.5 0
vt 0.5 1
vt 0.75 0
vt 0.75 1
vt 1 0
vt 1 1
vt 0 0
vt 0 1
vt 0.25 0
vt 0.25 1
vt 0.5 0
vt 0.5 1
vt 0.75 0
vt 0.75 1
vt 1 0
vt 1 1
vt 0 0
vt 0 1
vt 0.25 0
vt 0.25 1
vt 0.5 0
vt 0.5 1
vt 0.75 0
vt 0.75 1
vt 1 0
vt 1 1
vt 0 0
vt 0 1
vt 0.25 0
vt 0.25 1
vt 0.5 0
vt 0.5 1
vt 0.75 0
vt 0.75 1
vt 1 0
vt 1 1
vt 0 0
vt 0 1
vt 0.25 0
vt 0.25 1
vt 0.5 0
vt 0.5 1
vt 0.75 0
vt 0.75 1
vt 1 0
vt 1 1
vt 0 0
vt 0 1
vt 0.25 0
vt 0.25 1
vt 0.5 0
vt 0.5 1
vt 0.75 0
vt 0.75 1
vt 1 0
vt 1 1
vt 0 0
vt 0 1
vt 0.25 0
vt 0.25 1
vt 0.5 0
vt 0.5 1
vt 0.75 0
vt 0.75 1
vt 1 0
vt 1 1
vt 0 0
vt 0 1
vt 0.25 0
vt 0.25 1
vt 0.5 0
vt 0.5 1
vt 0.75 0
vt 0.75 1
vt 1 0
vt 1 1
vt 0 0
vt 0 1
vt 0.25 0
vt 0.25 1
vt 0.5 0
vt 0.5 1
vt 0.75 0
vt 0.75 1
vt 1 0
vt 1 1
vt 0 0
vt 0 1
vt 0.25 0
vt 0.25 1
vt 0.5 0
vt 0.5 1
vt 0.75 0
vt 0.75 1
vt 1 0
vt 1 1
vt 0 0
vt 0 1
vt 0.25 0
vt 0.25 1
vt 0.5 0
vt 0.5 1
vt 0.75 0
vt 0.75 1
vt 1 0
vt 1 1
vt 0 0
vt 0 1
vt 0.25 0
vt 0.25 1
vt 0.5 0
vt 0.5 1
vt 0.75 0
vt 0.75 1
vt 1 0
vt 1 1
vt 0 0
vt 0 1
vt 0.25 0
vt 0.25 1
vt 0.5 0
vt 0.5 1
vt 0.75 0
vt 0.75 1
vt 1 0
vt 1 1
vt 0 0
vt 0 1
vt 0.25 0
vt 0.25 1
vt 0.5 0
vt 0.5 1
vt 0.75 0
vt 0.75 1
vt 1 0
vt 1 1
vt 0 0
vt 0 1
vt 0.25 0
vt 0.25 1
vt 0.5 0
vt 0.5 1
vt 0.75 0
vt 0.75 1
vt 1 0
vt 1 1
vt 0 0
vt 0 1
vt 0.25 0
vt 0.25 1
vt 0.5 0
vt 0.5 1
vt 0.75 0
vt 0.75 1
vt 1 0
vt 1 1
vt 0 0
vt 0 1
vt 0.25 0
vt 0.25 1
vt 0.5 0
vt 0.5 1
vt 0.75 0
vt 0.75 1
vt 1 0
vt 1 1
vt 0 0
vt 0 1
vt 0.25 0
vt 0.25 1
vt 0.5 0
vt 0.5 1
vt 0.75 0
vt 0.75 1
vt 1 0
vt 1 1
vt 0 0
vt 0 1
vt 0.25 0
vt 0.25 1
vt 0.5 0
vt 0.5 1
vt 0.75 0
vt 0.75 1
vt 1 0
vt 1 1
vt 0 0
vt 0 1
vt 0.25 0
vt 0.25 1
vt 0.5 0
vt 0.5 1
vt 0.75 0
vt 0.75 1
vt 1 0
vt 1 1
vt 0 0
vt 0 1
vt 0.25 0
vt 0.25 1
vt 0.5 0
vt 0.5 1
vt 0.75 0
vt 0.75 1
vt 1 0
vt 1 1
vt 0 0
vt 0 1
vt 0.25 0
vt 0.25 1
vt 0.5 0
vt 0.5 1
vt 0.75 0
vt 0.75 1
vt 1 0
vt 1 1
vt 0 0
vt 0 1
vt 0.25 0
vt 0.25 1
vt 0.5 0
vt 0.5 1
vt 0.75 0
vt 0.75 1
vt 1 0
vt 1 1
vt 0 0
vt 0 1
vt 0.25 0
vt 0.25 1
vt 0.5 0
vt 0.5 1
vt 0.75 0
vt 0.75 1
vt 1 0
vt 1 1
vt 0 0
vt 0 1
vt 0.25 0
vt 0.25 1
vt 0.5 0
vt 0.5 1
vt 0.75 0
vt 0.75 1
vt 1 0
vt 1 1
vt 0 0
vt 0 1
vt 0.25 0
vt 0.25 1
vt 0.5 0
vt 0.5 1
vt 0.75 0
vt 0.75 1
vt 1 0
vt 1 1
vt 0 0
vt 0 1
vt 0.25 0
vt 0.25 1
vt 0.5 0
vt 0.5 1
vt 0.75 0
vt 0.75 1
vt 1 0
vt 1 1
vt 0 0
vt 0 1
vt 0.25 0
vt 0.25 1
vt 0.5 0
vt 0.5 1
vt 0.75 0
vt 0.75 1
vt 1 0
vt 1 1
vt 0 0
vt 0 1
vt 0.25 0
vt 0.25 1
vt 0.5 0
vt 0.5 1
vt 0.75 0
vt 0.75 1
vt 1 0
vt 1 1
vt 0 0
vt 0 1
vt 0.25 0
vt 0.25 1
vt 0.5 0
vt 0.5 1
vt 0.75 0
vt 0.75 1
vt 1 0
vt 1 1
vt 0 0
vt 0 1
vt 0.25 0
vt 0.25 1
vt 0.5 0
vt 0.5 1
vt 0.75 0
vt 0.75 1
vt 1 0
vt 1 1
vt 0 0
vt 0 1
vt 0.25 0
vt 0.25 1
vt 0.5 0
vt 0.5 1
vt 0.75 0
vt 0.75 1
vt 1 0
vt 1 1
vt 0 0
vt 0 1
vt 0.25 0
vt 0.25 1
vt 0.5 0
vt 0.5 1
vt 0.75 0
vt 0.75 1
vt 1 0
vt 1 1
vt 0 0
vt 0 1
vt 0.25 0
vt 0.25 1
vt 0.5 0
vt 0.5 1
vt 0.75 0
vt 0.75 1
vt 1 0
vt 1 1
vt 0 0
vt 0 1
vt 0.25 0
vt 0.25 1
vt 0.5 0
vt 0.5 1
vt 0.75 0
vt 0.75 1
vt 1 0
vt 1 1
vt 0 0
vt 0 1
vt 0.25 0
vt 0.25 1
vt 0.5 0
vt 0.5 1
vt 0.75 0
vt 0.75 1
vt 1 0
vt 1 1
vt 0 0
vt 0 1
vt 0.25 0
vt 0.25 1
vt 0.5 0
vt 0.5 1
vt 0.75 0
vt 0.75 1
vt 1 0
vt 1 1
vt 0 0
vt 0 1
vt 0.25 0
vt 0.25 1
vt 0.5 0
vt 0.5 1
vt 0.75 0
vt 0.75 1
vt 1 0
vt 1 1
vt 0 0
vt 0 1
vt 0.25 0
vt 0.25 1
vt 0.5 0
vt 0.5 1
vt 0.75 0
vt 0.75 1
vt 1 0
vt 1 1
vt 0 0
vt 0 1
vt 0.25 0
vt 0.25 1
vt 0.5 0
vt 0.5 1
vt 0.75 0
vt 0.75 1
vt 1 0
vt 1 1
vt 0 0
vt 0 1
vt 1 0
vt 1 1
vt 0 0
vt 0 1
vt 1 0
vt 1 1
vt 0 0.5
vt 1 0.5
vt 1 0.5
vt 1 0.5
vt 1 0.5
vt 1 0.5
vt 1 0.5
vt 1 0.5
vt 0 0.5
vt 1 0.5
vt 1 0.5
vt 1 0.5
vt 1 0.5
vt 1 0.5
vt 1 0.5
vt 1 0.5
f 2/2 3/3 1/1
f 4/4 3/3 2/2
f 7/7 6/6 5/5
f 7/7 8/8 6/6
f 11/11 10/10 9/9
f 10/10 11/11 9/9
f 12/12 11/11 9/9
f 11/11 12/12 9/9
f 13/13 12/12 9/9
f 12/12 13/13 9/9
f 14/14 13/13 9/9
f 13/13 14/14 9/9
f 15/15 14/14 9/9
f 14/14 15/15 9/9
f 16/16 15/15 9/9
f 15/15 16/16 9/9
f 19/19 18/18 17/17
f 18/18 19/19 17/17
f 20/20 19/19 17/17
f 19/19 20/20 17/17
f 21/21 20/20 17/17
f 20/20 21/21 17/17
f 22/22 21/21 17/17
f 21/21 22/22 17/17
f 23/23 22/22 17/17
f 22/22 23/23 17/17
f 24/24 23/23 17/17
f 23/23 24/24 17/17
f 26/26 27/27 25/25
f 28/28 27/27 26/26
f 28/28 29/29 27/27
f 30/30 29/29 28/28
f 30/30 31/31 29/29
f 32/32 31/31 30/30
f 32/32 33/33 31/31
f 34/34 33/33 32/32
f 37/37 36/36 35/35
f 37/37 38/38 36/36
f 39/39 38/38 37/37
f 39/39 40/40 38/38
f 41/41 40/40 39/39
f 41/41 42/42 40/40
f 43/43 42/42 41/41
f 43/43 44/44 42/42
f 46/46 47/47 45/45
f 48/48 47/47 46/46
f 48/48 49/49 47/47
f 50/50 49/49 48/48
f 50/50 51/51 49/49
f 52/52 51/51 50/50
f 52/52 53/53 51/51
f 54/54 53/53 52/52
f 57/57 56/56 55/55
f 57/57 58/58 56/56
f 59/59 58/58 57/57
f 59/59 60/60 58/58
f 61/61 60/60 59/59
f 61/61 62/62 60/60
f 63/63 62/62 61/61
f 63/63 64/64 62/62
f 66/66 67/67 65/65
f 68/68 67/67 66/66
f 68/68 69/69 67/67
f 70/70 69/69 68/68
f 70/70 71/71 69/69
f 72/72 71/71 70/70
f 72/72 73/73 71/71
f 74/74 73/73 72/72
f 77/77 76/76 75/75
f 77/77 78/78 76/76
f 79/79 78/78 77/77
f 79/79 80/80 78/78
f 81/81 80/80 79/79
f 81/81 82/82 80/80
f 83/83 82/82 81/81
f 83/83 84/84 82/82
f 86/86 87/87 85/85
f 88/88 87/87 86/86
f 88/88 89/89 87/87
f 90/90 89/89 88/88
f 90/90 91/91 89/89
f 92/92 91/91 90/90
f 92/92 93/93 91/91
f 94/94 93/93 92/92
f 97/97 96/96 95/95
f 97/97 98/98 96/96
f 99/99 98/98 97/97
f 99/99 100/100 98/98
f 101/101 100/100 99/99
f 101/101 102/102 100/100
f 103/103 102/102 101/101
f 103/103 104/104 102/102
f 106/106 107/107 105/105
f 108/108 107/107 106/106
f 108/108 109/109 107/107
f 110/110 109/109 108/108
f 110/110 111/111 109/109
f 112/112 111/111 110/110
f 112/112 113/113 111/111
f 114/114 113/113 112/112
f 117/117 116/116 115/115
f 117/117 118/118 116/116
f 119/119 118/118 117/117
f 119/119 120/120 118/118
f 121/121 120/120 119/119
f 121/121 122/122 120/120
f 123/123 122/122 121/121
f 123/123 124/124 122/122
f 126/126 127/127 125/125
f 128/128 127/127 126/126
f 128/128 129/129 127/127
f 130/130 129/129 128/128
f 130/130 131/131 129/129
f 132/132 131/131 130/130
f 132/132 133/133 131/131
f 134/134 133/133 132/132
f 137/137 136/136 135/135
f 137/137 138/138 136/136
f 139/139 138/138 137/137
f 139/139 140/140 138/138
f 141/141 140/140 139/139
f 141/141 142/142 140/140
f 143/143 142/142 141/141
f 143/143 144/144 142/142
f 146/146 147/147 145/145
f 148/148 147/147 146/146
f 148/148 149/149 147/147
f 150/150 149/149 148/148
f 150/150 151/151 149/149
f 152/152 151/151 150/150
f 152/152 153/153 151/151
f 154/154 153/153 152/152
f 157/157 156/156 155/155
f 157/157 158/158 156/156
f 159/159 158/158 157/157
f 159/159 160/160 158/158
f 161/161 160/160 159/159
f 161/161 162/162 160/160
f 163/163 162/162 161/161
f 163/163 164/164 162/162
f 166/166 167/167 165/165
f 168/168 167/167 166/166
f 168/168 169/169 167/167
f 170/170 169/169 168/168
f 170/170 171/171 169/169
f 172/172 171/171 170/170
f 172/172 173/173 171/171
f 174/174 173/173 172/172
f 177/177 176/176 175/175
f 177/177 178/178 176/176
f 179/179 178/178 177/177
f 179/179 180/180 178/178
f 181/181 180/180 179/179
f 181/181 182/182 180/180
f 183/183 182/182 181/181
f 183/183 184/184 182/182
f 186/186 187/187 185/185
f 188/188 187/187 186/186
f 188/188 189/189 187/187
f 190/190 189/189 188/188
f 190/190 191/191 189/189
f 192/192 191/191 190/190
f 192/192 193/193 191/191
f 194/194 193/193 192/192
f 197/197 196/196 195/195
f 197/197 198/198 196/196
f 199/199 198/198 197/197
f 199/199 200/200 198/198
f 201/201 200/200 199/199
f 201/201 202/202 200/200
f 203/203 202/202 201/201
f 203/203 204/204 202/202
f 206/206 207/207 205/205
f 208/208 207/207 206/206
f 208/208 209/209 207/207
f 210/210 209/209 208/208
f 210/210 211/211 209/209
f 212/212 211/211 210/210
f 212/212 213/213 211/211
f 214/214 213/213 212/212
f 217/217 216/216 215/215
f 217/217 218/218 216/216
f 219/219 218/218 217/217
f 219/219 220/220 218/218
f 221/221 220/220 219/219
f 221/221 222/222 220/220
f 223/223 222/222 221/221
f 223/223 224/224 222/222
f 226/226 227/227 225/225
f 228/228 227/227 226/226
f 228/228 229/229 227/227
f 230/230 229/229 228/228
f 230/230 231/231 229/229
f 232/232 231/231 230/230
f 232/232 233/233 231/231
f 234/234 233/233 232/232
f 237/237 236/236 235/235
f 237/237 238/238 236/236
f 239/239 238/238 237/237
f 239/239 240/240 238/238
f 241/241 240/240 239/239
f 241/241 242/242 240/240
f 243/243 242/242 241/241
f 243/243 244/244 242/242
f 246/246 247/247 245/245
f 248/248 247/247 246/246
f 248/248 249/249 247/247
f 250/250 249/249 248/248
f 250/250 251/251 249/249
f 252/252 251/251 250/250
f 252/252 253/253 251/251
f 254/254 253/253 252/252
f 257/257 256/256 255/255
f 257/257 258/258 256/256
f 259/259 258/258 257/257
f 259/259 260/260 258/258
f 261/261 260/260 259/259
f 261/261 262/262 260/260
f 263/263 262/262 261/261
f 263/263 264/264 262/262
f 266/266 267/267 265/265
f 268/268 267/267 266/266
f 268/268 269/269 267/267
f 270/270 269/269 268/268
f 270/270 271/271 269/269
f 272/272 271/271 270/270
f 272/272 273/273 271/271
f 274/274 273/273 272/272
f 277/277 276/276 275/275
f 277/277 278/278 276/276
f 279/279 278/278 277/277
f 279/279 280/280 278/278
f 281/281 280/280 279/279
f 281/281 282/282 280/280
f 283/283 282/282 281/281
f 283/283 284/284 282/282
f 286/286 287/287 285/285
f 288/288 287/287 286/286
f 288/288 289/289 287/287
f 290/290 289/289 288/288
f 290/290 291/291 289/289
f 292/292 291/291 290/290
f 292/292 293/293 291/291
f 294/294 293/293 292/292
f 297/297 296/296 295/295
f 297/297 298/298 296/296
f 299/299 298/298 297/297
f 299/299 300/300 298/298
f 301/301 300/300 299/299
f 301/301 302/302 300/300
f 303/303 302/302 301/301
f 303/303 304/304 302/302
f 306/306 307/307 305/305
f 308/308 307/307 306/306
f 308/308 309/309 307/307
f 310/310 309/309 308/308
f 310/310 311/311 309/309
f 312/312 311/311 310/310
f 312/312 313/313 311/311
f 314/314 313/313 312/312
f 317/317 316/316 315/315
f 317/317 318/318 316/316
f 319/319 318/318 317/317
f 319/319 320/320 318/318
f 321/321 320/320 319/319
f 321/321 322/322 320/320
f 323/323 322/322 321/321
f 323/323 324/324 322/322
f 326/326 327/327 325/325
f 328/328 327/327 326/326
f 328/328 329/329 327/327
f 330/330 329/329 328/328
f 330/330 331/331 329/329
f 332/332 331/331 330/330
f 332/332 333/333 331/331
f 334/334 333/333 332/332
f 337/337 336/336 335/335
f 337/337 338/338 336/336
f 339/339 338/338 337/337
f 339/339 340/340 338/338
f 341/341 340/340 339/339
f 341/341 342/342 340/340
f 343/343 342/342 341/341
f 343/343 344/344 342/342
f 346/346 347/347 345/345
f 348/348 347/347 346/346
f 348/348 349/349 347/347
f 350/350 349/349 348/348
f 350/350 351/351 349/349
f 352/352 351/351 350/350
f 352/352 353/353 351/351
f 354/354 353/353 352/352
f 357/357 356/356 355/355
f 357/357 358/358 356/356
f 359/359 358/358 357/357
f 359/359 360/360 358/358
f 361/361 360/360 359/359
f 361/361 362/362 360/360
f 363/363 362/362 361/361
f 363/363 364/364 362/362
f 366/366 367/367 365/365
f 368/368 367/367 366/366
f 368/368 369/369 367/367
f 370/370 369/369 368/368
f 370/370 371/371 369/369
f 372/372 371/371 370/370
f 372/372 373/373 371/371
f 374/374 373/373 372/372
f 377/377 376/376 375/375
f 377/377 378/378 376/376
f 379/379 378/378 377/377
f 379/379 380/380 378/378
f 381/381 380/380 379/379
f 381/381 382/382 380/380
f 383/383 382/382 381/381
f 383/383 384/384 382/382
f 386/386 387/387 385/385
f 388/388 387/387 386/386
f 388/388 389/389 387/387
f 390/390 389/389 388/388
f 390/390 391/391 389/389
f 392/392 391/391 390/390
f 392/392 393/393 391/391
f 394/394 393/393 392/392
f 397/397 396/396 395/395
f 397/397 398/398 396/396
f 399/399 398/398 397/397
f 399/399 400/400 398/398
f 401/401 400/400 399/399
f 401/401 402/402 400/400
f 403/403 402/402 401/401
f 403/403 404/404 402/402
f 406/406 407/407 405/405
f 408/408 407/407 406/406
f 408/408 409/409 407/407
f 410/410 409/409 408/408
f 410/410 411/411 409/409
f 412/412 411/411 410/410
f 412/412 413/413 411/411
f 414/414 413/413 412/412
f 417/417 416/416 415/415
f 417/417 418/418 416/416
f 419/419 418/418 417/417
f 419/419 420/420 418/418
f 421/421 420/420 419/419
f 421/421 422/422 420/420
f 423/423 422/422 421/421
f 423/423 424/424 422/422
f 426/426 427/427 425/425
f 428/428 427/427 426/426
f 428/428 429/429 427/427
f 430/430 429/429 428/428
f 430/430 431/431 429/429
f 432/432 431/431 430/430
f 432/432 433/433 431/431
f 434/434 433/433 432/432
f 437/437 436/436 435/435
f 437/437 438/438 436/436
f 439/439 438/438 437/437
f 439/439 440/440 438/438
f 441/441 440/440 439/439
f 441/441 442/442 440/440
f 443/443 442/442 441/441
f 443/443 444/444 442/442
f 446/446 447/447 445/445
f 448/448 447/447 446/446
f 448/448 449/449 447/447
f 450/450 449/449 448/448
f 450/450 451/451 449/449
f 452/452 451/451 450/450
f 452/452 453/453 451/451
f 454/454 453/453 452/452
f 457/457 456/456 455/455
f 457/457 458/458 456/456
f 459/459 458/458 457/457
f 459/459 460/460 458/458
f 461/461 460/460 459/459
f 461/461 462/462 460/460
f 463/463 462/462 461/461
f 463/463 464/464 462/462
f 466/466 467/467 465/465
f 468/468 467/467 466/466
f 468/468 469/469 467/467
f 470/470 469/469 468/468
f 470/470 471/471 469/469
f 472/472 471/471 470/470
f 472/472 473/473 471/471
f 474/474 473/473 472/472
f 477/477 476/476 475/475
f 477/477 478/478 476/476
f 479/479 478/478 477/477
f 479/479 480/480 478/478
f 481/481 480/480 479/479
f 481/481 482/482 480/480
f 483/483 482/482 481/481
f 483/483 484/484 482/482
f 486/486 487/487 485/485
f 488/488 487/487 486/486
f 488/488 489/489 487/487
f 490/490 489/489 488/488
f 490/490 491/491 489/489
f 492/492 491/491 490/490
f 492/492 493/493 491/491
f 494/494 493/493 492/492
f 497/497 496/496 495/495
f 497/497 498/498 496/496
f 499/499 498/498 497/497
f 499/499 500/500 498/498
f 501/501 500/500 499/499
f 501/501 502/502 500/500
f 503/503 502/502 501/501
f 503/503 504/504 502/502
f 506/506 507/507 505/505
f 508/508 507/507 506/506
f 508/508 509/509 507/507
f 510/510 509/509 508/508
f 510/510 511/511 509/509
f 512/512 511/511 510/510
f 512/512 513/513 511/511
f 514/514 513/513 512/512
f 517/517 516/516 515/515
f 517/517 518/518 516/516
f 519/519 518/518 517/517
f 519/519 520/520 518/518
f 521/521 520/520 519/519
f 521/521 522/522 520/520
f 523/523 522/522 521/521
f 523/523 524/524 522/522
f 526/526 527/527 525/525
f 528/528 527/527 526/526
f 528/528 529/529 527/527
f 530/530 529/529 528/528
f 530/530 531/531 529/529
f 532/532 531/531 530/530
f 532/532 533/533 531/531
f 534/534 533/533 532/532
f 537/537 536/536 535/535
f 537/537 538/538 536/536
f 539/539 538/538 537/537
f 539/539 540/540 538/538
f 541/541 540/540 539/539
f 541/541 542/542 540/540
f 543/543 542/542 541/541
f 543/543 544/544 542/542
f 546/546 547/547 545/545
f 548/548 547/547 546/546
f 548/548 549/549 547/547
f 550/550 549/549 548/548
f 550/550 551/551 549/549
f 552/552 551/551 550/550
f 552/552 553/553 551/551
f 554/554 553/553 552/552
f 557/557 556/556 555/555
f 557/557 558/558 556/556
f 559/559 558/558 557/557
f 559/559 560/560 558/558
f 561/561 560/560 559/559
f 561/561 562/562 560/560
f 563/563 562/562 561/561
f 563/563 564/564 562/562
f 566/566 567/567 565/565
f 568/568 567/567 566/566
f 568/568 569/569 567/567
f 570/570 569/569 568/568
f 570/570 571/571 569/569
f 572/572 571/571 570/570
f 572/572 573/573 571/571
f 574/574 573/573 572/572
f 577/577 576/576 575/575
f 577/577 578/578 576/576
f 579/579 578/578 577/577
f 579/579 580/580 578/578
f 581/581 580/580 579/579
f 581/581 582/582 580/580
f 583/583 582/582 581/581
f 583/583 584/584 582/582
f 586/586 587/587 585/585
f 588/588 587/587 586/586
f 588/588 589/589 587/587
f 590/590 589/589 588/588
f 590/590 591/591 589/589
f 592/592 591/591 590/590
f 592/592 593/593 591/591
f 594/594 593/593 592/592
f 597/597 596/596 595/595
f 597/597 598/598 596/596
f 599/599 598/598 597/597
f 599/599 600/600 598/598
f 601/601 600/600 599/599
f 601/601 602/602 600/600
f 603/603 602/602 601/601
f 603/603 604/604 602/602
f 606/606 607/607 605/605
f 608/608 607/607 606/606
f 608/608 609/609 607/607
f 610/610 609/609 608/608
f 610/610 611/611 609/609
f 612/612 611/611 610/610
f 612/612 613/613 611/611
f 614/614 613/613 612/612
f 617/617 616/616 615/615
f 617/617 618/618 616/616
f 619/619 618/618 617/617
f 619/619 620/620 618/618
f 621/621 620/620 619/619
f 621/621 622/622 620/620
f 623/623 622/622 621/621
f 623/623 624/624 622/622
f 626/626 627/627 625/625
f 628/628 627/627 626/626
f 628/628 629/629 627/627
f 630/630 629/629 628/628
f 630/630 631/631 629/629
f 632/632 631/631 630/630
f 632/632 633/633 631/631
f 634/634 633/633 632/632
f 637/637 636/636 635/635
f 637/637 638/638 636/636
f 639/639 638/638 637/637
f 639/639 640/640 638/638
f 641/641 640/640 639/639
f 641/641 642/642 640/640
f 643/643 642/642 641/641
f 643/643 644/644 642/642
f 646/646 647/647 645/645
f 648/648 647/647 646/646
f 648/648 649/649 647/647
f 650/650 649/649 648/648
f 650/650 651/651 649/649
f 652/652 651/651 650/650
f 652/652 653/653 651/651
f 654/654 653/653 652/652
f 657/657 656/656 655/655
f 657/657 658/658 656/656
f 659/659 658/658 657/657
f 659/659 660/660 658/658
f 661/661 660/660 659/659
f 661/661 662/662 660/660
f 663/663 662/662 661/661
f 663/663 664/664 662/662
f 666/666 667/667 665/665
f 668/668 667/667 666/666
f 668/668 669/669 667/667
f 670/670 669/669 668/668
f 670/670 671/671 669/669
f 672/672 671/671 670/670
f 672/672 673/673 671/671
f 674/674 673/673 672/672
f 677/677 676/676 675/675
f 677/677 678/678 676/676
f 679/679 678/678 677/677
f 679/679 680/680 678/678
f 681/681 680/680 679/679
f 681/681 682/682 680/680
f 683/683 682/682 681/681
f 683/683 684/684 682/682
f 686/686 687/687 685/685
f 688/688 687/687 686/686
f 688/688 689/689 687/687
f 690/690 689/689 688/688
f 690/690 691/691 689/689
f 692/692 691/691 690/690
f 692/692 693/693 691/691
f 694/694 693/693 692/692
f 697/697 696/696 695/695
f 697/697 698/698 696/696
f 699/699 698/698 697/697
f 699/699 700/700 698/698
f 701/701 700/700 699/699
f 701/701 702/702 700/700
f 703/703 702/702 701/701
f 703/703 704/704 702/702
f 706/706 707/707 705/705
f 708/708 707/707 706/706
f 708/708 709/709 707/707
f 710/710 709/709 708/708
f 710/710 711/711 709/709
f 712/712 711/711 710/710
f 712/712 713/713 711/711
f 714/714 713/713 712/712
f 717/717 716/716 715/715
f 717/717 718/718 716/716
f 719/719 718/718 717/717
f 719/719 720/720 718/718
f 721/721 720/720 719/719
f 721/721 722/722 720/720
f 723/723 722/722 721/721
f 723/723 724/724 722/722
f 726/726 727/727 725/725
f 728/728 727/727 726/726
f 728/728 729/729 727/727
f 730/730 729/729 728/728
f 730/730 731/731 729/729
f 732/732 731/731 730/730
f 732/732 733/733 731/731
f 734/734 733/733 732/732
f 737/737 736/736 735/735
f 737/737 738/738 736/736
f 739/739 738/738 737/737
f 739/739 740/740 738/738
f 741/741 740/740 739/739
f 741/741 742/742 740/740
f 743/743 742/742 741/741
f 743/743 744/744 742/742
f 746/746 747/747 745/745
f 748/748 747/747 746/746
f 751/751 750/750 749/749
f 751/751 752/752 750/750
f 755/755 754/754 753/753
f 754/754 755/755 753/753
f 756/756 755/755 753/753
f 755/755 756/756 753/753
f 757/757 756/756 753/753
f 756/756 757/757 753/753
f 758/758 757/757 753/753
f 757/757 758/758 753/753
f 759/759 758/758 753/753
f 758/758 759/759 753/753
f 760/760 759/759 753/753
f 759/759 760/760 753/753
f 763/763 762/762 761/761
f 762/762 763/763 761/761
f 764/764 763/763 761/761
f 763/763 764/764 761/761
f 765/765 764/764 761/761
f 764/764 765/765 761/761
f 766/766 765/765 761/761
f 765/765 766/766 761/761
f 767/767 766/766 761/761
f 766/766 767/767 761/761
f 768/768 767/767 761/761
f 767/767 768/768 761/761
