v 2.12027504 0.878206257 0.0300029036
v 2.2822511 0.945332164 0.030003123
v 2.25756423 0.935072912 0.0126837493
v 2.12027506 0.878206272 0.0126835633
v 0.945377614 2.28224672 0.0300029462
v 0.878274515 2.12024701 0.0300027393
v 0.878274532 2.12024703 0.0126829334
v 0.935141884 2.2575359 0.0126831088
v 0.945378581 2.28224756 -0.939997082
v 0.935142833 2.25753673 -0.939997114
v 2.25756518 0.935073736 -0.939996939
v 2.28225224 0.945333181 -0.939996906
v 0.878274532 2.12024703 0.0126829334
v 2.12027506 0.878206272 0.0126835633
v 2.25756423 0.935072912 0.0126837493
v 0.935141884 2.2575359 0.0126831088
v 0.878274532 2.12024703 0.0126829334
v 0.878274515 2.12024701 0.0300027393
v 2.12027504 0.878206257 0.0300029036
v 2.12027506 0.878206272 0.0126835633
v 0.878274515 2.12024701 0.0300027393
v 0.945377614 2.28224672 0.0300029462
v 2.2822511 0.945332164 0.030003123
v 2.12027504 0.878206257 0.0300029036
v 2.17011676 1.05748018 -0.893320843
v 2.11354784 1.00091156 -0.893422099
v 1.000055 2.11441018 -0.893422246
v 1.05662392 2.1709788 -0.89332099
v 2.16678019 1.0258595 -0.913341984
v 2.11012309 0.969202685 -0.913637222
v 2.1101223 0.969202005 -0.126980761
v 2.16677923 1.02585864 -0.126685426
v 0.945378581 2.28224756 -0.939997082
v 0.945377614 2.28224672 0.0300029462
v 0.935141884 2.2575359 0.0126831088
v 0.935142833 2.25753673 -0.939997114
v 2.28225224 0.945333181 -0.939996906
v 2.25756518 0.935073736 -0.939996939
v 2.25756423 0.935072912 0.0126837493
v 2.2822511 0.945332164 0.030003123
v 2.1101223 0.969202005 -0.126980761
v 2.11012309 0.969202685 -0.913637222
v 0.96834602 2.11098567 -0.913637374
v 0.968345236 2.11098499 -0.126980912
v 1.02502002 2.16765938 -0.913342135
v 0.96834602 2.11098567 -0.913637374
v 2.11012309 0.969202685 -0.913637222
v 2.16678019 1.0258595 -0.913341984
v 2.16677923 1.02585864 -0.126685426
v 2.1101223 0.969202005 -0.126980761
v 0.968345236 2.11098499 -0.126980912
v 1.02501906 2.16765852 -0.126685577
v 1.02501906 2.16765852 -0.126685577
v 0.968345236 2.11098499 -0.126980912
v 0.96834602 2.11098567 -0.913637374
v 1.02502002 2.16765938 -0.913342135
v 2.11354728 1.00091109 -0.146749542
v 1.00005443 2.11440971 -0.146749689
v 1.000055 2.11441018 -0.893422246
v 2.11354784 1.00091156 -0.893422099
v 1.05662392 2.1709788 -0.89332099
v 1.000055 2.11441018 -0.893422246
v 1.00005443 2.11440971 -0.146749689
v 1.05662317 2.17097816 -0.146648442
v 2.17011602 1.05747954 -0.146648295
v 2.11354728 1.00091109 -0.146749542
v 2.11354784 1.00091156 -0.893422099
v 2.17011676 1.05748018 -0.893320843
v 1.05662317 2.17097816 -0.146648442
v 1.00005443 2.11440971 -0.146749689
v 2.11354728 1.00091109 -0.146749542
v 2.17011602 1.05747954 -0.146648295
v 2.25756423 0.935072912 0.0126837493
v 1.02501906 2.16765852 -0.126685577
v 0.935141884 2.2575359 0.0126831088
v 0.935142833 2.25753673 -0.939997114
v 2.16677923 1.02585864 -0.126685426
v 1.02502002 2.16765938 -0.913342135
v 2.16678019 1.0258595 -0.913341984
v 2.25756518 0.935073736 -0.939996939
v 0.945378581 2.28224756 -0.939997082
v 1.05662317 2.17097816 -0.146648442
v 0.945377614 2.28224672 0.0300029462
v 2.2822511 0.945332164 0.030003123
v 1.05662392 2.1709788 -0.89332099
v 2.17011602 1.05747954 -0.146648295
v 2.17011676 1.05748018 -0.893320843
v 2.28225224 0.945333181 -0.939996906
v 2.17011602 1.05747954 -0.146749437
v 1.05662317 2.17097816 -0.146749584
v 1.05662392 2.1709788 -0.893422141
v 2.17011676 1.05748018 -0.893421994
vt 0.0195617676 0.995605469
vt 0.00557327271 0.961914062
vt 0.00352668762 0.96875
vt 0.0153808594 0.997070312
vt 0.503417969 0.961914062
vt 0.489257812 0.995605469
vt 0.493408203 0.997070312
vt 0.505371094 0.96875
vt 0.503417969 0.688964844
vt 0.501464844 0.684082031
vt 0.00755691528 0.684082031
vt 0.00557327271 0.688964844
vt 0.525878906 1
vt 0.98828125 1
vt 1 0.971679688
vt 0.514648438 0.971679688
vt 0.489257812 1
vt 0.489257812 0.995605469
vt 0.0195617676 0.995605469
vt 0.0195617676 1
vt 0.489257812 0.995605469
vt 0.503417969 0.961914062
vt 0.00557327271 0.961914062
vt 0.0195617676 0.995605469
vt 0.834472656 0.0818481445
vt 0.760253906 0.0818481445
vt 0.760253906 0.59375
vt 0.834472656 0.59375
vt 0.0820922852 0.0078125
vt 0.0820922852 0.0820922852
vt 0.344238281 0.0820922852
vt 0.344238281 0.0078125
vt 0.503417969 0.688964844
vt 0.503417969 0.961914062
vt 0.508789062 0.95703125
vt 0.508300781 0.688964844
vt 0.00557327271 0.688964844
vt 0.000397443771 0.688964844
vt 0 0.95703125
vt 0.00557327271 0.961914062
vt 0.344238281 0.0820922852
vt 0.0820922852 0.0820922852
vt 0.0820922852 0.603515625
vt 0.344238281 0.603515625
vt 0.0078125 0.603515625
vt 0.0820922852 0.603515625
vt 0.0820922852 0.0820922852
vt 0.0078125 0.0820922852
vt 0.418457031 0.0820922852
vt 0.344238281 0.0820922852
vt 0.344238281 0.603515625
vt 0.418457031 0.603515625
vt 0.344238281 0.677734375
vt 0.344238281 0.603515625
vt 0.0820922852 0.603515625
vt 0.0820922852 0.677734375
vt 0.51171875 0.0818481445
vt 0.51171875 0.59375
vt 0.760253906 0.59375
vt 0.760253906 0.0818481445
vt 0.760253906 0.667480469
vt 0.760253906 0.59375
vt 0.51171875 0.59375
vt 0.51171875 0.667480469
vt 0.51171875 0.0078125
vt 0.51171875 0.0818481445
vt 0.760253906 0.0818481445
vt 0.760253906 0.0078125
vt 0.4375 0.59375
vt 0.51171875 0.59375
vt 0.51171875 0.0818481445
vt 0.4375 0.0818481445
vt 1 0.971679688
vt 0.540527344 0.933105469
vt 0.514648438 0.971679688
vt 0.514160156 0.708007812
vt 0.973632812 0.933105469
vt 0.540527344 0.715332031
vt 0.973632812 0.715332031
vt 1 0.708007812
vt 0.503417969 0.688964844
vt 0.470458984 0.912109375
vt 0.503417969 0.961914062
vt 0.00557327271 0.961914062
vt 0.470458984 0.702148438
vt 0.0383605957 0.912109375
vt 0.0383605957 0.702148438
vt 0.00557327271 0.688964844
vt 0.000393629074 1
vt 2.77929688 1
vt 2.77929688 -0.000474452972
vt 0.000393629074 -0.000474452972
f 3/3 2/2 1/1
f 4/4 3/3 1/1
f 7/7 6/6 5/5
f 8/8 7/7 5/5
f 11/11 10/10 9/9
f 12/12 11/11 9/9
f 15/15 14/14 13/13
f 16/16 15/15 13/13
f 19/19 18/18 17/17
f 20/20 19/19 17/17
f 23/23 22/22 21/21
f 24/24 23/23 21/21
f 27/27 26/26 25/25
f 28/28 27/27 25/25
f 31/31 30/30 29/29
f 32/32 31/31 29/29
f 35/35 34/34 33/33
f 36/36 35/35 33/33
f 39/39 38/38 37/37
f 40/40 39/39 37/37
f 43/43 42/42 41/41
f 44/44 43/43 41/41
f 47/47 46/46 45/45
f 48/48 47/47 45/45
f 51/51 50/50 49/49
f 52/52 51/51 49/49
f 55/55 54/54 53/53
f 56/56 55/55 53/53
f 59/59 58/58 57/57
f 60/60 59/59 57/57
f 63/63 62/62 61/61
f 64/64 63/63 61/61
f 67/67 66/66 65/65
f 68/68 67/67 65/65
f 71/71 70/70 69/69
f 72/72 71/71 69/69
f 75/75 74/74 73/73
f 75/75 76/76 74/74
f 74/74 77/77 73/73
f 76/76 78/78 74/74
f 77/77 79/79 73/73
f 78/78 76/76 79/79
f 79/79 80/80 73/73
f 76/76 80/80 79/79
f 83/83 82/82 81/81
f 82/82 83/83 84/84
f 82/82 85/85 81/81
f 86/86 82/82 84/84
f 81/81 85/85 87/87
f 86/86 84/84 88/88
f 88/88 81/81 87/87
f 87/87 86/86 88/88
f 91/91 90/90 89/89
f 92/92 91/91 89/89
